<?xml version="1.0" standalone="no"?><!DOCTYPE svg PUBLIC "-//W3C//DTD SVG 1.1//EN" "http://www.w3.org/Graphics/SVG/1.1/DTD/svg11.dtd" ><svg xmlns="http://www.w3.org/2000/svg"><metadata></metadata><defs><font id="1.000;SAND;NanumSquareL;160623_01;" horiz-adv-x="1195"><font-face font-family="NanumSquare Light" font-weight="300" font-stretch="normal" units-per-em="1000" panose-1="2 11 6 0 0 1 1 1 1 1" ascent="850" descent="-255" x-height="1" bbox="-75 -249 1125 843" underline-thickness="50" underline-position="-75" unicode-range="U+0000-ffe6" /><missing-glyph horiz-adv-x="910" d="M855 -143 l-800 0 l0 900 l800 0 l0 -900 ZM455 278 l-335 -385 l670 0 l-335 385 ZM95 -76 l334 384 l-334 384 l0 -768 ZM454 337 l334 384 l-667 0 l333 -384 ZM815 693 l-334 -386 l334 -384 l0 770 Z" /><glyph glyph-name="" unicode="  " d="" /><glyph glyph-name="" unicode="!" d="M95 34 l70 0 l0 -84 l-70 0 l0 84 ZM107 145 l-3 564 l52 0 l-3 -564 l-46 0 Z" /><glyph glyph-name="" unicode="&quot;" d="M98 488 l-8 238 l52 0 l-8 -238 l-36 0 ZM222 488 l-8 238 l52 0 l-8 -238 l-36 0 Z" /><glyph glyph-name="" unicode="#" d="M493 248 l0 -38 l-117 0 l-34 -236 l-38 0 l34 236 l-157 0 l-33 -236 l-39 0 l34 236 l-113 0 l0 38 l117 0 l25 178 l-111 0 l0 38 l116 0 l33 231 l38 0 l-33 -231 l156 0 l33 231 l39 0 l-34 -231 l115 0 l0 -38 l-119 0 l-25 -178 l113 0 ZM367 426 l-157 0 l-25 -178 l157 0 l25 178 Z" /><glyph glyph-name="" unicode="$" d="M275 -15 q-63 2 -121.5 21 q-58.5 19 -106.5 55 l24 34 q57 -43 110 -56.5 q53 -13.5 94 -14.5 l0 301 l-10 3 q-69 16 -109 34.5 q-40 18.5 -60.5 39.5 q-20.5 21 -26 45 q-5.5 24 -5.5 50 l0 23 q0 43 19 73 q19 30 49.5 49.5 q30.5 19.5 68 29 q37.5 9.5 74.5 11.5 l0 68 l36 0 l0 -68 q62 -3 110 -19.5 q48 -16.5 80 -39.5 l-23 -32 q-32 20 -73 35 q-41 15 -94 17 l0 -285 q64 -17 106 -33 q42 -16 66.5 -36 q24.5 -20 34.5 -45.5 q10 -25.5 10 -61.5 l0 -26 q0 -33 -14.5 -63 q-14.5 -30 -42.5 -53 q-28 -23 -68 -37.5 q-40 -14.5 -92 -17.5 l0 -79 l-36 0 l0 78 ZM487 182 q0 24 -6.5 43 q-6.5 19 -25.5 34.5 q-19 15.5 -53.5 29 q-34.5 13.5 -90.5 28.5 l0 -292 q41 3 73.5 14 q32.5 11 55.5 29 q23 18 35 41 q12 23 12 49 l0 24 ZM105 498 q0 -23 6 -41 q6 -18 24 -33 q18 -15 51.5 -28.5 q33.5 -13.5 88.5 -27.5 l0 276 q-28 -2 -58 -9 q-30 -7 -55 -22 q-25 -15 -41 -38 q-16 -23 -16 -56 l0 -21 Z" /><glyph glyph-name="" unicode="%" d="M182 -25 l437 720 l43 0 l-436 -720 l-44 0 ZM220 700 q71 0 110.5 -42 q39.5 -42 39.5 -121 l0 -48 q0 -79 -39.5 -121 q-39.5 -42 -110.5 -42 q-71 0 -110.5 42 q-39.5 42 -39.5 121 l0 48 q0 79 39.5 121 q39.5 42 110.5 42 ZM220 363 q22 0 42 6 q20 6 35 21 q15 15 24 39.5 q9 24.5 9 61.5 l0 44 q0 37 -9 61.5 q-9 24.5 -24 39.5 q-15 15 -35 21 q-20 6 -42 6 q-22 0 -42 -6 q-20 -6 -35 -21 q-15 -15 -24 -39.5 q-9 -24.5 -9 -61.5 l0 -44 q0 -37 9 -61.5 q9 -24.5 24 -39.5 q15 -15 35 -21 q20 -6 42 -6 ZM622 340 q71 0 110.5 -42 q39.5 -42 39.5 -121 l0 -48 q0 -79 -39.5 -121 q-39.5 -42 -110.5 -42 q-71 0 -110.5 42 q-39.5 42 -39.5 121 l0 48 q0 79 39.5 121 q39.5 42 110.5 42 ZM622 3 q22 0 42 6 q20 6 35 21 q15 15 24 39.5 q9 24.5 9 61.5 l0 44 q0 37 -9 61.5 q-9 24.5 -24 39.5 q-15 15 -35 21 q-20 6 -42 6 q-22 0 -42 -6 q-20 -6 -35 -21 q-15 -15 -24 -39.5 q-9 -24.5 -9 -61.5 l0 -44 q0 -37 9 -61.5 q9 -24.5 24 -39.5 q15 -15 35 -21 q20 -6 42 -6 Z" /><glyph glyph-name="" unicode="&amp;" d="M495 66 q-42 -48 -100.5 -75.5 q-58.5 -27.5 -131.5 -27.5 l-6 0 q-45 0 -86 12.5 q-41 12.5 -71.5 35 q-30.5 22.5 -48.5 53.5 q-18 31 -18 67 l0 25 q0 36 10 63 q10 27 33.5 51 q23.5 24 61 48.5 q37.5 24.5 93.5 54.5 l-20 24 q-17 20 -33 39 q-16 19 -28 38.5 q-12 19.5 -19.5 39.5 q-7.5 20 -7.5 43 l0 15 q0 23 10 46.5 q10 23.5 30 43 q20 19.5 51.5 32 q31.5 12.5 75.5 12.5 q41 0 72 -12.5 q31 -12.5 52 -31.5 q21 -19 31.5 -42.5 q10.5 -23.5 10.5 -45.5 l0 -19 q0 -25 -8 -48 q-8 -23 -26.5 -46 q-18.5 -23 -50.5 -47 q-32 -24 -80 -51 l202 -236 q29 45 43.5 100 q14.5 55 15.5 114 l39 0 q-2 -72 -20 -134 q-18 -62 -52 -111 l105 -122 l-49 0 l-80 92 ZM261 0 q68 0 120 25.5 q52 25.5 89 70.5 l-214 248 q-41 -23 -74.5 -42.5 q-33.5 -19.5 -57.5 -41 q-24 -21.5 -37 -47.5 q-13 -26 -13 -61 l0 -18 q0 -27 14 -51.5 q14 -24.5 39 -42.5 q25 -18 59 -29 q34 -11 75 -11 ZM163 559 q0 -21 8 -40 q8 -19 22 -39 q14 -20 32.5 -41.5 q18.5 -21.5 40.5 -46.5 q43 24 72 44.5 q29 20.5 46.5 40.5 q17.5 20 25 39.5 q7.5 19.5 7.5 42.5 l0 11 q0 43 -34 71 q-34 28 -93 28 q-57 0 -92 -27 q-35 -27 -35 -72 l0 -11 Z" /><glyph glyph-name="" unicode="&#39;" d="M98 488 l-8 238 l52 0 l-8 -238 l-36 0 Z" /><glyph glyph-name="" unicode="(" d="M113 274 q0 -114 31 -226 q31 -112 108 -218 l-42 0 q-75 89 -110.5 205 q-35.5 116 -35.5 244 l0 40 q0 128 35.5 243 q35.5 115 110.5 204 l42 0 q-74 -100 -106.5 -210.5 q-32.5 -110.5 -32.5 -231.5 l0 -50 Z" /><glyph glyph-name="" unicode=")" d="M176 324 q0 121 -32.5 231.5 q-32.5 110.5 -106.5 210.5 l42 0 q75 -89 110.5 -204 q35.5 -115 35.5 -243 l0 -40 q0 -128 -35.5 -244 q-35.5 -116 -110.5 -205 l-42 0 q77 106 108 218 q31 112 31 226 l0 50 Z" /><glyph glyph-name="" unicode="*" d="M66 418 l-21 37 l150 79 l-150 78 l21 37 l141 -88 l-8 168 l46 0 l-7 -168 l142 88 l20 -37 l-150 -78 l150 -79 l-20 -37 l-142 88 l7 -167 l-46 0 l8 167 l-141 -88 Z" /><glyph glyph-name="" unicode="+" d="M322 565 l0 -224 l218 0 l0 -42 l-218 0 l0 -238 l-44 0 l0 238 l-218 0 l0 42 l218 0 l0 224 l44 0 Z" /><glyph glyph-name="" unicode="," d="M75 48 l67 0 l-59 -223 l-44 0 l36 223 Z" /><glyph glyph-name="" unicode="-" d="M53 356 l298 0 l0 -44 l-298 0 l0 44 Z" /><glyph glyph-name="" unicode="." d="M58 42 l80 0 l0 -86 l-80 0 l0 86 Z" /><glyph glyph-name="" unicode="/" d="M344 757 l-300 -879 l-44 0 l300 879 l44 0 Z" /><glyph glyph-name="" unicode="0" d="M530 279 q0 -153 -55 -234.5 q-55 -81.5 -182 -81.5 q-63 0 -107.5 21 q-44.5 21 -72 61.5 q-27.5 40.5 -40.5 99 q-13 58.5 -13 134.5 l0 112 q0 151 54.5 233 q54.5 82 178.5 82 q63 0 107.5 -21 q44.5 -21 73.5 -61 q29 -40 42.5 -98.5 q13.5 -58.5 13.5 -134.5 l0 -112 ZM487 392 q0 133 -44 203.5 q-44 70.5 -150 70.5 q-52 0 -88 -18 q-36 -18 -58.5 -53 q-22.5 -35 -33 -86 q-10.5 -51 -10.5 -117 l0 -114 q0 -67 10.5 -118 q10.5 -51 33 -86 q22.5 -35 58.5 -53 q36 -18 88 -18 q53 0 90 18 q37 18 60 52.5 q23 34.5 33.5 86 q10.5 51.5 10.5 118.5 l0 114 Z" /><glyph glyph-name="" unicode="1" d="M324 -26 l0 661 l-202 -122 l-20 35 l240 147 l26 0 l0 -721 l-44 0 Z" /><glyph glyph-name="" unicode="2" d="M389 367 q24 28 38 49.5 q14 21.5 21 39 q7 17.5 9 33 q2 15.5 2 33.5 l0 8 q0 63 -40 99.5 q-40 36.5 -118 36.5 q-57 0 -101.5 -27.5 q-44.5 -27.5 -79.5 -90.5 l-36 21 q14 26 33.5 50.5 q19.5 24.5 45.5 44 q26 19.5 60 31 q34 11.5 76 11.5 q45 0 82.5 -12 q37.5 -12 64.5 -34.5 q27 -22.5 41.5 -55 q14.5 -32.5 14.5 -72.5 l0 -10 q0 -25 -4 -46 q-4 -21 -14 -42 q-10 -21 -25.5 -43.5 q-15.5 -22.5 -38.5 -49.5 l-275 -325 l384 0 l0 -42 l-444 0 l0 37 l304 356 Z" /><glyph glyph-name="" unicode="3" d="M95 594 q12 20 30.5 40 q18.5 20 44 36 q25.5 16 58 26 q32.5 10 71.5 10 q47 0 85.5 -13 q38.5 -13 65.5 -36.5 q27 -23.5 42 -57 q15 -33.5 15 -73.5 l0 -10 q0 -21 -6 -44.5 q-6 -23.5 -21 -46 q-15 -22.5 -40 -41.5 q-25 -19 -64 -32 q76 -13 117.5 -58 q41.5 -45 41.5 -109 l0 -15 q0 -38 -12 -75 q-12 -37 -40 -66 q-28 -29 -73.5 -47.5 q-45.5 -18.5 -111.5 -18.5 q-63 0 -121.5 19.5 q-58.5 19.5 -109.5 60.5 l25 37 q52 -42 105 -59 q53 -17 101 -17 q55 0 92 16 q37 16 59.5 40.5 q22.5 24.5 32 53.5 q9.5 29 9.5 55 l0 13 q0 47 -19.5 76 q-19.5 29 -48 45 q-28.5 16 -60.5 21.5 q-32 5.5 -57 5.5 l-80 0 l0 40 l78 0 q24 0 52 8 q28 8 52 25.5 q24 17.5 39.5 46 q15.5 28.5 15.5 69.5 l0 8 q0 61 -42.5 99.5 q-42.5 38.5 -120.5 38.5 q-45 0 -90 -20 q-45 -20 -80 -75 l-35 24 Z" /><glyph glyph-name="" unicode="4" d="M459 422 l0 -238 l112 0 l0 -43 l-112 0 l0 -167 l-44 0 l0 167 l-368 0 l0 43 l361 511 l52 0 l-362 -511 l317 0 l0 238 l44 0 Z" /><glyph glyph-name="" unicode="5" d="M493 191 q0 94 -47 137 q-47 43 -133 43 q-55 0 -91.5 -20 q-36.5 -20 -62.5 -46 l-50 0 l23 390 l360 0 l0 -41 l-320 0 l-17 -305 q26 26 69 44.5 q43 18.5 94 18.5 q48 0 88 -14 q40 -14 69.5 -41 q29.5 -27 45.5 -68 q16 -41 16 -95 l0 -19 q0 -36 -12 -74 q-12 -38 -40 -68.5 q-28 -30.5 -73.5 -50 q-45.5 -19.5 -111.5 -19.5 q-63 0 -121.5 19.5 q-58.5 19.5 -109.5 60.5 l25 37 q52 -42 105 -59 q53 -17 101 -17 q55 0 92 17 q37 17 59.5 42.5 q22.5 25.5 32 55 q9.5 29.5 9.5 55.5 l0 17 Z" /><glyph glyph-name="" unicode="6" d="M491 622 q-35 22 -72 33 q-37 11 -84 11 q-61 0 -102 -26 q-41 -26 -66.5 -72.5 q-25.5 -46.5 -38 -112.5 q-12.5 -66 -16.5 -145 q12 28 32.5 50 q20.5 22 46.5 37.5 q26 15.5 57 23.5 q31 8 64 8 q50 0 91 -15 q41 -15 70.5 -43.5 q29.5 -28.5 45.5 -69 q16 -40.5 16 -91.5 l0 -22 q0 -55 -18 -97 q-18 -42 -49 -70.5 q-31 -28.5 -72.5 -43 q-41.5 -14.5 -88.5 -14.5 q-46 0 -89 16.5 q-43 16.5 -76 52.5 q-33 36 -52.5 92.5 q-19.5 56.5 -19.5 136.5 l0 18 q0 114 17.5 194.5 q17.5 80.5 51 132.5 q33.5 52 82 76 q48.5 24 111.5 24 q57 0 102.5 -15 q45.5 -15 75.5 -34 l-19 -35 ZM120 208 q0 -46 14.5 -84 q14.5 -38 39.5 -65 q25 -27 59.5 -41.5 q34.5 -14.5 73.5 -14.5 q39 0 72.5 12 q33.5 12 58 35.5 q24.5 23.5 39 58 q14.5 34.5 14.5 80.5 l0 13 q0 91 -46.5 140 q-46.5 49 -135.5 49 q-42 0 -77 -14 q-35 -14 -60 -38 q-25 -24 -38.5 -56.5 q-13.5 -32.5 -13.5 -68.5 l0 -6 Z" /><glyph glyph-name="" unicode="7" d="M235 -26 l-49 0 l304 680 l-423 0 l0 41 l472 0 l0 -31 l-304 -690 Z" /><glyph glyph-name="" unicode="8" d="M129 511 q0 -32 11.5 -59.5 q11.5 -27.5 33 -47.5 q21.5 -20 52.5 -31.5 q31 -11.5 70 -11.5 q39 0 69.5 11.5 q30.5 11.5 52 31.5 q21.5 20 32.5 47.5 q11 27.5 11 59.5 l0 13 q0 30 -11 56 q-11 26 -32.5 45 q-21.5 19 -52.5 30 q-31 11 -70 11 q-82 0 -124 -41 q-42 -41 -42 -101 l0 -13 ZM108 152 q0 -30 12.5 -57 q12.5 -27 36 -47.5 q23.5 -20.5 58.5 -32.5 q35 -12 80 -12 q46 0 81 12 q35 12 58.5 32.5 q23.5 20.5 35.5 47.5 q12 27 12 57 l0 13 q0 36 -13.5 65.5 q-13.5 29.5 -38.5 50 q-25 20.5 -59 32 q-34 11.5 -76 11.5 q-41 0 -75 -11 q-34 -11 -59 -31.5 q-25 -20.5 -39 -50 q-14 -29.5 -14 -66.5 l0 -13 ZM66 170 q0 60 37 107 q37 47 107 65 q-52 23 -86.5 64 q-34.5 41 -34.5 106 l0 18 q0 39 15.5 71 q15.5 32 43 55.5 q27.5 23.5 65.5 36.5 q38 13 82 13 q44 0 82 -13 q38 -13 65.5 -36.5 q27.5 -23.5 43 -55.5 q15.5 -32 15.5 -71 l0 -18 q0 -65 -35 -107 q-35 -42 -88 -63 q72 -19 109 -65.5 q37 -46.5 37 -106.5 l0 -17 q0 -43 -17 -78 q-17 -35 -47.5 -60 q-30.5 -25 -72.5 -38.5 q-42 -13.5 -92 -13.5 q-50 0 -92 13.5 q-42 13.5 -72.5 38.5 q-30.5 25 -47.5 60 q-17 35 -17 78 l0 17 Z" /><glyph glyph-name="" unicode="9" d="M105 47 q35 -22 72 -33 q37 -11 84 -11 q61 0 102.5 22 q41.5 22 67.5 66 q26 44 38.5 110 q12.5 66 14.5 155 q-12 -28 -32.5 -50 q-20.5 -22 -46.5 -37.5 q-26 -15.5 -57 -23.5 q-31 -8 -64 -8 q-50 0 -91.5 15 q-41.5 15 -70.5 43.5 q-29 28.5 -45 69 q-16 40.5 -16 91.5 l0 25 q0 55 18 97 q18 42 49 70.5 q31 28.5 72.5 43 q41.5 14.5 88.5 14.5 q48 0 91 -16.5 q43 -16.5 75.5 -52 q32.5 -35.5 51.5 -91.5 q19 -56 19 -136 l0 -25 q0 -122 -18 -203 q-18 -81 -52 -130 q-34 -49 -82.5 -69 q-48.5 -20 -109.5 -20 q-57 0 -102.5 15 q-45.5 15 -75.5 34 l19 35 ZM476 461 q0 47 -14 85 q-14 38 -38.5 64.5 q-24.5 26.5 -59 41 q-34.5 14.5 -75.5 14.5 q-39 0 -72.5 -12 q-33.5 -12 -58 -35.5 q-24.5 -23.5 -39 -58 q-14.5 -34.5 -14.5 -80.5 l0 -16 q0 -91 46.5 -140 q46.5 -49 135.5 -49 q42 0 77 14 q35 14 60 38 q25 24 38.5 56.5 q13.5 32.5 13.5 68.5 l0 9 Z" /><glyph glyph-name="" unicode=":" d="M86 122 l84 0 l0 -90 l-84 0 l0 90 ZM86 560 l84 0 l0 -90 l-84 0 l0 90 Z" /><glyph glyph-name="" unicode=";" d="M86 560 l84 0 l0 -90 l-84 0 l0 90 ZM98 128 l67 0 l-59 -223 l-44 0 l36 223 Z" /><glyph glyph-name="" unicode="&lt;" d="M109 321 l424 -224 l0 -47 l-468 252 l0 39 l468 252 l0 -47 l-424 -223 l0 -2 Z" /><glyph glyph-name="" unicode="=" d="M74 448 l442 0 l0 -45 l-442 0 l0 45 ZM74 237 l442 0 l0 -45 l-442 0 l0 45 Z" /><glyph glyph-name="" unicode="&gt;" d="M481 323 l-424 223 l0 47 l468 -252 l0 -39 l-468 -252 l0 47 l424 224 l0 2 Z" /><glyph glyph-name="" unicode="?" d="M203 141 l0 48 q0 35 15 63.5 q15 28.5 37 53 q22 24.5 48 47 q26 22.5 48 46.5 q22 24 37 50 q15 26 15 59 l0 19 q0 35 -13 60.5 q-13 25.5 -34.5 42.5 q-21.5 17 -50 25.5 q-28.5 8.5 -59.5 8.5 q-54 0 -95.5 -20 q-41.5 -20 -78.5 -59 l-29 29 q15 16 35 32.5 q20 16.5 45.5 29.5 q25.5 13 55.5 21.5 q30 8.5 65 8.5 q94 0 148.5 -48 q54.5 -48 54.5 -130 l0 -20 q0 -38 -15 -68 q-15 -30 -37 -55.5 q-22 -25.5 -48 -47.5 q-26 -22 -48 -45 q-22 -23 -37 -48.5 q-15 -25.5 -15 -57.5 l0 -45 l-44 0 ZM190 34 l70 0 l0 -84 l-70 0 l0 84 Z" /><glyph glyph-name="" unicode="@" d="M748 48 q-40 0 -74.5 21 q-34.5 21 -48.5 66 l-1 0 q-11 -24 -30 -40.5 q-19 -16.5 -41 -26 q-22 -9.5 -44.5 -14 q-22.5 -4.5 -40.5 -4.5 q-85 0 -130.5 50.5 q-45.5 50.5 -45.5 141.5 l0 77 q0 92 50 141.5 q50 49.5 129 49.5 q45 0 85.5 -17 q40.5 -17 59.5 -47 l0 56 l45 0 l0 -330 q0 -21 7.5 -36.5 q7.5 -15.5 20 -25.5 q12.5 -10 28.5 -15 q16 -5 32 -5 q25 0 48 10 q23 10 41 34 q18 24 28.5 63 q10.5 39 10.5 97 l0 14 q0 86 -24.5 156.5 q-24.5 70.5 -74 121 q-49.5 50.5 -124.5 78.5 q-75 28 -177 28 q-86 0 -156.5 -28 q-70.5 -28 -120.5 -79.5 q-50 -51.5 -77.5 -125 q-27.5 -73.5 -27.5 -163.5 l0 -17 q0 -93 26 -168.5 q26 -75.5 76.5 -129.5 q50.5 -54 125.5 -83.5 q75 -29.5 173 -29.5 q79 0 155 16.5 q76 16.5 139 50.5 l17 -38 q-63 -34 -140.5 -52 q-77.5 -18 -167.5 -18 q-102 0 -185 31 q-83 31 -141 89 q-58 58 -89.5 142 q-31.5 84 -31.5 189 l0 19 q0 94 29 174 q29 80 84 138.5 q55 58.5 134 91 q79 32.5 178 32.5 q109 0 192 -31 q83 -31 138.5 -87 q55.5 -56 84 -133.5 q28.5 -77.5 28.5 -170.5 l0 -14 q0 -41 -7.5 -84.5 q-7.5 -43.5 -27 -80.5 q-19.5 -37 -52.5 -60.5 q-33 -23.5 -85 -23.5 ZM336 247 q0 -44 10 -74 q10 -30 28.5 -48 q18.5 -18 44 -26 q25.5 -8 56.5 -8 q68 0 105 41 q37 41 37 102 l0 126 q0 20 -10.5 39.5 q-10.5 19.5 -29.5 35 q-19 15.5 -45 25 q-26 9.5 -57 9.5 q-67 0 -103 -41 q-36 -41 -36 -114 l0 -67 Z" /><glyph glyph-name="" unicode="a" d="M476 207 l-326 0 l-88 -233 l-48 0 l278 721 l44 0 l275 -721 l-49 0 l-86 233 ZM165 246 l296 0 l-86 233 q-16 44 -32 85.5 q-16 41.5 -29 83.5 q-12 -42 -27.5 -83.5 q-15.5 -41.5 -32.5 -85.5 l-89 -233 Z" /><glyph glyph-name="" unicode="b" d="M88 695 l223 0 q114 0 167 -43 q53 -43 53 -132 l0 -23 q0 -24 -6.5 -46.5 q-6.5 -22.5 -20.5 -41.5 q-14 -19 -36.5 -33.5 q-22.5 -14.5 -54.5 -22.5 q72 -10 111.5 -49 q39.5 -39 39.5 -114 l0 -27 q0 -89 -51.5 -139 q-51.5 -50 -168.5 -50 l-256 0 l0 721 ZM131 14 l217 0 q171 0 171 149 l0 24 q0 70 -45 107.5 q-45 37.5 -153 37.5 l-190 0 l0 -318 ZM131 655 l0 -284 l189 0 q75 0 121 30.5 q46 30.5 46 98.5 l0 20 q0 64 -39 99.5 q-39 35.5 -133 35.5 l-184 0 Z" /><glyph glyph-name="" unicode="c" d="M571 45 q-11 -10 -30.5 -24 q-19.5 -14 -48 -27 q-28.5 -13 -66 -22 q-37.5 -9 -83.5 -9 q-76 0 -129.5 24.5 q-53.5 24.5 -87.5 69.5 q-34 45 -50 108.5 q-16 63.5 -16 140.5 l0 77 q0 74 17 134 q17 60 51 102 q34 42 85 64.5 q51 22.5 118 22.5 q70 0 126 -19 q56 -19 96 -48 l-24 -34 q-44 30 -89 44.5 q-45 14.5 -109 14.5 q-54 0 -96.5 -19 q-42.5 -19 -71 -54 q-28.5 -35 -43.5 -85 q-15 -50 -15 -111 l0 -100 q0 -143 61 -216.5 q61 -73.5 179 -73.5 q36 0 66.5 7 q30.5 7 56 18 q25.5 11 45 24 q19.5 13 32.5 24 l26 -33 Z" /><glyph glyph-name="" unicode="d" d="M301 695 q140 0 213.5 -79.5 q73.5 -79.5 73.5 -229.5 l0 -103 q0 -75 -20.5 -132.5 q-20.5 -57.5 -58.5 -96.5 q-38 -39 -91 -59.5 q-53 -20.5 -117 -20.5 l-213 0 l0 721 l213 0 ZM132 16 l174 0 q49 0 92 16.5 q43 16.5 75 50 q32 33.5 51 83.5 q19 50 19 117 l0 98 q0 137 -62 204.5 q-62 67.5 -176 67.5 l-173 0 l0 -637 Z" /><glyph glyph-name="" unicode="e" d="M509 695 l0 -41 l-377 0 l0 -290 l356 0 l0 -40 l-356 0 l0 -309 l384 0 l0 -41 l-428 0 l0 721 l421 0 Z" /><glyph glyph-name="" unicode="f" d="M500 695 l0 -41 l-368 0 l0 -309 l347 0 l0 -40 l-347 0 l0 -331 l-44 0 l0 721 l412 0 Z" /><glyph glyph-name="" unicode="g" d="M533 307 l-180 0 l0 42 l223 0 l0 -324 q-11 -10 -31.5 -21 q-20.5 -11 -49.5 -20 q-29 -9 -66 -15 q-37 -6 -81 -6 q-76 0 -130.5 24.5 q-54.5 24.5 -89.5 69.5 q-35 45 -51.5 108.5 q-16.5 63.5 -16.5 140.5 l0 77 q0 74 18 134 q18 60 53 102 q35 42 86.5 64.5 q51.5 22.5 118.5 22.5 q70 0 127.5 -19 q57.5 -19 97.5 -48 l-24 -34 q-44 30 -90.5 44.5 q-46.5 14.5 -110.5 14.5 q-54 0 -97 -19 q-43 -19 -73 -54 q-30 -35 -45.5 -85 q-15.5 -50 -15.5 -111 l0 -100 q0 -143 63.5 -216.5 q63.5 -73.5 181.5 -73.5 q52 0 102 11.5 q50 11.5 81 33.5 l0 257 Z" /><glyph glyph-name="" unicode="h" d="M579 695 l0 -721 l-44 0 l0 358 l-403 0 l0 -358 l-44 0 l0 721 l44 0 l0 -322 l403 0 l0 322 l44 0 Z" /><glyph glyph-name="" unicode="i" d="M132 695 l0 -721 l-44 0 l0 721 l44 0 Z" /><glyph glyph-name="" unicode="j" d="M352 150 q0 -50 -13.5 -85.5 q-13.5 -35.5 -37 -58 q-23.5 -22.5 -56 -33 q-32.5 -10.5 -70.5 -10.5 q-46 0 -87 12.5 q-41 12.5 -74 38.5 l22 35 q32 -25 66.5 -35.5 q34.5 -10.5 70.5 -10.5 q69 0 102 37 q33 37 33 111 l0 544 l44 0 l0 -545 Z" /><glyph glyph-name="" unicode="k" d="M277 390 l316 -416 l-54 0 l-293 385 l-114 -117 l0 -268 l-44 0 l0 721 l44 0 l0 -397 l383 397 l60 0 l-298 -305 Z" /><glyph glyph-name="" unicode="l" d="M132 695 l0 -680 l374 0 l0 -41 l-418 0 l0 721 l44 0 Z" /><glyph glyph-name="" unicode="m" d="M187 507 q-32 62 -56 118 l0 -651 l-43 0 l0 721 l50 0 l272 -551 l266 551 l52 0 l0 -721 l-43 0 l0 643 q-14 -33 -28 -62 q-14 -29 -31 -61 l-198 -400 l-38 0 l-203 413 Z" /><glyph glyph-name="" unicode="n" d="M148 695 l359 -611 q6 -10 15.5 -29 q9.5 -19 15.5 -32 l0 672 l43 0 l0 -721 l-60 0 l-359 611 q-8 14 -16.5 31 q-8.5 17 -14.5 30 l0 -672 l-43 0 l0 721 l60 0 Z" /><glyph glyph-name="" unicode="o" d="M614 289 q0 -71 -17.5 -131 q-17.5 -60 -52 -103.5 q-34.5 -43.5 -86.5 -67.5 q-52 -24 -121 -24 q-69 0 -121 24 q-52 24 -86.5 67.5 q-34.5 43.5 -52 103.5 q-17.5 60 -17.5 131 l0 91 q0 71 17.5 131 q17.5 60 52 103.5 q34.5 43.5 86.5 67.5 q52 24 121 24 q69 0 121 -24 q52 -24 86.5 -67.5 q34.5 -43.5 52 -103.5 q17.5 -60 17.5 -131 l0 -91 ZM569 379 q0 140 -62 213 q-62 73 -170 73 q-108 0 -170 -73 q-62 -73 -62 -213 l0 -89 q0 -140 62 -213 q62 -73 170 -73 q108 0 170 73 q62 73 62 213 l0 89 Z" /><glyph glyph-name="" unicode="p" d="M88 695 l225 0 q114 0 173 -52 q59 -52 59 -152 l0 -22 q0 -102 -60.5 -153.5 q-60.5 -51.5 -174.5 -51.5 l-178 0 l0 -290 l-44 0 l0 721 ZM132 654 l0 -349 l173 0 q54 0 91 11.5 q37 11.5 60.5 33 q23.5 21.5 33.5 52 q10 30.5 10 68.5 l0 19 q0 37 -10 67.5 q-10 30.5 -32.5 52 q-22.5 21.5 -58 33.5 q-35.5 12 -86.5 12 l-181 0 Z" /><glyph glyph-name="" unicode="q" d="M608 289 q0 -74 -18 -135 q-18 -61 -55 -105 l85 -84 l-30 -31 l-85 85 q-32 -27 -74.5 -41.5 q-42.5 -14.5 -96.5 -14.5 q-69 0 -120.5 24 q-51.5 24 -85.5 67.5 q-34 43.5 -51 103.5 q-17 60 -17 131 l0 91 q0 71 17 131 q17 60 51 103.5 q34 43.5 85.5 67.5 q51.5 24 120.5 24 q69 0 120.5 -24 q51.5 -24 85.5 -67.5 q34 -43.5 51 -103.5 q17 -60 17 -131 l0 -91 ZM563 379 q0 140 -60.5 213 q-60.5 73 -168.5 73 q-108 0 -168.5 -73 q-60.5 -73 -60.5 -213 l0 -89 q0 -140 60.5 -213 q60.5 -73 168.5 -73 q85 0 141 45 l-108 109 l30 31 l108 -109 q28 36 43 88.5 q15 52.5 15 121.5 l0 89 Z" /><glyph glyph-name="" unicode="r" d="M88 695 l219 0 q54 0 98 -10.5 q44 -10.5 75 -33 q31 -22.5 47.5 -57.5 q16.5 -35 16.5 -85 l0 -22 q0 -76 -37.5 -121 q-37.5 -45 -103.5 -62 l159 -330 l-47 0 l-156 321 q-26 -3 -55 -3 l-172 0 l0 -318 l-44 0 l0 721 ZM132 654 l0 -321 l167 0 q104 0 152 39.5 q48 39.5 48 115.5 l0 19 q0 75 -47 111 q-47 36 -145 36 l-175 0 Z" /><glyph glyph-name="" unicode="s" d="M293 5 q46 0 82.5 11.5 q36.5 11.5 62 31 q25.5 19.5 38.5 45 q13 25.5 13 53.5 l0 26 q0 30 -7 52.5 q-7 22.5 -30 40 q-23 17.5 -66 32.5 q-43 15 -115 30 q-69 15 -109 35 q-40 20 -60 43.5 q-20 23.5 -25.5 49.5 q-5.5 26 -5.5 52 l0 25 q0 45 20 78 q20 33 52 54 q32 21 72 31.5 q40 10.5 81 10.5 q72 0 124.5 -16.5 q52.5 -16.5 86.5 -41.5 l-21 -36 q-35 23 -82 37.5 q-47 14.5 -108 14.5 q-32 0 -64 -7.5 q-32 -7.5 -58 -24 q-26 -16.5 -42.5 -41.5 q-16.5 -25 -16.5 -60 l0 -23 q0 -24 5.5 -44 q5.5 -20 24 -37 q18.5 -17 53 -32 q34.5 -15 92.5 -28 q73 -17 120 -33 q47 -16 74.5 -37.5 q27.5 -21.5 38 -51 q10.5 -29.5 10.5 -72.5 l0 -28 q0 -35 -16 -68 q-16 -33 -46.5 -58.5 q-30.5 -25.5 -75 -40.5 q-44.5 -15 -101.5 -15 q-66 0 -127.5 19 q-61.5 19 -112.5 57 l22 37 q33 -23 63 -37 q30 -14 57 -21.5 q27 -7.5 51.5 -10 q24.5 -2.5 45.5 -2.5 Z" /><glyph glyph-name="" unicode="t" d="M262 -26 l0 680 l-240 0 l0 41 l524 0 l0 -41 l-240 0 l0 -680 l-44 0 Z" /><glyph glyph-name="" unicode="u" d="M333 4 q42 0 80 12.5 q38 12.5 66 42.5 q28 30 44.5 79 q16.5 49 16.5 123 l0 434 l44 0 l0 -448 q0 -140 -68 -212 q-68 -72 -183 -72 q-115 0 -183 72 q-68 72 -68 212 l0 448 l44 0 l0 -434 q0 -74 16.5 -123 q16.5 -49 44.5 -79 q28 -30 66 -42.5 q38 -12.5 80 -12.5 Z" /><glyph glyph-name="" unicode="v" d="M67 695 l242 -668 l240 668 l47 0 l-263 -721 l-51 0 l-264 721 l49 0 Z" /><glyph glyph-name="" unicode="w" d="M914 695 l-202 -721 l-52 0 l-186 665 l-184 -665 l-52 0 l-202 721 l47 0 l181 -663 l186 663 l50 0 l187 -662 l183 662 l44 0 Z" /><glyph glyph-name="" unicode="x" d="M337 349 l242 -375 l-54 0 l-219 346 l-230 -346 l-52 0 l254 373 l-241 348 l52 0 l219 -321 l207 321 l50 0 l-228 -346 Z" /><glyph glyph-name="" unicode="y" d="M317 273 l0 -299 l-44 0 l0 299 l-249 422 l47 0 l225 -382 l216 382 l48 0 l-243 -422 Z" /><glyph glyph-name="" unicode="z" d="M535 660 l-449 -646 l468 0 l0 -40 l-522 0 l0 35 l449 646 l-424 0 l0 40 l478 0 l0 -35 Z" /><glyph glyph-name="" unicode="[" d="M286 -170 l-206 0 l0 936 l206 0 l0 -38 l-165 0 l0 -860 l165 0 l0 -38 Z" /><glyph glyph-name="" unicode="\" d="M45 391 l109 0 l-76 304 l44 0 l73 -304 l178 0 l77 304 l48 0 l77 -304 l180 0 l74 304 l41 0 l-76 -304 l112 0 l0 -38 l-122 0 l-94 -379 l-49 0 l-96 379 l-144 0 l-94 -379 l-49 0 l-95 379 l-118 0 l0 38 ZM667 31 l78 322 l-160 0 l82 -322 ZM282 30 l81 323 l-159 0 l78 -323 ZM411 391 l125 0 l-63 250 l-62 -250 Z" /><glyph glyph-name="" unicode="]" d="M37 -132 l165 0 l0 860 l-165 0 l0 38 l206 0 l0 -936 l-206 0 l0 38 Z" /><glyph glyph-name="" unicode="^" d="M424 401 l-162 281 l-162 -281 l-46 0 l189 323 l39 0 l188 -323 l-46 0 Z" /><glyph glyph-name="" unicode="_" d="M460 -118 l-460 0 l0 43 l460 0 l0 -43 Z" /><glyph glyph-name="" unicode="`" d="M329 571 l-112 134 l53 0 l101 -134 l-42 0 Z" /><glyph glyph-name="" unicode="a" d="M228 -34 q-37 0 -69 10 q-32 10 -55 29.5 q-23 19.5 -36.5 48 q-13.5 28.5 -13.5 66.5 l0 15 q0 30 10.5 56.5 q10.5 26.5 33 46 q22.5 19.5 56.5 31 q34 11.5 81 11.5 l163 0 l0 65 q0 66 -35.5 100 q-35.5 34 -106.5 34 q-44 0 -82.5 -14.5 q-38.5 -14.5 -75.5 -39.5 l-21 33 q35 25 81 42.5 q46 17.5 101 17.5 q84 0 133 -44 q49 -44 49 -127 l0 -373 l-43 0 l0 75 l-1 0 q-8 -14 -22 -29.5 q-14 -15.5 -34 -26.5 q-22 -12 -49 -19.5 q-27 -7.5 -64 -7.5 ZM398 243 l-162 0 q-38 0 -64.5 -8.5 q-26.5 -8.5 -42.5 -23 q-16 -14.5 -23 -34 q-7 -19.5 -7 -41.5 l0 -16 q0 -33 12 -55 q12 -22 30.5 -35.5 q18.5 -13.5 42 -19.5 q23.5 -6 47.5 -6 q26 0 50 4.5 q24 4.5 47 16.5 q32 16 51 44 q19 28 19 60 l0 114 Z" /><glyph glyph-name="" unicode="b" d="M129 420 q20 41 65 69.5 q45 28.5 107 28.5 q96 0 150.5 -58 q54.5 -58 54.5 -169 l0 -98 q0 -56 -15.5 -98 q-15.5 -42 -43.5 -71 q-28 -29 -67 -43.5 q-39 -14.5 -86 -14.5 q-48 0 -95 19.5 q-47 19.5 -71 56.5 l0 -68 l-42 0 l0 756 l43 0 l0 -310 ZM128 134 q0 -26 12 -49.5 q12 -23.5 34.5 -41 q22.5 -17.5 53 -28 q30.5 -10.5 68.5 -10.5 q75 0 121 50 q46 50 46 144 l0 86 q0 95 -41 144.5 q-41 49.5 -125 49.5 q-29 0 -59 -11 q-30 -11 -54.5 -32 q-24.5 -21 -40 -51.5 q-15.5 -30.5 -15.5 -69.5 l0 -181 Z" /><glyph glyph-name="" unicode="c" d="M273 518 q47 0 91.5 -12 q44.5 -12 78.5 -38 l-19 -33 q-37 25 -74 34.5 q-37 9.5 -77 9.5 q-85 0 -127.5 -54.5 q-42.5 -54.5 -42.5 -141.5 l0 -76 q0 -45 10.5 -82 q10.5 -37 32 -64 q21.5 -27 54.5 -41.5 q33 -14.5 77 -14.5 q57 0 97 15 q40 15 67 38 l21 -33 q-28 -23 -74.5 -41 q-46.5 -18 -111.5 -18 q-49 0 -88.5 15 q-39.5 15 -68 45 q-28.5 30 -44 75.5 q-15.5 45.5 -15.5 106.5 l0 72 q0 54 14.5 98 q14.5 44 41.5 75 q27 31 66.5 48 q39.5 17 90.5 17 Z" /><glyph glyph-name="" unicode="d" d="M438 64 q-20 -41 -66 -69.5 q-46 -28.5 -108 -28.5 q-97 0 -150.5 58 q-53.5 58 -53.5 169 l0 98 q0 55 15.5 97.5 q15.5 42.5 44 71.5 q28.5 29 67 43.5 q38.5 14.5 85.5 14.5 q48 0 94.5 -19.5 q46.5 -19.5 70.5 -56.5 l0 288 l43 0 l0 -756 l-42 0 l0 90 ZM438 350 q0 26 -12 49.5 q-12 23.5 -34.5 41 q-22.5 17.5 -53.5 28 q-31 10.5 -68 10.5 q-75 0 -121 -50 q-46 -50 -46 -144 l0 -86 q0 -95 41 -144.5 q41 -49.5 125 -49.5 q29 0 59 11 q30 11 54.5 32 q24.5 21 40 51.5 q15.5 30.5 15.5 69.5 l0 181 Z" /><glyph glyph-name="" unicode="e" d="M274 480 q-80 0 -126 -54 q-46 -54 -46 -149 l0 -10 l342 0 q0 106 -43 159.5 q-43 53.5 -127 53.5 ZM281 4 q57 0 101 15 q44 15 71 38 l21 -32 q-28 -23 -77.5 -41 q-49.5 -18 -114.5 -18 q-57 0 -99 18 q-42 18 -69 50.5 q-27 32.5 -40.5 76.5 q-13.5 44 -13.5 95 l0 76 q0 52 15 95.5 q15 43.5 42.5 75 q27.5 31.5 67 48.5 q39.5 17 89.5 17 q53 0 92.5 -18 q39.5 -18 66 -50 q26.5 -32 40 -77.5 q13.5 -45.5 13.5 -100.5 l0 -40 l-384 0 l0 -19 q0 -103 47.5 -156 q47.5 -53 131.5 -53 Z" /><glyph glyph-name="" unicode="f" d="M116 471 l-92 0 l0 36 l92 0 l0 80 q0 46 12.5 75.5 q12.5 29.5 32 45.5 q19.5 16 44.5 22 q25 6 49 6 q20 0 40 -3 q20 -3 33 -8 l-6 -35 q-16 5 -31 7 q-15 2 -35 2 q-52 0 -73.5 -28.5 q-21.5 -28.5 -21.5 -85.5 l0 -78 l151 0 l0 -36 l-151 0 l0 -497 l-44 0 l0 497 Z" /><glyph glyph-name="" unicode="g" d="M440 350 q0 26 -12 49.5 q-12 23.5 -34.5 41 q-22.5 17.5 -53.5 28 q-31 10.5 -68 10.5 q-75 0 -121 -50 q-46 -50 -46 -144 l0 -76 q0 -95 41 -144.5 q41 -49.5 125 -49.5 q29 0 59 11 q30 11 54.5 32 q24.5 21 40 51.5 q15.5 30.5 15.5 69.5 l0 171 ZM439 74 q-20 -41 -65.5 -69.5 q-45.5 -28.5 -107.5 -28.5 q-97 0 -150.5 58 q-53.5 58 -53.5 169 l0 88 q0 55 15.5 97.5 q15.5 42.5 44 71.5 q28.5 29 67 43.5 q38.5 14.5 85.5 14.5 q48 0 95 -19.5 q47 -19.5 71 -56.5 l0 65 l42 0 l0 -537 q0 -59 -16 -100.5 q-16 -41.5 -43 -67.5 q-27 -26 -63 -37.5 q-36 -11.5 -76 -11.5 q-57 0 -97.5 14 q-40.5 14 -78.5 40 l22 35 q39 -27 74 -38.5 q35 -11.5 75 -11.5 q32 0 61 9 q29 9 51 30 q22 21 35 55 q13 34 13 84 l0 104 Z" /><glyph glyph-name="" unicode="h" d="M489 -26 l-43 0 l0 354 q0 70 -33.5 110.5 q-33.5 40.5 -115.5 40.5 q-43 0 -74.5 -15.5 q-31.5 -15.5 -52.5 -38 q-21 -22.5 -31 -47 q-10 -24.5 -10 -42.5 l0 -362 l-43 0 l0 756 l43 0 l0 -305 q7 14 21 30 q14 16 36 30 q22 14 51 23.5 q29 9.5 67 9.5 q50 0 85.5 -14.5 q35.5 -14.5 57.5 -39.5 q22 -25 32 -57 q10 -32 10 -66 l0 -367 Z" /><glyph glyph-name="" unicode="i" d="M131 507 l0 -533 l-43 0 l0 533 l43 0 ZM135 682 l0 -59 l-51 0 l0 59 l51 0 Z" /><glyph glyph-name="" unicode="j" d="M128 -102 q0 -47 -9.5 -75 q-9.5 -28 -26 -44 q-16.5 -16 -40 -21 q-23.5 -5 -50.5 -5 q-17 0 -38.5 3.5 q-21.5 3.5 -38.5 9.5 l8 36 q39 -12 72 -12 q24 0 39.5 6 q15.5 6 24.5 19.5 q9 13.5 12.5 34.5 q3.5 21 3.5 52 l0 605 l43 0 l0 -609 ZM132 682 l0 -59 l-51 0 l0 59 l51 0 Z" /><glyph glyph-name="" unicode="k" d="M263 307 l233 -333 l-51 0 l-212 303 l-104 -100 l0 -203 l-43 0 l0 756 l43 0 l0 -498 l282 275 l59 0 l-207 -200 Z" /><glyph glyph-name="" unicode="l" d="M129 730 l0 -756 l-43 0 l0 756 l43 0 Z" /><glyph glyph-name="" unicode="m" d="M779 -26 l-43 0 l0 354 q0 34 -6.5 62 q-6.5 28 -21.5 48 q-15 20 -40 30.5 q-25 10.5 -63 10.5 q-40 0 -68.5 -15 q-28.5 -15 -47 -36.5 q-18.5 -21.5 -27 -45.5 q-8.5 -24 -8.5 -42 l0 -366 l-43 0 l0 354 q0 34 -6.5 62 q-6.5 28 -21.5 48 q-15 20 -40.5 30.5 q-25.5 10.5 -63.5 10.5 q-40 0 -68.5 -15.5 q-28.5 -15.5 -46.5 -38 q-18 -22.5 -26.5 -47 q-8.5 -24.5 -8.5 -42.5 l0 -362 l-43 0 l0 533 l42 0 l0 -82 q7 14 19.5 30 q12.5 16 31.5 30 q19 14 45.5 23.5 q26.5 9.5 61.5 9.5 q67 0 104.5 -29.5 q37.5 -29.5 51.5 -73.5 q20 42 63 72.5 q43 30.5 107 30.5 q47 0 79 -15 q32 -15 51.5 -39.5 q19.5 -24.5 28 -56.5 q8.5 -32 8.5 -66 l0 -367 Z" /><glyph glyph-name="" unicode="n" d="M489 -26 l-43 0 l0 354 q0 70 -33.5 110.5 q-33.5 40.5 -115.5 40.5 q-43 0 -74.5 -15.5 q-31.5 -15.5 -52.5 -38 q-21 -22.5 -31 -47 q-10 -24.5 -10 -42.5 l0 -362 l-43 0 l0 533 l42 0 l0 -82 q7 14 21.5 30 q14.5 16 36 30 q21.5 14 51 23.5 q29.5 9.5 67.5 9.5 q50 0 85.5 -14.5 q35.5 -14.5 57.5 -39.5 q22 -25 32 -57 q10 -32 10 -66 l0 -367 Z" /><glyph glyph-name="" unicode="o" d="M279 518 q104 0 161.5 -63 q57.5 -63 57.5 -178 l0 -70 q0 -115 -57.5 -178 q-57.5 -63 -161.5 -63 q-104 0 -161.5 63 q-57.5 63 -57.5 178 l0 70 q0 115 57.5 178 q57.5 63 161.5 63 ZM279 3 q81 0 128.5 50 q47.5 50 47.5 154 l0 70 q0 104 -47.5 154 q-47.5 50 -128.5 50 q-81 0 -128.5 -50 q-47.5 -50 -47.5 -154 l0 -70 q0 -104 47.5 -154 q47.5 -50 128.5 -50 Z" /><glyph glyph-name="" unicode="p" d="M128 420 q20 41 65.5 69.5 q45.5 28.5 107.5 28.5 q96 0 150.5 -58 q54.5 -58 54.5 -169 l0 -98 q0 -56 -15.5 -98 q-15.5 -42 -43.5 -71 q-28 -29 -67 -43.5 q-39 -14.5 -86 -14.5 q-48 0 -94.5 19.5 q-46.5 19.5 -70.5 56.5 l0 -282 l-43 0 l0 747 l42 0 l0 -87 ZM127 134 q0 -26 12.5 -49.5 q12.5 -23.5 34.5 -41 q22 -17.5 53 -28 q31 -10.5 69 -10.5 q75 0 121 50 q46 50 46 144 l0 86 q0 95 -41 144.5 q-41 49.5 -125 49.5 q-29 0 -59.5 -11 q-30.5 -11 -55 -32 q-24.5 -21 -40 -51.5 q-15.5 -30.5 -15.5 -69.5 l0 -181 Z" /><glyph glyph-name="" unicode="q" d="M437 64 q-20 -41 -65.5 -69.5 q-45.5 -28.5 -107.5 -28.5 q-97 0 -150.5 58 q-53.5 58 -53.5 169 l0 98 q0 55 15.5 97.5 q15.5 42.5 44 71.5 q28.5 29 67 43.5 q38.5 14.5 85.5 14.5 q48 0 95 -19.5 q47 -19.5 71 -56.5 l0 65 l42 0 l0 -747 l-43 0 l0 304 ZM439 350 q0 26 -12.5 49.5 q-12.5 23.5 -34.5 41 q-22 17.5 -53.5 28 q-31.5 10.5 -68.5 10.5 q-75 0 -121 -50 q-46 -50 -46 -144 l0 -86 q0 -95 41 -144.5 q41 -49.5 125 -49.5 q29 0 59.5 11 q30.5 11 55 32 q24.5 21 40 51.5 q15.5 30.5 15.5 69.5 l0 181 Z" /><glyph glyph-name="" unicode="r" d="M346 466 q-13 5 -28.5 7.5 q-15.5 2.5 -35.5 2.5 q-38 0 -67 -15.5 q-29 -15.5 -48 -42.5 q-19 -27 -28.5 -64 q-9.5 -37 -9.5 -80 l0 -300 l-43 0 l0 533 l42 0 l0 -103 q7 21 20.5 41.5 q13.5 20.5 33 36.5 q19.5 16 45.5 26 q26 10 58 10 q23 0 40.5 -3 q17.5 -3 33.5 -9 l-13 -40 Z" /><glyph glyph-name="" unicode="s" d="M248 4 q38 0 67.5 8.5 q29.5 8.5 49.5 22.5 q20 14 30.5 33 q10.5 19 10.5 39 l0 13 q0 27 -8.5 44.5 q-8.5 17.5 -28 29.5 q-19.5 12 -51.5 21 q-32 9 -80 18 q-38 7 -69 17.5 q-31 10.5 -54 26 q-23 15.5 -35.5 38 q-12.5 22.5 -12.5 54.5 l0 16 q0 27 11.5 51.5 q11.5 24.5 35 42.5 q23.5 18 58 28.5 q34.5 10.5 80.5 10.5 q63 0 108 -15 q45 -15 70 -34 l-18 -31 q-41 25 -77.5 33.5 q-36.5 8.5 -86.5 8.5 q-68 0 -104 -25.5 q-36 -25.5 -36 -70.5 l0 -13 q0 -24 11.5 -41 q11.5 -17 31.5 -28 q20 -11 47.5 -18.5 q27.5 -7.5 59.5 -13.5 q49 -9 84.5 -20 q35.5 -11 58 -27.5 q22.5 -16.5 33 -40 q10.5 -23.5 10.5 -59.5 l0 -18 q0 -34 -16 -60 q-16 -26 -42.5 -43.5 q-26.5 -17.5 -61.5 -26.5 q-35 -9 -72 -9 q-62 0 -113 18 q-51 18 -85 44 l21 34 q37 -26 82.5 -42 q45.5 -16 90.5 -16 Z" /><glyph glyph-name="" unicode="t" d="M117 471 l-93 0 l0 36 l93 0 l0 138 l43 0 l0 -138 l151 0 l0 -36 l-151 0 l0 -344 q0 -60 15.5 -90 q15.5 -30 66.5 -30 q23 0 41.5 3 q18.5 3 37.5 8 l7 -35 q-15 -5 -39.5 -9 q-24.5 -4 -42.5 -4 q-28 0 -51.5 5.5 q-23.5 5.5 -41 21 q-17.5 15.5 -27 44 q-9.5 28.5 -9.5 75.5 l0 355 Z" /><glyph glyph-name="" unicode="u" d="M80 507 l43 0 l0 -352 q0 -23 4.5 -49.5 q4.5 -26.5 18.5 -49 q14 -22.5 41.5 -37.5 q27.5 -15 74.5 -15 q45 0 77.5 15.5 q32.5 15.5 53.5 37.5 q21 22 31.5 45 q10.5 23 10.5 38 l0 367 l43 0 l0 -533 l-42 0 l0 84 q-5 -11 -19.5 -26.5 q-14.5 -15.5 -37 -30 q-22.5 -14.5 -52 -25 q-29.5 -10.5 -63.5 -10.5 q-53 0 -88 14.5 q-35 14.5 -56.5 39.5 q-21.5 25 -30.5 56.5 q-9 31.5 -9 66.5 l0 364 Z" /><glyph glyph-name="" unicode="v" d="M417 507 l45 0 l-199 -533 l-42 0 l-202 533 l46 0 l178 -481 l174 481 Z" /><glyph glyph-name="" unicode="w" d="M675 507 l42 0 l-149 -533 l-42 0 l-155 481 l-150 -481 l-45 0 l-152 533 l44 0 l131 -481 l150 481 l43 0 l155 -481 l128 481 Z" /><glyph glyph-name="" unicode="x" d="M272 249 l194 -275 l-54 0 l-168 246 l-172 -246 l-53 0 l196 271 l-181 262 l51 0 l159 -233 l158 233 l51 0 l-181 -258 Z" /><glyph glyph-name="" unicode="y" d="M417 507 l46 0 l-278 -753 l-40 14 l75 199 l-201 540 l45 0 l180 -486 l173 486 Z" /><glyph glyph-name="" unicode="z" d="M434 477 l-342 -467 l355 0 l0 -36 l-408 0 l0 30 l342 467 l-322 0 l0 36 l375 0 l0 -30 Z" /><glyph glyph-name="" unicode="{" d="M142 200 q0 47 -29.5 67 q-29.5 20 -84.5 21 l0 45 q55 1 84.5 21 q29.5 20 29.5 65 l0 222 q0 70 35.5 97.5 q35.5 27.5 96.5 27.5 l79 0 l0 -38 l-78 0 q-43 0 -67.5 -16.5 q-24.5 -16.5 -24.5 -67.5 l0 -217 q0 -40 -18 -72.5 q-18 -32.5 -70 -44.5 q51 -11 69.5 -43 q18.5 -32 18.5 -74 l0 -241 q0 -51 24.5 -67.5 q24.5 -16.5 67.5 -16.5 l78 0 l0 -38 l-79 0 q-30 0 -54.5 6.5 q-24.5 6.5 -42 21 q-17.5 14.5 -26.5 38.5 q-9 24 -9 59 l0 245 Z" /><glyph glyph-name="" unicode="|" d="M153 -170 l-38 0 l0 935 l38 0 l0 -935 Z" /><glyph glyph-name="" unicode="}" d="M247 -45 q0 -35 -9 -59 q-9 -24 -26.5 -38.5 q-17.5 -14.5 -42 -21 q-24.5 -6.5 -54.5 -6.5 l-79 0 l0 38 l78 0 q43 0 67.5 16.5 q24.5 16.5 24.5 67.5 l0 241 q0 42 18.5 74 q18.5 32 69.5 43 q-26 6 -43 17.5 q-17 11.5 -27 27 q-10 15.5 -14 34 q-4 18.5 -4 38.5 l0 217 q0 51 -24.5 67.5 q-24.5 16.5 -67.5 16.5 l-78 0 l0 38 l79 0 q61 0 96.5 -27.5 q35.5 -27.5 35.5 -97.5 l0 -222 q0 -45 29.5 -65 q29.5 -20 84.5 -21 l0 -45 q-55 -1 -84.5 -21 q-29.5 -20 -29.5 -67 l0 -245 Z" /><glyph glyph-name="" unicode="~" d="M397 247 q-35 0 -58.5 17.5 q-23.5 17.5 -44.5 38.5 q-21 21 -42.5 38.5 q-21.5 17.5 -50.5 17.5 q-26 0 -43.5 -12.5 q-17.5 -12.5 -28 -30.5 q-10.5 -18 -16 -38 q-5.5 -20 -7.5 -34 l-38 0 q3 25 12 52 q9 27 25 49 q16 22 40 36 q24 14 57 14 q36 0 61 -17.5 q25 -17.5 46 -38.5 q21 -21 41.5 -38.5 q20.5 -17.5 47.5 -17.5 q28 0 46 12 q18 12 29 29.5 q11 17.5 15.5 37.5 q4.5 20 6.5 36 l38 0 q-2 -23 -9.5 -49.5 q-7.5 -26.5 -23 -49 q-15.5 -22.5 -41 -37.5 q-25.5 -15 -62.5 -15 Z" /><glyph glyph-name="" unicode="¡" d="M165 622 l-70 0 l0 84 l70 0 l0 -84 ZM148 511 l8 -560 l-52 0 l8 560 l36 0 Z" /><glyph glyph-name="" unicode="¢&#xffe0;" d="M266 73 q-92 4 -147.5 64.5 q-55.5 60.5 -55.5 177.5 l0 45 q0 105 53 169 q53 64 150 69 l0 97 l40 0 l0 -98 q40 -3 77.5 -15 q37.5 -12 66.5 -34 l-19 -33 q-31 20 -62 30 q-31 10 -63 13 l0 -446 q48 4 83 18.5 q35 14.5 59 34.5 l21 -33 q-26 -21 -67 -37.5 q-41 -16.5 -96 -20.5 l0 -100 l-40 0 l0 99 ZM105 314 q0 -86 40 -141.5 q40 -55.5 121 -60.5 l0 447 q-80 -5 -120.5 -58 q-40.5 -53 -40.5 -138 l0 -49 Z" /><glyph glyph-name="" unicode="£&#xffe1;" d="M68 362 l102 0 l0 121 q0 56 14.5 95.5 q14.5 39.5 40 65 q25.5 25.5 60 37.5 q34.5 12 73.5 12 q45 0 78 -9 q33 -9 58 -22 l-14 -35 q-29 13 -55.5 19.5 q-26.5 6.5 -61.5 6.5 q-30 0 -57 -8.5 q-27 -8.5 -47.5 -28.5 q-20.5 -20 -32.5 -53 q-12 -33 -12 -82 l0 -119 l208 0 l0 -40 l-208 0 l0 -122 q0 -69 -13.5 -111.5 q-13.5 -42.5 -56.5 -71.5 l0 -2 l382 0 l0 -41 l-441 0 l0 40 q49 28 67 71.5 q18 43.5 18 115.5 l0 121 l-102 0 l0 40 Z" /><glyph glyph-name="" unicode="¤" d="M224 144 q-26 35 -40.5 78 q-14.5 43 -14.5 92 q0 48 14.5 91.5 q14.5 43.5 40.5 78.5 l-110 99 l24 27 l110 -99 q39 40 91.5 62.5 q52.5 22.5 113.5 22.5 q62 0 115 -23 q53 -23 92 -64 l112 101 l24 -27 l-113 -101 q26 -35 40.5 -77.5 q14.5 -42.5 14.5 -90.5 q0 -48 -14.5 -90.5 q-14.5 -42.5 -40.5 -77.5 l113 -100 l-24 -27 l-112 100 q-39 -41 -92 -63.5 q-53 -22.5 -115 -22.5 q-62 0 -114.5 22.5 q-52.5 22.5 -90.5 61.5 l-110 -98 l-24 27 l110 98 ZM204 314 q0 -53 19 -99 q19 -46 52.5 -80 q33.5 -34 79 -53 q45.5 -19 98.5 -19 q53 0 99 19 q46 19 79.5 53 q33.5 34 52.5 80 q19 46 19 99 q0 53 -19 99 q-19 46 -52.5 80 q-33.5 34 -79.5 53.5 q-46 19.5 -99 19.5 q-53 0 -98.5 -19.5 q-45.5 -19.5 -79 -53.5 q-33.5 -34 -52.5 -80 q-19 -46 -19 -99 Z" /><glyph glyph-name="" unicode="¥&#xffe5;" d="M295 137 l-180 0 l0 39 l180 0 l0 89 l-180 0 l0 39 l167 0 l-230 384 l50 0 l213 -367 l1 0 l205 367 l51 0 l-220 -384 l167 0 l0 -39 l-180 0 l0 -89 l180 0 l0 -39 l-180 0 l0 -163 l-44 0 l0 163 Z" /><glyph glyph-name="" unicode="§" d="M471 260 q0 -50 -31.5 -85.5 q-31.5 -35.5 -79.5 -52.5 q27 -17 44 -46 q17 -29 17 -80 q0 -66 -48.5 -106.5 q-48.5 -40.5 -135.5 -40.5 q-46 0 -90 10.5 q-44 10.5 -71 27.5 l0 38 q29 -14 69.5 -25 q40.5 -11 91.5 -11 q66 0 102.5 27.5 q36.5 27.5 36.5 77.5 q0 45 -19 70 q-19 25 -71 43 q-32 11 -61.5 19 q-29.5 8 -54.5 17 q-30 11 -53.5 23.5 q-23.5 12.5 -40.5 29.5 q-17 17 -26 39.5 q-9 22.5 -9 54.5 q0 49 31 84.5 q31 35.5 80 52.5 q-27 17 -44 46.5 q-17 29.5 -17 80.5 q0 66 45.5 106.5 q45.5 40.5 132.5 40.5 q48 0 83 -9 q35 -9 58 -20 l0 -37 q-23 11 -58.5 18.5 q-35.5 7.5 -82.5 7.5 q-66 0 -99.5 -27.5 q-33.5 -27.5 -33.5 -77.5 q0 -23 4 -40 q4 -17 14.5 -30 q10.5 -13 28 -23.5 q17.5 -10.5 43.5 -19.5 q32 -11 61.5 -19 q29.5 -8 54.5 -17 q30 -11 53.5 -23.5 q23.5 -12.5 40.5 -29.5 q17 -17 26 -40 q9 -23 9 -54 ZM207 403 q-5 1 -15 5 q-47 -14 -76.5 -44.5 q-29.5 -30.5 -29.5 -70.5 q0 -26 8 -44 q8 -18 24 -31 q16 -13 38.5 -23 q22.5 -10 51.5 -19 q23 -8 48.5 -15 q25.5 -7 48.5 -14 l15 -5 q47 14 76.5 44.5 q29.5 30.5 29.5 70.5 q0 26 -8 44 q-8 18 -24 31 q-16 13 -38.5 23 q-22.5 10 -51.5 19 q-23 8 -48.5 15 q-25.5 7 -48.5 14 Z" /><glyph glyph-name="" unicode="¨" d="M242 662 l54 0 l0 -60 l-54 0 l0 60 ZM395 662 l54 0 l0 -60 l-54 0 l0 60 Z" /><glyph glyph-name="" unicode="©" d="M430 545 q81 0 135 -42 l-21 -33 q-27 20 -56 27 q-29 7 -58 7 q-61 0 -93 -39 q-32 -39 -32 -103 l0 -52 q0 -69 32 -108 q32 -39 94 -39 q42 0 71 11.5 q29 11.5 51 28.5 l21 -34 q-22 -17 -55 -32 q-33 -15 -87 -15 q-79 0 -125.5 48.5 q-46.5 48.5 -46.5 138.5 l0 50 q0 45 12.5 79.5 q12.5 34.5 35 58 q22.5 23.5 54 36 q31.5 12.5 68.5 12.5 ZM420 3 q69 0 128 25 q59 25 102 69.5 q43 44.5 67.5 105.5 q24.5 61 24.5 132 q0 70 -24.5 130.5 q-24.5 60.5 -67.5 105 q-43 44.5 -102 69.5 q-59 25 -128 25 q-69 0 -128 -25 q-59 -25 -102 -69.5 q-43 -44.5 -67.5 -105 q-24.5 -60.5 -24.5 -130.5 q0 -71 24.5 -132 q24.5 -61 67.5 -105.5 q43 -44.5 102 -69.5 q59 -25 128 -25 ZM420 -33 q-78 0 -144 28.5 q-66 28.5 -114 78 q-48 49.5 -75 117 q-27 67.5 -27 144.5 q0 76 27 143 q27 67 75 116.5 q48 49.5 114 78 q66 28.5 144 28.5 q78 0 144 -28.5 q66 -28.5 114 -78 q48 -49.5 75 -116.5 q27 -67 27 -143 q0 -77 -27 -144.5 q-27 -67.5 -75 -117 q-48 -49.5 -114 -78 q-66 -28.5 -144 -28.5 Z" /><glyph glyph-name="" unicode="ª" d="M192 276 q-60 0 -99 34 q-39 34 -39 94 l0 13 q0 53 38.5 86 q38.5 33 113.5 33 l127 0 l0 45 q0 51 -28.5 77.5 q-28.5 26.5 -82.5 26.5 q-36 0 -66 -11 q-30 -11 -61 -33 q-5 9 -11 17 q-6 8 -11 17 q31 22 67 37 q36 15 84 15 q72 0 112.5 -36.5 q40.5 -36.5 40.5 -102.5 l0 -304 l-44 0 l0 54 q-7 -13 -21 -24.5 q-14 -11.5 -32.5 -19.5 q-18.5 -8 -41 -13 q-22.5 -5 -46.5 -5 ZM333 498 l-126 0 q-57 0 -82.5 -22 q-25.5 -22 -25.5 -60 l0 -11 q0 -24 9.5 -41 q9.5 -17 24 -27.5 q14.5 -10.5 32.5 -15.5 q18 -5 35 -5 q22 0 45.5 6.5 q23.5 6.5 43 19 q19.5 12.5 32 29.5 q12.5 17 12.5 38 l0 89 Z" /><glyph glyph-name="" unicode="«&#x226a;" d="M816 13 l-29 -47 l-482 314 l0 45 l474 322 l33 -45 l-440 -299 l444 -290 ZM604 10 l-30 -48 l-480 318 l0 45 l473 328 l34 -47 l-440 -304 l443 -292 Z" /><glyph glyph-name="" unicode="¬&#xffe2;" d="M884 -156 l-56 0 l0 258 l-801 0 l0 53 l857 0 l0 -311 Z" /><glyph glyph-name="" unicode="­&#x2013;" d="M399 287 l-399 0 l0 46 l399 0 l0 -46 Z" /><glyph glyph-name="" unicode="°" d="M254 609 q0 -45 -29.5 -76.5 q-29.5 -31.5 -78.5 -31.5 q-49 0 -78.5 31.5 q-29.5 31.5 -29.5 76.5 q0 45 29.5 76.5 q29.5 31.5 78.5 31.5 q49 0 78.5 -31.5 q29.5 -31.5 29.5 -76.5 ZM215 609 q0 30 -18.5 51 q-18.5 21 -50.5 21 q-32 0 -50.5 -21 q-18.5 -21 -18.5 -51 q0 -30 18.5 -51 q18.5 -21 50.5 -21 q32 0 50.5 21 q18.5 21 18.5 51 Z" /><glyph glyph-name="" unicode="±" d="M529 104 l0 -36 l-467 0 l0 36 l467 0 ZM321 646 l0 -224 l217 0 l0 -40 l-217 0 l0 -219 l-42 0 l0 219 l-217 0 l0 40 l217 0 l0 224 l42 0 Z" /><glyph glyph-name="" unicode="²" d="M236 530 q18 21 29 37 q11 16 16.5 28 q5.5 12 7 21 q1.5 9 1.5 17 l0 7 q0 34 -23 53.5 q-23 19.5 -68 19.5 q-13 0 -27.5 -2.5 q-14.5 -2.5 -29 -10.5 q-14.5 -8 -29 -22.5 q-14.5 -14.5 -26.5 -37.5 l-32 21 q7 15 19 30.5 q12 15.5 29.5 28.5 q17.5 13 40.5 21.5 q23 8.5 52 8.5 q69 0 101.5 -30.5 q32.5 -30.5 32.5 -78.5 l0 -8 q0 -35 -18 -64 q-18 -29 -44 -58 l-164 -188 l241 0 l0 -39 l-292 0 l0 36 l183 210 Z" /><glyph glyph-name="" unicode="³" d="M64 686 q8 11 19.5 22.5 q11.5 11.5 27.5 21 q16 9.5 37 15.5 q21 6 48 6 q26 0 49.5 -7 q23.5 -7 41.5 -21 q18 -14 28.5 -34.5 q10.5 -20.5 10.5 -47.5 l0 -10 q0 -11 -3 -26 q-3 -15 -11.5 -30 q-8.5 -15 -23.5 -28.5 q-15 -13.5 -39 -21.5 q55 -11 76.5 -40.5 q21.5 -29.5 21.5 -69.5 l0 -10 q0 -21 -7.5 -44 q-7.5 -23 -25.5 -42 q-18 -19 -48 -31 q-30 -12 -74 -12 q-35 0 -73.5 13 q-38.5 13 -67.5 37 l21 32 q60 -45 120 -45 q57 0 84.5 27 q27.5 27 27.5 65 l0 9 q0 42 -26.5 66 q-26.5 24 -78.5 24 l-54 0 l0 39 l51 0 q24 0 40.5 8.5 q16.5 8.5 27.5 21 q11 12.5 16 28.5 q5 16 5 31 l0 9 q0 35 -25.5 54 q-25.5 19 -62.5 19 q-35 0 -59 -13 q-24 -13 -43 -37 l-31 22 Z" /><glyph glyph-name="" unicode="´" d="M220 571 l101 134 l52 0 l-112 -134 l-41 0 Z" /><glyph glyph-name="" unicode="¶" d="M298 355 l-60 0 q-37 0 -72 10.5 q-35 10.5 -62 32.5 q-27 22 -43.5 56 q-16.5 34 -16.5 81 q0 37 10 70 q10 33 34.5 57.5 q24.5 24.5 65 39 q40.5 14.5 100.5 14.5 l228 0 l0 -838 l-33 0 l0 809 l-116 0 l0 -809 l-35 0 l0 477 Z" /><glyph glyph-name="" unicode="&#x30fb;·" d="M169 349 l84 0 l0 -90 l-84 0 l0 90 Z" /><glyph glyph-name="" unicode="¸" d="M217 -160 q60 5 87.5 16 q27.5 11 27.5 36 q0 23 -21.5 29.5 q-21.5 6.5 -71.5 6.5 l0 77 l38 0 l0 -46 q20 -1 38 -4 q18 -3 31 -10 q13 -7 20.5 -18.5 q7.5 -11.5 7.5 -28.5 q0 -42 -35.5 -64.5 q-35.5 -22.5 -121.5 -27.5 l0 34 Z" /><glyph glyph-name="" unicode="¹" d="M220 284 l0 407 l-119 -71 l-19 34 l144 88 l35 0 l0 -458 l-41 0 Z" /><glyph glyph-name="" unicode="º" d="M225 317 q58 0 96.5 40 q38.5 40 38.5 122 l0 47 q0 81 -34.5 121.5 q-34.5 40.5 -100.5 40.5 q-66 0 -100.5 -40.5 q-34.5 -40.5 -34.5 -121.5 l0 -47 q0 -82 38.5 -122 q38.5 -40 96.5 -40 ZM225 277 q-86 0 -133 52.5 q-47 52.5 -47 146.5 l0 53 q0 96 47 147.5 q47 51.5 133 51.5 q86 0 133 -51.5 q47 -51.5 47 -147.5 l0 -53 q0 -94 -47 -146.5 q-47 -52.5 -133 -52.5 Z" /><glyph glyph-name="" unicode="»&#x226b;" d="M604 280 l-482 -314 l-28 47 l444 291 l-441 298 l33 45 l474 -322 l0 -45 ZM816 280 l-480 -318 l-31 48 l444 292 l-440 304 l33 47 l474 -328 l0 -45 Z" /><glyph glyph-name="" unicode="¼" d="M760 186 l0 -124 l71 0 l0 -38 l-71 0 l0 -107 l-39 0 l0 107 l-221 0 l0 36 l216 315 l49 0 l-219 -313 l175 0 l0 124 l39 0 ZM706 709 l49 0 l-523 -775 l-49 0 l523 775 ZM217 237 l0 407 l-119 -71 l-19 34 l144 88 l35 0 l0 -458 l-41 0 Z" /><glyph glyph-name="" unicode="½" d="M700 709 l49 0 l-523 -775 l-49 0 l523 775 ZM211 237 l0 407 l-119 -71 l-19 34 l144 88 l35 0 l0 -458 l-41 0 ZM762 163 q18 21 29 37 q11 16 16.5 28 q5.5 12 7 21 q1.5 9 1.5 17 l0 7 q0 34 -23 53.5 q-23 19.5 -68 19.5 q-13 0 -27.5 -2.5 q-14.5 -2.5 -29 -10.5 q-14.5 -8 -29 -22.5 q-14.5 -14.5 -26.5 -37.5 l-32 21 q7 15 19 30.5 q12 15.5 29.5 28.5 q17.5 13 40.5 21.5 q23 8.5 52 8.5 q69 0 101.5 -30.5 q32.5 -30.5 32.5 -78.5 l0 -8 q0 -35 -18 -64 q-18 -29 -44 -58 l-164 -188 l241 0 l0 -39 l-292 0 l0 36 l183 210 Z" /><glyph glyph-name="" unicode="¾" d="M778 186 l0 -124 l71 0 l0 -38 l-71 0 l0 -107 l-39 0 l0 107 l-221 0 l0 36 l216 315 l49 0 l-219 -313 l175 0 l0 124 l39 0 ZM731 709 l49 0 l-523 -775 l-49 0 l523 775 ZM69 639 q8 11 19.5 22.5 q11.5 11.5 27.5 21 q16 9.5 37 15.5 q21 6 48 6 q26 0 49.5 -7 q23.5 -7 41.5 -21 q18 -14 28.5 -34.5 q10.5 -20.5 10.5 -47.5 l0 -10 q0 -11 -3 -26 q-3 -15 -11.5 -30 q-8.5 -15 -23.5 -28.5 q-15 -13.5 -39 -21.5 q55 -11 76.5 -40.5 q21.5 -29.5 21.5 -69.5 l0 -10 q0 -21 -7.5 -44 q-7.5 -23 -25.5 -42 q-18 -19 -48 -31 q-30 -12 -74 -12 q-35 0 -73.5 13 q-38.5 13 -67.5 37 l21 32 q60 -45 120 -45 q57 0 84.5 27 q27.5 27 27.5 65 l0 9 q0 42 -26.5 66 q-26.5 24 -78.5 24 l-54 0 l0 39 l51 0 q24 0 40.5 8.5 q16.5 8.5 27.5 21 q11 12.5 16 28.5 q5 16 5 31 l0 9 q0 35 -25.5 54 q-25.5 19 -62.5 19 q-35 0 -59 -13 q-24 -13 -43 -37 l-31 22 Z" /><glyph glyph-name="" unicode="¿" d="M298 515 l0 -48 q0 -35 -14.5 -63.5 q-14.5 -28.5 -37 -53 q-22.5 -24.5 -48 -47 q-25.5 -22.5 -48 -46.5 q-22.5 -24 -37 -50.5 q-14.5 -26.5 -14.5 -58.5 l0 -19 q0 -35 13 -60.5 q13 -25.5 34.5 -42.5 q21.5 -17 50 -25.5 q28.5 -8.5 59.5 -8.5 q54 0 95.5 20 q41.5 20 78.5 59 l29 -29 q-15 -16 -35 -32.5 q-20 -16.5 -45.5 -29.5 q-25.5 -13 -55.5 -21.5 q-30 -8.5 -65 -8.5 q-94 0 -148.5 48 q-54.5 48 -54.5 130 l0 20 q0 38 15 68 q15 30 37 55.5 q22 25.5 48.5 47.5 q26.5 22 48.5 45 q22 23 37 48.5 q15 25.5 15 57.5 l0 45 l42 0 ZM312 622 l-70 0 l0 84 l70 0 l0 -84 Z" /><glyph glyph-name="" unicode="æ" d="M895 695 l0 -41 l-351 0 l0 -290 l330 0 l0 -40 l-330 0 l0 -309 l358 0 l0 -41 l-402 0 l0 233 l-280 0 l-148 -233 l-52 0 l461 721 l414 0 ZM245 246 l255 0 l0 416 q-12 -25 -25.5 -50 q-13.5 -25 -28 -48.5 q-14.5 -23.5 -28 -44.5 q-13.5 -21 -23.5 -37 l-150 -236 Z" /><glyph glyph-name="" unicode="ð" d="M15 370 l88 0 l0 325 l213 0 q140 0 213.5 -79.5 q73.5 -79.5 73.5 -229.5 l0 -103 q0 -75 -20.5 -132.5 q-20.5 -57.5 -58.5 -96.5 q-38 -39 -91 -59.5 q-53 -20.5 -117 -20.5 l-213 0 l0 354 l-88 0 l0 42 ZM147 370 l208 0 l0 -42 l-208 0 l0 -312 l174 0 q49 0 92 16.5 q43 16.5 75 50 q32 33.5 51 83.5 q19 50 19 117 l0 98 q0 137 -62 204.5 q-62 67.5 -176 67.5 l-173 0 l0 -283 Z" /><glyph glyph-name="" unicode="×" d="M300 357 l181 189 l35 -36 l-181 -189 l181 -189 l-35 -36 l-181 189 l-180 -189 l-35 36 l181 189 l-181 189 l35 36 l180 -189 Z" /><glyph glyph-name="" unicode="ø" d="M96 78 q-26 42 -39 95 q-13 53 -13 116 l0 91 q0 71 17.5 131 q17.5 60 52 103.5 q34.5 43.5 86.5 67.5 q52 24 121 24 q68 0 119 -23.5 q51 -23.5 86 -65.5 l66 83 l32 -26 l-74 -92 q48 -83 48 -202 l0 -91 q0 -71 -17.5 -131 q-17.5 -60 -52 -103.5 q-34.5 -43.5 -86.5 -67.5 q-52 -24 -121 -24 q-66 0 -115 21.5 q-49 21.5 -84 59.5 l-60 -75 l-32 26 l66 83 ZM89 290 q0 -106 37 -175 l372 467 q-61 83 -177 83 q-108 0 -170 -73 q-62 -73 -62 -213 l0 -89 ZM553 379 q0 50 -8.5 91 q-8.5 41 -24.5 74 l-370 -465 q61 -75 171 -75 q108 0 170 73 q62 73 62 213 l0 89 Z" /><glyph glyph-name="" unicode="þ" d="M88 695 l44 0 l0 -140 l186 0 q57 0 98.5 -14.5 q41.5 -14.5 69.5 -41.5 q28 -27 41.5 -65 q13.5 -38 13.5 -84 l0 -21 q0 -45 -15.5 -82 q-15.5 -37 -44.5 -63.5 q-29 -26.5 -70.5 -41 q-41.5 -14.5 -92.5 -14.5 l-186 0 l0 -154 l-44 0 l0 721 ZM132 515 l0 -347 l169 0 q54 0 91 12.5 q37 12.5 60.5 34 q23.5 21.5 33.5 51.5 q10 30 10 65 l0 18 q0 33 -9 63 q-9 30 -30 53 q-21 23 -56.5 36.5 q-35.5 13.5 -88.5 13.5 l-180 0 Z" /><glyph glyph-name="" unicode="ß" d="M313 364 q0 -14 3 -25 q3 -11 12.5 -22 q9.5 -11 27.5 -22.5 q18 -11.5 47 -26.5 q21 -11 42.5 -22 q21.5 -11 38.5 -26 q17 -15 28 -36 q11 -21 11 -50 l0 -20 q0 -68 -38.5 -108 q-38.5 -40 -114.5 -40 q-54 0 -92.5 17 q-38.5 17 -65.5 39 l24 34 q32 -28 67.5 -39.5 q35.5 -11.5 61.5 -11.5 q63 0 88.5 29.5 q25.5 29.5 25.5 81.5 l0 14 q0 39 -25.5 60 q-25.5 21 -68.5 41 q-31 15 -53 28 q-22 13 -36 28 q-14 15 -20.5 33 q-6.5 18 -6.5 42 l0 9 q0 39 23 65 q23 26 50.5 49 q27.5 23 50.5 47.5 q23 24.5 23 59.5 l0 15 q0 20 -6.5 36.5 q-6.5 16.5 -22 28.5 q-15.5 12 -41.5 18.5 q-26 6.5 -65 6.5 q-73 0 -114.5 -40 q-41.5 -40 -41.5 -117 l0 -566 l-43 0 l0 559 q0 59 17.5 98 q17.5 39 46 62.5 q28.5 23.5 64 33 q35.5 9.5 72.5 9.5 q48 0 82 -9.5 q34 -9.5 55 -26.5 q21 -17 31 -39.5 q10 -22.5 10 -47.5 l0 -13 q0 -32 -11 -55.5 q-11 -23.5 -27 -42 q-16 -18.5 -35.5 -33.5 q-19.5 -15 -35.5 -30 q-16 -15 -27 -31.5 q-11 -16.5 -11 -37.5 l0 -6 Z" /><glyph glyph-name="" unicode="æ" d="M625 4 q57 0 100 15 q43 15 70 38 l21 -32 q-28 -23 -76.5 -41 q-48.5 -18 -113.5 -18 q-75 0 -120.5 30.5 q-45.5 30.5 -70.5 81.5 q-11 -23 -31.5 -44.5 q-20.5 -21.5 -55.5 -40.5 q-21 -11 -48.5 -19 q-27.5 -8 -64.5 -8 q-37 0 -68.5 10 q-31.5 10 -54.5 29.5 q-23 19.5 -36 48 q-13 28.5 -13 66.5 l0 15 q0 61 42.5 98.5 q42.5 37.5 136.5 37.5 l163 0 l0 74 q0 66 -35.5 100 q-35.5 34 -106.5 34 q-44 0 -81.5 -14.5 q-37.5 -14.5 -74.5 -39.5 l-21 33 q35 25 80 42.5 q45 17.5 100 17.5 q64 0 108.5 -26.5 q44.5 -26.5 62.5 -77.5 q26 49 72 76.5 q46 27.5 109 27.5 q53 0 92.5 -18 q39.5 -18 65.5 -50 q26 -32 39 -77.5 q13 -45.5 13 -100.5 l0 -36 l-380 0 l0 -31 q0 -99 48 -150 q48 -51 129 -51 ZM405 234 l-162 0 q-38 0 -64 -7 q-26 -7 -42 -20 q-16 -13 -22.5 -31 q-6.5 -18 -6.5 -40 l0 -16 q0 -33 11.5 -55 q11.5 -22 30 -35.5 q18.5 -13.5 41.5 -19.5 q23 -6 47 -6 q26 0 50 4.5 q24 4.5 47 16.5 q32 16 51 44 q19 28 19 60 l0 105 ZM618 480 q-80 0 -125 -54 q-45 -54 -45 -149 l0 -6 l338 0 q0 209 -168 209 Z" /><glyph glyph-name="" unicode="ð" d="M173 738 q34 -18 62 -34 q28 -16 51 -31 l108 45 l14 -36 l-85 -36 q36 -28 60 -55.5 q24 -27.5 44 -57.5 q20 -32 31.5 -63 q11.5 -31 17.5 -62 q6 -31 8 -62 q2 -31 2 -62 l0 -77 q0 -115 -55 -178 q-55 -63 -159 -63 q-104 0 -159 63 q-55 63 -55 178 l0 67 q0 115 53.5 178 q53.5 63 154.5 63 q44 0 86 -16.5 q42 -16.5 68 -51.5 q-29 101 -140 181 l-137 -57 l-14 36 l112 47 q-20 13 -42 25 q-22 12 -46 24 l20 35 ZM272 4 q84 0 129 48.5 q45 48.5 45 152.5 l0 86 q0 38 -12.5 72 q-12.5 34 -36 59.5 q-23.5 25.5 -56.5 40 q-33 14.5 -75 14.5 q-82 0 -124 -49.5 q-42 -49.5 -42 -153.5 l0 -67 q0 -104 44 -153.5 q44 -49.5 128 -49.5 Z" /><glyph glyph-name="" unicode="÷" d="M60 342 l480 0 l0 -44 l-480 0 l0 44 ZM266 553 l69 0 l0 -67 l-69 0 l0 67 ZM266 154 l69 0 l0 -67 l-69 0 l0 67 Z" /><glyph glyph-name="" unicode="ø" d="M80 55 q-38 59 -38 152 l0 70 q0 115 57.5 178 q57.5 63 161.5 63 q51 0 90.5 -16 q39.5 -16 68.5 -45 l51 61 l30 -24 l-58 -68 q37 -60 37 -149 l0 -70 q0 -115 -57.5 -178 q-57.5 -63 -161.5 -63 q-50 0 -89 15 q-39 15 -68 43 l-49 -58 l-30 24 l55 65 ZM85 207 q0 -70 23 -118 l285 337 q-23 28 -56.5 41.5 q-33.5 13.5 -75.5 13.5 q-81 0 -128.5 -50 q-47.5 -50 -47.5 -154 l0 -70 ZM261 3 q81 0 128.5 50 q47.5 50 47.5 154 l0 70 q0 35 -5.5 63.5 q-5.5 28.5 -16.5 51.5 l-285 -337 q46 -52 131 -52 Z" /><glyph glyph-name="" unicode="þ" d="M125 420 q20 41 65 69.5 q45 28.5 107 28.5 q96 0 150.5 -58 q54.5 -58 54.5 -169 l0 -98 q0 -56 -15.5 -98 q-15.5 -42 -43.5 -71 q-28 -29 -67 -43.5 q-39 -14.5 -86 -14.5 q-48 0 -95 19.5 q-47 19.5 -71 56.5 l0 -282 l-42 0 l0 970 l43 0 l0 -310 ZM124 134 q0 -26 12 -49.5 q12 -23.5 34.5 -41 q22.5 -17.5 53 -28 q30.5 -10.5 68.5 -10.5 q75 0 121 50 q46 50 46 144 l0 86 q0 95 -41 144.5 q-41 49.5 -125 49.5 q-29 0 -59 -11 q-30 -11 -54.5 -32 q-24.5 -21 -40 -51.5 q-15.5 -30.5 -15.5 -69.5 l0 -181 Z" /><glyph glyph-name="" unicode="&#x111;" d="M271 640 l164 0 l0 90 l43 0 l0 -90 l69 0 l0 -39 l-69 0 l0 -627 l-42 0 l0 90 q-20 -41 -66 -69.5 q-46 -28.5 -108 -28.5 q-97 0 -150.5 58 q-53.5 58 -53.5 169 l0 98 q0 55 15.5 97.5 q15.5 42.5 44 71.5 q28.5 29 67 43.5 q38.5 14.5 85.5 14.5 q48 0 94.5 -19.5 q46.5 -19.5 70.5 -56.5 l0 159 l-164 0 l0 39 ZM436 350 q0 26 -12 49.5 q-12 23.5 -34.5 41 q-22.5 17.5 -53.5 28 q-31 10.5 -68 10.5 q-75 0 -121 -50 q-46 -50 -46 -144 l0 -86 q0 -95 41 -144.5 q41 -49.5 125 -49.5 q29 0 59 11 q30 11 54.5 32 q24.5 21 40 51.5 q15.5 30.5 15.5 69.5 l0 181 Z" /><glyph glyph-name="" unicode="&#x126;" d="M21 542 l77 0 l0 153 l44 0 l0 -153 l403 0 l0 153 l44 0 l0 -153 l77 0 l0 -40 l-77 0 l0 -528 l-44 0 l0 337 l-403 0 l0 -337 l-44 0 l0 528 l-77 0 l0 40 ZM545 352 l0 150 l-403 0 l0 -150 l403 0 Z" /><glyph glyph-name="" unicode="&#x127;" d="M35 640 l78 0 l0 90 l43 0 l0 -90 l155 0 l0 -39 l-155 0 l0 -176 q7 14 21 30 q14 16 36 30 q22 14 51 23.5 q29 9.5 67 9.5 q50 0 85.5 -14.5 q35.5 -14.5 57.5 -39.5 q22 -25 32 -57 q10 -32 10 -66 l0 -367 l-43 0 l0 354 q0 70 -33.5 110.5 q-33.5 40.5 -115.5 40.5 q-43 0 -74.5 -15.5 q-31.5 -15.5 -52.5 -38 q-21 -22.5 -31 -47 q-10 -24.5 -10 -42.5 l0 -362 l-43 0 l0 627 l-78 0 l0 39 Z" /><glyph glyph-name="" unicode="&#x131;" d="M123 507 l0 -533 l-43 0 l0 533 l43 0 Z" /><glyph glyph-name="" unicode="&#x132;" d="M132 695 l0 -721 l-44 0 l0 721 l44 0 ZM569 150 q0 -50 -13.5 -85.5 q-13.5 -35.5 -37 -58 q-23.5 -22.5 -56 -33 q-32.5 -10.5 -70.5 -10.5 q-46 0 -87 12.5 q-41 12.5 -74 38.5 l22 35 q32 -25 66.5 -35.5 q34.5 -10.5 70.5 -10.5 q69 0 102 37 q33 37 33 111 l0 544 l44 0 l0 -545 Z" /><glyph glyph-name="" unicode="&#x133;" d="M127 507 l0 -533 l-43 0 l0 533 l43 0 ZM131 682 l0 -59 l-51 0 l0 59 l51 0 ZM336 -102 q0 -47 -9.5 -75 q-9.5 -28 -26 -44 q-16.5 -16 -40 -21 q-23.5 -5 -50.5 -5 q-17 0 -38.5 3.5 q-21.5 3.5 -38.5 9.5 l8 36 q39 -12 72 -12 q24 0 39.5 6 q15.5 6 24.5 19.5 q9 13.5 12.5 34.5 q3.5 21 3.5 52 l0 605 l43 0 l0 -609 ZM340 682 l0 -59 l-51 0 l0 59 l51 0 Z" /><glyph glyph-name="" unicode="&#x138;" d="M251 286 l244 -312 l-54 0 l-220 281 l-96 -99 l0 -182 l-43 0 l0 533 l43 0 l0 -295 l282 295 l59 0 l-215 -221 Z" /><glyph glyph-name="" unicode="&#x13f;" d="M375 396 l75 0 l0 -75 l-75 0 l0 75 ZM132 695 l0 -680 l374 0 l0 -41 l-418 0 l0 721 l44 0 Z" /><glyph glyph-name="" unicode="&#x140;" d="M249 425 l76 0 l0 -85 l-76 0 l0 85 ZM133 730 l0 -756 l-43 0 l0 756 l43 0 Z" /><glyph glyph-name="" unicode="&#x141;" d="M171 695 l0 -360 l214 121 l20 -36 l-234 -133 l0 -272 l374 0 l0 -41 l-418 0 l0 288 l-93 -52 l-20 36 l113 64 l0 385 l44 0 Z" /><glyph glyph-name="" unicode="&#x142;" d="M161 730 l0 -322 l89 50 l20 -36 l-109 -62 l0 -386 l-43 0 l0 362 l-90 -50 l-20 36 l110 62 l0 346 l43 0 Z" /><glyph glyph-name="" unicode="&#x149;" d="M-15 520 l20 178 l56 0 l-40 -178 l-36 0 ZM485 -26 l-43 0 l0 354 q0 70 -33.5 110.5 q-33.5 40.5 -115.5 40.5 q-43 0 -74.5 -15.5 q-31.5 -15.5 -52.5 -38 q-21 -22.5 -31 -47 q-10 -24.5 -10 -42.5 l0 -362 l-43 0 l0 533 l42 0 l0 -82 q7 14 21.5 30 q14.5 16 36 30 q21.5 14 51 23.5 q29.5 9.5 67.5 9.5 q50 0 85.5 -14.5 q35.5 -14.5 57.5 -39.5 q22 -25 32 -57 q10 -32 10 -66 l0 -367 Z" /><glyph glyph-name="" unicode="&#x14a;" d="M148 695 l359 -602 q6 -10 15.5 -29 q9.5 -19 15.5 -32 l0 663 l43 0 l0 -801 q0 -44 -9.5 -72 q-9.5 -28 -26 -44 q-16.5 -16 -40.5 -21.5 q-24 -5.5 -52 -5.5 q-17 0 -39 3.5 q-22 3.5 -37 8.5 l7 38 q20 -6 37 -8.5 q17 -2.5 40 -2.5 q47 0 62 30.5 q15 30.5 15 80.5 l0 58 l-376 626 q-8 14 -16.5 31 q-8.5 17 -14.5 30 l0 -672 l-43 0 l0 721 l60 0 Z" /><glyph glyph-name="" unicode="&#x14b;" d="M485 -99 q0 -47 -9 -76 q-9 -29 -25.5 -45 q-16.5 -16 -40 -22 q-23.5 -6 -51.5 -6 q-17 0 -41 3.5 q-24 3.5 -39 8.5 l7 38 q19 -5 35 -7.5 q16 -2.5 39 -2.5 q27 0 43 7.5 q16 7.5 24.5 22 q8.5 14.5 11.5 36 q3 21.5 3 49.5 l0 421 q0 70 -33.5 110.5 q-33.5 40.5 -115.5 40.5 q-43 0 -74.5 -15.5 q-31.5 -15.5 -52.5 -38 q-21 -22.5 -31 -47 q-10 -24.5 -10 -42.5 l0 -362 l-43 0 l0 533 l42 0 l0 -82 q7 14 21.5 30 q14.5 16 36 30 q21.5 14 51 23.5 q29.5 9.5 67.5 9.5 q50 0 85.5 -14.5 q35.5 -14.5 57.5 -39.5 q22 -25 32 -57 q10 -32 10 -66 l0 -440 Z" /><glyph glyph-name="" unicode="&#x152;" d="M876 695 l0 -41 l-351 0 l0 -290 l330 0 l0 -40 l-330 0 l0 -309 l358 0 l0 -41 l-508 0 q-82 0 -141.5 22 q-59.5 22 -98 63 q-38.5 41 -57 101 q-18.5 60 -18.5 135 l0 79 q0 73 18.5 132.5 q18.5 59.5 56.5 101.5 q38 42 97.5 64.5 q59.5 22.5 142.5 22.5 l501 0 ZM105 302 q0 -68 15 -121.5 q15 -53.5 47 -90.5 q32 -37 82.5 -56 q50.5 -19 121.5 -19 l110 0 l0 639 l-104 0 q-72 0 -123.5 -19.5 q-51.5 -19.5 -84.5 -56 q-33 -36.5 -48.5 -90 q-15.5 -53.5 -15.5 -121.5 l0 -65 Z" /><glyph glyph-name="" unicode="&#x153;" d="M664 4 q57 0 99.5 15 q42.5 15 69.5 38 l21 -32 q-28 -23 -76 -41 q-48 -18 -113 -18 q-78 0 -125.5 36 q-47.5 36 -70.5 92 q-24 -59 -74 -93.5 q-50 -34.5 -121 -34.5 q-102 0 -159 63 q-57 63 -57 178 l0 70 q0 115 57 178 q57 63 159 63 q72 0 122.5 -34.5 q50.5 -34.5 72.5 -94.5 q23 57 70.5 93 q47.5 36 117.5 36 q52 0 91 -18 q39 -18 65 -50 q26 -32 39.5 -77.5 q13.5 -45.5 13.5 -100.5 l0 -40 l-378 0 l0 -29 q2 -99 48.5 -149 q46.5 -50 127.5 -50 ZM273 3 q81 0 126.5 50 q45.5 50 45.5 154 l0 70 q0 104 -45.5 154 q-45.5 50 -126.5 50 q-81 0 -126.5 -50 q-45.5 -50 -45.5 -154 l0 -70 q0 -104 45.5 -154 q45.5 -50 126.5 -50 ZM657 480 q-78 0 -122.5 -51.5 q-44.5 -51.5 -46.5 -142.5 l0 -19 l336 0 q0 106 -41.5 159.5 q-41.5 53.5 -125.5 53.5 Z" /><glyph glyph-name="" unicode="&#x166;" d="M262 -26 l0 347 l-160 0 l0 43 l160 0 l0 290 l-240 0 l0 41 l524 0 l0 -41 l-240 0 l0 -290 l160 0 l0 -43 l-160 0 l0 -347 l-44 0 Z" /><glyph glyph-name="" unicode="&#x167;" d="M38 338 l93 0 l0 133 l-93 0 l0 36 l93 0 l0 138 l43 0 l0 -138 l151 0 l0 -36 l-151 0 l0 -133 l151 0 l0 -36 l-151 0 l0 -175 q0 -60 15.5 -90 q15.5 -30 66.5 -30 q23 0 41.5 3 q18.5 3 37.5 8 l7 -35 q-15 -5 -39.5 -9 q-24.5 -4 -42.5 -4 q-28 0 -51.5 5.5 q-23.5 5.5 -41 21 q-17.5 15.5 -27 44 q-9.5 28.5 -9.5 75.5 l0 186 l-93 0 l0 36 Z" /><glyph glyph-name="" unicode="&#x2bc;" d="" /><glyph glyph-name="" unicode="&#x2c7;" d="M178 696 l38 0 l81 -96 l76 96 l40 0 l-99 -130 l-39 0 l-97 130 Z" /><glyph glyph-name="" unicode="&#x2d0;&#x2236;" d="M533 75 l-155 0 l76 94 l79 -94 ZM533 541 l-79 -95 l-76 95 l155 0 Z" /><glyph glyph-name="" unicode="&#x2d8;" d="M295 559 q-53 0 -87.5 33.5 q-34.5 33.5 -36.5 87.5 l35 0 q4 -38 29 -59 q25 -21 60 -21 q36 0 60 21 q24 21 29 59 l35 0 q-2 -54 -37 -87.5 q-35 -33.5 -87 -33.5 Z" /><glyph glyph-name="" unicode="&#x2d9;" d="M268 662 l54 0 l0 -60 l-54 0 l0 60 Z" /><glyph glyph-name="" unicode="&#x2da;" d="M296 564 q-41 0 -64.5 26 q-23.5 26 -23.5 61 q0 32 23.5 57.5 q23.5 25.5 64.5 25.5 q19 0 35 -7 q16 -7 27.5 -18.5 q11.5 -11.5 18 -26.5 q6.5 -15 6.5 -31 q0 -35 -24.5 -61 q-24.5 -26 -62.5 -26 ZM296 595 q23 0 35.5 16.5 q12.5 16.5 12.5 39.5 q0 21 -12.5 35 q-12.5 14 -35.5 14 q-25 0 -38 -14 q-13 -14 -13 -35 q0 -23 13 -39.5 q13 -16.5 38 -16.5 Z" /><glyph glyph-name="" unicode="&#x2db;" d="M326 -192 q-48 0 -74.5 17.5 q-26.5 17.5 -26.5 52.5 q0 19 7.5 35 q7.5 16 19.5 29.5 q12 13.5 27 24.5 q15 11 30 19 l42 0 q-38 -27 -61.5 -48.5 q-23.5 -21.5 -23.5 -54.5 q0 -23 16 -34 q16 -11 43 -11 q15 0 26.5 2 q11.5 2 22.5 6 l0 -30 q-8 -3 -20.5 -5.5 q-12.5 -2.5 -27.5 -2.5 Z" /><glyph glyph-name="" unicode="&#x2dc;" d="M161 595 q6 38 27.5 57.5 q21.5 19.5 47.5 19.5 q19 0 34.5 -6.5 q15.5 -6.5 30 -14.5 q14.5 -8 27.5 -14.5 q13 -6.5 27 -6.5 q23 0 33 11.5 q10 11.5 12 30.5 l30 0 q-5 -38 -26.5 -57.5 q-21.5 -19.5 -48.5 -19.5 q-19 0 -34.5 6.5 q-15.5 6.5 -30 14.5 q-14.5 8 -27.5 14.5 q-13 6.5 -27 6.5 q-15 0 -27 -12 q-12 -12 -16 -30 l-32 0 Z" /><glyph glyph-name="" unicode="&#x2dd;" d="M238 709 l46 0 l-65 -133 l-37 0 l56 133 ZM364 709 l47 0 l-65 -133 l-39 0 l57 133 Z" /><glyph glyph-name="" unicode="&#x391;" d="M476 207 l-326 0 l-88 -233 l-48 0 l278 721 l44 0 l275 -721 l-49 0 l-86 233 ZM165 246 l296 0 l-86 233 q-16 44 -32 85.5 q-16 41.5 -29 83.5 q-12 -42 -27.5 -83.5 q-15.5 -41.5 -32.5 -85.5 l-89 -233 Z" /><glyph glyph-name="" unicode="&#x392;" d="M88 695 l223 0 q114 0 167 -43 q53 -43 53 -132 l0 -23 q0 -24 -6.5 -46.5 q-6.5 -22.5 -20.5 -41.5 q-14 -19 -36.5 -33.5 q-22.5 -14.5 -54.5 -22.5 q72 -10 111.5 -49 q39.5 -39 39.5 -114 l0 -27 q0 -89 -51.5 -139 q-51.5 -50 -168.5 -50 l-256 0 l0 721 ZM131 14 l217 0 q171 0 171 149 l0 24 q0 70 -45 107.5 q-45 37.5 -153 37.5 l-190 0 l0 -318 ZM131 655 l0 -284 l189 0 q75 0 121 30.5 q46 30.5 46 98.5 l0 20 q0 64 -39 99.5 q-39 35.5 -133 35.5 l-184 0 Z" /><glyph glyph-name="" unicode="&#x393;" d="M88 -26 l0 721 l418 0 l0 -41 l-374 0 l0 -680 l-44 0 Z" /><glyph glyph-name="" unicode="&#x394;" d="M281 695 l49 0 l263 -721 l-577 0 l265 721 ZM528 15 l-223 635 l-229 -635 l452 0 Z" /><glyph glyph-name="" unicode="&#x395;" d="M509 695 l0 -41 l-377 0 l0 -290 l356 0 l0 -40 l-356 0 l0 -309 l384 0 l0 -41 l-428 0 l0 721 l421 0 Z" /><glyph glyph-name="" unicode="&#x396;" d="M535 660 l-449 -646 l468 0 l0 -40 l-522 0 l0 35 l449 646 l-424 0 l0 40 l478 0 l0 -35 Z" /><glyph glyph-name="" unicode="&#x397;" d="M579 695 l0 -721 l-44 0 l0 358 l-403 0 l0 -358 l-44 0 l0 721 l44 0 l0 -322 l403 0 l0 322 l44 0 Z" /><glyph glyph-name="" unicode="&#x398;" d="M514 314 l-344 0 l0 45 l344 0 l0 -45 ZM614 289 q0 -71 -17.5 -131 q-17.5 -60 -52 -103.5 q-34.5 -43.5 -86.5 -67.5 q-52 -24 -121 -24 q-69 0 -121 24 q-52 24 -86.5 67.5 q-34.5 43.5 -52 103.5 q-17.5 60 -17.5 131 l0 91 q0 71 17.5 131 q17.5 60 52 103.5 q34.5 43.5 86.5 67.5 q52 24 121 24 q69 0 121 -24 q52 -24 86.5 -67.5 q34.5 -43.5 52 -103.5 q17.5 -60 17.5 -131 l0 -91 ZM569 379 q0 140 -62 213 q-62 73 -170 73 q-108 0 -170 -73 q-62 -73 -62 -213 l0 -89 q0 -140 62 -213 q62 -73 170 -73 q108 0 170 73 q62 73 62 213 l0 89 Z" /><glyph glyph-name="" unicode="&#x399;" d="M132 695 l0 -721 l-44 0 l0 721 l44 0 Z" /><glyph glyph-name="" unicode="&#x39a;" d="M277 390 l316 -416 l-54 0 l-293 385 l-114 -117 l0 -268 l-44 0 l0 721 l44 0 l0 -397 l383 397 l60 0 l-298 -305 Z" /><glyph glyph-name="" unicode="&#x39b;" d="M547 -26 l-242 668 l-240 -668 l-47 0 l263 721 l51 0 l264 -721 l-49 0 Z" /><glyph glyph-name="" unicode="&#x39c;" d="M187 507 q-32 62 -56 118 l0 -651 l-43 0 l0 721 l50 0 l272 -551 l266 551 l52 0 l0 -721 l-43 0 l0 643 q-14 -33 -28 -62 q-14 -29 -31 -61 l-198 -400 l-38 0 l-203 413 Z" /><glyph glyph-name="" unicode="&#x39d;" d="M148 695 l359 -611 q6 -10 15.5 -29 q9.5 -19 15.5 -32 l0 672 l43 0 l0 -721 l-60 0 l-359 611 q-8 14 -16.5 31 q-8.5 17 -14.5 30 l0 -672 l-43 0 l0 721 l60 0 Z" /><glyph glyph-name="" unicode="&#x39e;" d="M475 13 l0 -39 l-425 0 l0 39 l425 0 ZM76 364 l373 0 l0 -39 l-373 0 l0 39 ZM54 656 l0 39 l417 0 l0 -39 l-417 0 Z" /><glyph glyph-name="" unicode="&#x39f;" d="M614 289 q0 -71 -17.5 -131 q-17.5 -60 -52 -103.5 q-34.5 -43.5 -86.5 -67.5 q-52 -24 -121 -24 q-69 0 -121 24 q-52 24 -86.5 67.5 q-34.5 43.5 -52 103.5 q-17.5 60 -17.5 131 l0 91 q0 71 17.5 131 q17.5 60 52 103.5 q34.5 43.5 86.5 67.5 q52 24 121 24 q69 0 121 -24 q52 -24 86.5 -67.5 q34.5 -43.5 52 -103.5 q17.5 -60 17.5 -131 l0 -91 ZM569 379 q0 140 -62 213 q-62 73 -170 73 q-108 0 -170 -73 q-62 -73 -62 -213 l0 -89 q0 -140 62 -213 q62 -73 170 -73 q108 0 170 73 q62 73 62 213 l0 89 Z" /><glyph glyph-name="" unicode="&#x3a0;" d="M565 -26 l-44 0 l0 680 l-389 0 l0 -680 l-44 0 l0 721 l477 0 l0 -721 Z" /><glyph glyph-name="" unicode="&#x3a1;" d="M88 695 l225 0 q114 0 173 -52 q59 -52 59 -152 l0 -22 q0 -102 -60.5 -153.5 q-60.5 -51.5 -174.5 -51.5 l-178 0 l0 -290 l-44 0 l0 721 ZM132 654 l0 -349 l173 0 q54 0 91 11.5 q37 11.5 60.5 33 q23.5 21.5 33.5 52 q10 30.5 10 68.5 l0 19 q0 37 -10 67.5 q-10 30.5 -32.5 52 q-22.5 21.5 -58 33.5 q-35.5 12 -86.5 12 l-181 0 Z" /><glyph glyph-name="" unicode="&#x3a3;" d="M520 695 l0 -40 l-358 0 l213 -323 l-217 -318 l369 0 l0 -40 l-421 0 l0 31 l221 326 l-221 336 l0 28 l414 0 Z" /><glyph glyph-name="" unicode="&#x3a4;" d="M262 -26 l0 680 l-240 0 l0 41 l524 0 l0 -41 l-240 0 l0 -680 l-44 0 Z" /><glyph glyph-name="" unicode="&#x3a5;" d="M317 273 l0 -299 l-44 0 l0 299 l-249 422 l47 0 l225 -382 l216 382 l48 0 l-243 -422 Z" /><glyph glyph-name="" unicode="&#x3a6;" d="M65 376 q0 115 70 181 q70 66 210 72 l0 89 l41 0 l0 -89 q138 -5 209.5 -71.5 q71.5 -66.5 71.5 -181.5 l0 -53 q0 -114 -71.5 -181 q-71.5 -67 -209.5 -72 l0 -96 l-41 0 l0 96 q-140 5 -210 71.5 q-70 66.5 -70 181.5 l0 53 ZM625 370 q0 57 -18.5 98 q-18.5 41 -51 67.5 q-32.5 26.5 -76 40 q-43.5 13.5 -93.5 15.5 l0 -483 q50 2 93.5 15.5 q43.5 13.5 76 40 q32.5 26.5 51 67.5 q18.5 41 18.5 98 l0 41 ZM107 329 q0 -57 18 -97.5 q18 -40.5 50 -67.5 q32 -27 75.5 -40.5 q43.5 -13.5 94.5 -15.5 l0 483 q-51 -2 -94.5 -15.5 q-43.5 -13.5 -75.5 -40 q-32 -26.5 -50 -67.5 q-18 -41 -18 -98 l0 -41 Z" /><glyph glyph-name="" unicode="&#x3a7;" d="M337 349 l242 -375 l-54 0 l-219 346 l-230 -346 l-52 0 l254 373 l-241 348 l52 0 l219 -321 l207 321 l50 0 l-228 -346 Z" /><glyph glyph-name="" unicode="&#x3a8;" d="M369 215 q48 3 87.5 18 q39.5 15 68 44.5 q28.5 29.5 44 76 q15.5 46.5 15.5 114.5 l0 207 l42 0 l0 -215 q0 -77 -21 -130 q-21 -53 -56.5 -86.5 q-35.5 -33.5 -82 -50.5 q-46.5 -17 -97.5 -20 l0 -199 l-42 0 l0 199 q-51 3 -97.5 20 q-46.5 17 -82 50.5 q-35.5 33.5 -56.5 86.5 q-21 53 -21 130 l0 215 l42 0 l0 -207 q0 -68 15.5 -114.5 q15.5 -46.5 44 -76 q28.5 -29.5 68 -44.5 q39.5 -15 87.5 -18 l0 460 l42 0 l0 -460 Z" /><glyph glyph-name="" unicode="&#x3a9;" d="M367 706 q69 0 120 -24 q51 -24 84 -66 q33 -42 49 -100.5 q16 -58.5 16 -127.5 l0 -89 q0 -62 -8.5 -108 q-8.5 -46 -25 -79.5 q-16.5 -33.5 -40.5 -57 q-24 -23.5 -55 -40.5 l197 0 l0 -40 l-251 0 l0 46 q37 23 63.5 45 q26.5 22 43 52.5 q16.5 30.5 24 73.5 q7.5 43 7.5 109 l0 86 q0 134 -57.5 206 q-57.5 72 -166.5 72 q-109 0 -166.5 -72 q-57.5 -72 -57.5 -206 l0 -86 q0 -66 7.5 -109 q7.5 -43 24 -73.5 q16.5 -30.5 43 -52.5 q26.5 -22 63.5 -45 l0 -46 l-251 0 l0 40 l197 0 q-31 17 -55 40.5 q-24 23.5 -40.5 57 q-16.5 33.5 -25 79.5 q-8.5 46 -8.5 108 l0 89 q0 69 16 127.5 q16 58.5 49 100.5 q33 42 84 66 q51 24 120 24 Z" /><glyph glyph-name="" unicode="&#x3b1;" d="M436 64 q-20 -41 -66 -69.5 q-46 -28.5 -108 -28.5 q-97 0 -150.5 58 q-53.5 58 -53.5 169 l0 98 q0 55 15.5 97.5 q15.5 42.5 44 71.5 q28.5 29 67 43.5 q38.5 14.5 85.5 14.5 q48 0 94.5 -19.5 q46.5 -19.5 70.5 -56.5 l0 65 l43 0 l0 -533 l-42 0 l0 90 ZM436 350 q0 26 -12 49.5 q-12 23.5 -34.5 41 q-22.5 17.5 -53.5 28 q-31 10.5 -68 10.5 q-75 0 -121 -50 q-46 -50 -46 -144 l0 -86 q0 -95 41 -144.5 q41 -49.5 125 -49.5 q29 0 59 11 q30 11 54.5 32 q24.5 21 40 51.5 q15.5 30.5 15.5 69.5 l0 181 Z" /><glyph glyph-name="" unicode="&#x3b2;" d="M457 541 q0 -74 -29.5 -113.5 q-29.5 -39.5 -84.5 -56.5 q77 -6 121.5 -48.5 q44.5 -42.5 44.5 -122.5 l0 -43 q0 -45 -15 -80.5 q-15 -35.5 -42 -60 q-27 -24.5 -63.5 -37.5 q-36.5 -13 -79.5 -13 q-71 0 -117.5 25 q-46.5 25 -66.5 56 l0 -287 l-43 0 l0 784 q0 53 16 89.5 q16 36.5 42.5 59.5 q26.5 23 60.5 33 q34 10 71 10 q49 0 84.5 -14 q35.5 -14 57.5 -37 q22 -23 32.5 -53.5 q10.5 -30.5 10.5 -64.5 l0 -26 ZM125 130 q0 -22 13 -44 q13 -22 37 -39.5 q24 -17.5 58 -28.5 q34 -11 76 -11 q49 0 79.5 17 q30.5 17 47.5 41 q17 24 23 50 q6 26 6 44 l0 38 q0 43 -14.5 72.5 q-14.5 29.5 -40.5 47 q-26 17.5 -64 24.5 q-38 7 -84 5 l0 41 q48 1 77.5 14 q29.5 13 46 34.5 q16.5 21.5 22 49.5 q5.5 28 5.5 59 l0 18 q0 66 -39.5 99.5 q-39.5 33.5 -99.5 33.5 q-69 0 -109 -40.5 q-40 -40.5 -40 -117.5 l0 -407 Z" /><glyph glyph-name="" unicode="&#x3b3;" d="M70 507 l173 -483 l174 483 l46 0 l-198 -540 l0 -207 l-43 0 l0 205 l-202 542 l50 0 Z" /><glyph glyph-name="" unicode="&#x3b4;" d="M190 626 q0 -21 11.5 -36.5 q11.5 -15.5 32.5 -30 q21 -14.5 50 -30 q29 -15.5 63 -37.5 q27 -18 55 -37 q28 -19 50.5 -46 q22.5 -27 37 -64.5 q14.5 -37.5 14.5 -90.5 l0 -47 q0 -115 -59 -178 q-59 -63 -163 -63 q-104 0 -163 63 q-59 63 -59 178 l0 37 q0 66 18.5 111 q18.5 45 48.5 72.5 q30 27.5 68.5 40 q38.5 12.5 79.5 12.5 q9 0 15.5 -0.5 q6.5 -0.5 16.5 -2.5 q-45 21 -75.5 39.5 q-30.5 18.5 -49.5 35.5 q-19 17 -27 34.5 q-8 17.5 -8 36.5 l0 12 q0 18 9 36.5 q9 18.5 28 32.5 q19 14 47.5 23 q28.5 9 67.5 9 q41 0 75 -8 q34 -8 69 -27 l-15 -35 q-59 31 -125 31 q-54 0 -83.5 -16.5 q-29.5 -16.5 -29.5 -49.5 l0 -5 ZM282 5 q84 0 131.5 49 q47.5 49 47.5 153 l0 61 q0 38 -15 70.5 q-15 32.5 -39 56 q-24 23.5 -55 36.5 q-31 13 -64 13 q-36 0 -69 -9 q-33 -9 -59 -31.5 q-26 -22.5 -41.5 -61.5 q-15.5 -39 -15.5 -98 l0 -37 q0 -104 47.5 -153 q47.5 -49 131.5 -49 Z" /><glyph glyph-name="" unicode="&#x3b5;" d="M390 449 q-33 15 -68.5 20.5 q-35.5 5.5 -67.5 5.5 q-66 0 -105.5 -19 q-39.5 -19 -39.5 -61 l0 -8 q0 -29 11.5 -49 q11.5 -20 31 -32.5 q19.5 -12.5 45 -18.5 q25.5 -6 53.5 -6 l63 0 l0 -43 l-73 0 q-64 0 -103.5 -27.5 q-39.5 -27.5 -39.5 -83.5 l0 -12 q0 -21 8 -40.5 q8 -19.5 25.5 -34.5 q17.5 -15 44 -24 q26.5 -9 63.5 -9 q48 0 92.5 10.5 q44.5 10.5 86.5 38.5 l22 -32 q-39 -31 -91.5 -44.5 q-52.5 -13.5 -100.5 -13.5 q-91 0 -142.5 38 q-51.5 38 -51.5 113 l0 11 q0 58 33.5 90 q33.5 32 94.5 42 q-57 14 -86.5 45 q-29.5 31 -29.5 79 l0 9 q0 32 14.5 55 q14.5 23 40 38 q25.5 15 59.5 22 q34 7 73 7 q22 0 41.5 -1.5 q19.5 -1.5 37.5 -5 q18 -3.5 36 -9.5 q18 -6 38 -15 l-15 -35 Z" /><glyph glyph-name="" unicode="&#x3b6;" d="M330 -137 q16 12 26.5 21 q10.5 9 16.5 16.5 q6 7.5 8.5 14.5 q2.5 7 2.5 16 q0 12 -9 21.5 q-9 9.5 -22.5 17 q-13.5 7.5 -29 12.5 q-15.5 5 -28.5 8 q-50 13 -94.5 31 q-44.5 18 -78 45 q-33.5 27 -53 64.5 q-19.5 37.5 -19.5 88.5 l0 16 q0 67 21 130 q21 63 58.5 120 q37.5 57 90 108.5 q52.5 51.5 114.5 96.5 l-214 0 l0 40 l256 0 l3 -44 q-68 -53 -121 -103.5 q-53 -50.5 -89.5 -104.5 q-36.5 -54 -55.5 -113.5 q-19 -59.5 -19 -131.5 l0 -13 q0 -44 17 -74.5 q17 -30.5 45.5 -52.5 q28.5 -22 66.5 -37.5 q38 -15.5 81 -28.5 q34 -11 57 -20.5 q23 -9.5 37 -19.5 q14 -10 19.5 -22.5 q5.5 -12.5 5.5 -29.5 q0 -21 -5.5 -35.5 q-5.5 -14.5 -14.5 -25.5 q-9 -11 -21.5 -21 q-12.5 -10 -26.5 -20 l-25 30 Z" /><glyph glyph-name="" unicode="&#x3b7;" d="M485 -240 l-43 0 l0 568 q0 70 -33.5 110.5 q-33.5 40.5 -115.5 40.5 q-43 0 -74.5 -15.5 q-31.5 -15.5 -52.5 -38 q-21 -22.5 -31 -47 q-10 -24.5 -10 -42.5 l0 -362 l-43 0 l0 533 l42 0 l0 -82 q7 14 21.5 30 q14.5 16 36 30 q21.5 14 51 23.5 q29.5 9.5 67.5 9.5 q50 0 85.5 -14.5 q35.5 -14.5 57.5 -39.5 q22 -25 32 -57 q10 -32 10 -66 l0 -581 Z" /><glyph glyph-name="" unicode="&#x3b8;" d="M266 -36 q-44 0 -81.5 18.5 q-37.5 18.5 -65.5 56 q-28 37.5 -43.5 95 q-15.5 57.5 -15.5 135.5 l0 162 q0 78 15.5 135.5 q15.5 57.5 43 95 q27.5 37.5 65 56 q37.5 18.5 82.5 18.5 q45 0 82.5 -18.5 q37.5 -18.5 65 -56 q27.5 -37.5 43 -95 q15.5 -57.5 15.5 -135.5 l0 -162 q0 -78 -15.5 -135.5 q-15.5 -57.5 -43.5 -95 q-28 -37.5 -65.5 -56 q-37.5 -18.5 -81.5 -18.5 ZM266 4 q77 0 119.5 69.5 q42.5 69.5 42.5 224.5 l0 35 l-324 0 l0 -35 q0 -155 42.5 -224.5 q42.5 -69.5 119.5 -69.5 ZM428 371 l0 36 q0 79 -11 134 q-11 55 -32 89.5 q-21 34.5 -51 50 q-30 15.5 -68 15.5 q-38 0 -68 -15.5 q-30 -15.5 -51 -50 q-21 -34.5 -32 -89.5 q-11 -55 -11 -134 l0 -36 l324 0 Z" /><glyph glyph-name="" unicode="&#x3b9;" d="M220 -24 q-21 -10 -53 -10 q-18 0 -34 4 q-16 4 -28 14.5 q-12 10.5 -18.5 28.5 q-6.5 18 -6.5 45 l0 449 l44 0 l0 -447 q0 -29 10 -41.5 q10 -12.5 36 -12.5 q23 0 41 7 l9 -37 Z" /><glyph glyph-name="" unicode="&#x3ba;" d="M251 286 l244 -312 l-54 0 l-220 281 l-96 -99 l0 -182 l-43 0 l0 533 l43 0 l0 -295 l282 295 l59 0 l-215 -221 Z" /><glyph glyph-name="" unicode="&#x3bb;" d="M245 460 l-180 -486 l-45 0 l201 540 l-54 148 q-8 20 -15.5 27.5 q-7.5 7.5 -21.5 7.5 q-14 0 -28 -7 l-13 36 q8 4 19 7 q11 3 23 3 q29 0 45 -13.5 q16 -13.5 27 -41.5 l261 -707 l-46 0 l-173 486 Z" /><glyph glyph-name="" unicode="&#x3bc;" d="M79 507 l42 0 l0 -352 q0 -36 7.5 -63.5 q7.5 -27.5 25 -47 q17.5 -19.5 46.5 -29.5 q29 -10 73 -10 q25 0 53.5 10.5 q28.5 10.5 52.5 30 q24 19.5 40 48 q16 28.5 16 64.5 l0 349 l42 0 l0 -533 l-42 0 l0 82 q-5 -11 -19.5 -26 q-14.5 -15 -36 -29 q-21.5 -14 -50.5 -24 q-29 -10 -62 -10 q-56 0 -95.5 21 q-39.5 21 -50.5 50 l0 -278 l-42 0 l0 747 Z" /><glyph glyph-name="" unicode="&#x3bd;" d="M417 507 l45 0 l-199 -533 l-42 0 l-202 533 l46 0 l178 -481 l174 481 Z" /><glyph glyph-name="" unicode="&#x3be;" d="M95 210 q0 -44 17 -72.5 q17 -28.5 46 -48 q29 -19.5 67 -33.5 q38 -14 81 -27 q34 -11 57.5 -20 q23.5 -9 37 -19 q13.5 -10 19.5 -22.5 q6 -12.5 6 -31.5 q0 -20 -6.5 -35 q-6.5 -15 -16 -27 q-9.5 -12 -22 -21.5 q-12.5 -9.5 -24.5 -18.5 l-25 30 q30 20 42 35.5 q12 15.5 12 32.5 q0 12 -9 21.5 q-9 9.5 -22.5 17 q-13.5 7.5 -29 12.5 q-15.5 5 -28.5 8 q-50 13 -94.5 29 q-44.5 16 -78 40.5 q-33.5 24.5 -53 60 q-19.5 35.5 -19.5 87.5 l0 18 q0 42 13 72 q13 30 35 50 q22 20 51.5 32 q29.5 12 62.5 17 q-26 4 -50.5 16.5 q-24.5 12.5 -43.5 33 q-19 20.5 -30.5 50 q-11.5 29.5 -11.5 68.5 l0 9 q0 35 11.5 64.5 q11.5 29.5 35 51.5 q23.5 22 58 34 q34.5 12 80.5 12 q42 0 80 -6.5 q38 -6.5 81 -32.5 l-19 -31 q-32 21 -68 27 q-36 6 -72 6 q-27 0 -53 -6.5 q-26 -6.5 -46.5 -21 q-20.5 -14.5 -33 -38 q-12.5 -23.5 -12.5 -57.5 l0 -10 q0 -33 12 -61 q12 -28 33.5 -48 q21.5 -20 52 -31.5 q30.5 -11.5 66.5 -11.5 l66 0 l0 -39 l-69 0 q-41 0 -75 -10.5 q-34 -10.5 -59 -30 q-25 -19.5 -38.5 -48.5 q-13.5 -29 -13.5 -65 l0 -11 Z" /><glyph glyph-name="" unicode="&#x3bf;" d="M279 518 q104 0 161.5 -63 q57.5 -63 57.5 -178 l0 -70 q0 -115 -57.5 -178 q-57.5 -63 -161.5 -63 q-104 0 -161.5 63 q-57.5 63 -57.5 178 l0 70 q0 115 57.5 178 q57.5 63 161.5 63 ZM279 3 q81 0 128.5 50 q47.5 50 47.5 154 l0 70 q0 104 -47.5 154 q-47.5 50 -128.5 50 q-81 0 -128.5 -50 q-47.5 -50 -47.5 -154 l0 -70 q0 -104 47.5 -154 q47.5 -50 128.5 -50 Z" /><glyph glyph-name="" unicode="&#x3c0;" d="M513 -25 q-14 -5 -28 -7 q-14 -2 -26 -2 q-17 0 -32 4.5 q-15 4.5 -26.5 15 q-11.5 10.5 -18 29 q-6.5 18.5 -6.5 45.5 l0 407 l-188 0 l0 -493 l-43 0 l0 493 l-121 0 l0 40 l516 0 l0 -40 l-121 0 l0 -406 q0 -29 12 -43 q12 -14 32 -14 q25 0 43 6 l7 -35 Z" /><glyph glyph-name="" unicode="&#x3c1;" d="M299 518 q104 0 161.5 -63 q57.5 -63 57.5 -178 l0 -70 q0 -115 -57.5 -178 q-57.5 -63 -161.5 -63 q-60 0 -107 23.5 q-47 23.5 -70 69.5 l0 -299 l-42 0 l0 517 q0 115 57.5 178 q57.5 63 161.5 63 ZM299 3 q81 0 128.5 50 q47.5 50 47.5 154 l0 70 q0 104 -47.5 154 q-47.5 50 -128.5 50 q-81 0 -128.5 -50 q-47.5 -50 -47.5 -154 l0 -70 q0 -104 47.5 -154 q47.5 -50 128.5 -50 Z" /><glyph glyph-name="" unicode="&#x3c3;" d="M534 507 l0 -38 l-130 0 q47 -30 69.5 -81.5 q22.5 -51.5 22.5 -121.5 l0 -59 q0 -115 -57.5 -178 q-57.5 -63 -161.5 -63 q-104 0 -161.5 63 q-57.5 63 -57.5 178 l0 59 q0 115 57.5 178 q57.5 63 161.5 63 l257 0 ZM277 3 q81 0 128.5 50 q47.5 50 47.5 154 l0 59 q0 104 -47.5 154 q-47.5 50 -128.5 50 q-81 0 -128.5 -50 q-47.5 -50 -47.5 -154 l0 -59 q0 -104 47.5 -154 q47.5 -50 128.5 -50 Z" /><glyph glyph-name="" unicode="&#x3c4;" d="M16 467 l0 40 l492 0 l0 -40 l-234 0 l0 -386 q0 -77 61 -77 q19 0 33.5 2 q14.5 2 29.5 7 l8 -35 q-17 -6 -36.5 -9 q-19.5 -3 -37.5 -3 q-47 0 -74 27 q-27 27 -27 87 l0 387 l-215 0 Z" /><glyph glyph-name="" unicode="&#x3c5;" d="M283 -34 q-45 0 -82.5 14 q-37.5 14 -64.5 43 q-27 29 -41.5 73.5 q-14.5 44.5 -14.5 106.5 l0 304 l42 0 l0 -291 q0 -107 38 -158.5 q38 -51.5 123 -51.5 q85 0 123 51.5 q38 51.5 38 158.5 l0 291 l42 0 l0 -304 q0 -62 -14.5 -106.5 q-14.5 -44.5 -41.5 -73.5 q-27 -29 -64.5 -43 q-37.5 -14 -82.5 -14 Z" /><glyph glyph-name="" unicode="&#x3c6;" d="M310 -240 l0 207 q-54 3 -100.5 20.5 q-46.5 17.5 -80.5 49 q-34 31.5 -53.5 75 q-19.5 43.5 -19.5 97.5 l0 66 q0 57 21.5 102 q21.5 45 58.5 76.5 q37 31.5 87 48 q50 16.5 107 16.5 q57 0 107 -16.5 q50 -16.5 87 -48 q37 -31.5 58.5 -76.5 q21.5 -45 21.5 -102 l0 -66 q0 -54 -19.5 -97 q-19.5 -43 -54 -74.5 q-34.5 -31.5 -80.5 -49.5 q-46 -18 -100 -21 l0 -207 l-40 0 ZM564 271 q0 46 -15.5 83.5 q-15.5 37.5 -43.5 64.5 q-28 27 -67.5 43.5 q-39.5 16.5 -87.5 19.5 l0 -479 q48 4 87 20.5 q39 16.5 67.5 43.5 q28.5 27 44 64 q15.5 37 15.5 82 l0 58 ZM96 213 q0 -93 58.5 -147.5 q58.5 -54.5 155.5 -62.5 l0 479 q-48 -3 -87.5 -19 q-39.5 -16 -67.5 -43.5 q-28 -27.5 -43.5 -65 q-15.5 -37.5 -15.5 -83.5 l0 -58 Z" /><glyph glyph-name="" unicode="&#x3c7;" d="M90 -240 l-46 0 l191 388 l-122 295 q-7 17 -12 25.5 q-5 8.5 -19 8.5 q-9 0 -17 -2.5 q-8 -2.5 -15 -5.5 l-13 34 q11 5 23.5 8.5 q12.5 3.5 23.5 3.5 q30 0 45 -13 q15 -13 28 -45 l111 -275 l145 326 l46 0 l-166 -358 l137 -321 q7 -17 12.5 -26.5 q5.5 -9.5 19.5 -9.5 q9 0 17 2.5 q8 2.5 15 5.5 l13 -34 q-11 -5 -23.5 -8.5 q-12.5 -3.5 -23.5 -3.5 q-30 0 -45 13 q-15 13 -28 45 l-126 302 l-171 -355 Z" /><glyph glyph-name="" unicode="&#x3c8;" d="M374 5 q49 3 88 18 q39 15 66 43 q27 28 41 70 q14 42 14 101 l0 270 l43 0 l0 -268 q0 -127 -63 -197.5 q-63 -70.5 -189 -76.5 l0 -205 l-42 0 l0 205 q-126 6 -189 76.5 q-63 70.5 -63 197.5 l0 268 l43 0 l0 -270 q0 -59 14 -101 q14 -42 41 -70 q27 -28 66 -43 q39 -15 88 -18 l0 502 l42 0 l0 -502 Z" /><glyph glyph-name="" unicode="&#x3c9;" d="M356 53 q-20 -40 -54.5 -63.5 q-34.5 -23.5 -79.5 -23.5 q-30 0 -60 11 q-30 11 -53.5 39 q-23.5 28 -38.5 75.5 q-15 47.5 -15 120.5 l0 36 q0 73 22.5 140.5 q22.5 67.5 60.5 124.5 l31 -17 q-16 -29 -29.5 -56 q-13.5 -27 -23 -56 q-9.5 -29 -14.5 -63 q-5 -34 -5 -77 l0 -24 q0 -72 13 -114.5 q13 -42.5 32.5 -64.5 q19.5 -22 43 -28.5 q23.5 -6.5 43.5 -6.5 q22 0 41.5 9 q19.5 9 33.5 24.5 q14 15.5 22.5 37 q8.5 21.5 8.5 46.5 l0 251 l42 0 l0 -251 q0 -25 8.5 -46.5 q8.5 -21.5 22.5 -37 q14 -15.5 33.5 -24.5 q19.5 -9 41.5 -9 q20 0 43.5 6.5 q23.5 6.5 43 28.5 q19.5 22 32.5 64.5 q13 42.5 13 114.5 l0 24 q0 43 -5 77 q-5 34 -14.5 63 q-9.5 29 -23 56 q-13.5 27 -29.5 56 l31 17 q38 -57 60.5 -124.5 q22.5 -67.5 22.5 -140.5 l0 -36 q0 -73 -15 -120.5 q-15 -47.5 -38.5 -75.5 q-23.5 -28 -53.5 -39 q-30 -11 -60 -11 q-45 0 -79 23.5 q-34 23.5 -54 63.5 l-1 0 Z" /><glyph glyph-name="" unicode="&#x401;" d="M351 821 l44 0 l0 -52 l-44 0 l0 52 ZM214 821 l44 0 l0 -52 l-44 0 l0 52 ZM509 695 l0 -41 l-377 0 l0 -290 l356 0 l0 -40 l-356 0 l0 -309 l384 0 l0 -41 l-428 0 l0 721 l421 0 Z" /><glyph glyph-name="" unicode="&#x410;" d="M476 207 l-326 0 l-88 -233 l-48 0 l278 721 l44 0 l275 -721 l-49 0 l-86 233 ZM165 246 l296 0 l-86 233 q-16 44 -32 85.5 q-16 41.5 -29 83.5 q-12 -42 -27.5 -83.5 q-15.5 -41.5 -32.5 -85.5 l-89 -233 Z" /><glyph glyph-name="" unicode="&#x411;" d="M131 14 l203 0 q50 0 85 11 q35 11 57.5 31 q22.5 20 32.5 47 q10 27 10 59 l0 32 q0 70 -41.5 108.5 q-41.5 38.5 -137.5 38.5 l-209 0 l0 -327 ZM499 655 l-368 0 l0 -275 l206 0 q49 0 90.5 -9.5 q41.5 -9.5 72 -31 q30.5 -21.5 47.5 -57 q17 -35.5 17 -86.5 l0 -35 q0 -89 -58 -138 q-58 -49 -167 -49 l-251 0 l0 721 l411 0 l0 -40 Z" /><glyph glyph-name="" unicode="&#x412;" d="M88 695 l223 0 q114 0 167 -43 q53 -43 53 -132 l0 -23 q0 -24 -6.5 -46.5 q-6.5 -22.5 -20.5 -41.5 q-14 -19 -36.5 -33.5 q-22.5 -14.5 -54.5 -22.5 q72 -10 111.5 -49 q39.5 -39 39.5 -114 l0 -27 q0 -89 -51.5 -139 q-51.5 -50 -168.5 -50 l-256 0 l0 721 ZM131 14 l217 0 q171 0 171 149 l0 24 q0 70 -45 107.5 q-45 37.5 -153 37.5 l-190 0 l0 -318 ZM131 655 l0 -284 l189 0 q75 0 121 30.5 q46 30.5 46 98.5 l0 20 q0 64 -39 99.5 q-39 35.5 -133 35.5 l-184 0 Z" /><glyph glyph-name="" unicode="&#x413;" d="M88 -26 l0 721 l418 0 l0 -41 l-374 0 l0 -680 l-44 0 Z" /><glyph glyph-name="" unicode="&#x414;" d="M548 695 l0 -681 l60 0 l0 -210 l-44 0 l0 170 l-492 0 l0 -170 l-44 0 l0 210 l53 0 q40 67 62 139 q22 72 31.5 144 q9.5 72 11 140 q1.5 68 1.5 128 l0 130 l361 0 ZM230 564 q0 -74 -2.5 -143.5 q-2.5 -69.5 -12.5 -137.5 q-10 -68 -29.5 -135 q-19.5 -67 -53.5 -134 l373 0 l0 641 l-275 0 l0 -91 Z" /><glyph glyph-name="" unicode="&#x415;" d="M509 695 l0 -41 l-377 0 l0 -290 l356 0 l0 -40 l-356 0 l0 -309 l384 0 l0 -41 l-428 0 l0 721 l421 0 Z" /><glyph glyph-name="" unicode="&#x416;" d="M435 330 l-39 0 q-25 0 -45 -7 q-20 -7 -37 -20.5 q-17 -13.5 -32.5 -33 q-15.5 -19.5 -32.5 -45.5 l-163 -250 l-54 0 l194 292 q25 38 45.5 57.5 q20.5 19.5 44.5 28.5 q-14 7 -28 20 q-14 13 -26 29.5 q-12 16.5 -23 36 q-11 19.5 -19 38.5 l-35 80 q-12 26 -21 45 q-9 19 -19.5 31.5 q-10.5 12.5 -24 18.5 q-13.5 6 -33.5 6 q-8 0 -16 -0.5 q-8 -0.5 -19 -4.5 l-15 42 q9 3 19 5 q10 2 20 2 q26 0 46 -5 q20 -5 35.5 -17 q15.5 -12 29.5 -32.5 q14 -20.5 28 -51.5 l39 -84 q13 -29 24.5 -53.5 q11.5 -24.5 26.5 -43 q15 -18.5 36 -29 q21 -10.5 53 -10.5 l41 0 l0 320 l44 0 l0 -320 l41 0 q32 0 53 10.5 q21 10.5 36 29 q15 18.5 26.5 43 q11.5 24.5 24.5 53.5 l39 84 q14 31 28 51.5 q14 20.5 29.5 32.5 q15.5 12 35.5 17 q20 5 46 5 q10 0 20 -2 q10 -2 19 -5 l-15 -42 q-11 4 -19 4.5 q-8 0.5 -16 0.5 q-20 0 -33.5 -6 q-13.5 -6 -24 -18.5 q-10.5 -12.5 -19.5 -31.5 q-9 -19 -21 -45 l-35 -80 q-8 -19 -19 -38.5 q-11 -19.5 -23 -36 q-12 -16.5 -26 -29.5 q-14 -13 -28 -20 q24 -9 44.5 -28.5 q20.5 -19.5 45.5 -57.5 l194 -292 l-54 0 l-163 250 q-17 26 -32.5 45.5 q-15.5 19.5 -32.5 33 q-17 13.5 -37 20.5 q-20 7 -45 7 l-39 0 l0 -356 l-44 0 l0 356 Z" /><glyph glyph-name="" unicode="&#x417;" d="M52 594 q12 20 30.5 40 q18.5 20 44 36 q25.5 16 58 26 q32.5 10 73.5 10 q48 0 87 -13 q39 -13 66 -36.5 q27 -23.5 42 -57 q15 -33.5 15 -73.5 l0 -10 q0 -21 -6 -44.5 q-6 -23.5 -21 -46 q-15 -22.5 -40 -41.5 q-25 -19 -64 -32 q76 -13 117.5 -58 q41.5 -45 41.5 -109 l0 -15 q0 -38 -12 -75 q-12 -37 -40 -66 q-28 -29 -74 -47.5 q-46 -18.5 -113 -18.5 q-132 0 -233 80 l25 37 q52 -42 104.5 -59 q52.5 -17 103.5 -17 q56 0 93.5 16 q37.5 16 60 40.5 q22.5 24.5 32 53.5 q9.5 29 9.5 55 l0 13 q0 47 -19.5 76 q-19.5 29 -48 45 q-28.5 16 -60.5 21.5 q-32 5.5 -57 5.5 l-80 0 l0 40 l78 0 q24 0 52 8 q28 8 52 25.5 q24 17.5 39.5 46 q15.5 28.5 15.5 69.5 l0 8 q0 61 -42.5 99.5 q-42.5 38.5 -122.5 38.5 q-47 0 -92 -20 q-45 -20 -80 -75 l-35 24 Z" /><glyph glyph-name="" unicode="&#x418;" d="M581 695 l0 -721 l-43 0 l0 672 q-6 -13 -14.5 -30 q-8.5 -17 -16.5 -31 l-359 -611 l-60 0 l0 721 l43 0 l0 -672 q6 13 15.5 32 q9.5 19 15.5 29 l359 611 l60 0 Z" /><glyph glyph-name="" unicode="&#x419;" d="M333 722 q-53 0 -87.5 33.5 q-34.5 33.5 -36.5 87.5 l35 0 q4 -38 28 -60.5 q24 -22.5 61 -22.5 q38 0 61 22.5 q23 22.5 28 60.5 l35 0 q-2 -54 -37 -87.5 q-35 -33.5 -87 -33.5 ZM581 695 l0 -721 l-43 0 l0 672 q-6 -13 -14.5 -30 q-8.5 -17 -16.5 -31 l-359 -611 l-60 0 l0 721 l43 0 l0 -672 q6 13 15.5 32 q9.5 19 15.5 29 l359 611 l60 0 Z" /><glyph glyph-name="" unicode="&#x41a;" d="M88 695 l44 0 l0 -320 l61 0 q32 0 53 10.5 q21 10.5 36 29 q15 18.5 26.5 43 q11.5 24.5 24.5 53.5 l39 84 q14 31 28 51.5 q14 20.5 29.5 32.5 q15.5 12 35.5 17 q20 5 46 5 q10 0 20 -2 q10 -2 19 -5 l-15 -42 q-11 4 -19 4.5 q-8 0.5 -16 0.5 q-20 0 -33.5 -6 q-13.5 -6 -24 -18.5 q-10.5 -12.5 -19.5 -31.5 q-9 -19 -21 -45 l-35 -80 q-8 -19 -19 -38.5 q-11 -19.5 -23 -36 q-12 -16.5 -26 -29.5 q-14 -13 -28 -20 q24 -9 44.5 -28.5 q20.5 -19.5 45.5 -57.5 l194 -292 l-54 0 l-163 250 q-17 26 -32.5 45.5 q-15.5 19.5 -32.5 33 q-17 13.5 -37 20.5 q-20 7 -45 7 l-59 0 l0 -356 l-44 0 l0 721 Z" /><glyph glyph-name="" unicode="&#x41b;" d="M571 695 l0 -721 l-44 0 l0 679 l-294 0 l0 -264 q0 -94 -4.5 -162 q-4.5 -68 -24 -117 q-19.5 -49 -60 -83 q-40.5 -34 -113.5 -59 l-11 43 q62 21 96 48.5 q34 27.5 50.5 71 q16.5 43.5 19.5 106.5 q3 63 3 155 l0 303 l382 0 Z" /><glyph glyph-name="" unicode="&#x41c;" d="M187 507 q-32 62 -56 118 l0 -651 l-43 0 l0 721 l50 0 l272 -551 l266 551 l52 0 l0 -721 l-43 0 l0 643 q-14 -33 -28 -62 q-14 -29 -31 -61 l-198 -400 l-38 0 l-203 413 Z" /><glyph glyph-name="" unicode="&#x41d;" d="M579 695 l0 -721 l-44 0 l0 358 l-403 0 l0 -358 l-44 0 l0 721 l44 0 l0 -322 l403 0 l0 322 l44 0 Z" /><glyph glyph-name="" unicode="&#x41e;" d="M614 289 q0 -71 -17.5 -131 q-17.5 -60 -52 -103.5 q-34.5 -43.5 -86.5 -67.5 q-52 -24 -121 -24 q-69 0 -121 24 q-52 24 -86.5 67.5 q-34.5 43.5 -52 103.5 q-17.5 60 -17.5 131 l0 91 q0 71 17.5 131 q17.5 60 52 103.5 q34.5 43.5 86.5 67.5 q52 24 121 24 q69 0 121 -24 q52 -24 86.5 -67.5 q34.5 -43.5 52 -103.5 q17.5 -60 17.5 -131 l0 -91 ZM569 379 q0 140 -62 213 q-62 73 -170 73 q-108 0 -170 -73 q-62 -73 -62 -213 l0 -89 q0 -140 62 -213 q62 -73 170 -73 q108 0 170 73 q62 73 62 213 l0 89 Z" /><glyph glyph-name="" unicode="&#x41f;" d="M565 -26 l-44 0 l0 679 l-389 0 l0 -679 l-44 0 l0 721 l477 0 l0 -721 Z" /><glyph glyph-name="" unicode="&#x420;" d="M88 695 l225 0 q114 0 173 -52 q59 -52 59 -152 l0 -22 q0 -102 -60.5 -153.5 q-60.5 -51.5 -174.5 -51.5 l-178 0 l0 -290 l-44 0 l0 721 ZM132 654 l0 -349 l173 0 q54 0 91 11.5 q37 11.5 60.5 33 q23.5 21.5 33.5 52 q10 30.5 10 68.5 l0 19 q0 37 -10 67.5 q-10 30.5 -32.5 52 q-22.5 21.5 -58 33.5 q-35.5 12 -86.5 12 l-181 0 Z" /><glyph glyph-name="" unicode="&#x421;" d="M571 45 q-11 -10 -30.5 -24 q-19.5 -14 -48 -27 q-28.5 -13 -66 -22 q-37.5 -9 -83.5 -9 q-76 0 -129.5 24.5 q-53.5 24.5 -87.5 69.5 q-34 45 -50 108.5 q-16 63.5 -16 140.5 l0 77 q0 74 17 134 q17 60 51 102 q34 42 85 64.5 q51 22.5 118 22.5 q70 0 126 -19 q56 -19 96 -48 l-24 -34 q-44 30 -89 44.5 q-45 14.5 -109 14.5 q-54 0 -96.5 -19 q-42.5 -19 -71 -54 q-28.5 -35 -43.5 -85 q-15 -50 -15 -111 l0 -100 q0 -143 61 -216.5 q61 -73.5 179 -73.5 q36 0 66.5 7 q30.5 7 56 18 q25.5 11 45 24 q19.5 13 32.5 24 l26 -33 Z" /><glyph glyph-name="" unicode="&#x422;" d="M262 -26 l0 680 l-240 0 l0 41 l524 0 l0 -41 l-240 0 l0 -680 l-44 0 Z" /><glyph glyph-name="" unicode="&#x423;" d="M65 695 l219 -472 l195 472 l47 0 l-310 -732 l-40 14 l86 199 l-245 519 l48 0 Z" /><glyph glyph-name="" unicode="&#x424;" d="M55 376 q0 115 70 181 q70 66 210 72 l0 89 l42 0 l0 -89 q138 -5 209 -71.5 q71 -66.5 71 -181.5 l0 -53 q0 -114 -71 -181 q-71 -67 -209 -72 l0 -96 l-42 0 l0 96 q-140 5 -210 71.5 q-70 66.5 -70 181.5 l0 53 ZM613 370 q0 59 -18 100 q-18 41 -50 67 q-32 26 -75 38.5 q-43 12.5 -93 14.5 l0 -482 q50 2 93 15 q43 13 75 39 q32 26 50 67 q18 41 18 100 l0 41 ZM99 329 q0 -58 18 -99 q18 -41 49.5 -67 q31.5 -26 74.5 -39.5 q43 -13.5 94 -15.5 l0 482 q-51 -2 -94 -14.5 q-43 -12.5 -74.5 -38.5 q-31.5 -26 -49.5 -67 q-18 -41 -18 -100 l0 -41 Z" /><glyph glyph-name="" unicode="&#x425;" d="M337 349 l242 -375 l-54 0 l-219 346 l-230 -346 l-52 0 l254 373 l-241 348 l52 0 l219 -321 l207 321 l50 0 l-228 -346 Z" /><glyph glyph-name="" unicode="&#x426;" d="M132 695 l0 -679 l379 0 l0 679 l44 0 l0 -679 l64 0 l0 -212 l-44 0 l0 170 l-487 0 l0 721 l44 0 Z" /><glyph glyph-name="" unicode="&#x427;" d="M114 695 l0 -249 q0 -45 12.5 -75 q12.5 -30 36 -48 q23.5 -18 56.5 -25.5 q33 -7.5 74 -7.5 q53 0 99 12.5 q46 12.5 78 33.5 l0 359 l44 0 l0 -721 l-44 0 l0 320 q-26 -18 -75 -33 q-49 -15 -114 -15 q-35 0 -72 7.5 q-37 7.5 -68 29 q-31 21.5 -51 61.5 q-20 40 -20 106 l0 245 l44 0 Z" /><glyph glyph-name="" unicode="&#x428;" d="M132 695 l0 -680 l313 0 l0 680 l44 0 l0 -680 l313 0 l0 680 l44 0 l0 -721 l-758 0 l0 721 l44 0 Z" /><glyph glyph-name="" unicode="&#x429;" d="M132 695 l0 -680 l313 0 l0 680 l44 0 l0 -680 l313 0 l0 680 l44 0 l0 -680 l63 0 l0 -211 l-44 0 l0 170 l-777 0 l0 721 l44 0 Z" /><glyph glyph-name="" unicode="&#x42a;" d="M184 14 l203 0 q50 0 85 11 q35 11 57.5 31 q22.5 20 32.5 47 q10 27 10 59 l0 43 q0 70 -41.5 108.5 q-41.5 38.5 -137.5 38.5 l-209 0 l0 -338 ZM390 391 q49 0 90.5 -9.5 q41.5 -9.5 72 -31 q30.5 -21.5 47.5 -57 q17 -35.5 17 -86.5 l0 -46 q0 -89 -58 -138 q-58 -49 -167 -49 l-251 0 l0 681 l-129 0 l0 40 l172 0 l0 -304 l206 0 Z" /><glyph glyph-name="" unicode="&#x42b;" d="M670 -26 l0 721 l44 0 l0 -721 l-44 0 ZM131 14 l203 0 q50 0 85 11 q35 11 57.5 31 q22.5 20 32.5 47 q10 27 10 59 l0 43 q0 70 -41.5 108.5 q-41.5 38.5 -137.5 38.5 l-209 0 l0 -338 ZM337 391 q49 0 90.5 -9.5 q41.5 -9.5 72 -31 q30.5 -21.5 47.5 -57 q17 -35.5 17 -86.5 l0 -46 q0 -89 -58 -138 q-58 -49 -167 -49 l-251 0 l0 721 l43 0 l0 -304 l206 0 Z" /><glyph glyph-name="" unicode="&#x42c;" d="M131 14 l203 0 q50 0 85 11 q35 11 57.5 31 q22.5 20 32.5 47 q10 27 10 59 l0 43 q0 70 -41.5 108.5 q-41.5 38.5 -137.5 38.5 l-209 0 l0 -338 ZM337 391 q49 0 90.5 -9.5 q41.5 -9.5 72 -31 q30.5 -21.5 47.5 -57 q17 -35.5 17 -86.5 l0 -46 q0 -89 -58 -138 q-58 -49 -167 -49 l-251 0 l0 721 l43 0 l0 -304 l206 0 Z" /><glyph glyph-name="" unicode="&#x42d;" d="M145 360 l349 0 l0 35 q0 61 -14.5 111 q-14.5 50 -42.5 85 q-28 35 -70 54 q-42 19 -96 19 q-32 0 -58.5 -3.5 q-26.5 -3.5 -49.5 -11 q-23 -7.5 -44.5 -18.5 q-21.5 -11 -43.5 -26 l-24 34 q40 29 95 48 q55 19 125 19 q67 0 117.5 -22.5 q50.5 -22.5 84 -64.5 q33.5 -42 50 -102 q16.5 -60 16.5 -134 l0 -77 q0 -77 -15.5 -140.5 q-15.5 -63.5 -49 -108.5 q-33.5 -45 -86.5 -69.5 q-53 -24.5 -129 -24.5 q-46 0 -83 9 q-37 9 -65 22 q-28 13 -47.5 27 q-19.5 14 -30.5 24 l26 33 q13 -11 32 -24 q19 -13 44 -24 q25 -11 55.5 -18 q30.5 -7 66.5 -7 q118 0 177.5 73.5 q59.5 73.5 59.5 216.5 l0 23 l-349 0 l0 42 Z" /><glyph glyph-name="" unicode="&#x42e;" d="M827 289 q0 -71 -16 -131 q-16 -60 -48.5 -103.5 q-32.5 -43.5 -83 -67.5 q-50.5 -24 -119.5 -24 q-69 0 -119.5 24 q-50.5 24 -83 67.5 q-32.5 43.5 -48.5 103.5 q-16 60 -16 131 l0 23 l-161 0 l0 -338 l-44 0 l0 721 l44 0 l0 -342 l161 0 l0 27 q0 71 16 131 q16 60 48.5 103.5 q32.5 43.5 83 67.5 q50.5 24 119.5 24 q69 0 119.5 -24 q50.5 -24 83 -67.5 q32.5 -43.5 48.5 -103.5 q16 -60 16 -131 l0 -91 ZM782 379 q0 140 -57 213 q-57 73 -165 73 q-108 0 -165 -73 q-57 -73 -57 -213 l0 -89 q0 -140 57 -213 q57 -73 165 -73 q108 0 165 73 q57 73 57 213 l0 89 Z" /><glyph glyph-name="" unicode="&#x42f;" d="M523 -26 l-44 0 l0 318 l-172 0 q-30 0 -55 3 l-156 -321 l-47 0 l159 330 q-66 17 -103.5 62 q-37.5 45 -37.5 121 l0 22 q0 50 16.5 85 q16.5 35 47.5 57.5 q31 22.5 75 33 q44 10.5 98 10.5 l219 0 l0 -721 ZM304 654 q-98 0 -145 -36 q-47 -36 -47 -111 l0 -19 q0 -76 48 -115.5 q48 -39.5 152 -39.5 l167 0 l0 321 l-175 0 Z" /><glyph glyph-name="" unicode="&#x430;" d="M228 -34 q-37 0 -69 10 q-32 10 -55 29.5 q-23 19.5 -36.5 48 q-13.5 28.5 -13.5 66.5 l0 15 q0 30 10.5 56.5 q10.5 26.5 33 46 q22.5 19.5 56.5 31 q34 11.5 81 11.5 l163 0 l0 65 q0 66 -35.5 100 q-35.5 34 -106.5 34 q-44 0 -82.5 -14.5 q-38.5 -14.5 -75.5 -39.5 l-21 33 q35 25 81 42.5 q46 17.5 101 17.5 q84 0 133 -44 q49 -44 49 -127 l0 -373 l-43 0 l0 75 l-1 0 q-8 -14 -22 -29.5 q-14 -15.5 -34 -26.5 q-22 -12 -49 -19.5 q-27 -7.5 -64 -7.5 ZM398 243 l-162 0 q-38 0 -64.5 -8.5 q-26.5 -8.5 -42.5 -23 q-16 -14.5 -23 -34 q-7 -19.5 -7 -41.5 l0 -16 q0 -33 12 -55 q12 -22 30.5 -35.5 q18.5 -13.5 42 -19.5 q23.5 -6 47.5 -6 q26 0 50 4.5 q24 4.5 47 16.5 q32 16 51 44 q19 28 19 60 l0 114 Z" /><glyph glyph-name="" unicode="&#x431;" d="M277 482 q49 0 89.5 -16.5 q40.5 -16.5 68.5 -48 q28 -31.5 43.5 -78 q15.5 -46.5 15.5 -107.5 l0 -16 q0 -122 -56 -186 q-56 -64 -162 -64 q-106 0 -162 64 q-56 64 -56 186 l0 31 q0 131 17 216.5 q17 85.5 60 139.5 q43 54 117 83.5 q74 29.5 188 48.5 l4 -39 q-80 -13 -139.5 -31.5 q-59.5 -18.5 -101 -52 q-41.5 -33.5 -65.5 -86.5 q-24 -53 -32 -135 q15 26 35 43.5 q20 17.5 42.5 28 q22.5 10.5 46.5 15 q24 4.5 47 4.5 ZM276 3 q83 0 129 51 q46 51 46 162 l0 16 q0 111 -46 162 q-46 51 -129 51 q-83 0 -129 -51 q-46 -51 -46 -162 l0 -16 q0 -111 46 -162 q46 -51 129 -51 Z" /><glyph glyph-name="" unicode="&#x432;" d="M82 513 l200 0 q90 0 131.5 -30 q41.5 -30 41.5 -97 l0 -19 q0 -36 -20.5 -66.5 q-20.5 -30.5 -69.5 -42.5 q51 -8 83 -37.5 q32 -29.5 32 -86.5 l0 -15 q0 -72 -47.5 -108.5 q-47.5 -36.5 -127.5 -36.5 l-223 0 l0 539 ZM124 13 l176 0 q74 0 105.5 28.5 q31.5 28.5 31.5 74.5 l0 14 q0 55 -36 81.5 q-36 26.5 -118 26.5 l-159 0 l0 -225 ZM124 475 l0 -200 l154 0 q28 0 53 4.5 q25 4.5 43 15 q18 10.5 28.5 28.5 q10.5 18 10.5 45 l0 17 q0 30 -11.5 48 q-11.5 18 -31 27.5 q-19.5 9.5 -45.5 12 q-26 2.5 -56 2.5 l-145 0 Z" /><glyph glyph-name="" unicode="&#x433;" d="M387 513 l0 -39 l-262 0 l0 -500 l-43 0 l0 539 l305 0 Z" /><glyph glyph-name="" unicode="&#x434;" d="M472 513 l0 -501 l49 0 l0 -175 l-43 0 l0 137 l-415 0 l0 -137 l-43 0 l0 175 l43 0 q33 54 50 100 q17 46 25 88.5 q8 42.5 9 85 q1 42.5 1 90.5 l0 137 l324 0 ZM190 376 q0 -54 -2 -98 q-2 -44 -9.5 -85.5 q-7.5 -41.5 -23 -85 q-15.5 -43.5 -42.5 -95.5 l317 0 l0 463 l-240 0 l0 -99 Z" /><glyph glyph-name="" unicode="&#x435;" d="M274 480 q-80 0 -126 -54 q-46 -54 -46 -149 l0 -10 l342 0 q0 106 -43 159.5 q-43 53.5 -127 53.5 ZM281 4 q57 0 101 15 q44 15 71 38 l21 -32 q-28 -23 -77.5 -41 q-49.5 -18 -114.5 -18 q-57 0 -99 18 q-42 18 -69 50.5 q-27 32.5 -40.5 76.5 q-13.5 44 -13.5 95 l0 76 q0 52 15 95.5 q15 43.5 42.5 75 q27.5 31.5 67 48.5 q39.5 17 89.5 17 q53 0 92.5 -18 q39.5 -18 66 -50 q26.5 -32 40 -77.5 q13.5 -45.5 13.5 -100.5 l0 -40 l-384 0 l0 -19 q0 -103 47.5 -156 q47.5 -53 131.5 -53 Z" /><glyph glyph-name="" unicode="&#x436;" d="M349 238 l-38 0 q-36 0 -61.5 -14.5 q-25.5 -14.5 -51.5 -52.5 l-130 -197 l-48 0 l145 218 q19 28 36 43 q17 15 42 23 q-23 10 -44 31.5 q-21 21.5 -33 50.5 l-26 62 q-19 46 -35 63 q-16 17 -39 17 q-15 0 -25 -3 l-7 35 q8 2 17 3 q9 1 17 1 q32 0 55 -15.5 q23 -15.5 43 -62.5 l32 -74 q8 -19 17.5 -35.5 q9.5 -16.5 22.5 -28.5 q13 -12 30 -19 q17 -7 40 -7 l41 0 l0 237 l39 0 l0 -237 l41 0 q23 0 40 7 q17 7 30 19 q13 12 22.5 28.5 q9.5 16.5 17.5 35.5 l32 74 q20 47 43 62.5 q23 15.5 55 15.5 q8 0 17 -1 q9 -1 17 -3 l-7 -35 q-11 3 -25 3 q-23 0 -39 -17 q-16 -17 -35 -63 l-26 -62 q-12 -29 -33 -50.5 q-21 -21.5 -44 -31.5 q25 -8 42 -23 q17 -15 36 -43 l145 -218 l-48 0 l-130 197 q-26 38 -51.5 52.5 q-25.5 14.5 -61.5 14.5 l-38 0 l0 -264 l-39 0 l0 264 Z" /><glyph glyph-name="" unicode="&#x437;" d="M37 439 q26 36 70.5 60 q44.5 24 105.5 24 q79 0 125.5 -33 q46.5 -33 46.5 -97 l0 -11 q0 -52 -30.5 -82.5 q-30.5 -30.5 -84.5 -41.5 q28 -2 53 -9.5 q25 -7.5 44 -23 q19 -15.5 30 -39 q11 -23.5 11 -56.5 l0 -11 q0 -32 -12.5 -60 q-12.5 -28 -37.5 -48.5 q-25 -20.5 -62 -32.5 q-37 -12 -86 -12 q-53 0 -101.5 14.5 q-48.5 14.5 -86.5 44.5 l21 36 q39 -30 81.5 -43 q42.5 -13 85.5 -13 q43 0 73 11 q30 11 48 27.5 q18 16.5 26 35.5 q8 19 8 36 l0 11 q0 34 -13.5 55.5 q-13.5 21.5 -35.5 33.5 q-22 12 -50.5 16.5 q-28.5 4.5 -58.5 4.5 l-54 0 l0 41 l56 0 q25 0 49 6.5 q24 6.5 43 20 q19 13.5 30 33.5 q11 20 11 48 l0 10 q0 47 -36 68.5 q-36 21.5 -93 21.5 q-39 0 -77 -18 q-38 -18 -70 -56 l-29 28 Z" /><glyph glyph-name="" unicode="&#x438;" d="M132 -26 l-50 0 l0 539 l42 0 l0 -485 q3 6 8 14.5 q5 8.5 10 17.5 q5 9 9.5 16.5 q4.5 7.5 7.5 11.5 l282 425 l50 0 l0 -539 l-42 0 l0 485 q-6 -11 -16.5 -30 q-10.5 -19 -18.5 -30 l-282 -425 Z" /><glyph glyph-name="" unicode="&#x439;" d="M295 568 q-53 0 -86.5 31.5 q-33.5 31.5 -35.5 85.5 l36 0 q8 -78 86 -78 q78 0 87 78 l36 0 q-2 -54 -36.5 -85.5 q-34.5 -31.5 -86.5 -31.5 ZM132 -26 l-50 0 l0 539 l42 0 l0 -485 q3 6 8 14.5 q5 8.5 10 17.5 q5 9 9.5 16.5 q4.5 7.5 7.5 11.5 l282 425 l50 0 l0 -539 l-42 0 l0 485 q-6 -11 -16.5 -30 q-10.5 -19 -18.5 -30 l-282 -425 Z" /><glyph glyph-name="" unicode="&#x43a;" d="M82 513 l39 0 l0 -237 l61 0 q23 0 40 7 q17 7 30 19 q13 12 22.5 28.5 q9.5 16.5 17.5 35.5 l32 74 q20 47 43 62.5 q23 15.5 55 15.5 q8 0 17 -1 q9 -1 17 -3 l-7 -35 q-11 3 -25 3 q-23 0 -39 -17 q-16 -17 -35 -63 l-26 -62 q-12 -29 -33 -50.5 q-21 -21.5 -44 -31.5 q25 -8 42 -23 q17 -15 36 -43 l145 -218 l-48 0 l-130 197 q-26 38 -51.5 52.5 q-25.5 14.5 -61.5 14.5 l-58 0 l0 -264 l-39 0 l0 539 Z" /><glyph glyph-name="" unicode="&#x43b;" d="M482 513 l0 -539 l-43 0 l0 500 l-259 0 l0 -202 q0 -59 -4 -108.5 q-4 -49.5 -20 -88.5 q-16 -39 -49 -66.5 q-33 -27.5 -91 -40.5 l-9 41 q45 12 70.5 32 q25.5 20 39 52.5 q13.5 32.5 17 78.5 q3.5 46 3.5 109 l0 232 l345 0 Z" /><glyph glyph-name="" unicode="&#x43c;" d="M150 401 q-7 14 -15.5 34.5 q-8.5 20.5 -13.5 34.5 l0 -496 l-39 0 l0 539 l56 0 l196 -417 l194 417 l57 0 l0 -539 l-38 0 l0 503 q-5 -17 -11 -31 q-6 -14 -14 -31 l-172 -362 l-33 0 l-167 348 Z" /><glyph glyph-name="" unicode="&#x43d;" d="M125 513 l0 -241 l326 0 l0 241 l43 0 l0 -539 l-43 0 l0 259 l-326 0 l0 -259 l-43 0 l0 539 l43 0 Z" /><glyph glyph-name="" unicode="&#x43e;" d="M279 518 q104 0 161.5 -63 q57.5 -63 57.5 -178 l0 -70 q0 -115 -57.5 -178 q-57.5 -63 -161.5 -63 q-104 0 -161.5 63 q-57.5 63 -57.5 178 l0 70 q0 115 57.5 178 q57.5 63 161.5 63 ZM279 3 q81 0 128.5 50 q47.5 50 47.5 154 l0 70 q0 104 -47.5 154 q-47.5 50 -128.5 50 q-81 0 -128.5 -50 q-47.5 -50 -47.5 -154 l0 -70 q0 -104 47.5 -154 q47.5 -50 128.5 -50 Z" /><glyph glyph-name="" unicode="&#x43f;" d="M478 513 l0 -539 l-43 0 l0 500 l-310 0 l0 -500 l-43 0 l0 539 l396 0 Z" /><glyph glyph-name="" unicode="&#x440;" d="M128 420 q20 41 65.5 69.5 q45.5 28.5 107.5 28.5 q96 0 150.5 -58 q54.5 -58 54.5 -169 l0 -98 q0 -56 -15.5 -98 q-15.5 -42 -43.5 -71 q-28 -29 -67 -43.5 q-39 -14.5 -86 -14.5 q-48 0 -94.5 19.5 q-46.5 19.5 -70.5 56.5 l0 -282 l-43 0 l0 747 l42 0 l0 -87 ZM127 134 q0 -26 12.5 -49.5 q12.5 -23.5 34.5 -41 q22 -17.5 53 -28 q31 -10.5 69 -10.5 q75 0 121 50 q46 50 46 144 l0 86 q0 95 -41 144.5 q-41 49.5 -125 49.5 q-29 0 -59.5 -11 q-30.5 -11 -55 -32 q-24.5 -21 -40 -51.5 q-15.5 -30.5 -15.5 -69.5 l0 -181 Z" /><glyph glyph-name="" unicode="&#x441;" d="M273 518 q47 0 91.5 -12 q44.5 -12 78.5 -38 l-19 -33 q-37 25 -74 34.5 q-37 9.5 -77 9.5 q-85 0 -127.5 -54.5 q-42.5 -54.5 -42.5 -141.5 l0 -76 q0 -45 10.5 -82 q10.5 -37 32 -64 q21.5 -27 54.5 -41.5 q33 -14.5 77 -14.5 q57 0 97 15 q40 15 67 38 l21 -33 q-28 -23 -74.5 -41 q-46.5 -18 -111.5 -18 q-49 0 -88.5 15 q-39.5 15 -68 45 q-28.5 30 -44 75.5 q-15.5 45.5 -15.5 106.5 l0 72 q0 54 14.5 98 q14.5 44 41.5 75 q27 31 66.5 48 q39.5 17 90.5 17 Z" /><glyph glyph-name="" unicode="&#x442;" d="M395 513 l0 -39 l-170 0 l0 -500 l-43 0 l0 500 l-170 0 l0 39 l383 0 Z" /><glyph glyph-name="" unicode="&#x443;" d="M417 507 l46 0 l-278 -753 l-40 14 l75 199 l-201 540 l45 0 l180 -486 l173 486 Z" /><glyph glyph-name="" unicode="&#x444;" d="M346 695 l0 -171 q119 -5 184.5 -70 q65.5 -65 65.5 -177 l0 -65 q0 -112 -65.5 -177 q-65.5 -65 -184.5 -70 l0 -192 l-38 0 l0 192 q-119 5 -184.5 70 q-65.5 65 -65.5 177 l0 65 q0 113 65.5 177.5 q65.5 64.5 184.5 69.5 l0 171 l38 0 ZM553 273 q0 94 -50.5 150 q-50.5 56 -156.5 62 l0 -481 q105 5 156 62 q51 57 51 150 l0 57 ZM101 216 q0 -94 52 -149.5 q52 -55.5 155 -62.5 l0 481 q-107 -6 -157 -62 q-50 -56 -50 -150 l0 -57 Z" /><glyph glyph-name="" unicode="&#x445;" d="M272 249 l194 -275 l-54 0 l-168 246 l-172 -246 l-53 0 l196 271 l-181 262 l51 0 l159 -233 l158 233 l51 0 l-181 -258 Z" /><glyph glyph-name="" unicode="&#x446;" d="M82 513 l43 0 l0 -499 l291 0 l0 499 l43 0 l0 -499 l51 0 l0 -177 l-43 0 l0 137 l-385 0 l0 539 Z" /><glyph glyph-name="" unicode="&#x447;" d="M79 513 l0 -183 q0 -57 38 -88.5 q38 -31.5 106 -31.5 q54 0 93.5 11.5 q39.5 11.5 63.5 30.5 l0 261 l39 0 l0 -547 l-39 0 l0 249 q-26 -17 -67.5 -29 q-41.5 -12 -90.5 -12 q-37 0 -70 8.5 q-33 8.5 -58 27.5 q-25 19 -39.5 49.5 q-14.5 30.5 -14.5 73.5 l0 180 l39 0 Z" /><glyph glyph-name="" unicode="&#x448;" d="M82 -26 l0 539 l43 0 l0 -499 l240 0 l0 499 l43 0 l0 -499 l240 0 l0 499 l43 0 l0 -539 l-609 0 Z" /><glyph glyph-name="" unicode="&#x449;" d="M82 513 l43 0 l0 -499 l240 0 l0 499 l43 0 l0 -499 l240 0 l0 499 l43 0 l0 -499 l59 0 l0 -177 l-43 0 l0 137 l-625 0 l0 539 Z" /><glyph glyph-name="" unicode="&#x44a;" d="M162 294 l171 0 q80 0 123.5 -32 q43.5 -32 43.5 -116 l0 -27 q0 -74 -41 -109.5 q-41 -35.5 -131 -35.5 l-209 0 l0 500 l-103 0 l0 39 l146 0 l0 -219 ZM162 12 l178 0 q34 0 56.5 8 q22.5 8 36 22 q13.5 14 19 34 q5.5 20 5.5 44 l0 24 q0 52 -24 82 q-24 30 -89 30 l-182 0 l0 -244 Z" /><glyph glyph-name="" unicode="&#x44b;" d="M575 513 l0 -539 l-43 0 l0 539 l43 0 ZM125 12 l178 0 q34 0 56.5 8 q22.5 8 36 22 q13.5 14 19 34 q5.5 20 5.5 44 l0 24 q0 52 -24 82 q-24 30 -89 30 l-182 0 l0 -244 ZM125 513 l0 -219 l171 0 q80 0 123.5 -32 q43.5 -32 43.5 -116 l0 -27 q0 -74 -41 -109.5 q-41 -35.5 -131 -35.5 l-209 0 l0 539 l43 0 Z" /><glyph glyph-name="" unicode="&#x44c;" d="M125 12 l178 0 q34 0 56.5 8 q22.5 8 36 22 q13.5 14 19 34 q5.5 20 5.5 44 l0 24 q0 52 -24 82 q-24 30 -89 30 l-182 0 l0 -244 ZM125 513 l0 -219 l171 0 q80 0 123.5 -32 q43.5 -32 43.5 -116 l0 -27 q0 -74 -41 -109.5 q-41 -35.5 -131 -35.5 l-209 0 l0 539 l43 0 Z" /><glyph glyph-name="" unicode="&#x44d;" d="M209 518 q51 0 90.5 -17 q39.5 -17 66.5 -48 q27 -31 41.5 -75 q14.5 -44 14.5 -98 l0 -72 q0 -61 -15.5 -106.5 q-15.5 -45.5 -44 -75.5 q-28.5 -30 -68 -45 q-39.5 -15 -88.5 -15 q-65 0 -111.5 18 q-46.5 18 -74.5 41 l21 33 q27 -23 67 -38 q40 -15 97 -15 q88 0 131 56 q43 56 43 146 l0 22 l-249 0 l0 38 l249 0 l0 16 q0 87 -42.5 141.5 q-42.5 54.5 -127.5 54.5 q-40 0 -77 -9.5 q-37 -9.5 -74 -34.5 l-19 33 q34 26 78.5 38 q44.5 12 91.5 12 Z" /><glyph glyph-name="" unicode="&#x44e;" d="M455 518 q104 0 158 -63 q54 -63 54 -178 l0 -70 q0 -115 -54 -178 q-54 -63 -158 -63 q-104 0 -158 63 q-54 63 -54 178 l0 21 l-118 0 l0 -254 l-43 0 l0 539 l43 0 l0 -247 l118 0 l0 11 q0 115 54 178 q54 63 158 63 ZM455 3 q81 0 125 50 q44 50 44 154 l0 70 q0 104 -44 154 q-44 50 -125 50 q-81 0 -125 -50 q-44 -50 -44 -154 l0 -70 q0 -104 44 -154 q44 -50 125 -50 Z" /><glyph glyph-name="" unicode="&#x44f;" d="M439 -26 l-43 0 l0 238 l-146 0 q-12 0 -23.5 -3 q-11.5 -3 -22 -11 q-10.5 -8 -21.5 -22.5 q-11 -14.5 -22 -38.5 l-79 -163 l-50 0 l87 175 q29 60 61 72 q-55 11 -88.5 44.5 q-33.5 33.5 -33.5 96.5 l0 13 q0 39 15.5 65 q15.5 26 40.5 42.5 q25 16.5 57 23.5 q32 7 64 7 l204 0 l0 -539 ZM243 475 q-61 0 -101 -23 q-40 -23 -40 -79 l0 -9 q0 -27 6.5 -48.5 q6.5 -21.5 23.5 -36 q17 -14.5 46 -22 q29 -7.5 73 -7.5 l145 0 l0 225 l-153 0 Z" /><glyph glyph-name="" unicode="&#x451;" d="M176 654 l44 0 l0 -52 l-44 0 l0 52 ZM313 654 l44 0 l0 -52 l-44 0 l0 52 ZM274 480 q-80 0 -126 -54 q-46 -54 -46 -149 l0 -10 l342 0 q0 106 -43 159.5 q-43 53.5 -127 53.5 ZM281 4 q57 0 101 15 q44 15 71 38 l21 -32 q-28 -23 -77.5 -41 q-49.5 -18 -114.5 -18 q-57 0 -99 18 q-42 18 -69 50.5 q-27 32.5 -40.5 76.5 q-13.5 44 -13.5 95 l0 76 q0 52 15 95.5 q15 43.5 42.5 75 q27.5 31.5 67 48.5 q39.5 17 89.5 17 q53 0 92.5 -18 q39.5 -18 66 -50 q26.5 -32 40 -77.5 q13.5 -45.5 13.5 -100.5 l0 -40 l-384 0 l0 -19 q0 -103 47.5 -156 q47.5 -53 131.5 -53 Z" /><glyph glyph-name="" unicode="&#x2010;" d="M38 315 l341 0 l0 -49 l-341 0 l0 49 Z" /><glyph glyph-name="" unicode="&#x2014;&#x2015;" d="M798 287 l-798 0 l0 46 l798 0 l0 -46 Z" /><glyph glyph-name="" unicode="&#x2016;" d="M395 -180 l-56 0 l0 960 l56 0 l0 -960 ZM571 -180 l-57 0 l0 960 l57 0 l0 -960 Z" /><glyph glyph-name="" unicode="&#x2018;" d="M119 549 l-56 0 l65 220 l34 0 l-43 -220 Z" /><glyph glyph-name="" unicode="&#x2019;" d="M81 756 l56 0 l-65 -220 l-34 0 l43 220 Z" /><glyph glyph-name="" unicode="&#x201b;" d="" /><glyph glyph-name="" unicode="&#x201c;" d="M263 549 l-59 0 l65 220 l36 0 l-42 -220 ZM127 549 l-59 0 l65 220 l36 0 l-42 -220 Z" /><glyph glyph-name="" unicode="&#x201d;" d="M87 756 l59 0 l-65 -220 l-36 0 l42 220 ZM223 756 l59 0 l-65 -220 l-36 0 l42 220 Z" /><glyph glyph-name="" unicode="&#x201f;" d="" /><glyph glyph-name="" unicode="&#x2020;" d="M225 449 l-159 0 l0 37 l159 0 l0 206 l43 0 l0 -206 l161 0 l0 -37 l-161 0 l0 -540 l-43 0 l0 540 Z" /><glyph glyph-name="" unicode="&#x2021;" d="M66 152 l159 0 l0 297 l-159 0 l0 37 l159 0 l0 206 l43 0 l0 -206 l161 0 l0 -37 l-161 0 l0 -297 l161 0 l0 -37 l-161 0 l0 -206 l-43 0 l0 206 l-159 0 l0 37 Z" /><glyph glyph-name="" unicode="&#x2022;" d="" /><glyph glyph-name="" unicode="&#x2025;" d="M267 349 l84 0 l0 -90 l-84 0 l0 90 ZM558 349 l84 0 l0 -90 l-84 0 l0 90 Z" /><glyph glyph-name="" unicode="&#x2026;&#x22ef;" d="M147 349 l84 0 l0 -90 l-84 0 l0 90 ZM679 349 l84 0 l0 -90 l-84 0 l0 90 ZM413 349 l84 0 l0 -90 l-84 0 l0 90 Z" /><glyph glyph-name="" unicode="&#x2030;" d="M182 -25 l437 720 l43 0 l-436 -720 l-44 0 ZM220 700 q71 0 110.5 -42 q39.5 -42 39.5 -121 l0 -48 q0 -79 -39.5 -121 q-39.5 -42 -110.5 -42 q-71 0 -110.5 42 q-39.5 42 -39.5 121 l0 48 q0 79 39.5 121 q39.5 42 110.5 42 ZM220 363 q22 0 42 6 q20 6 35 21 q15 15 24 39.5 q9 24.5 9 61.5 l0 44 q0 37 -9 61.5 q-9 24.5 -24 39.5 q-15 15 -35 21 q-20 6 -42 6 q-22 0 -42 -6 q-20 -6 -35 -21 q-15 -15 -24 -39.5 q-9 -24.5 -9 -61.5 l0 -44 q0 -37 9 -61.5 q9 -24.5 24 -39.5 q15 -15 35 -21 q20 -6 42 -6 ZM622 340 q71 0 110.5 -42 q39.5 -42 39.5 -121 l0 -48 q0 -79 -39.5 -121 q-39.5 -42 -110.5 -42 q-71 0 -110.5 42 q-39.5 42 -39.5 121 l0 48 q0 79 39.5 121 q39.5 42 110.5 42 ZM622 3 q22 0 42 6 q20 6 35 21 q15 15 24 39.5 q9 24.5 9 61.5 l0 44 q0 37 -9 61.5 q-9 24.5 -24 39.5 q-15 15 -35 21 q-20 6 -42 6 q-22 0 -42 -6 q-20 -6 -35 -21 q-15 -15 -24 -39.5 q-9 -24.5 -9 -61.5 l0 -44 q0 -37 9 -61.5 q9 -24.5 24 -39.5 q15 -15 35 -21 q20 -6 42 -6 ZM975 340 q71 0 110.5 -42 q39.5 -42 39.5 -121 l0 -48 q0 -79 -39.5 -121 q-39.5 -42 -110.5 -42 q-71 0 -110.5 42 q-39.5 42 -39.5 121 l0 48 q0 79 39.5 121 q39.5 42 110.5 42 ZM975 3 q22 0 42 6 q20 6 35 21 q15 15 24 39.5 q9 24.5 9 61.5 l0 44 q0 37 -9 61.5 q-9 24.5 -24 39.5 q-15 15 -35 21 q-20 6 -42 6 q-22 0 -42 -6 q-20 -6 -35 -21 q-15 -15 -24 -39.5 q-9 -24.5 -9 -61.5 l0 -44 q0 -37 9 -61.5 q9 -24.5 24 -39.5 q15 -15 35 -21 q20 -6 42 -6 Z" /><glyph glyph-name="" unicode="&#x2032;" d="M262 727 l64 0 l-131 -236 l-35 0 l102 236 Z" /><glyph glyph-name="" unicode="&#x2033;" d="M376 727 l59 0 l-131 -236 l-30 0 l102 236 ZM252 727 l59 0 l-131 -236 l-30 0 l102 236 Z" /><glyph glyph-name="" unicode="&#x2034;" d="" /><glyph glyph-name="" unicode="&#x2035;" d="" /><glyph glyph-name="" unicode="&#x2036;" d="" /><glyph glyph-name="" unicode="&#x2039;" d="" /><glyph glyph-name="" unicode="&#x203a;" d="" /><glyph glyph-name="" unicode="&#x203b;" d="M485 322 l320 -323 q-8 -9 -17 -17 q-9 -8 -17 -17 l-316 325 q-79 -81 -158.5 -162 q-79.5 -81 -158.5 -163 l-30 31 l318 325 l-316 321 l31 33 q78 -81 157 -161.5 q79 -80.5 157 -161.5 l320 323 l29 -30 l-319 -323 ZM93 322 q0 26 17 43.5 q17 17.5 43 17.5 q26 0 43 -17.5 q17 -17.5 17 -43.5 q0 -26 -17 -43.5 q-17 -17.5 -43 -17.5 q-26 0 -43 17.5 q-17 17.5 -17 43.5 ZM396 26 q0 26 17 43.5 q17 17.5 43 17.5 q26 0 43 -17.5 q17 -17.5 17 -43.5 q0 -26 -17 -43.5 q-17 -17.5 -43 -17.5 q-26 0 -43 17.5 q-17 17.5 -17 43.5 ZM396 616 q0 26 17 43.5 q17 17.5 43 17.5 q26 0 43 -17.5 q17 -17.5 17 -43.5 q0 -26 -17 -43.5 q-17 -17.5 -43 -17.5 q-26 0 -43 17.5 q-17 17.5 -17 43.5 ZM699 322 q0 26 17 43.5 q17 17.5 43 17.5 q26 0 43 -17.5 q17 -17.5 17 -43.5 q0 -26 -17 -43.5 q-17 -17.5 -43 -17.5 q-26 0 -43 17.5 q-17 17.5 -17 43.5 Z" /><glyph glyph-name="" unicode="&#x203c;" d="" /><glyph glyph-name="" unicode="&#xffe3;&#x203e;" d="M905 723 l-900 0 l0 39 l900 0 l0 -39 Z" /><glyph glyph-name="" unicode="&#x2042;" d="" /><glyph glyph-name="" unicode="&#x2074;" d="M292 553 l0 -124 l71 0 l0 -38 l-71 0 l0 -107 l-39 0 l0 107 l-221 0 l0 36 l216 315 l49 0 l-219 -313 l175 0 l0 124 l39 0 Z" /><glyph glyph-name="" unicode="&#x207a;" d="" /><glyph glyph-name="" unicode="&#x207b;" d="" /><glyph glyph-name="" unicode="&#x207c;" d="" /><glyph glyph-name="" unicode="&#x207d;" d="" /><glyph glyph-name="" unicode="&#x207e;" d="" /><glyph glyph-name="" unicode="&#x207f;" d="M243 727 q41 0 70.5 -11.5 q29.5 -11.5 49 -31 q19.5 -19.5 28.5 -47 q9 -27.5 9 -58.5 l0 -295 l-44 0 l0 284 q0 21 -4.5 42 q-4.5 21 -17.5 38 q-13 17 -36 27.5 q-23 10.5 -60 10.5 q-32 0 -56 -12 q-24 -12 -41 -29.5 q-17 -17.5 -25.5 -37 q-8.5 -19.5 -8.5 -34.5 l0 -289 l-42 0 l0 434 l43 0 l0 -63 q7 11 18.5 24 q11.5 13 28 23.5 q16.5 10.5 38.5 17.5 q22 7 50 7 Z" /><glyph glyph-name="" unicode="&#x2081;" d="M220 -112 l0 407 l-119 -71 l-19 34 l144 88 l35 0 l0 -458 l-41 0 Z" /><glyph glyph-name="" unicode="&#x2082;" d="M236 134 q18 21 29 37 q11 16 16.5 28 q5.5 12 7 21 q1.5 9 1.5 17 l0 7 q0 34 -23 53.5 q-23 19.5 -68 19.5 q-13 0 -27.5 -2.5 q-14.5 -2.5 -29 -10.5 q-14.5 -8 -29 -22.5 q-14.5 -14.5 -26.5 -37.5 l-32 21 q7 15 19 30.5 q12 15.5 29.5 28.5 q17.5 13 40.5 21.5 q23 8.5 52 8.5 q69 0 101.5 -30.5 q32.5 -30.5 32.5 -78.5 l0 -8 q0 -35 -18 -64 q-18 -29 -44 -58 l-164 -188 l241 0 l0 -39 l-292 0 l0 36 l183 210 Z" /><glyph glyph-name="" unicode="&#x2083;" d="M64 289 q8 11 19.5 22.5 q11.5 11.5 27.5 21 q16 9.5 37 15.5 q21 6 48 6 q26 0 49.5 -7 q23.5 -7 41.5 -21 q18 -14 28.5 -34.5 q10.5 -20.5 10.5 -47.5 l0 -10 q0 -11 -3 -26 q-3 -15 -11.5 -30 q-8.5 -15 -23.5 -28.5 q-15 -13.5 -39 -21.5 q55 -11 76.5 -40.5 q21.5 -29.5 21.5 -69.5 l0 -10 q0 -21 -7.5 -44 q-7.5 -23 -25.5 -42 q-18 -19 -48 -31 q-30 -12 -74 -12 q-35 0 -73.5 13 q-38.5 13 -67.5 37 l21 32 q60 -45 120 -45 q57 0 84.5 27 q27.5 27 27.5 65 l0 9 q0 42 -26.5 66 q-26.5 24 -78.5 24 l-54 0 l0 39 l51 0 q24 0 40.5 8.5 q16.5 8.5 27.5 21 q11 12.5 16 28.5 q5 16 5 31 l0 9 q0 35 -25.5 54 q-25.5 19 -62.5 19 q-35 0 -59 -13 q-24 -13 -43 -37 l-31 22 Z" /><glyph glyph-name="" unicode="&#x2084;" d="M292 157 l0 -124 l71 0 l0 -38 l-71 0 l0 -107 l-39 0 l0 107 l-221 0 l0 36 l216 315 l49 0 l-219 -313 l175 0 l0 124 l39 0 Z" /><glyph glyph-name="" unicode="&#x20a9;" d="M45 391 l109 0 l-76 304 l44 0 l73 -304 l178 0 l77 304 l48 0 l77 -304 l180 0 l74 304 l41 0 l-76 -304 l112 0 l0 -38 l-122 0 l-94 -379 l-49 0 l-96 379 l-144 0 l-94 -379 l-49 0 l-95 379 l-118 0 l0 38 ZM667 31 l78 322 l-160 0 l82 -322 ZM282 30 l81 323 l-159 0 l78 -323 ZM411 391 l125 0 l-63 250 l-62 -250 Z" /><glyph glyph-name="" unicode="&#x2103;" d="M145 565 q27 0 41.5 16 q14.5 16 14.5 42 q0 25 -14.5 41 q-14.5 16 -41.5 16 q-27 0 -41.5 -16 q-14.5 -16 -14.5 -41 q0 -26 14.5 -42 q14.5 -16 41.5 -16 ZM145 535 q-42 0 -65.5 25 q-23.5 25 -23.5 62 q0 37 23.5 62 q23.5 25 65.5 25 q42 0 65.5 -25 q23.5 -25 23.5 -62 q0 -37 -23.5 -62 q-23.5 -25 -65.5 -25 ZM742 45 q-11 -10 -30 -24 q-19 -14 -46.5 -27 q-27.5 -13 -63.5 -22 q-36 -9 -81 -9 q-75 0 -127.5 24.5 q-52.5 24.5 -85.5 69.5 q-33 45 -48.5 108.5 q-15.5 63.5 -15.5 140.5 l0 77 q0 74 16.5 134 q16.5 60 50 102 q33.5 42 83 64.5 q49.5 22.5 115.5 22.5 q68 0 121.5 -19 q53.5 -19 93.5 -48 l-24 -35 q-44 30 -86.5 44.5 q-42.5 14.5 -104.5 14.5 q-53 0 -94 -19 q-41 -19 -69 -53.5 q-28 -34.5 -42.5 -84.5 q-14.5 -50 -14.5 -111 l0 -100 q0 -143 59 -216 q59 -73 175 -73 q34 0 64 7 q30 7 54.5 18 q24.5 11 43 24 q18.5 13 31.5 24 l26 -34 Z" /><glyph glyph-name="" unicode="&#x2109;" d="M155 565 q27 0 41.5 16 q14.5 16 14.5 42 q0 25 -14.5 41 q-14.5 16 -41.5 16 q-27 0 -41.5 -16 q-14.5 -16 -14.5 -41 q0 -26 14.5 -42 q14.5 -16 41.5 -16 ZM738 695 l0 -41 l-368 0 l0 -309 l347 0 l0 -40 l-347 0 l0 -331 l-44 0 l0 721 l412 0 ZM155 535 q-42 0 -65.5 25 q-23.5 25 -23.5 62 q0 37 23.5 62 q23.5 25 65.5 25 q42 0 65.5 -25 q23.5 -25 23.5 -62 q0 -37 -23.5 -62 q-23.5 -25 -65.5 -25 Z" /><glyph glyph-name="" unicode="&#x2113;" d="M581 8 q-16 -23 -44.5 -32.5 q-28.5 -9.5 -59.5 -9.5 q-14 0 -32.5 5 q-18.5 5 -35 16.5 q-16.5 11.5 -28 31 q-11.5 19.5 -11.5 48.5 l0 449 q0 38 4.5 72.5 q4.5 34.5 17 60.5 q12.5 26 33.5 41.5 q21 15.5 54 15.5 q34 0 55.5 -15.5 q21.5 -15.5 33.5 -42 q12 -26.5 16.5 -61 q4.5 -34.5 4.5 -71.5 l0 -85 q0 -68 -11.5 -119.5 q-11.5 -51.5 -34 -89.5 q-22.5 -38 -55.5 -64.5 q-33 -26.5 -77 -43.5 l0 -24 q0 -41 19 -60 q19 -19 51 -19 q21 0 41 5.5 q20 5.5 37 24.5 l22 -33 ZM411 161 q28 6 53 26 q25 20 43.5 53 q18.5 33 29 80.5 q10.5 47.5 10.5 109.5 l0 79 q0 30 -2 58 q-2 28 -9 49 q-7 21 -20.5 33.5 q-13.5 12.5 -36.5 12.5 q-23 0 -36.5 -12.5 q-13.5 -12.5 -20.5 -33.5 q-7 -21 -9 -49 q-2 -28 -2 -58 l0 -348 Z" /><glyph glyph-name="" unicode="&#x2116;" d="M682 510 q83 0 120 -50.5 q37 -50.5 37 -136.5 l0 -38 q0 -86 -37 -136 q-37 -50 -120 -50 q-84 0 -121 50 q-37 50 -37 136 l0 38 q0 88 37 137.5 q37 49.5 121 49.5 ZM146 695 l248 -615 q2 -7 5 -16 q3 -9 5 -19 l0 650 l44 0 l0 -721 l-56 0 l-248 615 q-2 5 -5 15 q-3 10 -5 20 l0 -650 l-44 0 l0 721 l56 0 ZM682 140 q60 0 86.5 37.5 q26.5 37.5 26.5 112.5 l0 29 q0 75 -26.5 111.5 q-26.5 36.5 -86.5 36.5 q-61 0 -87.5 -36.5 q-26.5 -36.5 -26.5 -111.5 l0 -29 q0 -75 26.5 -112.5 q26.5 -37.5 87.5 -37.5 ZM540 25 l285 0 l0 -51 l-285 0 l0 51 Z" /><glyph glyph-name="" unicode="&#x2121;" d="M678 513 l0 -40 l-229 0 l0 -200 l208 0 l0 -40 l-208 0 l0 -219 l236 0 l0 -40 l-280 0 l0 539 l273 0 ZM207 -26 l0 681 l-195 0 l0 40 l437 0 l0 -40 l-199 0 l0 -681 l-43 0 ZM815 513 l0 -499 l221 0 l0 -40 l-265 0 l0 539 l44 0 Z" /><glyph glyph-name="" unicode="&#x2122;" d="M341 695 l56 0 l105 -222 l1 0 l102 222 l57 0 l0 -326 l-37 0 l0 286 l-1 0 l-102 -220 l-39 0 l-105 220 l-1 0 l0 -286 l-36 0 l0 326 ZM143 659 l-113 0 l0 36 l264 0 l0 -36 l-113 0 l0 -290 l-38 0 l0 290 Z" /><glyph glyph-name="" unicode="&#x2126;" d="M455 666 q-118 0 -181.5 -73 q-63.5 -73 -63.5 -205 l0 -94 q0 -99 39.5 -169.5 q39.5 -70.5 118.5 -110.5 l0 -40 l-268 0 l0 37 l213 0 q-75 46 -111 118.5 q-36 72.5 -36 169.5 l0 91 q0 69 19 127 q19 58 56 100 q37 42 91 65.5 q54 23.5 123 23.5 q69 0 123 -23.5 q54 -23.5 91 -65.5 q37 -42 56 -100 q19 -58 19 -127 l0 -91 q0 -97 -36 -169.5 q-36 -72.5 -111 -118.5 l213 0 l0 -37 l-268 0 l0 40 q79 40 118.5 110.5 q39.5 70.5 39.5 169.5 l0 94 q0 132 -63.5 205 q-63.5 73 -181.5 73 Z" /><glyph glyph-name="" unicode="&#x212b;" d="M412 740 q0 -29 -14 -50.5 q-14 -21.5 -40 -30.5 l262 -685 l-49 0 l-86 233 l-326 0 l-88 -233 l-48 0 l264 685 q-26 9 -39.5 30.5 q-13.5 21.5 -13.5 50.5 q0 37 23.5 62 q23.5 25 65.5 25 q42 0 65.5 -25 q23.5 -25 23.5 -62 ZM174 246 l296 0 l-86 233 q-16 44 -32 85.5 q-16 41.5 -29 83.5 q-12 -42 -27.5 -83.5 q-15.5 -41.5 -32.5 -85.5 l-89 -233 ZM323 683 q27 0 41.5 16 q14.5 16 14.5 42 q0 25 -14.5 41 q-14.5 16 -41.5 16 q-27 0 -41.5 -16 q-14.5 -16 -14.5 -41 q0 -26 14.5 -42 q14.5 -16 41.5 -16 Z" /><glyph glyph-name="" unicode="&#x2153;" d="M709 709 l49 0 l-523 -775 l-49 0 l523 775 ZM218 237 l0 407 l-119 -71 l-19 34 l144 88 l35 0 l0 -458 l-41 0 ZM583 319 q8 11 19.5 22.5 q11.5 11.5 27.5 21 q16 9.5 37 15.5 q21 6 48 6 q26 0 49.5 -7 q23.5 -7 41.5 -21 q18 -14 28.5 -34.5 q10.5 -20.5 10.5 -47.5 l0 -10 q0 -11 -3 -26 q-3 -15 -11.5 -30 q-8.5 -15 -23.5 -28.5 q-15 -13.5 -39 -21.5 q55 -11 76.5 -40.5 q21.5 -29.5 21.5 -69.5 l0 -10 q0 -21 -7.5 -44 q-7.5 -23 -25.5 -42 q-18 -19 -48 -31 q-30 -12 -74 -12 q-35 0 -73.5 13 q-38.5 13 -67.5 37 l21 32 q60 -45 120 -45 q57 0 84.5 27 q27.5 27 27.5 65 l0 9 q0 42 -26.5 66 q-26.5 24 -78.5 24 l-54 0 l0 39 l51 0 q24 0 40.5 8.5 q16.5 8.5 27.5 21 q11 12.5 16 28.5 q5 16 5 31 l0 9 q0 35 -25.5 54 q-25.5 19 -62.5 19 q-35 0 -59 -13 q-24 -13 -43 -37 l-31 22 Z" /><glyph glyph-name="" unicode="&#x2154;" d="M751 709 l49 0 l-523 -775 l-49 0 l523 775 ZM254 483 q18 21 29 37 q11 16 16.5 28 q5.5 12 7 21 q1.5 9 1.5 17 l0 7 q0 34 -23 53.5 q-23 19.5 -68 19.5 q-13 0 -27.5 -2.5 q-14.5 -2.5 -29 -10.5 q-14.5 -8 -29 -22.5 q-14.5 -14.5 -26.5 -37.5 l-32 21 q7 15 19 30.5 q12 15.5 29.5 28.5 q17.5 13 40.5 21.5 q23 8.5 52 8.5 q69 0 101.5 -30.5 q32.5 -30.5 32.5 -78.5 l0 -8 q0 -35 -18 -64 q-18 -29 -44 -58 l-164 -188 l241 0 l0 -39 l-292 0 l0 36 l183 210 ZM618 319 q8 11 19.5 22.5 q11.5 11.5 27.5 21 q16 9.5 37 15.5 q21 6 48 6 q26 0 49.5 -7 q23.5 -7 41.5 -21 q18 -14 28.5 -34.5 q10.5 -20.5 10.5 -47.5 l0 -10 q0 -11 -3 -26 q-3 -15 -11.5 -30 q-8.5 -15 -23.5 -28.5 q-15 -13.5 -39 -21.5 q55 -11 76.5 -40.5 q21.5 -29.5 21.5 -69.5 l0 -10 q0 -21 -7.5 -44 q-7.5 -23 -25.5 -42 q-18 -19 -48 -31 q-30 -12 -74 -12 q-35 0 -73.5 13 q-38.5 13 -67.5 37 l21 32 q60 -45 120 -45 q57 0 84.5 27 q27.5 27 27.5 65 l0 9 q0 42 -26.5 66 q-26.5 24 -78.5 24 l-54 0 l0 39 l51 0 q24 0 40.5 8.5 q16.5 8.5 27.5 21 q11 12.5 16 28.5 q5 16 5 31 l0 9 q0 35 -25.5 54 q-25.5 19 -62.5 19 q-35 0 -59 -13 q-24 -13 -43 -37 l-31 22 Z" /><glyph glyph-name="" unicode="&#x215b;" d="M631 259 q0 -38 25 -63 q25 -25 67 -25 q44 0 69.5 25 q25.5 25 25.5 63 l0 6 q0 35 -25.5 58 q-25.5 23 -69.5 23 q-44 0 -68 -23 q-24 -23 -24 -58 l0 -6 ZM617 33 q0 -38 29 -62 q29 -24 77 -24 q50 0 78 24 q28 24 28 62 l0 8 q0 42 -29.5 67 q-29.5 25 -76.5 25 q-45 0 -75.5 -25 q-30.5 -25 -30.5 -67 l0 -8 ZM576 43 q0 39 24.5 68.5 q24.5 29.5 67.5 40.5 q-35 15 -55.5 40 q-20.5 25 -20.5 63 l0 12 q0 25 9.5 46 q9.5 21 27 36.5 q17.5 15.5 41.5 24.5 q24 9 53 9 q60 0 97 -33 q37 -33 37 -83 l0 -12 q0 -40 -23 -64.5 q-23 -24.5 -57 -38.5 q42 -11 67.5 -40.5 q25.5 -29.5 25.5 -68.5 l0 -10 q0 -57 -40.5 -90 q-40.5 -33 -106.5 -33 q-66 0 -106.5 33 q-40.5 33 -40.5 90 l0 10 ZM709 709 l49 0 l-523 -775 l-49 0 l523 775 ZM220 237 l0 407 l-119 -71 l-19 34 l144 88 l35 0 l0 -458 l-41 0 Z" /><glyph glyph-name="" unicode="&#x215c;" d="M726 709 l49 0 l-523 -775 l-49 0 l523 775 ZM64 639 q8 11 19.5 22.5 q11.5 11.5 27.5 21 q16 9.5 37 15.5 q21 6 48 6 q26 0 49.5 -7 q23.5 -7 41.5 -21 q18 -14 28.5 -34.5 q10.5 -20.5 10.5 -47.5 l0 -10 q0 -11 -3 -26 q-3 -15 -11.5 -30 q-8.5 -15 -23.5 -28.5 q-15 -13.5 -39 -21.5 q55 -11 76.5 -40.5 q21.5 -29.5 21.5 -69.5 l0 -10 q0 -21 -7.5 -44 q-7.5 -23 -25.5 -42 q-18 -19 -48 -31 q-30 -12 -74 -12 q-35 0 -73.5 13 q-38.5 13 -67.5 37 l21 32 q60 -45 120 -45 q57 0 84.5 27 q27.5 27 27.5 65 l0 9 q0 42 -26.5 66 q-26.5 24 -78.5 24 l-54 0 l0 39 l51 0 q24 0 40.5 8.5 q16.5 8.5 27.5 21 q11 12.5 16 28.5 q5 16 5 31 l0 9 q0 35 -25.5 54 q-25.5 19 -62.5 19 q-35 0 -59 -13 q-24 -13 -43 -37 l-31 22 ZM643 259 q0 -38 25 -63 q25 -25 67 -25 q44 0 69.5 25 q25.5 25 25.5 63 l0 6 q0 35 -25.5 58 q-25.5 23 -69.5 23 q-44 0 -68 -23 q-24 -23 -24 -58 l0 -6 ZM629 33 q0 -38 29 -62 q29 -24 77 -24 q50 0 78 24 q28 24 28 62 l0 8 q0 42 -29.5 67 q-29.5 25 -76.5 25 q-45 0 -75.5 -25 q-30.5 -25 -30.5 -67 l0 -8 ZM588 43 q0 39 24.5 68.5 q24.5 29.5 67.5 40.5 q-35 15 -55.5 40 q-20.5 25 -20.5 63 l0 12 q0 25 9.5 46 q9.5 21 27 36.5 q17.5 15.5 41.5 24.5 q24 9 53 9 q60 0 97 -33 q37 -33 37 -83 l0 -12 q0 -40 -23 -64.5 q-23 -24.5 -57 -38.5 q42 -11 67.5 -40.5 q25.5 -29.5 25.5 -68.5 l0 -10 q0 -57 -40.5 -90 q-40.5 -33 -106.5 -33 q-66 0 -106.5 33 q-40.5 33 -40.5 90 l0 10 Z" /><glyph glyph-name="" unicode="&#x215d;" d="M305 381 q0 29 -8 48.5 q-8 19.5 -21.5 31.5 q-13.5 12 -32 17.5 q-18.5 5.5 -40.5 5.5 q-32 0 -56.5 -10.5 q-24.5 -10.5 -42.5 -26.5 l-31 0 l15 248 l229 0 l0 -36 l-193 0 l-9 -168 q17 14 41.5 21.5 q24.5 7.5 51.5 7.5 q35 0 60.5 -10.5 q25.5 -10.5 42.5 -29 q17 -18.5 25.5 -43.5 q8.5 -25 8.5 -54 l0 -10 q0 -67 -39 -105 q-39 -38 -111 -38 q-46 0 -84.5 16.5 q-38.5 16.5 -64.5 36.5 l21 31 q26 -20 58.5 -33.5 q32.5 -13.5 70.5 -13.5 q34 0 55.5 10.5 q21.5 10.5 33.5 26 q12 15.5 16 33.5 q4 18 4 34 l0 10 ZM714 709 l49 0 l-523 -775 l-49 0 l523 775 ZM631 259 q0 -38 25 -63 q25 -25 67 -25 q44 0 69.5 25 q25.5 25 25.5 63 l0 6 q0 35 -25.5 58 q-25.5 23 -69.5 23 q-44 0 -68 -23 q-24 -23 -24 -58 l0 -6 ZM617 33 q0 -38 29 -62 q29 -24 77 -24 q50 0 78 24 q28 24 28 62 l0 8 q0 42 -29.5 67 q-29.5 25 -76.5 25 q-45 0 -75.5 -25 q-30.5 -25 -30.5 -67 l0 -8 ZM576 43 q0 39 24.5 68.5 q24.5 29.5 67.5 40.5 q-35 15 -55.5 40 q-20.5 25 -20.5 63 l0 12 q0 25 9.5 46 q9.5 21 27 36.5 q17.5 15.5 41.5 24.5 q24 9 53 9 q60 0 97 -33 q37 -33 37 -83 l0 -12 q0 -40 -23 -64.5 q-23 -24.5 -57 -38.5 q42 -11 67.5 -40.5 q25.5 -29.5 25.5 -68.5 l0 -10 q0 -57 -40.5 -90 q-40.5 -33 -106.5 -33 q-66 0 -106.5 33 q-40.5 33 -40.5 90 l0 10 Z" /><glyph glyph-name="" unicode="&#x215e;" d="M164 237 l-43 0 l183 424 l-254 0 l0 34 l298 0 l0 -28 l-184 -430 ZM636 709 l49 0 l-523 -775 l-49 0 l523 775 ZM553 259 q0 -38 25 -63 q25 -25 67 -25 q44 0 69.5 25 q25.5 25 25.5 63 l0 6 q0 35 -25.5 58 q-25.5 23 -69.5 23 q-44 0 -68 -23 q-24 -23 -24 -58 l0 -6 ZM539 33 q0 -38 29 -62 q29 -24 77 -24 q50 0 78 24 q28 24 28 62 l0 8 q0 42 -29.5 67 q-29.5 25 -76.5 25 q-45 0 -75.5 -25 q-30.5 -25 -30.5 -67 l0 -8 ZM498 43 q0 39 24.5 68.5 q24.5 29.5 67.5 40.5 q-35 15 -55.5 40 q-20.5 25 -20.5 63 l0 12 q0 25 9.5 46 q9.5 21 27 36.5 q17.5 15.5 41.5 24.5 q24 9 53 9 q60 0 97 -33 q37 -33 37 -83 l0 -12 q0 -40 -23 -64.5 q-23 -24.5 -57 -38.5 q42 -11 67.5 -40.5 q25.5 -29.5 25.5 -68.5 l0 -10 q0 -57 -40.5 -90 q-40.5 -33 -106.5 -33 q-66 0 -106.5 33 q-40.5 33 -40.5 90 l0 10 Z" /><glyph glyph-name="" unicode="&#x2160;" d="M477 695 l0 -721 l-44 0 l0 721 l44 0 Z" /><glyph glyph-name="" unicode="&#x2161;" d="M357 695 l0 -721 l-44 0 l0 721 l44 0 ZM597 695 l0 -721 l-44 0 l0 721 l44 0 Z" /><glyph glyph-name="" unicode="&#x2162;" d="M477 695 l0 -721 l-44 0 l0 721 l44 0 ZM710 695 l0 -721 l-44 0 l0 721 l44 0 ZM244 695 l0 -721 l-44 0 l0 721 l44 0 Z" /><glyph glyph-name="" unicode="&#x2163;" d="M247 695 l0 -721 l-44 0 l0 721 l44 0 ZM385 695 l193 -668 l185 668 l46 0 l-207 -721 l-51 0 l-214 721 l48 0 Z" /><glyph glyph-name="" unicode="&#x2164;" d="M214 695 l242 -668 l240 668 l47 0 l-263 -721 l-51 0 l-264 721 l49 0 Z" /><glyph glyph-name="" unicode="&#x2165;" d="M706 695 l0 -721 l-44 0 l0 721 l44 0 ZM148 695 l193 -668 l185 668 l46 0 l-207 -721 l-51 0 l-214 721 l48 0 Z" /><glyph glyph-name="" unicode="&#x2166;" d="M605 695 l0 -721 l-44 0 l0 721 l44 0 ZM100 695 l169 -669 l166 669 l45 0 l-187 -721 l-51 0 l-189 721 l47 0 ZM786 695 l0 -721 l-44 0 l0 721 l44 0 Z" /><glyph glyph-name="" unicode="&#x2167;" d="M498 695 l0 -721 l-44 0 l0 721 l44 0 ZM105 695 l125 -669 l122 669 l43 0 l-139 -721 l-55 0 l-141 721 l45 0 ZM655 695 l0 -721 l-44 0 l0 721 l44 0 ZM812 695 l0 -721 l-44 0 l0 721 l44 0 Z" /><glyph glyph-name="" unicode="&#x2168;" d="M260 695 l0 -721 l-44 0 l0 721 l44 0 ZM615 349 l206 -375 l-51 0 l-185 347 l-182 -347 l-51 0 l204 373 l-195 348 l49 0 l175 -322 l169 322 l49 0 l-188 -346 Z" /><glyph glyph-name="" unicode="&#x2169;" d="M486 349 l246 -375 l-52 0 l-224 347 l-227 -347 l-52 0 l250 373 l-241 348 l50 0 l220 -322 l208 322 l50 0 l-228 -346 Z" /><glyph glyph-name="" unicode="&#x2170;" d="M477 507 l0 -533 l-43 0 l0 533 l43 0 ZM481 682 l0 -59 l-51 0 l0 59 l51 0 Z" /><glyph glyph-name="" unicode="&#x2171;" d="M349 507 l0 -533 l-43 0 l0 533 l43 0 ZM353 682 l0 -59 l-51 0 l0 59 l51 0 ZM604 507 l0 -533 l-43 0 l0 533 l43 0 ZM608 682 l0 -59 l-51 0 l0 59 l51 0 Z" /><glyph glyph-name="" unicode="&#x2172;" d="M249 507 l0 -533 l-43 0 l0 533 l43 0 ZM253 682 l0 -59 l-51 0 l0 59 l51 0 ZM477 507 l0 -533 l-43 0 l0 533 l43 0 ZM481 682 l0 -59 l-51 0 l0 59 l51 0 ZM704 507 l0 -533 l-43 0 l0 533 l43 0 ZM708 682 l0 -59 l-51 0 l0 59 l51 0 Z" /><glyph glyph-name="" unicode="&#x2173;" d="M281 507 l0 -533 l-43 0 l0 533 l43 0 ZM285 682 l0 -59 l-51 0 l0 59 l51 0 ZM692 507 l43 0 l-160 -533 l-40 0 l-163 533 l44 0 l140 -481 l136 481 Z" /><glyph glyph-name="" unicode="&#x2174;" d="M631 507 l45 0 l-199 -533 l-42 0 l-202 533 l46 0 l178 -481 l174 481 Z" /><glyph glyph-name="" unicode="&#x2175;" d="M675 507 l0 -533 l-43 0 l0 533 l43 0 ZM679 682 l0 -59 l-51 0 l0 59 l51 0 ZM495 507 l43 0 l-160 -533 l-40 0 l-163 533 l44 0 l140 -481 l136 481 Z" /><glyph glyph-name="" unicode="&#x2176;" d="M595 507 l0 -533 l-43 0 l0 533 l43 0 ZM599 682 l0 -59 l-51 0 l0 59 l51 0 ZM415 507 l43 0 l-160 -533 l-40 0 l-163 533 l44 0 l140 -481 l136 481 ZM778 507 l0 -533 l-43 0 l0 533 l43 0 ZM782 682 l0 -59 l-51 0 l0 59 l51 0 Z" /><glyph glyph-name="" unicode="&#x2177;" d="M520 507 l0 -533 l-43 0 l0 533 l43 0 ZM524 682 l0 -59 l-51 0 l0 59 l51 0 ZM359 507 l43 0 l-147 -533 l-40 0 l-150 533 l44 0 l127 -481 l123 481 ZM668 507 l0 -533 l-43 0 l0 533 l43 0 ZM672 682 l0 -59 l-51 0 l0 59 l51 0 ZM816 507 l0 -533 l-43 0 l0 533 l43 0 ZM820 682 l0 -59 l-51 0 l0 59 l51 0 Z" /><glyph glyph-name="" unicode="&#x2178;" d="M290 507 l0 -533 l-43 0 l0 533 l43 0 ZM294 682 l0 -59 l-51 0 l0 59 l51 0 ZM596 249 l159 -275 l-49 0 l-138 248 l-141 -248 l-49 0 l161 271 l-146 262 l46 0 l129 -235 l127 235 l47 0 l-146 -258 Z" /><glyph glyph-name="" unicode="&#x2179;" d="M485 249 l191 -275 l-52 0 l-167 248 l-171 -248 l-52 0 l194 271 l-179 262 l49 0 l159 -235 l156 235 l50 0 l-178 -258 Z" /><glyph glyph-name="" unicode="&#x2190;" d="M805 314 l-553 0 l75 -126 l-15 -17 l-208 173 l208 173 l15 -17 l-75 -127 l553 0 l0 -59 Z" /><glyph glyph-name="" unicode="&#x2191;" d="M426 0 l0 553 l-127 -75 l-17 15 l173 208 l173 -208 l-17 -15 l-127 75 l0 -553 l-58 0 Z" /><glyph glyph-name="" unicode="&#x2192;" d="M104 373 l553 0 l-75 127 l15 17 l208 -173 l-208 -173 l-15 17 l75 126 l-553 0 l0 59 Z" /><glyph glyph-name="" unicode="&#x2193;" d="M484 687 l0 -552 l127 74 l17 -15 l-173 -208 l-173 208 l17 15 l127 -74 l0 552 l58 0 Z" /><glyph glyph-name="" unicode="&#x2194;" d="M282 188 l-15 -17 l-208 173 l208 173 l15 -17 l-75 -127 l496 0 l-75 127 l15 17 l208 -173 l-208 -173 l-15 17 l75 126 l-496 0 l75 -126 Z" /><glyph glyph-name="" unicode="&#x2195;" d="M484 553 l0 -418 l127 74 l17 -15 l-173 -208 l-173 208 l17 15 l127 -74 l0 418 l-127 -75 l-17 15 l173 208 l173 -208 l-17 -15 l-127 75 Z" /><glyph glyph-name="" unicode="&#x2196;" d="M767 -11 l-582 581 l-36 -142 l-23 -1 l-25 269 l269 -25 l-1 -23 l-142 -36 l581 -581 l-41 -42 Z" /><glyph glyph-name="" unicode="&#x2197;" d="M101 31 l581 581 l-142 36 l-1 23 l269 25 l-25 -269 l-23 1 l-36 142 l-582 -581 l-41 42 Z" /><glyph glyph-name="" unicode="&#x2198;" d="M142 698 l582 -581 l37 142 l23 2 l25 -270 l-270 25 l2 23 l142 37 l-582 581 l41 41 Z" /><glyph glyph-name="" unicode="&#x2199;" d="M809 657 l-582 -581 l142 -37 l2 -23 l-270 -25 l25 270 l23 -2 l37 -142 l582 581 l41 -41 Z" /><glyph glyph-name="" unicode="&#x21b0;" d="" /><glyph glyph-name="" unicode="&#x21b1;" d="" /><glyph glyph-name="" unicode="&#x21b2;" d="" /><glyph glyph-name="" unicode="&#x21b3;" d="" /><glyph glyph-name="" unicode="&#x21b4;" d="" /><glyph glyph-name="" unicode="&#x21bc;" d="" /><glyph glyph-name="" unicode="&#x21c0;" d="" /><glyph glyph-name="" unicode="&#x21c4;" d="" /><glyph glyph-name="" unicode="&#x21c5;" d="" /><glyph glyph-name="" unicode="&#x21cd;" d="" /><glyph glyph-name="" unicode="&#x21cf;" d="" /><glyph glyph-name="" unicode="&#x21d0;" d="" /><glyph glyph-name="" unicode="&#x2963;&#x21d1;" d="" /><glyph glyph-name="" unicode="&#x21d2;" d="M900 301 l-249 -250 l-27 26 l118 117 l-732 0 l0 36 l767 0 l72 71 l-72 72 l-767 0 l0 36 l731 0 l-117 114 l27 27 l249 -249 Z" /><glyph glyph-name="" unicode="&#x2965;&#x21d3;" d="" /><glyph glyph-name="" unicode="&#x21d4;" d="M901 301 l-248 -250 l-28 26 l118 117 l-578 0 l118 -117 l-28 -26 l-248 250 l248 249 l28 -27 l-117 -114 l576 0 l-117 114 l28 27 l248 -249 ZM850 301 l-72 72 l-648 0 l-72 -72 l72 -71 l648 0 l72 71 Z" /><glyph glyph-name="" unicode="&#x21e0;" d="" /><glyph glyph-name="" unicode="&#x21e1;" d="" /><glyph glyph-name="" unicode="&#x21e2;" d="" /><glyph glyph-name="" unicode="&#x21e3;" d="" /><glyph glyph-name="" unicode="&#x21e6;" d="" /><glyph glyph-name="" unicode="&#x21e7;" d="" /><glyph glyph-name="" unicode="&#x21e8;" d="" /><glyph glyph-name="" unicode="&#x21e9;" d="" /><glyph glyph-name="" unicode="&#x2200;" d="M202 695 l89 -234 l330 0 l87 234 l46 0 l-276 -721 l-42 0 l-279 721 l45 0 ZM607 424 l-302 0 l89 -234 q17 -44 34 -88 q17 -44 29 -82 q13 38 30.5 82 q17.5 44 33.5 88 l86 234 Z" /><glyph glyph-name="" unicode="&#x2202;" d="M64 673 q29 20 70 35 q41 15 89 15 q49 0 93 -20 q44 -20 77.5 -62 q33.5 -42 53.5 -108 q20 -66 20 -159 q0 -97 -21 -169 q-21 -72 -56 -120 q-35 -48 -81.5 -72 q-46.5 -24 -97.5 -24 q-47 0 -81 16 q-34 16 -56.5 44 q-22.5 28 -33.5 65 q-11 37 -11 78 q0 54 17.5 99 q17.5 45 47 76.5 q29.5 31.5 68.5 49 q39 17.5 82 17.5 q33 0 61.5 -9 q28.5 -9 51 -23.5 q22.5 -14.5 39 -31.5 q16.5 -17 25.5 -33 l1 0 q1 11 1 22 q0 11 0 22 q0 80 -17 137 q-17 57 -44.5 93.5 q-27.5 36.5 -64 53.5 q-36.5 17 -75.5 17 q-46 0 -80.5 -12.5 q-34.5 -12.5 -61.5 -29.5 l-16 33 ZM216 31 q40 0 73.5 20 q33.5 20 59 54 q25.5 34 42.5 79.5 q17 45.5 23 96.5 q-18 46 -63 78.5 q-45 32.5 -106 32.5 q-35 0 -65.5 -14 q-30.5 -14 -53.5 -39.5 q-23 -25.5 -36.5 -62 q-13.5 -36.5 -13.5 -81.5 q0 -78 37.5 -121 q37.5 -43 102.5 -43 Z" /><glyph glyph-name="" unicode="&#x2203;" d="M669 695 l0 -721 l-428 0 l0 41 l384 0 l0 309 l-356 0 l0 40 l356 0 l0 290 l-377 0 l0 41 l421 0 Z" /><glyph glyph-name="" unicode="&#x2206;" d="" /><glyph glyph-name="" unicode="&#x2207;" d="M755 550 l-599 0 l299 -481 l300 481 ZM841 593 l-386 -612 l-386 612 l772 0 Z" /><glyph glyph-name="" unicode="&#x2208;" d="M795 304 l-632 0 q3 -37 18 -68.5 q15 -31.5 42.5 -54 q27.5 -22.5 69 -35 q41.5 -12.5 98.5 -12.5 l406 0 l0 -47 l-400 0 q-74 0 -127.5 19 q-53.5 19 -88.5 51.5 q-35 32.5 -52 76.5 q-17 44 -17 95 q0 47 16 88.5 q16 41.5 49.5 72 q33.5 30.5 86.5 48.5 q53 18 127 18 l406 0 l0 -47 l-406 0 q-57 0 -98.5 -12.5 q-41.5 -12.5 -68.5 -33.5 q-27 -21 -41.5 -50 q-14.5 -29 -18.5 -62 l631 0 l0 -47 Z" /><glyph glyph-name="" unicode="&#x2209;" d="" /><glyph glyph-name="" unicode="&#x220b;" d="M114 351 l630 0 q-3 33 -17.5 62 q-14.5 29 -41.5 50.5 q-27 21.5 -68.5 34 q-41.5 12.5 -99.5 12.5 l-405 0 l0 46 l405 0 q74 0 127 -18 q53 -18 87 -48.5 q34 -30.5 50 -72 q16 -41.5 16 -88.5 q0 -51 -17 -95 q-17 -44 -52 -77 q-35 -33 -89 -51.5 q-54 -18.5 -127 -18.5 l-400 0 l0 46 l405 0 q58 0 99.5 12.5 q41.5 12.5 69 35.5 q27.5 23 42 54 q14.5 31 17.5 69 l-631 0 l0 47 Z" /><glyph glyph-name="" unicode="&#x220c;" d="" /><glyph glyph-name="" unicode="&#x220f;" d="M473 658 l0 -678 l-41 0 l0 678 l-243 0 l0 -678 l-41 0 l0 678 l-112 0 l0 37 l549 0 l0 -37 l-112 0 Z" /><glyph glyph-name="" unicode="&#x2211;" d="M510 695 l0 -39 l-358 0 l213 -324 l-218 -319 l370 0 l0 -39 l-421 0 l0 30 l221 327 l-221 337 l0 27 l414 0 Z" /><glyph glyph-name="" unicode="&#x2213;" d="" /><glyph glyph-name="" unicode="&#x221a;" d="M324 -124 l-36 0 q-42 110 -81.5 219.5 q-39.5 109.5 -81.5 219.5 l-71 -33 q-5 9 -7.5 17 q-2.5 8 -7.5 17 l112 46 l152 -415 l1 0 l210 853 l42 0 l-232 -924 Z" /><glyph glyph-name="" unicode="&#x221d;" d="M301 190 q31 0 56 11.5 q25 11.5 44.5 29.5 q19.5 18 34 40 q14.5 22 25.5 44 q-11 21 -26 43.5 q-15 22.5 -35 40.5 q-20 18 -44.5 30 q-24.5 12 -54.5 12 q-57 0 -89.5 -35.5 q-32.5 -35.5 -32.5 -89.5 q0 -57 31 -91.5 q31 -34.5 91 -34.5 ZM761 411 q-20 14 -40 23 q-20 9 -40 9 q-56 0 -91.5 -33 q-35.5 -33 -68.5 -95 q17 -32 33.5 -55.5 q16.5 -23.5 35 -40 q18.5 -16.5 41 -24.5 q22.5 -8 50.5 -8 q18 0 41.5 6 q23.5 6 40.5 16 l15 -56 q-26 -14 -50 -19.5 q-24 -5.5 -47 -5.5 q-32 0 -60.5 11 q-28.5 11 -52.5 29 q-24 18 -43.5 41.5 q-19.5 23.5 -34.5 47.5 q-13 -23 -29 -45.5 q-16 -22.5 -38 -41 q-22 -18.5 -51.5 -30 q-29.5 -11.5 -69.5 -11.5 q-34 0 -67.5 12 q-33.5 12 -60.5 35 q-27 23 -43.5 58 q-16.5 35 -16.5 82 q0 45 16.5 80 q16.5 35 42.5 58.5 q26 23.5 59.5 36 q33.5 12.5 68.5 12.5 q38 0 67 -12 q29 -12 51.5 -30.5 q22.5 -18.5 39.5 -42 q17 -23.5 31 -46.5 q15 27 34 51 q19 24 42.5 41.5 q23.5 17.5 52 28 q28.5 10.5 62.5 10.5 q29 0 57.5 -11.5 q28.5 -11.5 56.5 -31.5 l-34 -49 Z" /><glyph glyph-name="" unicode="&#x221e;" d="M450 166 q-32 0 -54.5 11.5 q-22.5 11.5 -40 28.5 q-17.5 17 -32 37.5 q-14.5 20.5 -28.5 38.5 q-19 -24 -36.5 -45 q-17.5 -21 -37 -36.5 q-19.5 -15.5 -42 -25 q-22.5 -9.5 -50.5 -9.5 q-56 0 -89.5 36 q-33.5 36 -33.5 104 q0 30 10 55.5 q10 25.5 27.5 44 q17.5 18.5 41.5 28.5 q24 10 52 10 q27 0 50.5 -12.5 q23.5 -12.5 43 -30.5 q19.5 -18 35 -38 q15.5 -20 27.5 -35 q19 23 36 44 q17 21 35.5 37 q18.5 16 41 25.5 q22.5 9.5 52.5 9.5 q58 0 92.5 -36 q34.5 -36 34.5 -102 q0 -32 -10.5 -57.5 q-10.5 -25.5 -29 -44 q-18.5 -18.5 -43 -28.5 q-24.5 -10 -52.5 -10 ZM450 202 q44 0 71 28.5 q27 28.5 27 75.5 q0 50 -26 76.5 q-26 26.5 -67 26.5 q-24 0 -42.5 -9.5 q-18.5 -9.5 -35 -24.5 q-16.5 -15 -30.5 -33.5 q-14 -18.5 -29 -37.5 q11 -15 23.5 -33 q12.5 -18 28 -33 q15.5 -15 35.5 -25.5 q20 -10.5 45 -10.5 ZM132 202 q41 0 72.5 28 q31.5 28 66.5 75 q-12 16 -27 34.5 q-15 18.5 -32 34 q-17 15.5 -36 25.5 q-19 10 -40 10 q-42 0 -67 -28.5 q-25 -28.5 -25 -74.5 q0 -53 23 -78.5 q23 -25.5 65 -25.5 Z" /><glyph glyph-name="" unicode="&#x221f;" d="" /><glyph glyph-name="" unicode="&#x2220;" d="M760 0 l-609 0 l0 41 l473 551 l46 -37 l-431 -499 l521 0 l0 -56 Z" /><glyph glyph-name="" unicode="&#x2222;" d="" /><glyph glyph-name="" unicode="&#x2225;" d="" /><glyph glyph-name="" unicode="&#x2226;" d="" /><glyph glyph-name="" unicode="&#x2227;" d="M776 21 l-51 -24 l-270 526 l-269 -526 l-51 24 l294 570 l53 0 l294 -570 Z" /><glyph glyph-name="" unicode="&#x2228;" d="M482 3 l-53 0 l-294 570 l51 24 l269 -526 l270 526 l51 -24 l-294 -570 Z" /><glyph glyph-name="" unicode="&#x2229;" d="M455 634 q51 0 95.5 -17 q44.5 -17 76.5 -52 q32 -35 50.5 -89 q18.5 -54 18.5 -127 l0 -400 l-50 0 l0 405 q0 61 -14 106 q-14 45 -39.5 73.5 q-25.5 28.5 -60.5 42.5 q-35 14 -77 14 q-42 0 -76.5 -14 q-34.5 -14 -60 -42.5 q-25.5 -28.5 -39.5 -73.5 q-14 -45 -14 -106 l0 -405 l-50 0 l0 400 q0 73 18.5 127 q18.5 54 50.5 89 q32 35 76 52 q44 17 95 17 Z" /><glyph glyph-name="" unicode="&#x222a;" d="M264 634 l0 -405 q0 -63 15 -107.5 q15 -44.5 40.5 -72.5 q25.5 -28 59.5 -40.5 q34 -12.5 72 -12.5 q42 0 78 13.5 q36 13.5 62 41.5 q26 28 41 72 q15 44 15 106 l0 405 l50 0 l0 -400 q0 -74 -20 -127.5 q-20 -53.5 -53.5 -88.5 q-33.5 -35 -79 -52 q-45.5 -17 -96.5 -17 q-47 0 -89.5 16 q-42.5 16 -74.5 50 q-32 34 -51 87 q-19 53 -19 127 l0 405 l50 0 Z" /><glyph glyph-name="" unicode="&#x222b;" d="M135 79 q0 52 -1.5 115.5 q-1.5 63.5 -3 129.5 q-1.5 66 -3 129.5 q-1.5 63.5 -1.5 114.5 q0 116 33 166 q33 50 92 50 q12 0 21 -2 q9 -2 16 -5 l-9 -37 q-5 2 -11.5 3 q-6.5 1 -13.5 1 q-20 0 -35.5 -8.5 q-15.5 -8.5 -26 -29 q-10.5 -20.5 -16 -54.5 q-5.5 -34 -5.5 -86 q0 -53 1.5 -117 q1.5 -64 3.5 -129 q2 -65 3.5 -128 q1.5 -63 1.5 -115 q0 -116 -32.5 -166 q-32.5 -50 -92.5 -50 q-23 0 -39 7 l9 37 q5 -2 12.5 -3 q7.5 -1 14.5 -1 q20 0 35.5 8.5 q15.5 8.5 26 29 q10.5 20.5 15.5 54.5 q5 34 5 86 Z" /><glyph glyph-name="" unicode="&#x222c;" d="M135 79 q0 52 -1.5 115.5 q-1.5 63.5 -3 129.5 q-1.5 66 -3 129.5 q-1.5 63.5 -1.5 114.5 q0 116 33 166 q33 50 92 50 q12 0 21 -2 q9 -2 16 -5 l-9 -37 q-5 2 -11.5 3 q-6.5 1 -13.5 1 q-20 0 -35.5 -8.5 q-15.5 -8.5 -26 -29 q-10.5 -20.5 -16 -54.5 q-5.5 -34 -5.5 -86 q0 -53 1.5 -117 q1.5 -64 3.5 -129 q2 -65 3.5 -128 q1.5 -63 1.5 -115 q0 -116 -32.5 -166 q-32.5 -50 -92.5 -50 q-23 0 -39 7 l9 37 q5 -2 12.5 -3 q7.5 -1 14.5 -1 q20 0 35.5 8.5 q15.5 8.5 26 29 q10.5 20.5 15.5 54.5 q5 34 5 86 ZM354 79 q0 52 -1.5 115.5 q-1.5 63.5 -3 129.5 q-1.5 66 -3 129.5 q-1.5 63.5 -1.5 114.5 q0 116 33 166 q33 50 92 50 q12 0 21 -2 q9 -2 16 -5 l-9 -37 q-5 2 -11.5 3 q-6.5 1 -13.5 1 q-20 0 -35.5 -8.5 q-15.5 -8.5 -26 -29 q-10.5 -20.5 -16 -54.5 q-5.5 -34 -5.5 -86 q0 -53 1.5 -117 q1.5 -64 3.5 -129 q2 -65 3.5 -128 q1.5 -63 1.5 -115 q0 -116 -32.5 -166 q-32.5 -50 -92.5 -50 q-23 0 -39 7 l9 37 q5 -2 12.5 -3 q7.5 -1 14.5 -1 q20 0 35.5 8.5 q15.5 8.5 26 29 q10.5 20.5 15.5 54.5 q5 34 5 86 Z" /><glyph glyph-name="" unicode="&#x222e;" d="M617 628 q-8 19 -20.5 29.5 q-12.5 10.5 -29.5 10.5 q-22 0 -42 -58.5 q-20 -58.5 -32 -165.5 q25 -3 47.5 -13 q22.5 -10 39 -26.5 q16.5 -16.5 26 -39.5 q9.5 -23 9.5 -52 q0 -35 -12 -62.5 q-12 -27.5 -31.5 -47.5 q-19.5 -20 -45 -32 q-25.5 -12 -52.5 -16 q-7 -56 -18 -104.5 q-11 -48.5 -27.5 -84.5 q-16.5 -36 -39 -57 q-22.5 -21 -51.5 -21 q-61 0 -92 59 l44 26 q9 -19 21.5 -30 q12.5 -11 29.5 -11 q22 0 42.5 58 q20.5 58 31.5 166 q-47 8 -80 40 q-33 32 -33 88 q0 33 11 60 q11 27 29 46.5 q18 19.5 41.5 32 q23.5 12.5 49.5 18.5 q7 56 18.5 105.5 q11.5 49.5 28 86 q16.5 36.5 39 58 q22.5 21.5 51.5 21.5 q62 0 94 -63 l-47 -21 ZM566 311 q0 38 -20 66.5 q-20 28.5 -56 36.5 q-2 -26 -3.5 -55 q-1.5 -29 -2.5 -59 q-1 -30 -2.5 -59.5 q-1.5 -29.5 -4.5 -55.5 q37 9 61 39 q24 30 28 75 l0 12 ZM430 410 q-35 -13 -57 -45.5 q-22 -32.5 -22 -79.5 q0 -38 18 -64 q18 -26 49 -35 q5 50 6 110.5 q1 60.5 6 113.5 Z" /><glyph glyph-name="" unicode="&#x2234;" d="M538 114 q0 -20 -13.5 -33.5 q-13.5 -13.5 -33.5 -13.5 q-20 0 -33.5 13.5 q-13.5 13.5 -13.5 33.5 q0 20 13.5 33 q13.5 13 33.5 13 q20 0 33.5 -13 q13.5 -13 13.5 -33 ZM146 114 q0 -20 -14 -33.5 q-14 -13.5 -33 -13.5 q-21 0 -34 13.5 q-13 13.5 -13 33.5 q0 20 13 33 q13 13 34 13 q19 0 33 -13 q14 -13 14 -33 ZM346 523 q0 -21 -12.5 -34.5 q-12.5 -13.5 -33.5 -13.5 q-21 0 -34.5 13.5 q-13.5 13.5 -13.5 34.5 q0 18 13.5 32 q13.5 14 34.5 14 q21 0 33.5 -14 q12.5 -14 12.5 -32 Z" /><glyph glyph-name="" unicode="&#x2235;" d="M54 504 q0 22 13.5 35.5 q13.5 13.5 35.5 13.5 q18 0 33 -13.5 q15 -13.5 15 -35.5 q0 -21 -15 -34 q-15 -13 -33 -13 q-22 0 -35.5 13 q-13.5 13 -13.5 34 ZM450 504 q0 22 13 35.5 q13 13.5 35 13.5 q18 0 33.5 -13.5 q15.5 -13.5 15.5 -35.5 q0 -21 -15.5 -34 q-15.5 -13 -33.5 -13 q-22 0 -35 13 q-13 13 -13 34 ZM251 94 q0 18 14 34 q14 16 35 16 q19 0 33.5 -16 q14.5 -16 14.5 -34 q0 -21 -14.5 -34 q-14.5 -13 -33.5 -13 q-21 0 -35 13 q-14 13 -14 34 Z" /><glyph glyph-name="" unicode="&#x2237;" d="" /><glyph glyph-name="" unicode="&#x301c;&#xff5e;&#x223c;" d="M742 339 q-11 -18 -28 -35 q-17 -17 -37 -30 q-20 -13 -42 -21 q-22 -8 -44 -8 q-43 0 -73.5 9 q-30.5 9 -62.5 26 q-26 14 -61 27.5 q-35 13.5 -75 13.5 q-37 0 -64 -17.5 q-27 -17.5 -46 -45.5 l-41 27 q11 18 28 35 q17 17 37 30 q20 13 42 21 q22 8 44 8 q43 0 73.5 -9 q30.5 -9 62.5 -26 q32 -17 64 -29 q32 -12 72 -12 q37 0 64 17.5 q27 17.5 46 45.5 l41 -27 Z" /><glyph glyph-name="" unicode="&#x223d;" d="M829 316 q0 -38 -13.5 -72 q-13.5 -34 -37.5 -59.5 q-24 -25.5 -57 -41 q-33 -15.5 -73 -15.5 q-32 0 -62.5 11.5 q-30.5 11.5 -59.5 31.5 l34 46 q21 -17 41.5 -23.5 q20.5 -6.5 46.5 -6.5 q26 0 48 10 q22 10 38 27 q16 17 25 41 q9 24 9 51 q0 24 -8.5 47 q-8.5 23 -24.5 40.5 q-16 17.5 -37.5 28.5 q-21.5 11 -48.5 11 q-56 0 -93.5 -35.5 q-37.5 -35.5 -70.5 -99.5 q-12 -24 -30 -54.5 q-18 -30.5 -45 -58.5 q-27 -28 -63.5 -47 q-36.5 -19 -86.5 -19 q-33 0 -65 12 q-32 12 -57.5 35.5 q-25.5 23.5 -41 58.5 q-15.5 35 -15.5 81 q0 45 15 80 q15 35 40 58.5 q25 23.5 57 36 q32 12.5 66 12.5 q33 0 64 -12 q31 -12 59 -30 l-31 -47 q-21 11 -42.5 19 q-21.5 8 -42.5 8 q-56 0 -89.5 -35 q-33.5 -35 -33.5 -90 q0 -57 32 -91.5 q32 -34.5 90 -34.5 q38 0 66.5 16.5 q28.5 16.5 49.5 41 q21 24.5 36 52 q15 27.5 26 49.5 q15 30 34.5 58 q19.5 28 44.5 49 q25 21 56 34 q31 13 69 13 q40 0 73.5 -15.5 q33.5 -15.5 57.5 -41.5 q24 -26 37.5 -59.5 q13.5 -33.5 13.5 -70.5 Z" /><glyph glyph-name="" unicode="&#x2243;" d="" /><glyph glyph-name="" unicode="&#x2245;" d="" /><glyph glyph-name="" unicode="&#x2248;" d="" /><glyph glyph-name="" unicode="&#x2250;" d="" /><glyph glyph-name="" unicode="&#x2251;" d="" /><glyph glyph-name="" unicode="&#x2252;" d="M54 258 l482 0 l0 -51 l-482 0 l0 51 ZM54 419 l482 0 l0 -50 l-482 0 l0 50 ZM147 532 q0 26 19 44.5 q19 18.5 45 18.5 q26 0 44.5 -18.5 q18.5 -18.5 18.5 -44.5 q0 -26 -18.5 -45 q-18.5 -19 -44.5 -19 q-26 0 -45 19 q-19 19 -19 45 ZM333 92 q0 26 18.5 45.5 q18.5 19.5 44.5 19.5 q26 0 45 -19.5 q19 -19.5 19 -45.5 q0 -26 -19 -44.5 q-19 -18.5 -45 -18.5 q-26 0 -44.5 18.5 q-18.5 18.5 -18.5 44.5 Z" /><glyph glyph-name="" unicode="&#x2253;" d="" /><glyph glyph-name="" unicode="&#x225a;" d="" /><glyph glyph-name="" unicode="&#x2260;" d="M74 448 l282 0 l95 144 l42 0 l-95 -144 l118 0 l0 -45 l-146 0 l-110 -166 l256 0 l0 -45 l-284 0 l-93 -142 l-42 0 l93 142 l-116 0 l0 45 l144 0 l110 166 l-254 0 l0 45 Z" /><glyph glyph-name="" unicode="&#x2261;" d="M60 157 l0 41 l470 0 l0 -41 l-470 0 ZM60 439 l0 41 l470 0 l0 -41 l-470 0 ZM60 298 l0 40 l470 0 l0 -40 l-470 0 Z" /><glyph glyph-name="" unicode="&#x2262;" d="" /><glyph glyph-name="" unicode="&#x2264;" d="M529 174 l-465 201 l0 37 l465 198 l0 -42 l-416 -175 l416 -177 l0 -42 ZM61 60 l0 37 l468 0 l0 -37 l-468 0 Z" /><glyph glyph-name="" unicode="&#x2265;" d="M61 216 l416 177 l-416 175 l0 42 l465 -198 l0 -37 l-465 -201 l0 42 ZM61 60 l0 37 l468 0 l0 -37 l-468 0 Z" /><glyph glyph-name="" unicode="&#x2266;" d="" /><glyph glyph-name="" unicode="&#x2267;" d="" /><glyph glyph-name="" unicode="&#x226e;" d="" /><glyph glyph-name="" unicode="&#x226f;" d="" /><glyph glyph-name="" unicode="&#x2270;" d="" /><glyph glyph-name="" unicode="&#x2271;" d="" /><glyph glyph-name="" unicode="&#x2272;" d="" /><glyph glyph-name="" unicode="&#x2273;" d="" /><glyph glyph-name="" unicode="&#x2276;" d="" /><glyph glyph-name="" unicode="&#x2277;" d="" /><glyph glyph-name="" unicode="&#x2279;" d="" /><glyph glyph-name="" unicode="&#x227a;" d="" /><glyph glyph-name="" unicode="&#x227b;" d="" /><glyph glyph-name="" unicode="&#x2280;" d="" /><glyph glyph-name="" unicode="&#x2281;" d="" /><glyph glyph-name="" unicode="&#x2282;" d="M797 503 l-406 0 q-63 0 -106.5 -15 q-43.5 -15 -70.5 -40.5 q-27 -25.5 -39 -59.5 q-12 -34 -12 -72 q0 -42 12.5 -78 q12.5 -36 40 -62 q27.5 -26 71 -41 q43.5 -15 104.5 -15 l406 0 l0 -46 l-400 0 q-74 0 -127.5 19 q-53.5 19 -88.5 52.5 q-35 33.5 -52 78 q-17 44.5 -17 95.5 q0 47 16 89 q16 42 49.5 73.5 q33.5 31.5 86.5 49.5 q53 18 127 18 l406 0 l0 -46 Z" /><glyph glyph-name="" unicode="&#x2283;" d="M112 569 l405 0 q74 0 127 -18 q53 -18 87 -49.5 q34 -31.5 50 -73.5 q16 -42 16 -89 q0 -51 -17 -95.5 q-17 -44.5 -52 -78 q-35 -33.5 -89 -52.5 q-54 -19 -127 -19 l-400 0 l0 46 l405 0 q61 0 104.5 15 q43.5 15 71.5 41 q28 26 40.5 62 q12.5 36 12.5 78 q0 38 -12 72 q-12 34 -39.5 59.5 q-27.5 25.5 -71 40.5 q-43.5 15 -106.5 15 l-405 0 l0 46 Z" /><glyph glyph-name="" unicode="&#x2284;" d="" /><glyph glyph-name="" unicode="&#x2285;" d="" /><glyph glyph-name="" unicode="&#x2286;" d="M797 573 l-406 0 q-63 0 -106.5 -14 q-43.5 -14 -71 -38 q-27.5 -24 -39.5 -56.5 q-12 -32.5 -12 -69.5 q0 -41 13 -76 q13 -35 40.5 -60 q27.5 -25 71 -39 q43.5 -14 104.5 -14 l406 0 l0 -46 l-400 0 q-74 0 -127.5 18 q-53.5 18 -88.5 49.5 q-35 31.5 -52 74.5 q-17 43 -17 93 q0 47 16 88 q16 41 49.5 71 q33.5 30 86.5 47.5 q53 17.5 127 17.5 l406 0 l0 -46 ZM795 1 l-645 0 l0 46 l645 0 l0 -46 Z" /><glyph glyph-name="" unicode="&#x2287;" d="M112 619 l406 0 q74 0 127 -17.5 q53 -17.5 86.5 -47.5 q33.5 -30 49.5 -71 q16 -41 16 -88 q0 -50 -17 -93 q-17 -43 -52 -74.5 q-35 -31.5 -89 -49.5 q-54 -18 -127 -18 l-400 0 l0 46 l406 0 q61 0 104.5 14 q43.5 14 71 39 q27.5 25 40.5 60 q13 35 13 76 q0 37 -12 69.5 q-12 32.5 -39.5 56.5 q-27.5 24 -71 38 q-43.5 14 -106.5 14 l-406 0 l0 46 ZM114 47 l645 0 l0 -46 l-645 0 l0 46 Z" /><glyph glyph-name="" unicode="&#x2acb;&#x228a;" d="" /><glyph glyph-name="" unicode="&#x2acc;&#x228b;" d="" /><glyph glyph-name="" unicode="&#x2295;" d="" /><glyph glyph-name="" unicode="&#x2296;" d="" /><glyph glyph-name="" unicode="&#x2297;" d="" /><glyph glyph-name="" unicode="&#x2299;&#x25c9;" d="M610 299 q0 -32 -12 -60.5 q-12 -28.5 -33 -49.5 q-21 -21 -49.5 -33 q-28.5 -12 -60.5 -12 q-32 0 -60 12 q-28 12 -49 33 q-21 21 -33.5 49.5 q-12.5 28.5 -12.5 60.5 q0 32 12.5 60.5 q12.5 28.5 33.5 49.5 q21 21 49 33 q28 12 60 12 q32 0 60.5 -12 q28.5 -12 49.5 -33 q21 -21 33 -49.5 q12 -28.5 12 -60.5 ZM819 299 q0 75 -29 141 q-29 66 -78.5 115.5 q-49.5 49.5 -115.5 78.5 q-66 29 -141 29 q-74 0 -140 -29 q-66 -29 -115.5 -78.5 q-49.5 -49.5 -78 -115.5 q-28.5 -66 -28.5 -141 q0 -74 28.5 -140 q28.5 -66 78 -115.5 q49.5 -49.5 115.5 -78 q66 -28.5 140 -28.5 q75 0 141 28.5 q66 28.5 115.5 78 q49.5 49.5 78.5 115.5 q29 66 29 140 ZM841 299 q0 -80 -30 -150.5 q-30 -70.5 -82.5 -123 q-52.5 -52.5 -123 -82.5 q-70.5 -30 -150.5 -30 q-79 0 -149.5 30 q-70.5 30 -123 82.5 q-52.5 52.5 -83 123 q-30.5 70.5 -30.5 150.5 q0 80 30.5 150.5 q30.5 70.5 83 123 q52.5 52.5 123 82.5 q70.5 30 149.5 30 q80 0 150.5 -30 q70.5 -30 123 -82.5 q52.5 -52.5 82.5 -123 q30 -70.5 30 -150.5 Z" /><glyph glyph-name="" unicode="&#x22a3;" d="" /><glyph glyph-name="" unicode="&#x22a4;" d="" /><glyph glyph-name="" unicode="&#x22a5;" d="M774 0 l-638 0 l0 59 l290 0 l0 514 l59 0 l0 -514 l289 0 l0 -59 Z" /><glyph glyph-name="" unicode="&#x22bb;" d="" /><glyph glyph-name="" unicode="&#x22bc;" d="" /><glyph glyph-name="" unicode="&#x22ce;" d="" /><glyph glyph-name="" unicode="&#x22cf;" d="" /><glyph glyph-name="" unicode="&#x22da;" d="" /><glyph glyph-name="" unicode="&#x22db;" d="" /><glyph glyph-name="" unicode="&#x22ee;" d="" /><glyph glyph-name="" unicode="&#x2306;" d="" /><glyph glyph-name="" unicode="&#x2312;" d="M652 576 q-13 23 -32 44 q-19 21 -43.5 37 q-24.5 16 -54.5 25.5 q-30 9.5 -66 9.5 q-36 0 -66.5 -9.5 q-30.5 -9.5 -55.5 -25.5 q-25 -16 -43.5 -37 q-18.5 -21 -31.5 -44 l-62 0 q40 72 101.5 116 q61.5 44 155.5 44 q95 0 157 -44 q62 -44 101 -116 l-60 0 Z" /><glyph glyph-name="" unicode="&#x2314;" d="" /><glyph glyph-name="" unicode="&#x2460;" d="M456 41 l0 467 l-132 -78 l-20 35 l164 101 l30 0 l0 -525 l-42 0 ZM884 306 q0 -93 -32.5 -171.5 q-32.5 -78.5 -89.5 -136 q-57 -57.5 -135.5 -90 q-78.5 -32.5 -171.5 -32.5 q-93 0 -171.5 32.5 q-78.5 32.5 -135.5 90 q-57 57.5 -89.5 136 q-32.5 78.5 -32.5 171.5 q0 93 32.5 171.5 q32.5 78.5 89.5 136 q57 57.5 135.5 90 q78.5 32.5 171.5 32.5 q93 0 171.5 -32.5 q78.5 -32.5 135.5 -90 q57 -57.5 89.5 -136 q32.5 -78.5 32.5 -171.5 ZM848 306 q0 85 -29.5 157 q-29.5 72 -82 124.5 q-52.5 52.5 -124.5 82.5 q-72 30 -157 30 q-85 0 -157 -30 q-72 -30 -124.5 -82.5 q-52.5 -52.5 -82 -124.5 q-29.5 -72 -29.5 -157 q0 -85 29.5 -157 q29.5 -72 82 -124.5 q52.5 -52.5 124.5 -82.5 q72 -30 157 -30 q85 0 157 30 q72 30 124.5 82.5 q52.5 52.5 82 124.5 q29.5 72 29.5 157 Z" /><glyph glyph-name="" unicode="&#x2461;" d="M494 319 q21 26 34.5 45 q13.5 19 21 33.5 q7.5 14.5 10 25.5 q2.5 11 2.5 21 l0 6 q0 42 -29 64.5 q-29 22.5 -74 22.5 q-36 0 -66 -17.5 q-30 -17.5 -57 -62.5 l-37 23 q9 17 23 34.5 q14 17.5 33 32 q19 14.5 44.5 23.5 q25.5 9 58.5 9 q31 0 58.5 -8.5 q27.5 -8.5 47.5 -24.5 q20 -16 32 -40 q12 -24 12 -55 l0 -7 q0 -43 -27 -81.5 q-27 -38.5 -61 -78.5 l-165 -196 l273 0 l0 -43 l-329 0 l0 39 l195 235 ZM884 306 q0 -93 -32.5 -171.5 q-32.5 -78.5 -89.5 -136 q-57 -57.5 -135.5 -90 q-78.5 -32.5 -171.5 -32.5 q-93 0 -171.5 32.5 q-78.5 32.5 -135.5 90 q-57 57.5 -89.5 136 q-32.5 78.5 -32.5 171.5 q0 93 32.5 171.5 q32.5 78.5 89.5 136 q57 57.5 135.5 90 q78.5 32.5 171.5 32.5 q93 0 171.5 -32.5 q78.5 -32.5 135.5 -90 q57 -57.5 89.5 -136 q32.5 -78.5 32.5 -171.5 ZM848 306 q0 85 -29.5 157 q-29.5 72 -82 124.5 q-52.5 52.5 -124.5 82.5 q-72 30 -157 30 q-85 0 -157 -30 q-72 -30 -124.5 -82.5 q-52.5 -52.5 -82 -124.5 q-29.5 -72 -29.5 -157 q0 -85 29.5 -157 q29.5 -72 82 -124.5 q52.5 -52.5 124.5 -82.5 q72 -30 157 -30 q85 0 157 30 q72 30 124.5 82.5 q52.5 52.5 82 124.5 q29.5 72 29.5 157 Z" /><glyph glyph-name="" unicode="&#x2462;" d="M309 498 q9 15 21.5 30 q12.5 15 29.5 26 q17 11 40.5 18 q23.5 7 54.5 7 q71 0 111.5 -35 q40.5 -35 40.5 -95 l0 -7 q0 -16 -4 -33 q-4 -17 -14.5 -33 q-10.5 -16 -28 -30 q-17.5 -14 -43.5 -23 q54 -11 82 -44.5 q28 -33.5 28 -79.5 l0 -13 q0 -26 -9 -52.5 q-9 -26.5 -29 -48 q-20 -21.5 -53.5 -35 q-33.5 -13.5 -81.5 -13.5 q-48 0 -87 14 q-39 14 -77 43 l23 40 q38 -28 71 -40.5 q33 -12.5 70 -12.5 q36 0 60.5 10 q24.5 10 39.5 25 q15 15 21.5 33.5 q6.5 18.5 6.5 35.5 l0 11 q0 31 -11.5 51 q-11.5 20 -29.5 31.5 q-18 11.5 -39 16 q-21 4.5 -40 4.5 l-61 0 l0 40 l65 0 q25 0 42.5 10 q17.5 10 29 25.5 q11.5 15.5 17 34.5 q5.5 19 5.5 36 l0 7 q0 39 -29 61.5 q-29 22.5 -76 22.5 q-30 0 -58.5 -12.5 q-28.5 -12.5 -51.5 -50.5 l-36 25 ZM884 306 q0 -93 -32.5 -171.5 q-32.5 -78.5 -89.5 -136 q-57 -57.5 -135.5 -90 q-78.5 -32.5 -171.5 -32.5 q-93 0 -171.5 32.5 q-78.5 32.5 -135.5 90 q-57 57.5 -89.5 136 q-32.5 78.5 -32.5 171.5 q0 93 32.5 171.5 q32.5 78.5 89.5 136 q57 57.5 135.5 90 q78.5 32.5 171.5 32.5 q93 0 171.5 -32.5 q78.5 -32.5 135.5 -90 q57 -57.5 89.5 -136 q32.5 -78.5 32.5 -171.5 ZM848 306 q0 85 -29.5 157 q-29.5 72 -82 124.5 q-52.5 52.5 -124.5 82.5 q-72 30 -157 30 q-85 0 -157 -30 q-72 -30 -124.5 -82.5 q-52.5 -52.5 -82 -124.5 q-29.5 -72 -29.5 -157 q0 -85 29.5 -157 q29.5 -72 82 -124.5 q52.5 -52.5 124.5 -82.5 q72 -30 157 -30 q85 0 157 30 q72 30 124.5 82.5 q52.5 52.5 82 124.5 q29.5 72 29.5 157 Z" /><glyph glyph-name="" unicode="&#x2463;" d="M553 375 l0 -167 l80 0 l0 -43 l-80 0 l0 -117 l-46 0 l0 117 l-265 0 l0 45 l259 363 l53 0 l-260 -365 l213 0 l0 167 l46 0 ZM884 306 q0 -93 -32.5 -171.5 q-32.5 -78.5 -89.5 -136 q-57 -57.5 -135.5 -90 q-78.5 -32.5 -171.5 -32.5 q-93 0 -171.5 32.5 q-78.5 32.5 -135.5 90 q-57 57.5 -89.5 136 q-32.5 78.5 -32.5 171.5 q0 93 32.5 171.5 q32.5 78.5 89.5 136 q57 57.5 135.5 90 q78.5 32.5 171.5 32.5 q93 0 171.5 -32.5 q78.5 -32.5 135.5 -90 q57 -57.5 89.5 -136 q32.5 -78.5 32.5 -171.5 ZM848 306 q0 85 -29.5 157 q-29.5 72 -82 124.5 q-52.5 52.5 -124.5 82.5 q-72 30 -157 30 q-85 0 -157 -30 q-72 -30 -124.5 -82.5 q-52.5 -52.5 -82 -124.5 q-29.5 -72 -29.5 -157 q0 -85 29.5 -157 q29.5 -72 82 -124.5 q52.5 -52.5 124.5 -82.5 q72 -30 157 -30 q85 0 157 30 q72 30 124.5 82.5 q52.5 52.5 82 124.5 q29.5 72 29.5 157 Z" /><glyph glyph-name="" unicode="&#x2464;" d="M591 191 q0 67 -32 98 q-32 31 -91 31 q-32 0 -59 -12.5 q-27 -12.5 -44 -29.5 l-49 0 l16 286 l269 0 l0 -42 l-225 0 l-9 -199 q18 17 50 28 q32 11 60 11 q39 0 68.5 -13 q29.5 -13 49 -36 q19.5 -23 29.5 -53.5 q10 -30.5 10 -66.5 l0 -9 q0 -29 -9.5 -56.5 q-9.5 -27.5 -30.5 -49 q-21 -21.5 -53.5 -35 q-32.5 -13.5 -78.5 -13.5 q-55 0 -96.5 15.5 q-41.5 15.5 -76.5 41.5 l26 38 q38 -29 73.5 -40.5 q35.5 -11.5 72.5 -11.5 q37 0 62 10.5 q25 10.5 40 26.5 q15 16 21.5 35.5 q6.5 19.5 6.5 37.5 l0 8 ZM884 306 q0 -93 -32.5 -171.5 q-32.5 -78.5 -89.5 -136 q-57 -57.5 -135.5 -90 q-78.5 -32.5 -171.5 -32.5 q-93 0 -171.5 32.5 q-78.5 32.5 -135.5 90 q-57 57.5 -89.5 136 q-32.5 78.5 -32.5 171.5 q0 93 32.5 171.5 q32.5 78.5 89.5 136 q57 57.5 135.5 90 q78.5 32.5 171.5 32.5 q93 0 171.5 -32.5 q78.5 -32.5 135.5 -90 q57 -57.5 89.5 -136 q32.5 -78.5 32.5 -171.5 ZM848 306 q0 85 -29.5 157 q-29.5 72 -82 124.5 q-52.5 52.5 -124.5 82.5 q-72 30 -157 30 q-85 0 -157 -30 q-72 -30 -124.5 -82.5 q-52.5 -52.5 -82 -124.5 q-29.5 -72 -29.5 -157 q0 -85 29.5 -157 q29.5 -72 82 -124.5 q52.5 -52.5 124.5 -82.5 q72 -30 157 -30 q85 0 157 30 q72 30 124.5 82.5 q52.5 52.5 82 124.5 q29.5 72 29.5 157 Z" /><glyph glyph-name="" unicode="&#x2465;" d="M583 507 q-25 14 -54.5 22.5 q-29.5 8.5 -59.5 8.5 q-39 0 -65.5 -17 q-26.5 -17 -43 -47.5 q-16.5 -30.5 -24.5 -73 q-8 -42.5 -11 -94.5 q4 12 16 26 q12 14 30 25 q18 11 41.5 18.5 q23.5 7.5 51.5 7.5 q33 0 62.5 -11.5 q29.5 -11.5 52 -33 q22.5 -21.5 36 -52 q13.5 -30.5 13.5 -69.5 l0 -16 q0 -40 -13.5 -70.5 q-13.5 -30.5 -36.5 -51.5 q-23 -21 -54 -32 q-31 -11 -66 -11 q-37 0 -69.5 12.5 q-32.5 12.5 -56.5 38.5 q-24 26 -38 66 q-14 40 -14 96 l0 15 q0 84 13 143.5 q13 59.5 37.5 97.5 q24.5 38 60 55.5 q35.5 17.5 81.5 17.5 q35 0 70 -9 q35 -9 65 -25 l-24 -37 ZM332 214 q0 -61 34.5 -99 q34.5 -38 90.5 -38 q54 0 89.5 32 q35.5 32 35.5 92 l0 12 q0 31 -10.5 55 q-10.5 24 -28.5 40.5 q-18 16.5 -40.5 25 q-22.5 8.5 -46.5 8.5 q-22 0 -44 -9 q-22 -9 -40 -24.5 q-18 -15.5 -29 -37.5 q-11 -22 -11 -47 l0 -10 ZM884 306 q0 -93 -32.5 -171.5 q-32.5 -78.5 -89.5 -136 q-57 -57.5 -135.5 -90 q-78.5 -32.5 -171.5 -32.5 q-93 0 -171.5 32.5 q-78.5 32.5 -135.5 90 q-57 57.5 -89.5 136 q-32.5 78.5 -32.5 171.5 q0 93 32.5 171.5 q32.5 78.5 89.5 136 q57 57.5 135.5 90 q78.5 32.5 171.5 32.5 q93 0 171.5 -32.5 q78.5 -32.5 135.5 -90 q57 -57.5 89.5 -136 q32.5 -78.5 32.5 -171.5 ZM848 306 q0 85 -29.5 157 q-29.5 72 -82 124.5 q-52.5 52.5 -124.5 82.5 q-72 30 -157 30 q-85 0 -157 -30 q-72 -30 -124.5 -82.5 q-52.5 -52.5 -82 -124.5 q-29.5 -72 -29.5 -157 q0 -85 29.5 -157 q29.5 -72 82 -124.5 q52.5 -52.5 124.5 -82.5 q72 -30 157 -30 q85 0 157 30 q72 30 124.5 82.5 q52.5 52.5 82 124.5 q29.5 72 29.5 157 Z" /><glyph glyph-name="" unicode="&#x2466;" d="M424 29 l-53 0 l215 485 l-299 0 l0 41 l353 0 l0 -34 l-216 -492 ZM884 306 q0 -93 -32.5 -171.5 q-32.5 -78.5 -89.5 -136 q-57 -57.5 -135.5 -90 q-78.5 -32.5 -171.5 -32.5 q-93 0 -171.5 32.5 q-78.5 32.5 -135.5 90 q-57 57.5 -89.5 136 q-32.5 78.5 -32.5 171.5 q0 93 32.5 171.5 q32.5 78.5 89.5 136 q57 57.5 135.5 90 q78.5 32.5 171.5 32.5 q93 0 171.5 -32.5 q78.5 -32.5 135.5 -90 q57 -57.5 89.5 -136 q32.5 -78.5 32.5 -171.5 ZM848 306 q0 85 -29.5 157 q-29.5 72 -82 124.5 q-52.5 52.5 -124.5 82.5 q-72 30 -157 30 q-85 0 -157 -30 q-72 -30 -124.5 -82.5 q-52.5 -52.5 -82 -124.5 q-29.5 -72 -29.5 -157 q0 -85 29.5 -157 q29.5 -72 82 -124.5 q52.5 -52.5 124.5 -82.5 q72 -30 157 -30 q85 0 157 30 q72 30 124.5 82.5 q52.5 52.5 82 124.5 q29.5 72 29.5 157 Z" /><glyph glyph-name="" unicode="&#x2467;" d="M347 434 q0 -45 29 -77.5 q29 -32.5 78 -32.5 q25 0 45 8.5 q20 8.5 34 23.5 q14 15 21.5 35 q7.5 20 7.5 43 l0 8 q0 42 -29.5 66.5 q-29.5 24.5 -78.5 24.5 q-49 0 -78 -24.5 q-29 -24.5 -29 -66.5 l0 -8 ZM333 174 q0 -21 8.5 -39.5 q8.5 -18.5 24 -32.5 q15.5 -14 38 -22 q22.5 -8 51.5 -8 q28 0 51 8 q23 8 38.5 22 q15.5 14 24 32.5 q8.5 18.5 8.5 39.5 l0 9 q0 47 -34 76 q-34 29 -88 29 q-54 0 -88 -28 q-34 -28 -34 -77 l0 -9 ZM286 185 q0 44 27.5 77 q27.5 33 71.5 47 q-37 17 -58 48 q-21 31 -21 76 l0 13 q0 28 11.5 51.5 q11.5 23.5 31 40.5 q19.5 17 46.5 26.5 q27 9.5 59 9.5 q32 0 60 -9.5 q28 -9.5 48.5 -26.5 q20.5 -17 32 -40.5 q11.5 -23.5 11.5 -51.5 l0 -13 q0 -45 -22 -76 q-22 -31 -60 -48 q44 -14 72 -47 q28 -33 28 -77 l0 -12 q0 -32 -12.5 -57.5 q-12.5 -25.5 -35 -44.5 q-22.5 -19 -54 -29 q-31.5 -10 -68.5 -10 q-37 0 -67.5 10 q-30.5 10 -53 29 q-22.5 19 -35 44.5 q-12.5 25.5 -12.5 57.5 l0 12 ZM884 306 q0 -93 -32.5 -171.5 q-32.5 -78.5 -89.5 -136 q-57 -57.5 -135.5 -90 q-78.5 -32.5 -171.5 -32.5 q-93 0 -171.5 32.5 q-78.5 32.5 -135.5 90 q-57 57.5 -89.5 136 q-32.5 78.5 -32.5 171.5 q0 93 32.5 171.5 q32.5 78.5 89.5 136 q57 57.5 135.5 90 q78.5 32.5 171.5 32.5 q93 0 171.5 -32.5 q78.5 -32.5 135.5 -90 q57 -57.5 89.5 -136 q32.5 -78.5 32.5 -171.5 ZM848 306 q0 85 -29.5 157 q-29.5 72 -82 124.5 q-52.5 52.5 -124.5 82.5 q-72 30 -157 30 q-85 0 -157 -30 q-72 -30 -124.5 -82.5 q-52.5 -52.5 -82 -124.5 q-29.5 -72 -29.5 -157 q0 -85 29.5 -157 q29.5 -72 82 -124.5 q52.5 -52.5 124.5 -82.5 q72 -30 157 -30 q85 0 157 30 q72 30 124.5 82.5 q52.5 52.5 82 124.5 q29.5 72 29.5 157 Z" /><glyph glyph-name="" unicode="&#x2468;" d="M334 109 q24 -14 52.5 -23 q28.5 -9 60.5 -9 q44 0 71.5 17 q27.5 17 43 47 q15.5 30 22 72.5 q6.5 42.5 8.5 93.5 q-5 -12 -15.5 -26 q-10.5 -14 -27 -25.5 q-16.5 -11.5 -39.5 -19.5 q-23 -8 -52 -8 q-33 0 -63 11 q-30 11 -53 31.5 q-23 20.5 -37 50.5 q-14 30 -14 69 l0 19 q0 39 13.5 70 q13.5 31 36.5 52.5 q23 21.5 54 33.5 q31 12 66 12 q35 0 67 -12 q32 -12 57 -38 q25 -26 39.5 -66.5 q14.5 -40.5 14.5 -96.5 l0 -19 q0 -87 -11.5 -146.5 q-11.5 -59.5 -35.5 -95.5 q-24 -36 -60.5 -52 q-36.5 -16 -85.5 -16 q-35 0 -68.5 9 q-33.5 9 -62.5 25 l19 40 ZM586 398 q0 30 -9 56 q-9 26 -25.5 44.5 q-16.5 18.5 -39 29 q-22.5 10.5 -49.5 10.5 q-54 0 -90 -34 q-36 -34 -36 -97 l0 -13 q0 -30 10.5 -53.5 q10.5 -23.5 27.5 -40 q17 -16.5 40 -25 q23 -8.5 47 -8.5 q23 0 45.5 9 q22.5 9 40 25 q17.5 16 28 38 q10.5 22 10.5 48 l0 11 ZM884 306 q0 -93 -32.5 -171.5 q-32.5 -78.5 -89.5 -136 q-57 -57.5 -135.5 -90 q-78.5 -32.5 -171.5 -32.5 q-93 0 -171.5 32.5 q-78.5 32.5 -135.5 90 q-57 57.5 -89.5 136 q-32.5 78.5 -32.5 171.5 q0 93 32.5 171.5 q32.5 78.5 89.5 136 q57 57.5 135.5 90 q78.5 32.5 171.5 32.5 q93 0 171.5 -32.5 q78.5 -32.5 135.5 -90 q57 -57.5 89.5 -136 q32.5 -78.5 32.5 -171.5 ZM848 306 q0 85 -29.5 157 q-29.5 72 -82 124.5 q-52.5 52.5 -124.5 82.5 q-72 30 -157 30 q-85 0 -157 -30 q-72 -30 -124.5 -82.5 q-52.5 -52.5 -82 -124.5 q-29.5 -72 -29.5 -157 q0 -85 29.5 -157 q29.5 -72 82 -124.5 q52.5 -52.5 124.5 -82.5 q72 -30 157 -30 q85 0 157 30 q72 30 124.5 82.5 q52.5 52.5 82 124.5 q29.5 72 29.5 157 Z" /><glyph glyph-name="" unicode="&#x2469;" d="M315 41 l0 476 l-129 -80 l-20 27 l161 103 l28 0 l0 -526 l-40 0 ZM566 33 q-63 0 -97 59 q-34 59 -34 171 l0 81 q0 112 34 171 q34 59 97 59 q63 0 97 -59 q34 -59 34 -171 l0 -81 q0 -112 -34 -171 q-34 -59 -97 -59 ZM566 533 q-38 0 -64.5 -44.5 q-26.5 -44.5 -26.5 -142.5 l0 -85 q0 -98 26.5 -142.5 q26.5 -44.5 64.5 -44.5 q38 0 64.5 44.5 q26.5 44.5 26.5 142.5 l0 85 q0 98 -26.5 142.5 q-26.5 44.5 -64.5 44.5 ZM884 306 q0 -93 -32.5 -171.5 q-32.5 -78.5 -89.5 -136 q-57 -57.5 -135.5 -90 q-78.5 -32.5 -171.5 -32.5 q-93 0 -171.5 32.5 q-78.5 32.5 -135.5 90 q-57 57.5 -89.5 136 q-32.5 78.5 -32.5 171.5 q0 93 32.5 171.5 q32.5 78.5 89.5 136 q57 57.5 135.5 90 q78.5 32.5 171.5 32.5 q93 0 171.5 -32.5 q78.5 -32.5 135.5 -90 q57 -57.5 89.5 -136 q32.5 -78.5 32.5 -171.5 ZM848 306 q0 85 -29.5 157 q-29.5 72 -82 124.5 q-52.5 52.5 -124.5 82.5 q-72 30 -157 30 q-85 0 -157 -30 q-72 -30 -124.5 -82.5 q-52.5 -52.5 -82 -124.5 q-29.5 -72 -29.5 -157 q0 -85 29.5 -157 q29.5 -72 82 -124.5 q52.5 -52.5 124.5 -82.5 q72 -30 157 -30 q85 0 157 30 q72 30 124.5 82.5 q52.5 52.5 82 124.5 q29.5 72 29.5 157 Z" /><glyph glyph-name="" unicode="&#x246a;" d="M336 41 l0 470 l-109 -74 l-20 27 l141 103 l28 0 l0 -526 l-40 0 ZM599 41 l0 470 l-109 -74 l-20 27 l141 103 l28 0 l0 -526 l-40 0 ZM884 306 q0 -93 -32.5 -171.5 q-32.5 -78.5 -89.5 -136 q-57 -57.5 -135.5 -90 q-78.5 -32.5 -171.5 -32.5 q-93 0 -171.5 32.5 q-78.5 32.5 -135.5 90 q-57 57.5 -89.5 136 q-32.5 78.5 -32.5 171.5 q0 93 32.5 171.5 q32.5 78.5 89.5 136 q57 57.5 135.5 90 q78.5 32.5 171.5 32.5 q93 0 171.5 -32.5 q78.5 -32.5 135.5 -90 q57 -57.5 89.5 -136 q32.5 -78.5 32.5 -171.5 ZM848 306 q0 85 -29.5 157 q-29.5 72 -82 124.5 q-52.5 52.5 -124.5 82.5 q-72 30 -157 30 q-85 0 -157 -30 q-72 -30 -124.5 -82.5 q-52.5 -52.5 -82 -124.5 q-29.5 -72 -29.5 -157 q0 -85 29.5 -157 q29.5 -72 82 -124.5 q52.5 -52.5 124.5 -82.5 q72 -30 157 -30 q85 0 157 30 q72 30 124.5 82.5 q52.5 52.5 82 124.5 q29.5 72 29.5 157 Z" /><glyph glyph-name="" unicode="&#x246b;" d="M591 303 q27 35 36.5 64 q9.5 29 9.5 59 l0 15 q0 16 -5 33 q-5 17 -15.5 30.5 q-10.5 13.5 -27 22 q-16.5 8.5 -40.5 8.5 q-15 0 -29 -2.5 q-14 -2.5 -27 -10.5 q-13 -8 -26 -22 q-13 -14 -25 -37 l-37 21 q20 42 53.5 66.5 q33.5 24.5 89.5 24.5 q29 0 53 -10.5 q24 -10.5 41 -28.5 q17 -18 26 -42.5 q9 -24.5 9 -52.5 l0 -7 q0 -21 -2.5 -39.5 q-2.5 -18.5 -8.5 -36 q-6 -17.5 -16 -35.5 q-10 -18 -26 -39 l-154 -202 l229 0 l0 -41 l-283 0 l0 37 l175 225 ZM295 41 l0 470 l-109 -74 l-20 27 l141 103 l28 0 l0 -526 l-40 0 ZM884 306 q0 -93 -32.5 -171.5 q-32.5 -78.5 -89.5 -136 q-57 -57.5 -135.5 -90 q-78.5 -32.5 -171.5 -32.5 q-93 0 -171.5 32.5 q-78.5 32.5 -135.5 90 q-57 57.5 -89.5 136 q-32.5 78.5 -32.5 171.5 q0 93 32.5 171.5 q32.5 78.5 89.5 136 q57 57.5 135.5 90 q78.5 32.5 171.5 32.5 q93 0 171.5 -32.5 q78.5 -32.5 135.5 -90 q57 -57.5 89.5 -136 q32.5 -78.5 32.5 -171.5 ZM848 306 q0 85 -29.5 157 q-29.5 72 -82 124.5 q-52.5 52.5 -124.5 82.5 q-72 30 -157 30 q-85 0 -157 -30 q-72 -30 -124.5 -82.5 q-52.5 -52.5 -82 -124.5 q-29.5 -72 -29.5 -157 q0 -85 29.5 -157 q29.5 -72 82 -124.5 q52.5 -52.5 124.5 -82.5 q72 -30 157 -30 q85 0 157 30 q72 30 124.5 82.5 q52.5 52.5 82 124.5 q29.5 72 29.5 157 Z" /><glyph glyph-name="" unicode="&#x246c;" d="M420 494 q18 31 50 56 q32 25 79 25 q71 0 105.5 -37.5 q34.5 -37.5 34.5 -92.5 l0 -7 q0 -16 -4 -33.5 q-4 -17.5 -14 -34 q-10 -16.5 -27 -30 q-17 -13.5 -43 -22.5 q54 -8 81 -42.5 q27 -34.5 27 -80.5 l0 -13 q0 -26 -9.5 -52.5 q-9.5 -26.5 -29.5 -48 q-20 -21.5 -51.5 -35 q-31.5 -13.5 -76.5 -13.5 q-47 0 -79 15 q-32 15 -62 42 l23 40 q29 -28 57 -40.5 q28 -12.5 61 -12.5 q33 0 57 10 q24 10 39.5 25 q15.5 15 22.5 33.5 q7 18.5 7 35.5 l0 11 q0 31 -11 51 q-11 20 -28.5 31.5 q-17.5 11.5 -38 16 q-20.5 4.5 -39.5 4.5 l-50 0 l0 40 l51 0 q23 0 40.5 9 q17.5 9 29.5 24.5 q12 15.5 18 35 q6 19.5 6 40.5 l0 7 q0 34 -23 57.5 q-23 23.5 -74 23.5 q-17 0 -42 -12 q-25 -12 -51 -51 l-36 25 ZM295 41 l0 470 l-109 -74 l-20 27 l141 103 l28 0 l0 -526 l-40 0 ZM884 306 q0 -93 -32.5 -171.5 q-32.5 -78.5 -89.5 -136 q-57 -57.5 -135.5 -90 q-78.5 -32.5 -171.5 -32.5 q-93 0 -171.5 32.5 q-78.5 32.5 -135.5 90 q-57 57.5 -89.5 136 q-32.5 78.5 -32.5 171.5 q0 93 32.5 171.5 q32.5 78.5 89.5 136 q57 57.5 135.5 90 q78.5 32.5 171.5 32.5 q93 0 171.5 -32.5 q78.5 -32.5 135.5 -90 q57 -57.5 89.5 -136 q32.5 -78.5 32.5 -171.5 ZM848 306 q0 85 -29.5 157 q-29.5 72 -82 124.5 q-52.5 52.5 -124.5 82.5 q-72 30 -157 30 q-85 0 -157 -30 q-72 -30 -124.5 -82.5 q-52.5 -52.5 -82 -124.5 q-29.5 -72 -29.5 -157 q0 -85 29.5 -157 q29.5 -72 82 -124.5 q52.5 -52.5 124.5 -82.5 q72 -30 157 -30 q85 0 157 30 q72 30 124.5 82.5 q52.5 52.5 82 124.5 q29.5 72 29.5 157 Z" /><glyph glyph-name="" unicode="&#x246d;" d="M661 368 l0 -165 l74 0 l0 -45 l-74 0 l0 -117 l-44 0 l0 117 l-211 0 l0 47 l177 361 l51 0 l-178 -363 l161 0 l0 165 l44 0 ZM295 41 l0 470 l-109 -74 l-20 27 l141 103 l28 0 l0 -526 l-40 0 ZM884 306 q0 -93 -32.5 -171.5 q-32.5 -78.5 -89.5 -136 q-57 -57.5 -135.5 -90 q-78.5 -32.5 -171.5 -32.5 q-93 0 -171.5 32.5 q-78.5 32.5 -135.5 90 q-57 57.5 -89.5 136 q-32.5 78.5 -32.5 171.5 q0 93 32.5 171.5 q32.5 78.5 89.5 136 q57 57.5 135.5 90 q78.5 32.5 171.5 32.5 q93 0 171.5 -32.5 q78.5 -32.5 135.5 -90 q57 -57.5 89.5 -136 q32.5 -78.5 32.5 -171.5 ZM848 306 q0 85 -29.5 157 q-29.5 72 -82 124.5 q-52.5 52.5 -124.5 82.5 q-72 30 -157 30 q-85 0 -157 -30 q-72 -30 -124.5 -82.5 q-52.5 -52.5 -82 -124.5 q-29.5 -72 -29.5 -157 q0 -85 29.5 -157 q29.5 -72 82 -124.5 q52.5 -52.5 124.5 -82.5 q72 -30 157 -30 q85 0 157 30 q72 30 124.5 82.5 q52.5 52.5 82 124.5 q29.5 72 29.5 157 Z" /><glyph glyph-name="" unicode="&#x246e;" d="M295 41 l0 470 l-109 -74 l-20 27 l141 103 l28 0 l0 -526 l-40 0 ZM669 195 q0 64 -23 95 q-23 31 -74 31 q-20 0 -48 -11 q-28 -11 -47 -32 l-44 0 l17 286 l227 0 l0 -42 l-187 0 l-9 -199 q11 14 35 26.5 q24 12.5 53 12.5 q31 0 57 -9 q26 -9 44.5 -29 q18.5 -20 29 -51.5 q10.5 -31.5 10.5 -75.5 l0 -9 q0 -29 -9 -57 q-9 -28 -28.5 -50.5 q-19.5 -22.5 -49 -36.5 q-29.5 -14 -71.5 -14 q-25 0 -45 4.5 q-20 4.5 -37 12 q-17 7.5 -32.5 18 q-15.5 10.5 -30.5 22.5 l26 37 q29 -27 56.5 -39.5 q27.5 -12.5 61.5 -12.5 q30 0 52 10 q22 10 37 26 q15 16 22 36.5 q7 20.5 7 42.5 l0 8 ZM884 306 q0 -93 -32.5 -171.5 q-32.5 -78.5 -89.5 -136 q-57 -57.5 -135.5 -90 q-78.5 -32.5 -171.5 -32.5 q-93 0 -171.5 32.5 q-78.5 32.5 -135.5 90 q-57 57.5 -89.5 136 q-32.5 78.5 -32.5 171.5 q0 93 32.5 171.5 q32.5 78.5 89.5 136 q57 57.5 135.5 90 q78.5 32.5 171.5 32.5 q93 0 171.5 -32.5 q78.5 -32.5 135.5 -90 q57 -57.5 89.5 -136 q32.5 -78.5 32.5 -171.5 ZM848 306 q0 85 -29.5 157 q-29.5 72 -82 124.5 q-52.5 52.5 -124.5 82.5 q-72 30 -157 30 q-85 0 -157 -30 q-72 -30 -124.5 -82.5 q-52.5 -52.5 -82 -124.5 q-29.5 -72 -29.5 -157 q0 -85 29.5 -157 q29.5 -72 82 -124.5 q52.5 -52.5 124.5 -82.5 q72 -30 157 -30 q85 0 157 30 q72 30 124.5 82.5 q52.5 52.5 82 124.5 q29.5 72 29.5 157 Z" /><glyph glyph-name="" unicode="&#x246f;" d="" /><glyph glyph-name="" unicode="&#x2470;" d="" /><glyph glyph-name="" unicode="&#x2471;" d="" /><glyph glyph-name="" unicode="&#x2472;" d="" /><glyph glyph-name="" unicode="&#x2473;" d="" /><glyph glyph-name="" unicode="&#x2474;" d="M188 684 q-32 -47 -52.5 -93.5 q-20.5 -46.5 -32.5 -91.5 q-12 -45 -16.5 -87.5 q-4.5 -42.5 -4.5 -79.5 l0 -46 q0 -36 4 -77.5 q4 -41.5 15.5 -87.5 q11.5 -46 32 -94.5 q20.5 -48.5 54.5 -98.5 l-48 0 q-32 42 -53.5 89 q-21.5 47 -34.5 94 q-13 47 -18.5 93 q-5.5 46 -5.5 87 l0 36 q0 40 5.5 85 q5.5 45 18.5 91.5 q13 46.5 34.5 92.5 q21.5 46 53.5 88 l48 0 ZM770 684 q32 -42 53.5 -88 q21.5 -46 34.5 -92.5 q13 -46.5 18.5 -91.5 q5.5 -45 5.5 -85 l0 -36 q0 -41 -5.5 -87 q-5.5 -46 -18.5 -93 q-13 -47 -34.5 -94 q-21.5 -47 -53.5 -89 l-48 0 q34 50 54.5 98.5 q20.5 48.5 32 94.5 q11.5 46 15.5 87.5 q4 41.5 4 77.5 l0 46 q0 37 -5 79.5 q-5 42.5 -17 87.5 q-12 45 -32.5 91.5 q-20.5 46.5 -51.5 93.5 l48 0 ZM477 15 l0 517 l-139 -86 l-20 34 l174 112 l30 0 l0 -577 l-45 0 Z" /><glyph glyph-name="" unicode="&#x2475;" d="M188 684 q-32 -47 -52.5 -93.5 q-20.5 -46.5 -32.5 -91.5 q-12 -45 -16.5 -87.5 q-4.5 -42.5 -4.5 -79.5 l0 -46 q0 -36 4 -77.5 q4 -41.5 15.5 -87.5 q11.5 -46 32 -94.5 q20.5 -48.5 54.5 -98.5 l-48 0 q-32 42 -53.5 89 q-21.5 47 -34.5 94 q-13 47 -18.5 93 q-5.5 46 -5.5 87 l0 36 q0 40 5.5 85 q5.5 45 18.5 91.5 q13 46.5 34.5 92.5 q21.5 46 53.5 88 l48 0 ZM770 684 q32 -42 53.5 -88 q21.5 -46 34.5 -92.5 q13 -46.5 18.5 -91.5 q5.5 -45 5.5 -85 l0 -36 q0 -41 -5.5 -87 q-5.5 -46 -18.5 -93 q-13 -47 -34.5 -94 q-21.5 -47 -53.5 -89 l-48 0 q34 50 54.5 98.5 q20.5 48.5 32 94.5 q11.5 46 15.5 87.5 q4 41.5 4 77.5 l0 46 q0 37 -5 79.5 q-5 42.5 -17 87.5 q-12 45 -32.5 91.5 q-20.5 46.5 -51.5 93.5 l48 0 ZM506 315 q24 28 38.5 49 q14.5 21 22.5 37 q8 16 11 28.5 q3 12.5 3 24.5 l0 6 q0 48 -32 73.5 q-32 25.5 -82 25.5 q-41 0 -74.5 -18.5 q-33.5 -18.5 -64.5 -69.5 l-35 21 q10 19 25 38.5 q15 19.5 36 35 q21 15.5 48 25.5 q27 10 62 10 q35 0 65 -9 q30 -9 51.5 -27 q21.5 -18 34 -44 q12.5 -26 12.5 -59 l0 -8 q0 -23 -8.5 -45.5 q-8.5 -22.5 -22.5 -44 q-14 -21.5 -31 -43.5 q-17 -22 -35 -44 l-183 -220 l301 0 l0 -42 l-357 0 l0 39 l215 261 Z" /><glyph glyph-name="" unicode="&#x2476;" d="M188 684 q-32 -47 -52.5 -93.5 q-20.5 -46.5 -32.5 -91.5 q-12 -45 -16.5 -87.5 q-4.5 -42.5 -4.5 -79.5 l0 -46 q0 -36 4 -77.5 q4 -41.5 15.5 -87.5 q11.5 -46 32 -94.5 q20.5 -48.5 54.5 -98.5 l-48 0 q-32 42 -53.5 89 q-21.5 47 -34.5 94 q-13 47 -18.5 93 q-5.5 46 -5.5 87 l0 36 q0 40 5.5 85 q5.5 45 18.5 91.5 q13 46.5 34.5 92.5 q21.5 46 53.5 88 l48 0 ZM770 684 q32 -42 53.5 -88 q21.5 -46 34.5 -92.5 q13 -46.5 18.5 -91.5 q5.5 -45 5.5 -85 l0 -36 q0 -41 -5.5 -87 q-5.5 -46 -18.5 -93 q-13 -47 -34.5 -94 q-21.5 -47 -53.5 -89 l-48 0 q34 50 54.5 98.5 q20.5 48.5 32 94.5 q11.5 46 15.5 87.5 q4 41.5 4 77.5 l0 46 q0 37 -5 79.5 q-5 42.5 -17 87.5 q-12 45 -32.5 91.5 q-20.5 46.5 -51.5 93.5 l48 0 ZM302 509 q10 17 24 33.5 q14 16.5 33.5 29 q19.5 12.5 45.5 20.5 q26 8 59 8 q78 0 121.5 -39 q43.5 -39 43.5 -104 l0 -8 q0 -18 -6 -38 q-6 -20 -18.5 -38.5 q-12.5 -18.5 -32.5 -33.5 q-20 -15 -47 -21 q60 -10 92 -48 q32 -38 32 -89 l0 -12 q0 -31 -9 -60.5 q-9 -29.5 -30.5 -52.5 q-21.5 -23 -57 -37 q-35.5 -14 -88.5 -14 q-101 0 -181 64 l21 36 q42 -31 80 -45 q38 -14 80 -14 q40 0 67.5 11.5 q27.5 11.5 44 29 q16.5 17.5 23.5 39 q7 21.5 7 41.5 l0 10 q0 35 -14.5 58 q-14.5 23 -35.5 36 q-21 13 -44.5 18 q-23.5 5 -41.5 5 l-68 0 l0 42 l68 0 q24 0 44.5 8.5 q20.5 8.5 35.5 23.5 q15 15 23.5 36 q8.5 21 8.5 47 l0 6 q0 46 -31.5 73.5 q-31.5 27.5 -85.5 27.5 q-32 0 -65 -14.5 q-33 -14.5 -59 -58.5 l-39 24 Z" /><glyph glyph-name="" unicode="&#x2477;" d="M188 684 q-32 -47 -52.5 -93.5 q-20.5 -46.5 -32.5 -91.5 q-12 -45 -16.5 -87.5 q-4.5 -42.5 -4.5 -79.5 l0 -46 q0 -36 4 -77.5 q4 -41.5 15.5 -87.5 q11.5 -46 32 -94.5 q20.5 -48.5 54.5 -98.5 l-48 0 q-32 42 -53.5 89 q-21.5 47 -34.5 94 q-13 47 -18.5 93 q-5.5 46 -5.5 87 l0 36 q0 40 5.5 85 q5.5 45 18.5 91.5 q13 46.5 34.5 92.5 q21.5 46 53.5 88 l48 0 ZM770 684 q32 -42 53.5 -88 q21.5 -46 34.5 -92.5 q13 -46.5 18.5 -91.5 q5.5 -45 5.5 -85 l0 -36 q0 -41 -5.5 -87 q-5.5 -46 -18.5 -93 q-13 -47 -34.5 -94 q-21.5 -47 -53.5 -89 l-48 0 q34 50 54.5 98.5 q20.5 48.5 32 94.5 q11.5 46 15.5 87.5 q4 41.5 4 77.5 l0 46 q0 37 -5 79.5 q-5 42.5 -17 87.5 q-12 45 -32.5 91.5 q-20.5 46.5 -51.5 93.5 l48 0 ZM583 372 l0 -184 l86 0 l0 -43 l-86 0 l0 -130 l-44 0 l0 130 l-289 0 l0 47 l284 400 l52 0 l-286 -404 l239 0 l0 184 l44 0 Z" /><glyph glyph-name="" unicode="&#x2478;" d="M188 684 q-32 -47 -52.5 -93.5 q-20.5 -46.5 -32.5 -91.5 q-12 -45 -16.5 -87.5 q-4.5 -42.5 -4.5 -79.5 l0 -46 q0 -36 4 -77.5 q4 -41.5 15.5 -87.5 q11.5 -46 32 -94.5 q20.5 -48.5 54.5 -98.5 l-48 0 q-32 42 -53.5 89 q-21.5 47 -34.5 94 q-13 47 -18.5 93 q-5.5 46 -5.5 87 l0 36 q0 40 5.5 85 q5.5 45 18.5 91.5 q13 46.5 34.5 92.5 q21.5 46 53.5 88 l48 0 ZM770 684 q32 -42 53.5 -88 q21.5 -46 34.5 -92.5 q13 -46.5 18.5 -91.5 q5.5 -45 5.5 -85 l0 -36 q0 -41 -5.5 -87 q-5.5 -46 -18.5 -93 q-13 -47 -34.5 -94 q-21.5 -47 -53.5 -89 l-48 0 q34 50 54.5 98.5 q20.5 48.5 32 94.5 q11.5 46 15.5 87.5 q4 41.5 4 77.5 l0 46 q0 37 -5 79.5 q-5 42.5 -17 87.5 q-12 45 -32.5 91.5 q-20.5 46.5 -51.5 93.5 l48 0 ZM617 182 q0 75 -36 109 q-36 34 -101 34 q-35 0 -64.5 -13.5 q-29.5 -13.5 -49.5 -32.5 l-50 0 q5 78 10 155.5 q5 77.5 10 155.5 l287 0 l0 -43 l-250 0 q-2 -57 -3.5 -112 q-1.5 -55 -3.5 -112 q9 10 23 18 q14 8 31 14 q17 6 35.5 9 q18.5 3 35.5 3 q43 0 75 -13.5 q32 -13.5 53 -38 q21 -24.5 31 -57.5 q10 -33 10 -72 l0 -14 q0 -30 -9.5 -60 q-9.5 -30 -32 -54 q-22.5 -24 -59 -39 q-36.5 -15 -90.5 -15 q-60 0 -104 17.5 q-44 17.5 -80 45.5 l24 39 q42 -34 81 -47.5 q39 -13.5 78 -13.5 q43 0 71.5 12 q28.5 12 45.5 30.5 q17 18.5 24.5 40.5 q7.5 22 7.5 42 l0 12 Z" /><glyph glyph-name="" unicode="&#x2479;" d="M188 684 q-32 -47 -52.5 -93.5 q-20.5 -46.5 -32.5 -91.5 q-12 -45 -16.5 -87.5 q-4.5 -42.5 -4.5 -79.5 l0 -46 q0 -36 4 -77.5 q4 -41.5 15.5 -87.5 q11.5 -46 32 -94.5 q20.5 -48.5 54.5 -98.5 l-48 0 q-32 42 -53.5 89 q-21.5 47 -34.5 94 q-13 47 -18.5 93 q-5.5 46 -5.5 87 l0 36 q0 40 5.5 85 q5.5 45 18.5 91.5 q13 46.5 34.5 92.5 q21.5 46 53.5 88 l48 0 ZM770 684 q32 -42 53.5 -88 q21.5 -46 34.5 -92.5 q13 -46.5 18.5 -91.5 q5.5 -45 5.5 -85 l0 -36 q0 -41 -5.5 -87 q-5.5 -46 -18.5 -93 q-13 -47 -34.5 -94 q-21.5 -47 -53.5 -89 l-48 0 q34 50 54.5 98.5 q20.5 48.5 32 94.5 q11.5 46 15.5 87.5 q4 41.5 4 77.5 l0 46 q0 37 -5 79.5 q-5 42.5 -17 87.5 q-12 45 -32.5 91.5 q-20.5 46.5 -51.5 93.5 l48 0 ZM610 525 q-27 14 -59 24 q-32 10 -65 10 q-45 0 -75 -20 q-30 -20 -48.5 -55 q-18.5 -35 -27.5 -84 q-9 -49 -13 -106 q7 13 19 28.5 q12 15.5 30 28.5 q18 13 43 22 q25 9 58 9 q37 0 70 -11.5 q33 -11.5 58.5 -33.5 q25.5 -22 40.5 -55 q15 -33 15 -75 l0 -20 q0 -43 -14.5 -77 q-14.5 -34 -40 -57.5 q-25.5 -23.5 -59 -36 q-33.5 -12.5 -72.5 -12.5 q-37 0 -71 13.5 q-34 13.5 -60.5 42 q-26.5 28.5 -42.5 72.5 q-16 44 -16 105 l0 13 q0 93 13.5 159 q13.5 66 40 108 q26.5 42 65 62 q38.5 20 88.5 20 q39 0 76.5 -11.5 q37.5 -11.5 69.5 -28.5 l-23 -34 ZM329 201 q0 -35 10.5 -64 q10.5 -29 29.5 -50 q19 -21 45 -32.5 q26 -11.5 56 -11.5 q62 0 102.5 38 q40.5 38 40.5 108 l0 12 q0 34 -12.5 61 q-12.5 27 -32.5 45.5 q-20 18.5 -45.5 28 q-25.5 9.5 -51.5 9.5 q-25 0 -50 -10 q-25 -10 -45.5 -28 q-20.5 -18 -33.5 -42.5 q-13 -24.5 -13 -54.5 l0 -9 Z" /><glyph glyph-name="" unicode="&#x247a;" d="M188 684 q-32 -47 -52.5 -93.5 q-20.5 -46.5 -32.5 -91.5 q-12 -45 -16.5 -87.5 q-4.5 -42.5 -4.5 -79.5 l0 -46 q0 -36 4 -77.5 q4 -41.5 15.5 -87.5 q11.5 -46 32 -94.5 q20.5 -48.5 54.5 -98.5 l-48 0 q-32 42 -53.5 89 q-21.5 47 -34.5 94 q-13 47 -18.5 93 q-5.5 46 -5.5 87 l0 36 q0 40 5.5 85 q5.5 45 18.5 91.5 q13 46.5 34.5 92.5 q21.5 46 53.5 88 l48 0 ZM770 684 q32 -42 53.5 -88 q21.5 -46 34.5 -92.5 q13 -46.5 18.5 -91.5 q5.5 -45 5.5 -85 l0 -36 q0 -41 -5.5 -87 q-5.5 -46 -18.5 -93 q-13 -47 -34.5 -94 q-21.5 -47 -53.5 -89 l-48 0 q34 50 54.5 98.5 q20.5 48.5 32 94.5 q11.5 46 15.5 87.5 q4 41.5 4 77.5 l0 46 q0 37 -5 79.5 q-5 42.5 -17 87.5 q-12 45 -32.5 91.5 q-20.5 46.5 -51.5 93.5 l48 0 ZM426 5 l-52 0 l238 535 l-330 0 l0 42 l381 0 l0 -34 l-237 -543 Z" /><glyph glyph-name="" unicode="&#x247b;" d="M188 684 q-32 -47 -52.5 -93.5 q-20.5 -46.5 -32.5 -91.5 q-12 -45 -16.5 -87.5 q-4.5 -42.5 -4.5 -79.5 l0 -46 q0 -36 4 -77.5 q4 -41.5 15.5 -87.5 q11.5 -46 32 -94.5 q20.5 -48.5 54.5 -98.5 l-48 0 q-32 42 -53.5 89 q-21.5 47 -34.5 94 q-13 47 -18.5 93 q-5.5 46 -5.5 87 l0 36 q0 40 5.5 85 q5.5 45 18.5 91.5 q13 46.5 34.5 92.5 q21.5 46 53.5 88 l48 0 ZM770 684 q32 -42 53.5 -88 q21.5 -46 34.5 -92.5 q13 -46.5 18.5 -91.5 q5.5 -45 5.5 -85 l0 -36 q0 -41 -5.5 -87 q-5.5 -46 -18.5 -93 q-13 -47 -34.5 -94 q-21.5 -47 -53.5 -89 l-48 0 q34 50 54.5 98.5 q20.5 48.5 32 94.5 q11.5 46 15.5 87.5 q4 41.5 4 77.5 l0 46 q0 37 -5 79.5 q-5 42.5 -17 87.5 q-12 45 -32.5 91.5 q-20.5 46.5 -51.5 93.5 l48 0 ZM336 448 q0 -25 8 -47.5 q8 -22.5 24 -40 q16 -17.5 38 -27.5 q22 -10 51 -10 q29 0 51.5 10 q22.5 10 38.5 27.5 q16 17.5 24 40 q8 22.5 8 47.5 l0 10 q0 45 -33.5 73 q-33.5 28 -88.5 28 q-56 0 -88.5 -28 q-32.5 -28 -32.5 -73 l0 -10 ZM319 157 q0 -23 9.5 -43 q9.5 -20 27.5 -36 q18 -16 43.5 -25 q25.5 -9 57.5 -9 q32 0 57.5 9 q25.5 9 43.5 25 q18 16 27.5 36 q9.5 20 9.5 43 l0 11 q0 54 -38 88 q-38 34 -100 34 q-30 0 -55.5 -9 q-25.5 -9 -44 -25.5 q-18.5 -16.5 -28.5 -38.5 q-10 -22 -10 -49 l0 -11 ZM275 172 q0 48 29.5 84.5 q29.5 36.5 80.5 50.5 q-43 20 -66.5 53.5 q-23.5 33.5 -23.5 84.5 l0 14 q0 30 13 56 q13 26 35 44.5 q22 18.5 51.5 29 q29.5 10.5 62.5 10.5 q34 0 63.5 -10.5 q29.5 -10.5 51.5 -29 q22 -18.5 35 -44.5 q13 -26 13 -56 l0 -14 q0 -51 -25 -85.5 q-25 -34.5 -67 -52.5 q51 -14 81.5 -50.5 q30.5 -36.5 30.5 -84.5 l0 -14 q0 -35 -13.5 -63 q-13.5 -28 -38 -48.5 q-24.5 -20.5 -58 -31.5 q-33.5 -11 -73.5 -11 q-40 0 -73.5 11 q-33.5 11 -57.5 31.5 q-24 20.5 -37.5 48.5 q-13.5 28 -13.5 63 l0 14 Z" /><glyph glyph-name="" unicode="&#x247c;" d="M188 684 q-32 -47 -52.5 -93.5 q-20.5 -46.5 -32.5 -91.5 q-12 -45 -16.5 -87.5 q-4.5 -42.5 -4.5 -79.5 l0 -46 q0 -36 4 -77.5 q4 -41.5 15.5 -87.5 q11.5 -46 32 -94.5 q20.5 -48.5 54.5 -98.5 l-48 0 q-32 42 -53.5 89 q-21.5 47 -34.5 94 q-13 47 -18.5 93 q-5.5 46 -5.5 87 l0 36 q0 40 5.5 85 q5.5 45 18.5 91.5 q13 46.5 34.5 92.5 q21.5 46 53.5 88 l48 0 ZM770 684 q32 -42 53.5 -88 q21.5 -46 34.5 -92.5 q13 -46.5 18.5 -91.5 q5.5 -45 5.5 -85 l0 -36 q0 -41 -5.5 -87 q-5.5 -46 -18.5 -93 q-13 -47 -34.5 -94 q-21.5 -47 -53.5 -89 l-48 0 q34 50 54.5 98.5 q20.5 48.5 32 94.5 q11.5 46 15.5 87.5 q4 41.5 4 77.5 l0 46 q0 37 -5 79.5 q-5 42.5 -17 87.5 q-12 45 -32.5 91.5 q-20.5 46.5 -51.5 93.5 l48 0 ZM320 79 q27 -16 58 -25 q31 -9 66 -9 q51 0 84 20.5 q33 20.5 51 56 q18 35.5 24.5 83 q6.5 47.5 5.5 102.5 q-6 -13 -17.5 -28.5 q-11.5 -15.5 -30 -29.5 q-18.5 -14 -44 -23.5 q-25.5 -9.5 -59.5 -9.5 q-36 0 -69.5 11.5 q-33.5 11.5 -59 34 q-25.5 22.5 -40.5 55.5 q-15 33 -15 76 l0 21 q0 43 14.5 77.5 q14.5 34.5 40 58.5 q25.5 24 59.5 36.5 q34 12.5 72 12.5 q36 0 70.5 -14 q34.5 -14 61.5 -43 q27 -29 43.5 -73.5 q16.5 -44.5 16.5 -106.5 l0 -20 q0 -96 -12.5 -161 q-12.5 -65 -38 -104 q-25.5 -39 -65.5 -56 q-40 -17 -94 -17 q-39 0 -75 10.5 q-36 10.5 -68 27.5 l21 37 ZM601 400 q0 35 -10.5 64 q-10.5 29 -29.5 50 q-19 21 -45 33 q-26 12 -56 12 q-30 0 -56 -10 q-26 -10 -45.5 -29.5 q-19.5 -19.5 -30.5 -47 q-11 -27.5 -11 -62.5 l0 -12 q0 -35 12.5 -61.5 q12.5 -26.5 32.5 -45.5 q20 -19 45.5 -28.5 q25.5 -9.5 51.5 -9.5 q25 0 50 10.5 q25 10.5 45.5 28.5 q20.5 18 33.5 43 q13 25 13 54 l0 11 Z" /><glyph glyph-name="" unicode="&#x247d;" d="M188 684 q-32 -47 -52.5 -93.5 q-20.5 -46.5 -32.5 -91.5 q-12 -45 -16.5 -87.5 q-4.5 -42.5 -4.5 -79.5 l0 -46 q0 -36 4 -77.5 q4 -41.5 15.5 -87.5 q11.5 -46 32 -94.5 q20.5 -48.5 54.5 -98.5 l-48 0 q-32 42 -53.5 89 q-21.5 47 -34.5 94 q-13 47 -18.5 93 q-5.5 46 -5.5 87 l0 36 q0 40 5.5 85 q5.5 45 18.5 91.5 q13 46.5 34.5 92.5 q21.5 46 53.5 88 l48 0 ZM770 684 q32 -42 53.5 -88 q21.5 -46 34.5 -92.5 q13 -46.5 18.5 -91.5 q5.5 -45 5.5 -85 l0 -36 q0 -41 -5.5 -87 q-5.5 -46 -18.5 -93 q-13 -47 -34.5 -94 q-21.5 -47 -53.5 -89 l-48 0 q34 50 54.5 98.5 q20.5 48.5 32 94.5 q11.5 46 15.5 87.5 q4 41.5 4 77.5 l0 46 q0 37 -5 79.5 q-5 42.5 -17 87.5 q-12 45 -32.5 91.5 q-20.5 46.5 -51.5 93.5 l48 0 ZM299 15 l0 513 l-114 -82 l-23 33 l150 113 l29 0 l0 -577 l-42 0 ZM710 258 q0 -61 -7 -108 q-7 -47 -23.5 -79.5 q-16.5 -32.5 -43.5 -49 q-27 -16.5 -67 -16.5 q-40 0 -66.5 16.5 q-26.5 16.5 -42.5 49 q-16 32.5 -23 79.5 q-7 47 -7 108 l0 90 q0 60 7.5 107 q7.5 47 24 79.5 q16.5 32.5 43 49 q26.5 16.5 64.5 16.5 q39 0 66 -16.5 q27 -16.5 43.5 -49 q16.5 -32.5 24 -79.5 q7.5 -47 7.5 -107 l0 -90 ZM663 348 q0 109 -21.5 158.5 q-21.5 49.5 -72.5 49.5 q-48 0 -69.5 -50.5 q-21.5 -50.5 -21.5 -157.5 l0 -91 q0 -108 21.5 -159 q21.5 -51 69.5 -51 q51 0 72.5 50.5 q21.5 50.5 21.5 159.5 l0 91 Z" /><glyph glyph-name="" unicode="&#x247e;" d="M188 684 q-32 -47 -52.5 -93.5 q-20.5 -46.5 -32.5 -91.5 q-12 -45 -16.5 -87.5 q-4.5 -42.5 -4.5 -79.5 l0 -46 q0 -36 4 -77.5 q4 -41.5 15.5 -87.5 q11.5 -46 32 -94.5 q20.5 -48.5 54.5 -98.5 l-48 0 q-32 42 -53.5 89 q-21.5 47 -34.5 94 q-13 47 -18.5 93 q-5.5 46 -5.5 87 l0 36 q0 40 5.5 85 q5.5 45 18.5 91.5 q13 46.5 34.5 92.5 q21.5 46 53.5 88 l48 0 ZM770 684 q32 -42 53.5 -88 q21.5 -46 34.5 -92.5 q13 -46.5 18.5 -91.5 q5.5 -45 5.5 -85 l0 -36 q0 -41 -5.5 -87 q-5.5 -46 -18.5 -93 q-13 -47 -34.5 -94 q-21.5 -47 -53.5 -89 l-48 0 q34 50 54.5 98.5 q20.5 48.5 32 94.5 q11.5 46 15.5 87.5 q4 41.5 4 77.5 l0 46 q0 37 -5 79.5 q-5 42.5 -17 87.5 q-12 45 -32.5 91.5 q-20.5 46.5 -51.5 93.5 l48 0 ZM332 15 l0 521 l-130 -90 l-23 33 l166 113 l29 0 l0 -577 l-42 0 ZM619 15 l0 521 l-130 -90 l-23 33 l166 113 l29 0 l0 -577 l-42 0 Z" /><glyph glyph-name="" unicode="&#x247f;" d="M188 684 q-32 -47 -52.5 -93.5 q-20.5 -46.5 -32.5 -91.5 q-12 -45 -16.5 -87.5 q-4.5 -42.5 -4.5 -79.5 l0 -46 q0 -36 4 -77.5 q4 -41.5 15.5 -87.5 q11.5 -46 32 -94.5 q20.5 -48.5 54.5 -98.5 l-48 0 q-32 42 -53.5 89 q-21.5 47 -34.5 94 q-13 47 -18.5 93 q-5.5 46 -5.5 87 l0 36 q0 40 5.5 85 q5.5 45 18.5 91.5 q13 46.5 34.5 92.5 q21.5 46 53.5 88 l48 0 ZM770 684 q32 -42 53.5 -88 q21.5 -46 34.5 -92.5 q13 -46.5 18.5 -91.5 q5.5 -45 5.5 -85 l0 -36 q0 -41 -5.5 -87 q-5.5 -46 -18.5 -93 q-13 -47 -34.5 -94 q-21.5 -47 -53.5 -89 l-48 0 q34 50 54.5 98.5 q20.5 48.5 32 94.5 q11.5 46 15.5 87.5 q4 41.5 4 77.5 l0 46 q0 37 -5 79.5 q-5 42.5 -17 87.5 q-12 45 -32.5 91.5 q-20.5 46.5 -51.5 93.5 l48 0 ZM299 15 l0 513 l-114 -82 l-23 33 l150 113 l29 0 l0 -577 l-42 0 ZM612 325 q19 28 30 47 q11 19 17 34.5 q6 15.5 7.5 29.5 q1.5 14 1.5 31 l0 6 q0 44 -26.5 65 q-26.5 21 -66.5 21 q-12 0 -26.5 -3.5 q-14.5 -3.5 -30.5 -14 q-16 -10.5 -32.5 -29.5 q-16.5 -19 -32.5 -50 l-35 23 q9 20 24 40.5 q15 20.5 34.5 37.5 q19.5 17 43.5 27.5 q24 10.5 53 10.5 q22 0 47 -6.5 q25 -6.5 45.5 -21.5 q20.5 -15 34 -39 q13.5 -24 13.5 -59 l0 -8 q0 -24 -5 -45 q-5 -21 -14 -41.5 q-9 -20.5 -23 -42.5 q-14 -22 -32 -49 l-160 -234 l248 0 l0 -40 l-301 0 l0 37 l186 273 Z" /><glyph glyph-name="" unicode="&#x2480;" d="M188 684 q-32 -47 -52.5 -93.5 q-20.5 -46.5 -32.5 -91.5 q-12 -45 -16.5 -87.5 q-4.5 -42.5 -4.5 -79.5 l0 -46 q0 -36 4 -77.5 q4 -41.5 15.5 -87.5 q11.5 -46 32 -94.5 q20.5 -48.5 54.5 -98.5 l-48 0 q-32 42 -53.5 89 q-21.5 47 -34.5 94 q-13 47 -18.5 93 q-5.5 46 -5.5 87 l0 36 q0 40 5.5 85 q5.5 45 18.5 91.5 q13 46.5 34.5 92.5 q21.5 46 53.5 88 l48 0 ZM770 684 q32 -42 53.5 -88 q21.5 -46 34.5 -92.5 q13 -46.5 18.5 -91.5 q5.5 -45 5.5 -85 l0 -36 q0 -41 -5.5 -87 q-5.5 -46 -18.5 -93 q-13 -47 -34.5 -94 q-21.5 -47 -53.5 -89 l-48 0 q34 50 54.5 98.5 q20.5 48.5 32 94.5 q11.5 46 15.5 87.5 q4 41.5 4 77.5 l0 46 q0 37 -5 79.5 q-5 42.5 -17 87.5 q-12 45 -32.5 91.5 q-20.5 46.5 -51.5 93.5 l48 0 ZM299 15 l0 513 l-114 -82 l-23 33 l150 113 l29 0 l0 -577 l-42 0 ZM426 515 q9 15 22 30 q13 15 30.5 27.5 q17.5 12.5 39 20 q21.5 7.5 46.5 7.5 q68 0 100.5 -40 q32.5 -40 32.5 -103 l0 -8 q0 -17 -1.5 -36 q-1.5 -19 -9.5 -36.5 q-8 -17.5 -24.5 -33 q-16.5 -15.5 -46.5 -25.5 q30 -5 50 -18 q20 -13 32 -31.5 q12 -18.5 17 -41.5 q5 -23 5 -48 l0 -10 q0 -31 -7 -60.5 q-7 -29.5 -24 -52.5 q-17 -23 -46.5 -37 q-29.5 -14 -75.5 -14 q-50 0 -86.5 18 q-36.5 18 -68.5 46 l25 32 q15 -17 33 -27.5 q18 -10.5 36 -16.5 q18 -6 33.5 -8.5 q15.5 -2.5 25.5 -2.5 q33 0 54.5 11.5 q21.5 11.5 35 29 q13.5 17.5 19 39 q5.5 21.5 5.5 41.5 l0 8 q0 38 -11 61.5 q-11 23.5 -29.5 36 q-18.5 12.5 -42 17 q-23.5 4.5 -47.5 4.5 l-48 0 l0 40 l54 0 q34 0 53.5 11 q19.5 11 29.5 28.5 q10 17.5 12.5 38 q2.5 20.5 2.5 39.5 l0 6 q0 46 -19.5 73.5 q-19.5 27.5 -69.5 27.5 q-7 0 -18 -1.5 q-11 -1.5 -24.5 -8.5 q-13.5 -7 -28 -20 q-14.5 -13 -27.5 -36 l-39 23 Z" /><glyph glyph-name="" unicode="&#x2481;" d="M188 684 q-32 -47 -52.5 -93.5 q-20.5 -46.5 -32.5 -91.5 q-12 -45 -16.5 -87.5 q-4.5 -42.5 -4.5 -79.5 l0 -46 q0 -36 4 -77.5 q4 -41.5 15.5 -87.5 q11.5 -46 32 -94.5 q20.5 -48.5 54.5 -98.5 l-48 0 q-32 42 -53.5 89 q-21.5 47 -34.5 94 q-13 47 -18.5 93 q-5.5 46 -5.5 87 l0 36 q0 40 5.5 85 q5.5 45 18.5 91.5 q13 46.5 34.5 92.5 q21.5 46 53.5 88 l48 0 ZM770 684 q32 -42 53.5 -88 q21.5 -46 34.5 -92.5 q13 -46.5 18.5 -91.5 q5.5 -45 5.5 -85 l0 -36 q0 -41 -5.5 -87 q-5.5 -46 -18.5 -93 q-13 -47 -34.5 -94 q-21.5 -47 -53.5 -89 l-48 0 q34 50 54.5 98.5 q20.5 48.5 32 94.5 q11.5 46 15.5 87.5 q4 41.5 4 77.5 l0 46 q0 37 -5 79.5 q-5 42.5 -17 87.5 q-12 45 -32.5 91.5 q-20.5 46.5 -51.5 93.5 l48 0 ZM299 15 l0 513 l-114 -82 l-23 33 l150 113 l29 0 l0 -577 l-42 0 ZM672 372 l0 -186 l76 0 l0 -41 l-76 0 l0 -130 l-45 0 l0 130 l-231 0 l0 36 l215 411 l47 0 l-212 -406 l181 0 l0 186 l45 0 Z" /><glyph glyph-name="" unicode="&#x2482;" d="M299 15 l0 513 q-29 -20 -57 -41 q-28 -21 -57 -41 q-6 8 -11.5 16.5 q-5.5 8.5 -11.5 16.5 q38 28 75 56.5 q37 28.5 75 56.5 l29 0 l0 -577 l-42 0 ZM188 684 q-32 -47 -52.5 -93.5 q-20.5 -46.5 -32.5 -91.5 q-12 -45 -16.5 -87.5 q-4.5 -42.5 -4.5 -79.5 l0 -46 q0 -36 4 -77.5 q4 -41.5 15.5 -87.5 q11.5 -46 32 -94.5 q20.5 -48.5 54.5 -98.5 l-48 0 q-32 42 -53.5 89 q-21.5 47 -34.5 94 q-13 47 -18.5 93 q-5.5 46 -5.5 87 l0 36 q0 40 5.5 85 q5.5 45 18.5 91.5 q13 46.5 34.5 92.5 q21.5 46 53.5 88 l48 0 ZM770 684 q32 -42 53.5 -88 q21.5 -46 34.5 -92.5 q13 -46.5 18.5 -91.5 q5.5 -45 5.5 -85 l0 -36 q0 -41 -5.5 -87 q-5.5 -46 -18.5 -93 q-13 -47 -34.5 -94 q-21.5 -47 -53.5 -89 l-48 0 q34 50 54.5 98.5 q20.5 48.5 32 94.5 q11.5 46 15.5 87.5 q4 41.5 4 77.5 l0 46 q0 37 -5 79.5 q-5 42.5 -17 87.5 q-12 45 -32.5 91.5 q-20.5 46.5 -51.5 93.5 l48 0 ZM677 188 q0 40 -7.5 66 q-7.5 26 -20.5 41.5 q-13 15.5 -32 21.5 q-19 6 -41 6 q-33 0 -56 -14 q-23 -14 -31 -30 l-50 0 q5 78 10 155.5 q5 77.5 10 155.5 l230 0 l0 -43 l-193 0 l-9 -224 q17 23 44.5 33.5 q27.5 10.5 51.5 10.5 q68 0 103.5 -48.5 q35.5 -48.5 35.5 -126.5 l0 -8 q0 -51 -11 -85.5 q-11 -34.5 -31.5 -55.5 q-20.5 -21 -49.5 -30 q-29 -9 -64 -9 q-44 0 -82.5 17 q-38.5 17 -67.5 48 q7 10 15 18.5 q8 8.5 15 18.5 q29 -35 59.5 -48 q30.5 -13 59.5 -13 q60 0 86 34 q26 34 26 103 l0 6 Z" /><glyph glyph-name="" unicode="&#x2483;" d="" /><glyph glyph-name="" unicode="&#x2484;" d="" /><glyph glyph-name="" unicode="&#x2485;" d="" /><glyph glyph-name="" unicode="&#x2486;" d="" /><glyph glyph-name="" unicode="&#x2487;" d="" /><glyph glyph-name="" unicode="&#x249c;" d="M188 684 q-32 -47 -52.5 -93.5 q-20.5 -46.5 -32.5 -91.5 q-12 -45 -16.5 -87.5 q-4.5 -42.5 -4.5 -79.5 l0 -46 q0 -36 4 -77.5 q4 -41.5 15.5 -87.5 q11.5 -46 32 -94.5 q20.5 -48.5 54.5 -98.5 l-48 0 q-32 42 -53.5 89 q-21.5 47 -34.5 94 q-13 47 -18.5 93 q-5.5 46 -5.5 87 l0 36 q0 40 5.5 85 q5.5 45 18.5 91.5 q13 46.5 34.5 92.5 q21.5 46 53.5 88 l48 0 ZM770 684 q32 -42 53.5 -88 q21.5 -46 34.5 -92.5 q13 -46.5 18.5 -91.5 q5.5 -45 5.5 -85 l0 -36 q0 -41 -5.5 -87 q-5.5 -46 -18.5 -93 q-13 -47 -34.5 -94 q-21.5 -47 -53.5 -89 l-48 0 q34 50 54.5 98.5 q20.5 48.5 32 94.5 q11.5 46 15.5 87.5 q4 41.5 4 77.5 l0 46 q0 37 -5 79.5 q-5 42.5 -17 87.5 q-12 45 -32.5 91.5 q-20.5 46.5 -51.5 93.5 l48 0 ZM432 78 q-61 0 -101 34.5 q-40 34.5 -40 94.5 l0 15 q0 53 39 86.5 q39 33.5 115 33.5 l131 0 l0 47 q0 51 -29 78.5 q-29 27.5 -84 27.5 q-37 0 -68 -12 q-31 -12 -63 -33 l-23 35 q32 21 68.5 36.5 q36.5 15.5 87.5 15.5 q74 0 114.5 -37.5 q40.5 -37.5 40.5 -104.5 l0 -310 l-44 0 l0 55 q-8 -17 -24 -28.5 q-16 -11.5 -36 -19 q-20 -7.5 -42 -11 q-22 -3.5 -42 -3.5 ZM576 304 l-130 0 q-58 0 -84 -23 q-26 -23 -26 -60 l0 -13 q0 -24 9.5 -41.5 q9.5 -17.5 24.5 -28 q15 -10.5 33.5 -15.5 q18.5 -5 35.5 -5 q23 0 47 6.5 q24 6.5 44 19 q20 12.5 33 30 q13 17.5 13 39.5 l0 91 Z" /><glyph glyph-name="" unicode="&#x249d;" d="M489 8 q-46 0 -81 18 q-35 18 -55 41 l0 -53 l-46 0 l0 620 l45 0 l0 -246 q20 35 55.5 56.5 q35.5 21.5 80.5 21.5 q39 0 72 -13 q33 -13 56.5 -37.5 q23.5 -24.5 36.5 -60 q13 -35.5 13 -80.5 l0 -77 q0 -46 -13.5 -81.5 q-13.5 -35.5 -37.5 -59.5 q-24 -24 -56.5 -36.5 q-32.5 -12.5 -69.5 -12.5 ZM621 268 q0 75 -35.5 114.5 q-35.5 39.5 -98.5 39.5 q-22 0 -45.5 -8.5 q-23.5 -8.5 -43.5 -24.5 q-20 -16 -33 -40 q-13 -24 -13 -55 l0 -136 q0 -21 10 -41 q10 -20 28 -35.5 q18 -15.5 42.5 -24.5 q24.5 -9 54.5 -9 q61 0 97.5 41 q36.5 41 36.5 116 l0 63 ZM188 684 q-32 -47 -52.5 -93.5 q-20.5 -46.5 -32.5 -91.5 q-12 -45 -16.5 -87.5 q-4.5 -42.5 -4.5 -79.5 l0 -46 q0 -36 4 -77.5 q4 -41.5 15.5 -87.5 q11.5 -46 32 -94.5 q20.5 -48.5 54.5 -98.5 l-48 0 q-32 42 -53.5 89 q-21.5 47 -34.5 94 q-13 47 -18.5 93 q-5.5 46 -5.5 87 l0 36 q0 40 5.5 85 q5.5 45 18.5 91.5 q13 46.5 34.5 92.5 q21.5 46 53.5 88 l48 0 ZM770 684 q32 -42 53.5 -88 q21.5 -46 34.5 -92.5 q13 -46.5 18.5 -91.5 q5.5 -45 5.5 -85 l0 -36 q0 -41 -5.5 -87 q-5.5 -46 -18.5 -93 q-13 -47 -34.5 -94 q-21.5 -47 -53.5 -89 l-48 0 q34 50 54.5 98.5 q20.5 48.5 32 94.5 q11.5 46 15.5 87.5 q4 41.5 4 77.5 l0 46 q0 37 -5 79.5 q-5 42.5 -17 87.5 q-12 45 -32.5 91.5 q-20.5 46.5 -51.5 93.5 l48 0 Z" /><glyph glyph-name="" unicode="&#x249e;" d="M188 684 q-32 -47 -52.5 -93.5 q-20.5 -46.5 -32.5 -91.5 q-12 -45 -16.5 -87.5 q-4.5 -42.5 -4.5 -79.5 l0 -46 q0 -36 4 -77.5 q4 -41.5 15.5 -87.5 q11.5 -46 32 -94.5 q20.5 -48.5 54.5 -98.5 l-48 0 q-32 42 -53.5 89 q-21.5 47 -34.5 94 q-13 47 -18.5 93 q-5.5 46 -5.5 87 l0 36 q0 40 5.5 85 q5.5 45 18.5 91.5 q13 46.5 34.5 92.5 q21.5 46 53.5 88 l48 0 ZM770 684 q32 -42 53.5 -88 q21.5 -46 34.5 -92.5 q13 -46.5 18.5 -91.5 q5.5 -45 5.5 -85 l0 -36 q0 -41 -5.5 -87 q-5.5 -46 -18.5 -93 q-13 -47 -34.5 -94 q-21.5 -47 -53.5 -89 l-48 0 q34 50 54.5 98.5 q20.5 48.5 32 94.5 q11.5 46 15.5 87.5 q4 41.5 4 77.5 l0 46 q0 37 -5 79.5 q-5 42.5 -17 87.5 q-12 45 -32.5 91.5 q-20.5 46.5 -51.5 93.5 l48 0 ZM464 536 q47 0 83 -12.5 q36 -12.5 64 -33.5 l-23 -36 q-35 24 -63.5 32 q-28.5 8 -60.5 8 q-62 0 -98 -44 q-36 -44 -36 -114 l0 -54 q0 -74 37 -118.5 q37 -44.5 100 -44.5 q48 0 78.5 13.5 q30.5 13.5 55.5 31.5 l22 -37 q-26 -19 -62 -34.5 q-36 -15.5 -95 -15.5 q-85 0 -134 53 q-49 53 -49 152 l0 53 q0 48 13.5 85.5 q13.5 37.5 37.5 63 q24 25.5 57.5 39 q33.5 13.5 72.5 13.5 Z" /><glyph glyph-name="" unicode="&#x249f;" d="M571 72 q-22 -31 -59 -47 q-37 -16 -73 -16 q-39 0 -72 13 q-33 13 -57 37.5 q-24 24.5 -37.5 60 q-13.5 35.5 -13.5 80.5 l0 77 q0 45 13.5 80.5 q13.5 35.5 37.5 59.5 q24 24 56 37 q32 13 70 13 q48 0 82.5 -20.5 q34.5 -20.5 54.5 -46.5 l0 235 l45 0 l0 -620 l-47 0 l0 57 ZM304 206 q0 -76 37 -116.5 q37 -40.5 97 -40.5 q28 0 52.5 7 q24.5 7 43 21.5 q18.5 14.5 29 37 q10.5 22.5 10.5 53.5 l0 141 q0 21 -10.5 42 q-10.5 21 -28.5 37.5 q-18 16.5 -42.5 27 q-24.5 10.5 -53.5 10.5 q-61 0 -97.5 -41.5 q-36.5 -41.5 -36.5 -115.5 l0 -63 ZM188 684 q-32 -47 -52.5 -93.5 q-20.5 -46.5 -32.5 -91.5 q-12 -45 -16.5 -87.5 q-4.5 -42.5 -4.5 -79.5 l0 -46 q0 -36 4 -77.5 q4 -41.5 15.5 -87.5 q11.5 -46 32 -94.5 q20.5 -48.5 54.5 -98.5 l-48 0 q-32 42 -53.5 89 q-21.5 47 -34.5 94 q-13 47 -18.5 93 q-5.5 46 -5.5 87 l0 36 q0 40 5.5 85 q5.5 45 18.5 91.5 q13 46.5 34.5 92.5 q21.5 46 53.5 88 l48 0 ZM770 684 q32 -42 53.5 -88 q21.5 -46 34.5 -92.5 q13 -46.5 18.5 -91.5 q5.5 -45 5.5 -85 l0 -36 q0 -41 -5.5 -87 q-5.5 -46 -18.5 -93 q-13 -47 -34.5 -94 q-21.5 -47 -53.5 -89 l-48 0 q34 50 54.5 98.5 q20.5 48.5 32 94.5 q11.5 46 15.5 87.5 q4 41.5 4 77.5 l0 46 q0 37 -5 79.5 q-5 42.5 -17 87.5 q-12 45 -32.5 91.5 q-20.5 46.5 -51.5 93.5 l48 0 Z" /><glyph glyph-name="" unicode="&#x24a0;" d="M188 684 q-32 -47 -52.5 -93.5 q-20.5 -46.5 -32.5 -91.5 q-12 -45 -16.5 -87.5 q-4.5 -42.5 -4.5 -79.5 l0 -46 q0 -36 4 -77.5 q4 -41.5 15.5 -87.5 q11.5 -46 32 -94.5 q20.5 -48.5 54.5 -98.5 l-48 0 q-32 42 -53.5 89 q-21.5 47 -34.5 94 q-13 47 -18.5 93 q-5.5 46 -5.5 87 l0 36 q0 40 5.5 85 q5.5 45 18.5 91.5 q13 46.5 34.5 92.5 q21.5 46 53.5 88 l48 0 ZM770 684 q32 -42 53.5 -88 q21.5 -46 34.5 -92.5 q13 -46.5 18.5 -91.5 q5.5 -45 5.5 -85 l0 -36 q0 -41 -5.5 -87 q-5.5 -46 -18.5 -93 q-13 -47 -34.5 -94 q-21.5 -47 -53.5 -89 l-48 0 q34 50 54.5 98.5 q20.5 48.5 32 94.5 q11.5 46 15.5 87.5 q4 41.5 4 77.5 l0 46 q0 37 -5 79.5 q-5 42.5 -17 87.5 q-12 45 -32.5 91.5 q-20.5 46.5 -51.5 93.5 l48 0 ZM588 332 l0 3 q0 78 -32.5 118 q-32.5 40 -95.5 40 q-42 0 -71 -18 q-29 -18 -50 -53 q-6 -17 -8 -36.5 q-2 -19.5 -2 -41.5 l0 -12 l259 0 ZM626 129 q-26 -18 -65 -35 q-39 -17 -94 -17 q-46 0 -80.5 14.5 q-34.5 14.5 -57.5 41.5 q-23 27 -34.5 64.5 q-11.5 37.5 -11.5 83.5 l0 56 q0 90 46 144.5 q46 54.5 131 54.5 q86 0 129.5 -55.5 q43.5 -55.5 43.5 -147.5 l0 -40 l-304 0 l0 -10 q0 -78 37.5 -121 q37.5 -43 101.5 -43 q45 0 78 13.5 q33 13.5 58 30.5 l22 -34 Z" /><glyph glyph-name="" unicode="&#x24a1;" d="M188 684 q-32 -47 -52.5 -93.5 q-20.5 -46.5 -32.5 -91.5 q-12 -45 -16.5 -87.5 q-4.5 -42.5 -4.5 -79.5 l0 -46 q0 -36 4 -77.5 q4 -41.5 15.5 -87.5 q11.5 -46 32 -94.5 q20.5 -48.5 54.5 -98.5 l-48 0 q-32 42 -53.5 89 q-21.5 47 -34.5 94 q-13 47 -18.5 93 q-5.5 46 -5.5 87 l0 36 q0 40 5.5 85 q5.5 45 18.5 91.5 q13 46.5 34.5 92.5 q21.5 46 53.5 88 l48 0 ZM770 684 q32 -42 53.5 -88 q21.5 -46 34.5 -92.5 q13 -46.5 18.5 -91.5 q5.5 -45 5.5 -85 l0 -36 q0 -41 -5.5 -87 q-5.5 -46 -18.5 -93 q-13 -47 -34.5 -94 q-21.5 -47 -53.5 -89 l-48 0 q34 50 54.5 98.5 q20.5 48.5 32 94.5 q11.5 46 15.5 87.5 q4 41.5 4 77.5 l0 46 q0 37 -5 79.5 q-5 42.5 -17 87.5 q-12 45 -32.5 91.5 q-20.5 46.5 -51.5 93.5 l48 0 ZM418 404 l-78 0 l0 40 l78 0 l0 59 q0 37 7.5 61.5 q7.5 24.5 21 38.5 q13.5 14 33.5 19.5 q20 5.5 45 5.5 q16 0 38 -2.5 q22 -2.5 34 -6.5 l-7 -38 q-15 5 -32.5 6.5 q-17.5 1.5 -29.5 1.5 q-16 0 -28 -3.5 q-12 -3.5 -20.5 -13 q-8.5 -9.5 -13 -26.5 q-4.5 -17 -4.5 -45 l0 -57 l125 0 l0 -40 l-125 0 l0 -400 l-44 0 l0 400 Z" /><glyph glyph-name="" unicode="&#x24a2;" d="M188 684 q-32 -47 -52.5 -93.5 q-20.5 -46.5 -32.5 -91.5 q-12 -45 -16.5 -87.5 q-4.5 -42.5 -4.5 -79.5 l0 -46 q0 -36 4 -77.5 q4 -41.5 15.5 -87.5 q11.5 -46 32 -94.5 q20.5 -48.5 54.5 -98.5 l-48 0 q-32 42 -53.5 89 q-21.5 47 -34.5 94 q-13 47 -18.5 93 q-5.5 46 -5.5 87 l0 36 q0 40 5.5 85 q5.5 45 18.5 91.5 q13 46.5 34.5 92.5 q21.5 46 53.5 88 l48 0 ZM770 684 q32 -42 53.5 -88 q21.5 -46 34.5 -92.5 q13 -46.5 18.5 -91.5 q5.5 -45 5.5 -85 l0 -36 q0 -41 -5.5 -87 q-5.5 -46 -18.5 -93 q-13 -47 -34.5 -94 q-21.5 -47 -53.5 -89 l-48 0 q34 50 54.5 98.5 q20.5 48.5 32 94.5 q11.5 46 15.5 87.5 q4 41.5 4 77.5 l0 46 q0 37 -5 79.5 q-5 42.5 -17 87.5 q-12 45 -32.5 91.5 q-20.5 46.5 -51.5 93.5 l48 0 ZM585 231 q-20 -35 -58 -52 q-38 -17 -76 -17 q-38 0 -70.5 12.5 q-32.5 12.5 -56.5 37.5 q-24 25 -38 60.5 q-14 35.5 -14 82.5 l0 66 q0 46 13.5 81.5 q13.5 35.5 37 59.5 q23.5 24 55.5 36.5 q32 12.5 70 12.5 q48 0 83.5 -19 q35.5 -19 55.5 -47 l0 59 l44 0 l0 -435 q0 -47 -13 -83 q-13 -36 -36.5 -60 q-23.5 -24 -55 -36.5 q-31.5 -12.5 -68.5 -12.5 q-49 0 -85 11.5 q-36 11.5 -65 34.5 q5 9 11 17 q6 8 11 17 q17 -12 31.5 -19.5 q14.5 -7.5 29 -11.5 q14.5 -4 30.5 -5 q16 -1 36 -1 q63 0 95.5 35.5 q32.5 35.5 32.5 110.5 l0 65 ZM317 359 q0 -75 36.5 -116 q36.5 -41 95.5 -41 q28 0 53 7 q25 7 44 21.5 q19 14.5 29.5 37 q10.5 22.5 10.5 53.5 l0 135 q0 19 -11 39.5 q-11 20.5 -30 37.5 q-19 17 -43.5 27.5 q-24.5 10.5 -52.5 10.5 q-60 0 -96 -41 q-36 -41 -36 -116 l0 -55 Z" /><glyph glyph-name="" unicode="&#x24a3;" d="M188 684 q-32 -47 -52.5 -93.5 q-20.5 -46.5 -32.5 -91.5 q-12 -45 -16.5 -87.5 q-4.5 -42.5 -4.5 -79.5 l0 -46 q0 -36 4 -77.5 q4 -41.5 15.5 -87.5 q11.5 -46 32 -94.5 q20.5 -48.5 54.5 -98.5 l-48 0 q-32 42 -53.5 89 q-21.5 47 -34.5 94 q-13 47 -18.5 93 q-5.5 46 -5.5 87 l0 36 q0 40 5.5 85 q5.5 45 18.5 91.5 q13 46.5 34.5 92.5 q21.5 46 53.5 88 l48 0 ZM770 684 q32 -42 53.5 -88 q21.5 -46 34.5 -92.5 q13 -46.5 18.5 -91.5 q5.5 -45 5.5 -85 l0 -36 q0 -41 -5.5 -87 q-5.5 -46 -18.5 -93 q-13 -47 -34.5 -94 q-21.5 -47 -53.5 -89 l-48 0 q34 50 54.5 98.5 q20.5 48.5 32 94.5 q11.5 46 15.5 87.5 q4 41.5 4 77.5 l0 46 q0 37 -5 79.5 q-5 42.5 -17 87.5 q-12 45 -32.5 91.5 q-20.5 46.5 -51.5 93.5 l48 0 ZM486 455 q41 0 71.5 -11.5 q30.5 -11.5 51 -31.5 q20.5 -20 30.5 -47.5 q10 -27.5 10 -59.5 l0 -301 l-46 0 l0 288 q0 22 -5 43.5 q-5 21.5 -18 39 q-13 17.5 -36.5 28.5 q-23.5 11 -60.5 11 q-32 0 -56.5 -12 q-24.5 -12 -41.5 -29.5 q-17 -17.5 -26 -38 q-9 -20.5 -9 -37.5 l0 -293 l-46 0 l0 620 l46 0 l0 -243 q6 12 18 25.5 q12 13.5 29 24 q17 10.5 39.5 17.5 q22.5 7 49.5 7 Z" /><glyph glyph-name="" unicode="&#x24a4;" d="M432 449 l47 0 l0 -444 l-47 0 l0 444 ZM431 590 l49 0 l0 -50 l-49 0 l0 50 ZM188 684 q-32 -47 -52.5 -93.5 q-20.5 -46.5 -32.5 -91.5 q-12 -45 -16.5 -87.5 q-4.5 -42.5 -4.5 -79.5 l0 -46 q0 -36 4 -77.5 q4 -41.5 15.5 -87.5 q11.5 -46 32 -94.5 q20.5 -48.5 54.5 -98.5 l-48 0 q-32 42 -53.5 89 q-21.5 47 -34.5 94 q-13 47 -18.5 93 q-5.5 46 -5.5 87 l0 36 q0 40 5.5 85 q5.5 45 18.5 91.5 q13 46.5 34.5 92.5 q21.5 46 53.5 88 l48 0 ZM770 684 q32 -42 53.5 -88 q21.5 -46 34.5 -92.5 q13 -46.5 18.5 -91.5 q5.5 -45 5.5 -85 l0 -36 q0 -41 -5.5 -87 q-5.5 -46 -18.5 -93 q-13 -47 -34.5 -94 q-21.5 -47 -53.5 -89 l-48 0 q34 50 54.5 98.5 q20.5 48.5 32 94.5 q11.5 46 15.5 87.5 q4 41.5 4 77.5 l0 46 q0 37 -5 79.5 q-5 42.5 -17 87.5 q-12 45 -32.5 91.5 q-20.5 46.5 -51.5 93.5 l48 0 Z" /><glyph glyph-name="" unicode="&#x24a5;" d="M188 684 q-32 -47 -52.5 -93.5 q-20.5 -46.5 -32.5 -91.5 q-12 -45 -16.5 -87.5 q-4.5 -42.5 -4.5 -79.5 l0 -46 q0 -36 4 -77.5 q4 -41.5 15.5 -87.5 q11.5 -46 32 -94.5 q20.5 -48.5 54.5 -98.5 l-48 0 q-32 42 -53.5 89 q-21.5 47 -34.5 94 q-13 47 -18.5 93 q-5.5 46 -5.5 87 l0 36 q0 40 5.5 85 q5.5 45 18.5 91.5 q13 46.5 34.5 92.5 q21.5 46 53.5 88 l48 0 ZM770 684 q32 -42 53.5 -88 q21.5 -46 34.5 -92.5 q13 -46.5 18.5 -91.5 q5.5 -45 5.5 -85 l0 -36 q0 -41 -5.5 -87 q-5.5 -46 -18.5 -93 q-13 -47 -34.5 -94 q-21.5 -47 -53.5 -89 l-48 0 q34 50 54.5 98.5 q20.5 48.5 32 94.5 q11.5 46 15.5 87.5 q4 41.5 4 77.5 l0 46 q0 37 -5 79.5 q-5 42.5 -17 87.5 q-12 45 -32.5 91.5 q-20.5 46.5 -51.5 93.5 l48 0 ZM465 590 l49 0 l0 -50 l-49 0 l0 50 ZM510 125 q0 -75 -26 -101.5 q-26 -26.5 -78 -26.5 q-14 0 -36.5 2.5 q-22.5 2.5 -35.5 7.5 q2 9 3.5 18.5 q1.5 9.5 3.5 18.5 q15 -5 30 -6.5 q15 -1.5 32 -1.5 q40 0 53 22.5 q13 22.5 13 68.5 l0 322 l41 0 l0 -324 Z" /><glyph glyph-name="" unicode="&#x24a6;" d="M188 684 q-32 -47 -52.5 -93.5 q-20.5 -46.5 -32.5 -91.5 q-12 -45 -16.5 -87.5 q-4.5 -42.5 -4.5 -79.5 l0 -46 q0 -36 4 -77.5 q4 -41.5 15.5 -87.5 q11.5 -46 32 -94.5 q20.5 -48.5 54.5 -98.5 l-48 0 q-32 42 -53.5 89 q-21.5 47 -34.5 94 q-13 47 -18.5 93 q-5.5 46 -5.5 87 l0 36 q0 40 5.5 85 q5.5 45 18.5 91.5 q13 46.5 34.5 92.5 q21.5 46 53.5 88 l48 0 ZM770 684 q32 -42 53.5 -88 q21.5 -46 34.5 -92.5 q13 -46.5 18.5 -91.5 q5.5 -45 5.5 -85 l0 -36 q0 -41 -5.5 -87 q-5.5 -46 -18.5 -93 q-13 -47 -34.5 -94 q-21.5 -47 -53.5 -89 l-48 0 q34 50 54.5 98.5 q20.5 48.5 32 94.5 q11.5 46 15.5 87.5 q4 41.5 4 77.5 l0 46 q0 37 -5 79.5 q-5 42.5 -17 87.5 q-12 45 -32.5 91.5 q-20.5 46.5 -51.5 93.5 l48 0 ZM465 281 l197 -277 l-52 0 l-177 248 l-77 -73 l0 -175 l-44 0 l0 620 l44 0 l0 -393 l227 216 l61 0 l-179 -166 Z" /><glyph glyph-name="" unicode="&#x24a7;" d="M188 684 q-32 -47 -52.5 -93.5 q-20.5 -46.5 -32.5 -91.5 q-12 -45 -16.5 -87.5 q-4.5 -42.5 -4.5 -79.5 l0 -46 q0 -36 4 -77.5 q4 -41.5 15.5 -87.5 q11.5 -46 32 -94.5 q20.5 -48.5 54.5 -98.5 l-48 0 q-32 42 -53.5 89 q-21.5 47 -34.5 94 q-13 47 -18.5 93 q-5.5 46 -5.5 87 l0 36 q0 40 5.5 85 q5.5 45 18.5 91.5 q13 46.5 34.5 92.5 q21.5 46 53.5 88 l48 0 ZM770 684 q32 -42 53.5 -88 q21.5 -46 34.5 -92.5 q13 -46.5 18.5 -91.5 q5.5 -45 5.5 -85 l0 -36 q0 -41 -5.5 -87 q-5.5 -46 -18.5 -93 q-13 -47 -34.5 -94 q-21.5 -47 -53.5 -89 l-48 0 q34 50 54.5 98.5 q20.5 48.5 32 94.5 q11.5 46 15.5 87.5 q4 41.5 4 77.5 l0 46 q0 37 -5 79.5 q-5 42.5 -17 87.5 q-12 45 -32.5 91.5 q-20.5 46.5 -51.5 93.5 l48 0 ZM432 624 l47 0 l0 -620 l-47 0 l0 620 Z" /><glyph glyph-name="" unicode="&#x24a8;" d="M188 684 q-32 -47 -52.5 -93.5 q-20.5 -46.5 -32.5 -91.5 q-12 -45 -16.5 -87.5 q-4.5 -42.5 -4.5 -79.5 l0 -46 q0 -36 4 -77.5 q4 -41.5 15.5 -87.5 q11.5 -46 32 -94.5 q20.5 -48.5 54.5 -98.5 l-48 0 q-32 42 -53.5 89 q-21.5 47 -34.5 94 q-13 47 -18.5 93 q-5.5 46 -5.5 87 l0 36 q0 40 5.5 85 q5.5 45 18.5 91.5 q13 46.5 34.5 92.5 q21.5 46 53.5 88 l48 0 ZM770 684 q32 -42 53.5 -88 q21.5 -46 34.5 -92.5 q13 -46.5 18.5 -91.5 q5.5 -45 5.5 -85 l0 -36 q0 -41 -5.5 -87 q-5.5 -46 -18.5 -93 q-13 -47 -34.5 -94 q-21.5 -47 -53.5 -89 l-48 0 q34 50 54.5 98.5 q20.5 48.5 32 94.5 q11.5 46 15.5 87.5 q4 41.5 4 77.5 l0 46 q0 37 -5 79.5 q-5 42.5 -17 87.5 q-12 45 -32.5 91.5 q-20.5 46.5 -51.5 93.5 l48 0 ZM599 536 q38 0 63 -10.5 q25 -10.5 39.5 -30 q14.5 -19.5 20.5 -47 q6 -27.5 6 -60.5 l0 -303 l-42 0 l0 291 q0 26 -3.5 48 q-3.5 22 -12.5 38 q-9 16 -26 25 q-17 9 -44 9 q-29 0 -49.5 -11.5 q-20.5 -11.5 -34 -29 q-13.5 -17.5 -20 -37.5 q-6.5 -20 -6.5 -36 l0 -297 l-45 0 l0 291 q0 26 -2.5 48 q-2.5 22 -11.5 38 q-9 16 -25 25 q-16 9 -43 9 q-30 0 -52 -12.5 q-22 -12.5 -35.5 -30.5 q-13.5 -18 -20 -39 q-6.5 -21 -6.5 -38 l0 -291 l-42 0 l0 443 l45 0 l0 -62 q6 12 15.5 24 q9.5 12 23 22.5 q13.5 10.5 30.5 17 q17 6.5 39 6.5 q51 0 77.5 -20.5 q26.5 -20.5 43.5 -63.5 q7 14 16.5 29 q9.5 15 24 27 q14.5 12 33.5 20 q19 8 44 8 Z" /><glyph glyph-name="" unicode="&#x24a9;" d="M188 684 q-32 -47 -52.5 -93.5 q-20.5 -46.5 -32.5 -91.5 q-12 -45 -16.5 -87.5 q-4.5 -42.5 -4.5 -79.5 l0 -46 q0 -36 4 -77.5 q4 -41.5 15.5 -87.5 q11.5 -46 32 -94.5 q20.5 -48.5 54.5 -98.5 l-48 0 q-32 42 -53.5 89 q-21.5 47 -34.5 94 q-13 47 -18.5 93 q-5.5 46 -5.5 87 l0 36 q0 40 5.5 85 q5.5 45 18.5 91.5 q13 46.5 34.5 92.5 q21.5 46 53.5 88 l48 0 ZM770 684 q32 -42 53.5 -88 q21.5 -46 34.5 -92.5 q13 -46.5 18.5 -91.5 q5.5 -45 5.5 -85 l0 -36 q0 -41 -5.5 -87 q-5.5 -46 -18.5 -93 q-13 -47 -34.5 -94 q-21.5 -47 -53.5 -89 l-48 0 q34 50 54.5 98.5 q20.5 48.5 32 94.5 q11.5 46 15.5 87.5 q4 41.5 4 77.5 l0 46 q0 37 -5 79.5 q-5 42.5 -17 87.5 q-12 45 -32.5 91.5 q-20.5 46.5 -51.5 93.5 l48 0 ZM476 536 q41 0 71.5 -11.5 q30.5 -11.5 51 -31.5 q20.5 -20 30.5 -47.5 q10 -27.5 10 -59.5 l0 -301 l-46 0 l0 289 q0 22 -5 43.5 q-5 21.5 -18 39 q-13 17.5 -36.5 28.5 q-23.5 11 -60.5 11 q-32 0 -56.5 -12 q-24.5 -12 -41.5 -30 q-17 -18 -26 -38.5 q-9 -20.5 -9 -36.5 l0 -294 l-46 0 l0 443 l47 0 l0 -64 q7 11 18.5 23.5 q11.5 12.5 28 23.5 q16.5 11 38.5 18 q22 7 50 7 Z" /><glyph glyph-name="" unicode="&#x24aa;" d="M188 684 q-32 -47 -52.5 -93.5 q-20.5 -46.5 -32.5 -91.5 q-12 -45 -16.5 -87.5 q-4.5 -42.5 -4.5 -79.5 l0 -46 q0 -36 4 -77.5 q4 -41.5 15.5 -87.5 q11.5 -46 32 -94.5 q20.5 -48.5 54.5 -98.5 l-48 0 q-32 42 -53.5 89 q-21.5 47 -34.5 94 q-13 47 -18.5 93 q-5.5 46 -5.5 87 l0 36 q0 40 5.5 85 q5.5 45 18.5 91.5 q13 46.5 34.5 92.5 q21.5 46 53.5 88 l48 0 ZM770 684 q32 -42 53.5 -88 q21.5 -46 34.5 -92.5 q13 -46.5 18.5 -91.5 q5.5 -45 5.5 -85 l0 -36 q0 -41 -5.5 -87 q-5.5 -46 -18.5 -93 q-13 -47 -34.5 -94 q-21.5 -47 -53.5 -89 l-48 0 q34 50 54.5 98.5 q20.5 48.5 32 94.5 q11.5 46 15.5 87.5 q4 41.5 4 77.5 l0 46 q0 37 -5 79.5 q-5 42.5 -17 87.5 q-12 45 -32.5 91.5 q-20.5 46.5 -51.5 93.5 l48 0 ZM456 536 q88 0 135.5 -53 q47.5 -53 47.5 -150 l0 -53 q0 -97 -47.5 -150 q-47.5 -53 -135.5 -53 q-89 0 -136.5 53 q-47.5 53 -47.5 150 l0 53 q0 97 47.5 150 q47.5 53 136.5 53 ZM456 118 q60 0 99 40 q39 40 39 124 l0 49 q0 82 -39 123 q-39 41 -99 41 q-60 0 -99.5 -41 q-39.5 -41 -39.5 -123 l0 -49 q0 -84 39.5 -124 q39.5 -40 99.5 -40 Z" /><glyph glyph-name="" unicode="&#x24ab;" d="M188 684 q-32 -47 -52.5 -93.5 q-20.5 -46.5 -32.5 -91.5 q-12 -45 -16.5 -87.5 q-4.5 -42.5 -4.5 -79.5 l0 -46 q0 -36 4 -77.5 q4 -41.5 15.5 -87.5 q11.5 -46 32 -94.5 q20.5 -48.5 54.5 -98.5 l-48 0 q-32 42 -53.5 89 q-21.5 47 -34.5 94 q-13 47 -18.5 93 q-5.5 46 -5.5 87 l0 36 q0 40 5.5 85 q5.5 45 18.5 91.5 q13 46.5 34.5 92.5 q21.5 46 53.5 88 l48 0 ZM770 684 q32 -42 53.5 -88 q21.5 -46 34.5 -92.5 q13 -46.5 18.5 -91.5 q5.5 -45 5.5 -85 l0 -36 q0 -41 -5.5 -87 q-5.5 -46 -18.5 -93 q-13 -47 -34.5 -94 q-21.5 -47 -53.5 -89 l-48 0 q34 50 54.5 98.5 q20.5 48.5 32 94.5 q11.5 46 15.5 87.5 q4 41.5 4 77.5 l0 46 q0 37 -5 79.5 q-5 42.5 -17 87.5 q-12 45 -32.5 91.5 q-20.5 46.5 -51.5 93.5 l48 0 ZM495 140 q-51 0 -81.5 16.5 q-30.5 16.5 -55.5 43.5 l0 -229 l-45 0 l0 619 l46 0 l0 -66 q20 37 54.5 55.5 q34.5 18.5 80.5 18.5 q80 0 129 -49 q49 -49 49 -142 l0 -77 q0 -45 -13.5 -80.5 q-13.5 -35.5 -37.5 -60 q-24 -24.5 -56.5 -37 q-32.5 -12.5 -69.5 -12.5 ZM627 401 q0 74 -35.5 113.5 q-35.5 39.5 -98.5 39.5 q-22 0 -45.5 -8.5 q-23.5 -8.5 -43.5 -24.5 q-20 -16 -33 -40 q-13 -24 -13 -55 l0 -137 q0 -21 10 -40.5 q10 -19.5 28 -35 q18 -15.5 42.5 -25 q24.5 -9.5 54.5 -9.5 q61 0 97.5 41 q36.5 41 36.5 117 l0 64 Z" /><glyph glyph-name="" unicode="&#x24ac;" d="M188 684 q-32 -47 -52.5 -93.5 q-20.5 -46.5 -32.5 -91.5 q-12 -45 -16.5 -87.5 q-4.5 -42.5 -4.5 -79.5 l0 -46 q0 -36 4 -77.5 q4 -41.5 15.5 -87.5 q11.5 -46 32 -94.5 q20.5 -48.5 54.5 -98.5 l-48 0 q-32 42 -53.5 89 q-21.5 47 -34.5 94 q-13 47 -18.5 93 q-5.5 46 -5.5 87 l0 36 q0 40 5.5 85 q5.5 45 18.5 91.5 q13 46.5 34.5 92.5 q21.5 46 53.5 88 l48 0 ZM770 684 q32 -42 53.5 -88 q21.5 -46 34.5 -92.5 q13 -46.5 18.5 -91.5 q5.5 -45 5.5 -85 l0 -36 q0 -41 -5.5 -87 q-5.5 -46 -18.5 -93 q-13 -47 -34.5 -94 q-21.5 -47 -53.5 -89 l-48 0 q34 50 54.5 98.5 q20.5 48.5 32 94.5 q11.5 46 15.5 87.5 q4 41.5 4 77.5 l0 46 q0 37 -5 79.5 q-5 42.5 -17 87.5 q-12 45 -32.5 91.5 q-20.5 46.5 -51.5 93.5 l48 0 ZM576 206 q-10 -16 -25 -28.5 q-15 -12.5 -33 -20.5 q-18 -8 -38 -12.5 q-20 -4.5 -39 -4.5 q-36 0 -68.5 12.5 q-32.5 12.5 -57 37 q-24.5 24.5 -39 60 q-14.5 35.5 -14.5 80.5 l0 78 q0 45 13.5 80.5 q13.5 35.5 37.5 59.5 q24 24 56 37 q32 13 70 13 q48 0 83 -20.5 q35 -20.5 55 -46.5 l0 59 l44 0 l0 -619 l-45 0 l0 235 ZM307 337 q0 -75 37 -116.5 q37 -41.5 97 -41.5 q28 0 52.5 7 q24.5 7 43 21.5 q18.5 14.5 29 37 q10.5 22.5 10.5 53.5 l0 142 q0 20 -10 41 q-10 21 -28 38 q-18 17 -42.5 27.5 q-24.5 10.5 -54.5 10.5 q-61 0 -97.5 -40.5 q-36.5 -40.5 -36.5 -115.5 l0 -64 Z" /><glyph glyph-name="" unicode="&#x24ad;" d="M188 684 q-32 -47 -52.5 -93.5 q-20.5 -46.5 -32.5 -91.5 q-12 -45 -16.5 -87.5 q-4.5 -42.5 -4.5 -79.5 l0 -46 q0 -36 4 -77.5 q4 -41.5 15.5 -87.5 q11.5 -46 32 -94.5 q20.5 -48.5 54.5 -98.5 l-48 0 q-32 42 -53.5 89 q-21.5 47 -34.5 94 q-13 47 -18.5 93 q-5.5 46 -5.5 87 l0 36 q0 40 5.5 85 q5.5 45 18.5 91.5 q13 46.5 34.5 92.5 q21.5 46 53.5 88 l48 0 ZM770 684 q32 -42 53.5 -88 q21.5 -46 34.5 -92.5 q13 -46.5 18.5 -91.5 q5.5 -45 5.5 -85 l0 -36 q0 -41 -5.5 -87 q-5.5 -46 -18.5 -93 q-13 -47 -34.5 -94 q-21.5 -47 -53.5 -89 l-48 0 q34 50 54.5 98.5 q20.5 48.5 32 94.5 q11.5 46 15.5 87.5 q4 41.5 4 77.5 l0 46 q0 37 -5 79.5 q-5 42.5 -17 87.5 q-12 45 -32.5 91.5 q-20.5 46.5 -51.5 93.5 l48 0 ZM635 527 q-5 -11 -8 -23.5 q-3 -12.5 -7 -23.5 q-11 5 -25 7 q-14 2 -28 2 q-30 0 -53.5 -11.5 q-23.5 -11.5 -39 -32.5 q-15.5 -21 -24 -49.5 q-8.5 -28.5 -8.5 -62.5 l0 -248 l-44 0 l0 443 l45 0 l0 -82 q6 15 16.5 31 q10.5 16 26 29 q15.5 13 36 21.5 q20.5 8.5 46.5 8.5 q40 0 67 -9 Z" /><glyph glyph-name="" unicode="&#x24ae;" d="M188 684 q-32 -47 -52.5 -93.5 q-20.5 -46.5 -32.5 -91.5 q-12 -45 -16.5 -87.5 q-4.5 -42.5 -4.5 -79.5 l0 -46 q0 -36 4 -77.5 q4 -41.5 15.5 -87.5 q11.5 -46 32 -94.5 q20.5 -48.5 54.5 -98.5 l-48 0 q-32 42 -53.5 89 q-21.5 47 -34.5 94 q-13 47 -18.5 93 q-5.5 46 -5.5 87 l0 36 q0 40 5.5 85 q5.5 45 18.5 91.5 q13 46.5 34.5 92.5 q21.5 46 53.5 88 l48 0 ZM770 684 q32 -42 53.5 -88 q21.5 -46 34.5 -92.5 q13 -46.5 18.5 -91.5 q5.5 -45 5.5 -85 l0 -36 q0 -41 -5.5 -87 q-5.5 -46 -18.5 -93 q-13 -47 -34.5 -94 q-21.5 -47 -53.5 -89 l-48 0 q34 50 54.5 98.5 q20.5 48.5 32 94.5 q11.5 46 15.5 87.5 q4 41.5 4 77.5 l0 46 q0 37 -5 79.5 q-5 42.5 -17 87.5 q-12 45 -32.5 91.5 q-20.5 46.5 -51.5 93.5 l48 0 ZM464 120 q59 0 88.5 23.5 q29.5 23.5 29.5 52.5 l0 10 q0 36 -31.5 55.5 q-31.5 19.5 -95.5 30.5 q-32 6 -58.5 15 q-26.5 9 -45.5 22 q-19 13 -29.5 31.5 q-10.5 18.5 -10.5 44.5 l0 13 q0 49 39 83.5 q39 34.5 118 34.5 q54 0 90.5 -14.5 q36.5 -14.5 60.5 -34.5 l-22 -32 q-30 19 -58.5 28.5 q-28.5 9.5 -75.5 9.5 q-51 0 -79.5 -22 q-28.5 -22 -28.5 -54 l0 -9 q0 -31 32.5 -49 q32.5 -18 86.5 -28 q83 -15 119 -44 q36 -29 36 -79 l0 -12 q0 -27 -12.5 -49 q-12.5 -22 -34.5 -37.5 q-22 -15.5 -51.5 -24 q-29.5 -8.5 -63.5 -8.5 q-53 0 -94 15 q-41 15 -73 37 l23 35 q32 -20 67.5 -32 q35.5 -12 73.5 -12 Z" /><glyph glyph-name="" unicode="&#x24af;" d="M188 684 q-32 -47 -52.5 -93.5 q-20.5 -46.5 -32.5 -91.5 q-12 -45 -16.5 -87.5 q-4.5 -42.5 -4.5 -79.5 l0 -46 q0 -36 4 -77.5 q4 -41.5 15.5 -87.5 q11.5 -46 32 -94.5 q20.5 -48.5 54.5 -98.5 l-48 0 q-32 42 -53.5 89 q-21.5 47 -34.5 94 q-13 47 -18.5 93 q-5.5 46 -5.5 87 l0 36 q0 40 5.5 85 q5.5 45 18.5 91.5 q13 46.5 34.5 92.5 q21.5 46 53.5 88 l48 0 ZM770 684 q32 -42 53.5 -88 q21.5 -46 34.5 -92.5 q13 -46.5 18.5 -91.5 q5.5 -45 5.5 -85 l0 -36 q0 -41 -5.5 -87 q-5.5 -46 -18.5 -93 q-13 -47 -34.5 -94 q-21.5 -47 -53.5 -89 l-48 0 q34 50 54.5 98.5 q20.5 48.5 32 94.5 q11.5 46 15.5 87.5 q4 41.5 4 77.5 l0 46 q0 37 -5 79.5 q-5 42.5 -17 87.5 q-12 45 -32.5 91.5 q-20.5 46.5 -51.5 93.5 l48 0 ZM397 432 l-78 0 l0 38 l78 0 l0 115 l44 0 l0 -115 l125 0 l0 -38 l-125 0 l0 -280 q0 -47 14 -68.5 q14 -21.5 52 -21.5 q17 0 33 1 q16 1 30 6 l8 -38 q-14 -5 -35.5 -6.5 q-21.5 -1.5 -37.5 -1.5 q-28 0 -48 6 q-20 6 -33.5 20.5 q-13.5 14.5 -20 39 q-6.5 24.5 -6.5 61.5 l0 282 Z" /><glyph glyph-name="" unicode="&#x24b0;" d="M188 684 q-32 -47 -52.5 -93.5 q-20.5 -46.5 -32.5 -91.5 q-12 -45 -16.5 -87.5 q-4.5 -42.5 -4.5 -79.5 l0 -46 q0 -36 4 -77.5 q4 -41.5 15.5 -87.5 q11.5 -46 32 -94.5 q20.5 -48.5 54.5 -98.5 l-48 0 q-32 42 -53.5 89 q-21.5 47 -34.5 94 q-13 47 -18.5 93 q-5.5 46 -5.5 87 l0 36 q0 40 5.5 85 q5.5 45 18.5 91.5 q13 46.5 34.5 92.5 q21.5 46 53.5 88 l48 0 ZM770 684 q32 -42 53.5 -88 q21.5 -46 34.5 -92.5 q13 -46.5 18.5 -91.5 q5.5 -45 5.5 -85 l0 -36 q0 -41 -5.5 -87 q-5.5 -46 -18.5 -93 q-13 -47 -34.5 -94 q-21.5 -47 -53.5 -89 l-48 0 q34 50 54.5 98.5 q20.5 48.5 32 94.5 q11.5 46 15.5 87.5 q4 41.5 4 77.5 l0 46 q0 37 -5 79.5 q-5 42.5 -17 87.5 q-12 45 -32.5 91.5 q-20.5 46.5 -51.5 93.5 l48 0 ZM447 79 q-41 0 -70.5 11 q-29.5 11 -48.5 31 q-19 20 -28 47 q-9 27 -9 59 l0 300 l44 0 l0 -286 q0 -22 4 -44 q4 -22 16 -39 q12 -17 34.5 -28 q22.5 -11 59.5 -11 q32 0 57.5 12 q25.5 12 43 29 q17.5 17 26.5 37 q9 20 9 35 l0 295 l46 0 l0 -443 l-45 0 l0 64 q-6 -11 -18 -23.5 q-12 -12.5 -29.5 -22.5 q-17.5 -10 -40.5 -16.5 q-23 -6.5 -51 -6.5 Z" /><glyph glyph-name="" unicode="&#x24b1;" d="M188 684 q-32 -47 -52.5 -93.5 q-20.5 -46.5 -32.5 -91.5 q-12 -45 -16.5 -87.5 q-4.5 -42.5 -4.5 -79.5 l0 -46 q0 -36 4 -77.5 q4 -41.5 15.5 -87.5 q11.5 -46 32 -94.5 q20.5 -48.5 54.5 -98.5 l-48 0 q-32 42 -53.5 89 q-21.5 47 -34.5 94 q-13 47 -18.5 93 q-5.5 46 -5.5 87 l0 36 q0 40 5.5 85 q5.5 45 18.5 91.5 q13 46.5 34.5 92.5 q21.5 46 53.5 88 l48 0 ZM770 684 q32 -42 53.5 -88 q21.5 -46 34.5 -92.5 q13 -46.5 18.5 -91.5 q5.5 -45 5.5 -85 l0 -36 q0 -41 -5.5 -87 q-5.5 -46 -18.5 -93 q-13 -47 -34.5 -94 q-21.5 -47 -53.5 -89 l-48 0 q34 50 54.5 98.5 q20.5 48.5 32 94.5 q11.5 46 15.5 87.5 q4 41.5 4 77.5 l0 46 q0 37 -5 79.5 q-5 42.5 -17 87.5 q-12 45 -32.5 91.5 q-20.5 46.5 -51.5 93.5 l48 0 ZM432 85 l-167 442 l50 0 l144 -391 l138 391 l47 0 l-164 -442 l-48 0 Z" /><glyph glyph-name="" unicode="&#x24b2;" d="M302 85 q-31 111 -60.5 221 q-29.5 110 -60.5 221 l44 0 l103 -397 l103 397 l57 0 l111 -396 l97 396 l42 0 q-30 -111 -58.5 -221 q-28.5 -110 -58.5 -221 l-50 0 l-112 391 l-104 -391 l-53 0 ZM188 684 q-32 -47 -52.5 -93.5 q-20.5 -46.5 -32.5 -91.5 q-12 -45 -16.5 -87.5 q-4.5 -42.5 -4.5 -79.5 l0 -46 q0 -36 4 -77.5 q4 -41.5 15.5 -87.5 q11.5 -46 32 -94.5 q20.5 -48.5 54.5 -98.5 l-48 0 q-32 42 -53.5 89 q-21.5 47 -34.5 94 q-13 47 -18.5 93 q-5.5 46 -5.5 87 l0 36 q0 40 5.5 85 q5.5 45 18.5 91.5 q13 46.5 34.5 92.5 q21.5 46 53.5 88 l48 0 ZM770 684 q32 -42 53.5 -88 q21.5 -46 34.5 -92.5 q13 -46.5 18.5 -91.5 q5.5 -45 5.5 -85 l0 -36 q0 -41 -5.5 -87 q-5.5 -46 -18.5 -93 q-13 -47 -34.5 -94 q-21.5 -47 -53.5 -89 l-48 0 q34 50 54.5 98.5 q20.5 48.5 32 94.5 q11.5 46 15.5 87.5 q4 41.5 4 77.5 l0 46 q0 37 -5 79.5 q-5 42.5 -17 87.5 q-12 45 -32.5 91.5 q-20.5 46.5 -51.5 93.5 l48 0 Z" /><glyph glyph-name="" unicode="&#x24b3;" d="M188 684 q-32 -47 -52.5 -93.5 q-20.5 -46.5 -32.5 -91.5 q-12 -45 -16.5 -87.5 q-4.5 -42.5 -4.5 -79.5 l0 -46 q0 -36 4 -77.5 q4 -41.5 15.5 -87.5 q11.5 -46 32 -94.5 q20.5 -48.5 54.5 -98.5 l-48 0 q-32 42 -53.5 89 q-21.5 47 -34.5 94 q-13 47 -18.5 93 q-5.5 46 -5.5 87 l0 36 q0 40 5.5 85 q5.5 45 18.5 91.5 q13 46.5 34.5 92.5 q21.5 46 53.5 88 l48 0 ZM770 684 q32 -42 53.5 -88 q21.5 -46 34.5 -92.5 q13 -46.5 18.5 -91.5 q5.5 -45 5.5 -85 l0 -36 q0 -41 -5.5 -87 q-5.5 -46 -18.5 -93 q-13 -47 -34.5 -94 q-21.5 -47 -53.5 -89 l-48 0 q34 50 54.5 98.5 q20.5 48.5 32 94.5 q11.5 46 15.5 87.5 q4 41.5 4 77.5 l0 46 q0 37 -5 79.5 q-5 42.5 -17 87.5 q-12 45 -32.5 91.5 q-20.5 46.5 -51.5 93.5 l48 0 ZM496 315 l160 -230 l-49 0 l-138 205 l-142 -205 l-48 0 l162 230 l-153 214 l48 0 l131 -190 l132 190 l50 0 l-153 -214 Z" /></font>
</defs>
</svg>
