<?xml version="1.0" standalone="no"?><!DOCTYPE svg PUBLIC "-//W3C//DTD SVG 1.1//EN" "http://www.w3.org/Graphics/SVG/1.1/DTD/svg11.dtd" ><svg xmlns="http://www.w3.org/2000/svg"><metadata></metadata><defs><font id="1.000;SAND;NanumSquareB;160623_01;" horiz-adv-x="1267"><font-face font-family="NanumSquare Bold" font-weight="700" font-stretch="normal" units-per-em="1000" panose-1="2 11 6 0 0 1 1 1 1 1" ascent="850" descent="-255" x-height="1" bbox="-62 -252 1203 847" underline-thickness="50" underline-position="-75" unicode-range="U+0000-ffe6" /><missing-glyph horiz-adv-x="910" d="M855 -143 l-800 0 l0 900 l800 0 l0 -900 ZM455 278 l-335 -385 l670 0 l-335 385 ZM95 -76 l334 384 l-334 384 l0 -768 ZM454 337 l334 384 l-667 0 l333 -384 ZM815 693 l-334 -386 l334 -384 l0 770 Z" /><glyph glyph-name="" unicode="  " d="" /><glyph glyph-name="" unicode="!" d="M93 48 l114 0 l0 -115 l-114 0 l0 115 ZM108 151 l-14 583 l112 0 l-14 -583 l-84 0 Z" /><glyph glyph-name="" unicode="&quot;" d="M70 488 l-10 246 l104 0 l-10 -246 l-84 0 ZM233 488 l-10 246 l104 0 l-10 -246 l-84 0 Z" /><glyph glyph-name="" unicode="#" d="M543 262 l0 -87 l-113 0 l-28 -201 l-80 0 l28 201 l-131 0 l-27 -201 l-81 0 l28 201 l-99 0 l0 87 l111 0 l21 150 l-101 0 l0 87 l114 0 l27 196 l80 0 l-27 -196 l130 0 l27 196 l81 0 l-28 -196 l99 0 l0 -87 l-111 0 l-21 -150 l101 0 ZM383 412 l-131 0 l-21 -150 l131 0 l21 150 Z" /><glyph glyph-name="" unicode="$" d="M286 -21 q-64 4 -124.5 25.5 q-60.5 21.5 -101.5 54.5 l50 75 q35 -27 81.5 -46.5 q46.5 -19.5 94.5 -24.5 l0 240 q-47 11 -86 25.5 q-39 14.5 -67 36.5 q-28 22 -43.5 53.5 q-15.5 31.5 -15.5 76.5 l0 18 q0 34 13 64 q13 30 39.5 54 q26.5 24 66 39.5 q39.5 15.5 93.5 19.5 l0 61 l61 0 l0 -60 q59 -3 108.5 -20 q49.5 -17 84.5 -44 l-48 -70 q-68 45 -145 51 l0 -231 q63 -17 105.5 -35.5 q42.5 -18.5 68 -42 q25.5 -23.5 36.5 -52 q11 -28.5 11 -64.5 l0 -15 q0 -45 -16.5 -79 q-16.5 -34 -45.5 -57 q-29 -23 -70 -36 q-41 -13 -89 -16 l0 -73 l-61 0 l0 72 ZM471 176 q0 19 -5 35 q-5 16 -19 29.5 q-14 13.5 -38 25.5 q-24 12 -62 22 l0 -225 q62 7 93 34 q31 27 31 64 l0 15 ZM170 497 q0 -43 30 -65 q30 -22 86 -39 l0 214 q-61 -6 -88.5 -33.5 q-27.5 -27.5 -27.5 -59.5 l0 -17 Z" /><glyph glyph-name="" unicode="%" d="M186 -25 l431 720 l89 0 l-430 -720 l-90 0 ZM227 706 q76 0 119.5 -45 q43.5 -45 43.5 -124 l0 -42 q0 -79 -43.5 -124 q-43.5 -45 -119.5 -45 q-76 0 -119.5 45 q-43.5 45 -43.5 124 l0 42 q0 79 43.5 124 q43.5 45 119.5 45 ZM227 394 q85 0 85 103 l0 38 q0 103 -85 103 q-85 0 -85 -103 l0 -38 q0 -103 85 -103 ZM666 346 q76 0 119.5 -45 q43.5 -45 43.5 -124 l0 -42 q0 -79 -43.5 -124 q-43.5 -45 -119.5 -45 q-76 0 -119.5 45 q-43.5 45 -43.5 124 l0 42 q0 79 43.5 124 q43.5 45 119.5 45 ZM666 34 q85 0 85 103 l0 38 q0 103 -85 103 q-85 0 -85 -103 l0 -38 q0 -103 85 -103 Z" /><glyph glyph-name="" unicode="&amp;" d="M281 49 q48 0 88 16.5 q40 16.5 70 45.5 l-169 202 q-35 -19 -61 -35.5 q-26 -16.5 -42.5 -33.5 q-16.5 -17 -24.5 -35.5 q-8 -18.5 -8 -40.5 l0 -16 q0 -21 11 -39.5 q11 -18.5 31 -33 q20 -14.5 46.5 -22.5 q26.5 -8 58.5 -8 ZM217 544 q0 -14 7 -29 q7 -15 17.5 -31 q10.5 -16 24 -32.5 q13.5 -16.5 26.5 -31.5 q33 19 53 35.5 q20 16.5 31 32 q11 15.5 15 29.5 q4 14 4 27 l0 11 q0 28 -26 47.5 q-26 19.5 -63 19.5 q-42 0 -65.5 -20.5 q-23.5 -20.5 -23.5 -46.5 l0 -11 ZM616 361 q0 -152 -63 -249 l116 -137 l-114 0 l-59 70 q-45 -42 -101 -62 q-56 -20 -112 -20 l-6 0 q-45 0 -87.5 11 q-42.5 11 -75.5 34 q-33 23 -53 58 q-20 35 -20 83 l0 23 q0 34 10.5 63 q10.5 29 32 54 q21.5 25 53.5 47 q32 22 76 44 q-15 18 -30.5 36.5 q-15.5 18.5 -27.5 38 q-12 19.5 -20 41 q-8 21.5 -8 45.5 l0 18 q0 29 11.5 55.5 q11.5 26.5 34 47 q22.5 20.5 56 32.5 q33.5 12 77.5 12 q42 0 75 -13 q33 -13 56.5 -34 q23.5 -21 36 -47 q12.5 -26 12.5 -53 l0 -19 q0 -24 -6.5 -47 q-6.5 -23 -22.5 -45.5 q-16 -22.5 -43 -45.5 q-27 -23 -68 -47 l146 -171 q17 32 25 73 q8 41 8 104 l91 0 Z" /><glyph glyph-name="" unicode="&#39;" d="M70 488 l-10 246 l108 0 l-10 -246 l-88 0 Z" /><glyph glyph-name="" unicode="(" d="M177 274 q0 -114 30 -226 q30 -112 107 -218 l-92 0 q-75 89 -111 202 q-36 113 -36 247 l0 40 q0 134 36 246 q36 112 111 201 l92 0 q-74 -100 -105.5 -210.5 q-31.5 -110.5 -31.5 -231.5 l0 -50 Z" /><glyph glyph-name="" unicode=")" d="M160 324 q0 121 -31.5 231.5 q-31.5 110.5 -105.5 210.5 l92 0 q75 -89 111 -201 q36 -112 36 -246 l0 -40 q0 -134 -36 -247 q-36 -113 -111 -202 l-92 0 q77 106 107 218 q30 112 30 226 l0 50 Z" /><glyph glyph-name="" unicode="*" d="M84 400 l-41 77 l139 59 l-139 58 l41 77 l119 -83 l-11 143 l86 0 l-12 -143 l120 83 l40 -77 l-139 -58 l139 -59 l-40 -77 l-120 83 l12 -142 l-86 0 l12 142 l-120 -83 Z" /><glyph glyph-name="" unicode="+" d="M345 571 l0 -211 l207 0 l0 -84 l-207 0 l0 -225 l-90 0 l0 225 l-207 0 l0 84 l207 0 l0 211 l90 0 Z" /><glyph glyph-name="" unicode="," d="M100 53 l115 0 l-77 -228 l-80 0 l42 228 Z" /><glyph glyph-name="" unicode="-" d="M46 376 l326 0 l0 -84 l-326 0 l0 84 Z" /><glyph glyph-name="" unicode="." d="M90 48 l114 0 l0 -115 l-114 0 l0 115 Z" /><glyph glyph-name="" unicode="/" d="M419 768 l-306 -896 l-95 0 l305 896 l96 0 Z" /><glyph glyph-name="" unicode="0" d="M560 279 q0 -153 -62.5 -234.5 q-62.5 -81.5 -192.5 -81.5 q-129 0 -192 82 q-63 82 -63 234 l0 112 q0 152 64 233.5 q64 81.5 191 81.5 q128 0 191.5 -81.5 q63.5 -81.5 63.5 -233.5 l0 -112 ZM459 392 q0 66 -11.5 109 q-11.5 43 -32.5 68 q-21 25 -49 35 q-28 10 -61 10 q-32 0 -60 -10 q-28 -10 -49 -35.5 q-21 -25.5 -33 -68 q-12 -42.5 -12 -108.5 l0 -114 q0 -66 12 -109.5 q12 -43.5 33 -68.5 q21 -25 49 -35 q28 -10 60 -10 q33 0 61 10 q28 10 49 35 q21 25 32.5 68 q11.5 43 11.5 110 l0 114 Z" /><glyph glyph-name="" unicode="1" d="M326 -26 l0 605 l-169 -100 l-47 80 l232 136 l83 0 l0 -721 l-99 0 Z" /><glyph glyph-name="" unicode="2" d="M333 349 q31 34 49 59 q18 25 27 44.5 q9 19.5 11.5 35 q2.5 15.5 2.5 29.5 l0 8 q0 43 -33.5 67.5 q-33.5 24.5 -90.5 24.5 q-20 0 -40.5 -4.5 q-20.5 -4.5 -40.5 -16.5 q-20 -12 -39 -32.5 q-19 -20.5 -37 -51.5 l-76 49 q13 23 32 48.5 q19 25.5 46.5 47 q27.5 21.5 65 35.5 q37.5 14 87.5 14 q55 0 97 -13.5 q42 -13.5 70.5 -37.5 q28.5 -24 43 -57.5 q14.5 -33.5 14.5 -72.5 l0 -10 q0 -59 -31 -111 q-31 -52 -80 -104 l-225 -240 l362 0 l0 -86 l-484 0 l0 83 l269 292 Z" /><glyph glyph-name="" unicode="3" d="M75 598 q16 22 35.5 42 q19.5 20 45 34.5 q25.5 14.5 57 23 q31.5 8.5 72.5 8.5 q50 0 90 -13 q40 -13 68.5 -36.5 q28.5 -23.5 44 -57 q15.5 -33.5 15.5 -73.5 l0 -10 q0 -21 -5 -45 q-5 -24 -18 -46 q-13 -22 -35 -41 q-22 -19 -55 -31 q73 -13 109.5 -58 q36.5 -45 36.5 -108 l0 -15 q0 -40 -14.5 -77.5 q-14.5 -37.5 -45 -67 q-30.5 -29.5 -78.5 -47 q-48 -17.5 -114 -17.5 q-63 0 -121.5 19.5 q-58.5 19.5 -109.5 60.5 l49 79 q53 -38 94 -53.5 q41 -15.5 88 -15.5 q39 0 68 9.5 q29 9.5 48 25.5 q19 16 28 37.5 q9 21.5 9 45.5 l0 13 q0 36 -11.5 59.5 q-11.5 23.5 -31.5 37.5 q-20 14 -47.5 20 q-27.5 6 -58.5 6 l-89 0 l0 86 l85 0 q34 0 57 10.5 q23 10.5 37 27.5 q14 17 20.5 39 q6.5 22 6.5 45 l0 8 q0 24 -9.5 41.5 q-9.5 17.5 -25.5 29.5 q-16 12 -38 18 q-22 6 -46 6 q-45 0 -78 -17 q-33 -17 -62 -55 l-71 52 Z" /><glyph glyph-name="" unicode="4" d="M485 434 l0 -221 l102 0 l0 -84 l-102 0 l0 -155 l-98 0 l0 155 l-360 0 l0 74 l339 492 l109 0 l-332 -482 l244 0 l0 221 l98 0 Z" /><glyph glyph-name="" unicode="5" d="M559 191 q0 -40 -14 -80.5 q-14 -40.5 -44 -73.5 q-30 -33 -78 -53.5 q-48 -20.5 -115 -20.5 q-74 0 -134 19.5 q-60 19.5 -111 60.5 l49 79 q52 -41 99.5 -55 q47.5 -14 98.5 -14 q39 0 67.5 12 q28.5 12 47 31.5 q18.5 19.5 27 44.5 q8.5 25 8.5 50 l0 12 q0 72 -38 107.5 q-38 35.5 -107 35.5 q-46 0 -81.5 -17 q-35.5 -17 -59.5 -40 l-76 0 l23 406 l391 0 l0 -85 l-301 0 l-11 -225 q24 18 61.5 31 q37.5 13 82.5 13 q51 0 91 -17.5 q40 -17.5 67.5 -48 q27.5 -30.5 42 -71 q14.5 -40.5 14.5 -86.5 l0 -15 Z" /><glyph glyph-name="" unicode="6" d="M488 573 q-34 20 -73 31 q-39 11 -82 11 q-37 0 -67.5 -12.5 q-30.5 -12.5 -53 -41.5 q-22.5 -29 -36 -77 q-13.5 -48 -16.5 -119 q9 16 25.5 30.5 q16.5 14.5 39 26 q22.5 11.5 50 18.5 q27.5 7 57.5 7 q48 0 89.5 -16 q41.5 -16 72 -46 q30.5 -30 48 -72.5 q17.5 -42.5 17.5 -95.5 l0 -22 q0 -52 -18 -94.5 q-18 -42.5 -50 -73 q-32 -30.5 -77.5 -47.5 q-45.5 -17 -100.5 -17 q-122 0 -186.5 75.5 q-64.5 75.5 -64.5 221.5 l0 37 q0 118 20.5 197 q20.5 79 57 126 q36.5 47 87.5 66.5 q51 19.5 112 19.5 q49 0 97.5 -12 q48.5 -12 89.5 -37 l-38 -84 ZM163 205 q0 -70 39 -111 q39 -41 107 -41 q70 0 110.5 38 q40.5 38 40.5 109 l0 13 q0 72 -41 109 q-41 37 -107 37 q-33 0 -60.5 -11 q-27.5 -11 -47 -29.5 q-19.5 -18.5 -30.5 -44 q-11 -25.5 -11 -55.5 l0 -14 Z" /><glyph glyph-name="" unicode="7" d="M271 -26 l-108 0 l286 635 l-392 0 l0 86 l499 0 l0 -76 l-285 -645 Z" /><glyph glyph-name="" unicode="8" d="M185 499 q0 -54 34.5 -84 q34.5 -30 85.5 -30 q51 0 85.5 30 q34.5 30 34.5 84 l0 11 q0 51 -33 80 q-33 29 -87 29 q-54 0 -87 -29 q-33 -29 -33 -80 l0 -11 ZM166 166 q0 -51 37.5 -82.5 q37.5 -31.5 102.5 -31.5 q65 0 101.5 31.5 q36.5 31.5 36.5 82.5 l0 11 q0 59 -39 90 q-39 31 -99 31 q-29 0 -54.5 -7.5 q-25.5 -7.5 -44.5 -23 q-19 -15.5 -30 -38 q-11 -22.5 -11 -52.5 l0 -11 ZM64 178 q0 30 9.5 56.5 q9.5 26.5 26.5 48 q17 21.5 39.5 37.5 q22.5 16 48.5 24 q-52 25 -77.5 69 q-25.5 44 -25.5 90 l0 14 q0 39 14.5 73 q14.5 34 42.5 60 q28 26 69 41 q41 15 94 15 q52 0 93 -15 q41 -15 69 -41 q28 -26 43 -60 q15 -34 15 -73 l0 -14 q0 -46 -25 -89 q-25 -43 -78 -70 q53 -16 88.5 -61 q35.5 -45 35.5 -105 l0 -17 q0 -43 -16.5 -79.5 q-16.5 -36.5 -47.5 -62.5 q-31 -26 -75.5 -41 q-44.5 -15 -101.5 -15 q-57 0 -101.5 15 q-44.5 15 -75.5 41 q-31 26 -47.5 62.5 q-16.5 36.5 -16.5 79.5 l0 17 Z" /><glyph glyph-name="" unicode="9" d="M122 98 q34 -20 73 -32 q39 -12 82 -12 q37 0 68.5 12 q31.5 12 54 40.5 q22.5 28.5 35.5 75.5 q13 47 15 118 q-9 -16 -26 -30.5 q-17 -14.5 -39.5 -26 q-22.5 -11.5 -49.5 -18.5 q-27 -7 -57 -7 q-48 0 -89.5 16 q-41.5 16 -72 46 q-30.5 30 -48 72.5 q-17.5 42.5 -17.5 95.5 l0 22 q0 52 18 95 q18 43 50 74.5 q32 31.5 77.5 49 q45.5 17.5 100.5 17.5 q121 0 186 -73.5 q65 -73.5 65 -219.5 l0 -37 q0 -119 -18 -198 q-18 -79 -53.5 -127 q-35.5 -48 -87 -68 q-51.5 -20 -118.5 -20 q-49 0 -97.5 13 q-48.5 13 -89.5 38 l38 84 ZM447 462 q0 70 -39 112 q-39 42 -107 42 q-70 0 -110.5 -39 q-40.5 -39 -40.5 -110 l0 -13 q0 -72 42 -110 q42 -38 106 -38 q33 0 60.5 11 q27.5 11 47 30.5 q19.5 19.5 30.5 45 q11 25.5 11 55.5 l0 14 Z" /><glyph glyph-name="" unicode=":" d="M120 128 l114 0 l0 -115 l-114 0 l0 115 ZM120 574 l114 0 l0 -115 l-114 0 l0 115 Z" /><glyph glyph-name="" unicode=";" d="M120 574 l114 0 l0 -115 l-114 0 l0 115 ZM130 133 l115 0 l-77 -228 l-80 0 l42 228 Z" /><glyph glyph-name="" unicode="&lt;" d="M179 318 l362 -187 l0 -100 l-472 250 l0 79 l472 250 l0 -99 l-362 -187 l0 -6 Z" /><glyph glyph-name="" unicode="=" d="M74 468 l462 0 l0 -85 l-462 0 l0 85 ZM74 257 l462 0 l0 -85 l-462 0 l0 85 Z" /><glyph glyph-name="" unicode="&gt;" d="M431 324 l-362 187 l0 99 l472 -250 l0 -79 l-472 -250 l0 100 l362 187 l0 6 Z" /><glyph glyph-name="" unicode="?" d="M198 141 l0 46 q0 25 4 44.5 q4 19.5 14.5 38.5 q10.5 19 28.5 40 q18 21 45 48 q27 27 45.5 45.5 q18.5 18.5 30 34 q11.5 15.5 16.5 32 q5 16.5 5 40.5 l0 13 q0 38 -28.5 66.5 q-28.5 28.5 -90.5 28.5 q-49 0 -89.5 -19.5 q-40.5 -19.5 -72.5 -52.5 l-60 69 q39 42 92.5 66.5 q53.5 24.5 127.5 24.5 q105 0 163 -50 q58 -50 58 -132 l0 -14 q0 -37 -10.5 -65 q-10.5 -28 -28 -52 q-17.5 -24 -40 -45 q-22.5 -21 -45.5 -43 q-17 -16 -28.5 -29.5 q-11.5 -13.5 -19.5 -27.5 q-8 -14 -11.5 -29.5 q-3.5 -15.5 -3.5 -34.5 l0 -43 l-102 0 ZM193 48 l114 0 l0 -115 l-114 0 l0 115 Z" /><glyph glyph-name="" unicode="@" d="M758 40 q-40 0 -77 20.5 q-37 20.5 -52 65.5 l-1 0 q-9 -24 -27 -40 q-18 -16 -39.5 -26 q-21.5 -10 -43.5 -14 q-22 -4 -40 -4 q-96 0 -146 54 q-50 54 -50 145 l0 78 q0 92 48.5 145.5 q48.5 53.5 132.5 53.5 q56 0 89 -17 q33 -17 47 -41 l0 52 l94 0 l0 -315 q0 -42 17 -61.5 q17 -19.5 49 -19.5 q25 0 44 9.5 q19 9.5 32 31 q13 21.5 20 56 q7 34.5 7 84.5 l0 11 q0 84 -24.5 150 q-24.5 66 -72.5 112.5 q-48 46.5 -118 71 q-70 24.5 -161 24.5 q-78 0 -143 -25 q-65 -25 -111.5 -72.5 q-46.5 -47.5 -72.5 -116.5 q-26 -69 -26 -156 l0 -17 q0 -93 25.5 -164.5 q25.5 -71.5 73.5 -120 q48 -48.5 117.5 -74 q69.5 -25.5 156.5 -25.5 q75 0 149 16.5 q74 16.5 136 48.5 l28 -70 q-63 -34 -141.5 -52.5 q-78.5 -18.5 -168.5 -18.5 q-108 0 -193 32 q-85 32 -144 92 q-59 60 -90.5 145 q-31.5 85 -31.5 190 l0 19 q0 96 30.5 177.5 q30.5 81.5 87 140.5 q56.5 59 137 92.5 q80.5 33.5 181.5 33.5 q111 0 196 -31.5 q85 -31.5 143 -88.5 q58 -57 88 -136 q30 -79 30 -174 l0 -13 q0 -44 -8.5 -89.5 q-8.5 -45.5 -29.5 -83 q-21 -37.5 -56.5 -61.5 q-35.5 -24 -90.5 -24 ZM381 257 q0 -57 25 -90.5 q25 -33.5 79 -33.5 q21 0 40.5 5 q19.5 5 35 17 q15.5 12 24.5 32 q9 20 9 50 l0 88 q0 20 -5.5 38.5 q-5.5 18.5 -18.5 33 q-13 14.5 -34 23 q-21 8.5 -51 8.5 q-49 0 -76.5 -27 q-27.5 -27 -27.5 -98 l0 -46 Z" /><glyph glyph-name="" unicode="a" d="M653 -26 l-104 0 l-76 212 l-276 0 l-76 -212 l-101 0 l268 721 l96 0 l269 -721 ZM227 271 l216 0 l-60 169 q-8 22 -14 38.5 q-6 16.5 -11 32 q-5 15.5 -10.5 32.5 q-5.5 17 -12.5 42 q-8 -25 -13 -42.5 q-5 -17.5 -10 -32.5 q-5 -15 -10.5 -31.5 q-5.5 -16.5 -13.5 -38.5 l-61 -169 Z" /><glyph glyph-name="" unicode="b" d="M82 695 l256 0 q229 0 229 -176 l0 -21 q0 -24 -6 -46.5 q-6 -22.5 -19.5 -41.5 q-13.5 -19 -36 -33.5 q-22.5 -14.5 -54.5 -22.5 q66 -10 107.5 -50 q41.5 -40 41.5 -115 l0 -25 q0 -89 -56.5 -139.5 q-56.5 -50.5 -174.5 -50.5 l-287 0 l0 721 ZM181 60 l151 0 q42 0 73.5 4.5 q31.5 4.5 52 16.5 q20.5 12 30.5 32.5 q10 20.5 10 52.5 l0 22 q0 33 -9 56 q-9 23 -31 38 q-22 15 -58 21.5 q-36 6.5 -90 6.5 l-129 0 l0 -250 ZM181 610 l0 -219 l128 0 q37 0 66.5 4 q29.5 4 49.5 16 q20 12 30.5 33 q10.5 21 10.5 55 l0 18 q0 32 -9.5 50.5 q-9.5 18.5 -30 28 q-20.5 9.5 -51.5 12 q-31 2.5 -73 2.5 l-121 0 Z" /><glyph glyph-name="" unicode="c" d="M604 55 q-54 -52 -118 -72 q-64 -20 -137 -20 q-65 0 -118 19.5 q-53 19.5 -91 59.5 q-38 40 -59 99 q-21 59 -21 139 l0 109 q0 79 21 138 q21 59 59.5 99 q38.5 40 91.5 60 q53 20 117 20 q75 0 131 -18.5 q56 -18.5 107 -58.5 l-51 -81 q-49 40 -93.5 53 q-44.5 13 -93.5 13 q-41 0 -75.5 -14 q-34.5 -14 -60 -43 q-25.5 -29 -39.5 -74 q-14 -45 -14 -107 l0 -83 q0 -62 14 -107 q14 -45 39.5 -74 q25.5 -29 60 -43 q34.5 -14 75.5 -14 q52 0 104 16 q52 16 97 60 l54 -76 Z" /><glyph glyph-name="" unicode="d" d="M321 695 q149 0 226 -79.5 q77 -79.5 77 -229.5 l0 -103 q0 -150 -75 -229.5 q-75 -79.5 -228 -79.5 l-239 0 l0 721 l239 0 ZM181 62 l131 0 q48 0 87 12.5 q39 12.5 66.5 39.5 q27.5 27 42.5 70 q15 43 15 104 l0 93 q0 61 -15 104 q-15 43 -42.5 70.5 q-27.5 27.5 -66.5 40 q-39 12.5 -87 12.5 l-131 0 l0 -546 Z" /><glyph glyph-name="" unicode="e" d="M531 695 l0 -85 l-350 0 l0 -224 l329 0 l0 -85 l-329 0 l0 -242 l357 0 l0 -85 l-456 0 l0 721 l449 0 Z" /><glyph glyph-name="" unicode="f" d="M528 695 l0 -85 l-347 0 l0 -241 l326 0 l0 -85 l-326 0 l0 -310 l-99 0 l0 721 l446 0 Z" /><glyph glyph-name="" unicode="g" d="M613 28 q-48 -33 -112.5 -49 q-64.5 -16 -132.5 -16 q-72 0 -129 19.5 q-57 19.5 -96.5 59.5 q-39.5 40 -61 99 q-21.5 59 -21.5 139 l0 109 q0 79 21 138 q21 59 60 99 q39 40 94.5 60 q55.5 20 124.5 20 q70 0 129 -18 q59 -18 110 -58 l-51 -80 q-47 37 -92 51.5 q-45 14.5 -96 14.5 q-94 0 -147.5 -57.5 q-53.5 -57.5 -53.5 -182.5 l0 -83 q0 -125 57.5 -182.5 q57.5 -57.5 154.5 -57.5 q41 0 77.5 7.5 q36.5 7.5 65.5 21.5 l0 203 l-160 0 l0 85 l259 0 l0 -342 Z" /><glyph glyph-name="" unicode="h" d="M615 695 l0 -721 l-99 0 l0 332 l-335 0 l0 -332 l-99 0 l0 721 l99 0 l0 -301 l335 0 l0 301 l99 0 Z" /><glyph glyph-name="" unicode="i" d="M181 695 l0 -721 l-99 0 l0 721 l99 0 Z" /><glyph glyph-name="" unicode="j" d="M392 172 q0 -60 -16 -100 q-16 -40 -44 -64.5 q-28 -24.5 -66 -34.5 q-38 -10 -83 -10 q-39 0 -85.5 14 q-46.5 14 -81.5 45 l47 78 q32 -25 60 -35 q28 -10 63 -10 q56 0 81.5 31.5 q25.5 31.5 25.5 106.5 l0 502 l99 0 l0 -523 Z" /><glyph glyph-name="" unicode="k" d="M328 383 l307 -409 l-126 0 l-249 337 l-79 -85 l0 -252 l-99 0 l0 721 l99 0 l0 -345 l316 345 l121 0 l-290 -312 Z" /><glyph glyph-name="" unicode="l" d="M181 695 l0 -636 l345 0 l0 -85 l-444 0 l0 721 l99 0 Z" /><glyph glyph-name="" unicode="m" d="M213 494 q-5 11 -9 21.5 q-4 10.5 -8 21.5 q-4 11 -9 25 q-5 14 -11 32 l0 -620 l-94 0 l0 721 l146 0 l200 -472 l195 472 l145 0 l0 -721 l-95 0 l0 620 q-5 -20 -9.5 -33.5 q-4.5 -13.5 -8 -24.5 q-3.5 -11 -7.5 -21 q-4 -10 -9 -21 l-172 -400 l-84 0 l-170 400 Z" /><glyph glyph-name="" unicode="n" d="M196 695 l280 -486 q11 -18 24.5 -45.5 q13.5 -27.5 26.5 -59.5 l0 591 l92 0 l0 -721 l-114 0 l-280 484 q-11 20 -24.5 47 q-13.5 27 -26.5 59 l0 -590 l-92 0 l0 721 l114 0 Z" /><glyph glyph-name="" unicode="o" d="M353 -37 q-65 0 -118.5 19.5 q-53.5 19.5 -92.5 59.5 q-39 40 -60.5 99 q-21.5 59 -21.5 139 l0 109 q0 79 21.5 138 q21.5 59 60.5 99 q39 40 93 60 q54 20 118 20 q64 0 118 -20 q54 -20 93 -60 q39 -40 60.5 -99 q21.5 -59 21.5 -138 l0 -109 q0 -80 -21.5 -139 q-21.5 -59 -60.5 -99 q-39 -40 -93 -59.5 q-54 -19.5 -118 -19.5 ZM353 616 q-42 0 -77.5 -13.5 q-35.5 -13.5 -61 -42 q-25.5 -28.5 -40 -74 q-14.5 -45.5 -14.5 -108.5 l0 -87 q0 -63 14.5 -108.5 q14.5 -45.5 40 -74 q25.5 -28.5 61 -42 q35.5 -13.5 77.5 -13.5 q42 0 77.5 13.5 q35.5 13.5 61 42 q25.5 28.5 40 74 q14.5 45.5 14.5 108.5 l0 87 q0 63 -14.5 108.5 q-14.5 45.5 -40 74 q-25.5 28.5 -61 42 q-35.5 13.5 -77.5 13.5 Z" /><glyph glyph-name="" unicode="p" d="M82 695 l258 0 q61 0 106 -15.5 q45 -15.5 74.5 -43 q29.5 -27.5 44 -65.5 q14.5 -38 14.5 -82 l0 -21 q0 -44 -15.5 -82.5 q-15.5 -38.5 -45.5 -67.5 q-30 -29 -74.5 -46 q-44.5 -17 -103.5 -17 l-159 0 l0 -281 l-99 0 l0 721 ZM181 609 l0 -268 l142 0 q156 0 156 129 l0 18 q0 62 -37.5 91.5 q-37.5 29.5 -107.5 29.5 l-153 0 Z" /><glyph glyph-name="" unicode="q" d="M349 -37 q-65 0 -118 19.5 q-53 19.5 -91 59.5 q-38 40 -59 99 q-21 59 -21 139 l0 109 q0 79 21 138 q21 59 59.5 99 q38.5 40 91.5 60 q53 20 117 20 q64 0 117 -20 q53 -20 91.5 -60 q38.5 -40 59.5 -99 q21 -59 21 -138 l0 -109 q0 -72 -17 -127 q-17 -55 -48 -94 l85 -84 l-59 -61 l-90 89 q-68 -40 -160 -40 ZM349 616 q-41 0 -76 -13.5 q-35 -13.5 -60 -42 q-25 -28.5 -39 -74 q-14 -45.5 -14 -108.5 l0 -87 q0 -63 14 -108.5 q14 -45.5 39 -74 q25 -28.5 60 -42 q35 -13.5 76 -13.5 q25 0 47.5 4.5 q22.5 4.5 42.5 15.5 l-90 90 l59 61 l93 -93 q18 29 27.5 68 q9.5 39 9.5 92 l0 87 q0 63 -14 108.5 q-14 45.5 -39 74 q-25 28.5 -59.5 42 q-34.5 13.5 -76.5 13.5 Z" /><glyph glyph-name="" unicode="r" d="M181 -26 l-99 0 l0 721 l261 0 q55 0 98 -15 q43 -15 72 -41 q29 -26 44.5 -62 q15.5 -36 15.5 -79 l0 -26 q0 -61 -31.5 -108 q-31.5 -47 -89.5 -70 l143 -320 l-107 0 l-130 301 l-177 0 l0 -301 ZM181 359 l138 0 q84 0 119.5 31.5 q35.5 31.5 35.5 84.5 l0 20 q0 53 -35 84 q-35 31 -110 31 l-148 0 l0 -251 Z" /><glyph glyph-name="" unicode="s" d="M312 53 q77 0 115.5 31 q38.5 31 38.5 74 l0 16 q0 24 -8 42 q-8 18 -27 32 q-19 14 -49 25.5 q-30 11.5 -74 20.5 q-51 11 -95 25.5 q-44 14.5 -76 37 q-32 22.5 -50.5 56 q-18.5 33.5 -18.5 82.5 l0 18 q0 37 15 71.5 q15 34.5 46 61.5 q31 27 77.5 43.5 q46.5 16.5 108.5 16.5 q66 0 120 -16 q54 -16 100 -47 l-47 -77 q-40 27 -81 39 q-41 12 -91 12 q-68 0 -108.5 -30 q-40.5 -30 -40.5 -73 l0 -16 q0 -25 11 -42.5 q11 -17.5 32 -30.5 q21 -13 52 -22.5 q31 -9.5 71 -18.5 q67 -15 111.5 -34.5 q44.5 -19.5 71.5 -44.5 q27 -25 38.5 -56 q11.5 -31 11.5 -68 l0 -18 q0 -50 -19.5 -87 q-19.5 -37 -53.5 -62.5 q-34 -25.5 -81.5 -38 q-47.5 -12.5 -102.5 -12.5 q-77 0 -141.5 24.5 q-64.5 24.5 -109.5 60.5 l50 81 q20 -15 46 -29 q26 -14 53 -24.5 q27 -10.5 54.5 -16.5 q27.5 -6 50.5 -6 Z" /><glyph glyph-name="" unicode="t" d="M236 -26 l0 636 l-220 0 l0 85 l539 0 l0 -85 l-220 0 l0 -636 l-99 0 Z" /><glyph glyph-name="" unicode="u" d="M610 695 l0 -432 q0 -82 -18 -139 q-18 -57 -52 -93 q-34 -36 -84 -52 q-50 -16 -114 -16 q-64 0 -114 16 q-50 16 -84 52 q-34 36 -52 93 q-18 57 -18 139 l0 432 l99 0 l0 -420 q0 -61 10 -103.5 q10 -42.5 31 -69 q21 -26.5 53 -38.5 q32 -12 75 -12 q43 0 75 12 q32 12 53 38.5 q21 26.5 31 69 q10 42.5 10 103.5 l0 420 l99 0 Z" /><glyph glyph-name="" unicode="v" d="M128 695 l209 -596 l214 596 l102 0 l-272 -721 l-93 0 l-268 721 l108 0 Z" /><glyph glyph-name="" unicode="w" d="M947 695 l-199 -721 l-99 0 l-160 589 l-163 -589 l-101 0 l-197 721 l104 0 l148 -589 l161 589 l96 0 l161 -589 l150 589 l99 0 Z" /><glyph glyph-name="" unicode="x" d="M392 346 l233 -372 l-117 0 l-183 309 l-183 -309 l-112 0 l233 376 l-218 345 l118 0 l170 -284 l169 284 l111 0 l-221 -349 Z" /><glyph glyph-name="" unicode="y" d="M363 264 l0 -290 l-99 0 l0 290 l-248 431 l110 0 l189 -337 l184 337 l110 0 l-246 -431 Z" /><glyph glyph-name="" unicode="z" d="M560 622 l-414 -562 l433 0 l0 -86 l-553 0 l0 81 l409 554 l-385 0 l0 86 l510 0 l0 -73 Z" /><glyph glyph-name="" unicode="[" d="M349 -170 l-264 0 l0 936 l264 0 l0 -86 l-166 0 l0 -764 l166 0 l0 -86 Z" /><glyph glyph-name="" unicode="\" d="M36 401 l102 0 l-72 294 l99 0 l64 -294 l137 0 l74 294 l89 0 l70 -294 l133 0 l63 294 l95 0 l-72 -294 l105 0 l0 -61 l-120 0 l-88 -366 l-90 0 l-86 366 l-112 0 l-90 -366 l-94 0 l-90 366 l-117 0 l0 61 ZM293 106 l58 234 l-109 0 l51 -234 ZM669 106 l50 234 l-106 0 l56 -234 ZM442 401 l83 0 l-40 174 l-43 -174 Z" /><glyph glyph-name="" unicode="]" d="M40 -84 l166 0 l0 764 l-166 0 l0 86 l264 0 l0 -936 l-264 0 l0 86 Z" /><glyph glyph-name="" unicode="^" d="M384 401 l-122 243 l-122 -243 l-94 0 l171 323 l91 0 l170 -323 l-94 0 Z" /><glyph glyph-name="" unicode="_" d="M500 -140 l-500 0 l0 65 l500 0 l0 -65 Z" /><glyph glyph-name="" unicode="`" d="M328 565 l-136 148 l116 0 l109 -148 l-89 0 Z" /><glyph glyph-name="" unicode="a" d="M230 -34 q-83 0 -131.5 41 q-48.5 41 -48.5 113 l0 27 q0 70 47 114 q47 44 152 44 l139 0 l0 32 q0 55 -26.5 81.5 q-26.5 26.5 -86.5 26.5 q-48 0 -83.5 -15 q-35.5 -15 -73.5 -40 l-48 72 q40 28 90 48.5 q50 20.5 116 20.5 q46 0 84 -11.5 q38 -11.5 65.5 -34 q27.5 -22.5 43 -55 q15.5 -32.5 15.5 -73.5 l0 -383 l-93 0 l0 66 l-1 0 q-8 -15 -21.5 -27.5 q-13.5 -12.5 -29.5 -21.5 q-22 -12 -47.5 -18.5 q-25.5 -6.5 -61.5 -6.5 ZM388 223 l-137 0 q-57 0 -81.5 -22 q-24.5 -22 -24.5 -61 l0 -14 q0 -40 28 -58 q28 -18 67 -18 q36 0 62.5 8.5 q26.5 8.5 48.5 25.5 q20 15 28.5 34.5 q8.5 19.5 8.5 50.5 l0 54 Z" /><glyph glyph-name="" unicode="b" d="M175 458 q26 41 68.5 57 q42.5 16 87.5 16 q104 0 159 -60.5 q55 -60.5 55 -172.5 l0 -97 q0 -56 -16 -99.5 q-16 -43.5 -44.5 -73.5 q-28.5 -30 -68.5 -46 q-40 -16 -88 -16 q-62 0 -99 21.5 q-37 21.5 -55 50.5 l-2 0 l0 -64 l-94 0 l0 756 l97 0 l0 -272 ZM174 169 q0 -21 10.5 -42.5 q10.5 -21.5 30 -38 q19.5 -16.5 45.5 -27 q26 -10.5 58 -10.5 q62 0 96.5 43 q34.5 43 34.5 121 l0 67 q0 78 -35 121 q-35 43 -96 43 q-30 0 -56 -10 q-26 -10 -45.5 -28 q-19.5 -18 -31 -43.5 q-11.5 -25.5 -11.5 -57.5 l0 -138 Z" /><glyph glyph-name="" unicode="c" d="M286 531 q68 0 111.5 -17 q43.5 -17 77.5 -43 l-46 -73 q-38 28 -70.5 37.5 q-32.5 9.5 -72.5 9.5 q-27 0 -52 -9 q-25 -9 -44 -28.5 q-19 -19.5 -30.5 -49.5 q-11.5 -30 -11.5 -72 l0 -69 q0 -44 11.5 -75.5 q11.5 -31.5 31 -51 q19.5 -19.5 45 -28.5 q25.5 -9 52.5 -9 q54 0 89.5 14 q35.5 14 64.5 36 l47 -74 q-29 -24 -78 -43.5 q-49 -19.5 -124 -19.5 q-114 0 -175.5 66 q-61.5 66 -61.5 184 l0 69 q0 59 17 104.5 q17 45.5 47.5 77 q30.5 31.5 74 48 q43.5 16.5 97.5 16.5 Z" /><glyph glyph-name="" unicode="d" d="M423 42 q-23 -42 -65.5 -59 q-42.5 -17 -93.5 -17 q-104 0 -158.5 60.5 q-54.5 60.5 -54.5 172.5 l0 97 q0 55 16 99 q16 44 44.5 74 q28.5 30 68.5 46 q40 16 88 16 q63 0 99.5 -21.5 q36.5 -21.5 53.5 -45.5 l0 266 l97 0 l0 -756 l-93 0 l0 68 l-2 0 ZM422 330 q0 21 -10.5 42 q-10.5 21 -30 37.5 q-19.5 16.5 -46 26.5 q-26.5 10 -57.5 10 q-62 0 -96.5 -43 q-34.5 -43 -34.5 -121 l0 -67 q0 -78 35 -121 q35 -43 96 -43 q30 0 56 9.5 q26 9.5 45.5 27.5 q19.5 18 31 43.5 q11.5 25.5 11.5 57.5 l0 141 Z" /><glyph glyph-name="" unicode="e" d="M285 448 q-30 0 -55.5 -10.5 q-25.5 -10.5 -44 -29 q-18.5 -18.5 -29 -45 q-10.5 -26.5 -10.5 -57.5 l0 -14 l274 0 l0 18 q0 63 -36 100.5 q-36 37.5 -99 37.5 ZM501 26 q-36 -25 -86 -42.5 q-50 -17.5 -125 -17.5 q-51 0 -94.5 14.5 q-43.5 14.5 -76 45 q-32.5 30.5 -51 78.5 q-18.5 48 -18.5 114 l0 62 q0 62 17.5 109 q17.5 47 49 78.5 q31.5 31.5 74.5 47.5 q43 16 94 16 q105 0 167 -64 q62 -64 62 -181 l0 -73 l-368 0 l0 -4 q0 -78 41 -118.5 q41 -40.5 107 -40.5 q54 0 92.5 13 q38.5 13 73.5 36 l41 -73 Z" /><glyph glyph-name="" unicode="f" d="M116 438 l-90 0 l0 83 l90 0 l0 54 q0 83 40.5 122 q40.5 39 118.5 39 q26 0 53.5 -4 q27.5 -4 44.5 -10 l-15 -79 q-36 10 -74 10 q-14 0 -27 -3 q-13 -3 -22.5 -11.5 q-9.5 -8.5 -15.5 -24.5 q-6 -16 -6 -43 l0 -50 l144 0 l0 -83 l-144 0 l0 -464 l-97 0 l0 464 Z" /><glyph glyph-name="" unicode="g" d="M518 -19 q0 -230 -244 -230 q-56 0 -102 16 q-46 16 -80 42 l44 76 q27 -20 63.5 -33 q36.5 -13 77.5 -13 q71 0 107.5 34.5 q36.5 34.5 36.5 107.5 l0 67 q-23 -39 -65 -55.5 q-42 -16.5 -92 -16.5 q-104 0 -158.5 60.5 q-54.5 60.5 -54.5 172.5 l0 87 q0 55 16 99 q16 44 44.5 74 q28.5 30 68.5 46 q40 16 88 16 q63 0 99.5 -21.5 q36.5 -21.5 53.5 -45.5 l0 57 l97 0 l0 -540 ZM422 330 q0 21 -10.5 42 q-10.5 21 -30 37.5 q-19.5 16.5 -46 26.5 q-26.5 10 -57.5 10 q-62 0 -96.5 -43 q-34.5 -43 -34.5 -121 l0 -57 q0 -78 35 -121 q35 -43 96 -43 q30 0 56 9.5 q26 9.5 45.5 27.5 q19.5 18 31 43.5 q11.5 25.5 11.5 57.5 l0 131 Z" /><glyph glyph-name="" unicode="h" d="M529 -26 l-97 0 l0 340 q0 69 -29 100 q-29 31 -90 31 q-25 0 -49.5 -8.5 q-24.5 -8.5 -44 -25 q-19.5 -16.5 -32 -41.5 q-12.5 -25 -12.5 -57 l0 -339 l-97 0 l0 756 l97 0 l0 -275 q25 37 65.5 56.5 q40.5 19.5 96.5 19.5 q40 0 75 -12 q35 -12 61 -36 q26 -24 41 -61 q15 -37 15 -86 l0 -362 Z" /><glyph glyph-name="" unicode="i" d="M178 521 l0 -547 l-97 0 l0 547 l97 0 ZM181 717 l0 -106 l-103 0 l0 106 l103 0 Z" /><glyph glyph-name="" unicode="j" d="M198 717 l0 -106 l-103 0 l0 106 l103 0 ZM195 -88 q0 -83 -40.5 -122 q-40.5 -39 -118.5 -39 q-26 0 -53.5 4 q-27.5 4 -44.5 10 l15 79 q36 -10 74 -10 q14 0 27 3 q13 3 22.5 11.5 q9.5 8.5 15.5 24.5 q6 16 6 43 l0 605 l97 0 l0 -609 Z" /><glyph glyph-name="" unicode="k" d="M318 302 l229 -328 l-122 0 l-174 260 l-76 -77 l0 -183 l-97 0 l0 756 l97 0 l0 -455 l234 246 l125 0 l-216 -219 Z" /><glyph glyph-name="" unicode="l" d="M175 730 l0 -756 l-97 0 l0 756 l97 0 Z" /><glyph glyph-name="" unicode="m" d="M829 -26 l-97 0 l0 328 q0 141 -103 141 q-23 0 -45.5 -7.5 q-22.5 -7.5 -40.5 -23 q-18 -15.5 -29.5 -40 q-11.5 -24.5 -11.5 -57.5 l0 -341 l-97 0 l0 328 q0 141 -103 141 q-23 0 -45.5 -7 q-22.5 -7 -40.5 -22 q-18 -15 -29.5 -38.5 q-11.5 -23.5 -11.5 -55.5 l0 -346 l-97 0 l0 547 l96 0 l0 -74 l1 0 q16 36 52.5 60 q36.5 24 93.5 24 q55 0 95.5 -23.5 q40.5 -23.5 61.5 -67.5 q26 40 65.5 65.5 q39.5 25.5 104.5 25.5 q85 0 133 -51.5 q48 -51.5 48 -146.5 l0 -359 Z" /><glyph glyph-name="" unicode="n" d="M529 -26 l-97 0 l0 340 q0 69 -29 100 q-29 31 -90 31 q-25 0 -49.5 -8.5 q-24.5 -8.5 -44 -25 q-19.5 -16.5 -32 -41.5 q-12.5 -25 -12.5 -57 l0 -339 l-97 0 l0 547 l94 0 l0 -69 l1 0 q25 38 66 58.5 q41 20.5 98 20.5 q40 0 75 -12 q35 -12 61 -36 q26 -24 41 -61 q15 -37 15 -86 l0 -362 Z" /><glyph glyph-name="" unicode="o" d="M294 531 q113 0 178.5 -65 q65.5 -65 65.5 -184 l0 -67 q0 -119 -65.5 -184 q-65.5 -65 -178.5 -65 q-113 0 -178.5 65 q-65.5 65 -65.5 184 l0 67 q0 120 65.5 184.5 q65.5 64.5 178.5 64.5 ZM294 51 q65 0 105.5 42.5 q40.5 42.5 40.5 129.5 l0 51 q0 87 -40.5 129.5 q-40.5 42.5 -105.5 42.5 q-65 0 -105.5 -42.5 q-40.5 -42.5 -40.5 -129.5 l0 -51 q0 -87 40.5 -129.5 q40.5 -42.5 105.5 -42.5 Z" /><glyph glyph-name="" unicode="p" d="M172 453 q24 42 67.5 60 q43.5 18 92.5 18 q104 0 158.5 -62 q54.5 -62 54.5 -171 l0 -97 q0 -57 -16 -100.5 q-16 -43.5 -44.5 -73.5 q-28.5 -30 -69 -45.5 q-40.5 -15.5 -89.5 -15.5 q-61 0 -97.5 22 q-36.5 22 -53.5 46 l0 -274 l-97 0 l0 761 l94 0 l0 -68 ZM174 169 q0 -21 10.5 -42.5 q10.5 -21.5 30 -38 q19.5 -16.5 45.5 -27 q26 -10.5 58 -10.5 q62 0 96.5 43 q34.5 43 34.5 121 l0 67 q0 78 -35 121 q-35 43 -96 43 q-30 0 -56 -10 q-26 -10 -45.5 -28 q-19.5 -18 -31 -43.5 q-11.5 -25.5 -11.5 -57.5 l0 -138 Z" /><glyph glyph-name="" unicode="q" d="M421 -240 l0 278 q-23 -39 -65 -55.5 q-42 -16.5 -92 -16.5 q-104 0 -158.5 60.5 q-54.5 60.5 -54.5 172.5 l0 97 q0 55 16 99 q16 44 44.5 74 q28.5 30 68.5 46 q40 16 88 16 q63 0 99.5 -21.5 q36.5 -21.5 53.5 -45.5 l0 57 l97 0 l0 -761 l-97 0 ZM422 330 q0 21 -10.5 42 q-10.5 21 -30 37.5 q-19.5 16.5 -46 26.5 q-26.5 10 -57.5 10 q-62 0 -96.5 -43 q-34.5 -43 -34.5 -121 l0 -67 q0 -78 35 -121 q35 -43 96 -43 q30 0 56 9.5 q26 9.5 45.5 27.5 q19.5 18 31 43.5 q11.5 25.5 11.5 57.5 l0 141 Z" /><glyph glyph-name="" unicode="r" d="M376 426 q-14 6 -30.5 9.5 q-16.5 3.5 -36.5 3.5 q-27 0 -51.5 -10.5 q-24.5 -10.5 -42.5 -30 q-18 -19.5 -29 -46.5 q-11 -27 -11 -59 l0 -319 l-97 0 l0 547 l94 0 l0 -87 l1 0 q24 46 62.5 71.5 q38.5 25.5 98.5 25.5 q36 0 71 -11 l-29 -94 Z" /><glyph glyph-name="" unicode="s" d="M248 50 q54 0 84 19 q30 19 30 52 l0 8 q0 17 -5 29 q-5 12 -19 21 q-14 9 -38 16.5 q-24 7.5 -63 15.5 q-45 9 -80 22 q-35 13 -59 31.5 q-24 18.5 -36.5 44.5 q-12.5 26 -12.5 62 l0 12 q0 28 12 55 q12 27 37 47.5 q25 20.5 63.5 33 q38.5 12.5 91.5 12.5 q56 0 104.5 -12.5 q48.5 -12.5 89.5 -41.5 l-43 -73 q-27 20 -64.5 32 q-37.5 12 -79.5 12 q-61 0 -87.5 -18.5 q-26.5 -18.5 -26.5 -47.5 l0 -9 q0 -32 27 -47.5 q27 -15.5 91 -27.5 q50 -9 87 -22 q37 -13 61 -32.5 q24 -19.5 36 -46.5 q12 -27 12 -65 l0 -13 q0 -32 -14.5 -60 q-14.5 -28 -41.5 -48.5 q-27 -20.5 -65.5 -32.5 q-38.5 -12 -86.5 -12 q-69 0 -125 18 q-56 18 -95 48 l45 76 q37 -25 79 -41.5 q42 -16.5 92 -16.5 Z" /><glyph glyph-name="" unicode="t" d="M112 438 l-90 0 l0 83 l90 0 l0 138 l97 0 l0 -138 l144 0 l0 -83 l-144 0 l0 -311 q0 -25 5 -40.5 q5 -15.5 14.5 -23.5 q9.5 -8 22.5 -11 q13 -3 28 -3 q36 0 72 13 l15 -78 q-17 -7 -45 -12.5 q-28 -5.5 -57 -5.5 q-78 0 -115 39 q-37 39 -37 122 l0 311 Z" /><glyph glyph-name="" unicode="u" d="M70 521 l97 0 l0 -340 q0 -69 28 -100 q28 -31 89 -31 q25 0 49 8.5 q24 8.5 43.5 25 q19.5 16.5 31.5 41.5 q12 25 12 57 l0 339 l97 0 l0 -547 l-94 0 l0 69 l-1 0 q-25 -38 -65 -58.5 q-40 -20.5 -97 -20.5 q-40 0 -74.5 12 q-34.5 12 -60 36 q-25.5 24 -40.5 60.5 q-15 36.5 -15 86.5 l0 362 Z" /><glyph glyph-name="" unicode="v" d="M264 65 l143 456 l102 0 l-185 -547 l-124 0 l-187 547 l105 0 l144 -456 l2 0 Z" /><glyph glyph-name="" unicode="w" d="M382 400 l-110 -426 l-114 0 l-142 547 l102 0 l100 -446 l2 0 l116 446 l98 0 l115 -446 l2 0 l102 446 l96 0 l-140 -547 l-114 0 l-111 426 l-2 0 Z" /><glyph glyph-name="" unicode="x" d="M325 258 l180 -284 l-117 0 l-127 220 l-130 -220 l-111 0 l183 284 l-174 263 l117 0 l121 -202 l123 202 l108 0 l-173 -263 Z" /><glyph glyph-name="" unicode="y" d="M267 84 l144 437 l102 0 l-284 -773 l-88 31 l71 187 l-199 555 l105 0 l145 -437 l4 0 Z" /><glyph glyph-name="" unicode="z" d="M448 446 l-300 -388 l315 0 l0 -84 l-438 0 l0 70 l304 392 l-284 0 l0 85 l403 0 l0 -75 Z" /><glyph glyph-name="" unicode="{" d="M40 353 q55 1 80.5 19 q25.5 18 25.5 61 l0 188 q0 74 39.5 109.5 q39.5 35.5 116.5 35.5 l107 0 l0 -86 l-91 0 q-43 0 -58.5 -17.5 q-15.5 -17.5 -15.5 -68.5 l0 -161 q0 -18 -3 -37 q-3 -19 -12 -36 q-9 -17 -25.5 -30.5 q-16.5 -13.5 -42.5 -19.5 q25 -6 41.5 -18.5 q16.5 -12.5 25.5 -29.5 q9 -17 12.5 -36.5 q3.5 -19.5 3.5 -38.5 l0 -192 q0 -26 4 -41.5 q4 -15.5 12.5 -23.5 q8.5 -8 22.5 -11 q14 -3 35 -3 l91 0 l0 -86 l-107 0 q-77 0 -116.5 32.5 q-39.5 32.5 -39.5 105.5 l0 218 q0 44 -25.5 62.5 q-25.5 18.5 -80.5 19.5 l0 85 Z" /><glyph glyph-name="" unicode="|" d="M194 -170 l-94 0 l0 935 l94 0 l0 -935 Z" /><glyph glyph-name="" unicode="}" d="M409 268 q-55 -1 -80.5 -19.5 q-25.5 -18.5 -25.5 -62.5 l0 -218 q0 -73 -39.5 -105.5 q-39.5 -32.5 -116.5 -32.5 l-107 0 l0 86 l91 0 q21 0 35 3 q14 3 22.5 11 q8.5 8 12.5 23.5 q4 15.5 4 41.5 l0 192 q0 19 3.5 38.5 q3.5 19.5 12.5 36.5 q9 17 25 29.5 q16 12.5 42 18.5 q-26 6 -42.5 19.5 q-16.5 13.5 -25.5 30.5 q-9 17 -12 36 q-3 19 -3 37 l0 161 q0 51 -15.5 68.5 q-15.5 17.5 -58.5 17.5 l-91 0 l0 86 l107 0 q77 0 116.5 -35.5 q39.5 -35.5 39.5 -109.5 l0 -188 q0 -43 25.5 -61 q25.5 -18 80.5 -19 l0 -85 Z" /><glyph glyph-name="" unicode="~" d="M394 232 q-37 0 -62 14.5 q-25 14.5 -45.5 32.5 q-20.5 18 -38.5 32.5 q-18 14.5 -40 14.5 q-15 0 -26.5 -10 q-11.5 -10 -19 -24.5 q-7.5 -14.5 -11.5 -31.5 q-4 -17 -6 -31 l-87 0 q3 37 14.5 70 q11.5 33 30.5 58 q19 25 45 39 q26 14 59 14 q36 0 61.5 -14.5 q25.5 -14.5 45.5 -32.5 q20 -18 39 -32.5 q19 -14.5 42 -14.5 q30 0 44.5 25.5 q14.5 25.5 19.5 71.5 l85 0 q-6 -83 -44 -132 q-38 -49 -106 -49 Z" /><glyph glyph-name="" unicode="¡" d="M207 619 l-114 0 l0 115 l114 0 l0 -115 ZM192 516 l14 -583 l-112 0 l14 583 l84 0 Z" /><glyph glyph-name="" unicode="¢&#xffe0;" d="M263 695 l55 0 l0 -94 q51 -5 86.5 -20.5 q35.5 -15.5 64.5 -37.5 l-46 -70 q-29 20 -54 30 q-25 10 -51 14 l0 -364 q38 5 66 17.5 q28 12.5 52 30.5 l47 -71 q-25 -21 -65 -39 q-40 -18 -100 -23 l0 -94 l-55 0 l0 93 q-104 5 -161.5 66.5 q-57.5 61.5 -57.5 173.5 l0 60 q0 111 60 170.5 q60 59.5 159 64.5 l0 93 ZM140 308 q0 -41 10 -69.5 q10 -28.5 27 -47 q17 -18.5 39.5 -28 q22.5 -9.5 46.5 -11.5 l0 366 q-25 -2 -47 -11.5 q-22 -9.5 -39 -27.5 q-17 -18 -27 -45 q-10 -27 -10 -66 l0 -60 Z" /><glyph glyph-name="" unicode="£&#xffe1;" d="M53 372 l70 0 l0 92 q0 62 18.5 108 q18.5 46 50 76 q31.5 30 74 44.5 q42.5 14.5 91.5 14.5 q48 0 86.5 -10.5 q38.5 -10.5 60.5 -24.5 l-33 -81 q-28 14 -53 19.5 q-25 5.5 -54 5.5 q-28 0 -54 -7 q-26 -7 -45.5 -25 q-19.5 -18 -31 -48 q-11.5 -30 -11.5 -76 l0 -88 l205 0 l0 -70 l-205 0 l0 -68 q0 -35 -2.5 -60.5 q-2.5 -25.5 -8.5 -45.5 q-6 -20 -16.5 -36 q-10.5 -16 -27.5 -31 l0 -2 l344 0 l0 -85 l-473 0 l0 70 q23 13 39 30 q16 17 26.5 39 q10.5 22 15 50.5 q4.5 28.5 4.5 65.5 l0 73 l-70 0 l0 70 Z" /><glyph glyph-name="" unicode="¤" d="M755 628 l55 -57 l-118 -100 q23 -32 36 -72.5 q13 -40.5 13 -89.5 q0 -53 -15 -95.5 q-15 -42.5 -41 -74.5 l120 -107 l-53 -55 l-115 111 q-36 -32 -86 -50.5 q-50 -18.5 -102 -18.5 q-51 0 -99 16.5 q-48 16.5 -83 47.5 l-111 -106 l-53 55 l115 100 q-26 34 -43.5 78 q-17.5 44 -17.5 97 q0 51 15.5 92.5 q15.5 41.5 39.5 74.5 l-112 97 l56 57 l105 -100 q36 32 85 50 q49 18 104 18 q55 0 106 -19.5 q51 -19.5 88 -52.5 l111 104 ZM656 308 q0 43 -15.5 81.5 q-15.5 38.5 -43 67.5 q-27.5 29 -65 45.5 q-37.5 16.5 -82.5 16.5 l-1 0 q-44 0 -81.5 -16.5 q-37.5 -16.5 -65.5 -45 q-28 -28.5 -43.5 -67 q-15.5 -38.5 -15.5 -83.5 q0 -48 17 -87 q17 -39 45.5 -66.5 q28.5 -27.5 66 -43 q37.5 -15.5 77.5 -15.5 q41 0 78.5 15 q37.5 15 66 43 q28.5 28 45.5 67.5 q17 39.5 17 87.5 Z" /><glyph glyph-name="" unicode="¥&#xffe5;" d="M244 117 l-167 0 l0 75 l167 0 l0 53 l-167 0 l0 75 l149 0 l-206 368 l103 0 l169 -319 l5 0 l169 319 l94 0 l-206 -368 l151 0 l0 -75 l-168 0 l0 -53 l168 0 l0 -75 l-168 0 l0 -143 l-93 0 l0 143 Z" /><glyph glyph-name="" unicode="§" d="M202 379 q-42 -8 -63 -30 q-21 -22 -21 -57 q0 -38 19 -58.5 q19 -20.5 66 -34.5 l110 -34 q42 9 63 32 q21 23 21 56 q0 19 -4.5 33 q-4.5 14 -15.5 25 q-11 11 -29 20 q-18 9 -45 17 l-101 31 ZM239 -161 q-55 0 -96 10 q-41 10 -75 30 l0 74 q18 -7 34.5 -13.5 q16.5 -6.5 35.5 -11.5 q19 -5 40.5 -8 q21.5 -3 50.5 -3 q64 0 94.5 22 q30.5 22 30.5 63 q0 19 -4 32 q-4 13 -14 23 q-10 10 -27 18 q-17 8 -44 16 l-90 28 q-31 10 -57.5 23.5 q-26.5 13.5 -46 33 q-19.5 19.5 -30.5 46 q-11 26.5 -11 62.5 q0 52 25.5 83 q25.5 31 72.5 48 q-23 20 -36.5 49 q-13.5 29 -13.5 72 q0 73 51 119 q51 46 151 46 q56 0 88.5 -11 q32.5 -11 57.5 -24 l0 -74 q-23 11 -59.5 21 q-36.5 10 -84.5 10 q-54 0 -85 -19.5 q-31 -19.5 -31 -57.5 q0 -19 3 -32.5 q3 -13.5 11 -23.5 q8 -10 21.5 -17.5 q13.5 -7.5 35.5 -14.5 l99 -31 q37 -12 65.5 -25 q28.5 -13 48 -32 q19.5 -19 29 -45.5 q9.5 -26.5 9.5 -64.5 q0 -54 -26 -85 q-26 -31 -71 -48 q28 -20 41.5 -48 q13.5 -28 13.5 -69 q0 -83 -54.5 -127 q-54.5 -44 -152.5 -44 Z" /><glyph glyph-name="" unicode="¨" d="M123 680 l88 0 l0 -92 l-88 0 l0 92 ZM298 680 l88 0 l0 -92 l-88 0 l0 92 Z" /><glyph glyph-name="" unicode="©" d="M419 19 q68 0 124.5 23.5 q56.5 23.5 97.5 65.5 q41 42 64 100 q23 58 23 127 q0 69 -23 127 q-23 58 -64.5 100 q-41.5 42 -98 65 q-56.5 23 -123.5 23 q-67 0 -123 -23 q-56 -23 -97 -65 q-41 -42 -64 -100 q-23 -58 -23 -127 q0 -69 23 -127 q23 -58 64 -100 q41 -42 97 -65.5 q56 -23.5 123 -23.5 ZM419 -33 q-81 0 -148 29 q-67 29 -115 79 q-48 50 -75 117 q-27 67 -27 143 q0 76 27 143 q27 67 75 116.5 q48 49.5 115 78.5 q67 29 148 29 q82 0 149.5 -29 q67.5 -29 116 -78.5 q48.5 -49.5 75 -116.5 q26.5 -67 26.5 -143 q0 -76 -27 -143 q-27 -67 -75.5 -117 q-48.5 -50 -116 -79 q-67.5 -29 -148.5 -29 ZM428 545 q55 0 87.5 -14 q32.5 -14 57.5 -33 l-41 -64 q-29 21 -51.5 28 q-22.5 7 -52.5 7 q-16 0 -33 -5 q-17 -5 -30.5 -17.5 q-13.5 -12.5 -22 -33 q-8.5 -20.5 -8.5 -51.5 l0 -52 q0 -33 9 -54.5 q9 -21.5 23 -34 q14 -12.5 31 -18 q17 -5.5 32 -5.5 q39 0 65 9.5 q26 9.5 48 26.5 l41 -65 q-20 -18 -59 -32.5 q-39 -14.5 -96 -14.5 q-88 0 -134.5 49.5 q-46.5 49.5 -46.5 137.5 l0 52 q0 88 48.5 136 q48.5 48 132.5 48 Z" /><glyph glyph-name="" unicode="ª" d="M196 278 q-69 0 -107.5 32 q-38.5 32 -38.5 90 l0 23 q0 57 38 93 q38 36 124 36 l105 0 l0 21 q0 42 -18 61 q-18 19 -65 19 q-38 0 -68.5 -12.5 q-30.5 -12.5 -56.5 -31.5 l-44 66 q32 22 73.5 39 q41.5 17 95.5 17 q37 0 68 -9.5 q31 -9.5 54 -27.5 q23 -18 36 -43.5 q13 -25.5 13 -58.5 l0 -308 l-85 0 l-1 52 q-14 -29 -46 -43.5 q-32 -14.5 -77 -14.5 ZM317 478 l-104 0 q-42 0 -59 -16 q-17 -16 -17 -46 l0 -11 q0 -26 18 -38.5 q18 -12.5 49 -12.5 q51 0 82 22 q31 22 31 73 l0 29 Z" /><glyph glyph-name="" unicode="«&#x226a;" d="M816 17 l-31 -51 l-482 314 l0 45 l474 324 l37 -49 l-436 -297 l438 -286 ZM608 14 l-34 -52 l-480 318 l0 45 l473 328 l36 -51 l-434 -300 l439 -288 Z" /><glyph glyph-name="" unicode="¬&#xffe2;" d="M882 -154 l-62 0 l0 254 l-793 0 l0 61 l855 0 l0 -315 Z" /><glyph glyph-name="" unicode="­&#x2013;" d="M425 279 l-425 0 l0 70 l425 0 l0 -70 Z" /><glyph glyph-name="" unicode="°" d="M280 609 q0 -26 -9 -48.5 q-9 -22.5 -25 -39 q-16 -16.5 -39 -26.5 q-23 -10 -51 -10 q-28 0 -51 10 q-23 10 -39 26.5 q-16 16.5 -25 39 q-9 22.5 -9 48.5 q0 25 9 48 q9 23 25 39.5 q16 16.5 39 26.5 q23 10 51 10 q28 0 51 -10 q23 -10 39 -26.5 q16 -16.5 25 -39.5 q9 -23 9 -48 ZM219 609 q0 27 -17 46.5 q-17 19.5 -46 19.5 q-29 0 -46 -19.5 q-17 -19.5 -17 -46.5 q0 -27 17 -46.5 q17 -19.5 46 -19.5 q29 0 46 19.5 q17 19.5 17 46.5 Z" /><glyph glyph-name="" unicode="±" d="M561 112 l0 -84 l-513 0 l0 84 l513 0 ZM345 650 l0 -201 l207 0 l0 -84 l-207 0 l0 -215 l-90 0 l0 215 l-207 0 l0 84 l207 0 l0 201 l90 0 Z" /><glyph glyph-name="" unicode="²" d="M199 517 q20 22 32 37 q12 15 18 26.5 q6 11.5 7.5 20.5 q1.5 9 1.5 18 l0 5 q0 19 -14.5 34 q-14.5 15 -50.5 15 q-25 0 -47.5 -12 q-22.5 -12 -42.5 -47 l-66 44 q9 15 22 31.5 q13 16.5 32 30 q19 13.5 44.5 22.5 q25.5 9 58.5 9 q38 0 66.5 -10 q28.5 -10 47.5 -27 q19 -17 28.5 -39.5 q9.5 -22.5 9.5 -47.5 l0 -6 q0 -38 -24.5 -75 q-24.5 -37 -56.5 -71 l-111 -117 l209 0 l0 -74 l-324 0 l0 61 l160 172 Z" /><glyph glyph-name="" unicode="³" d="M47 680 q22 34 60 52.5 q38 18.5 83 18.5 q37 0 64.5 -9 q27.5 -9 46.5 -24.5 q19 -15.5 28.5 -35.5 q9.5 -20 9.5 -42 l0 -8 q0 -33 -14.5 -62.5 q-14.5 -29.5 -49.5 -44.5 q45 -9 66 -36.5 q21 -27.5 21 -61.5 l0 -12 q0 -62 -43.5 -100.5 q-43.5 -38.5 -126.5 -38.5 q-88 0 -157 54 l41 66 q36 -27 61.5 -35.5 q25.5 -8.5 52.5 -8.5 q45 0 64 19 q19 19 19 44 l0 10 q0 12 -4 23 q-4 11 -13.5 19.5 q-9.5 8.5 -26.5 14 q-17 5.5 -44 5.5 l-56 0 l0 75 l55 0 q38 0 53 13.5 q15 13.5 15 43.5 l0 6 q0 53 -65 53 q-20 0 -41 -9.5 q-21 -9.5 -40 -33.5 l-59 45 Z" /><glyph glyph-name="" unicode="´" d="M192 565 l109 148 l116 0 l-136 -148 l-89 0 Z" /><glyph glyph-name="" unicode="¶" d="M284 349 l-50 0 q-40 0 -76.5 11.5 q-36.5 11.5 -64.5 34.5 q-28 23 -44.5 57 q-16.5 34 -16.5 79 q0 37 12.5 70.5 q12.5 33.5 40 59 q27.5 25.5 72.5 40.5 q45 15 111 15 l236 0 l0 -838 l-67 0 l0 779 l-86 0 l0 -779 l-67 0 l0 471 Z" /><glyph glyph-name="" unicode="&#x30fb;·" d="M153 360 l114 0 l0 -115 l-114 0 l0 115 Z" /><glyph glyph-name="" unicode="¸" d="M215 -146 q57 5 81 15 q24 10 24 27 q0 19 -20.5 25.5 q-20.5 6.5 -62.5 6.5 l0 96 l58 0 l0 -49 q47 -3 73 -20.5 q26 -17.5 26 -52.5 q0 -23 -9 -40 q-9 -17 -30 -29.5 q-21 -12.5 -55.5 -20.5 q-34.5 -8 -84.5 -12 l0 54 Z" /><glyph glyph-name="" unicode="¹" d="M193 284 l0 359 l-104 -61 l-42 71 l159 89 l75 0 l0 -458 l-88 0 Z" /><glyph glyph-name="" unicode="º" d="M242 730 q92 0 145.5 -52 q53.5 -52 53.5 -147 l0 -55 q0 -96 -53.5 -147.5 q-53.5 -51.5 -145.5 -51.5 q-92 0 -146 51.5 q-54 51.5 -54 147.5 l0 55 q0 96 54 147.5 q54 51.5 146 51.5 ZM242 356 q54 0 82 30.5 q28 30.5 28 96.5 l0 41 q0 66 -28 96.5 q-28 30.5 -82 30.5 q-54 0 -82.5 -30.5 q-28.5 -30.5 -28.5 -96.5 l0 -41 q0 -66 28.5 -96.5 q28.5 -30.5 82.5 -30.5 Z" /><glyph glyph-name="" unicode="»&#x226b;" d="M816 280 l-480 -318 l-33 52 l438 288 l-434 300 l37 51 l472 -328 l0 -45 ZM608 280 l-482 -314 l-32 51 l438 285 l-435 298 l37 49 l474 -324 l0 -45 Z" /><glyph glyph-name="" unicode="¼" d="M691 709 l85 0 l-523 -775 l-85 0 l523 775 ZM193 237 l0 359 l-104 -61 l-42 71 l159 89 l75 0 l0 -458 l-88 0 ZM811 234 l0 -154 l60 0 l0 -72 l-60 0 l0 -91 l-84 0 l0 91 l-225 0 l0 60 l198 307 l92 0 l-191 -295 l126 0 l0 154 l84 0 Z" /><glyph glyph-name="" unicode="½" d="M691 709 l85 0 l-523 -775 l-85 0 l523 775 ZM193 237 l0 359 l-104 -61 l-42 71 l159 89 l75 0 l0 -458 l-88 0 ZM734 150 q20 22 32 37 q12 15 18 26.5 q6 11.5 7.5 20.5 q1.5 9 1.5 18 l0 5 q0 19 -14.5 34 q-14.5 15 -50.5 15 q-25 0 -47.5 -12 q-22.5 -12 -42.5 -47 l-66 44 q9 15 22 31.5 q13 16.5 32 30 q19 13.5 44.5 22.5 q25.5 9 58.5 9 q38 0 66.5 -10 q28.5 -10 47.5 -27 q19 -17 28.5 -39.5 q9.5 -22.5 9.5 -47.5 l0 -6 q0 -38 -24.5 -75 q-24.5 -37 -56.5 -71 l-111 -117 l209 0 l0 -74 l-324 0 l0 61 l160 172 Z" /><glyph glyph-name="" unicode="¾" d="M706 709 l85 0 l-523 -775 l-85 0 l523 775 ZM826 234 l0 -154 l60 0 l0 -72 l-60 0 l0 -91 l-84 0 l0 91 l-225 0 l0 60 l198 307 l92 0 l-191 -295 l126 0 l0 154 l84 0 ZM47 633 q22 34 60 52.5 q38 18.5 83 18.5 q37 0 64.5 -9 q27.5 -9 46.5 -24.5 q19 -15.5 28.5 -35.5 q9.5 -20 9.5 -42 l0 -8 q0 -33 -14.5 -62.5 q-14.5 -29.5 -49.5 -44.5 q45 -9 66 -36.5 q21 -27.5 21 -61.5 l0 -12 q0 -62 -43.5 -100.5 q-43.5 -38.5 -126.5 -38.5 q-88 0 -157 54 l41 66 q36 -27 61.5 -35.5 q25.5 -8.5 52.5 -8.5 q45 0 64 19 q19 19 19 44 l0 10 q0 12 -4 23 q-4 11 -13.5 19.5 q-9.5 8.5 -26.5 14 q-17 5.5 -44 5.5 l-56 0 l0 75 l55 0 q38 0 53 13.5 q15 13.5 15 43.5 l0 6 q0 53 -65 53 q-20 0 -41 -9.5 q-21 -9.5 -40 -33.5 l-59 45 Z" /><glyph glyph-name="" unicode="¿" d="M335 498 l0 -46 q0 -25 -4 -44.5 q-4 -19.5 -14.5 -38.5 q-10.5 -19 -28.5 -40 q-18 -21 -45 -48 q-27 -27 -45.5 -45.5 q-18.5 -18.5 -30 -34 q-11.5 -15.5 -16.5 -32 q-5 -16.5 -5 -40.5 l0 -13 q0 -38 28.5 -66.5 q28.5 -28.5 90.5 -28.5 q49 0 89.5 19.5 q40.5 19.5 72.5 52.5 l60 -69 q-39 -42 -92.5 -66.5 q-53.5 -24.5 -127.5 -24.5 q-105 0 -163 50 q-58 50 -58 132 l0 14 q0 37 10.5 65 q10.5 28 28 52 q17.5 24 40 45 q22.5 21 45.5 43 q33 31 48 56.5 q15 25.5 15 64.5 l0 43 l102 0 ZM340 591 l-114 0 l0 115 l114 0 l0 -115 Z" /><glyph glyph-name="" unicode="æ" d="M916 695 l0 -85 l-330 0 l0 -224 l309 0 l0 -85 l-309 0 l0 -242 l337 0 l0 -85 l-436 0 l0 212 l-238 0 l-130 -212 l-112 0 l448 721 l461 0 ZM487 594 q-6 -17 -12 -31.5 q-6 -14.5 -13.5 -28 q-7.5 -13.5 -16 -27.5 q-8.5 -14 -18.5 -31 l-126 -205 l186 0 l0 323 Z" /><glyph glyph-name="" unicode="ð" d="M11 382 l375 0 l0 -70 l-375 0 l0 70 ZM335 695 q149 0 226 -79.5 q77 -79.5 77 -229.5 l0 -103 q0 -150 -75 -229.5 q-75 -79.5 -228 -79.5 l-239 0 l0 721 l239 0 ZM195 62 l131 0 q48 0 87 12.5 q39 12.5 66.5 39.5 q27.5 27 42.5 70 q15 43 15 104 l0 93 q0 61 -15 104 q-15 43 -42.5 70.5 q-27.5 27.5 -66.5 40 q-39 12.5 -87 12.5 l-131 0 l0 -546 Z" /><glyph glyph-name="" unicode="×" d="M248 318 l-184 195 l54 53 l184 -195 l184 195 l54 -53 l-184 -195 l184 -195 l-54 -53 l-184 195 l-184 -195 l-54 53 l184 195 Z" /><glyph glyph-name="" unicode="ø" d="M60 7 l583 699 l53 -44 l-583 -699 l-53 44 ZM372 -37 q-65 0 -118.5 19.5 q-53.5 19.5 -92.5 59.5 q-39 40 -60.5 99 q-21.5 59 -21.5 139 l0 109 q0 79 21.5 138 q21.5 59 60.5 99 q39 40 93 60 q54 20 118 20 q64 0 118 -20 q54 -20 93 -60 q39 -40 60.5 -99 q21.5 -59 21.5 -138 l0 -109 q0 -80 -21.5 -139 q-21.5 -59 -60.5 -99 q-39 -40 -93 -59.5 q-54 -19.5 -118 -19.5 ZM372 616 q-42 0 -77.5 -13.5 q-35.5 -13.5 -61 -42 q-25.5 -28.5 -40 -74 q-14.5 -45.5 -14.5 -108.5 l0 -87 q0 -63 14.5 -108.5 q14.5 -45.5 40 -74 q25.5 -28.5 61 -42 q35.5 -13.5 77.5 -13.5 q42 0 77.5 13.5 q35.5 13.5 61 42 q25.5 28.5 40 74 q14.5 45.5 14.5 108.5 l0 87 q0 63 -14.5 108.5 q-14.5 45.5 -40 74 q-25.5 28.5 -61 42 q-35.5 13.5 -77.5 13.5 Z" /><glyph glyph-name="" unicode="þ" d="M82 695 l99 0 l0 -132 l159 0 q61 0 106 -16 q45 -16 74.5 -43.5 q29.5 -27.5 44 -65.5 q14.5 -38 14.5 -82 l0 -21 q0 -44 -15.5 -83.5 q-15.5 -39.5 -45.5 -69 q-30 -29.5 -74.5 -47 q-44.5 -17.5 -103.5 -17.5 l-159 0 l0 -144 l-99 0 l0 721 ZM181 477 l0 -273 l142 0 q156 0 156 133 l0 18 q0 62 -37.5 92 q-37.5 30 -107.5 30 l-153 0 Z" /><glyph glyph-name="" unicode="ß" d="M343 364 q0 -29 20.5 -45.5 q20.5 -16.5 55.5 -34.5 q39 -20 63.5 -38 q24.5 -18 38.5 -36.5 q14 -18.5 19 -38.5 q5 -20 5 -43 l0 -10 q0 -31 -10.5 -58.5 q-10.5 -27.5 -32.5 -48.5 q-22 -21 -54.5 -33 q-32.5 -12 -76.5 -12 q-54 0 -95 17 q-41 17 -73 43 l47 74 q32 -28 63.5 -39.5 q31.5 -11.5 58.5 -11.5 q37 0 57 18 q20 18 20 53 l0 6 q0 26 -14 44 q-14 18 -57 38 q-62 29 -96 64 q-34 35 -34 90 l0 9 q0 27 10.5 47.5 q10.5 20.5 27 37.5 q16.5 17 35 32 q18.5 15 35 30.5 q16.5 15.5 27 32.5 q10.5 17 10.5 39 l0 7 q0 24 -20.5 40 q-20.5 16 -78.5 16 q-60 0 -91 -31 q-31 -31 -31 -108 l0 -540 l-97 0 l0 559 q0 54 17 92.5 q17 38.5 46 63 q29 24.5 69 36 q40 11.5 86 11.5 q54 0 91.5 -11.5 q37.5 -11.5 60.5 -30.5 q23 -19 33.5 -43.5 q10.5 -24.5 10.5 -49.5 l0 -11 q0 -30 -11 -53.5 q-11 -23.5 -27 -42 q-16 -18.5 -35 -34 q-19 -15.5 -35 -30 q-16 -14.5 -27 -29 q-11 -14.5 -11 -31.5 l0 -6 Z" /><glyph glyph-name="" unicode="æ" d="M826 26 q-36 -25 -85.5 -42.5 q-49.5 -17.5 -123.5 -17.5 q-64 0 -114 23 q-50 23 -80 71 q-13 -19 -31 -34.5 q-18 -15.5 -46 -32.5 q-22 -13 -52 -20 q-30 -7 -71 -7 q-83 0 -130.5 41 q-47.5 41 -47.5 113 l0 27 q0 70 46.5 109 q46.5 39 151.5 39 l136 0 l0 42 q0 55 -25.5 81.5 q-25.5 26.5 -85.5 26.5 q-45 0 -82 -15 q-37 -15 -73 -40 l-48 72 q40 28 89 48.5 q49 20.5 115 20.5 q57 0 101 -18.5 q44 -18.5 70 -53.5 q30 36 74 54 q44 18 98 18 q106 0 166.5 -63.5 q60.5 -63.5 60.5 -181.5 l0 -70 l-364 0 l0 -7 q0 -78 40 -118.5 q40 -40.5 106 -40.5 q53 0 91 13 q38 13 73 36 l41 -73 ZM612 448 q-30 0 -55.5 -10.5 q-25.5 -10.5 -43.5 -29 q-18 -18.5 -28 -45 q-10 -26.5 -10 -57.5 l0 -11 l270 0 l0 15 q0 63 -35 100.5 q-35 37.5 -98 37.5 ZM379 213 l-134 0 q-57 0 -81 -17 q-24 -17 -24 -56 l0 -14 q0 -40 27 -58 q27 -18 66 -18 q36 0 61.5 8.5 q25.5 8.5 47.5 25.5 q20 15 28.5 34.5 q8.5 19.5 8.5 50.5 l0 44 Z" /><glyph glyph-name="" unicode="ð" d="M191 748 q28 -14 58.5 -31.5 q30.5 -17.5 60.5 -38.5 l116 49 l23 -58 l-81 -34 q35 -30 66 -66.5 q31 -36.5 54 -81 q23 -44.5 36.5 -98 q13.5 -53.5 13.5 -117.5 l0 -57 q0 -119 -65.5 -184 q-65.5 -65 -178.5 -65 q-113 0 -178.5 65 q-65.5 65 -65.5 184 l0 57 q0 120 62.5 184.5 q62.5 64.5 171.5 64.5 q24 0 51.5 -6 q27.5 -6 47.5 -18 q-21 34 -43.5 59.5 q-22.5 25.5 -47.5 46.5 l-139 -58 l-23 58 l102 42 q-17 11 -36 22 q-19 11 -39 22 l34 59 ZM294 51 q65 0 105.5 42.5 q40.5 42.5 40.5 129.5 l0 46 q0 87 -40.5 127 q-40.5 40 -105.5 40 q-65 0 -105.5 -42.5 q-40.5 -42.5 -40.5 -129.5 l0 -41 q0 -87 40.5 -129.5 q40.5 -42.5 105.5 -42.5 Z" /><glyph glyph-name="" unicode="÷" d="M48 360 l504 0 l0 -84 l-504 0 l0 84 ZM250 565 l99 0 l0 -97 l-99 0 l0 97 ZM250 168 l99 0 l0 -97 l-99 0 l0 97 Z" /><glyph glyph-name="" unicode="ø" d="M50 -1 l460 528 l42 -37 l-460 -528 l-42 37 ZM299 531 q113 0 178.5 -65 q65.5 -65 65.5 -184 l0 -67 q0 -119 -65.5 -184 q-65.5 -65 -178.5 -65 q-113 0 -178.5 65 q-65.5 65 -65.5 184 l0 67 q0 120 65.5 184.5 q65.5 64.5 178.5 64.5 ZM299 51 q65 0 105.5 42.5 q40.5 42.5 40.5 129.5 l0 51 q0 87 -40.5 129.5 q-40.5 42.5 -105.5 42.5 q-65 0 -105.5 -42.5 q-40.5 -42.5 -40.5 -129.5 l0 -51 q0 -87 40.5 -129.5 q40.5 -42.5 105.5 -42.5 Z" /><glyph glyph-name="" unicode="þ" d="M175 458 q26 41 68.5 57 q42.5 16 87.5 16 q104 0 159 -60.5 q55 -60.5 55 -172.5 l0 -97 q0 -56 -16 -99.5 q-16 -43.5 -44.5 -73.5 q-28.5 -30 -68.5 -46 q-40 -16 -88 -16 q-60 0 -96.5 20.5 q-36.5 20.5 -56.5 47.5 l0 -274 l-97 0 l0 970 l97 0 l0 -272 ZM174 169 q0 -21 10.5 -42.5 q10.5 -21.5 30 -38 q19.5 -16.5 45.5 -27 q26 -10.5 58 -10.5 q62 0 96.5 43 q34.5 43 34.5 121 l0 67 q0 78 -35 121 q-35 43 -96 43 q-30 0 -56 -10 q-26 -10 -45.5 -28 q-19.5 -18 -31 -43.5 q-11.5 -25.5 -11.5 -57.5 l0 -138 Z" /><glyph glyph-name="" unicode="&#x111;" d="M272 650 l314 0 l0 -63 l-314 0 l0 63 ZM423 42 q-23 -42 -65.5 -59 q-42.5 -17 -93.5 -17 q-104 0 -158.5 60.5 q-54.5 60.5 -54.5 172.5 l0 97 q0 55 16 99 q16 44 44.5 74 q28.5 30 68.5 46 q40 16 88 16 q63 0 99.5 -21.5 q36.5 -21.5 53.5 -45.5 l0 266 l97 0 l0 -756 l-93 0 l0 68 l-2 0 ZM422 330 q0 21 -10.5 42 q-10.5 21 -30 37.5 q-19.5 16.5 -46 26.5 q-26.5 10 -57.5 10 q-62 0 -96.5 -43 q-34.5 -43 -34.5 -121 l0 -67 q0 -78 35 -121 q35 -43 96 -43 q30 0 56 9.5 q26 9.5 45.5 27.5 q19.5 18 31 43.5 q11.5 25.5 11.5 57.5 l0 141 Z" /><glyph glyph-name="" unicode="&#x126;" d="M615 695 l0 -139 l70 0 l0 -70 l-70 0 l0 -512 l-99 0 l0 311 l-335 0 l0 -311 l-99 0 l0 512 l-70 0 l0 70 l70 0 l0 139 l99 0 l0 -139 l335 0 l0 139 l99 0 ZM181 372 l335 0 l0 114 l-335 0 l0 -114 Z" /><glyph glyph-name="" unicode="&#x127;" d="M12 650 l314 0 l0 -63 l-314 0 l0 63 ZM531 -26 l-97 0 l0 340 q0 69 -29 100 q-29 31 -90 31 q-25 0 -49.5 -8.5 q-24.5 -8.5 -44 -25 q-19.5 -16.5 -32 -41.5 q-12.5 -25 -12.5 -57 l0 -339 l-97 0 l0 756 l97 0 l0 -275 q25 37 65.5 56.5 q40.5 19.5 96.5 19.5 q40 0 75 -12 q35 -12 61 -36 q26 -24 41 -61 q15 -37 15 -86 l0 -362 Z" /><glyph glyph-name="" unicode="&#x131;" d="M180 521 l0 -547 l-97 0 l0 547 l97 0 Z" /><glyph glyph-name="" unicode="&#x132;" d="M181 695 l0 -721 l-99 0 l0 721 l99 0 ZM655 172 q0 -60 -16 -100 q-16 -40 -44 -64.5 q-28 -24.5 -66 -34.5 q-38 -10 -83 -10 q-39 0 -85.5 14 q-46.5 14 -81.5 45 l47 78 q32 -25 60 -35 q28 -10 63 -10 q56 0 81.5 31.5 q25.5 31.5 25.5 106.5 l0 502 l99 0 l0 -523 Z" /><glyph glyph-name="" unicode="&#x133;" d="M180 521 l0 -547 l-97 0 l0 547 l97 0 ZM183 717 l0 -106 l-103 0 l0 106 l103 0 ZM431 717 l0 -106 l-103 0 l0 106 l103 0 ZM428 -88 q0 -83 -40.5 -122 q-40.5 -39 -118.5 -39 q-26 0 -53.5 4 q-27.5 4 -44.5 10 l15 79 q36 -10 74 -10 q14 0 27 3 q13 3 22.5 11.5 q9.5 8.5 15.5 24.5 q6 16 6 43 l0 605 l97 0 l0 -609 Z" /><glyph glyph-name="" unicode="&#x138;" d="M320 299 l227 -325 l-122 0 l-172 256 l-78 -79 l0 -177 l-97 0 l0 547 l97 0 l0 -252 l237 252 l125 0 l-217 -222 Z" /><glyph glyph-name="" unicode="&#x13f;" d="M181 695 l0 -636 l345 0 l0 -85 l-444 0 l0 721 l99 0 ZM363 426 l114 0 l0 -115 l-114 0 l0 115 Z" /><glyph glyph-name="" unicode="&#x140;" d="M177 730 l0 -756 l-97 0 l0 756 l97 0 ZM278 434 l114 0 l0 -115 l-114 0 l0 115 Z" /><glyph glyph-name="" unicode="&#x141;" d="M10 248 l388 221 l29 -55 l-388 -221 l-29 55 ZM222 695 l0 -636 l345 0 l0 -85 l-444 0 l0 721 l99 0 Z" /><glyph glyph-name="" unicode="&#x142;" d="M8 315 l108 60 l0 355 l97 0 l0 -300 l82 46 l26 -49 l-108 -61 l0 -392 l-97 0 l0 337 l-81 -45 l-27 49 Z" /><glyph glyph-name="" unicode="&#x149;" d="M-39 520 l20 178 l90 0 l-40 -178 l-70 0 ZM529 -26 l-97 0 l0 340 q0 69 -29 100 q-29 31 -90 31 q-25 0 -49.5 -8.5 q-24.5 -8.5 -44 -25 q-19.5 -16.5 -32 -41.5 q-12.5 -25 -12.5 -57 l0 -339 l-97 0 l0 547 l94 0 l0 -69 l1 0 q25 38 66 58.5 q41 20.5 98 20.5 q40 0 75 -12 q35 -12 61 -36 q26 -24 41 -61 q15 -37 15 -86 l0 -362 Z" /><glyph glyph-name="" unicode="&#x14a;" d="M619 -88 q0 -83 -40.5 -122 q-40.5 -39 -118.5 -39 q-26 0 -53.5 4 q-27.5 4 -44.5 10 l15 79 q36 -10 74 -10 q14 0 27.5 3 q13.5 3 24.5 11.5 q11 8.5 17.5 24.5 q6.5 16 6.5 43 l0 58 l-300 491 q-11 20 -25.5 47 q-14.5 27 -27.5 59 l0 -597 l-92 0 l0 721 l114 0 l280 -465 q11 -18 24.5 -45.5 q13.5 -27.5 26.5 -59.5 l0 570 l92 0 l0 -783 Z" /><glyph glyph-name="" unicode="&#x14b;" d="M529 -88 q0 -83 -40.5 -122 q-40.5 -39 -118.5 -39 q-26 0 -53.5 4 q-27.5 4 -44.5 10 l15 79 q36 -10 74 -10 q14 0 27 3 q13 3 22.5 11.5 q9.5 8.5 15.5 24.5 q6 16 6 43 l0 398 q0 69 -29 100 q-29 31 -90 31 q-25 0 -49.5 -8.5 q-24.5 -8.5 -44 -25 q-19.5 -16.5 -32 -41.5 q-12.5 -25 -12.5 -57 l0 -339 l-97 0 l0 547 l94 0 l0 -69 l1 0 q25 38 66 58.5 q41 20.5 98 20.5 q40 0 75 -12 q35 -12 61 -36 q26 -24 41 -61 q15 -37 15 -86 l0 -424 Z" /><glyph glyph-name="" unicode="&#x152;" d="M911 695 l0 -85 l-330 0 l0 -224 l309 0 l0 -85 l-309 0 l0 -242 l337 0 l0 -85 l-552 0 q-153 0 -229.5 79.5 q-76.5 79.5 -76.5 229.5 l0 103 q0 150 78.5 229.5 q78.5 79.5 227.5 79.5 l545 0 ZM482 608 l-107 0 q-48 0 -87.5 -12.5 q-39.5 -12.5 -67.5 -40 q-28 -27.5 -43.5 -70.5 q-15.5 -43 -15.5 -104 l0 -93 q0 -61 15.5 -104 q15.5 -43 43.5 -70 q28 -27 67.5 -39.5 q39.5 -12.5 87.5 -12.5 l107 0 l0 546 Z" /><glyph glyph-name="" unicode="&#x153;" d="M285 531 q65 0 113 -24 q48 -24 77 -69 q30 46 77 69.5 q47 23.5 105 23.5 q106 0 165.5 -63.5 q59.5 -63.5 59.5 -181.5 l0 -70 l-361 0 l0 -7 q0 -78 39.5 -118.5 q39.5 -40.5 105.5 -40.5 q53 0 90 13 q37 13 72 36 l41 -73 q-36 -25 -84.5 -42.5 q-48.5 -17.5 -122.5 -17.5 q-60 0 -108.5 22 q-48.5 22 -79.5 69 q-29 -45 -76 -68 q-47 -23 -113 -23 q-113 0 -173.5 65 q-60.5 65 -60.5 184 l0 67 q0 120 63 184.5 q63 64.5 171 64.5 ZM285 51 q66 0 101 42 q35 42 35 130 l0 51 q0 88 -35 130 q-35 42 -101 42 q-66 0 -101 -42 q-35 -42 -35 -130 l0 -51 q0 -88 35 -130 q35 -42 101 -42 ZM657 448 q-61 0 -98.5 -39.5 q-37.5 -39.5 -37.5 -102.5 l0 -11 l267 0 l0 15 q0 63 -34 100.5 q-34 37.5 -97 37.5 Z" /><glyph glyph-name="" unicode="&#x166;" d="M89 374 l384 0 l0 -70 l-384 0 l0 70 ZM236 -26 l0 636 l-220 0 l0 85 l539 0 l0 -85 l-220 0 l0 -636 l-99 0 Z" /><glyph glyph-name="" unicode="&#x167;" d="M38 341 l309 0 l0 -62 l-309 0 l0 62 ZM120 438 l-90 0 l0 83 l90 0 l0 138 l97 0 l0 -138 l144 0 l0 -83 l-144 0 l0 -311 q0 -25 5 -40.5 q5 -15.5 14.5 -23.5 q9.5 -8 22.5 -11 q13 -3 28 -3 q36 0 72 13 l15 -78 q-17 -7 -45 -12.5 q-28 -5.5 -57 -5.5 q-78 0 -115 39 q-37 39 -37 122 l0 311 Z" /><glyph glyph-name="" unicode="&#x2bc;" d="" /><glyph glyph-name="" unicode="&#x2c7;" d="M160 708 l72 0 l73 -80 l72 80 l72 0 l-105 -148 l-79 0 l-105 148 Z" /><glyph glyph-name="" unicode="&#x2d0;&#x2236;" d="M545 549 l-91 -95 l-90 95 l181 0 ZM545 73 l-181 0 l90 94 l91 -94 Z" /><glyph glyph-name="" unicode="&#x2d8;" d="M305 571 q-59 0 -95.5 33.5 q-36.5 33.5 -40.5 91.5 l69 0 q5 -29 20 -46.5 q15 -17.5 47 -17.5 q33 0 47.5 17.5 q14.5 17.5 19.5 46.5 l69 0 q-2 -58 -39 -91.5 q-37 -33.5 -97 -33.5 Z" /><glyph glyph-name="" unicode="&#x2d9;" d="M258 682 l93 0 l0 -94 l-93 0 l0 94 Z" /><glyph glyph-name="" unicode="&#x2da;" d="M304 593 q23 0 36.5 13.5 q13.5 13.5 13.5 36.5 q0 23 -13.5 37 q-13.5 14 -36.5 14 q-22 0 -35.5 -14 q-13.5 -14 -13.5 -37 q0 -23 13.5 -36.5 q13.5 -13.5 35.5 -13.5 ZM304 548 q-21 0 -39 7.5 q-18 7.5 -31 20.5 q-13 13 -20.5 30.5 q-7.5 17.5 -7.5 36.5 q0 39 28 67 q28 28 70 28 q43 0 71 -28 q28 -28 28 -67 q0 -19 -7.5 -36.5 q-7.5 -17.5 -20.5 -30.5 q-13 -13 -31.5 -20.5 q-18.5 -7.5 -39.5 -7.5 Z" /><glyph glyph-name="" unicode="&#x2db;" d="M332 -200 q-53 0 -82 23.5 q-29 23.5 -29 64.5 q0 21 8.5 39.5 q8.5 18.5 22 33.5 q13.5 15 29 26 q15.5 11 29.5 19 l70 0 q-32 -26 -55 -53 q-23 -27 -23 -54 q0 -23 15 -30 q15 -7 38 -7 q11 0 20 1 q9 1 14 3 l0 -56 q-11 -4 -24.5 -7 q-13.5 -3 -32.5 -3 Z" /><glyph glyph-name="" unicode="&#x2dc;" d="M151 577 q6 58 35.5 84.5 q29.5 26.5 63.5 26.5 q16 0 31.5 -5.5 q15.5 -5.5 29 -12.5 q13.5 -7 25.5 -12.5 q12 -5.5 23 -5.5 q29 0 37 38 l62 0 q-3 -29 -12.5 -50 q-9.5 -21 -23.5 -34.5 q-14 -13.5 -30.5 -20 q-16.5 -6.5 -32.5 -6.5 q-17 0 -32 5.5 q-15 5.5 -28.5 12.5 q-13.5 7 -25.5 12.5 q-12 5.5 -23 5.5 q-30 0 -37 -38 l-62 0 Z" /><glyph glyph-name="" unicode="&#x2dd;" d="M362 709 l97 0 l-71 -149 l-75 0 l49 149 ZM200 709 l98 0 l-71 -149 l-77 0 l50 149 Z" /><glyph glyph-name="" unicode="&#x391;" d="M653 -26 l-104 0 l-76 212 l-276 0 l-76 -212 l-101 0 l268 721 l96 0 l269 -721 ZM227 271 l216 0 l-60 169 q-8 22 -14 38.5 q-6 16.5 -11 32 q-5 15.5 -10.5 32.5 q-5.5 17 -12.5 42 q-8 -25 -13 -42.5 q-5 -17.5 -10 -32.5 q-5 -15 -10.5 -31.5 q-5.5 -16.5 -13.5 -38.5 l-61 -169 Z" /><glyph glyph-name="" unicode="&#x392;" d="M82 695 l256 0 q229 0 229 -176 l0 -21 q0 -24 -6 -46.5 q-6 -22.5 -19.5 -41.5 q-13.5 -19 -36 -33.5 q-22.5 -14.5 -54.5 -22.5 q66 -10 107.5 -50 q41.5 -40 41.5 -115 l0 -25 q0 -89 -56.5 -139.5 q-56.5 -50.5 -174.5 -50.5 l-287 0 l0 721 ZM181 60 l151 0 q42 0 73.5 4.5 q31.5 4.5 52 16.5 q20.5 12 30.5 32.5 q10 20.5 10 52.5 l0 22 q0 33 -9 56 q-9 23 -31 38 q-22 15 -58 21.5 q-36 6.5 -90 6.5 l-129 0 l0 -250 ZM181 610 l0 -219 l128 0 q37 0 66.5 4 q29.5 4 49.5 16 q20 12 30.5 33 q10.5 21 10.5 55 l0 18 q0 32 -9.5 50.5 q-9.5 18.5 -30 28 q-20.5 9.5 -51.5 12 q-31 2.5 -73 2.5 l-121 0 Z" /><glyph glyph-name="" unicode="&#x393;" d="M82 -26 l0 721 l444 0 l0 -83 l-345 0 l0 -638 l-99 0 Z" /><glyph glyph-name="" unicode="&#x394;" d="M285 695 l103 0 l263 -721 l-631 0 l265 721 ZM520 57 l-183 531 l-187 -531 l370 0 Z" /><glyph glyph-name="" unicode="&#x395;" d="M531 695 l0 -85 l-350 0 l0 -224 l329 0 l0 -85 l-329 0 l0 -242 l357 0 l0 -85 l-456 0 l0 721 l449 0 Z" /><glyph glyph-name="" unicode="&#x396;" d="M560 622 l-414 -562 l433 0 l0 -86 l-553 0 l0 81 l409 554 l-385 0 l0 86 l510 0 l0 -73 Z" /><glyph glyph-name="" unicode="&#x397;" d="M615 695 l0 -721 l-99 0 l0 332 l-335 0 l0 -332 l-99 0 l0 721 l99 0 l0 -301 l335 0 l0 301 l99 0 Z" /><glyph glyph-name="" unicode="&#x398;" d="M510 296 l-315 0 l0 80 l315 0 l0 -80 ZM353 -37 q-65 0 -118.5 19.5 q-53.5 19.5 -92.5 59.5 q-39 40 -60.5 99 q-21.5 59 -21.5 139 l0 109 q0 79 21.5 138 q21.5 59 60.5 99 q39 40 93 60 q54 20 118 20 q64 0 118 -20 q54 -20 93 -60 q39 -40 60.5 -99 q21.5 -59 21.5 -138 l0 -109 q0 -80 -21.5 -139 q-21.5 -59 -60.5 -99 q-39 -40 -93 -59.5 q-54 -19.5 -118 -19.5 ZM353 616 q-42 0 -77.5 -13.5 q-35.5 -13.5 -61 -42 q-25.5 -28.5 -40 -74 q-14.5 -45.5 -14.5 -108.5 l0 -87 q0 -63 14.5 -108.5 q14.5 -45.5 40 -74 q25.5 -28.5 61 -42 q35.5 -13.5 77.5 -13.5 q42 0 77.5 13.5 q35.5 13.5 61 42 q25.5 28.5 40 74 q14.5 45.5 14.5 108.5 l0 87 q0 63 -14.5 108.5 q-14.5 45.5 -40 74 q-25.5 28.5 -61 42 q-35.5 13.5 -77.5 13.5 Z" /><glyph glyph-name="" unicode="&#x399;" d="M181 695 l0 -721 l-99 0 l0 721 l99 0 Z" /><glyph glyph-name="" unicode="&#x39a;" d="M328 383 l307 -409 l-126 0 l-249 337 l-79 -85 l0 -252 l-99 0 l0 721 l99 0 l0 -345 l316 345 l121 0 l-290 -312 Z" /><glyph glyph-name="" unicode="&#x39b;" d="M545 -26 l-209 596 l-214 -596 l-102 0 l272 721 l93 0 l268 -721 l-108 0 Z" /><glyph glyph-name="" unicode="&#x39c;" d="M213 494 q-5 11 -9 21.5 q-4 10.5 -8 21.5 q-4 11 -9 25 q-5 14 -11 32 l0 -620 l-94 0 l0 721 l146 0 l200 -472 l195 472 l145 0 l0 -721 l-95 0 l0 620 q-5 -20 -9.5 -33.5 q-4.5 -13.5 -8 -24.5 q-3.5 -11 -7.5 -21 q-4 -10 -9 -21 l-172 -400 l-84 0 l-170 400 Z" /><glyph glyph-name="" unicode="&#x39d;" d="M196 695 l280 -486 q11 -18 24.5 -45.5 q13.5 -27.5 26.5 -59.5 l0 591 l92 0 l0 -721 l-114 0 l-280 484 q-11 20 -24.5 47 q-13.5 27 -26.5 59 l0 -590 l-92 0 l0 721 l114 0 Z" /><glyph glyph-name="" unicode="&#x39e;" d="M533 59 l0 -85 l-473 0 l0 85 l473 0 ZM92 386 l403 0 l0 -85 l-403 0 l0 85 ZM60 610 l0 85 l466 0 l0 -85 l-466 0 Z" /><glyph glyph-name="" unicode="&#x39f;" d="M353 -37 q-65 0 -118.5 19.5 q-53.5 19.5 -92.5 59.5 q-39 40 -60.5 99 q-21.5 59 -21.5 139 l0 109 q0 79 21.5 138 q21.5 59 60.5 99 q39 40 93 60 q54 20 118 20 q64 0 118 -20 q54 -20 93 -60 q39 -40 60.5 -99 q21.5 -59 21.5 -138 l0 -109 q0 -80 -21.5 -139 q-21.5 -59 -60.5 -99 q-39 -40 -93 -59.5 q-54 -19.5 -118 -19.5 ZM353 616 q-42 0 -77.5 -13.5 q-35.5 -13.5 -61 -42 q-25.5 -28.5 -40 -74 q-14.5 -45.5 -14.5 -108.5 l0 -87 q0 -63 14.5 -108.5 q14.5 -45.5 40 -74 q25.5 -28.5 61 -42 q35.5 -13.5 77.5 -13.5 q42 0 77.5 13.5 q35.5 13.5 61 42 q25.5 28.5 40 74 q14.5 45.5 14.5 108.5 l0 87 q0 63 -14.5 108.5 q-14.5 45.5 -40 74 q-25.5 28.5 -61 42 q-35.5 13.5 -77.5 13.5 Z" /><glyph glyph-name="" unicode="&#x3a0;" d="M595 -26 l-99 0 l0 638 l-315 0 l0 -638 l-99 0 l0 721 l513 0 l0 -721 Z" /><glyph glyph-name="" unicode="&#x3a1;" d="M82 695 l258 0 q61 0 106 -15.5 q45 -15.5 74.5 -43 q29.5 -27.5 44 -65.5 q14.5 -38 14.5 -82 l0 -21 q0 -44 -15.5 -82.5 q-15.5 -38.5 -45.5 -67.5 q-30 -29 -74.5 -46 q-44.5 -17 -103.5 -17 l-159 0 l0 -281 l-99 0 l0 721 ZM181 609 l0 -268 l142 0 q156 0 156 129 l0 18 q0 62 -37.5 91.5 q-37.5 29.5 -107.5 29.5 l-153 0 Z" /><glyph glyph-name="" unicode="&#x3a3;" d="M514 695 l0 -85 l-330 0 l201 -278 l-204 -273 l340 0 l0 -85 l-461 0 l0 70 l213 287 l-213 297 l0 67 l454 0 Z" /><glyph glyph-name="" unicode="&#x3a4;" d="M236 -26 l0 636 l-220 0 l0 85 l539 0 l0 -85 l-220 0 l0 -636 l-99 0 Z" /><glyph glyph-name="" unicode="&#x3a5;" d="M363 264 l0 -290 l-99 0 l0 290 l-248 431 l110 0 l189 -337 l184 337 l110 0 l-246 -431 Z" /><glyph glyph-name="" unicode="&#x3a6;" d="M55 376 q0 109 72.5 174.5 q72.5 65.5 201.5 76.5 l0 91 l93 0 l0 -91 q129 -11 202 -76.5 q73 -65.5 73 -174.5 l0 -53 q0 -54 -19 -98 q-19 -44 -54.5 -76.5 q-35.5 -32.5 -86.5 -52 q-51 -19.5 -115 -24.5 l0 -98 l-93 0 l0 98 q-129 11 -201.5 76.5 q-72.5 65.5 -72.5 174.5 l0 53 ZM601 370 q0 72 -44 115.5 q-44 43.5 -135 52.5 l0 -378 q91 9 135 52.5 q44 43.5 44 116.5 l0 41 ZM151 329 q0 -73 43.5 -116.5 q43.5 -43.5 134.5 -52.5 l0 378 q-91 -9 -134.5 -52.5 q-43.5 -43.5 -43.5 -115.5 l0 -41 Z" /><glyph glyph-name="" unicode="&#x3a7;" d="M392 346 l233 -372 l-117 0 l-183 309 l-183 -309 l-112 0 l233 376 l-218 345 l118 0 l170 -284 l169 284 l111 0 l-221 -349 Z" /><glyph glyph-name="" unicode="&#x3a8;" d="M310 159 q-114 13 -182 86 q-68 73 -68 209 l0 221 l98 0 l0 -197 q0 -59 11 -100 q11 -41 31.5 -68 q20.5 -27 48.5 -41 q28 -14 61 -19 l0 425 l98 0 l0 -425 q33 5 61 19 q28 14 48.5 41 q20.5 27 31.5 68 q11 41 11 100 l0 197 l98 0 l0 -221 q0 -68 -18 -120 q-18 -52 -50.5 -89 q-32.5 -37 -78.5 -58.5 q-46 -21.5 -103 -27.5 l0 -185 l-98 0 l0 185 Z" /><glyph glyph-name="" unicode="&#x3a9;" d="M373 617 q-42 0 -76.5 -13 q-34.5 -13 -59 -41 q-24.5 -28 -38 -73 q-13.5 -45 -13.5 -108 l0 -88 q0 -100 33 -157 q33 -57 89 -75 l0 -88 l-288 0 l0 86 l152 0 q-36 31 -60 88 q-24 57 -24 135 l0 109 q0 79 20.5 138 q20.5 59 58 98 q37.5 39 90 58.5 q52.5 19.5 116.5 19.5 q64 0 116.5 -19.5 q52.5 -19.5 90 -58.5 q37.5 -39 58 -98 q20.5 -59 20.5 -138 l0 -109 q0 -78 -24 -135 q-24 -57 -60 -88 l152 0 l0 -86 l-288 0 l0 88 q56 18 89 75 q33 57 33 157 l0 88 q0 63 -13.5 108 q-13.5 45 -38 73 q-24.5 28 -59 41 q-34.5 13 -76.5 13 Z" /><glyph glyph-name="" unicode="&#x3b1;" d="M417 45 l-1 0 q-19 -39 -60.5 -59 q-41.5 -20 -88.5 -20 q-107 0 -162 61 q-55 61 -55 170 l0 103 q0 55 15.5 98 q15.5 43 43.5 72.5 q28 29.5 67 45 q39 15.5 87 15.5 q60 0 96.5 -22 q36.5 -22 56.5 -54 l0 66 l97 0 l0 -547 l-96 0 l0 71 ZM147 207 q0 -43 10 -73 q10 -30 27.5 -48.5 q17.5 -18.5 41.5 -26.5 q24 -8 52 -8 q23 0 47.5 7 q24.5 7 44.5 22 q20 15 33 39.5 q13 24.5 13 60.5 l0 137 q0 24 -8.5 47 q-8.5 23 -26 41 q-17.5 18 -43.5 29.5 q-26 11.5 -60 11.5 q-62 0 -96.5 -37 q-34.5 -37 -34.5 -123 l0 -79 Z" /><glyph glyph-name="" unicode="&#x3b2;" d="M489 543 q0 -74 -30 -114.5 q-30 -40.5 -80 -57.5 q31 -4 60.5 -15.5 q29.5 -11.5 52 -32.5 q22.5 -21 36 -52.5 q13.5 -31.5 13.5 -74.5 l0 -27 q0 -47 -15.5 -84.5 q-15.5 -37.5 -43 -63.5 q-27.5 -26 -64.5 -40.5 q-37 -14.5 -80 -14.5 q-61 0 -102 21 q-41 21 -61 52 l0 -279 l-97 0 l0 768 q0 53 16.5 92 q16.5 39 45 65 q28.5 26 66.5 38.5 q38 12.5 82 12.5 q51 0 89 -14.5 q38 -14.5 62.5 -39.5 q24.5 -25 37 -57 q12.5 -32 12.5 -66 l0 -16 ZM175 178 q0 -22 7.5 -44.5 q7.5 -22.5 25 -41 q17.5 -18.5 46.5 -30 q29 -11.5 71 -11.5 q57 0 87.5 34 q30.5 34 30.5 86 l0 22 q0 79 -45.5 108 q-45.5 29 -139.5 26 l0 78 q39 0 64.5 9 q25.5 9 40.5 25.5 q15 16.5 21.5 40.5 q6.5 24 6.5 54 l0 16 q0 19 -5 37.5 q-5 18.5 -16.5 33 q-11.5 14.5 -31.5 23.5 q-20 9 -50 9 q-52 0 -82.5 -33 q-30.5 -33 -30.5 -105 l0 -337 Z" /><glyph glyph-name="" unicode="&#x3b3;" d="M111 521 l150 -455 l150 455 l98 0 l-201 -554 l0 -207 l-97 0 l0 205 l-201 556 l101 0 Z" /><glyph glyph-name="" unicode="&#x3b4;" d="M232 610 q0 -15 10.5 -28 q10.5 -13 32 -28.5 q21.5 -15.5 54.5 -36.5 q33 -21 77 -51 q64 -45 90 -101 q26 -56 26 -123 l0 -27 q0 -119 -61.5 -184 q-61.5 -65 -174.5 -65 q-113 0 -174.5 65 q-61.5 65 -61.5 184 l0 27 q0 52 15 94.5 q15 42.5 41.5 73 q26.5 30.5 63 48 q36.5 17.5 79.5 20.5 q-114 59 -114 141 l0 5 q0 20 8.5 40 q8.5 20 28 36 q19.5 16 51 26 q31.5 10 76.5 10 q51 0 91.5 -9.5 q40.5 -9.5 70.5 -25.5 l-31 -79 q-36 19 -67.5 25 q-31.5 6 -61.5 6 q-21 0 -34.5 -4 q-13.5 -4 -21 -10 q-7.5 -6 -10.5 -13 q-3 -7 -3 -13 l0 -3 ZM286 51 q66 0 102 42 q36 42 36 130 l0 11 q0 88 -36 130 q-36 42 -102 42 q-66 0 -102 -42 q-36 -42 -36 -130 l0 -11 q0 -88 36 -130 q36 -42 102 -42 Z" /><glyph glyph-name="" unicode="&#x3b5;" d="M408 423 q-35 17 -73.5 23.5 q-38.5 6.5 -67.5 6.5 q-56 0 -81.5 -18 q-25.5 -18 -25.5 -46 l0 -9 q0 -38 28 -61 q28 -23 85 -23 l67 0 l0 -77 l-67 0 q-27 0 -50 -3.5 q-23 -3.5 -39.5 -13.5 q-16.5 -10 -26 -26.5 q-9.5 -16.5 -9.5 -41.5 l0 -9 q0 -43 34 -60.5 q34 -17.5 87 -17.5 q38 0 78 10.5 q40 10.5 81 37.5 l40 -72 q-20 -15 -45.5 -26 q-25.5 -11 -54 -18 q-28.5 -7 -56.5 -10 q-28 -3 -52 -3 q-105 0 -159.5 39.5 q-54.5 39.5 -54.5 114.5 l0 14 q0 56 36 89 q36 33 93 38 q-57 9 -86 43.5 q-29 34.5 -29 77.5 l0 14 q0 65 53.5 100 q53.5 35 151.5 35 q50 0 91 -8 q41 -8 79 -27 l-27 -73 Z" /><glyph glyph-name="" unicode="&#x3b6;" d="M292 -113 q26 17 41 31 q15 14 15 31 q0 9 -8 15.5 q-8 6.5 -22 11 q-14 4.5 -33 9.5 q-19 5 -40 11 q-47 14 -85 32.5 q-38 18.5 -64.5 45.5 q-26.5 27 -41 64.5 q-14.5 37.5 -14.5 90.5 l0 23 q0 55 16.5 110 q16.5 55 45.5 106 q29 51 69.5 96 q40.5 45 88.5 82 l-170 0 l0 84 l330 0 l9 -60 q-60 -38 -113.5 -85 q-53.5 -47 -93 -99.5 q-39.5 -52.5 -62.5 -109.5 q-23 -57 -23 -115 l0 -19 q0 -40 11.5 -67 q11.5 -27 33 -45.5 q21.5 -18.5 51 -31 q29.5 -12.5 65.5 -23.5 q44 -14 72.5 -25.5 q28.5 -11.5 45 -24.5 q16.5 -13 23 -29.5 q6.5 -16.5 6.5 -39.5 q0 -23 -8 -41 q-8 -18 -21 -33.5 q-13 -15.5 -30.5 -29.5 q-17.5 -14 -36.5 -27 l-57 62 Z" /><glyph glyph-name="" unicode="&#x3b7;" d="M529 -240 l-97 0 l0 554 q0 69 -29 100 q-29 31 -90 31 q-25 0 -49.5 -8.5 q-24.5 -8.5 -44 -25 q-19.5 -16.5 -32 -41.5 q-12.5 -25 -12.5 -57 l0 -339 l-97 0 l0 547 l94 0 l0 -69 l1 0 q25 38 66 58.5 q41 20.5 98 20.5 q40 0 75 -12 q35 -12 61 -36 q26 -24 41 -61 q15 -37 15 -86 l0 -576 Z" /><glyph glyph-name="" unicode="&#x3b8;" d="M287 736 q66 0 111 -27 q45 -27 72.5 -73 q27.5 -46 39 -108 q11.5 -62 11.5 -131 l0 -94 q0 -69 -11.5 -131 q-11.5 -62 -39 -108 q-27.5 -46 -72.5 -73 q-45 -27 -111 -27 q-66 0 -111 27 q-45 27 -72.5 73 q-27.5 46 -39 108 q-11.5 62 -11.5 131 l0 94 q0 70 11.5 131.5 q11.5 61.5 39 107.5 q27.5 46 72.5 73 q45 27 111 27 ZM287 49 q43 0 69.5 21 q26.5 21 41.5 56.5 q15 35.5 20 83 q5 47.5 5 101.5 l0 3 l-272 0 l0 -3 q0 -54 5 -101.5 q5 -47.5 20 -83 q15 -35.5 41.5 -56.5 q26.5 -21 69.5 -21 ZM287 651 q-42 0 -68.5 -20 q-26.5 -20 -41.5 -54.5 q-15 -34.5 -20.5 -81 q-5.5 -46.5 -5.5 -98.5 l272 0 q0 52 -5.5 98.5 q-5.5 46.5 -20.5 81 q-15 34.5 -41.5 54.5 q-26.5 20 -68.5 20 Z" /><glyph glyph-name="" unicode="&#x3b9;" d="M267 -22 q-14 -5 -35.5 -8.5 q-21.5 -3.5 -39.5 -3.5 q-63 0 -89 31.5 q-26 31.5 -26 86.5 l0 429 l97 0 l0 -406 q0 -29 8 -42.5 q8 -13.5 36 -13.5 q11 0 21 2.5 q10 2.5 17 4.5 l11 -80 Z" /><glyph glyph-name="" unicode="&#x3ba;" d="M320 299 l227 -325 l-122 0 l-172 256 l-78 -79 l0 -177 l-97 0 l0 547 l97 0 l0 -252 l237 252 l125 0 l-217 -222 Z" /><glyph glyph-name="" unicode="&#x3bb;" d="M258 411 l-143 -437 l-105 0 l197 555 l-35 100 q-5 13 -10.5 19.5 q-5.5 6.5 -19.5 6.5 q-9 0 -18.5 -3.5 q-9.5 -3.5 -20.5 -8.5 l-27 71 q16 10 36.5 16 q20.5 6 38.5 6 q42 0 65 -16 q23 -16 37 -55 l257 -691 l-102 0 l-146 437 l-4 0 Z" /><glyph glyph-name="" unicode="&#x3bc;" d="M78 521 l97 0 l0 -340 q0 -30 10.5 -54 q10.5 -24 29 -41 q18.5 -17 42.5 -26 q24 -9 51 -9 q25 0 46.5 9.5 q21.5 9.5 38 26.5 q16.5 17 26 41 q9.5 24 9.5 54 l0 339 l97 0 l0 -547 l-94 0 l0 69 l-1 0 q-7 -20 -21 -34.5 q-14 -14.5 -31.5 -24 q-17.5 -9.5 -36.5 -14 q-19 -4.5 -35 -4.5 q-50 0 -80.5 18 q-30.5 18 -50.5 50 l0 -274 l-97 0 l0 761 Z" /><glyph glyph-name="" unicode="&#x3bd;" d="M264 65 l143 456 l102 0 l-185 -547 l-124 0 l-187 547 l105 0 l144 -456 l2 0 Z" /><glyph glyph-name="" unicode="&#x3be;" d="M46 226 q0 42 14 73 q14 31 37 52 q23 21 52 32.5 q29 11.5 59 13.5 q-26 4 -50.5 16 q-24.5 12 -43.5 31.5 q-19 19.5 -30.5 46 q-11.5 26.5 -11.5 60.5 l0 19 q0 34 12.5 64 q12.5 30 38.5 52.5 q26 22.5 65 36 q39 13.5 92 13.5 q45 0 91.5 -9.5 q46.5 -9.5 84.5 -37.5 l-43 -72 q-32 21 -64.5 28.5 q-32.5 7.5 -67.5 7.5 q-32 0 -53.5 -8.5 q-21.5 -8.5 -34.5 -21.5 q-13 -13 -18.5 -29 q-5.5 -16 -5.5 -32 l0 -10 q0 -58 42.5 -86.5 q42.5 -28.5 116.5 -28.5 l46 0 l0 -84 l-49 0 q-41 0 -74.5 -6.5 q-33.5 -6.5 -57 -21.5 q-23.5 -15 -36.5 -39.5 q-13 -24.5 -13 -60.5 l0 -11 q0 -32 12 -53.5 q12 -21.5 33.5 -37 q21.5 -15.5 51.5 -26.5 q30 -11 66 -22 q44 -14 72.5 -25 q28.5 -11 45 -23.5 q16.5 -12.5 23 -29 q6.5 -16.5 6.5 -41.5 q0 -23 -7.5 -41 q-7.5 -18 -20.5 -33.5 q-13 -15.5 -30 -29.5 q-17 -14 -36 -27 l-57 62 q26 17 40 30.5 q14 13.5 14 30.5 q0 9 -8 15.5 q-8 6.5 -22 12 q-14 5.5 -33 10 q-19 4.5 -40 10.5 q-46 13 -84.5 30 q-38.5 17 -66 42 q-27.5 25 -42.5 60 q-15 35 -15 84 l0 14 Z" /><glyph glyph-name="" unicode="&#x3bf;" d="M294 531 q113 0 178.5 -65 q65.5 -65 65.5 -184 l0 -67 q0 -119 -65.5 -184 q-65.5 -65 -178.5 -65 q-113 0 -178.5 65 q-65.5 65 -65.5 184 l0 67 q0 120 65.5 184.5 q65.5 64.5 178.5 64.5 ZM294 51 q65 0 105.5 42.5 q40.5 42.5 40.5 129.5 l0 51 q0 87 -40.5 129.5 q-40.5 42.5 -105.5 42.5 q-65 0 -105.5 -42.5 q-40.5 -42.5 -40.5 -129.5 l0 -51 q0 -87 40.5 -129.5 q40.5 -42.5 105.5 -42.5 Z" /><glyph glyph-name="" unicode="&#x3c0;" d="M540 -22 q-14 -5 -35.5 -8.5 q-21.5 -3.5 -39.5 -3.5 q-63 0 -88.5 31.5 q-25.5 31.5 -25.5 86.5 l0 352 l-126 0 l0 -462 l-96 0 l0 462 l-113 0 l0 85 l544 0 l0 -85 l-113 0 l0 -329 q0 -29 8 -42.5 q8 -13.5 36 -13.5 q11 0 21 2.5 q10 2.5 17 4.5 l11 -80 Z" /><glyph glyph-name="" unicode="&#x3c1;" d="M304 531 q113 0 173.5 -65 q60.5 -65 60.5 -184 l0 -67 q0 -119 -54.5 -184 q-54.5 -65 -166.5 -65 q-51 0 -90.5 19 q-39.5 19 -59.5 49 l0 -274 l-97 0 l0 522 q0 120 60.5 184.5 q60.5 64.5 173.5 64.5 ZM304 51 q66 0 101 42 q35 42 35 130 l0 51 q0 88 -35 130 q-35 42 -101 42 q-66 0 -101 -42 q-35 -42 -35 -130 l0 -51 q0 -88 35 -130 q35 -42 101 -42 Z" /><glyph glyph-name="" unicode="&#x3c3;" d="M568 521 l0 -83 l-101 0 q41 -32 56 -71.5 q15 -39.5 15 -94.5 l0 -57 q0 -119 -65.5 -184 q-65.5 -65 -178.5 -65 q-113 0 -178.5 65 q-65.5 65 -65.5 184 l0 57 q0 120 65 184.5 q65 64.5 186 64.5 l267 0 ZM294 51 q65 0 105.5 42.5 q40.5 42.5 40.5 129.5 l0 41 q0 87 -40.5 129.5 q-40.5 42.5 -105.5 42.5 q-65 0 -105.5 -42.5 q-40.5 -42.5 -40.5 -129.5 l0 -41 q0 -87 40.5 -129.5 q40.5 -42.5 105.5 -42.5 Z" /><glyph glyph-name="" unicode="&#x3c4;" d="M433 -16 q-39 -18 -103 -18 q-60 0 -87.5 32.5 q-27.5 32.5 -27.5 87.5 l0 350 l-199 0 l0 85 l520 0 l0 -85 l-224 0 l0 -329 q0 -29 8 -42.5 q8 -13.5 36 -13.5 q17 0 31.5 3.5 q14.5 3.5 26.5 8.5 l19 -79 Z" /><glyph glyph-name="" unicode="&#x3c5;" d="M291 -34 q-119 0 -170 61 q-51 61 -51 174 l0 320 l97 0 l0 -303 q0 -51 9 -83 q9 -32 25.5 -50 q16.5 -18 39.5 -25 q23 -7 50 -7 q27 0 50 7 q23 7 39.5 25 q16.5 18 25.5 50 q9 32 9 83 l0 303 l97 0 l0 -320 q0 -113 -51 -174 q-51 -61 -170 -61 Z" /><glyph glyph-name="" unicode="&#x3c6;" d="M291 -240 l0 209 q-56 6 -100.5 26.5 q-44.5 20.5 -76.5 53 q-32 32.5 -49 76.5 q-17 44 -17 98 l0 51 q0 60 21 107.5 q21 47.5 59 81 q38 33.5 92 51 q54 17.5 120 17.5 q66 0 120 -18 q54 -18 92 -51 q38 -33 59 -80.5 q21 -47.5 21 -107.5 l0 -51 q0 -54 -17.5 -98.5 q-17.5 -44.5 -49.5 -77 q-32 -32.5 -77 -52.5 q-45 -20 -101 -26 l0 -209 l-96 0 ZM536 270 q0 40 -11.5 70 q-11.5 30 -31.5 51 q-20 21 -47 33 q-27 12 -59 17 l0 -387 q33 4 60 16.5 q27 12.5 47 33.5 q20 21 31 51.5 q11 30.5 11 71.5 l0 43 ZM144 227 q0 -80 41.5 -120.5 q41.5 -40.5 105.5 -50.5 l0 385 q-32 -5 -59 -17.5 q-27 -12.5 -46.5 -33 q-19.5 -20.5 -30.5 -50.5 q-11 -30 -11 -70 l0 -43 Z" /><glyph glyph-name="" unicode="&#x3c7;" d="M102 411 q-7 16 -13.5 26 q-6.5 10 -20.5 10 q-9 0 -17 -3 q-8 -3 -15 -6 l-26 70 q16 11 38 17 q22 6 44 6 q36 0 58.5 -16.5 q22.5 -16.5 33.5 -47.5 l96 -249 l123 295 l104 0 l-168 -357 l117 -285 q7 -16 13.5 -24.5 q6.5 -8.5 20.5 -8.5 q9 0 17 2.5 q8 2.5 15 5.5 l26 -72 q-16 -11 -38 -17 q-22 -6 -44 -6 q-36 0 -58 16 q-22 16 -34 47 l-106 276 l-147 -330 l-105 0 l192 394 l-106 257 Z" /><glyph glyph-name="" unicode="&#x3c8;" d="M315 -240 l0 209 q-53 5 -98 22.5 q-45 17.5 -77.5 48.5 q-32.5 31 -51 76 q-18.5 45 -18.5 105 l0 300 l96 0 l0 -290 q0 -43 11 -74 q11 -31 31 -52 q20 -21 47 -32.5 q27 -11.5 60 -15.5 l0 464 l96 0 l0 -464 q32 4 59.5 15.5 q27.5 11.5 47.5 32.5 q20 21 31 52 q11 31 11 74 l0 290 l96 0 l0 -300 q0 -60 -18.5 -105 q-18.5 -45 -51.5 -76 q-33 -31 -78 -48.5 q-45 -17.5 -97 -22.5 l0 -209 l-96 0 Z" /><glyph glyph-name="" unicode="&#x3c9;" d="M376 53 q-15 -42 -52 -64.5 q-37 -22.5 -82 -22.5 q-38 0 -72 14 q-34 14 -59.5 44.5 q-25.5 30.5 -40.5 79.5 q-15 49 -15 120 l0 22 q0 36 7 75.5 q7 39.5 19.5 78 q12.5 38.5 29 74 q16.5 35.5 35.5 63.5 l84 -44 q-32 -58 -54 -118.5 q-22 -60.5 -22 -132.5 l0 -18 q0 -76 25.5 -123.5 q25.5 -47.5 72.5 -47.5 q37 0 56.5 31.5 q19.5 31.5 19.5 81.5 l0 218 l96 0 l0 -218 q0 -50 19.5 -81.5 q19.5 -31.5 56.5 -31.5 q47 0 73 47.5 q26 47.5 26 123.5 l0 18 q0 72 -22 132.5 q-22 60.5 -54 118.5 l83 44 q19 -28 35.5 -63.5 q16.5 -35.5 29 -74 q12.5 -38.5 19.5 -78 q7 -39.5 7 -75.5 l0 -22 q0 -71 -15 -120 q-15 -49 -40.5 -79.5 q-25.5 -30.5 -59.5 -44.5 q-34 -14 -72 -14 q-45 0 -81 22.5 q-36 22.5 -51 64.5 l-2 0 Z" /><glyph glyph-name="" unicode="&#x401;" d="M531 695 l0 -85 l-350 0 l0 -224 l329 0 l0 -85 l-329 0 l0 -242 l357 0 l0 -85 l-456 0 l0 721 l449 0 ZM185 843 l88 0 l0 -92 l-88 0 l0 92 ZM360 843 l88 0 l0 -92 l-88 0 l0 92 Z" /><glyph glyph-name="" unicode="&#x410;" d="M653 -26 l-104 0 l-76 212 l-276 0 l-76 -212 l-101 0 l268 721 l96 0 l269 -721 ZM227 271 l216 0 l-60 169 q-8 22 -14 38.5 q-6 16.5 -11 32 q-5 15.5 -10.5 32.5 q-5.5 17 -12.5 42 q-8 -25 -13 -42.5 q-5 -17.5 -10 -32.5 q-5 -15 -10.5 -31.5 q-5.5 -16.5 -13.5 -38.5 l-61 -169 Z" /><glyph glyph-name="" unicode="&#x411;" d="M181 57 l165 0 q70 0 108 23.5 q38 23.5 38 87.5 l0 32 q0 35 -9.5 58.5 q-9.5 23.5 -27.5 37.5 q-18 14 -44 19.5 q-26 5.5 -59 5.5 l-171 0 l0 -264 ZM531 612 l-350 0 l0 -209 l170 0 q118 0 180 -49 q62 -49 62 -152 l0 -35 q0 -89 -56.5 -141 q-56.5 -52 -183.5 -52 l-271 0 l0 721 l449 0 l0 -83 Z" /><glyph glyph-name="" unicode="&#x412;" d="M82 695 l256 0 q229 0 229 -176 l0 -21 q0 -24 -6 -46.5 q-6 -22.5 -19.5 -41.5 q-13.5 -19 -36 -33.5 q-22.5 -14.5 -54.5 -22.5 q66 -10 107.5 -50 q41.5 -40 41.5 -115 l0 -25 q0 -89 -56.5 -139.5 q-56.5 -50.5 -174.5 -50.5 l-287 0 l0 721 ZM181 60 l151 0 q42 0 73.5 4.5 q31.5 4.5 52 16.5 q20.5 12 30.5 32.5 q10 20.5 10 52.5 l0 22 q0 33 -9 56 q-9 23 -31 38 q-22 15 -58 21.5 q-36 6.5 -90 6.5 l-129 0 l0 -250 ZM181 610 l0 -219 l128 0 q37 0 66.5 4 q29.5 4 49.5 16 q20 12 30.5 33 q10.5 21 10.5 55 l0 18 q0 32 -9.5 50.5 q-9.5 18.5 -30 28 q-20.5 9.5 -51.5 12 q-31 2.5 -73 2.5 l-121 0 Z" /><glyph glyph-name="" unicode="&#x413;" d="M82 -26 l0 721 l444 0 l0 -83 l-345 0 l0 -638 l-99 0 Z" /><glyph glyph-name="" unicode="&#x414;" d="M576 695 l0 -639 l60 0 l0 -252 l-90 0 l0 170 l-441 0 l0 -170 l-89 0 l0 252 l53 0 q40 67 62 132.5 q22 65.5 31.5 129.5 q9.5 64 11 125.5 q1.5 61.5 1.5 121.5 l0 130 l401 0 ZM274 565 q0 -68 -2.5 -133 q-2.5 -65 -12 -128 q-9.5 -63 -28.5 -125 q-19 -62 -52 -123 l307 0 l0 557 l-212 0 l0 -48 Z" /><glyph glyph-name="" unicode="&#x415;" d="M531 695 l0 -85 l-350 0 l0 -224 l329 0 l0 -85 l-329 0 l0 -242 l357 0 l0 -85 l-456 0 l0 721 l449 0 Z" /><glyph glyph-name="" unicode="&#x416;" d="M409 310 l-17 0 q-15 0 -26 -3.5 q-11 -3.5 -21.5 -13.5 q-10.5 -10 -22.5 -26.5 q-12 -16.5 -29 -42.5 l-163 -250 l-110 0 l194 292 q25 38 45.5 57.5 q20.5 19.5 44.5 28.5 q-14 7 -27.5 20 q-13.5 13 -26 29.5 q-12.5 16.5 -23 36 q-10.5 19.5 -18.5 38.5 l-35 80 q-16 36 -34.5 48.5 q-18.5 12.5 -42.5 12.5 q-18 0 -39 -7 l-21 80 q11 5 28 8 q17 3 37 3 q27 0 49 -5 q22 -5 40 -17 q18 -12 33.5 -32.5 q15.5 -20.5 29.5 -51.5 l39 -84 q16 -34 28.5 -57 q12.5 -23 23.5 -36.5 q11 -13.5 22 -19 q11 -5.5 23 -5.5 l19 0 l0 302 l98 0 l0 -302 l19 0 q12 0 23 5.5 q11 5.5 22 19 q11 13.5 23.5 36.5 q12.5 23 28.5 57 l39 84 q14 31 29.5 51.5 q15.5 20.5 33.5 32.5 q18 12 40 17 q22 5 49 5 q20 0 37 -3 q17 -3 28 -8 l-21 -80 q-21 7 -39 7 q-24 0 -42.5 -12.5 q-18.5 -12.5 -34.5 -48.5 l-35 -80 q-8 -19 -18.5 -38.5 q-10.5 -19.5 -23 -36 q-12.5 -16.5 -26 -29.5 q-13.5 -13 -27.5 -20 q24 -9 44.5 -28.5 q20.5 -19.5 45.5 -57.5 l194 -292 l-110 0 l-163 250 q-17 26 -29 42.5 q-12 16.5 -22.5 26.5 q-10.5 10 -21.5 13.5 q-11 3.5 -26 3.5 l-17 0 l0 -336 l-98 0 l0 336 Z" /><glyph glyph-name="" unicode="&#x417;" d="M42 590 q31 48 88 82 q57 34 144 34 q117 0 175.5 -49.5 q58.5 -49.5 58.5 -129.5 l0 -11 q0 -61 -37 -102 q-37 -41 -107 -60 q37 -3 69 -16 q32 -13 54.5 -34.5 q22.5 -21.5 35.5 -51 q13 -29.5 13 -66.5 l0 -15 q0 -41 -16 -78.5 q-16 -37.5 -48 -66 q-32 -28.5 -82 -46 q-50 -17.5 -117 -17.5 q-70 0 -136 20 q-66 20 -117 61 l47 74 q53 -38 106 -55 q53 -17 100 -17 q40 0 70 10 q30 10 50 27 q20 17 30.5 39.5 q10.5 22.5 10.5 47.5 l0 13 q0 43 -17.5 68 q-17.5 25 -44 38 q-26.5 13 -57 17 q-30.5 4 -56.5 4 l-81 0 l0 80 l84 0 q34 0 61 11 q27 11 46 29 q19 18 29 41 q10 23 10 46 l0 9 q0 17 -7.5 34.5 q-7.5 17.5 -23.5 31.5 q-16 14 -41 22.5 q-25 8.5 -61 8.5 q-43 0 -83 -17.5 q-40 -17.5 -75 -66.5 l-75 51 Z" /><glyph glyph-name="" unicode="&#x418;" d="M619 695 l0 -721 l-92 0 l0 590 q-13 -32 -26.5 -59 q-13.5 -27 -24.5 -47 l-280 -484 l-114 0 l0 721 l92 0 l0 -591 q13 32 26.5 59.5 q13.5 27.5 24.5 45.5 l280 486 l114 0 Z" /><glyph glyph-name="" unicode="&#x419;" d="M619 695 l0 -721 l-92 0 l0 590 q-13 -32 -26.5 -59 q-13.5 -27 -24.5 -47 l-280 -484 l-114 0 l0 721 l92 0 l0 -591 q13 32 26.5 59.5 q13.5 27.5 24.5 45.5 l280 486 l114 0 ZM364 722 q-59 0 -95.5 33.5 q-36.5 33.5 -40.5 91.5 l69 0 q5 -29 20 -46.5 q15 -17.5 47 -17.5 q33 0 47.5 17.5 q14.5 17.5 19.5 46.5 l69 0 q-2 -58 -39 -91.5 q-37 -33.5 -97 -33.5 Z" /><glyph glyph-name="" unicode="&#x41a;" d="M82 695 l98 0 l0 -302 l43 0 q12 0 23 5.5 q11 5.5 22 19 q11 13.5 23.5 36.5 q12.5 23 28.5 57 l39 84 q14 31 29.5 51.5 q15.5 20.5 33.5 32.5 q18 12 40 17 q22 5 49 5 q20 0 37 -3 q17 -3 28 -8 l-21 -80 q-21 7 -39 7 q-24 0 -42.5 -12.5 q-18.5 -12.5 -34.5 -48.5 l-35 -80 q-8 -19 -18.5 -38.5 q-10.5 -19.5 -23 -36 q-12.5 -16.5 -26 -29.5 q-13.5 -13 -27.5 -20 q24 -9 44.5 -28.5 q20.5 -19.5 45.5 -57.5 l194 -292 l-110 0 l-163 250 q-17 26 -29 42.5 q-12 16.5 -22.5 26.5 q-10.5 10 -21.5 13.5 q-11 3.5 -26 3.5 l-41 0 l0 -336 l-98 0 l0 721 Z" /><glyph glyph-name="" unicode="&#x41b;" d="M615 695 l0 -721 l-99 0 l0 638 l-223 0 l0 -213 q0 -73 -7 -141.5 q-7 -68.5 -32.5 -126 q-25.5 -57.5 -76 -100 q-50.5 -42.5 -138.5 -63.5 l-29 91 q61 21 97 47 q36 26 55.5 65.5 q19.5 39.5 25.5 97.5 q6 58 6 142 l0 284 l421 0 Z" /><glyph glyph-name="" unicode="&#x41c;" d="M213 494 q-5 11 -9 21.5 q-4 10.5 -8 21.5 q-4 11 -9 25 q-5 14 -11 32 l0 -620 l-94 0 l0 721 l146 0 l200 -472 l195 472 l145 0 l0 -721 l-95 0 l0 620 q-5 -20 -9.5 -33.5 q-4.5 -13.5 -8 -24.5 q-3.5 -11 -7.5 -21 q-4 -10 -9 -21 l-172 -400 l-84 0 l-170 400 Z" /><glyph glyph-name="" unicode="&#x41d;" d="M615 695 l0 -721 l-99 0 l0 332 l-335 0 l0 -332 l-99 0 l0 721 l99 0 l0 -301 l335 0 l0 301 l99 0 Z" /><glyph glyph-name="" unicode="&#x41e;" d="M353 -37 q-65 0 -118.5 19.5 q-53.5 19.5 -92.5 59.5 q-39 40 -60.5 99 q-21.5 59 -21.5 139 l0 109 q0 79 21.5 138 q21.5 59 60.5 99 q39 40 93 60 q54 20 118 20 q64 0 118 -20 q54 -20 93 -60 q39 -40 60.5 -99 q21.5 -59 21.5 -138 l0 -109 q0 -80 -21.5 -139 q-21.5 -59 -60.5 -99 q-39 -40 -93 -59.5 q-54 -19.5 -118 -19.5 ZM353 616 q-42 0 -77.5 -13.5 q-35.5 -13.5 -61 -42 q-25.5 -28.5 -40 -74 q-14.5 -45.5 -14.5 -108.5 l0 -87 q0 -63 14.5 -108.5 q14.5 -45.5 40 -74 q25.5 -28.5 61 -42 q35.5 -13.5 77.5 -13.5 q42 0 77.5 13.5 q35.5 13.5 61 42 q25.5 28.5 40 74 q14.5 45.5 14.5 108.5 l0 87 q0 63 -14.5 108.5 q-14.5 45.5 -40 74 q-25.5 28.5 -61 42 q-35.5 13.5 -77.5 13.5 Z" /><glyph glyph-name="" unicode="&#x41f;" d="M595 -26 l-99 0 l0 638 l-315 0 l0 -638 l-99 0 l0 721 l513 0 l0 -721 Z" /><glyph glyph-name="" unicode="&#x420;" d="M82 695 l258 0 q61 0 106 -15.5 q45 -15.5 74.5 -43 q29.5 -27.5 44 -65.5 q14.5 -38 14.5 -82 l0 -21 q0 -44 -15.5 -82.5 q-15.5 -38.5 -45.5 -67.5 q-30 -29 -74.5 -46 q-44.5 -17 -103.5 -17 l-159 0 l0 -281 l-99 0 l0 721 ZM181 609 l0 -268 l142 0 q156 0 156 129 l0 18 q0 62 -37.5 91.5 q-37.5 29.5 -107.5 29.5 l-153 0 Z" /><glyph glyph-name="" unicode="&#x421;" d="M604 55 q-54 -52 -118 -72 q-64 -20 -137 -20 q-65 0 -118 19.5 q-53 19.5 -91 59.5 q-38 40 -59 99 q-21 59 -21 139 l0 109 q0 79 21 138 q21 59 59.5 99 q38.5 40 91.5 60 q53 20 117 20 q75 0 131 -18.5 q56 -18.5 107 -58.5 l-51 -81 q-49 40 -93.5 53 q-44.5 13 -93.5 13 q-41 0 -75.5 -14 q-34.5 -14 -60 -43 q-25.5 -29 -39.5 -74 q-14 -45 -14 -107 l0 -83 q0 -62 14 -107 q14 -45 39.5 -74 q25.5 -29 60 -43 q34.5 -14 75.5 -14 q52 0 104 16 q52 16 97 60 l54 -76 Z" /><glyph glyph-name="" unicode="&#x422;" d="M236 -26 l0 636 l-220 0 l0 85 l539 0 l0 -85 l-220 0 l0 -636 l-99 0 Z" /><glyph glyph-name="" unicode="&#x423;" d="M119 695 l174 -411 l154 411 l105 0 l-291 -732 l-94 32 l71 178 l-228 522 l109 0 Z" /><glyph glyph-name="" unicode="&#x424;" d="M55 376 q0 109 72.5 174.5 q72.5 65.5 201.5 76.5 l0 91 l93 0 l0 -91 q129 -11 202 -76.5 q73 -65.5 73 -174.5 l0 -53 q0 -54 -19 -98 q-19 -44 -54.5 -76.5 q-35.5 -32.5 -86.5 -52 q-51 -19.5 -115 -24.5 l0 -98 l-93 0 l0 98 q-129 11 -201.5 76.5 q-72.5 65.5 -72.5 174.5 l0 53 ZM601 370 q0 72 -44 115.5 q-44 43.5 -135 52.5 l0 -378 q91 9 135 52.5 q44 43.5 44 116.5 l0 41 ZM151 329 q0 -73 43.5 -116.5 q43.5 -43.5 134.5 -52.5 l0 378 q-91 -9 -134.5 -52.5 q-43.5 -43.5 -43.5 -115.5 l0 -41 Z" /><glyph glyph-name="" unicode="&#x425;" d="M392 346 l233 -372 l-117 0 l-183 309 l-183 -309 l-112 0 l233 376 l-218 345 l118 0 l170 -284 l169 284 l111 0 l-221 -349 Z" /><glyph glyph-name="" unicode="&#x426;" d="M181 695 l0 -638 l305 0 l0 638 l99 0 l0 -638 l60 0 l0 -253 l-99 0 l0 170 l-464 0 l0 721 l99 0 Z" /><glyph glyph-name="" unicode="&#x427;" d="M169 695 l0 -232 q0 -45 7 -75 q7 -30 23.5 -47 q16.5 -17 43.5 -24 q27 -7 68 -7 q39 0 73 10.5 q34 10.5 63 28.5 l0 346 l99 0 l0 -721 l-99 0 l0 288 q-27 -16 -66.5 -26 q-39.5 -10 -81.5 -10 q-36 0 -76 7.5 q-40 7.5 -74 30 q-34 22.5 -56.5 62.5 q-22.5 40 -22.5 106 l0 263 l99 0 Z" /><glyph glyph-name="" unicode="&#x428;" d="M180 695 l0 -638 l248 0 l0 638 l98 0 l0 -638 l248 0 l0 638 l99 0 l0 -721 l-791 0 l0 721 l98 0 Z" /><glyph glyph-name="" unicode="&#x429;" d="M873 695 l0 -638 l60 0 l0 -253 l-99 0 l0 170 l-752 0 l0 721 l98 0 l0 -638 l248 0 l0 638 l98 0 l0 -638 l248 0 l0 638 l99 0 Z" /><glyph glyph-name="" unicode="&#x42a;" d="M246 57 l165 0 q70 0 108 25 q38 25 38 89 l0 34 q0 70 -37 97 q-37 27 -103 27 l-171 0 l0 -272 ZM10 695 l236 0 l0 -284 l170 0 q118 0 180 -50.5 q62 -50.5 62 -153.5 l0 -37 q0 -44 -13.5 -80.5 q-13.5 -36.5 -42.5 -62 q-29 -25.5 -74.5 -39.5 q-45.5 -14 -109.5 -14 l-271 0 l0 638 l-137 0 l0 83 Z" /><glyph glyph-name="" unicode="&#x42b;" d="M181 57 l165 0 q70 0 108 25 q38 25 38 89 l0 34 q0 70 -37 97 q-37 27 -103 27 l-171 0 l0 -272 ZM181 695 l0 -284 l170 0 q118 0 180 -50.5 q62 -50.5 62 -153.5 l0 -37 q0 -44 -13.5 -80.5 q-13.5 -36.5 -42.5 -62 q-29 -25.5 -74.5 -39.5 q-45.5 -14 -109.5 -14 l-271 0 l0 721 l99 0 ZM662 -26 l0 721 l99 0 l0 -721 l-99 0 Z" /><glyph glyph-name="" unicode="&#x42c;" d="M181 57 l165 0 q70 0 108 25 q38 25 38 89 l0 34 q0 70 -37 97 q-37 27 -103 27 l-171 0 l0 -272 ZM181 695 l0 -284 l170 0 q118 0 180 -50.5 q62 -50.5 62 -153.5 l0 -37 q0 -44 -13.5 -80.5 q-13.5 -36.5 -42.5 -62 q-29 -25.5 -74.5 -39.5 q-45.5 -14 -109.5 -14 l-271 0 l0 721 l99 0 Z" /><glyph glyph-name="" unicode="&#x42d;" d="M156 380 l330 0 q-1 61 -15.5 105.5 q-14.5 44.5 -40 73.5 q-25.5 29 -60.5 43 q-35 14 -75 14 q-49 0 -93.5 -13 q-44.5 -13 -93.5 -53 l-51 79 q51 40 107 58.5 q56 18.5 131 18.5 q64 0 117 -20 q53 -20 91.5 -60 q38.5 -40 59.5 -99 q21 -59 21 -138 l0 -109 q0 -80 -21 -139 q-21 -59 -59 -99 q-38 -40 -91.5 -59.5 q-53.5 -19.5 -117.5 -19.5 q-73 0 -137 20 q-64 20 -118 72 l54 74 q45 -44 97 -60 q52 -16 104 -16 q41 0 76 14 q35 14 60.5 43.5 q25.5 29.5 40 75 q14.5 45.5 14.5 107.5 l0 5 l-330 0 l0 82 Z" /><glyph glyph-name="" unicode="&#x42e;" d="M576 -37 q-65 0 -117 19.5 q-52 19.5 -89 59.5 q-37 40 -57 99 q-20 59 -20 139 l0 11 l-112 0 l0 -317 l-99 0 l0 721 l99 0 l0 -321 l112 0 l0 15 q0 79 20 138 q20 59 57 99 q37 40 89.5 60 q52.5 20 116.5 20 q64 0 116.5 -20 q52.5 -20 89.5 -60 q37 -40 57 -99 q20 -59 20 -138 l0 -109 q0 -80 -20 -139 q-20 -59 -57 -99 q-37 -40 -89.5 -59.5 q-52.5 -19.5 -116.5 -19.5 ZM576 616 q-42 0 -76 -13.5 q-34 -13.5 -57.5 -42 q-23.5 -28.5 -36.5 -74 q-13 -45.5 -13 -108.5 l0 -87 q0 -63 13 -108.5 q13 -45.5 36.5 -74 q23.5 -28.5 57.5 -42 q34 -13.5 76 -13.5 q42 0 76 13.5 q34 13.5 58 42 q24 28.5 36.5 74 q12.5 45.5 12.5 108.5 l0 87 q0 63 -12.5 108.5 q-12.5 45.5 -36.5 74 q-24 28.5 -58 42 q-34 13.5 -76 13.5 Z" /><glyph glyph-name="" unicode="&#x42f;" d="M478 275 l-132 0 q-23 0 -38.5 -12.5 q-15.5 -12.5 -29.5 -39.5 l-121 -249 l-107 0 l130 260 q13 25 24.5 41 q11.5 16 31.5 27 q-39 8 -67 25.5 q-28 17.5 -46.5 40.5 q-18.5 23 -27.5 50.5 q-9 27.5 -9 55.5 l0 26 q0 43 15.5 78.5 q15.5 35.5 44.5 61.5 q29 26 72 40.5 q43 14.5 98 14.5 l261 0 l0 -721 l-99 0 l0 301 ZM478 610 l-148 0 q-75 0 -110 -30 q-35 -30 -35 -83 l0 -20 q0 -53 35.5 -85.5 q35.5 -32.5 119.5 -32.5 l138 0 l0 251 Z" /><glyph glyph-name="" unicode="&#x430;" d="M233 -34 q-83 0 -131.5 41 q-48.5 41 -48.5 113 l0 27 q0 70 47 114 q47 44 152 44 l139 0 l0 32 q0 55 -26.5 81.5 q-26.5 26.5 -86.5 26.5 q-48 0 -83.5 -15 q-35.5 -15 -73.5 -40 l-48 72 q40 28 90 48.5 q50 20.5 116 20.5 q46 0 84 -11.5 q38 -11.5 65.5 -34 q27.5 -22.5 43 -55 q15.5 -32.5 15.5 -73.5 l0 -383 l-93 0 l0 66 l-1 0 q-8 -15 -21.5 -27.5 q-13.5 -12.5 -29.5 -21.5 q-22 -12 -47.5 -18.5 q-25.5 -6.5 -61.5 -6.5 ZM391 223 l-137 0 q-57 0 -81.5 -22 q-24.5 -22 -24.5 -61 l0 -14 q0 -40 28 -58 q28 -18 67 -18 q36 0 62.5 8.5 q26.5 8.5 48.5 25.5 q20 15 28.5 34.5 q8.5 19.5 8.5 50.5 l0 54 Z" /><glyph glyph-name="" unicode="&#x431;" d="M300 494 q55 0 98 -16.5 q43 -16.5 73 -48 q30 -31.5 45.5 -76 q15.5 -44.5 15.5 -99.5 l0 -48 q0 -56 -17 -100 q-17 -44 -48.5 -75.5 q-31.5 -31.5 -76 -48 q-44.5 -16.5 -99.5 -16.5 q-55 0 -99.5 16.5 q-44.5 16.5 -76 48 q-31.5 31.5 -48.5 75.5 q-17 44 -17 100 l0 55 q0 123 23.5 209 q23.5 86 74 142 q50.5 56 131 86 q80.5 30 194.5 41 l12 -87 q-63 -7 -116 -19 q-53 -12 -94.5 -35.5 q-41.5 -23.5 -70 -60.5 q-28.5 -37 -42.5 -94 q24 23 62 37 q38 14 76 14 ZM291 51 q66 0 104.5 41.5 q38.5 41.5 38.5 121.5 l0 32 q0 80 -38.5 121.5 q-38.5 41.5 -104.5 41.5 q-66 0 -104.5 -41.5 q-38.5 -41.5 -38.5 -121.5 l0 -32 q0 -80 38.5 -121.5 q38.5 -41.5 104.5 -41.5 Z" /><glyph glyph-name="" unicode="&#x432;" d="M78 513 l215 0 q193 0 193 -135 l0 -11 q0 -36 -20.5 -66.5 q-20.5 -30.5 -69.5 -42.5 q51 -8 83 -37 q32 -29 32 -80 l0 -15 q0 -68 -47.5 -110 q-47.5 -42 -147.5 -42 l-238 0 l0 539 ZM175 55 l116 0 q27 0 49.5 3.5 q22.5 3.5 38 12 q15.5 8.5 24.5 22.5 q9 14 9 36 l0 14 q0 20 -6 34 q-6 14 -22 22.5 q-16 8.5 -42.5 12.5 q-26.5 4 -67.5 4 l-99 0 l0 -161 ZM175 432 l0 -137 l102 0 q28 0 49 2.5 q21 2.5 35 10 q14 7.5 20.5 21 q6.5 13.5 6.5 35.5 l0 9 q0 14 -4.5 25 q-4.5 11 -17 18.5 q-12.5 7.5 -34.5 11.5 q-22 4 -56 4 l-101 0 Z" /><glyph glyph-name="" unicode="&#x433;" d="M409 513 l0 -83 l-234 0 l0 -456 l-97 0 l0 539 l331 0 Z" /><glyph glyph-name="" unicode="&#x434;" d="M505 513 l0 -457 l48 0 l0 -219 l-97 0 l0 137 l-339 0 l0 -137 l-97 0 l0 219 l43 0 q33 54 50 95.5 q17 41.5 25 79 q8 37.5 9 75.5 q1 38 1 86 l0 121 l357 0 ZM245 392 q0 -54 -1.5 -95 q-1.5 -41 -9 -78 q-7.5 -37 -22.5 -75.5 q-15 -38.5 -42 -87.5 l238 0 l0 375 l-163 0 l0 -39 Z" /><glyph glyph-name="" unicode="&#x435;" d="M290 448 q-30 0 -55.5 -10.5 q-25.5 -10.5 -44 -29 q-18.5 -18.5 -29 -45 q-10.5 -26.5 -10.5 -57.5 l0 -14 l274 0 l0 18 q0 63 -36 100.5 q-36 37.5 -99 37.5 ZM506 26 q-36 -25 -86 -42.5 q-50 -17.5 -125 -17.5 q-51 0 -94.5 14.5 q-43.5 14.5 -76 45 q-32.5 30.5 -51 78.5 q-18.5 48 -18.5 114 l0 62 q0 62 17.5 109 q17.5 47 49 78.5 q31.5 31.5 74.5 47.5 q43 16 94 16 q105 0 167 -64 q62 -64 62 -181 l0 -73 l-368 0 l0 -4 q0 -78 41 -118.5 q41 -40.5 107 -40.5 q54 0 92.5 13 q38.5 13 73.5 36 l41 -73 Z" /><glyph glyph-name="" unicode="&#x436;" d="M319 214 l-11 0 q-11 0 -19 -2.5 q-8 -2.5 -15.5 -9.5 q-7.5 -7 -16.5 -19.5 q-9 -12.5 -21 -31.5 l-114 -177 l-112 0 l145 218 q19 28 34.5 42.5 q15.5 14.5 40.5 21.5 q-25 7 -38.5 26 q-13.5 19 -26.5 48 l-26 58 q-11 23 -22.5 33.5 q-11.5 10.5 -31.5 10.5 q-21 0 -40 -7 l-20 80 q11 5 28 9 q17 4 39 4 q45 0 73 -17 q28 -17 50 -64 l25 -53 q20 -43 34.5 -65.5 q14.5 -22.5 34.5 -22.5 l10 0 l0 217 l97 0 l0 -217 l10 0 q20 0 34.5 22.5 q14.5 22.5 34.5 65.5 l25 53 q22 47 49.5 64 q27.5 17 72.5 17 q22 0 39.5 -4 q17.5 -4 28.5 -9 l-20 -80 q-19 7 -40 7 q-20 0 -31.5 -10.5 q-11.5 -10.5 -22.5 -33.5 l-26 -58 q-13 -29 -27 -48 q-14 -19 -38 -26 q25 -7 40.5 -21.5 q15.5 -14.5 34.5 -42.5 l145 -218 l-112 0 l-114 177 q-12 19 -21 31.5 q-9 12.5 -16.5 19.5 q-7.5 7 -15.5 9.5 q-8 2.5 -19 2.5 l-11 0 l0 -240 l-97 0 l0 240 Z" /><glyph glyph-name="" unicode="&#x437;" d="M25 437 q29 36 76 61 q47 25 110 25 q93 0 141.5 -38.5 q48.5 -38.5 48.5 -98.5 l0 -8 q0 -46 -24 -75.5 q-24 -29.5 -78 -43.5 q57 -3 90.5 -37 q33.5 -34 33.5 -88 l0 -11 q0 -33 -13.5 -62 q-13.5 -29 -40 -50 q-26.5 -21 -65.5 -33 q-39 -12 -90 -12 q-26 0 -54 3.5 q-28 3.5 -55 11 q-27 7.5 -51.5 19 q-24.5 11.5 -43.5 26.5 l42 73 q41 -29 81.5 -39.5 q40.5 -10.5 80.5 -10.5 q22 0 42.5 4.5 q20.5 4.5 36 13.5 q15.5 9 24.5 24 q9 15 9 36 l0 10 q0 26 -10 41.5 q-10 15.5 -26.5 23.5 q-16.5 8 -38 10.5 q-21.5 2.5 -44.5 2.5 l-67 0 l0 82 l69 0 q51 0 72.5 21 q21.5 21 21.5 55 l0 6 q0 23 -19 42.5 q-19 19.5 -71 19.5 q-30 0 -65 -15 q-35 -15 -64 -52 l-59 63 Z" /><glyph glyph-name="" unicode="&#x438;" d="M525 -26 l-94 0 l0 396 q-6 -17 -15 -33.5 q-9 -16.5 -20 -32.5 l-227 -330 l-91 0 l0 539 l94 0 l0 -396 q10 23 18 36.5 q8 13.5 19 28.5 l226 331 l90 0 l0 -539 Z" /><glyph glyph-name="" unicode="&#x439;" d="M525 -26 l-94 0 l0 396 q-6 -17 -15 -33.5 q-9 -16.5 -20 -32.5 l-227 -330 l-91 0 l0 539 l94 0 l0 -396 q10 23 18 36.5 q8 13.5 19 28.5 l226 331 l90 0 l0 -539 ZM305 571 q-59 0 -95.5 33.5 q-36.5 33.5 -40.5 91.5 l69 0 q5 -29 20 -46.5 q15 -17.5 47 -17.5 q33 0 47.5 17.5 q14.5 17.5 19.5 46.5 l69 0 q-2 -58 -39 -91.5 q-37 -33.5 -97 -33.5 Z" /><glyph glyph-name="" unicode="&#x43a;" d="M78 512 l97 0 l0 -216 l29 0 q20 0 34 22.5 q14 22.5 34 65.5 l25 53 q22 47 50 64 q28 17 73 17 q22 0 39.5 -4 q17.5 -4 28.5 -9 l-19 -80 q-19 7 -40 7 q-20 0 -31.5 -10.5 q-11.5 -10.5 -22.5 -33.5 l-26 -58 q-13 -29 -27 -48 q-14 -19 -38 -26 q25 -7 40.5 -21.5 q15.5 -14.5 34.5 -42.5 l145 -218 l-114 0 l-114 177 q-12 19 -20.5 31.5 q-8.5 12.5 -16 19.5 q-7.5 7 -15.5 9.5 q-8 2.5 -19 2.5 l-30 0 l0 -240 l-97 0 l0 538 Z" /><glyph glyph-name="" unicode="&#x43b;" d="M510 513 l0 -539 l-97 0 l0 456 l-190 0 l0 -150 q0 -50 -5.5 -101 q-5.5 -51 -25 -94.5 q-19.5 -43.5 -58 -75 q-38.5 -31.5 -104.5 -41.5 l-20 85 q36 10 58.5 26 q22.5 16 35 42 q12.5 26 17.5 65.5 q5 39.5 5 98.5 l0 228 l384 0 Z" /><glyph glyph-name="" unicode="&#x43c;" d="M197 321 q-8 20 -13.5 36 q-5.5 16 -12.5 40 l0 -423 l-93 0 l0 539 l129 0 l144 -351 l143 351 l127 0 l0 -539 l-98 0 l0 423 q-5 -22 -11 -38 q-6 -16 -14 -36 l-114 -270 l-73 0 l-114 268 Z" /><glyph glyph-name="" unicode="&#x43d;" d="M175 513 l0 -219 l258 0 l0 219 l97 0 l0 -539 l-97 0 l0 236 l-258 0 l0 -236 l-97 0 l0 539 l97 0 Z" /><glyph glyph-name="" unicode="&#x43e;" d="M299 531 q113 0 178.5 -65 q65.5 -65 65.5 -184 l0 -67 q0 -119 -65.5 -184 q-65.5 -65 -178.5 -65 q-113 0 -178.5 65 q-65.5 65 -65.5 184 l0 67 q0 120 65.5 184.5 q65.5 64.5 178.5 64.5 ZM299 51 q65 0 105.5 42.5 q40.5 42.5 40.5 129.5 l0 51 q0 87 -40.5 129.5 q-40.5 42.5 -105.5 42.5 q-65 0 -105.5 -42.5 q-40.5 -42.5 -40.5 -129.5 l0 -51 q0 -87 40.5 -129.5 q40.5 -42.5 105.5 -42.5 Z" /><glyph glyph-name="" unicode="&#x43f;" d="M507 513 l0 -539 l-97 0 l0 455 l-235 0 l0 -455 l-97 0 l0 539 l429 0 Z" /><glyph glyph-name="" unicode="&#x440;" d="M172 453 q24 42 67.5 60 q43.5 18 92.5 18 q104 0 158.5 -62 q54.5 -62 54.5 -171 l0 -97 q0 -57 -16 -100.5 q-16 -43.5 -44.5 -73.5 q-28.5 -30 -69 -45.5 q-40.5 -15.5 -89.5 -15.5 q-61 0 -97.5 22 q-36.5 22 -53.5 46 l0 -274 l-97 0 l0 761 l94 0 l0 -68 ZM174 169 q0 -21 10.5 -42.5 q10.5 -21.5 30 -38 q19.5 -16.5 45.5 -27 q26 -10.5 58 -10.5 q62 0 96.5 43 q34.5 43 34.5 121 l0 67 q0 78 -35 121 q-35 43 -96 43 q-30 0 -56 -10 q-26 -10 -45.5 -28 q-19.5 -18 -31 -43.5 q-11.5 -25.5 -11.5 -57.5 l0 -138 Z" /><glyph glyph-name="" unicode="&#x441;" d="M291 531 q68 0 111.5 -17 q43.5 -17 77.5 -43 l-46 -73 q-38 28 -70.5 37.5 q-32.5 9.5 -72.5 9.5 q-27 0 -52 -9 q-25 -9 -44 -28.5 q-19 -19.5 -30.5 -49.5 q-11.5 -30 -11.5 -72 l0 -69 q0 -44 11.5 -75.5 q11.5 -31.5 31 -51 q19.5 -19.5 45 -28.5 q25.5 -9 52.5 -9 q54 0 89.5 14 q35.5 14 64.5 36 l47 -74 q-29 -24 -78 -43.5 q-49 -19.5 -124 -19.5 q-114 0 -175.5 66 q-61.5 66 -61.5 184 l0 69 q0 59 17 104.5 q17 45.5 47.5 77 q30.5 31.5 74 48 q43.5 16.5 97.5 16.5 Z" /><glyph glyph-name="" unicode="&#x442;" d="M434 513 l0 -84 l-163 0 l0 -455 l-97 0 l0 455 l-159 0 l0 84 l419 0 Z" /><glyph glyph-name="" unicode="&#x443;" d="M267 84 l144 437 l102 0 l-284 -773 l-88 31 l71 187 l-199 555 l105 0 l145 -437 l4 0 Z" /><glyph glyph-name="" unicode="&#x444;" d="M386 695 l0 -175 q116 -11 179 -76 q63 -65 63 -171 l0 -57 q0 -106 -63 -171 q-63 -65 -179 -76 l0 -196 l-94 0 l0 196 q-116 11 -179 76 q-63 65 -63 171 l0 57 q0 107 63 171.5 q63 64.5 179 75.5 l0 175 l94 0 ZM531 269 q0 40 -11 69.5 q-11 29.5 -30.5 49.5 q-19.5 20 -46 31.5 q-26.5 11.5 -57.5 16.5 l0 -386 q31 5 57.5 17 q26.5 12 46 32.5 q19.5 20.5 30.5 50 q11 29.5 11 70.5 l0 49 ZM147 220 q0 -40 11.5 -70 q11.5 -30 31 -50.5 q19.5 -20.5 46 -32.5 q26.5 -12 56.5 -17 l0 386 q-31 -5 -57.5 -16.5 q-26.5 -11.5 -46 -31.5 q-19.5 -20 -30.5 -49.5 q-11 -29.5 -11 -69.5 l0 -49 Z" /><glyph glyph-name="" unicode="&#x445;" d="M325 258 l180 -284 l-117 0 l-127 220 l-130 -220 l-111 0 l183 284 l-174 263 l117 0 l121 -202 l123 202 l108 0 l-173 -263 Z" /><glyph glyph-name="" unicode="&#x446;" d="M494 513 l0 -456 l48 0 l0 -220 l-97 0 l0 137 l-367 0 l0 539 l97 0 l0 -456 l222 0 l0 456 l97 0 Z" /><glyph glyph-name="" unicode="&#x447;" d="M137 513 l0 -163 q0 -25 4 -45 q4 -20 15.5 -34.5 q11.5 -14.5 32 -22 q20.5 -7.5 54.5 -7.5 q38 0 66.5 8.5 q28.5 8.5 52.5 25.5 l0 238 l97 0 l0 -547 l-97 0 l0 224 q-20 -14 -53.5 -23.5 q-33.5 -9.5 -76.5 -9.5 q-36 0 -70.5 9 q-34.5 9 -61.5 28 q-27 19 -43.5 49.5 q-16.5 30.5 -16.5 73.5 l0 196 l97 0 Z" /><glyph glyph-name="" unicode="&#x448;" d="M78 -26 l0 539 l97 0 l0 -457 l180 0 l0 457 l97 0 l0 -457 l180 0 l0 457 l97 0 l0 -539 l-651 0 Z" /><glyph glyph-name="" unicode="&#x449;" d="M729 513 l0 -457 l48 0 l0 -219 l-97 0 l0 137 l-602 0 l0 539 l97 0 l0 -457 l180 0 l0 457 l97 0 l0 -457 l180 0 l0 457 l97 0 Z" /><glyph glyph-name="" unicode="&#x44a;" d="M209 56 l104 0 q63 0 91 17.5 q28 17.5 28 65.5 l0 18 q0 26 -6.5 42.5 q-6.5 16.5 -20.5 26 q-14 9.5 -36 13 q-22 3.5 -52 3.5 l-108 0 l0 -186 ZM10 513 l199 0 l0 -189 l131 0 q88 0 139 -40 q51 -40 51 -125 l0 -21 q0 -74 -46 -119 q-46 -45 -143 -45 l-229 0 l0 456 l-102 0 l0 83 Z" /><glyph glyph-name="" unicode="&#x44b;" d="M175 56 l104 0 q59 0 89 18 q30 18 30 66 l0 16 q0 52 -29.5 69 q-29.5 17 -85.5 17 l-108 0 l0 -186 ZM175 513 l0 -189 l131 0 q93 0 141.5 -40.5 q48.5 -40.5 48.5 -125.5 l0 -19 q0 -74 -44 -119.5 q-44 -45.5 -145 -45.5 l-229 0 l0 539 l97 0 ZM653 513 l0 -539 l-97 0 l0 539 l97 0 Z" /><glyph glyph-name="" unicode="&#x44c;" d="M175 56 l104 0 q59 0 89 18 q30 18 30 66 l0 16 q0 52 -29.5 69 q-29.5 17 -85.5 17 l-108 0 l0 -186 ZM175 513 l0 -189 l131 0 q93 0 141.5 -40.5 q48.5 -40.5 48.5 -125.5 l0 -19 q0 -74 -44 -119.5 q-44 -45.5 -145 -45.5 l-229 0 l0 539 l97 0 Z" /><glyph glyph-name="" unicode="&#x44d;" d="M135 289 l226 0 q-1 41 -12.5 71 q-11.5 30 -30.5 49 q-19 19 -43.5 28 q-24.5 9 -51.5 9 q-40 0 -72.5 -9.5 q-32.5 -9.5 -70.5 -37.5 l-46 72 q34 26 77.5 43 q43.5 17 111.5 17 q54 0 97.5 -16.5 q43.5 -16.5 74 -48 q30.5 -31.5 47.5 -77 q17 -45.5 17 -104.5 l0 -69 q0 -118 -61.5 -184 q-61.5 -66 -175.5 -66 q-75 0 -124 19.5 q-49 19.5 -78 43.5 l47 73 q29 -22 64.5 -36 q35.5 -14 89.5 -14 q26 0 50.5 8.5 q24.5 8.5 44 27 q19.5 18.5 31.5 48 q12 29.5 14 71.5 l-226 0 l0 82 Z" /><glyph glyph-name="" unicode="&#x44e;" d="M481 531 q111 0 169 -65 q58 -65 58 -184 l0 -67 q0 -119 -58 -184 q-58 -65 -169 -65 q-108 0 -166 61.5 q-58 61.5 -61 175.5 l-77 0 l0 -229 l-97 0 l0 539 l97 0 l0 -225 l77 0 q2 117 60 180 q58 63 167 63 ZM481 51 q129 0 129 172 l0 51 q0 172 -129 172 q-129 0 -129 -172 l0 -51 q0 -172 129 -172 Z" /><glyph glyph-name="" unicode="&#x44f;" d="M463 -26 l-97 0 l0 213 l-81 0 q-35 0 -51 -12 q-16 -12 -29 -40 l-77 -161 l-112 0 l87 175 q14 29 29.5 44.5 q15.5 15.5 35.5 23.5 q-52 8 -87 43 q-35 35 -35 93 l0 11 q0 69 46.5 109 q46.5 40 140.5 40 l230 0 l0 -539 ZM239 431 q-50 0 -72.5 -20.5 q-22.5 -20.5 -22.5 -53.5 l0 -7 q0 -45 35 -62 q35 -17 86 -17 l101 0 l0 160 l-127 0 Z" /><glyph glyph-name="" unicode="&#x451;" d="M290 448 q-30 0 -55.5 -10.5 q-25.5 -10.5 -44 -29 q-18.5 -18.5 -29 -45 q-10.5 -26.5 -10.5 -57.5 l0 -14 l274 0 l0 18 q0 63 -36 100.5 q-36 37.5 -99 37.5 ZM506 26 q-36 -25 -86 -42.5 q-50 -17.5 -125 -17.5 q-51 0 -94.5 14.5 q-43.5 14.5 -76 45 q-32.5 30.5 -51 78.5 q-18.5 48 -18.5 114 l0 62 q0 62 17.5 109 q17.5 47 49 78.5 q31.5 31.5 74.5 47.5 q43 16 94 16 q105 0 167 -64 q62 -64 62 -181 l0 -73 l-368 0 l0 -4 q0 -78 41 -118.5 q41 -40.5 107 -40.5 q54 0 92.5 13 q38.5 13 73.5 36 l41 -73 ZM155 680 l88 0 l0 -92 l-88 0 l0 92 ZM330 680 l88 0 l0 -92 l-88 0 l0 92 Z" /><glyph glyph-name="" unicode="&#x2010;" d="M30 337 l359 0 l0 -93 l-359 0 l0 93 Z" /><glyph glyph-name="" unicode="&#x2014;&#x2015;" d="M850 279 l-850 0 l0 70 l850 0 l0 -70 Z" /><glyph glyph-name="" unicode="&#x2016;" d="M571 -180 l-57 0 l0 960 l57 0 l0 -960 ZM395 -180 l-56 0 l0 960 l56 0 l0 -960 Z" /><glyph glyph-name="" unicode="&#x2018;" d="M138 545 l-110 0 l75 228 l77 0 l-42 -228 Z" /><glyph glyph-name="" unicode="&#x2019;" d="M62 758 l110 0 l-75 -228 l-77 0 l42 228 Z" /><glyph glyph-name="" unicode="&#x201b;" d="" /><glyph glyph-name="" unicode="&#x201c;" d="M286 545 l-107 0 l75 228 l74 0 l-42 -228 ZM142 545 l-107 0 l75 228 l74 0 l-42 -228 Z" /><glyph glyph-name="" unicode="&#x201d;" d="M64 758 l107 0 l-75 -228 l-74 0 l42 228 ZM208 758 l107 0 l-75 -228 l-74 0 l42 228 Z" /><glyph glyph-name="" unicode="&#x201f;" d="" /><glyph glyph-name="" unicode="&#x2020;" d="M205 413 l-165 0 l0 79 l165 0 l0 202 l83 0 l0 -202 l165 0 l0 -79 l-165 0 l0 -504 l-83 0 l0 504 Z" /><glyph glyph-name="" unicode="&#x2021;" d="M40 190 l165 0 l0 223 l-165 0 l0 79 l165 0 l0 202 l83 0 l0 -202 l165 0 l0 -79 l-165 0 l0 -223 l165 0 l0 -79 l-165 0 l0 -202 l-83 0 l0 202 l-165 0 l0 79 Z" /><glyph glyph-name="" unicode="&#x2022;" d="" /><glyph glyph-name="" unicode="&#x2025;" d="M255 360 l114 0 l0 -115 l-114 0 l0 115 ZM540 360 l114 0 l0 -115 l-114 0 l0 115 Z" /><glyph glyph-name="" unicode="&#x2026;&#x22ef;" d="M130 360 l114 0 l0 -115 l-114 0 l0 115 ZM398 360 l114 0 l0 -115 l-114 0 l0 115 ZM666 360 l114 0 l0 -115 l-114 0 l0 115 Z" /><glyph glyph-name="" unicode="&#x2030;" d="M186 -25 l431 720 l89 0 l-430 -720 l-90 0 ZM227 706 q76 0 119.5 -45 q43.5 -45 43.5 -124 l0 -42 q0 -79 -43.5 -124 q-43.5 -45 -119.5 -45 q-76 0 -119.5 45 q-43.5 45 -43.5 124 l0 42 q0 79 43.5 124 q43.5 45 119.5 45 ZM227 394 q85 0 85 103 l0 38 q0 103 -85 103 q-85 0 -85 -103 l0 -38 q0 -103 85 -103 ZM666 346 q76 0 119.5 -45 q43.5 -45 43.5 -124 l0 -42 q0 -79 -43.5 -124 q-43.5 -45 -119.5 -45 q-76 0 -119.5 45 q-43.5 45 -43.5 124 l0 42 q0 79 43.5 124 q43.5 45 119.5 45 ZM666 34 q85 0 85 103 l0 38 q0 103 -85 103 q-85 0 -85 -103 l0 -38 q0 -103 85 -103 ZM1040 346 q76 0 119.5 -45 q43.5 -45 43.5 -124 l0 -42 q0 -79 -43.5 -124 q-43.5 -45 -119.5 -45 q-76 0 -119.5 45 q-43.5 45 -43.5 124 l0 42 q0 79 43.5 124 q43.5 45 119.5 45 ZM1040 34 q85 0 85 103 l0 38 q0 103 -85 103 q-85 0 -85 -103 l0 -38 q0 -103 85 -103 Z" /><glyph glyph-name="" unicode="&#x2032;" d="M200 735 l108 0 l-135 -255 l-53 0 l80 255 Z" /><glyph glyph-name="" unicode="&#x2033;" d="M368 735 l107 0 l-135 -255 l-52 0 l80 255 ZM200 735 l107 0 l-135 -255 l-52 0 l80 255 Z" /><glyph glyph-name="" unicode="&#x2034;" d="" /><glyph glyph-name="" unicode="&#x2035;" d="" /><glyph glyph-name="" unicode="&#x2036;" d="" /><glyph glyph-name="" unicode="&#x2039;" d="" /><glyph glyph-name="" unicode="&#x203a;" d="" /><glyph glyph-name="" unicode="&#x203b;" d="M499 306 l328 -317 l-56 -54 l-323 321 q-81 -81 -161 -160.5 q-80 -79.5 -161 -160.5 l-54 53 q81 80 163 158.5 q82 78.5 163 158.5 l-324 319 l51 55 l323 -323 l325 323 l51 -54 l-325 -319 ZM224 304 q0 -15 -6 -28.5 q-6 -13.5 -17 -24 q-11 -10.5 -25.5 -17 q-14.5 -6.5 -30.5 -6.5 q-15 0 -29 6 q-14 6 -25.5 16.5 q-11.5 10.5 -18 24.5 q-6.5 14 -6.5 29 q0 16 6.5 30.5 q6.5 14.5 17.5 25 q11 10.5 25 16.5 q14 6 29 6 q16 0 30.5 -6 q14.5 -6 25.5 -16.5 q11 -10.5 17.5 -25 q6.5 -14.5 6.5 -30.5 ZM523 606 q0 -15 -6.5 -29 q-6.5 -14 -17 -24.5 q-10.5 -10.5 -24.5 -17 q-14 -6.5 -30 -6.5 q-16 0 -30 6.5 q-14 6.5 -25 17 q-11 10.5 -17.5 24.5 q-6.5 14 -6.5 29 q0 32 23 54.5 q23 22.5 55 22.5 q16 0 30.5 -6 q14.5 -6 25 -16.5 q10.5 -10.5 17 -24.5 q6.5 -14 6.5 -30 ZM843 304 q0 -15 -6.5 -28.5 q-6.5 -13.5 -17 -24 q-10.5 -10.5 -25 -16.5 q-14.5 -6 -30.5 -6 q-15 0 -29.5 6 q-14.5 6 -25 16.5 q-10.5 10.5 -17 24 q-6.5 13.5 -6.5 28.5 q0 33 23 55.5 q23 22.5 54 22.5 q32 0 56 -22.5 q24 -22.5 24 -55.5 ZM523 -6 q0 -30 -22.5 -52.5 q-22.5 -22.5 -55.5 -22.5 q-16 0 -30 6 q-14 6 -24.5 16.5 q-10.5 10.5 -17 24 q-6.5 13.5 -6.5 28.5 q0 32 22.5 54.5 q22.5 22.5 54.5 22.5 q32 0 55.5 -22.5 q23.5 -22.5 23.5 -54.5 Z" /><glyph glyph-name="" unicode="&#x203c;" d="" /><glyph glyph-name="" unicode="&#xffe3;&#x203e;" d="M905 723 l-900 0 l0 39 l900 0 l0 -39 Z" /><glyph glyph-name="" unicode="&#x2042;" d="" /><glyph glyph-name="" unicode="&#x2074;" d="M327 601 l0 -154 l60 0 l0 -72 l-60 0 l0 -91 l-84 0 l0 91 l-225 0 l0 60 l198 307 l92 0 l-191 -295 l126 0 l0 154 l84 0 Z" /><glyph glyph-name="" unicode="&#x207a;" d="" /><glyph glyph-name="" unicode="&#x207b;" d="" /><glyph glyph-name="" unicode="&#x207c;" d="" /><glyph glyph-name="" unicode="&#x207d;" d="" /><glyph glyph-name="" unicode="&#x207e;" d="" /><glyph glyph-name="" unicode="&#x207f;" d="M270 729 q30 0 57.5 -9 q27.5 -9 48.5 -28 q21 -19 33.5 -49 q12.5 -30 12.5 -72 l0 -287 l-88 0 l0 267 q0 29 -6 48.5 q-6 19.5 -17.5 31 q-11.5 11.5 -28 16 q-16.5 4.5 -36.5 4.5 q-16 0 -34 -5 q-18 -5 -33.5 -17 q-15.5 -12 -25.5 -32 q-10 -20 -10 -49 l0 -264 l-88 0 l0 438 l83 0 l0 -53 q23 33 56.5 46.5 q33.5 13.5 75.5 13.5 Z" /><glyph glyph-name="" unicode="&#x2081;" d="M193 -112 l0 359 l-104 -61 l-42 71 l159 89 l75 0 l0 -458 l-88 0 Z" /><glyph glyph-name="" unicode="&#x2082;" d="M199 121 q20 22 32 37 q12 15 18 26.5 q6 11.5 7.5 20.5 q1.5 9 1.5 18 l0 5 q0 19 -14.5 34 q-14.5 15 -50.5 15 q-25 0 -47.5 -12 q-22.5 -12 -42.5 -47 l-66 44 q9 15 22 31.5 q13 16.5 32 30 q19 13.5 44.5 22.5 q25.5 9 58.5 9 q38 0 66.5 -10 q28.5 -10 47.5 -27 q19 -17 28.5 -39.5 q9.5 -22.5 9.5 -47.5 l0 -6 q0 -38 -24.5 -75 q-24.5 -37 -56.5 -71 l-111 -117 l209 0 l0 -74 l-324 0 l0 61 l160 172 Z" /><glyph glyph-name="" unicode="&#x2083;" d="M47 284 q22 34 60 52.5 q38 18.5 83 18.5 q37 0 64.5 -9 q27.5 -9 46.5 -24.5 q19 -15.5 28.5 -35.5 q9.5 -20 9.5 -42 l0 -8 q0 -33 -14.5 -62.5 q-14.5 -29.5 -49.5 -44.5 q45 -9 66 -36.5 q21 -27.5 21 -61.5 l0 -12 q0 -62 -43.5 -100.5 q-43.5 -38.5 -126.5 -38.5 q-88 0 -157 54 l41 66 q36 -27 61.5 -35.5 q25.5 -8.5 52.5 -8.5 q45 0 64 19 q19 19 19 44 l0 10 q0 12 -4 23 q-4 11 -13.5 19.5 q-9.5 8.5 -26.5 14 q-17 5.5 -44 5.5 l-56 0 l0 75 l55 0 q38 0 53 13.5 q15 13.5 15 43.5 l0 6 q0 53 -65 53 q-20 0 -41 -9.5 q-21 -9.5 -40 -33.5 l-59 45 Z" /><glyph glyph-name="" unicode="&#x2084;" d="M327 206 l0 -154 l60 0 l0 -72 l-60 0 l0 -91 l-84 0 l0 91 l-225 0 l0 60 l198 307 l92 0 l-191 -295 l126 0 l0 154 l84 0 Z" /><glyph glyph-name="" unicode="&#x20a9;" d="M36 401 l102 0 l-72 294 l99 0 l64 -294 l137 0 l74 294 l89 0 l70 -294 l133 0 l63 294 l95 0 l-72 -294 l105 0 l0 -61 l-120 0 l-88 -366 l-90 0 l-86 366 l-112 0 l-90 -366 l-94 0 l-90 366 l-117 0 l0 61 ZM293 106 l58 234 l-109 0 l51 -234 ZM669 106 l50 234 l-106 0 l56 -234 ZM442 401 l83 0 l-40 174 l-43 -174 Z" /><glyph glyph-name="" unicode="&#x2103;" d="M793 55 q-54 -52 -118 -72 q-64 -20 -137 -20 q-65 0 -118 19.5 q-53 19.5 -91 59.5 q-38 40 -59 99 q-21 59 -21 139 l0 109 q0 79 21 138 q21 59 59.5 99 q38.5 40 91.5 60 q53 20 117 20 q75 0 131 -18.5 q56 -18.5 107 -58.5 l-51 -81 q-49 40 -93.5 53 q-44.5 13 -93.5 13 q-41 0 -75.5 -14 q-34.5 -14 -60 -43 q-25.5 -29 -39.5 -74 q-14 -45 -14 -107 l0 -83 q0 -62 14 -107 q14 -45 39.5 -74 q25.5 -29 60 -43 q34.5 -14 75.5 -14 q52 0 104 16 q52 16 97 60 l54 -76 ZM249 625 q0 -19 -7 -36 q-7 -17 -20 -29.5 q-13 -12.5 -31 -20 q-18 -7.5 -40 -7.5 q-22 0 -40 7.5 q-18 7.5 -31 20 q-13 12.5 -20 29.5 q-7 17 -7 36 q0 19 7 36 q7 17 20 29.5 q13 12.5 31 20 q18 7.5 40 7.5 q22 0 40 -7.5 q18 -7.5 31 -20 q13 -12.5 20 -29.5 q7 -17 7 -36 ZM107 624 q0 -20 12 -33 q12 -13 32 -13 q20 0 31.5 13 q11.5 13 11.5 33 q0 20 -11.5 33.5 q-11.5 13.5 -31.5 13.5 q-20 0 -32 -13.5 q-12 -13.5 -12 -33.5 Z" /><glyph glyph-name="" unicode="&#x2109;" d="M249 625 q0 -19 -7 -36 q-7 -17 -20 -29.5 q-13 -12.5 -31 -20 q-18 -7.5 -40 -7.5 q-22 0 -40 7.5 q-18 7.5 -31 20 q-13 12.5 -20 29.5 q-7 17 -7 36 q0 19 7 36 q7 17 20 29.5 q13 12.5 31 20 q18 7.5 40 7.5 q22 0 40 -7.5 q18 -7.5 31 -20 q13 -12.5 20 -29.5 q7 -17 7 -36 ZM107 624 q0 -20 12 -33 q12 -13 32 -13 q20 0 31.5 13 q11.5 13 11.5 33 q0 20 -11.5 33.5 q-11.5 13.5 -31.5 13.5 q-20 0 -32 -13.5 q-12 -13.5 -12 -33.5 ZM745 695 l0 -85 l-347 0 l0 -241 l326 0 l0 -85 l-326 0 l0 -310 l-99 0 l0 721 l446 0 Z" /><glyph glyph-name="" unicode="&#x2113;" d="M607 14 q-19 -21 -49.5 -34.5 q-30.5 -13.5 -70.5 -13.5 q-74 0 -106.5 34 q-32.5 34 -32.5 99 l0 417 q0 39 6.5 73.5 q6.5 34.5 22 60.5 q15.5 26 41 41 q25.5 15 63.5 15 q40 0 66 -15.5 q26 -15.5 40.5 -41.5 q14.5 -26 20 -60.5 q5.5 -34.5 5.5 -72.5 l0 -95 q0 -119 -45 -193 q-45 -74 -121 -112 l0 -14 q0 -55 46 -55 q26 0 41 9.5 q15 9.5 27 20.5 l46 -63 ZM447 211 q28 23 48 76.5 q20 53.5 20 132.5 l0 75 q0 24 -1 46.5 q-1 22.5 -4.5 39.5 q-3.5 17 -10 27 q-6.5 10 -18.5 10 q-12 0 -18.5 -10 q-6.5 -10 -10 -27 q-3.5 -17 -4.5 -39.5 q-1 -22.5 -1 -46.5 l0 -284 Z" /><glyph glyph-name="" unicode="&#x2116;" d="M180 695 l170 -463 q7 -20 16.5 -48.5 q9.5 -28.5 17.5 -79.5 l0 591 l88 0 l0 -721 l-114 0 l-172 463 q-8 22 -17.5 54 q-9.5 32 -14.5 74 l0 -591 l-88 0 l0 721 l114 0 ZM682 512 q79 0 125 -47.5 q46 -47.5 46 -137.5 l0 -44 q0 -90 -46 -138 q-46 -48 -125 -48 q-78 0 -124 48 q-46 48 -46 138 l0 44 q0 90 46 137.5 q46 47.5 124 47.5 ZM682 172 q42 0 64.5 28.5 q22.5 28.5 22.5 89.5 l0 29 q0 61 -22.5 89.5 q-22.5 28.5 -64.5 28.5 q-42 0 -64 -28.5 q-22 -28.5 -22 -89.5 l0 -29 q0 -61 22 -89.5 q22 -28.5 64 -28.5 ZM540 51 l285 0 l0 -77 l-285 0 l0 77 Z" /><glyph glyph-name="" unicode="&#x2121;" d="M702 513 l0 -83 l-206 0 l0 -134 l185 0 l0 -83 l-185 0 l0 -156 l213 0 l0 -83 l-310 0 l0 539 l303 0 ZM192 -26 l0 638 l-184 0 l0 83 l465 0 l0 -83 l-184 0 l0 -638 l-97 0 ZM858 513 l0 -456 l194 0 l0 -83 l-291 0 l0 539 l97 0 Z" /><glyph glyph-name="" unicode="&#x2122;" d="M116 636 l-96 0 l0 59 l268 0 l0 -59 l-96 0 l0 -267 l-76 0 l0 267 ZM322 695 l92 0 l84 -188 l3 0 l87 188 l90 0 l0 -326 l-71 0 l0 230 l-1 0 l-78 -166 l-59 0 l-80 172 l-2 0 l0 -236 l-65 0 l0 326 Z" /><glyph glyph-name="" unicode="&#x2126;" d="M455 617 q-42 0 -79.5 -13 q-37.5 -13 -66 -41 q-28.5 -28 -45 -73 q-16.5 -45 -16.5 -108 l0 -88 q0 -50 10 -89 q10 -39 28 -68 q18 -29 42 -47.5 q24 -18.5 52 -27.5 l0 -88 l-298 0 l0 86 l162 0 q-18 15 -35 36 q-17 21 -30 48.5 q-13 27.5 -21 62 q-8 34.5 -8 76.5 l0 109 q0 79 23.5 138 q23.5 59 65 98 q41.5 39 97 58.5 q55.5 19.5 119.5 19.5 q64 0 119.5 -19.5 q55.5 -19.5 97 -58.5 q41.5 -39 65 -98 q23.5 -59 23.5 -138 l0 -109 q0 -42 -8 -76.5 q-8 -34.5 -21 -62 q-13 -27.5 -30 -48.5 q-17 -21 -35 -36 l162 0 l0 -86 l-298 0 l0 88 q28 9 52 27.5 q24 18.5 42 47.5 q18 29 28 68 q10 39 10 89 l0 88 q0 63 -16.5 108 q-16.5 45 -45 73 q-28.5 28 -66 41 q-37.5 13 -79.5 13 Z" /><glyph glyph-name="" unicode="&#x212b;" d="M434 713 q0 -20 -8.5 -38 q-8.5 -18 -22.5 -31 l250 -670 l-104 0 l-76 212 l-276 0 l-76 -212 l-101 0 l248 669 q-14 13 -22.5 31.5 q-8.5 18.5 -8.5 38.5 q0 39 28 67 q28 28 70 28 q43 0 71 -28 q28 -28 28 -67 ZM227 271 l216 0 l-60 169 q-8 22 -14 38.5 q-6 16.5 -11 32 q-5 15.5 -10.5 32.5 q-5.5 17 -12.5 42 q-8 -25 -13 -42.5 q-5 -17.5 -10 -32.5 q-5 -15 -10.5 -31.5 q-5.5 -16.5 -13.5 -38.5 l-61 -169 ZM335 663 q23 0 36.5 13.5 q13.5 13.5 13.5 36.5 q0 23 -13.5 37 q-13.5 14 -36.5 14 q-22 0 -35.5 -14 q-13.5 -14 -13.5 -37 q0 -23 13.5 -36.5 q13.5 -13.5 35.5 -13.5 Z" /><glyph glyph-name="" unicode="&#x2153;" d="M691 709 l85 0 l-523 -775 l-85 0 l523 775 ZM193 237 l0 359 l-104 -61 l-42 71 l159 89 l75 0 l0 -458 l-88 0 ZM567 313 q22 34 60 52.5 q38 18.5 83 18.5 q37 0 64.5 -9 q27.5 -9 46.5 -24.5 q19 -15.5 28.5 -35.5 q9.5 -20 9.5 -42 l0 -8 q0 -33 -14.5 -62.5 q-14.5 -29.5 -49.5 -44.5 q45 -9 66 -36.5 q21 -27.5 21 -61.5 l0 -12 q0 -62 -43.5 -100.5 q-43.5 -38.5 -126.5 -38.5 q-88 0 -157 54 l41 66 q36 -27 61.5 -35.5 q25.5 -8.5 52.5 -8.5 q45 0 64 19 q19 19 19 44 l0 10 q0 12 -4 23 q-4 11 -13.5 19.5 q-9.5 8.5 -26.5 14 q-17 5.5 -44 5.5 l-56 0 l0 75 l55 0 q38 0 53 13.5 q15 13.5 15 43.5 l0 6 q0 53 -65 53 q-20 0 -41 -9.5 q-21 -9.5 -40 -33.5 l-59 45 Z" /><glyph glyph-name="" unicode="&#x2154;" d="M735 709 l85 0 l-523 -775 l-85 0 l523 775 ZM611 313 q22 34 60 52.5 q38 18.5 83 18.5 q37 0 64.5 -9 q27.5 -9 46.5 -24.5 q19 -15.5 28.5 -35.5 q9.5 -20 9.5 -42 l0 -8 q0 -33 -14.5 -62.5 q-14.5 -29.5 -49.5 -44.5 q45 -9 66 -36.5 q21 -27.5 21 -61.5 l0 -12 q0 -62 -43.5 -100.5 q-43.5 -38.5 -126.5 -38.5 q-88 0 -157 54 l41 66 q36 -27 61.5 -35.5 q25.5 -8.5 52.5 -8.5 q45 0 64 19 q19 19 19 44 l0 10 q0 12 -4 23 q-4 11 -13.5 19.5 q-9.5 8.5 -26.5 14 q-17 5.5 -44 5.5 l-56 0 l0 75 l55 0 q38 0 53 13.5 q15 13.5 15 43.5 l0 6 q0 53 -65 53 q-20 0 -41 -9.5 q-21 -9.5 -40 -33.5 l-59 45 ZM199 470 q20 22 32 37 q12 15 18 26.5 q6 11.5 7.5 20.5 q1.5 9 1.5 18 l0 5 q0 19 -14.5 34 q-14.5 15 -50.5 15 q-25 0 -47.5 -12 q-22.5 -12 -42.5 -47 l-66 44 q9 15 22 31.5 q13 16.5 32 30 q19 13.5 44.5 22.5 q25.5 9 58.5 9 q38 0 66.5 -10 q28.5 -10 47.5 -27 q19 -17 28.5 -39.5 q9.5 -22.5 9.5 -47.5 l0 -6 q0 -38 -24.5 -75 q-24.5 -37 -56.5 -71 l-111 -117 l209 0 l0 -74 l-324 0 l0 61 l160 172 Z" /><glyph glyph-name="" unicode="&#x215b;" d="M691 709 l85 0 l-523 -775 l-85 0 l523 775 ZM656 249 q0 -30 20 -45 q20 -15 45 -15 q26 0 45 15 q19 15 19 45 l0 6 q0 29 -17.5 45 q-17.5 16 -46.5 16 q-27 0 -46 -16 q-19 -16 -19 -45 l0 -6 ZM647 41 q0 -28 20 -44 q20 -16 56 -16 q33 0 52.5 16 q19.5 16 19.5 44 l0 8 q0 32 -21 48 q-21 16 -51 16 q-32 0 -54 -16 q-22 -16 -22 -48 l0 -8 ZM561 49 q0 38 22.5 66.5 q22.5 28.5 54.5 37.5 q-33 17 -48.5 45.5 q-15.5 28.5 -15.5 54.5 l0 8 q0 25 9.5 47.5 q9.5 22.5 28 39.5 q18.5 17 46 27 q27.5 10 63.5 10 q35 0 62.5 -10 q27.5 -10 46.5 -27 q19 -17 29 -39.5 q10 -22.5 10 -47.5 l0 -8 q0 -26 -15 -54 q-15 -28 -49 -46 q32 -9 54.5 -37.5 q22.5 -28.5 22.5 -66.5 l0 -12 q0 -55 -42.5 -91.5 q-42.5 -36.5 -118.5 -36.5 q-76 0 -118 36.5 q-42 36.5 -42 91.5 l0 12 ZM193 237 l0 359 l-104 -61 l-42 71 l159 89 l75 0 l0 -458 l-88 0 Z" /><glyph glyph-name="" unicode="&#x215c;" d="M706 709 l85 0 l-523 -775 l-85 0 l523 775 ZM672 249 q0 -30 20 -45 q20 -15 45 -15 q26 0 45 15 q19 15 19 45 l0 6 q0 29 -17.5 45 q-17.5 16 -46.5 16 q-27 0 -46 -16 q-19 -16 -19 -45 l0 -6 ZM663 41 q0 -28 20 -44 q20 -16 56 -16 q33 0 52.5 16 q19.5 16 19.5 44 l0 8 q0 32 -21 48 q-21 16 -51 16 q-32 0 -54 -16 q-22 -16 -22 -48 l0 -8 ZM577 49 q0 38 22.5 66.5 q22.5 28.5 54.5 37.5 q-33 17 -48.5 45.5 q-15.5 28.5 -15.5 54.5 l0 8 q0 25 9.5 47.5 q9.5 22.5 28 39.5 q18.5 17 46 27 q27.5 10 63.5 10 q35 0 62.5 -10 q27.5 -10 46.5 -27 q19 -17 29 -39.5 q10 -22.5 10 -47.5 l0 -8 q0 -26 -15 -54 q-15 -28 -49 -46 q32 -9 54.5 -37.5 q22.5 -28.5 22.5 -66.5 l0 -12 q0 -55 -42.5 -91.5 q-42.5 -36.5 -118.5 -36.5 q-76 0 -118 36.5 q-42 36.5 -42 91.5 l0 12 ZM47 633 q22 34 60 52.5 q38 18.5 83 18.5 q37 0 64.5 -9 q27.5 -9 46.5 -24.5 q19 -15.5 28.5 -35.5 q9.5 -20 9.5 -42 l0 -8 q0 -33 -14.5 -62.5 q-14.5 -29.5 -49.5 -44.5 q45 -9 66 -36.5 q21 -27.5 21 -61.5 l0 -12 q0 -62 -43.5 -100.5 q-43.5 -38.5 -126.5 -38.5 q-88 0 -157 54 l41 66 q36 -27 61.5 -35.5 q25.5 -8.5 52.5 -8.5 q45 0 64 19 q19 19 19 44 l0 10 q0 12 -4 23 q-4 11 -13.5 19.5 q-9.5 8.5 -26.5 14 q-17 5.5 -44 5.5 l-56 0 l0 75 l55 0 q38 0 53 13.5 q15 13.5 15 43.5 l0 6 q0 53 -65 53 q-20 0 -41 -9.5 q-21 -9.5 -40 -33.5 l-59 45 Z" /><glyph glyph-name="" unicode="&#x215d;" d="M697 709 l85 0 l-523 -775 l-85 0 l523 775 ZM275 385 q0 30 -14.5 51.5 q-14.5 21.5 -55.5 21.5 q-26 0 -46.5 -10.5 q-20.5 -10.5 -32.5 -24.5 l-59 0 l15 272 l251 0 l0 -71 l-177 0 l-5 -116 q16 11 34.5 16.5 q18.5 5.5 44.5 5.5 q32 0 56.5 -11 q24.5 -11 41.5 -30.5 q17 -19.5 26 -45 q9 -25.5 9 -54.5 l0 -10 q0 -27 -9.5 -53.5 q-9.5 -26.5 -30 -48 q-20.5 -21.5 -51.5 -35 q-31 -13.5 -74 -13.5 q-47 0 -85.5 12.5 q-38.5 12.5 -72.5 39.5 l41 66 q33 -26 58.5 -34.5 q25.5 -8.5 57.5 -8.5 q38 0 58 21.5 q20 21.5 20 53.5 l0 6 ZM662 249 q0 -30 20 -45 q20 -15 45 -15 q26 0 45 15 q19 15 19 45 l0 6 q0 29 -17.5 45 q-17.5 16 -46.5 16 q-27 0 -46 -16 q-19 -16 -19 -45 l0 -6 ZM653 41 q0 -28 20 -44 q20 -16 56 -16 q33 0 52.5 16 q19.5 16 19.5 44 l0 8 q0 32 -21 48 q-21 16 -51 16 q-32 0 -54 -16 q-22 -16 -22 -48 l0 -8 ZM567 49 q0 38 22.5 66.5 q22.5 28.5 54.5 37.5 q-33 17 -48.5 45.5 q-15.5 28.5 -15.5 54.5 l0 8 q0 25 9.5 47.5 q9.5 22.5 28 39.5 q18.5 17 46 27 q27.5 10 63.5 10 q35 0 62.5 -10 q27.5 -10 46.5 -27 q19 -17 29 -39.5 q10 -22.5 10 -47.5 l0 -8 q0 -26 -15 -54 q-15 -28 -49 -46 q32 -9 54.5 -37.5 q22.5 -28.5 22.5 -66.5 l0 -12 q0 -55 -42.5 -91.5 q-42.5 -36.5 -118.5 -36.5 q-76 0 -118 36.5 q-42 36.5 -42 91.5 l0 12 Z" /><glyph glyph-name="" unicode="&#x215e;" d="M611 709 l85 0 l-523 -775 l-85 0 l523 775 ZM174 237 l-91 0 l181 384 l-234 0 l0 74 l324 0 l0 -68 l-180 -390 ZM577 249 q0 -30 20 -45 q20 -15 45 -15 q26 0 45 15 q19 15 19 45 l0 6 q0 29 -17.5 45 q-17.5 16 -46.5 16 q-27 0 -46 -16 q-19 -16 -19 -45 l0 -6 ZM568 41 q0 -28 20 -44 q20 -16 56 -16 q33 0 52.5 16 q19.5 16 19.5 44 l0 8 q0 32 -21 48 q-21 16 -51 16 q-32 0 -54 -16 q-22 -16 -22 -48 l0 -8 ZM482 49 q0 38 22.5 66.5 q22.5 28.5 54.5 37.5 q-33 17 -48.5 45.5 q-15.5 28.5 -15.5 54.5 l0 8 q0 25 9.5 47.5 q9.5 22.5 28 39.5 q18.5 17 46 27 q27.5 10 63.5 10 q35 0 62.5 -10 q27.5 -10 46.5 -27 q19 -17 29 -39.5 q10 -22.5 10 -47.5 l0 -8 q0 -26 -15 -54 q-15 -28 -49 -46 q32 -9 54.5 -37.5 q22.5 -28.5 22.5 -66.5 l0 -12 q0 -55 -42.5 -91.5 q-42.5 -36.5 -118.5 -36.5 q-76 0 -118 36.5 q-42 36.5 -42 91.5 l0 12 Z" /><glyph glyph-name="" unicode="&#x2160;" d="M504 695 l0 -721 l-99 0 l0 721 l99 0 Z" /><glyph glyph-name="" unicode="&#x2161;" d="M383 695 l0 -721 l-99 0 l0 721 l99 0 ZM626 695 l0 -721 l-99 0 l0 721 l99 0 Z" /><glyph glyph-name="" unicode="&#x2162;" d="M268 695 l0 -721 l-99 0 l0 721 l99 0 ZM505 695 l0 -721 l-99 0 l0 721 l99 0 ZM740 695 l0 -721 l-99 0 l0 721 l99 0 Z" /><glyph glyph-name="" unicode="&#x2163;" d="M423 695 l158 -596 l158 596 l101 0 l-213 -721 l-99 0 l-210 721 l105 0 ZM271 695 l0 -721 l-99 0 l0 721 l99 0 Z" /><glyph glyph-name="" unicode="&#x2164;" d="M246 695 l209 -596 l214 596 l102 0 l-272 -721 l-93 0 l-268 721 l108 0 Z" /><glyph glyph-name="" unicode="&#x2165;" d="M175 695 l158 -596 l158 596 l101 0 l-213 -721 l-99 0 l-210 721 l105 0 ZM738 695 l0 -721 l-99 0 l0 721 l99 0 Z" /><glyph glyph-name="" unicode="&#x2166;" d="M127 695 l144 -596 l140 596 l98 0 l-187 -721 l-104 0 l-192 721 l101 0 ZM640 695 l0 -721 l-92 0 l0 721 l92 0 ZM814 695 l0 -721 l-92 0 l0 721 l92 0 Z" /><glyph glyph-name="" unicode="&#x2167;" d="M130 695 l96 -596 l92 596 l94 0 l-135 -721 l-104 0 l-140 721 l97 0 ZM536 695 l0 -721 l-87 0 l0 721 l87 0 ZM693 695 l0 -721 l-87 0 l0 721 l87 0 ZM850 695 l0 -721 l-87 0 l0 721 l87 0 Z" /><glyph glyph-name="" unicode="&#x2168;" d="M647 345 l200 -371 l-114 0 l-152 308 l-147 -308 l-109 0 l196 377 l-181 344 l111 0 l139 -284 l136 284 l106 0 l-185 -350 ZM283 695 l0 -721 l-97 0 l0 721 l97 0 Z" /><glyph glyph-name="" unicode="&#x2169;" d="M519 346 l233 -372 l-117 0 l-183 309 l-183 -309 l-112 0 l233 376 l-218 345 l118 0 l170 -284 l169 284 l111 0 l-221 -349 Z" /><glyph glyph-name="" unicode="&#x2170;" d="M503 521 l0 -547 l-97 0 l0 547 l97 0 ZM506 717 l0 -106 l-103 0 l0 106 l103 0 Z" /><glyph glyph-name="" unicode="&#x2171;" d="M377 521 l0 -547 l-97 0 l0 547 l97 0 ZM380 717 l0 -106 l-103 0 l0 106 l103 0 ZM630 521 l0 -547 l-97 0 l0 547 l97 0 ZM633 717 l0 -106 l-103 0 l0 106 l103 0 Z" /><glyph glyph-name="" unicode="&#x2172;" d="M275 521 l0 -547 l-97 0 l0 547 l97 0 ZM278 717 l0 -106 l-103 0 l0 106 l103 0 ZM504 521 l0 -547 l-97 0 l0 547 l97 0 ZM507 717 l0 -106 l-103 0 l0 106 l103 0 ZM732 521 l0 -547 l-97 0 l0 547 l97 0 ZM735 717 l0 -106 l-103 0 l0 106 l103 0 Z" /><glyph glyph-name="" unicode="&#x2173;" d="M563 68 l108 453 l100 0 l-148 -547 l-124 0 l-150 547 l103 0 l109 -453 l2 0 ZM309 521 l0 -547 l-97 0 l0 547 l97 0 ZM312 717 l0 -106 l-103 0 l0 106 l103 0 Z" /><glyph glyph-name="" unicode="&#x2174;" d="M461 65 l143 456 l102 0 l-185 -547 l-124 0 l-187 547 l105 0 l144 -456 l2 0 Z" /><glyph glyph-name="" unicode="&#x2175;" d="M353 68 l108 453 l100 0 l-148 -547 l-124 0 l-150 547 l103 0 l109 -453 l2 0 ZM698 521 l0 -547 l-97 0 l0 547 l97 0 ZM701 717 l0 -106 l-103 0 l0 106 l103 0 Z" /><glyph glyph-name="" unicode="&#x2176;" d="M285 68 l102 453 l98 0 l-142 -547 l-120 0 l-145 547 l101 0 l104 -453 l2 0 ZM623 521 l0 -547 l-95 0 l0 547 l95 0 ZM626 717 l0 -106 l-101 0 l0 106 l101 0 ZM805 521 l0 -547 l-95 0 l0 547 l95 0 ZM808 717 l0 -106 l-101 0 l0 106 l101 0 Z" /><glyph glyph-name="" unicode="&#x2177;" d="M243 78 l94 443 l96 0 l-136 -547 l-112 0 l-139 547 l99 0 l96 -443 l2 0 ZM553 521 l0 -547 l-89 0 l0 547 l89 0 ZM556 717 l0 -106 l-95 0 l0 106 l95 0 ZM705 521 l0 -547 l-89 0 l0 547 l89 0 ZM708 717 l0 -106 l-95 0 l0 106 l95 0 ZM857 521 l0 -547 l-89 0 l0 547 l89 0 ZM860 717 l0 -106 l-95 0 l0 106 l95 0 Z" /><glyph glyph-name="" unicode="&#x2178;" d="M638 258 l160 -284 l-108 0 l-117 220 l-115 -220 l-105 0 l163 284 l-154 263 l108 0 l111 -202 l108 202 l102 0 l-153 -263 ZM309 521 l0 -547 l-97 0 l0 547 l97 0 ZM312 717 l0 -106 l-103 0 l0 106 l103 0 Z" /><glyph glyph-name="" unicode="&#x2179;" d="M517 258 l180 -284 l-117 0 l-127 220 l-130 -220 l-111 0 l183 284 l-174 263 l117 0 l121 -202 l123 202 l108 0 l-173 -263 Z" /><glyph glyph-name="" unicode="&#x2190;" d="M805 314 l-553 0 l75 -126 l-15 -17 l-208 173 l208 173 l15 -17 l-75 -127 l553 0 l0 -59 Z" /><glyph glyph-name="" unicode="&#x2191;" d="M426 0 l0 553 l-127 -75 l-17 15 l173 208 l173 -208 l-17 -15 l-127 75 l0 -553 l-58 0 Z" /><glyph glyph-name="" unicode="&#x2192;" d="M104 373 l553 0 l-75 127 l15 17 l208 -173 l-208 -173 l-15 17 l75 126 l-553 0 l0 59 Z" /><glyph glyph-name="" unicode="&#x2193;" d="M484 687 l0 -552 l127 74 l17 -15 l-173 -208 l-173 208 l17 15 l127 -74 l0 552 l58 0 Z" /><glyph glyph-name="" unicode="&#x2194;" d="M282 188 l-15 -17 l-208 173 l208 173 l15 -17 l-75 -127 l496 0 l-75 127 l15 17 l208 -173 l-208 -173 l-15 17 l75 126 l-496 0 l75 -126 Z" /><glyph glyph-name="" unicode="&#x2195;" d="M484 553 l0 -418 l127 74 l17 -15 l-173 -208 l-173 208 l17 15 l127 -74 l0 418 l-127 -75 l-17 15 l173 208 l173 -208 l-17 -15 l-127 75 Z" /><glyph glyph-name="" unicode="&#x2196;" d="M767 -11 l-582 581 l-36 -142 l-23 -1 l-25 269 l269 -25 l-1 -23 l-142 -36 l581 -581 l-41 -42 Z" /><glyph glyph-name="" unicode="&#x2197;" d="M101 31 l581 581 l-142 36 l-1 23 l269 25 l-25 -269 l-23 1 l-36 142 l-582 -581 l-41 42 Z" /><glyph glyph-name="" unicode="&#x2198;" d="M142 698 l582 -581 l37 142 l23 2 l25 -270 l-270 25 l2 23 l142 37 l-582 581 l41 41 Z" /><glyph glyph-name="" unicode="&#x2199;" d="M809 657 l-582 -581 l142 -37 l2 -23 l-270 -25 l25 270 l23 -2 l37 -142 l582 581 l41 -41 Z" /><glyph glyph-name="" unicode="&#x21b0;" d="" /><glyph glyph-name="" unicode="&#x21b1;" d="" /><glyph glyph-name="" unicode="&#x21b2;" d="" /><glyph glyph-name="" unicode="&#x21b3;" d="" /><glyph glyph-name="" unicode="&#x21b4;" d="" /><glyph glyph-name="" unicode="&#x21bc;" d="" /><glyph glyph-name="" unicode="&#x21c0;" d="" /><glyph glyph-name="" unicode="&#x21c4;" d="" /><glyph glyph-name="" unicode="&#x21c5;" d="" /><glyph glyph-name="" unicode="&#x21cd;" d="" /><glyph glyph-name="" unicode="&#x21cf;" d="" /><glyph glyph-name="" unicode="&#x21d0;" d="" /><glyph glyph-name="" unicode="&#x2963;&#x21d1;" d="" /><glyph glyph-name="" unicode="&#x21d2;" d="M910 299 l-264 -266 l-38 38 l112 111 l-720 0 l0 52 l771 0 l66 65 l-66 66 l-771 0 l0 52 l719 0 l-111 110 l38 37 l264 -265 Z" /><glyph glyph-name="" unicode="&#x2965;&#x21d3;" d="" /><glyph glyph-name="" unicode="&#x21d4;" d="M838 299 l-66 66 l-634 0 l-66 -66 l66 -65 l634 0 l66 65 ZM911 299 l-264 -266 l-38 38 l112 111 l-532 0 l112 -111 l-38 -38 l-264 266 l264 265 l38 -37 l-111 -110 l530 0 l-111 110 l38 37 l264 -265 Z" /><glyph glyph-name="" unicode="&#x21e0;" d="" /><glyph glyph-name="" unicode="&#x21e1;" d="" /><glyph glyph-name="" unicode="&#x21e2;" d="" /><glyph glyph-name="" unicode="&#x21e3;" d="" /><glyph glyph-name="" unicode="&#x21e6;" d="" /><glyph glyph-name="" unicode="&#x21e7;" d="" /><glyph glyph-name="" unicode="&#x21e8;" d="" /><glyph glyph-name="" unicode="&#x21e9;" d="" /><glyph glyph-name="" unicode="&#x2200;" d="M138 695 l104 0 l76 -212 l276 0 l76 212 l101 0 l-268 -721 l-96 0 l-269 721 ZM564 398 l-216 0 l60 -169 q8 -23 14 -39 q6 -16 11 -31.5 q5 -15.5 10 -32.5 q5 -17 13 -42 q7 25 12.5 42.5 q5.5 17.5 10.5 32.5 q5 15 10.5 31 q5.5 16 13.5 39 l61 169 Z" /><glyph glyph-name="" unicode="&#x2202;" d="M234 63 q33 0 61 17.5 q28 17.5 49 47 q21 29.5 35 68 q14 38.5 19 80.5 q-7 18 -19.5 35.5 q-12.5 17.5 -30.5 30.5 q-18 13 -40.5 21 q-22.5 8 -48.5 8 q-29 0 -55 -13 q-26 -13 -45.5 -35.5 q-19.5 -22.5 -30.5 -54 q-11 -31.5 -11 -67.5 q0 -65 33 -101.5 q33 -36.5 84 -36.5 ZM57 673 q26 17 68.5 35.5 q42.5 18.5 105.5 18.5 q52 0 100.5 -23.5 q48.5 -23.5 85 -68.5 q36.5 -45 58.5 -111 q22 -66 22 -152 q0 -95 -22.5 -167 q-22.5 -72 -60 -120 q-37.5 -48 -86.5 -72 q-49 -24 -103 -24 q-51 0 -88.5 18 q-37.5 18 -62.5 47.5 q-25 29.5 -37 67 q-12 37.5 -12 77.5 q0 51 17 95.5 q17 44.5 46 78 q29 33.5 69 52.5 q40 19 87 19 q31 0 57.5 -8 q26.5 -8 47 -21 q20.5 -13 35.5 -28 q15 -15 23 -30 l1 0 q1 8 1 16 q0 8 0 16 q0 65 -15.5 114 q-15.5 49 -41.5 82 q-26 33 -59.5 49.5 q-33.5 16.5 -68.5 16.5 q-48 0 -81.5 -13 q-33.5 -13 -56.5 -27 l-29 62 Z" /><glyph glyph-name="" unicode="&#x2203;" d="M683 695 l0 -721 l-456 0 l0 85 l357 0 l0 242 l-329 0 l0 85 l329 0 l0 224 l-350 0 l0 85 l449 0 Z" /><glyph glyph-name="" unicode="&#x2206;" d="" /><glyph glyph-name="" unicode="&#x2207;" d="M849 599 l-394 -624 l-394 624 l788 0 ZM737 540 l-565 0 l283 -453 l282 453 Z" /><glyph glyph-name="" unicode="&#x2208;" d="M795 282 l-602 0 q5 -31 19 -57 q14 -26 38.5 -45 q24.5 -19 60 -29.5 q35.5 -10.5 84.5 -10.5 l402 0 l0 -73 l-398 0 q-74 0 -128.5 20 q-54.5 20 -89.5 54 q-35 34 -52 80 q-17 46 -17 98 q0 49 16 92.5 q16 43.5 50.5 76 q34.5 32.5 88 51.5 q53.5 19 128.5 19 l402 0 l0 -73 l-402 0 q-48 0 -83.5 -10 q-35.5 -10 -60 -28 q-24.5 -18 -38.5 -41.5 q-14 -23.5 -19 -50.5 l601 0 l0 -73 Z" /><glyph glyph-name="" unicode="&#x2209;" d="" /><glyph glyph-name="" unicode="&#x220b;" d="M114 355 l600 0 q-6 27 -20 50.5 q-14 23.5 -38 41 q-24 17.5 -58.5 27.5 q-34.5 10 -82.5 10 l-403 0 l0 74 l403 0 q75 0 128 -19 q53 -19 87.5 -51.5 q34.5 -32.5 50.5 -76 q16 -43.5 16 -92.5 q0 -52 -17 -97.5 q-17 -45.5 -52.5 -80 q-35.5 -34.5 -89.5 -54.5 q-54 -20 -128 -20 l-398 0 l0 74 l403 0 q96 0 143.5 39.5 q47.5 39.5 56.5 101.5 l-601 0 l0 73 Z" /><glyph glyph-name="" unicode="&#x220c;" d="" /><glyph glyph-name="" unicode="&#x220f;" d="M509 610 l0 -652 l-99 0 l0 652 l-167 0 l0 -652 l-99 0 l0 652 l-120 0 l0 85 l605 0 l0 -85 l-120 0 Z" /><glyph glyph-name="" unicode="&#x2211;" d="M524 695 l0 -85 l-330 0 l201 -278 l-204 -273 l340 0 l0 -85 l-461 0 l0 70 l213 287 l-213 297 l0 67 l454 0 Z" /><glyph glyph-name="" unicode="&#x2213;" d="" /><glyph glyph-name="" unicode="&#x221a;" d="M350 -122 l-66 0 l-159 427 l-75 -31 l-19 48 l140 58 l141 -407 l2 0 l198 827 l68 0 l-230 -922 Z" /><glyph glyph-name="" unicode="&#x221d;" d="M301 194 q30 0 54 11 q24 11 43 28.5 q19 17.5 33.5 39 q14.5 21.5 25.5 42.5 q-11 20 -26 41.5 q-15 21.5 -34 39.5 q-19 18 -42.5 29.5 q-23.5 11.5 -53.5 11.5 q-54 0 -86 -34 q-32 -34 -32 -87 q0 -56 30.5 -89 q30.5 -33 87.5 -33 ZM761 407 q-20 14 -41 23 q-21 9 -41 9 q-52 0 -87 -33 q-35 -33 -67 -91 q31 -59 66.5 -91.5 q35.5 -32.5 87.5 -32.5 q17 0 37 6 q20 6 39 16 l27 -56 q-53 -31 -103 -31 q-32 0 -60 10.5 q-28 10.5 -51.5 27.5 q-23.5 17 -43 40 q-19.5 23 -34.5 47 q-14 -22 -31 -44 q-17 -22 -40 -40 q-23 -18 -53 -29 q-30 -11 -68 -11 q-34 0 -67 12 q-33 12 -59 35.5 q-26 23.5 -42 59 q-16 35.5 -16 82.5 q0 45 15.5 80 q15.5 35 41.5 58.5 q26 23.5 58.5 36 q32.5 12.5 67.5 12.5 q38 0 68 -11 q30 -11 53 -29 q23 -18 40.5 -40.5 q17.5 -22.5 31.5 -44.5 q15 25 34 47.5 q19 22.5 42.5 39.5 q23.5 17 51.5 27.5 q28 10.5 61 10.5 q29 0 58.5 -11.5 q29.5 -11.5 57.5 -31.5 l-34 -53 Z" /><glyph glyph-name="" unicode="&#x221e;" d="M154 222 q19 0 34 7 q15 7 28 18.5 q13 11.5 25 25.5 q12 14 27 29 q-11 12 -22 26 q-11 14 -24.5 26.5 q-13.5 12.5 -29.5 20.5 q-16 8 -36 8 q-38 0 -58.5 -22 q-20.5 -22 -20.5 -59 q0 -36 20.5 -58 q20.5 -22 56.5 -22 ZM458 222 q35 0 55.5 22 q20.5 22 20.5 58 q0 39 -19.5 60 q-19.5 21 -57.5 21 q-15 0 -28.5 -6.5 q-13.5 -6.5 -26 -17.5 q-12.5 -11 -24.5 -25.5 q-12 -14.5 -25 -30.5 q12 -14 24.5 -28 q12.5 -14 25.5 -26 q13 -12 26.5 -19.5 q13.5 -7.5 28.5 -7.5 ZM454 158 q-25 0 -45 9 q-20 9 -37.5 23 q-17.5 14 -32.5 32 q-15 18 -29 36 q-17 -21 -33.5 -39.5 q-16.5 -18.5 -35 -32 q-18.5 -13.5 -41.5 -21 q-23 -7.5 -51 -7.5 q-65 0 -102.5 38 q-37.5 38 -37.5 106 q0 31 10.5 57.5 q10.5 26.5 29.5 45.5 q19 19 46.5 30 q27.5 11 61.5 11 q29 0 50.5 -7.5 q21.5 -7.5 39 -21 q17.5 -13.5 33 -31.5 q15.5 -18 32.5 -38 q16 17 30.5 34.5 q14.5 17.5 31 31.5 q16.5 14 37.5 23 q21 9 51 9 q64 0 101.5 -38 q37.5 -38 37.5 -106 q0 -31 -10 -57 q-10 -26 -29 -45.5 q-19 -19.5 -46.5 -30.5 q-27.5 -11 -61.5 -11 Z" /><glyph glyph-name="" unicode="&#x221f;" d="" /><glyph glyph-name="" unicode="&#x2220;" d="M760 0 l-611 0 l0 49 l471 549 l56 -47 l-417 -481 l501 0 l0 -70 Z" /><glyph glyph-name="" unicode="&#x2222;" d="" /><glyph glyph-name="" unicode="&#x2225;" d="" /><glyph glyph-name="" unicode="&#x2226;" d="" /><glyph glyph-name="" unicode="&#x2227;" d="M776 23 l-57 -28 l-264 510 l-265 -510 l-57 28 l294 568 l55 0 l294 -568 Z" /><glyph glyph-name="" unicode="&#x2228;" d="M776 571 l-294 -568 l-55 0 l-294 568 l57 28 l265 -511 l264 511 l57 -28 Z" /><glyph glyph-name="" unicode="&#x2229;" d="M455 636 q52 0 97 -17 q45 -17 78 -52.5 q33 -35.5 51.5 -89.5 q18.5 -54 18.5 -128 l0 -398 l-78 0 l0 403 q0 55 -12.5 94.5 q-12.5 39.5 -34.5 65 q-22 25.5 -52.5 38 q-30.5 12.5 -67.5 12.5 q-37 0 -68 -12.5 q-31 -12.5 -53 -38 q-22 -25.5 -34.5 -65 q-12.5 -39.5 -12.5 -94.5 l0 -403 l-78 0 l0 398 q0 74 18.5 128 q18.5 54 51.5 89.5 q33 35.5 78 52.5 q45 17 98 17 Z" /><glyph glyph-name="" unicode="&#x222a;" d="M286 636 l0 -403 q0 -56 13.5 -95.5 q13.5 -39.5 36 -64 q22.5 -24.5 52.5 -36 q30 -11.5 63 -11.5 q37 0 68.5 12 q31.5 12 54.5 37 q23 25 36 64 q13 39 13 94 l0 403 l78 0 l0 -398 q0 -74 -20 -128.5 q-20 -54.5 -54.5 -89.5 q-34.5 -35 -80.5 -52 q-46 -17 -98 -17 q-49 0 -92.5 16 q-43.5 16 -76.5 50.5 q-33 34.5 -52 87.5 q-19 53 -19 128 l0 403 l78 0 Z" /><glyph glyph-name="" unicode="&#x222b;" d="M297 715 q-7 2 -15 3 q-8 1 -16 1 q-13 0 -25.5 -5.5 q-12.5 -5.5 -20.5 -16.5 q-14 -19 -20.5 -54.5 q-6.5 -35.5 -6.5 -101.5 q0 -55 2 -113.5 q2 -58.5 4 -118.5 q2 -60 4 -120 q2 -60 2 -117 q0 -73 -12.5 -118.5 q-12.5 -45.5 -30.5 -69.5 q-17 -25 -42.5 -37.5 q-25.5 -12.5 -54.5 -12.5 q-17 0 -32.5 3 q-15.5 3 -22.5 8 l11 59 q8 -2 16.5 -3.5 q8.5 -1.5 19.5 -1.5 q26 0 45 20 q12 16 20.5 49 q8.5 33 8.5 104 q0 57 -2 118 q-2 61 -4 122 q-2 61 -4 120.5 q-2 59.5 -2 114.5 q0 76 13 122 q13 46 41 75 q17 20 40.5 28.5 q23.5 8.5 49.5 8.5 q29 0 45 -7 l-11 -59 Z" /><glyph glyph-name="" unicode="&#x222c;" d="M525 715 q-7 2 -14.5 3 q-7.5 1 -15.5 1 q-14 0 -26 -5.5 q-12 -5.5 -20 -16.5 q-15 -19 -21.5 -54.5 q-6.5 -35.5 -6.5 -101.5 q0 -55 2 -113.5 q2 -58.5 4 -118.5 q2 -60 4 -120 q2 -60 2 -117 q0 -73 -12 -118.5 q-12 -45.5 -31 -69.5 q-17 -25 -42.5 -37.5 q-25.5 -12.5 -54.5 -12.5 q-17 0 -32 3 q-15 3 -23 8 l12 59 q7 -2 16 -3.5 q9 -1.5 20 -1.5 q12 0 23.5 4.5 q11.5 4.5 20.5 15.5 q13 16 21.5 49 q8.5 33 8.5 104 q0 57 -2 118 q-2 61 -4.5 122 q-2.5 61 -4.5 120.5 q-2 59.5 -2 114.5 q0 76 13.5 122 q13.5 46 40.5 75 q18 20 41 28.5 q23 8.5 49 8.5 q14 0 26 -2 q12 -2 20 -5 l-12 -59 ZM297 715 q-7 2 -15 3 q-8 1 -16 1 q-13 0 -25.5 -5.5 q-12.5 -5.5 -20.5 -16.5 q-14 -19 -20.5 -54.5 q-6.5 -35.5 -6.5 -101.5 q0 -55 2 -113.5 q2 -58.5 4 -118.5 q2 -60 4 -120 q2 -60 2 -117 q0 -73 -12.5 -118.5 q-12.5 -45.5 -30.5 -69.5 q-17 -25 -42.5 -37.5 q-25.5 -12.5 -54.5 -12.5 q-17 0 -32.5 3 q-15.5 3 -22.5 8 l11 59 q8 -2 16.5 -3.5 q8.5 -1.5 19.5 -1.5 q26 0 45 20 q12 16 20.5 49 q8.5 33 8.5 104 q0 57 -2 118 q-2 61 -4 122 q-2 61 -4 120.5 q-2 59.5 -2 114.5 q0 76 13 122 q13 46 41 75 q17 20 40.5 28.5 q23.5 8.5 49.5 8.5 q29 0 45 -7 l-11 -59 Z" /><glyph glyph-name="" unicode="&#x222e;" d="M430 410 q-32 -12 -53 -40.5 q-21 -28.5 -25 -70.5 q-4 -44 14 -73.5 q18 -29.5 52 -39.5 q4 52 6 114 q1 57 6 110 ZM566 299 q4 42 -16.5 74.5 q-20.5 32.5 -59.5 40.5 q-5 -53 -6 -114 q-1 -31 -2.5 -59.5 q-1.5 -28.5 -4.5 -55.5 q37 9 61 39 q24 30 28 75 ZM617 628 q-8 19 -20.5 29.5 q-12.5 10.5 -29.5 10.5 q-22 0 -42 -58.5 q-20 -58.5 -32 -165.5 q27 -3 50 -14 q23 -11 40 -29 q17 -18 26 -43.5 q9 -25.5 6 -58.5 q-3 -32 -15.5 -57 q-12.5 -25 -31.5 -43 q-19 -18 -43.5 -29 q-24.5 -11 -50.5 -15 q-14 -110 -43 -181 q-16 -38 -39.5 -62 q-23.5 -24 -53.5 -24 q-61 0 -92 59 l44 26 q9 -19 21.5 -30 q12.5 -11 29.5 -11 q22 0 42.5 58 q20.5 58 31.5 166 q-25 4 -46.5 15 q-21.5 11 -37 29 q-15.5 18 -23.5 43 q-8 25 -5 56 q3 30 14.5 54 q11.5 24 29 42 q17.5 18 40 29.5 q22.5 11.5 46.5 16.5 q14 112 44 185 q16 38 39.5 62 q23.5 24 53.5 24 q62 0 94 -63 l-47 -21 Z" /><glyph glyph-name="" unicode="&#x2234;" d="M188 133 q0 -28 -19.5 -47.5 q-19.5 -19.5 -47.5 -19.5 q-27 0 -47 19.5 q-20 19.5 -20 47.5 q0 26 20 46 q20 20 47 20 q28 0 47.5 -20 q19.5 -20 19.5 -46 ZM556 133 q0 -28 -20.5 -47.5 q-20.5 -19.5 -46.5 -19.5 q-29 0 -48 19.5 q-19 19.5 -19 47.5 q0 26 19 46 q19 20 48 20 q26 0 46.5 -20 q20.5 -20 20.5 -46 ZM366 505 q0 -27 -19.5 -47.5 q-19.5 -20.5 -46.5 -20.5 q-27 0 -47.5 20.5 q-20.5 20.5 -20.5 47.5 q0 27 20.5 46.5 q20.5 19.5 47.5 19.5 q27 0 46.5 -19.5 q19.5 -19.5 19.5 -46.5 Z" /><glyph glyph-name="" unicode="&#x2235;" d="M408 506 q0 26 20 45.5 q20 19.5 46 19.5 q29 0 47 -19.5 q18 -19.5 18 -45.5 q0 -27 -18 -46 q-18 -19 -47 -19 q-26 0 -46 19 q-20 19 -20 46 ZM44 506 q0 26 19.5 45.5 q19.5 19.5 45.5 19.5 q29 0 47.5 -19.5 q18.5 -19.5 18.5 -45.5 q0 -27 -18.5 -46 q-18.5 -19 -47.5 -19 q-26 0 -45.5 19 q-19.5 19 -19.5 46 ZM227 126 q0 29 19 47.5 q19 18.5 46 18.5 q28 0 47 -18.5 q19 -18.5 19 -47.5 q0 -26 -19 -45.5 q-19 -19.5 -47 -19.5 q-27 0 -46 19.5 q-19 19.5 -19 45.5 Z" /><glyph glyph-name="" unicode="&#x2237;" d="" /><glyph glyph-name="" unicode="&#x301c;&#xff5e;&#x223c;" d="M742 339 q-11 -18 -28 -35 q-17 -17 -37 -30 q-20 -13 -42 -21 q-22 -8 -44 -8 q-43 0 -73.5 9 q-30.5 9 -62.5 26 q-26 14 -61 27.5 q-35 13.5 -75 13.5 q-37 0 -64 -17.5 q-27 -17.5 -46 -45.5 l-41 27 q11 18 28 35 q17 17 37 30 q20 13 42 21 q22 8 44 8 q43 0 73.5 -9 q30.5 -9 62.5 -26 q32 -17 64 -29 q32 -12 72 -12 q37 0 64 17.5 q27 17.5 46 45.5 l41 -27 Z" /><glyph glyph-name="" unicode="&#x223d;" d="M829 316 q0 -38 -13.5 -72.5 q-13.5 -34.5 -38 -60.5 q-24.5 -26 -58 -41.5 q-33.5 -15.5 -73.5 -15.5 q-32 0 -62.5 11.5 q-30.5 11.5 -59.5 33.5 l32 52 q44 -32 90 -32 q25 0 46.5 9.5 q21.5 9.5 37 26.5 q15.5 17 24 39.5 q8.5 22.5 8.5 49.5 q0 23 -8.5 45 q-8.5 22 -23.5 39.5 q-15 17.5 -36 28 q-21 10.5 -47 10.5 q-54 0 -90 -34.5 q-36 -34.5 -70 -98.5 q-12 -23 -29.5 -54 q-17.5 -31 -44 -58.5 q-26.5 -27.5 -63.5 -47 q-37 -19.5 -88 -19.5 q-34 0 -66.5 12 q-32.5 12 -58 35.5 q-25.5 23.5 -41 59 q-15.5 35.5 -15.5 82.5 q0 45 15 80 q15 35 40.5 58.5 q25.5 23.5 57.5 36 q32 12.5 67 12.5 q35 0 66 -12 q31 -12 59 -30 l-33 -53 q-21 13 -42.5 21 q-21.5 8 -42.5 8 q-54 0 -86.5 -33.5 q-32.5 -33.5 -32.5 -87.5 q0 -55 30.5 -88.5 q30.5 -33.5 87.5 -33.5 q36 0 63.5 16.5 q27.5 16.5 48.5 40 q21 23.5 36 50.5 q15 27 26 48 q15 30 34.5 58 q19.5 28 44.5 49 q25 21 56 34 q31 13 69 13 q40 0 74 -15.5 q34 -15.5 58.5 -41.5 q24.5 -26 38 -59.5 q13.5 -33.5 13.5 -70.5 Z" /><glyph glyph-name="" unicode="&#x2243;" d="" /><glyph glyph-name="" unicode="&#x2245;" d="" /><glyph glyph-name="" unicode="&#x2248;" d="" /><glyph glyph-name="" unicode="&#x2250;" d="" /><glyph glyph-name="" unicode="&#x2251;" d="" /><glyph glyph-name="" unicode="&#x2252;" d="M372 86 q0 26 18.5 44.5 q18.5 18.5 44.5 18.5 q26 0 44 -18.5 q18 -18.5 18 -44.5 q0 -26 -18 -44.5 q-18 -18.5 -44 -18.5 q-26 0 -44.5 18.5 q-18.5 18.5 -18.5 44.5 ZM110 538 q0 26 18.5 44.5 q18.5 18.5 43.5 18.5 q26 0 44.5 -18.5 q18.5 -18.5 18.5 -44.5 q0 -26 -18.5 -44 q-18.5 -18 -44.5 -18 q-25 0 -43.5 18 q-18.5 18 -18.5 44 ZM45 425 l519 0 l0 -62 l-519 0 l0 62 ZM45 264 l519 0 l0 -63 l-519 0 l0 63 Z" /><glyph glyph-name="" unicode="&#x2253;" d="" /><glyph glyph-name="" unicode="&#x225a;" d="" /><glyph glyph-name="" unicode="&#x2260;" d="M74 468 l281 0 l81 124 l80 0 l-81 -124 l101 0 l0 -85 l-157 0 l-82 -126 l239 0 l0 -85 l-295 0 l-79 -122 l-80 0 l79 122 l-87 0 l0 85 l143 0 l82 126 l-225 0 l0 85 Z" /><glyph glyph-name="" unicode="&#x2261;" d="M45 284 l0 62 l519 0 l0 -62 l-519 0 ZM45 435 l0 61 l519 0 l0 -61 l-519 0 ZM45 133 l0 61 l519 0 l0 -61 l-519 0 Z" /><glyph glyph-name="" unicode="&#x2262;" d="" /><glyph glyph-name="" unicode="&#x2264;" d="M541 151 l-475 209 l0 85 l475 208 l0 -91 l-371 -158 l0 -1 l371 -159 l0 -93 ZM69 38 l0 81 l472 0 l0 -81 l-472 0 Z" /><glyph glyph-name="" unicode="&#x2265;" d="M66 244 l371 159 l0 1 l-371 158 l0 91 l475 -208 l0 -85 l-475 -209 l0 93 ZM66 38 l0 81 l472 0 l0 -81 l-472 0 Z" /><glyph glyph-name="" unicode="&#x2266;" d="" /><glyph glyph-name="" unicode="&#x2267;" d="" /><glyph glyph-name="" unicode="&#x226e;" d="" /><glyph glyph-name="" unicode="&#x226f;" d="" /><glyph glyph-name="" unicode="&#x2270;" d="" /><glyph glyph-name="" unicode="&#x2271;" d="" /><glyph glyph-name="" unicode="&#x2272;" d="" /><glyph glyph-name="" unicode="&#x2273;" d="" /><glyph glyph-name="" unicode="&#x2276;" d="" /><glyph glyph-name="" unicode="&#x2277;" d="" /><glyph glyph-name="" unicode="&#x2279;" d="" /><glyph glyph-name="" unicode="&#x227a;" d="" /><glyph glyph-name="" unicode="&#x227b;" d="" /><glyph glyph-name="" unicode="&#x2280;" d="" /><glyph glyph-name="" unicode="&#x2281;" d="" /><glyph glyph-name="" unicode="&#x2282;" d="M797 481 l-402 0 q-56 0 -95 -13.5 q-39 -13.5 -63 -36 q-24 -22.5 -35 -52.5 q-11 -30 -11 -63 q0 -37 11 -68.5 q11 -31.5 35.5 -54.5 q24.5 -23 63.5 -36 q39 -13 94 -13 l402 0 l0 -74 l-398 0 q-74 0 -128.5 19.5 q-54.5 19.5 -89.5 53 q-35 33.5 -52 79 q-17 45.5 -17 97.5 q0 49 16 92 q16 43 50.5 75 q34.5 32 88 50.5 q53.5 18.5 128.5 18.5 l402 0 l0 -74 Z" /><glyph glyph-name="" unicode="&#x2283;" d="M112 555 l403 0 q75 0 128 -18.5 q53 -18.5 87.5 -50.5 q34.5 -32 50.5 -75 q16 -43 16 -92 q0 -52 -17 -97.5 q-17 -45.5 -52.5 -79 q-35.5 -33.5 -89.5 -53 q-54 -19.5 -128 -19.5 l-398 0 l0 74 l403 0 q55 0 93.5 13 q38.5 13 63 36 q24.5 23 35.5 54.5 q11 31.5 11 68.5 q0 33 -10.5 63 q-10.5 30 -34.5 52.5 q-24 22.5 -63 36 q-39 13.5 -95 13.5 l-403 0 l0 74 Z" /><glyph glyph-name="" unicode="&#x2284;" d="" /><glyph glyph-name="" unicode="&#x2285;" d="" /><glyph glyph-name="" unicode="&#x2286;" d="M795 -11 l-647 0 l0 74 l647 0 l0 -74 ZM797 537 l-402 0 q-56 0 -95 -12 q-39 -12 -63 -32.5 q-24 -20.5 -35 -48.5 q-11 -28 -11 -60 q0 -35 11 -64.5 q11 -29.5 35.5 -50.5 q24.5 -21 63.5 -33 q39 -12 94 -12 l402 0 l0 -74 l-398 0 q-74 0 -128.5 18 q-54.5 18 -89.5 50 q-35 32 -52 75.5 q-17 43.5 -17 93.5 q0 47 16 88 q16 41 50.5 71 q34.5 30 88 47.5 q53.5 17.5 128.5 17.5 l402 0 l0 -74 Z" /><glyph glyph-name="" unicode="&#x2287;" d="M112 611 l403 0 q75 0 128 -17.5 q53 -17.5 87.5 -47.5 q34.5 -30 50.5 -71 q16 -41 16 -88 q0 -50 -17 -93.5 q-17 -43.5 -52.5 -75.5 q-35.5 -32 -89.5 -50 q-54 -18 -128 -18 l-398 0 l0 74 l403 0 q55 0 93.5 12 q38.5 12 63 33 q24.5 21 35.5 50.5 q11 29.5 11 64.5 q0 32 -10.5 60 q-10.5 28 -34.5 48.5 q-24 20.5 -63 32.5 q-39 12 -95 12 l-403 0 l0 74 ZM114 63 l647 0 l0 -74 l-647 0 l0 74 Z" /><glyph glyph-name="" unicode="&#x2acb;&#x228a;" d="" /><glyph glyph-name="" unicode="&#x2acc;&#x228b;" d="" /><glyph glyph-name="" unicode="&#x2295;" d="" /><glyph glyph-name="" unicode="&#x2296;" d="" /><glyph glyph-name="" unicode="&#x2297;" d="" /><glyph glyph-name="" unicode="&#x2299;&#x25c9;" d="M849 299 q0 -82 -31 -153.5 q-31 -71.5 -84.5 -125 q-53.5 -53.5 -125 -84.5 q-71.5 -31 -153.5 -31 q-81 0 -152.5 31 q-71.5 31 -125 84.5 q-53.5 53.5 -85 125 q-31.5 71.5 -31.5 153.5 q0 82 31.5 153.5 q31.5 71.5 85 125 q53.5 53.5 125 84.5 q71.5 31 152.5 31 q82 0 153.5 -31 q71.5 -31 125 -84.5 q53.5 -53.5 84.5 -125 q31 -71.5 31 -153.5 ZM793 299 q0 69 -27 130.5 q-27 61.5 -73 107.5 q-46 46 -107.5 73 q-61.5 27 -130.5 27 q-70 0 -131.5 -27 q-61.5 -27 -107.5 -73 q-46 -46 -72.5 -107.5 q-26.5 -61.5 -26.5 -130.5 q0 -70 26.5 -131.5 q26.5 -61.5 72.5 -107.5 q46 -46 107.5 -72.5 q61.5 -26.5 131.5 -26.5 q69 0 130.5 26.5 q61.5 26.5 107.5 72.5 q46 46 73 107.5 q27 61.5 27 131.5 ZM610 299 q0 -32 -12 -60.5 q-12 -28.5 -33 -49.5 q-21 -21 -49.5 -33 q-28.5 -12 -60.5 -12 q-32 0 -60 12 q-28 12 -49 33 q-21 21 -33.5 49.5 q-12.5 28.5 -12.5 60.5 q0 32 12.5 60.5 q12.5 28.5 33.5 49.5 q21 21 49 33 q28 12 60 12 q32 0 60.5 -12 q28.5 -12 49.5 -33 q21 -21 33 -49.5 q12 -28.5 12 -60.5 Z" /><glyph glyph-name="" unicode="&#x22a3;" d="" /><glyph glyph-name="" unicode="&#x22a4;" d="" /><glyph glyph-name="" unicode="&#x22a5;" d="M774 0 l-638 0 l0 71 l282 0 l0 504 l73 0 l0 -504 l283 0 l0 -71 Z" /><glyph glyph-name="" unicode="&#x22bb;" d="" /><glyph glyph-name="" unicode="&#x22bc;" d="" /><glyph glyph-name="" unicode="&#x22ce;" d="" /><glyph glyph-name="" unicode="&#x22cf;" d="" /><glyph glyph-name="" unicode="&#x22da;" d="" /><glyph glyph-name="" unicode="&#x22db;" d="" /><glyph glyph-name="" unicode="&#x22ee;" d="" /><glyph glyph-name="" unicode="&#x2306;" d="" /><glyph glyph-name="" unicode="&#x2312;" d="M646 574 q-25 46 -72 78 q-47 32 -118 32 q-72 0 -119.5 -32 q-47.5 -32 -73.5 -78 l-72 0 q38 72 102 117 q64 45 161 45 q98 0 161.5 -45 q63.5 -45 102.5 -117 l-72 0 Z" /><glyph glyph-name="" unicode="&#x2314;" d="" /><glyph glyph-name="" unicode="&#x2460;" d="M432 41 l0 429 l-120 -70 l-42 69 l174 99 l74 0 l0 -527 l-86 0 ZM828 306 q0 82 -28 151 q-28 69 -77.5 119 q-49.5 50 -118 78.5 q-68.5 28.5 -149.5 28.5 q-81 0 -149.5 -28.5 q-68.5 -28.5 -118 -78.5 q-49.5 -50 -77.5 -119 q-28 -69 -28 -151 q0 -82 28 -151 q28 -69 77.5 -119.5 q49.5 -50.5 118 -78.5 q68.5 -28 149.5 -28 q81 0 149.5 28 q68.5 28 118 78.5 q49.5 50.5 77.5 119.5 q28 69 28 151 ZM892 306 q0 -95 -33 -175 q-33 -80 -91.5 -138.5 q-58.5 -58.5 -138.5 -91.5 q-80 -33 -174 -33 q-95 0 -175 33 q-80 33 -138.5 91.5 q-58.5 58.5 -91 138.5 q-32.5 80 -32.5 175 q0 94 32.5 174.5 q32.5 80.5 91 139 q58.5 58.5 138.5 91.5 q80 33 175 33 q94 0 174 -33 q80 -33 138.5 -91.5 q58.5 -58.5 91.5 -139 q33 -80.5 33 -174.5 Z" /><glyph glyph-name="" unicode="&#x2461;" d="M828 306 q0 82 -28 151 q-28 69 -77.5 119 q-49.5 50 -118 78.5 q-68.5 28.5 -149.5 28.5 q-81 0 -149.5 -28.5 q-68.5 -28.5 -118 -78.5 q-49.5 -50 -77.5 -119 q-28 -69 -28 -151 q0 -82 28 -151 q28 -69 77.5 -119.5 q49.5 -50.5 118 -78.5 q68.5 -28 149.5 -28 q81 0 149.5 28 q68.5 28 118 78.5 q49.5 50.5 77.5 119.5 q28 69 28 151 ZM892 306 q0 -95 -33 -175 q-33 -80 -91.5 -138.5 q-58.5 -58.5 -138.5 -91.5 q-80 -33 -174 -33 q-95 0 -175 33 q-80 33 -138.5 91.5 q-58.5 58.5 -91 138.5 q-32.5 80 -32.5 175 q0 94 32.5 174.5 q32.5 80.5 91 139 q58.5 58.5 138.5 91.5 q80 33 175 33 q94 0 174 -33 q80 -33 138.5 -91.5 q58.5 -58.5 91.5 -139 q33 -80.5 33 -174.5 ZM476 319 q23 24 36 41.5 q13 17.5 19 31 q6 13.5 7.5 24.5 q1.5 11 1.5 22 l0 6 q0 26 -21 42.5 q-21 16.5 -62 16.5 q-26 0 -56 -15 q-30 -15 -55 -61 l-65 43 q9 17 23.5 36 q14.5 19 35.5 35.5 q21 16.5 49.5 27 q28.5 10.5 66.5 10.5 q45 0 77.5 -11 q32.5 -11 53 -29.5 q20.5 -18.5 30 -43.5 q9.5 -25 9.5 -52 l0 -7 q0 -43 -20.5 -80 q-20.5 -37 -57.5 -74 l-163 -164 l259 0 l0 -73 l-365 0 l0 71 l197 203 Z" /><glyph glyph-name="" unicode="&#x2462;" d="M828 306 q0 82 -28 151 q-28 69 -77.5 119 q-49.5 50 -118 78.5 q-68.5 28.5 -149.5 28.5 q-81 0 -149.5 -28.5 q-68.5 -28.5 -118 -78.5 q-49.5 -50 -77.5 -119 q-28 -69 -28 -151 q0 -82 28 -151 q28 -69 77.5 -119.5 q49.5 -50.5 118 -78.5 q68.5 -28 149.5 -28 q81 0 149.5 28 q68.5 28 118 78.5 q49.5 50.5 77.5 119.5 q28 69 28 151 ZM892 306 q0 -95 -33 -175 q-33 -80 -91.5 -138.5 q-58.5 -58.5 -138.5 -91.5 q-80 -33 -174 -33 q-95 0 -175 33 q-80 33 -138.5 91.5 q-58.5 58.5 -91 138.5 q-32.5 80 -32.5 175 q0 94 32.5 174.5 q32.5 80.5 91 139 q58.5 58.5 138.5 91.5 q80 33 175 33 q94 0 174 -33 q80 -33 138.5 -91.5 q58.5 -58.5 91.5 -139 q33 -80.5 33 -174.5 ZM291 502 q26 34 64 55.5 q38 21.5 96 21.5 q74 0 119 -36 q45 -36 45 -96 l0 -7 q0 -16 -4 -33 q-4 -17 -13 -33 q-9 -16 -24.5 -30 q-15.5 -14 -38.5 -23 q53 -9 79.5 -41 q26.5 -32 26.5 -77 l0 -9 q0 -32 -11.5 -60 q-11.5 -28 -35.5 -50 q-24 -22 -60 -34.5 q-36 -12.5 -84 -12.5 q-46 0 -91 14.5 q-45 14.5 -83 44.5 l43 66 q38 -28 68.5 -38.5 q30.5 -10.5 62.5 -10.5 q51 0 77.5 21 q26.5 21 26.5 59 l0 7 q0 48 -28.5 65.5 q-28.5 17.5 -77.5 17.5 l-65 0 l0 74 l59 0 q50 0 69 22.5 q19 22.5 19 57.5 l0 5 q0 32 -23 47 q-23 15 -56 15 q-33 0 -56.5 -12 q-23.5 -12 -43.5 -35 l-60 45 Z" /><glyph glyph-name="" unicode="&#x2463;" d="M828 306 q0 82 -28 151 q-28 69 -77.5 119 q-49.5 50 -118 78.5 q-68.5 28.5 -149.5 28.5 q-81 0 -149.5 -28.5 q-68.5 -28.5 -118 -78.5 q-49.5 -50 -77.5 -119 q-28 -69 -28 -151 q0 -82 28 -151 q28 -69 77.5 -119.5 q49.5 -50.5 118 -78.5 q68.5 -28 149.5 -28 q81 0 149.5 28 q68.5 28 118 78.5 q49.5 50.5 77.5 119.5 q28 69 28 151 ZM892 306 q0 -95 -33 -175 q-33 -80 -91.5 -138.5 q-58.5 -58.5 -138.5 -91.5 q-80 -33 -174 -33 q-95 0 -175 33 q-80 33 -138.5 91.5 q-58.5 58.5 -91 138.5 q-32.5 80 -32.5 175 q0 94 32.5 174.5 q32.5 80.5 91 139 q58.5 58.5 138.5 91.5 q80 33 175 33 q94 0 174 -33 q80 -33 138.5 -91.5 q58.5 -58.5 91.5 -139 q33 -80.5 33 -174.5 ZM571 387 l0 -159 l72 0 l0 -71 l-72 0 l0 -111 l-84 0 l0 111 l-259 0 l0 59 l239 357 l93 0 l-232 -345 l159 0 l0 159 l84 0 Z" /><glyph glyph-name="" unicode="&#x2464;" d="M828 306 q0 82 -28 151 q-28 69 -77.5 119 q-49.5 50 -118 78.5 q-68.5 28.5 -149.5 28.5 q-81 0 -149.5 -28.5 q-68.5 -28.5 -118 -78.5 q-49.5 -50 -77.5 -119 q-28 -69 -28 -151 q0 -82 28 -151 q28 -69 77.5 -119.5 q49.5 -50.5 118 -78.5 q68.5 -28 149.5 -28 q81 0 149.5 28 q68.5 28 118 78.5 q49.5 50.5 77.5 119.5 q28 69 28 151 ZM892 306 q0 -95 -33 -175 q-33 -80 -91.5 -138.5 q-58.5 -58.5 -138.5 -91.5 q-80 -33 -174 -33 q-95 0 -175 33 q-80 33 -138.5 91.5 q-58.5 58.5 -91 138.5 q-32.5 80 -32.5 175 q0 94 32.5 174.5 q32.5 80.5 91 139 q58.5 58.5 138.5 91.5 q80 33 175 33 q94 0 174 -33 q80 -33 138.5 -91.5 q58.5 -58.5 91.5 -139 q33 -80.5 33 -174.5 ZM563 213 q0 46 -25 68.5 q-25 22.5 -72 22.5 q-34 0 -59.5 -12.5 q-25.5 -12.5 -43.5 -29.5 l-59 0 l18 302 l293 0 l0 -72 l-217 0 l-7 -147 q17 11 41 20 q24 9 61 9 q37 0 66.5 -12.5 q29.5 -12.5 49.5 -34.5 q20 -22 30.5 -50.5 q10.5 -28.5 10.5 -61.5 l0 -11 q0 -29 -10 -60 q-10 -31 -32.5 -56.5 q-22.5 -25.5 -59 -41.5 q-36.5 -16 -88.5 -16 q-54 0 -98 14 q-44 14 -83 45 l42 68 q38 -30 71.5 -40 q33.5 -10 70.5 -10 q24 0 43 8.5 q19 8.5 31.5 22 q12.5 13.5 19 31 q6.5 17.5 6.5 36.5 l0 8 Z" /><glyph glyph-name="" unicode="&#x2465;" d="M828 306 q0 82 -28 151 q-28 69 -77.5 119 q-49.5 50 -118 78.5 q-68.5 28.5 -149.5 28.5 q-81 0 -149.5 -28.5 q-68.5 -28.5 -118 -78.5 q-49.5 -50 -77.5 -119 q-28 -69 -28 -151 q0 -82 28 -151 q28 -69 77.5 -119.5 q49.5 -50.5 118 -78.5 q68.5 -28 149.5 -28 q81 0 149.5 28 q68.5 28 118 78.5 q49.5 50.5 77.5 119.5 q28 69 28 151 ZM892 306 q0 -95 -33 -175 q-33 -80 -91.5 -138.5 q-58.5 -58.5 -138.5 -91.5 q-80 -33 -174 -33 q-95 0 -175 33 q-80 33 -138.5 91.5 q-58.5 58.5 -91 138.5 q-32.5 80 -32.5 175 q0 94 32.5 174.5 q32.5 80.5 91 139 q58.5 58.5 138.5 91.5 q80 33 175 33 q94 0 174 -33 q80 -33 138.5 -91.5 q58.5 -58.5 91.5 -139 q33 -80.5 33 -174.5 ZM583 467 q-25 14 -52.5 22.5 q-27.5 8.5 -59.5 8.5 q-20 0 -40.5 -5 q-20.5 -5 -37 -21.5 q-16.5 -16.5 -27.5 -47 q-11 -30.5 -13 -82.5 q17 20 47.5 35.5 q30.5 15.5 69.5 15.5 q36 0 66.5 -12 q30.5 -12 53 -33.5 q22.5 -21.5 35.5 -52.5 q13 -31 13 -70 l0 -16 q0 -37 -12.5 -68.5 q-12.5 -31.5 -36.5 -55 q-24 -23.5 -58 -36.5 q-34 -13 -77 -13 q-96 0 -141 58 q-45 58 -45 161 l0 33 q0 88 16 144 q16 56 44.5 88.5 q28.5 32.5 66 45 q37.5 12.5 81.5 12.5 q35 0 71 -8.5 q36 -8.5 66 -27.5 l-30 -75 ZM354 212 q0 -46 25 -71.5 q25 -25.5 72 -25.5 q49 0 75 26 q26 26 26 74 l0 8 q0 48 -25 70.5 q-25 22.5 -73 22.5 q-51 0 -75.5 -27.5 q-24.5 -27.5 -24.5 -66.5 l0 -10 Z" /><glyph glyph-name="" unicode="&#x2466;" d="M828 306 q0 82 -28 151 q-28 69 -77.5 119 q-49.5 50 -118 78.5 q-68.5 28.5 -149.5 28.5 q-81 0 -149.5 -28.5 q-68.5 -28.5 -118 -78.5 q-49.5 -50 -77.5 -119 q-28 -69 -28 -151 q0 -82 28 -151 q28 -69 77.5 -119.5 q49.5 -50.5 118 -78.5 q68.5 -28 149.5 -28 q81 0 149.5 28 q68.5 28 118 78.5 q49.5 50.5 77.5 119.5 q28 69 28 151 ZM892 306 q0 -95 -33 -175 q-33 -80 -91.5 -138.5 q-58.5 -58.5 -138.5 -91.5 q-80 -33 -174 -33 q-95 0 -175 33 q-80 33 -138.5 91.5 q-58.5 58.5 -91 138.5 q-32.5 80 -32.5 175 q0 94 32.5 174.5 q32.5 80.5 91 139 q58.5 58.5 138.5 91.5 q80 33 175 33 q94 0 174 -33 q80 -33 138.5 -91.5 q58.5 -58.5 91.5 -139 q33 -80.5 33 -174.5 ZM446 29 l-93 0 l205 453 l-279 0 l0 73 l371 0 l0 -66 l-204 -460 Z" /><glyph glyph-name="" unicode="&#x2467;" d="M828 306 q0 82 -28 151 q-28 69 -77.5 119 q-49.5 50 -118 78.5 q-68.5 28.5 -149.5 28.5 q-81 0 -149.5 -28.5 q-68.5 -28.5 -118 -78.5 q-49.5 -50 -77.5 -119 q-28 -69 -28 -151 q0 -82 28 -151 q28 -69 77.5 -119.5 q49.5 -50.5 118 -78.5 q68.5 -28 149.5 -28 q81 0 149.5 28 q68.5 28 118 78.5 q49.5 50.5 77.5 119.5 q28 69 28 151 ZM892 306 q0 -95 -33 -175 q-33 -80 -91.5 -138.5 q-58.5 -58.5 -138.5 -91.5 q-80 -33 -174 -33 q-95 0 -175 33 q-80 33 -138.5 91.5 q-58.5 58.5 -91 138.5 q-32.5 80 -32.5 175 q0 94 32.5 174.5 q32.5 80.5 91 139 q58.5 58.5 138.5 91.5 q80 33 175 33 q94 0 174 -33 q80 -33 138.5 -91.5 q58.5 -58.5 91.5 -139 q33 -80.5 33 -174.5 ZM377 418 q0 -36 24 -53 q24 -17 53 -17 q32 0 55 17 q23 17 23 53 l0 8 q0 35 -21.5 54 q-21.5 19 -56.5 19 q-34 0 -55.5 -19 q-21.5 -19 -21.5 -54 l0 -8 ZM363 184 q0 -35 25 -54.5 q25 -19.5 67 -19.5 q42 0 66 19.5 q24 19.5 24 54.5 l0 7 q0 41 -26 60 q-26 19 -64 19 q-37 0 -64.5 -19 q-27.5 -19 -27.5 -60 l0 -7 ZM274 191 q0 44 26 76.5 q26 32.5 61 43.5 q-38 18 -55.5 51 q-17.5 33 -17.5 61 l0 9 q0 28 10 54 q10 26 31 45.5 q21 19.5 52 31 q31 11.5 73 11.5 q41 0 72 -11.5 q31 -11.5 52 -31 q21 -19.5 31.5 -45.5 q10.5 -26 10.5 -54 l0 -9 q0 -28 -17 -59.5 q-17 -31.5 -55 -52.5 q36 -11 61 -43.5 q25 -32.5 25 -76.5 l0 -12 q0 -63 -46.5 -105 q-46.5 -42 -133.5 -42 q-87 0 -133.5 42 q-46.5 42 -46.5 105 l0 12 Z" /><glyph glyph-name="" unicode="&#x2468;" d="M828 306 q0 82 -28 151 q-28 69 -77.5 119 q-49.5 50 -118 78.5 q-68.5 28.5 -149.5 28.5 q-81 0 -149.5 -28.5 q-68.5 -28.5 -118 -78.5 q-49.5 -50 -77.5 -119 q-28 -69 -28 -151 q0 -82 28 -151 q28 -69 77.5 -119.5 q49.5 -50.5 118 -78.5 q68.5 -28 149.5 -28 q81 0 149.5 28 q68.5 28 118 78.5 q49.5 50.5 77.5 119.5 q28 69 28 151 ZM892 306 q0 -95 -33 -175 q-33 -80 -91.5 -138.5 q-58.5 -58.5 -138.5 -91.5 q-80 -33 -174 -33 q-95 0 -175 33 q-80 33 -138.5 91.5 q-58.5 58.5 -91 138.5 q-32.5 80 -32.5 175 q0 94 32.5 174.5 q32.5 80.5 91 139 q58.5 58.5 138.5 91.5 q80 33 175 33 q94 0 174 -33 q80 -33 138.5 -91.5 q58.5 -58.5 91.5 -139 q33 -80.5 33 -174.5 ZM334 147 q24 -14 52.5 -23 q28.5 -9 60.5 -9 q18 0 38.5 4.5 q20.5 4.5 37 20 q16.5 15.5 28 45.5 q11.5 30 11.5 82 q-14 -23 -49 -36 q-35 -13 -71 -13 q-36 0 -66.5 12 q-30.5 12 -52.5 34.5 q-22 22.5 -34 53.5 q-12 31 -12 70 l0 15 q0 37 12.5 69 q12.5 32 36.5 55 q24 23 58 36.5 q34 13.5 77 13.5 q97 0 141.5 -56 q44.5 -56 44.5 -159 l0 -31 q0 -86 -14 -143 q-14 -57 -40.5 -91 q-26.5 -34 -65 -48 q-38.5 -14 -87.5 -14 q-35 0 -72 9.5 q-37 9.5 -67 28.5 l33 74 ZM562 400 q0 46 -25 72 q-25 26 -72 26 q-50 0 -76 -26 q-26 -26 -26 -71 l0 -9 q0 -48 26.5 -72.5 q26.5 -24.5 72.5 -24.5 q50 0 75 28 q25 28 25 66 l0 11 Z" /><glyph glyph-name="" unicode="&#x2469;" d="M828 306 q0 82 -28 151 q-28 69 -77.5 119 q-49.5 50 -118 78.5 q-68.5 28.5 -149.5 28.5 q-81 0 -149.5 -28.5 q-68.5 -28.5 -118 -78.5 q-49.5 -50 -77.5 -119 q-28 -69 -28 -151 q0 -82 28 -151 q28 -69 77.5 -119.5 q49.5 -50.5 118 -78.5 q68.5 -28 149.5 -28 q81 0 149.5 28 q68.5 28 118 78.5 q49.5 50.5 77.5 119.5 q28 69 28 151 ZM892 306 q0 -95 -33 -175 q-33 -80 -91.5 -138.5 q-58.5 -58.5 -138.5 -91.5 q-80 -33 -174 -33 q-95 0 -175 33 q-80 33 -138.5 91.5 q-58.5 58.5 -91 138.5 q-32.5 80 -32.5 175 q0 94 32.5 174.5 q32.5 80.5 91 139 q58.5 58.5 138.5 91.5 q80 33 175 33 q94 0 174 -33 q80 -33 138.5 -91.5 q58.5 -58.5 91.5 -139 q33 -80.5 33 -174.5 ZM285 41 l0 428 l-103 -66 l-42 69 l157 95 l72 0 l0 -526 l-84 0 ZM726 264 q0 -112 -34.5 -171.5 q-34.5 -59.5 -115.5 -59.5 q-80 0 -115.5 60.5 q-35.5 60.5 -35.5 170.5 l0 82 q0 111 36 170.5 q36 59.5 115 59.5 q80 0 115 -59.5 q35 -59.5 35 -170.5 l0 -82 ZM642 346 q0 48 -5 77.5 q-5 29.5 -13.5 46 q-8.5 16.5 -20.5 22 q-12 5.5 -27 5.5 q-14 0 -26 -5.5 q-12 -5.5 -21 -22 q-9 -16.5 -14.5 -46 q-5.5 -29.5 -5.5 -77.5 l0 -83 q0 -48 5.5 -77.5 q5.5 -29.5 14.5 -46 q9 -16.5 21 -22 q12 -5.5 26 -5.5 q15 0 27 5.5 q12 5.5 20.5 21.5 q8.5 16 13.5 46 q5 30 5 78 l0 83 Z" /><glyph glyph-name="" unicode="&#x246a;" d="M828 306 q0 82 -28 151 q-28 69 -77.5 119 q-49.5 50 -118 78.5 q-68.5 28.5 -149.5 28.5 q-81 0 -149.5 -28.5 q-68.5 -28.5 -118 -78.5 q-49.5 -50 -77.5 -119 q-28 -69 -28 -151 q0 -82 28 -151 q28 -69 77.5 -119.5 q49.5 -50.5 118 -78.5 q68.5 -28 149.5 -28 q81 0 149.5 28 q68.5 28 118 78.5 q49.5 50.5 77.5 119.5 q28 69 28 151 ZM892 306 q0 -95 -33 -175 q-33 -80 -91.5 -138.5 q-58.5 -58.5 -138.5 -91.5 q-80 -33 -174 -33 q-95 0 -175 33 q-80 33 -138.5 91.5 q-58.5 58.5 -91 138.5 q-32.5 80 -32.5 175 q0 94 32.5 174.5 q32.5 80.5 91 139 q58.5 58.5 138.5 91.5 q80 33 175 33 q94 0 174 -33 q80 -33 138.5 -91.5 q58.5 -58.5 91.5 -139 q33 -80.5 33 -174.5 ZM316 41 l0 428 l-103 -66 l-42 69 l157 95 l72 0 l0 -526 l-84 0 ZM577 41 l0 428 l-103 -66 l-42 69 l157 95 l72 0 l0 -526 l-84 0 Z" /><glyph glyph-name="" unicode="&#x246b;" d="M828 306 q0 82 -28 151 q-28 69 -77.5 119 q-49.5 50 -118 78.5 q-68.5 28.5 -149.5 28.5 q-81 0 -149.5 -28.5 q-68.5 -28.5 -118 -78.5 q-49.5 -50 -77.5 -119 q-28 -69 -28 -151 q0 -82 28 -151 q28 -69 77.5 -119.5 q49.5 -50.5 118 -78.5 q68.5 -28 149.5 -28 q81 0 149.5 28 q68.5 28 118 78.5 q49.5 50.5 77.5 119.5 q28 69 28 151 ZM892 306 q0 -95 -33 -175 q-33 -80 -91.5 -138.5 q-58.5 -58.5 -138.5 -91.5 q-80 -33 -174 -33 q-95 0 -175 33 q-80 33 -138.5 91.5 q-58.5 58.5 -91 138.5 q-32.5 80 -32.5 175 q0 94 32.5 174.5 q32.5 80.5 91 139 q58.5 58.5 138.5 91.5 q80 33 175 33 q94 0 174 -33 q80 -33 138.5 -91.5 q58.5 -58.5 91.5 -139 q33 -80.5 33 -174.5 ZM285 41 l0 428 l-103 -66 l-42 69 l157 95 l72 0 l0 -526 l-84 0 ZM549 311 q19 26 31.5 44.5 q12.5 18.5 19 32.5 q6.5 14 9 24.5 q2.5 10.5 2.5 21.5 l0 6 q0 25 -15 41 q-15 16 -47 16 q-26 0 -46 -14 q-20 -14 -39 -54 l-65 45 q7 14 18 31.5 q11 17.5 28 33 q17 15.5 42 26 q25 10.5 61 10.5 q38 0 66.5 -11 q28.5 -11 47 -29 q18.5 -18 28 -41.5 q9.5 -23.5 9.5 -48.5 l0 -7 q0 -43 -22.5 -82.5 q-22.5 -39.5 -54.5 -81.5 l-120 -158 l213 0 l0 -75 l-313 0 l0 73 l147 197 Z" /><glyph glyph-name="" unicode="&#x246c;" d="M828 306 q0 82 -28 151 q-28 69 -77.5 119 q-49.5 50 -118 78.5 q-68.5 28.5 -149.5 28.5 q-81 0 -149.5 -28.5 q-68.5 -28.5 -118 -78.5 q-49.5 -50 -77.5 -119 q-28 -69 -28 -151 q0 -82 28 -151 q28 -69 77.5 -119.5 q49.5 -50.5 118 -78.5 q68.5 -28 149.5 -28 q81 0 149.5 28 q68.5 28 118 78.5 q49.5 50.5 77.5 119.5 q28 69 28 151 ZM892 306 q0 -95 -33 -175 q-33 -80 -91.5 -138.5 q-58.5 -58.5 -138.5 -91.5 q-80 -33 -174 -33 q-95 0 -175 33 q-80 33 -138.5 91.5 q-58.5 58.5 -91 138.5 q-32.5 80 -32.5 175 q0 94 32.5 174.5 q32.5 80.5 91 139 q58.5 58.5 138.5 91.5 q80 33 175 33 q94 0 174 -33 q80 -33 138.5 -91.5 q58.5 -58.5 91.5 -139 q33 -80.5 33 -174.5 ZM285 41 l0 428 l-103 -66 l-42 69 l157 95 l72 0 l0 -526 l-84 0 ZM400 498 q26 34 60 55.5 q34 21.5 89 21.5 q74 0 113 -37 q39 -37 39 -95 l0 -7 q0 -16 -4 -33 q-4 -17 -13.5 -33.5 q-9.5 -16.5 -25.5 -30 q-16 -13.5 -39 -21.5 q53 -9 80.5 -41.5 q27.5 -32.5 27.5 -77.5 l0 -9 q0 -32 -10 -60 q-10 -28 -31.5 -50 q-21.5 -22 -55 -34.5 q-33.5 -12.5 -80.5 -12.5 q-91 0 -165 59 l43 66 q19 -14 34.5 -23.5 q15.5 -9.5 30 -15 q14.5 -5.5 28 -8 q13.5 -2.5 29.5 -2.5 q43 0 66.5 21 q23.5 21 23.5 59 l0 7 q0 48 -26 65.5 q-26 17.5 -75 17.5 l-48 0 l0 74 l45 0 q49 0 64.5 21 q15.5 21 15.5 56 l0 5 q0 31 -17 48 q-17 17 -50 17 q-31 0 -51.5 -12 q-20.5 -12 -37.5 -35 l-60 45 Z" /><glyph glyph-name="" unicode="&#x246d;" d="M828 306 q0 82 -28 151 q-28 69 -77.5 119 q-49.5 50 -118 78.5 q-68.5 28.5 -149.5 28.5 q-81 0 -149.5 -28.5 q-68.5 -28.5 -118 -78.5 q-49.5 -50 -77.5 -119 q-28 -69 -28 -151 q0 -82 28 -151 q28 -69 77.5 -119.5 q49.5 -50.5 118 -78.5 q68.5 -28 149.5 -28 q81 0 149.5 28 q68.5 28 118 78.5 q49.5 50.5 77.5 119.5 q28 69 28 151 ZM892 306 q0 -95 -33 -175 q-33 -80 -91.5 -138.5 q-58.5 -58.5 -138.5 -91.5 q-80 -33 -174 -33 q-95 0 -175 33 q-80 33 -138.5 91.5 q-58.5 58.5 -91 138.5 q-32.5 80 -32.5 175 q0 94 32.5 174.5 q32.5 80.5 91 139 q58.5 58.5 138.5 91.5 q80 33 175 33 q94 0 174 -33 q80 -33 138.5 -91.5 q58.5 -58.5 91.5 -139 q33 -80.5 33 -174.5 ZM285 41 l0 428 l-103 -66 l-42 69 l157 95 l72 0 l0 -526 l-84 0 ZM681 382 l0 -161 l72 0 l0 -69 l-72 0 l0 -111 l-82 0 l0 111 l-207 0 l0 57 l181 359 l91 0 l-174 -347 l109 0 l0 161 l82 0 Z" /><glyph glyph-name="" unicode="&#x246e;" d="M828 306 q0 82 -28 151 q-28 69 -77.5 119 q-49.5 50 -118 78.5 q-68.5 28.5 -149.5 28.5 q-81 0 -149.5 -28.5 q-68.5 -28.5 -118 -78.5 q-49.5 -50 -77.5 -119 q-28 -69 -28 -151 q0 -82 28 -151 q28 -69 77.5 -119.5 q49.5 -50.5 118 -78.5 q68.5 -28 149.5 -28 q81 0 149.5 28 q68.5 28 118 78.5 q49.5 50.5 77.5 119.5 q28 69 28 151 ZM892 306 q0 -95 -33 -175 q-33 -80 -91.5 -138.5 q-58.5 -58.5 -138.5 -91.5 q-80 -33 -174 -33 q-95 0 -175 33 q-80 33 -138.5 91.5 q-58.5 58.5 -91 138.5 q-32.5 80 -32.5 175 q0 94 32.5 174.5 q32.5 80.5 91 139 q58.5 58.5 138.5 91.5 q80 33 175 33 q94 0 174 -33 q80 -33 138.5 -91.5 q58.5 -58.5 91.5 -139 q33 -80.5 33 -174.5 ZM285 41 l0 428 l-103 -66 l-42 69 l157 95 l72 0 l0 -526 l-84 0 ZM639 213 q0 46 -18 69 q-18 23 -61 23 q-27 0 -47 -12.5 q-20 -12.5 -34 -30.5 l-60 0 l17 302 l255 0 l0 -70 l-179 0 l-7 -149 q14 11 32 20 q18 9 50 9 q35 0 61 -13 q26 -13 43.5 -34.5 q17.5 -21.5 26 -50.5 q8.5 -29 8.5 -61 l0 -11 q0 -29 -8 -60 q-8 -31 -27.5 -56.5 q-19.5 -25.5 -52.5 -41.5 q-33 -16 -84 -16 q-51 0 -87.5 14.5 q-36.5 14.5 -73.5 44.5 l42 67 q19 -15 33.5 -24.5 q14.5 -9.5 28.5 -15.5 q14 -6 28 -8 q14 -2 32 -2 q22 0 38 8.5 q16 8.5 25.5 22.5 q9.5 14 14 31.5 q4.5 17.5 4.5 36.5 l0 8 Z" /><glyph glyph-name="" unicode="&#x246f;" d="" /><glyph glyph-name="" unicode="&#x2470;" d="" /><glyph glyph-name="" unicode="&#x2471;" d="" /><glyph glyph-name="" unicode="&#x2472;" d="" /><glyph glyph-name="" unicode="&#x2473;" d="" /><glyph glyph-name="" unicode="&#x2474;" d="M457 15 l0 473 l-133 -78 l-44 74 l190 108 l78 0 l0 -577 l-91 0 ZM208 684 q-32 -47 -52.5 -93.5 q-20.5 -46.5 -32.5 -91.5 q-12 -45 -16.5 -87.5 q-4.5 -42.5 -4.5 -79.5 l0 -46 q0 -36 4 -77.5 q4 -41.5 15.5 -87.5 q11.5 -46 32 -94.5 q20.5 -48.5 54.5 -98.5 l-74 0 q-32 42 -53.5 89 q-21.5 47 -34.5 94 q-13 47 -18.5 93 q-5.5 46 -5.5 87 l0 36 q0 40 5.5 85 q5.5 45 18.5 91.5 q13 46.5 34.5 92.5 q21.5 46 53.5 88 l74 0 ZM776 684 q32 -42 53.5 -88 q21.5 -46 34.5 -92.5 q13 -46.5 18.5 -91.5 q5.5 -45 5.5 -85 l0 -36 q0 -41 -5.5 -87 q-5.5 -46 -18.5 -93 q-13 -47 -34.5 -94 q-21.5 -47 -53.5 -89 l-74 0 q34 50 54.5 98.5 q20.5 48.5 32 94.5 q11.5 46 15.5 87.5 q4 41.5 4 77.5 l0 46 q0 37 -5 79.5 q-5 42.5 -17 87.5 q-12 45 -32.5 91.5 q-20.5 46.5 -51.5 93.5 l74 0 Z" /><glyph glyph-name="" unicode="&#x2475;" d="M484 315 q25 26 39.5 45.5 q14.5 19.5 21.5 34.5 q7 15 8.5 27 q1.5 12 1.5 24 l0 6 q0 29 -23 48 q-23 19 -71 19 q-14 0 -30 -3.5 q-16 -3.5 -31.5 -12.5 q-15.5 -9 -31 -25 q-15.5 -16 -28.5 -41 l-69 45 q10 18 25.5 39 q15.5 21 38 39 q22.5 18 53.5 29.5 q31 11.5 72 11.5 q47 0 82 -12 q35 -12 58 -32.5 q23 -20.5 34 -48 q11 -27.5 11 -58.5 l0 -8 q0 -47 -23.5 -86.5 q-23.5 -39.5 -63.5 -80.5 l-177 -182 l285 0 l0 -78 l-397 0 l0 75 l215 225 ZM208 684 q-32 -47 -52.5 -93.5 q-20.5 -46.5 -32.5 -91.5 q-12 -45 -16.5 -87.5 q-4.5 -42.5 -4.5 -79.5 l0 -46 q0 -36 4 -77.5 q4 -41.5 15.5 -87.5 q11.5 -46 32 -94.5 q20.5 -48.5 54.5 -98.5 l-74 0 q-32 42 -53.5 89 q-21.5 47 -34.5 94 q-13 47 -18.5 93 q-5.5 46 -5.5 87 l0 36 q0 40 5.5 85 q5.5 45 18.5 91.5 q13 46.5 34.5 92.5 q21.5 46 53.5 88 l74 0 ZM776 684 q32 -42 53.5 -88 q21.5 -46 34.5 -92.5 q13 -46.5 18.5 -91.5 q5.5 -45 5.5 -85 l0 -36 q0 -41 -5.5 -87 q-5.5 -46 -18.5 -93 q-13 -47 -34.5 -94 q-21.5 -47 -53.5 -89 l-74 0 q34 50 54.5 98.5 q20.5 48.5 32 94.5 q11.5 46 15.5 87.5 q4 41.5 4 77.5 l0 46 q0 37 -5 79.5 q-5 42.5 -17 87.5 q-12 45 -32.5 91.5 q-20.5 46.5 -51.5 93.5 l74 0 Z" /><glyph glyph-name="" unicode="&#x2476;" d="M286 515 q27 37 67.5 61 q40.5 24 104.5 24 q40 0 73.5 -10.5 q33.5 -10.5 57.5 -29.5 q24 -19 37 -46 q13 -27 13 -59 l0 -8 q0 -17 -3.5 -36 q-3.5 -19 -13.5 -37 q-10 -18 -26.5 -33 q-16.5 -15 -42.5 -25 q58 -10 86 -44 q28 -34 28 -85 l0 -12 q0 -32 -13 -62.5 q-13 -30.5 -39 -54.5 q-26 -24 -65 -38.5 q-39 -14.5 -92 -14.5 q-51 0 -99.5 16 q-48.5 16 -89.5 48 l45 72 q42 -31 75 -42 q33 -11 69 -11 q57 0 87.5 24 q30.5 24 30.5 63 l0 10 q0 53 -30 72 q-30 19 -86 19 l-68 0 l0 78 l62 0 q54 0 75 26.5 q21 26.5 21 64.5 l0 6 q0 35 -26.5 52 q-26.5 17 -64.5 17 q-38 0 -63 -13.5 q-25 -13.5 -47 -39.5 l-63 48 ZM208 684 q-32 -47 -52.5 -93.5 q-20.5 -46.5 -32.5 -91.5 q-12 -45 -16.5 -87.5 q-4.5 -42.5 -4.5 -79.5 l0 -46 q0 -36 4 -77.5 q4 -41.5 15.5 -87.5 q11.5 -46 32 -94.5 q20.5 -48.5 54.5 -98.5 l-74 0 q-32 42 -53.5 89 q-21.5 47 -34.5 94 q-13 47 -18.5 93 q-5.5 46 -5.5 87 l0 36 q0 40 5.5 85 q5.5 45 18.5 91.5 q13 46.5 34.5 92.5 q21.5 46 53.5 88 l74 0 ZM776 684 q32 -42 53.5 -88 q21.5 -46 34.5 -92.5 q13 -46.5 18.5 -91.5 q5.5 -45 5.5 -85 l0 -36 q0 -41 -5.5 -87 q-5.5 -46 -18.5 -93 q-13 -47 -34.5 -94 q-21.5 -47 -53.5 -89 l-74 0 q34 50 54.5 98.5 q20.5 48.5 32 94.5 q11.5 46 15.5 87.5 q4 41.5 4 77.5 l0 46 q0 37 -5 79.5 q-5 42.5 -17 87.5 q-12 45 -32.5 91.5 q-20.5 46.5 -51.5 93.5 l74 0 Z" /><glyph glyph-name="" unicode="&#x2477;" d="M208 684 q-32 -47 -52.5 -93.5 q-20.5 -46.5 -32.5 -91.5 q-12 -45 -16.5 -87.5 q-4.5 -42.5 -4.5 -79.5 l0 -46 q0 -36 4 -77.5 q4 -41.5 15.5 -87.5 q11.5 -46 32 -94.5 q20.5 -48.5 54.5 -98.5 l-74 0 q-32 42 -53.5 89 q-21.5 47 -34.5 94 q-13 47 -18.5 93 q-5.5 46 -5.5 87 l0 36 q0 40 5.5 85 q5.5 45 18.5 91.5 q13 46.5 34.5 92.5 q21.5 46 53.5 88 l74 0 ZM776 684 q32 -42 53.5 -88 q21.5 -46 34.5 -92.5 q13 -46.5 18.5 -91.5 q5.5 -45 5.5 -85 l0 -36 q0 -41 -5.5 -87 q-5.5 -46 -18.5 -93 q-13 -47 -34.5 -94 q-21.5 -47 -53.5 -89 l-74 0 q34 50 54.5 98.5 q20.5 48.5 32 94.5 q11.5 46 15.5 87.5 q4 41.5 4 77.5 l0 46 q0 37 -5 79.5 q-5 42.5 -17 87.5 q-12 45 -32.5 91.5 q-20.5 46.5 -51.5 93.5 l74 0 ZM607 386 l0 -174 l80 0 l0 -75 l-80 0 l0 -122 l-90 0 l0 122 l-287 0 l0 63 l266 392 l100 0 l-260 -380 l181 0 l0 174 l90 0 Z" /><glyph glyph-name="" unicode="&#x2478;" d="M208 684 q-32 -47 -52.5 -93.5 q-20.5 -46.5 -32.5 -91.5 q-12 -45 -16.5 -87.5 q-4.5 -42.5 -4.5 -79.5 l0 -46 q0 -36 4 -77.5 q4 -41.5 15.5 -87.5 q11.5 -46 32 -94.5 q20.5 -48.5 54.5 -98.5 l-74 0 q-32 42 -53.5 89 q-21.5 47 -34.5 94 q-13 47 -18.5 93 q-5.5 46 -5.5 87 l0 36 q0 40 5.5 85 q5.5 45 18.5 91.5 q13 46.5 34.5 92.5 q21.5 46 53.5 88 l74 0 ZM776 684 q32 -42 53.5 -88 q21.5 -46 34.5 -92.5 q13 -46.5 18.5 -91.5 q5.5 -45 5.5 -85 l0 -36 q0 -41 -5.5 -87 q-5.5 -46 -18.5 -93 q-13 -47 -34.5 -94 q-21.5 -47 -53.5 -89 l-74 0 q34 50 54.5 98.5 q20.5 48.5 32 94.5 q11.5 46 15.5 87.5 q4 41.5 4 77.5 l0 46 q0 37 -5 79.5 q-5 42.5 -17 87.5 q-12 45 -32.5 91.5 q-20.5 46.5 -51.5 93.5 l74 0 ZM581 200 q0 52 -28 78.5 q-28 26.5 -81 26.5 q-38 0 -65.5 -13.5 q-27.5 -13.5 -46.5 -32.5 l-64 0 l18 331 l321 0 l0 -77 l-238 0 l-9 -166 q20 13 45.5 22.5 q25.5 9.5 63.5 9.5 q40 0 72.5 -14 q32.5 -14 55.5 -38.5 q23 -24.5 35 -56.5 q12 -32 12 -68 l0 -10 q0 -33 -11.5 -66.5 q-11.5 -33.5 -36 -60.5 q-24.5 -27 -63 -44 q-38.5 -17 -92.5 -17 q-59 0 -108.5 15.5 q-49.5 15.5 -91.5 49.5 l44 71 q42 -32 79 -42.5 q37 -10.5 78 -10.5 q28 0 48.5 9 q20.5 9 34.5 23.5 q14 14.5 21 33.5 q7 19 7 39 l0 8 Z" /><glyph glyph-name="" unicode="&#x2479;" d="M208 684 q-32 -47 -52.5 -93.5 q-20.5 -46.5 -32.5 -91.5 q-12 -45 -16.5 -87.5 q-4.5 -42.5 -4.5 -79.5 l0 -46 q0 -36 4 -77.5 q4 -41.5 15.5 -87.5 q11.5 -46 32 -94.5 q20.5 -48.5 54.5 -98.5 l-74 0 q-32 42 -53.5 89 q-21.5 47 -34.5 94 q-13 47 -18.5 93 q-5.5 46 -5.5 87 l0 36 q0 40 5.5 85 q5.5 45 18.5 91.5 q13 46.5 34.5 92.5 q21.5 46 53.5 88 l74 0 ZM776 684 q32 -42 53.5 -88 q21.5 -46 34.5 -92.5 q13 -46.5 18.5 -91.5 q5.5 -45 5.5 -85 l0 -36 q0 -41 -5.5 -87 q-5.5 -46 -18.5 -93 q-13 -47 -34.5 -94 q-21.5 -47 -53.5 -89 l-74 0 q34 50 54.5 98.5 q20.5 48.5 32 94.5 q11.5 46 15.5 87.5 q4 41.5 4 77.5 l0 46 q0 37 -5 79.5 q-5 42.5 -17 87.5 q-12 45 -32.5 91.5 q-20.5 46.5 -51.5 93.5 l74 0 ZM608 481 q-27 16 -58 25 q-31 9 -66 9 q-24 0 -47 -6.5 q-23 -6.5 -41 -26 q-18 -19.5 -29.5 -54.5 q-11.5 -35 -12.5 -92 q15 25 53.5 41.5 q38.5 16.5 80.5 16.5 q39 0 72 -13.5 q33 -13.5 57 -38 q24 -24.5 37.5 -59 q13.5 -34.5 13.5 -76.5 l0 -16 q0 -41 -14 -75.5 q-14 -34.5 -40 -59 q-26 -24.5 -63 -38.5 q-37 -14 -83 -14 q-105 0 -154.5 63 q-49.5 63 -49.5 176 l0 35 q0 96 17.5 158 q17.5 62 48 98 q30.5 36 72 50.5 q41.5 14.5 89.5 14.5 q39 0 78.5 -9.5 q39.5 -9.5 71.5 -30.5 l-33 -78 ZM355 197 q0 -52 28.5 -81 q28.5 -29 80.5 -29 q54 0 83.5 28 q29.5 28 29.5 80 l0 10 q0 54 -28.5 81 q-28.5 27 -81.5 27 q-54 0 -83 -30 q-29 -30 -29 -75 l0 -11 Z" /><glyph glyph-name="" unicode="&#x247a;" d="M208 684 q-32 -47 -52.5 -93.5 q-20.5 -46.5 -32.5 -91.5 q-12 -45 -16.5 -87.5 q-4.5 -42.5 -4.5 -79.5 l0 -46 q0 -36 4 -77.5 q4 -41.5 15.5 -87.5 q11.5 -46 32 -94.5 q20.5 -48.5 54.5 -98.5 l-74 0 q-32 42 -53.5 89 q-21.5 47 -34.5 94 q-13 47 -18.5 93 q-5.5 46 -5.5 87 l0 36 q0 40 5.5 85 q5.5 45 18.5 91.5 q13 46.5 34.5 92.5 q21.5 46 53.5 88 l74 0 ZM776 684 q32 -42 53.5 -88 q21.5 -46 34.5 -92.5 q13 -46.5 18.5 -91.5 q5.5 -45 5.5 -85 l0 -36 q0 -41 -5.5 -87 q-5.5 -46 -18.5 -93 q-13 -47 -34.5 -94 q-21.5 -47 -53.5 -89 l-74 0 q34 50 54.5 98.5 q20.5 48.5 32 94.5 q11.5 46 15.5 87.5 q4 41.5 4 77.5 l0 46 q0 37 -5 79.5 q-5 42.5 -17 87.5 q-12 45 -32.5 91.5 q-20.5 46.5 -51.5 93.5 l74 0 ZM448 5 l-98 0 l226 499 l-308 0 l0 78 l405 0 l0 -70 l-225 -507 Z" /><glyph glyph-name="" unicode="&#x247b;" d="M208 684 q-32 -47 -52.5 -93.5 q-20.5 -46.5 -32.5 -91.5 q-12 -45 -16.5 -87.5 q-4.5 -42.5 -4.5 -79.5 l0 -46 q0 -36 4 -77.5 q4 -41.5 15.5 -87.5 q11.5 -46 32 -94.5 q20.5 -48.5 54.5 -98.5 l-74 0 q-32 42 -53.5 89 q-21.5 47 -34.5 94 q-13 47 -18.5 93 q-5.5 46 -5.5 87 l0 36 q0 40 5.5 85 q5.5 45 18.5 91.5 q13 46.5 34.5 92.5 q21.5 46 53.5 88 l74 0 ZM776 684 q32 -42 53.5 -88 q21.5 -46 34.5 -92.5 q13 -46.5 18.5 -91.5 q5.5 -45 5.5 -85 l0 -36 q0 -41 -5.5 -87 q-5.5 -46 -18.5 -93 q-13 -47 -34.5 -94 q-21.5 -47 -53.5 -89 l-74 0 q34 50 54.5 98.5 q20.5 48.5 32 94.5 q11.5 46 15.5 87.5 q4 41.5 4 77.5 l0 46 q0 37 -5 79.5 q-5 42.5 -17 87.5 q-12 45 -32.5 91.5 q-20.5 46.5 -51.5 93.5 l74 0 ZM370 428 q0 -41 26 -61 q26 -20 61 -20 q35 0 61.5 20 q26.5 20 26.5 61 l0 8 q0 39 -24 61 q-24 22 -64 22 q-38 0 -62.5 -22 q-24.5 -22 -24.5 -61 l0 -8 ZM355 169 q0 -39 28 -61 q28 -22 76 -22 q47 0 73.5 22 q26.5 22 26.5 61 l0 9 q0 45 -29 66.5 q-29 21.5 -71 21.5 q-43 0 -73.5 -21 q-30.5 -21 -30.5 -67 l0 -9 ZM261 178 q0 24 7.5 45 q7.5 21 21 38.5 q13.5 17.5 30.5 29.5 q17 12 37 18 q-41 20 -60.5 56 q-19.5 36 -19.5 68 l0 10 q0 31 11 59.5 q11 28.5 33.5 50 q22.5 21.5 56.5 34 q34 12.5 79 12.5 q44 0 78 -12.5 q34 -12.5 57 -34 q23 -21.5 34.5 -50 q11.5 -28.5 11.5 -59.5 l0 -10 q0 -32 -19 -66.5 q-19 -34.5 -61 -57.5 q40 -12 68 -47.5 q28 -35.5 28 -83.5 l0 -14 q0 -35 -13 -64 q-13 -29 -38 -50.5 q-25 -21.5 -62 -33.5 q-37 -12 -84 -12 q-47 0 -83.5 12 q-36.5 12 -61.5 33.5 q-25 21.5 -38 50.5 q-13 29 -13 64 l0 14 Z" /><glyph glyph-name="" unicode="&#x247c;" d="M208 684 q-32 -47 -52.5 -93.5 q-20.5 -46.5 -32.5 -91.5 q-12 -45 -16.5 -87.5 q-4.5 -42.5 -4.5 -79.5 l0 -46 q0 -36 4 -77.5 q4 -41.5 15.5 -87.5 q11.5 -46 32 -94.5 q20.5 -48.5 54.5 -98.5 l-74 0 q-32 42 -53.5 89 q-21.5 47 -34.5 94 q-13 47 -18.5 93 q-5.5 46 -5.5 87 l0 36 q0 40 5.5 85 q5.5 45 18.5 91.5 q13 46.5 34.5 92.5 q21.5 46 53.5 88 l74 0 ZM776 684 q32 -42 53.5 -88 q21.5 -46 34.5 -92.5 q13 -46.5 18.5 -91.5 q5.5 -45 5.5 -85 l0 -36 q0 -41 -5.5 -87 q-5.5 -46 -18.5 -93 q-13 -47 -34.5 -94 q-21.5 -47 -53.5 -89 l-74 0 q34 50 54.5 98.5 q20.5 48.5 32 94.5 q11.5 46 15.5 87.5 q4 41.5 4 77.5 l0 46 q0 37 -5 79.5 q-5 42.5 -17 87.5 q-12 45 -32.5 91.5 q-20.5 46.5 -51.5 93.5 l74 0 ZM322 123 q27 -16 58.5 -26 q31.5 -10 65.5 -10 q23 0 44.5 6 q21.5 6 39 24.5 q17.5 18.5 29.5 53 q12 34.5 16 92.5 q-16 -26 -53.5 -41.5 q-37.5 -15.5 -79.5 -15.5 q-39 0 -72 13 q-33 13 -57 37.5 q-24 24.5 -37.5 58.5 q-13.5 34 -13.5 76 l0 17 q0 41 14 76 q14 35 40 60.5 q26 25.5 63 40 q37 14.5 83 14.5 q105 0 154.5 -60.5 q49.5 -60.5 49.5 -174.5 l0 -32 q0 -95 -15 -158 q-15 -63 -44 -100.5 q-29 -37.5 -71 -53.5 q-42 -16 -96 -16 q-39 0 -79 11 q-40 11 -72 31 l33 77 ZM575 404 q0 52 -28.5 81.5 q-28.5 29.5 -80.5 29.5 q-54 0 -83.5 -28.5 q-29.5 -28.5 -29.5 -80.5 l0 -10 q0 -54 30 -81.5 q30 -27.5 80 -27.5 q54 0 83 31 q29 31 29 75 l0 11 Z" /><glyph glyph-name="" unicode="&#x247d;" d="M283 15 l0 471 l-94 -70 l-43 65 l150 111 l75 0 l0 -577 l-88 0 ZM208 684 q-32 -47 -52.5 -93.5 q-20.5 -46.5 -32.5 -91.5 q-12 -45 -16.5 -87.5 q-4.5 -42.5 -4.5 -79.5 l0 -46 q0 -36 4 -77.5 q4 -41.5 15.5 -87.5 q11.5 -46 32 -94.5 q20.5 -48.5 54.5 -98.5 l-74 0 q-32 42 -53.5 89 q-21.5 47 -34.5 94 q-13 47 -18.5 93 q-5.5 46 -5.5 87 l0 36 q0 40 5.5 85 q5.5 45 18.5 91.5 q13 46.5 34.5 92.5 q21.5 46 53.5 88 l74 0 ZM776 684 q32 -42 53.5 -88 q21.5 -46 34.5 -92.5 q13 -46.5 18.5 -91.5 q5.5 -45 5.5 -85 l0 -36 q0 -41 -5.5 -87 q-5.5 -46 -18.5 -93 q-13 -47 -34.5 -94 q-21.5 -47 -53.5 -89 l-74 0 q34 50 54.5 98.5 q20.5 48.5 32 94.5 q11.5 46 15.5 87.5 q4 41.5 4 77.5 l0 46 q0 37 -5 79.5 q-5 42.5 -17 87.5 q-12 45 -32.5 91.5 q-20.5 46.5 -51.5 93.5 l74 0 ZM734 258 q0 -61 -8 -108 q-8 -47 -26 -79.5 q-18 -32.5 -48 -49 q-30 -16.5 -75 -16.5 q-44 0 -74.5 16.5 q-30.5 16.5 -49.5 49 q-19 32.5 -27 79.5 q-8 47 -8 108 l0 90 q0 121 36 186.5 q36 65.5 123 65.5 q44 0 74 -16.5 q30 -16.5 48.5 -49 q18.5 -32.5 26.5 -79.5 q8 -47 8 -107 l0 -90 ZM645 348 q0 52 -4.5 85.5 q-4.5 33.5 -13 52 q-8.5 18.5 -21.5 25.5 q-13 7 -29 7 q-16 0 -28.5 -7 q-12.5 -7 -21.5 -25.5 q-9 -18.5 -14 -52 q-5 -33.5 -5 -85.5 l0 -91 q0 -53 5 -86 q5 -33 14 -52 q9 -19 21.5 -25.5 q12.5 -6.5 28.5 -6.5 q16 0 29 6.5 q13 6.5 21.5 25.5 q8.5 19 13 52 q4.5 33 4.5 86 l0 91 Z" /><glyph glyph-name="" unicode="&#x247e;" d="M306 15 l0 471 l-98 -70 l-43 65 l154 111 l75 0 l0 -577 l-88 0 ZM208 684 q-32 -47 -52.5 -93.5 q-20.5 -46.5 -32.5 -91.5 q-12 -45 -16.5 -87.5 q-4.5 -42.5 -4.5 -79.5 l0 -46 q0 -36 4 -77.5 q4 -41.5 15.5 -87.5 q11.5 -46 32 -94.5 q20.5 -48.5 54.5 -98.5 l-74 0 q-32 42 -53.5 89 q-21.5 47 -34.5 94 q-13 47 -18.5 93 q-5.5 46 -5.5 87 l0 36 q0 40 5.5 85 q5.5 45 18.5 91.5 q13 46.5 34.5 92.5 q21.5 46 53.5 88 l74 0 ZM776 684 q32 -42 53.5 -88 q21.5 -46 34.5 -92.5 q13 -46.5 18.5 -91.5 q5.5 -45 5.5 -85 l0 -36 q0 -41 -5.5 -87 q-5.5 -46 -18.5 -93 q-13 -47 -34.5 -94 q-21.5 -47 -53.5 -89 l-74 0 q34 50 54.5 98.5 q20.5 48.5 32 94.5 q11.5 46 15.5 87.5 q4 41.5 4 77.5 l0 46 q0 37 -5 79.5 q-5 42.5 -17 87.5 q-12 45 -32.5 91.5 q-20.5 46.5 -51.5 93.5 l74 0 ZM587 15 l0 471 l-98 -70 l-43 65 l154 111 l75 0 l0 -577 l-88 0 Z" /><glyph glyph-name="" unicode="&#x247f;" d="M283 15 l0 471 l-94 -70 l-43 65 l150 111 l75 0 l0 -577 l-88 0 ZM208 684 q-32 -47 -52.5 -93.5 q-20.5 -46.5 -32.5 -91.5 q-12 -45 -16.5 -87.5 q-4.5 -42.5 -4.5 -79.5 l0 -46 q0 -36 4 -77.5 q4 -41.5 15.5 -87.5 q11.5 -46 32 -94.5 q20.5 -48.5 54.5 -98.5 l-74 0 q-32 42 -53.5 89 q-21.5 47 -34.5 94 q-13 47 -18.5 93 q-5.5 46 -5.5 87 l0 36 q0 40 5.5 85 q5.5 45 18.5 91.5 q13 46.5 34.5 92.5 q21.5 46 53.5 88 l74 0 ZM776 684 q32 -42 53.5 -88 q21.5 -46 34.5 -92.5 q13 -46.5 18.5 -91.5 q5.5 -45 5.5 -85 l0 -36 q0 -41 -5.5 -87 q-5.5 -46 -18.5 -93 q-13 -47 -34.5 -94 q-21.5 -47 -53.5 -89 l-74 0 q34 50 54.5 98.5 q20.5 48.5 32 94.5 q11.5 46 15.5 87.5 q4 41.5 4 77.5 l0 46 q0 37 -5 79.5 q-5 42.5 -17 87.5 q-12 45 -32.5 91.5 q-20.5 46.5 -51.5 93.5 l74 0 ZM594 315 q33 41 41.5 70 q8.5 29 8.5 58 l0 6 q0 30 -18 50 q-18 20 -55 20 q-29 0 -52.5 -15 q-23.5 -15 -45.5 -58 l-69 43 q10 19 24.5 39 q14.5 20 34.5 36 q20 16 46.5 26.5 q26.5 10.5 61.5 10.5 q48 0 79.5 -15 q31.5 -15 50.5 -38 q19 -23 26.5 -50 q7.5 -27 7.5 -51 l0 -8 q0 -47 -17 -84 q-17 -37 -53 -82 l-146 -180 l222 0 l0 -78 l-329 0 l0 75 l182 225 Z" /><glyph glyph-name="" unicode="&#x2480;" d="M283 15 l0 471 l-94 -70 l-43 65 l150 111 l75 0 l0 -577 l-88 0 ZM208 684 q-32 -47 -52.5 -93.5 q-20.5 -46.5 -32.5 -91.5 q-12 -45 -16.5 -87.5 q-4.5 -42.5 -4.5 -79.5 l0 -46 q0 -36 4 -77.5 q4 -41.5 15.5 -87.5 q11.5 -46 32 -94.5 q20.5 -48.5 54.5 -98.5 l-74 0 q-32 42 -53.5 89 q-21.5 47 -34.5 94 q-13 47 -18.5 93 q-5.5 46 -5.5 87 l0 36 q0 40 5.5 85 q5.5 45 18.5 91.5 q13 46.5 34.5 92.5 q21.5 46 53.5 88 l74 0 ZM776 684 q32 -42 53.5 -88 q21.5 -46 34.5 -92.5 q13 -46.5 18.5 -91.5 q5.5 -45 5.5 -85 l0 -36 q0 -41 -5.5 -87 q-5.5 -46 -18.5 -93 q-13 -47 -34.5 -94 q-21.5 -47 -53.5 -89 l-74 0 q34 50 54.5 98.5 q20.5 48.5 32 94.5 q11.5 46 15.5 87.5 q4 41.5 4 77.5 l0 46 q0 37 -5 79.5 q-5 42.5 -17 87.5 q-12 45 -32.5 91.5 q-20.5 46.5 -51.5 93.5 l74 0 ZM410 515 q22 36 57 60.5 q35 24.5 89 24.5 q77 0 118 -40 q41 -40 41 -105 l0 -8 q0 -17 -4 -36 q-4 -19 -14 -37 q-10 -18 -27 -33 q-17 -15 -43 -25 q58 -10 86 -44 q28 -34 28 -85 l0 -12 q0 -32 -9 -62.5 q-9 -30.5 -31 -54.5 q-22 -24 -57.5 -38.5 q-35.5 -14.5 -87.5 -14.5 q-51 0 -90 17.5 q-39 17.5 -73 46.5 l45 72 q34 -30 60 -41.5 q26 -11.5 58 -11.5 q52 0 73 24 q21 24 21 63 l0 10 q0 48 -24.5 69.5 q-24.5 21.5 -67.5 21.5 l-68 0 l0 78 l62 0 q40 0 57 26.5 q17 26.5 17 64.5 l0 6 q0 35 -18 53 q-18 18 -51 18 q-31 0 -50 -14.5 q-19 -14.5 -34 -39.5 l-63 47 Z" /><glyph glyph-name="" unicode="&#x2481;" d="M283 15 l0 471 l-94 -70 l-43 65 l150 111 l75 0 l0 -577 l-88 0 ZM208 684 q-32 -47 -52.5 -93.5 q-20.5 -46.5 -32.5 -91.5 q-12 -45 -16.5 -87.5 q-4.5 -42.5 -4.5 -79.5 l0 -46 q0 -36 4 -77.5 q4 -41.5 15.5 -87.5 q11.5 -46 32 -94.5 q20.5 -48.5 54.5 -98.5 l-74 0 q-32 42 -53.5 89 q-21.5 47 -34.5 94 q-13 47 -18.5 93 q-5.5 46 -5.5 87 l0 36 q0 40 5.5 85 q5.5 45 18.5 91.5 q13 46.5 34.5 92.5 q21.5 46 53.5 88 l74 0 ZM776 684 q32 -42 53.5 -88 q21.5 -46 34.5 -92.5 q13 -46.5 18.5 -91.5 q5.5 -45 5.5 -85 l0 -36 q0 -41 -5.5 -87 q-5.5 -46 -18.5 -93 q-13 -47 -34.5 -94 q-21.5 -47 -53.5 -89 l-74 0 q34 50 54.5 98.5 q20.5 48.5 32 94.5 q11.5 46 15.5 87.5 q4 41.5 4 77.5 l0 46 q0 37 -5 79.5 q-5 42.5 -17 87.5 q-12 45 -32.5 91.5 q-20.5 46.5 -51.5 93.5 l74 0 ZM696 386 l0 -176 l68 0 l0 -73 l-68 0 l0 -122 l-87 0 l0 122 l-213 0 l0 61 l177 394 l97 0 l-171 -382 l110 0 l0 176 l87 0 Z" /><glyph glyph-name="" unicode="&#x2482;" d="M283 15 l0 471 l-94 -70 l-43 65 l150 111 l75 0 l0 -577 l-88 0 ZM208 684 q-32 -47 -52.5 -93.5 q-20.5 -46.5 -32.5 -91.5 q-12 -45 -16.5 -87.5 q-4.5 -42.5 -4.5 -79.5 l0 -46 q0 -36 4 -77.5 q4 -41.5 15.5 -87.5 q11.5 -46 32 -94.5 q20.5 -48.5 54.5 -98.5 l-74 0 q-32 42 -53.5 89 q-21.5 47 -34.5 94 q-13 47 -18.5 93 q-5.5 46 -5.5 87 l0 36 q0 40 5.5 85 q5.5 45 18.5 91.5 q13 46.5 34.5 92.5 q21.5 46 53.5 88 l74 0 ZM776 684 q32 -42 53.5 -88 q21.5 -46 34.5 -92.5 q13 -46.5 18.5 -91.5 q5.5 -45 5.5 -85 l0 -36 q0 -41 -5.5 -87 q-5.5 -46 -18.5 -93 q-13 -47 -34.5 -94 q-21.5 -47 -53.5 -89 l-74 0 q34 50 54.5 98.5 q20.5 48.5 32 94.5 q11.5 46 15.5 87.5 q4 41.5 4 77.5 l0 46 q0 37 -5 79.5 q-5 42.5 -17 87.5 q-12 45 -32.5 91.5 q-20.5 46.5 -51.5 93.5 l74 0 ZM649 200 q0 51 -18.5 79 q-18.5 28 -62.5 28 q-30 0 -48.5 -14.5 q-18.5 -14.5 -32.5 -33.5 l-64 0 l18 331 l260 0 l0 -75 l-179 0 l-9 -168 q13 12 32 22 q19 10 48 10 q39 0 66.5 -14 q27.5 -14 45 -38.5 q17.5 -24.5 25.5 -56.5 q8 -32 8 -68 l0 -10 q0 -33 -8.5 -66.5 q-8.5 -33.5 -29.5 -60.5 q-21 -27 -55 -44 q-34 -17 -85 -17 q-54 0 -89.5 16.5 q-35.5 16.5 -74.5 48.5 l44 69 q18 -15 32.5 -25 q14.5 -10 28 -16.5 q13.5 -6.5 28 -9 q14.5 -2.5 32.5 -2.5 q47 0 67.5 31 q20.5 31 20.5 76 l0 8 Z" /><glyph glyph-name="" unicode="&#x2483;" d="" /><glyph glyph-name="" unicode="&#x2484;" d="" /><glyph glyph-name="" unicode="&#x2485;" d="" /><glyph glyph-name="" unicode="&#x2486;" d="" /><glyph glyph-name="" unicode="&#x2487;" d="" /><glyph glyph-name="" unicode="&#x249c;" d="M208 684 q-32 -47 -52.5 -93.5 q-20.5 -46.5 -32.5 -91.5 q-12 -45 -16.5 -87.5 q-4.5 -42.5 -4.5 -79.5 l0 -46 q0 -36 4 -77.5 q4 -41.5 15.5 -87.5 q11.5 -46 32 -94.5 q20.5 -48.5 54.5 -98.5 l-74 0 q-32 42 -53.5 89 q-21.5 47 -34.5 94 q-13 47 -18.5 93 q-5.5 46 -5.5 87 l0 36 q0 40 5.5 85 q5.5 45 18.5 91.5 q13 46.5 34.5 92.5 q21.5 46 53.5 88 l74 0 ZM776 684 q32 -42 53.5 -88 q21.5 -46 34.5 -92.5 q13 -46.5 18.5 -91.5 q5.5 -45 5.5 -85 l0 -36 q0 -41 -5.5 -87 q-5.5 -46 -18.5 -93 q-13 -47 -34.5 -94 q-21.5 -47 -53.5 -89 l-74 0 q34 50 54.5 98.5 q20.5 48.5 32 94.5 q11.5 46 15.5 87.5 q4 41.5 4 77.5 l0 46 q0 37 -5 79.5 q-5 42.5 -17 87.5 q-12 45 -32.5 91.5 q-20.5 46.5 -51.5 93.5 l74 0 ZM420 78 q-70 0 -109.5 32.5 q-39.5 32.5 -39.5 92.5 l0 23 q0 59 39 95.5 q39 36.5 127 36.5 l107 0 l0 21 q0 43 -18.5 62.5 q-18.5 19.5 -66.5 19.5 q-38 0 -69.5 -12.5 q-31.5 -12.5 -57.5 -32.5 l-45 67 q33 23 75 40.5 q42 17.5 97 17.5 q37 0 69.5 -9.5 q32.5 -9.5 55.5 -28 q23 -18.5 36.5 -45 q13.5 -26.5 13.5 -59.5 l0 -314 l-87 0 l-1 53 q-14 -30 -46.5 -45 q-32.5 -15 -79.5 -15 ZM544 282 l-106 0 q-43 0 -60.5 -16 q-17.5 -16 -17.5 -47 l0 -11 q0 -26 18.5 -39 q18.5 -13 50.5 -13 q52 0 83.5 23 q31.5 23 31.5 74 l0 29 Z" /><glyph glyph-name="" unicode="&#x249d;" d="M208 684 q-32 -47 -52.5 -93.5 q-20.5 -46.5 -32.5 -91.5 q-12 -45 -16.5 -87.5 q-4.5 -42.5 -4.5 -79.5 l0 -46 q0 -36 4 -77.5 q4 -41.5 15.5 -87.5 q11.5 -46 32 -94.5 q20.5 -48.5 54.5 -98.5 l-74 0 q-32 42 -53.5 89 q-21.5 47 -34.5 94 q-13 47 -18.5 93 q-5.5 46 -5.5 87 l0 36 q0 40 5.5 85 q5.5 45 18.5 91.5 q13 46.5 34.5 92.5 q21.5 46 53.5 88 l74 0 ZM776 684 q32 -42 53.5 -88 q21.5 -46 34.5 -92.5 q13 -46.5 18.5 -91.5 q5.5 -45 5.5 -85 l0 -36 q0 -41 -5.5 -87 q-5.5 -46 -18.5 -93 q-13 -47 -34.5 -94 q-21.5 -47 -53.5 -89 l-74 0 q34 50 54.5 98.5 q20.5 48.5 32 94.5 q11.5 46 15.5 87.5 q4 41.5 4 77.5 l0 46 q0 37 -5 79.5 q-5 42.5 -17 87.5 q-12 45 -32.5 91.5 q-20.5 46.5 -51.5 93.5 l74 0 ZM377 66 l0 -52 l-86 0 l0 620 l89 0 l0 -218 q23 31 57 42.5 q34 11.5 69 11.5 q85 0 128.5 -49 q43.5 -49 43.5 -140 l0 -81 q0 -91 -48.5 -141.5 q-48.5 -50.5 -128.5 -50.5 q-52 0 -80 17 q-28 17 -41 41 l-3 0 ZM589 266 q0 60 -26 93 q-26 33 -72 33 q-50 0 -80.5 -29.5 q-30.5 -29.5 -30.5 -78.5 l0 -106 q0 -16 8 -32.5 q8 -16.5 23 -29.5 q15 -13 35.5 -21.5 q20.5 -8.5 44.5 -8.5 q48 0 73 33.5 q25 33.5 25 93.5 l0 53 Z" /><glyph glyph-name="" unicode="&#x249e;" d="M208 684 q-32 -47 -52.5 -93.5 q-20.5 -46.5 -32.5 -91.5 q-12 -45 -16.5 -87.5 q-4.5 -42.5 -4.5 -79.5 l0 -46 q0 -36 4 -77.5 q4 -41.5 15.5 -87.5 q11.5 -46 32 -94.5 q20.5 -48.5 54.5 -98.5 l-74 0 q-32 42 -53.5 89 q-21.5 47 -34.5 94 q-13 47 -18.5 93 q-5.5 46 -5.5 87 l0 36 q0 40 5.5 85 q5.5 45 18.5 91.5 q13 46.5 34.5 92.5 q21.5 46 53.5 88 l74 0 ZM776 684 q32 -42 53.5 -88 q21.5 -46 34.5 -92.5 q13 -46.5 18.5 -91.5 q5.5 -45 5.5 -85 l0 -36 q0 -41 -5.5 -87 q-5.5 -46 -18.5 -93 q-13 -47 -34.5 -94 q-21.5 -47 -53.5 -89 l-74 0 q34 50 54.5 98.5 q20.5 48.5 32 94.5 q11.5 46 15.5 87.5 q4 41.5 4 77.5 l0 46 q0 37 -5 79.5 q-5 42.5 -17 87.5 q-12 45 -32.5 91.5 q-20.5 46.5 -51.5 93.5 l74 0 ZM468 540 q56 0 90.5 -13.5 q34.5 -13.5 62.5 -34.5 l-41 -68 q-26 21 -53 28.5 q-27 7.5 -59 7.5 q-21 0 -40 -6 q-19 -6 -34 -20 q-15 -14 -23.5 -37 q-8.5 -23 -8.5 -57 l0 -58 q0 -36 9 -60 q9 -24 24 -38.5 q15 -14.5 34.5 -20.5 q19.5 -6 39.5 -6 q43 0 71 11.5 q28 11.5 51 29.5 l42 -69 q-22 -19 -63 -35.5 q-41 -16.5 -102 -16.5 q-96 0 -146.5 53.5 q-50.5 53.5 -50.5 149.5 l0 59 q0 96 53 148.5 q53 52.5 144 52.5 Z" /><glyph glyph-name="" unicode="&#x249f;" d="M208 684 q-32 -47 -52.5 -93.5 q-20.5 -46.5 -32.5 -91.5 q-12 -45 -16.5 -87.5 q-4.5 -42.5 -4.5 -79.5 l0 -46 q0 -36 4 -77.5 q4 -41.5 15.5 -87.5 q11.5 -46 32 -94.5 q20.5 -48.5 54.5 -98.5 l-74 0 q-32 42 -53.5 89 q-21.5 47 -34.5 94 q-13 47 -18.5 93 q-5.5 46 -5.5 87 l0 36 q0 40 5.5 85 q5.5 45 18.5 91.5 q13 46.5 34.5 92.5 q21.5 46 53.5 88 l74 0 ZM776 684 q32 -42 53.5 -88 q21.5 -46 34.5 -92.5 q13 -46.5 18.5 -91.5 q5.5 -45 5.5 -85 l0 -36 q0 -41 -5.5 -87 q-5.5 -46 -18.5 -93 q-13 -47 -34.5 -94 q-21.5 -47 -53.5 -89 l-74 0 q34 50 54.5 98.5 q20.5 48.5 32 94.5 q11.5 46 15.5 87.5 q4 41.5 4 77.5 l0 46 q0 37 -5 79.5 q-5 42.5 -17 87.5 q-12 45 -32.5 91.5 q-20.5 46.5 -51.5 93.5 l74 0 ZM551 69 l-2 0 q-18 -34 -52 -47 q-34 -13 -78 -13 q-84 0 -127 49 q-43 49 -43 140 l0 81 q0 91 48.5 141.5 q48.5 50.5 128.5 50.5 q52 0 80.5 -17 q28.5 -17 40.5 -34 l0 215 l89 0 l0 -620 l-85 0 l0 54 ZM338 214 q0 -61 25.5 -94 q25.5 -33 72.5 -33 q23 0 43 8 q20 8 35 23 q15 15 24 35.5 q9 20.5 9 44.5 l0 105 q0 16 -8 32 q-8 16 -22.5 29 q-14.5 13 -35 20.5 q-20.5 7.5 -45.5 7.5 q-48 0 -73 -33 q-25 -33 -25 -92 l0 -53 Z" /><glyph glyph-name="" unicode="&#x24a0;" d="M208 684 q-32 -47 -52.5 -93.5 q-20.5 -46.5 -32.5 -91.5 q-12 -45 -16.5 -87.5 q-4.5 -42.5 -4.5 -79.5 l0 -46 q0 -36 4 -77.5 q4 -41.5 15.5 -87.5 q11.5 -46 32 -94.5 q20.5 -48.5 54.5 -98.5 l-74 0 q-32 42 -53.5 89 q-21.5 47 -34.5 94 q-13 47 -18.5 93 q-5.5 46 -5.5 87 l0 36 q0 40 5.5 85 q5.5 45 18.5 91.5 q13 46.5 34.5 92.5 q21.5 46 53.5 88 l74 0 ZM776 684 q32 -42 53.5 -88 q21.5 -46 34.5 -92.5 q13 -46.5 18.5 -91.5 q5.5 -45 5.5 -85 l0 -36 q0 -41 -5.5 -87 q-5.5 -46 -18.5 -93 q-13 -47 -34.5 -94 q-21.5 -47 -53.5 -89 l-74 0 q34 50 54.5 98.5 q20.5 48.5 32 94.5 q11.5 46 15.5 87.5 q4 41.5 4 77.5 l0 46 q0 37 -5 79.5 q-5 42.5 -17 87.5 q-12 45 -32.5 91.5 q-20.5 46.5 -51.5 93.5 l74 0 ZM564 346 l0 21 q0 42 -28 69 q-28 27 -76 27 q-23 0 -42.5 -7.5 q-19.5 -7.5 -33.5 -21 q-14 -13.5 -22.5 -32 q-8.5 -18.5 -8.5 -40.5 l0 -16 l211 0 ZM640 125 q-31 -21 -72.5 -34.5 q-41.5 -13.5 -104.5 -13.5 q-40 0 -76 11 q-36 11 -63.5 35 q-27.5 24 -44 63.5 q-16.5 39.5 -16.5 96.5 l0 50 q0 52 15.5 91 q15.5 39 42 65 q26.5 26 62.5 38.5 q36 12.5 77 12.5 q86 0 138.5 -51 q52.5 -51 52.5 -148 l0 -68 l-298 0 q0 -59 32 -88.5 q32 -29.5 83 -29.5 q42 0 74 10 q32 10 60 28 l38 -68 Z" /><glyph glyph-name="" unicode="&#x24a1;" d="M208 684 q-32 -47 -52.5 -93.5 q-20.5 -46.5 -32.5 -91.5 q-12 -45 -16.5 -87.5 q-4.5 -42.5 -4.5 -79.5 l0 -46 q0 -36 4 -77.5 q4 -41.5 15.5 -87.5 q11.5 -46 32 -94.5 q20.5 -48.5 54.5 -98.5 l-74 0 q-32 42 -53.5 89 q-21.5 47 -34.5 94 q-13 47 -18.5 93 q-5.5 46 -5.5 87 l0 36 q0 40 5.5 85 q5.5 45 18.5 91.5 q13 46.5 34.5 92.5 q21.5 46 53.5 88 l74 0 ZM776 684 q32 -42 53.5 -88 q21.5 -46 34.5 -92.5 q13 -46.5 18.5 -91.5 q5.5 -45 5.5 -85 l0 -36 q0 -41 -5.5 -87 q-5.5 -46 -18.5 -93 q-13 -47 -34.5 -94 q-21.5 -47 -53.5 -89 l-74 0 q34 50 54.5 98.5 q20.5 48.5 32 94.5 q11.5 46 15.5 87.5 q4 41.5 4 77.5 l0 46 q0 37 -5 79.5 q-5 42.5 -17 87.5 q-12 45 -32.5 91.5 q-20.5 46.5 -51.5 93.5 l74 0 ZM394 370 l-72 0 l0 78 l72 0 l0 47 q0 65 33.5 99 q33.5 34 103.5 34 q23 0 45.5 -4 q22.5 -4 36.5 -9 l-13 -72 q-15 4 -28.5 6 q-13.5 2 -31.5 2 q-26 0 -41 -13.5 q-15 -13.5 -15 -46.5 l0 -43 l115 0 l0 -78 l-115 0 l0 -366 l-90 0 l0 366 Z" /><glyph glyph-name="" unicode="&#x24a2;" d="M208 684 q-32 -47 -52.5 -93.5 q-20.5 -46.5 -32.5 -91.5 q-12 -45 -16.5 -87.5 q-4.5 -42.5 -4.5 -79.5 l0 -46 q0 -36 4 -77.5 q4 -41.5 15.5 -87.5 q11.5 -46 32 -94.5 q20.5 -48.5 54.5 -98.5 l-74 0 q-32 42 -53.5 89 q-21.5 47 -34.5 94 q-13 47 -18.5 93 q-5.5 46 -5.5 87 l0 36 q0 40 5.5 85 q5.5 45 18.5 91.5 q13 46.5 34.5 92.5 q21.5 46 53.5 88 l74 0 ZM776 684 q32 -42 53.5 -88 q21.5 -46 34.5 -92.5 q13 -46.5 18.5 -91.5 q5.5 -45 5.5 -85 l0 -36 q0 -41 -5.5 -87 q-5.5 -46 -18.5 -93 q-13 -47 -34.5 -94 q-21.5 -47 -53.5 -89 l-74 0 q34 50 54.5 98.5 q20.5 48.5 32 94.5 q11.5 46 15.5 87.5 q4 41.5 4 77.5 l0 46 q0 37 -5 79.5 q-5 42.5 -17 87.5 q-12 45 -32.5 91.5 q-20.5 46.5 -51.5 93.5 l74 0 ZM555 215 q-17 -30 -50.5 -42.5 q-33.5 -12.5 -75.5 -12.5 q-86 0 -128.5 49 q-42.5 49 -42.5 140 l0 74 q0 45 13 80.5 q13 35.5 36.5 60 q23.5 24.5 55.5 38 q32 13.5 71 13.5 q53 0 81 -17.5 q28 -17.5 40 -34.5 l0 43 l90 0 l0 -443 q0 -94 -50.5 -140 q-50.5 -46 -156.5 -46 q-45 0 -83 13.5 q-38 13.5 -65 34.5 l40 72 q18 -14 49.5 -26.5 q31.5 -12.5 61.5 -12.5 q114 0 114 106 l0 51 ZM347 365 q0 -61 25.5 -94 q25.5 -33 72.5 -33 q22 0 42.5 8 q20.5 8 35.5 23 q15 15 24 35.5 q9 20.5 9 44.5 l0 97 q0 35 -29 62 q-29 27 -82 27 q-48 0 -73 -33 q-25 -33 -25 -92 l0 -45 Z" /><glyph glyph-name="" unicode="&#x24a3;" d="M208 684 q-32 -47 -52.5 -93.5 q-20.5 -46.5 -32.5 -91.5 q-12 -45 -16.5 -87.5 q-4.5 -42.5 -4.5 -79.5 l0 -46 q0 -36 4 -77.5 q4 -41.5 15.5 -87.5 q11.5 -46 32 -94.5 q20.5 -48.5 54.5 -98.5 l-74 0 q-32 42 -53.5 89 q-21.5 47 -34.5 94 q-13 47 -18.5 93 q-5.5 46 -5.5 87 l0 36 q0 40 5.5 85 q5.5 45 18.5 91.5 q13 46.5 34.5 92.5 q21.5 46 53.5 88 l74 0 ZM776 684 q32 -42 53.5 -88 q21.5 -46 34.5 -92.5 q13 -46.5 18.5 -91.5 q5.5 -45 5.5 -85 l0 -36 q0 -41 -5.5 -87 q-5.5 -46 -18.5 -93 q-13 -47 -34.5 -94 q-21.5 -47 -53.5 -89 l-74 0 q34 50 54.5 98.5 q20.5 48.5 32 94.5 q11.5 46 15.5 87.5 q4 41.5 4 77.5 l0 46 q0 37 -5 79.5 q-5 42.5 -17 87.5 q-12 45 -32.5 91.5 q-20.5 46.5 -51.5 93.5 l74 0 ZM508 459 q30 0 58 -9 q28 -9 49.5 -28.5 q21.5 -19.5 34.5 -50.5 q13 -31 13 -74 l0 -293 l-90 0 l0 274 q0 60 -24 81 q-24 21 -66 21 q-16 0 -34.5 -5.5 q-18.5 -5.5 -34 -17.5 q-15.5 -12 -26 -32 q-10.5 -20 -10.5 -50 l0 -271 l-90 0 l0 620 l90 0 l0 -223 q22 31 55 44.5 q33 13.5 75 13.5 Z" /><glyph glyph-name="" unicode="&#x24a4;" d="M410 449 l89 0 l0 -446 l-89 0 l0 446 ZM407 614 l95 0 l0 -98 l-95 0 l0 98 ZM208 684 q-32 -47 -52.5 -93.5 q-20.5 -46.5 -32.5 -91.5 q-12 -45 -16.5 -87.5 q-4.5 -42.5 -4.5 -79.5 l0 -46 q0 -36 4 -77.5 q4 -41.5 15.5 -87.5 q11.5 -46 32 -94.5 q20.5 -48.5 54.5 -98.5 l-74 0 q-32 42 -53.5 89 q-21.5 47 -34.5 94 q-13 47 -18.5 93 q-5.5 46 -5.5 87 l0 36 q0 40 5.5 85 q5.5 45 18.5 91.5 q13 46.5 34.5 92.5 q21.5 46 53.5 88 l74 0 ZM776 684 q32 -42 53.5 -88 q21.5 -46 34.5 -92.5 q13 -46.5 18.5 -91.5 q5.5 -45 5.5 -85 l0 -36 q0 -41 -5.5 -87 q-5.5 -46 -18.5 -93 q-13 -47 -34.5 -94 q-21.5 -47 -53.5 -89 l-74 0 q34 50 54.5 98.5 q20.5 48.5 32 94.5 q11.5 46 15.5 87.5 q4 41.5 4 77.5 l0 46 q0 37 -5 79.5 q-5 42.5 -17 87.5 q-12 45 -32.5 91.5 q-20.5 46.5 -51.5 93.5 l74 0 Z" /><glyph glyph-name="" unicode="&#x24a5;" d="M208 684 q-32 -47 -52.5 -93.5 q-20.5 -46.5 -32.5 -91.5 q-12 -45 -16.5 -87.5 q-4.5 -42.5 -4.5 -79.5 l0 -46 q0 -36 4 -77.5 q4 -41.5 15.5 -87.5 q11.5 -46 32 -94.5 q20.5 -48.5 54.5 -98.5 l-74 0 q-32 42 -53.5 89 q-21.5 47 -34.5 94 q-13 47 -18.5 93 q-5.5 46 -5.5 87 l0 36 q0 40 5.5 85 q5.5 45 18.5 91.5 q13 46.5 34.5 92.5 q21.5 46 53.5 88 l74 0 ZM776 684 q32 -42 53.5 -88 q21.5 -46 34.5 -92.5 q13 -46.5 18.5 -91.5 q5.5 -45 5.5 -85 l0 -36 q0 -41 -5.5 -87 q-5.5 -46 -18.5 -93 q-13 -47 -34.5 -94 q-21.5 -47 -53.5 -89 l-74 0 q34 50 54.5 98.5 q20.5 48.5 32 94.5 q11.5 46 15.5 87.5 q4 41.5 4 77.5 l0 46 q0 37 -5 79.5 q-5 42.5 -17 87.5 q-12 45 -32.5 91.5 q-20.5 46.5 -51.5 93.5 l74 0 ZM441 614 l95 0 l0 -98 l-95 0 l0 98 ZM534 115 q0 -65 -36 -98.5 q-36 -33.5 -104 -33.5 q-23 0 -45.5 3.5 q-22.5 3.5 -36.5 8.5 l15 73 q15 -5 29.5 -6.5 q14.5 -1.5 28.5 -1.5 q9 0 18.5 1 q9.5 1 18 7 q8.5 6 14 18 q5.5 12 5.5 33 l0 330 l93 0 l0 -334 Z" /><glyph glyph-name="" unicode="&#x24a6;" d="M505 269 l183 -265 l-114 0 l-131 200 l-57 -59 l0 -141 l-90 0 l0 620 l90 0 l0 -369 l179 196 l115 0 l-175 -182 ZM208 684 q-32 -47 -52.5 -93.5 q-20.5 -46.5 -32.5 -91.5 q-12 -45 -16.5 -87.5 q-4.5 -42.5 -4.5 -79.5 l0 -46 q0 -36 4 -77.5 q4 -41.5 15.5 -87.5 q11.5 -46 32 -94.5 q20.5 -48.5 54.5 -98.5 l-74 0 q-32 42 -53.5 89 q-21.5 47 -34.5 94 q-13 47 -18.5 93 q-5.5 46 -5.5 87 l0 36 q0 40 5.5 85 q5.5 45 18.5 91.5 q13 46.5 34.5 92.5 q21.5 46 53.5 88 l74 0 ZM776 684 q32 -42 53.5 -88 q21.5 -46 34.5 -92.5 q13 -46.5 18.5 -91.5 q5.5 -45 5.5 -85 l0 -36 q0 -41 -5.5 -87 q-5.5 -46 -18.5 -93 q-13 -47 -34.5 -94 q-21.5 -47 -53.5 -89 l-74 0 q34 50 54.5 98.5 q20.5 48.5 32 94.5 q11.5 46 15.5 87.5 q4 41.5 4 77.5 l0 46 q0 37 -5 79.5 q-5 42.5 -17 87.5 q-12 45 -32.5 91.5 q-20.5 46.5 -51.5 93.5 l74 0 Z" /><glyph glyph-name="" unicode="&#x24a7;" d="M208 684 q-32 -47 -52.5 -93.5 q-20.5 -46.5 -32.5 -91.5 q-12 -45 -16.5 -87.5 q-4.5 -42.5 -4.5 -79.5 l0 -46 q0 -36 4 -77.5 q4 -41.5 15.5 -87.5 q11.5 -46 32 -94.5 q20.5 -48.5 54.5 -98.5 l-74 0 q-32 42 -53.5 89 q-21.5 47 -34.5 94 q-13 47 -18.5 93 q-5.5 46 -5.5 87 l0 36 q0 40 5.5 85 q5.5 45 18.5 91.5 q13 46.5 34.5 92.5 q21.5 46 53.5 88 l74 0 ZM776 684 q32 -42 53.5 -88 q21.5 -46 34.5 -92.5 q13 -46.5 18.5 -91.5 q5.5 -45 5.5 -85 l0 -36 q0 -41 -5.5 -87 q-5.5 -46 -18.5 -93 q-13 -47 -34.5 -94 q-21.5 -47 -53.5 -89 l-74 0 q34 50 54.5 98.5 q20.5 48.5 32 94.5 q11.5 46 15.5 87.5 q4 41.5 4 77.5 l0 46 q0 37 -5 79.5 q-5 42.5 -17 87.5 q-12 45 -32.5 91.5 q-20.5 46.5 -51.5 93.5 l74 0 ZM410 624 l89 0 l0 -620 l-89 0 l0 620 Z" /><glyph glyph-name="" unicode="&#x24a8;" d="M208 684 q-32 -47 -52.5 -93.5 q-20.5 -46.5 -32.5 -91.5 q-12 -45 -16.5 -87.5 q-4.5 -42.5 -4.5 -79.5 l0 -46 q0 -36 4 -77.5 q4 -41.5 15.5 -87.5 q11.5 -46 32 -94.5 q20.5 -48.5 54.5 -98.5 l-74 0 q-32 42 -53.5 89 q-21.5 47 -34.5 94 q-13 47 -18.5 93 q-5.5 46 -5.5 87 l0 36 q0 40 5.5 85 q5.5 45 18.5 91.5 q13 46.5 34.5 92.5 q21.5 46 53.5 88 l74 0 ZM776 684 q32 -42 53.5 -88 q21.5 -46 34.5 -92.5 q13 -46.5 18.5 -91.5 q5.5 -45 5.5 -85 l0 -36 q0 -41 -5.5 -87 q-5.5 -46 -18.5 -93 q-13 -47 -34.5 -94 q-21.5 -47 -53.5 -89 l-74 0 q34 50 54.5 98.5 q20.5 48.5 32 94.5 q11.5 46 15.5 87.5 q4 41.5 4 77.5 l0 46 q0 37 -5 79.5 q-5 42.5 -17 87.5 q-12 45 -32.5 91.5 q-20.5 46.5 -51.5 93.5 l74 0 ZM617 540 q62 0 98.5 -42.5 q36.5 -42.5 36.5 -123.5 l0 -289 l-90 0 l0 259 q0 60 -15.5 87 q-15.5 27 -54.5 27 q-15 0 -29 -4.5 q-14 -4.5 -25.5 -16 q-11.5 -11.5 -18.5 -31 q-7 -19.5 -7 -50.5 l0 -271 l-89 0 l0 259 q0 60 -16.5 87 q-16.5 27 -55.5 27 q-14 0 -28 -4 q-14 -4 -25 -14.5 q-11 -10.5 -18 -29 q-7 -18.5 -7 -46.5 l0 -279 l-90 0 l0 447 l87 0 l0 -60 q13 29 40 48.5 q27 19.5 68 19.5 q41 0 69 -20 q28 -20 42 -52 q18 32 47.5 52 q29.5 20 80.5 20 Z" /><glyph glyph-name="" unicode="&#x24a9;" d="M208 684 q-32 -47 -52.5 -93.5 q-20.5 -46.5 -32.5 -91.5 q-12 -45 -16.5 -87.5 q-4.5 -42.5 -4.5 -79.5 l0 -46 q0 -36 4 -77.5 q4 -41.5 15.5 -87.5 q11.5 -46 32 -94.5 q20.5 -48.5 54.5 -98.5 l-74 0 q-32 42 -53.5 89 q-21.5 47 -34.5 94 q-13 47 -18.5 93 q-5.5 46 -5.5 87 l0 36 q0 40 5.5 85 q5.5 45 18.5 91.5 q13 46.5 34.5 92.5 q21.5 46 53.5 88 l74 0 ZM776 684 q32 -42 53.5 -88 q21.5 -46 34.5 -92.5 q13 -46.5 18.5 -91.5 q5.5 -45 5.5 -85 l0 -36 q0 -41 -5.5 -87 q-5.5 -46 -18.5 -93 q-13 -47 -34.5 -94 q-21.5 -47 -53.5 -89 l-74 0 q34 50 54.5 98.5 q20.5 48.5 32 94.5 q11.5 46 15.5 87.5 q4 41.5 4 77.5 l0 46 q0 37 -5 79.5 q-5 42.5 -17 87.5 q-12 45 -32.5 91.5 q-20.5 46.5 -51.5 93.5 l74 0 ZM496 540 q30 0 58 -9 q28 -9 49.5 -28.5 q21.5 -19.5 34.5 -50.5 q13 -31 13 -74 l0 -293 l-90 0 l0 273 q0 60 -24 81 q-24 21 -66 21 q-16 0 -34.5 -5.5 q-18.5 -5.5 -34 -17.5 q-15.5 -12 -26 -32 q-10.5 -20 -10.5 -50 l0 -270 l-90 0 l0 447 l85 0 l0 -54 q24 34 58 48 q34 14 77 14 Z" /><glyph glyph-name="" unicode="&#x24aa;" d="M208 684 q-32 -47 -52.5 -93.5 q-20.5 -46.5 -32.5 -91.5 q-12 -45 -16.5 -87.5 q-4.5 -42.5 -4.5 -79.5 l0 -46 q0 -36 4 -77.5 q4 -41.5 15.5 -87.5 q11.5 -46 32 -94.5 q20.5 -48.5 54.5 -98.5 l-74 0 q-32 42 -53.5 89 q-21.5 47 -34.5 94 q-13 47 -18.5 93 q-5.5 46 -5.5 87 l0 36 q0 40 5.5 85 q5.5 45 18.5 91.5 q13 46.5 34.5 92.5 q21.5 46 53.5 88 l74 0 ZM776 684 q32 -42 53.5 -88 q21.5 -46 34.5 -92.5 q13 -46.5 18.5 -91.5 q5.5 -45 5.5 -85 l0 -36 q0 -41 -5.5 -87 q-5.5 -46 -18.5 -93 q-13 -47 -34.5 -94 q-21.5 -47 -53.5 -89 l-74 0 q34 50 54.5 98.5 q20.5 48.5 32 94.5 q11.5 46 15.5 87.5 q4 41.5 4 77.5 l0 46 q0 37 -5 79.5 q-5 42.5 -17 87.5 q-12 45 -32.5 91.5 q-20.5 46.5 -51.5 93.5 l74 0 ZM456 540 q94 0 148.5 -53 q54.5 -53 54.5 -150 l0 -57 q0 -97 -54.5 -150 q-54.5 -53 -148.5 -53 q-93 0 -148.5 53 q-55.5 53 -55.5 150 l0 57 q0 97 55.5 150 q55.5 53 148.5 53 ZM456 156 q54 0 83 32.5 q29 32.5 29 99.5 l0 41 q0 67 -29 99.5 q-29 32.5 -83 32.5 q-54 0 -83.5 -32.5 q-29.5 -32.5 -29.5 -99.5 l0 -41 q0 -67 29.5 -99.5 q29.5 -32.5 83.5 -32.5 Z" /><glyph glyph-name="" unicode="&#x24ab;" d="M208 684 q-32 -47 -52.5 -93.5 q-20.5 -46.5 -32.5 -91.5 q-12 -45 -16.5 -87.5 q-4.5 -42.5 -4.5 -79.5 l0 -46 q0 -36 4 -77.5 q4 -41.5 15.5 -87.5 q11.5 -46 32 -94.5 q20.5 -48.5 54.5 -98.5 l-74 0 q-32 42 -53.5 89 q-21.5 47 -34.5 94 q-13 47 -18.5 93 q-5.5 46 -5.5 87 l0 36 q0 40 5.5 85 q5.5 45 18.5 91.5 q13 46.5 34.5 92.5 q21.5 46 53.5 88 l74 0 ZM776 684 q32 -42 53.5 -88 q21.5 -46 34.5 -92.5 q13 -46.5 18.5 -91.5 q5.5 -45 5.5 -85 l0 -36 q0 -41 -5.5 -87 q-5.5 -46 -18.5 -93 q-13 -47 -34.5 -94 q-21.5 -47 -53.5 -89 l-74 0 q34 50 54.5 98.5 q20.5 48.5 32 94.5 q11.5 46 15.5 87.5 q4 41.5 4 77.5 l0 46 q0 37 -5 79.5 q-5 42.5 -17 87.5 q-12 45 -32.5 91.5 q-20.5 46.5 -51.5 93.5 l74 0 ZM505 140 q-23 0 -43 5.5 q-20 5.5 -35.5 14 q-15.5 8.5 -26 17.5 q-10.5 9 -14.5 17 l0 -223 l-89 0 l0 623 l86 0 l0 -52 q20 31 56 45.5 q36 14.5 73 14.5 q85 0 128.5 -51 q43.5 -51 43.5 -138 l0 -81 q0 -93 -48.5 -142.5 q-48.5 -49.5 -130.5 -49.5 ZM595 397 q0 60 -26 93.5 q-26 33.5 -72 33.5 q-50 0 -80.5 -29.5 q-30.5 -29.5 -30.5 -78.5 l0 -105 q0 -16 8 -32.5 q8 -16.5 23 -29.5 q15 -13 35.5 -21.5 q20.5 -8.5 44.5 -8.5 q48 0 73 33 q25 33 25 93 l0 52 Z" /><glyph glyph-name="" unicode="&#x24ac;" d="M208 684 q-32 -47 -52.5 -93.5 q-20.5 -46.5 -32.5 -91.5 q-12 -45 -16.5 -87.5 q-4.5 -42.5 -4.5 -79.5 l0 -46 q0 -36 4 -77.5 q4 -41.5 15.5 -87.5 q11.5 -46 32 -94.5 q20.5 -48.5 54.5 -98.5 l-74 0 q-32 42 -53.5 89 q-21.5 47 -34.5 94 q-13 47 -18.5 93 q-5.5 46 -5.5 87 l0 36 q0 40 5.5 85 q5.5 45 18.5 91.5 q13 46.5 34.5 92.5 q21.5 46 53.5 88 l74 0 ZM776 684 q32 -42 53.5 -88 q21.5 -46 34.5 -92.5 q13 -46.5 18.5 -91.5 q5.5 -45 5.5 -85 l0 -36 q0 -41 -5.5 -87 q-5.5 -46 -18.5 -93 q-13 -47 -34.5 -94 q-21.5 -47 -53.5 -89 l-74 0 q34 50 54.5 98.5 q20.5 48.5 32 94.5 q11.5 46 15.5 87.5 q4 41.5 4 77.5 l0 46 q0 37 -5 79.5 q-5 42.5 -17 87.5 q-12 45 -32.5 91.5 q-20.5 46.5 -51.5 93.5 l74 0 ZM548 196 q-20 -31 -52.5 -43.5 q-32.5 -12.5 -74.5 -12.5 q-88 0 -129.5 49.5 q-41.5 49.5 -41.5 140.5 l0 80 q0 91 48.5 141.5 q48.5 50.5 128.5 50.5 q52 0 80 -17 q28 -17 40 -34 l0 43 l90 0 l0 -623 l-89 0 l0 225 ZM339 345 q0 -60 25.5 -93 q25.5 -33 72.5 -33 q23 0 43 8 q20 8 35 23 q15 15 24 35.5 q9 20.5 9 44.5 l0 106 q0 16 -8 32 q-8 16 -23 28 q-15 12 -35.5 19.5 q-20.5 7.5 -44.5 7.5 q-48 0 -73 -33 q-25 -33 -25 -93 l0 -52 Z" /><glyph glyph-name="" unicode="&#x24ad;" d="M208 684 q-32 -47 -52.5 -93.5 q-20.5 -46.5 -32.5 -91.5 q-12 -45 -16.5 -87.5 q-4.5 -42.5 -4.5 -79.5 l0 -46 q0 -36 4 -77.5 q4 -41.5 15.5 -87.5 q11.5 -46 32 -94.5 q20.5 -48.5 54.5 -98.5 l-74 0 q-32 42 -53.5 89 q-21.5 47 -34.5 94 q-13 47 -18.5 93 q-5.5 46 -5.5 87 l0 36 q0 40 5.5 85 q5.5 45 18.5 91.5 q13 46.5 34.5 92.5 q21.5 46 53.5 88 l74 0 ZM776 684 q32 -42 53.5 -88 q21.5 -46 34.5 -92.5 q13 -46.5 18.5 -91.5 q5.5 -45 5.5 -85 l0 -36 q0 -41 -5.5 -87 q-5.5 -46 -18.5 -93 q-13 -47 -34.5 -94 q-21.5 -47 -53.5 -89 l-74 0 q34 50 54.5 98.5 q20.5 48.5 32 94.5 q11.5 46 15.5 87.5 q4 41.5 4 77.5 l0 46 q0 37 -5 79.5 q-5 42.5 -17 87.5 q-12 45 -32.5 91.5 q-20.5 46.5 -51.5 93.5 l74 0 ZM614 444 q-12 5 -24 8 q-12 3 -31 3 q-20 0 -38.5 -7.5 q-18.5 -7.5 -33.5 -21.5 q-15 -14 -24 -33.5 q-9 -19.5 -9 -43.5 l0 -264 l-90 0 l0 447 l87 0 l0 -68 q24 39 55 57.5 q31 18.5 80 18.5 q28 0 55 -9 l-27 -87 Z" /><glyph glyph-name="" unicode="&#x24ae;" d="M208 684 q-32 -47 -52.5 -93.5 q-20.5 -46.5 -32.5 -91.5 q-12 -45 -16.5 -87.5 q-4.5 -42.5 -4.5 -79.5 l0 -46 q0 -36 4 -77.5 q4 -41.5 15.5 -87.5 q11.5 -46 32 -94.5 q20.5 -48.5 54.5 -98.5 l-74 0 q-32 42 -53.5 89 q-21.5 47 -34.5 94 q-13 47 -18.5 93 q-5.5 46 -5.5 87 l0 36 q0 40 5.5 85 q5.5 45 18.5 91.5 q13 46.5 34.5 92.5 q21.5 46 53.5 88 l74 0 ZM776 684 q32 -42 53.5 -88 q21.5 -46 34.5 -92.5 q13 -46.5 18.5 -91.5 q5.5 -45 5.5 -85 l0 -36 q0 -41 -5.5 -87 q-5.5 -46 -18.5 -93 q-13 -47 -34.5 -94 q-21.5 -47 -53.5 -89 l-74 0 q34 50 54.5 98.5 q20.5 48.5 32 94.5 q11.5 46 15.5 87.5 q4 41.5 4 77.5 l0 46 q0 37 -5 79.5 q-5 42.5 -17 87.5 q-12 45 -32.5 91.5 q-20.5 46.5 -51.5 93.5 l74 0 ZM464 154 q39 0 61.5 13 q22.5 13 22.5 39 l0 6 q0 13 -3 21.5 q-3 8.5 -12.5 14.5 q-9.5 6 -28 11.5 q-18.5 5.5 -49.5 12.5 q-78 16 -117 46 q-39 30 -39 91 l0 9 q0 23 9.5 45 q9.5 22 30 39 q20.5 17 52.5 27.5 q32 10.5 77 10.5 q42 0 83.5 -9.5 q41.5 -9.5 77.5 -33.5 l-40 -68 q-20 15 -51.5 24.5 q-31.5 9.5 -60.5 9.5 q-49 0 -68.5 -13 q-19.5 -13 -19.5 -33 l0 -7 q0 -25 18.5 -36 q18.5 -11 70.5 -21 q40 -8 70.5 -18 q30.5 -10 50.5 -26 q20 -16 30 -39 q10 -23 10 -56 l0 -10 q0 -26 -11.5 -49 q-11.5 -23 -34 -40.5 q-22.5 -17.5 -54.5 -27.5 q-32 -10 -72 -10 q-57 0 -104 14.5 q-47 14.5 -79 39.5 l41 71 q30 -20 63.5 -34 q33.5 -14 75.5 -14 Z" /><glyph glyph-name="" unicode="&#x24af;" d="M208 684 q-32 -47 -52.5 -93.5 q-20.5 -46.5 -32.5 -91.5 q-12 -45 -16.5 -87.5 q-4.5 -42.5 -4.5 -79.5 l0 -46 q0 -36 4 -77.5 q4 -41.5 15.5 -87.5 q11.5 -46 32 -94.5 q20.5 -48.5 54.5 -98.5 l-74 0 q-32 42 -53.5 89 q-21.5 47 -34.5 94 q-13 47 -18.5 93 q-5.5 46 -5.5 87 l0 36 q0 40 5.5 85 q5.5 45 18.5 91.5 q13 46.5 34.5 92.5 q21.5 46 53.5 88 l74 0 ZM776 684 q32 -42 53.5 -88 q21.5 -46 34.5 -92.5 q13 -46.5 18.5 -91.5 q5.5 -45 5.5 -85 l0 -36 q0 -41 -5.5 -87 q-5.5 -46 -18.5 -93 q-13 -47 -34.5 -94 q-21.5 -47 -53.5 -89 l-74 0 q34 50 54.5 98.5 q20.5 48.5 32 94.5 q11.5 46 15.5 87.5 q4 41.5 4 77.5 l0 46 q0 37 -5 79.5 q-5 42.5 -17 87.5 q-12 45 -32.5 91.5 q-20.5 46.5 -51.5 93.5 l74 0 ZM377 396 l-72 0 l0 78 l72 0 l0 111 l90 0 l0 -111 l115 0 l0 -78 l-115 0 l0 -242 q0 -20 4.5 -30.5 q4.5 -10.5 12 -16 q7.5 -5.5 17 -6.5 q9.5 -1 20.5 -1 q28 0 57 11 l14 -72 q-14 -5 -37.5 -10.5 q-23.5 -5.5 -49.5 -5.5 q-66 0 -97 32.5 q-31 32.5 -31 98.5 l0 242 Z" /><glyph glyph-name="" unicode="&#x24b0;" d="M208 684 q-32 -47 -52.5 -93.5 q-20.5 -46.5 -32.5 -91.5 q-12 -45 -16.5 -87.5 q-4.5 -42.5 -4.5 -79.5 l0 -46 q0 -36 4 -77.5 q4 -41.5 15.5 -87.5 q11.5 -46 32 -94.5 q20.5 -48.5 54.5 -98.5 l-74 0 q-32 42 -53.5 89 q-21.5 47 -34.5 94 q-13 47 -18.5 93 q-5.5 46 -5.5 87 l0 36 q0 40 5.5 85 q5.5 45 18.5 91.5 q13 46.5 34.5 92.5 q21.5 46 53.5 88 l74 0 ZM776 684 q32 -42 53.5 -88 q21.5 -46 34.5 -92.5 q13 -46.5 18.5 -91.5 q5.5 -45 5.5 -85 l0 -36 q0 -41 -5.5 -87 q-5.5 -46 -18.5 -93 q-13 -47 -34.5 -94 q-21.5 -47 -53.5 -89 l-74 0 q34 50 54.5 98.5 q20.5 48.5 32 94.5 q11.5 46 15.5 87.5 q4 41.5 4 77.5 l0 46 q0 37 -5 79.5 q-5 42.5 -17 87.5 q-12 45 -32.5 91.5 q-20.5 46.5 -51.5 93.5 l74 0 ZM429 75 q-30 0 -57.5 9 q-27.5 9 -49 28.5 q-21.5 19.5 -34.5 50.5 q-13 31 -13 74 l0 294 l90 0 l0 -274 q0 -30 6 -50 q6 -20 18 -31.5 q12 -11.5 28.5 -16 q16.5 -4.5 37.5 -4.5 q16 0 34 5.5 q18 5.5 33 17.5 q15 12 25 32 q10 20 10 50 l0 271 l90 0 l0 -447 l-87 0 l0 54 q-24 -35 -56 -49 q-32 -14 -75 -14 Z" /><glyph glyph-name="" unicode="&#x24b1;" d="M208 684 q-32 -47 -52.5 -93.5 q-20.5 -46.5 -32.5 -91.5 q-12 -45 -16.5 -87.5 q-4.5 -42.5 -4.5 -79.5 l0 -46 q0 -36 4 -77.5 q4 -41.5 15.5 -87.5 q11.5 -46 32 -94.5 q20.5 -48.5 54.5 -98.5 l-74 0 q-32 42 -53.5 89 q-21.5 47 -34.5 94 q-13 47 -18.5 93 q-5.5 46 -5.5 87 l0 36 q0 40 5.5 85 q5.5 45 18.5 91.5 q13 46.5 34.5 92.5 q21.5 46 53.5 88 l74 0 ZM776 684 q32 -42 53.5 -88 q21.5 -46 34.5 -92.5 q13 -46.5 18.5 -91.5 q5.5 -45 5.5 -85 l0 -36 q0 -41 -5.5 -87 q-5.5 -46 -18.5 -93 q-13 -47 -34.5 -94 q-21.5 -47 -53.5 -89 l-74 0 q34 50 54.5 98.5 q20.5 48.5 32 94.5 q11.5 46 15.5 87.5 q4 41.5 4 77.5 l0 46 q0 37 -5 79.5 q-5 42.5 -17 87.5 q-12 45 -32.5 91.5 q-20.5 46.5 -51.5 93.5 l74 0 ZM400 85 l-149 446 l98 0 l109 -364 l2 0 l109 364 l95 0 l-148 -446 l-116 0 Z" /><glyph glyph-name="" unicode="&#x24b2;" d="M208 684 q-32 -47 -52.5 -93.5 q-20.5 -46.5 -32.5 -91.5 q-12 -45 -16.5 -87.5 q-4.5 -42.5 -4.5 -79.5 l0 -46 q0 -36 4 -77.5 q4 -41.5 15.5 -87.5 q11.5 -46 32 -94.5 q20.5 -48.5 54.5 -98.5 l-74 0 q-32 42 -53.5 89 q-21.5 47 -34.5 94 q-13 47 -18.5 93 q-5.5 46 -5.5 87 l0 36 q0 40 5.5 85 q5.5 45 18.5 91.5 q13 46.5 34.5 92.5 q21.5 46 53.5 88 l74 0 ZM776 684 q32 -42 53.5 -88 q21.5 -46 34.5 -92.5 q13 -46.5 18.5 -91.5 q5.5 -45 5.5 -85 l0 -36 q0 -41 -5.5 -87 q-5.5 -46 -18.5 -93 q-13 -47 -34.5 -94 q-21.5 -47 -53.5 -89 l-74 0 q34 50 54.5 98.5 q20.5 48.5 32 94.5 q11.5 46 15.5 87.5 q4 41.5 4 77.5 l0 46 q0 37 -5 79.5 q-5 42.5 -17 87.5 q-12 45 -32.5 91.5 q-20.5 46.5 -51.5 93.5 l74 0 ZM270 85 l-111 446 l96 0 l72 -351 l2 0 l88 351 l87 0 l85 -351 l3 0 l74 351 l90 0 l-109 -446 l-106 0 l-81 329 l-3 0 l-80 -329 l-107 0 Z" /><glyph glyph-name="" unicode="&#x24b3;" d="M208 684 q-32 -47 -52.5 -93.5 q-20.5 -46.5 -32.5 -91.5 q-12 -45 -16.5 -87.5 q-4.5 -42.5 -4.5 -79.5 l0 -46 q0 -36 4 -77.5 q4 -41.5 15.5 -87.5 q11.5 -46 32 -94.5 q20.5 -48.5 54.5 -98.5 l-74 0 q-32 42 -53.5 89 q-21.5 47 -34.5 94 q-13 47 -18.5 93 q-5.5 46 -5.5 87 l0 36 q0 40 5.5 85 q5.5 45 18.5 91.5 q13 46.5 34.5 92.5 q21.5 46 53.5 88 l74 0 ZM776 684 q32 -42 53.5 -88 q21.5 -46 34.5 -92.5 q13 -46.5 18.5 -91.5 q5.5 -45 5.5 -85 l0 -36 q0 -41 -5.5 -87 q-5.5 -46 -18.5 -93 q-13 -47 -34.5 -94 q-21.5 -47 -53.5 -89 l-74 0 q34 50 54.5 98.5 q20.5 48.5 32 94.5 q11.5 46 15.5 87.5 q4 41.5 4 77.5 l0 46 q0 37 -5 79.5 q-5 42.5 -17 87.5 q-12 45 -32.5 91.5 q-20.5 46.5 -51.5 93.5 l74 0 ZM520 315 l142 -230 l-111 0 l-92 169 l-94 -169 l-104 0 l144 230 l-137 214 l110 0 l89 -156 l90 156 l100 0 l-137 -214 Z" /><glyph glyph-name="" unicode="&#x24b4;" d="M208 684 q-32 -47 -52.5 -93.5 q-20.5 -46.5 -32.5 -91.5 q-12 -45 -16.5 -87.5 q-4.5 -42.5 -4.5 -79.5 l0 -46 q0 -36 4 -77.5 q4 -41.5 15.5 -87.5 q11.5 -46 32 -94.5 q20.5 -48.5 54.5 -98.5 l-74 0 q-32 42 -53.5 89 q-21.5 47 -34.5 94 q-13 47 -18.5 93 q-5.5 46 -5.5 87 l0 36 q0 40 5.5 85 q5.5 45 18.5 91.5 q13 46.5 34.5 92.5 q21.5 46 53.5 88 l74 0 ZM776 684 q32 -42 53.5 -88 q21.5 -46 34.5 -92.5 q13 -46.5 18.5 -91.5 q5.5 -45 5.5 -85 l0 -36 q0 -41 -5.5 -87 q-5.5 -46 -18.5 -93 q-13 -47 -34.5 -94 q-21.5 -47 -53.5 -89 l-74 0 q34 50 54.5 98.5 q20.5 48.5 32 94.5 q11.5 46 15.5 87.5 q4 41.5 4 77.5 l0 46 q0 37 -5 79.5 q-5 42.5 -17 87.5 q-12 45 -32.5 91.5 q-20.5 46.5 -51.5 93.5 l74 0 ZM356 595 l105 -340 l5 0 l114 340 l93 0 l-235 -627 l-81 29 l56 149 l-157 449 l100 0 Z" /><glyph glyph-name="" unicode="&#x24b5;" d="M208 684 q-32 -47 -52.5 -93.5 q-20.5 -46.5 -32.5 -91.5 q-12 -45 -16.5 -87.5 q-4.5 -42.5 -4.5 -79.5 l0 -46 q0 -36 4 -77.5 q4 -41.5 15.5 -87.5 q11.5 -46 32 -94.5 q20.5 -48.5 54.5 -98.5 l-74 0 q-32 42 -53.5 89 q-21.5 47 -34.5 94 q-13 47 -18.5 93 q-5.5 46 -5.5 87 l0 36 q0 40 5.5 85 q5.5 45 18.5 91.5 q13 46.5 34.5 92.5 q21.5 46 53.5 88 l74 0 ZM776 684 q32 -42 53.5 -88 q21.5 -46 34.5 -92.5 q13 -46.5 18.5 -91.5 q5.5 -45 5.5 -85 l0 -36 q0 -41 -5.5 -87 q-5.5 -46 -18.5 -93 q-13 -47 -34.5 -94 q-21.5 -47 -53.5 -89 l-74 0 q34 50 54.5 98.5 q20.5 48.5 32 94.5 q11.5 46 15.5 87.5 q4 41.5 4 77.5 l0 46 q0 37 -5 79.5 q-5 42.5 -17 87.5 q-12 45 -32.5 91.5 q-20.5 46.5 -51.5 93.5 l74 0 ZM634 458 l-231 -293 l244 0 l0 -80 l-362 0 l0 64 l239 301 l-222 0 l0 81 l332 0 l0 -73 Z" /><glyph glyph-name="" unicode="&#x24b6;" d="" /><glyph glyph-name="" unicode="&#x24b7;" d="" /><glyph glyph-name="" unicode="&#x24b8;" d="" /><glyph glyph-name="" unicode="&#x24b9;" d="" /><glyph glyph-name="" unicode="&#x24ba;" d="" /><glyph glyph-name="" unicode="&#x24bb;" d="" /><glyph glyph-name="" unicode="&#x24bc;" d="" /><glyph glyph-name="" unicode="&#x24bd;" d="" /><glyph glyph-name="" unicode="&#x24be;" d="" /><glyph glyph-name="" unicode="&#x24bf;" d="" /><glyph glyph-name="" unicode="&#x24c0;" d="" /><glyph glyph-name="" unicode="&#x24c1;" d="" /><glyph glyph-name="" unicode="&#x24c2;" d="" /><glyph glyph-name="" unicode="&#x24c3;" d="" /><glyph glyph-name="" unicode="&#x24c4;" d="" /><glyph glyph-name="" unicode="&#x24c5;" d="" /><glyph glyph-name="" unicode="&#x24c6;" d="" /><glyph glyph-name="" unicode="&#x24c7;" d="" /><glyph glyph-name="" unicode="&#x24c8;" d="" /><glyph glyph-name="" unicode="&#x24c9;" d="" /><glyph glyph-name="" unicode="&#x24ca;" d="" /><glyph glyph-name="" unicode="&#x24cb;" d="" /><glyph glyph-name="" unicode="&#x24cc;" d="" /><glyph glyph-name="" unicode="&#x24cd;" d="" /><glyph glyph-name="" unicode="&#x24ce;" d="" /><glyph glyph-name="" unicode="&#x24cf;" d="" /><glyph glyph-name="" unicode="&#x24d0;" d="M828 306 q0 82 -28 151 q-28 69 -77.5 119 q-49.5 50 -118 78.5 q-68.5 28.5 -149.5 28.5 q-81 0 -149.5 -28.5 q-68.5 -28.5 -118 -78.5 q-49.5 -50 -77.5 -119 q-28 -69 -28 -151 q0 -82 28 -151 q28 -69 77.5 -119.5 q49.5 -50.5 118 -78.5 q68.5 -28 149.5 -28 q81 0 149.5 28 q68.5 28 118 78.5 q49.5 50.5 77.5 119.5 q28 69 28 151 ZM892 306 q0 -95 -33 -175 q-33 -80 -91.5 -138.5 q-58.5 -58.5 -138.5 -91.5 q-80 -33 -174 -33 q-95 0 -175 33 q-80 33 -138.5 91.5 q-58.5 58.5 -91 138.5 q-32.5 80 -32.5 175 q0 94 32.5 174.5 q32.5 80.5 91 139 q58.5 58.5 138.5 91.5 q80 33 175 33 q94 0 174 -33 q80 -33 138.5 -91.5 q58.5 -58.5 91.5 -139 q33 -80.5 33 -174.5 ZM421 100 q-64 0 -100.5 31 q-36.5 31 -36.5 85 l0 20 q0 54 34.5 88 q34.5 34 117.5 34 l96 0 l0 16 q0 39 -16 56 q-16 17 -60 17 q-35 0 -62.5 -11.5 q-27.5 -11.5 -52.5 -28.5 l-42 63 q30 21 68.5 37 q38.5 16 89.5 16 q70 0 115 -33.5 q45 -33.5 45 -96.5 l0 -287 l-81 0 l0 49 l-1 0 q-5 -12 -14.5 -21 q-9.5 -9 -18.5 -15 q-16 -10 -34 -14.5 q-18 -4.5 -47 -4.5 ZM532 285 l-94 0 q-38 0 -54 -13.5 q-16 -13.5 -16 -41.5 l0 -10 q0 -23 16.5 -34.5 q16.5 -11.5 44.5 -11.5 q29 0 48 6.5 q19 6.5 35 20.5 q14 12 17 26 q3 14 3 37 l0 21 Z" /><glyph glyph-name="" unicode="&#x24d1;" d="M828 306 q0 82 -28 151 q-28 69 -77.5 119 q-49.5 50 -118 78.5 q-68.5 28.5 -149.5 28.5 q-81 0 -149.5 -28.5 q-68.5 -28.5 -118 -78.5 q-49.5 -50 -77.5 -119 q-28 -69 -28 -151 q0 -82 28 -151 q28 -69 77.5 -119.5 q49.5 -50.5 118 -78.5 q68.5 -28 149.5 -28 q81 0 149.5 28 q68.5 28 118 78.5 q49.5 50.5 77.5 119.5 q28 69 28 151 ZM892 306 q0 -95 -33 -175 q-33 -80 -91.5 -138.5 q-58.5 -58.5 -138.5 -91.5 q-80 -33 -174 -33 q-95 0 -175 33 q-80 33 -138.5 91.5 q-58.5 58.5 -91 138.5 q-32.5 80 -32.5 175 q0 94 32.5 174.5 q32.5 80.5 91 139 q58.5 58.5 138.5 91.5 q80 33 175 33 q94 0 174 -33 q80 -33 138.5 -91.5 q58.5 -58.5 91.5 -139 q33 -80.5 33 -174.5 ZM385 82 l0 -48 l-83 0 l0 567 l86 0 l0 -199 q10 15 24 24.5 q14 9.5 29 14.5 q15 5 30.5 7 q15.5 2 29.5 2 q79 0 118.5 -45.5 q39.5 -45.5 39.5 -128.5 l0 -72 q0 -84 -44.5 -130 q-44.5 -46 -117.5 -46 q-43 0 -71 16 q-28 16 -40 38 l-1 0 ZM575 262 q0 54 -21 84 q-21 30 -67 30 q-46 0 -73.5 -27 q-27.5 -27 -27.5 -71 l0 -92 q0 -15 7.5 -29.5 q7.5 -14.5 21 -26.5 q13.5 -12 32 -19.5 q18.5 -7.5 40.5 -7.5 q42 0 65 29.5 q23 29.5 23 83.5 l0 46 Z" /></font>
</defs>
</svg>
