<?xml version="1.0" standalone="no"?><!DOCTYPE svg PUBLIC "-//W3C//DTD SVG 1.1//EN" "http://www.w3.org/Graphics/SVG/1.1/DTD/svg11.dtd" ><svg xmlns="http://www.w3.org/2000/svg"><metadata></metadata><defs><font id="1.000;SAND;NanumSquareRoundR;170922_01;" horiz-adv-x="1250"><font-face font-family="NanumSquareRound Regular" font-weight="400" font-stretch="normal" units-per-em="1000" panose-1="2 11 6 0 0 1 1 1 1 1" ascent="850" descent="-255" x-height="1" bbox="-78 -255 1182 879" underline-thickness="50" underline-position="-185" unicode-range="U+0000-ffe6" /><missing-glyph horiz-adv-x="910" d="M757 788 q32 0 44 -12.5 q12 -12.5 12 -46.5 l0 -782 q0 -34 -12 -46.5 q-12 -12.5 -44 -12.5 l-604 0 q-32 0 -44 12.5 q-12 12.5 -12 46.5 l0 782 q0 34 12 46.5 q12 12.5 44 12.5 l604 0 ZM754 753 l-598 0 l299 -385 l299 385 ZM431 339 l-296 383 l0 -766 l296 383 ZM775 -44 l0 766 l-296 -383 l296 -383 ZM756 -77 l-301 386 l-301 -386 l602 0 Z" /><glyph glyph-name="cid1" unicode="  " d="" /><glyph glyph-name="cid2" unicode="!" d="M143 735 q18 0 29 -8.5 q11 -8.5 11 -26.5 l-9 -487 q0 -17 -9 -24.5 q-9 -7.5 -22 -7.5 q-14 0 -22.5 7.5 q-8.5 7.5 -9.5 24.5 l-8 487 q-1 18 10.5 26.5 q11.5 8.5 29.5 8.5 ZM143 85 q23 0 39.5 -16.5 q16.5 -16.5 16.5 -39.5 q0 -23 -16.5 -39 q-16.5 -16 -39.5 -16 q-24 0 -40 16 q-16 16 -16 39 q0 23 16 39.5 q16 16.5 40 16.5 Z" /><glyph glyph-name="cid3" unicode="&quot;" d="M116 735 q16 0 28 -8 q12 -8 11 -25 l-8 -184 q-1 -29 -31 -29 q-29 0 -30 29 l-8 184 q-1 17 10.5 25 q11.5 8 27.5 8 ZM260 735 q16 0 28 -8 q12 -8 10 -25 l-8 -184 q0 -29 -30 -29 q-30 0 -30 29 l-8 184 q-2 17 10 25 q12 8 28 8 Z" /><glyph glyph-name="cid4" unicode="#" d="M242 719 q14 -1 21 -8.5 q7 -7.5 5 -21.5 l-24 -171 l148 0 l26 176 q3 27 34 25 q13 -1 20 -8.5 q7 -7.5 5 -21.5 l-24 -171 l83 0 q14 0 20 -9 q6 -9 6 -22 q0 -12 -6 -21 q-6 -9 -20 -9 l-92 0 l-26 -190 l85 0 q14 0 20 -9 q6 -9 6 -22 q0 -12 -6 -21 q-6 -9 -20 -9 l-93 0 l-25 -179 q-3 -27 -34 -24 q-14 1 -21 8.5 q-7 7.5 -5 21.5 l24 173 l-149 0 l-24 -179 q-5 -27 -35 -24 q-13 1 -20 8.5 q-7 7.5 -5 21.5 l24 173 l-83 0 q-14 0 -20 9 q-6 9 -6 21 q0 13 6 22 q6 9 20 9 l91 0 l27 190 l-86 0 q-13 0 -19 9 q-6 9 -6 21 q0 13 6 22 q6 9 19 9 l94 0 l25 176 q2 14 11 20 q9 6 23 5 ZM358 267 l27 190 l-150 0 l-26 -190 l149 0 Z" /><glyph glyph-name="cid5" unicode="$" d="M302 775 q10 0 17.5 -5 q7.5 -5 7.5 -16 l0 -47 q48 -2 91.5 -14.5 q43.5 -12.5 77.5 -32.5 q12 -8 14 -20 q2 -12 -4 -24 q-7 -11 -17.5 -14.5 q-10.5 -3.5 -22.5 3.5 q-65 37 -139 40 l0 -251 q66 -17 108.5 -35 q42.5 -18 66.5 -39.5 q24 -21.5 33 -49 q9 -27.5 9 -62.5 l0 -15 q0 -81 -59 -128 q-59 -47 -158 -52 l0 -59 q0 -11 -7.5 -16 q-7.5 -5 -17.5 -5 q-10 0 -17.5 5 q-7.5 5 -7.5 16 l0 58 q-57 3 -109.5 19 q-52.5 16 -94.5 43 q-13 8 -15.5 21 q-2.5 13 5.5 25 q8 13 19.5 15.5 q11.5 2.5 24.5 -5.5 q38 -25 81 -39.5 q43 -14.5 89 -16.5 l0 265 q-110 25 -160 66.5 q-50 41.5 -50 116.5 l0 15 q0 67 52.5 115 q52.5 48 157.5 55 l0 47 q0 11 7.5 16 q7.5 5 17.5 5 ZM277 644 q-66 -5 -103 -33.5 q-37 -28.5 -37 -73.5 l0 -13 q0 -23 6 -40 q6 -17 21.5 -30.5 q15.5 -13.5 42.5 -25 q27 -11.5 70 -22.5 l0 238 ZM327 75 q72 5 109.5 38 q37.5 33 37.5 78 l0 11 q0 23 -5.5 41 q-5.5 18 -21 32 q-15.5 14 -44.5 26.5 q-29 12.5 -76 25.5 l0 -252 Z" /><glyph glyph-name="cid6" unicode="%" d="M226 726 q79 0 118 -46.5 q39 -46.5 39 -127.5 l0 -23 q0 -81 -39 -127.5 q-39 -46.5 -118 -46.5 q-79 0 -118 46.5 q-39 46.5 -39 127.5 l0 23 q0 81 39 127.5 q39 46.5 118 46.5 ZM660 715 q11 -6 14.5 -16 q3.5 -10 -3.5 -22 l-407 -663 q-7 -11 -17.5 -12.5 q-10.5 -1.5 -21.5 3.5 q-11 5 -15 15.5 q-4 10.5 4 22.5 l406 663 q7 11 18 12.5 q11 1.5 22 -3.5 ZM226 672 q-50 0 -73.5 -29.5 q-23.5 -29.5 -23.5 -94.5 l0 -16 q0 -64 23.5 -93.5 q23.5 -29.5 73.5 -29.5 q49 0 73 29.5 q24 29.5 24 93.5 l0 16 q0 65 -24 94.5 q-24 29.5 -73 29.5 ZM657 365 q79 0 118 -46.5 q39 -46.5 39 -128.5 l0 -22 q0 -81 -39 -127.5 q-39 -46.5 -118 -46.5 q-79 0 -118 46.5 q-39 46.5 -39 127.5 l0 22 q0 82 39 128.5 q39 46.5 118 46.5 ZM657 311 q-49 0 -73 -29.5 q-24 -29.5 -24 -94.5 l0 -16 q0 -65 24 -94 q24 -29 73 -29 q50 0 73.5 29 q23.5 29 23.5 94 l0 16 q0 65 -23.5 94.5 q-23.5 29.5 -73.5 29.5 Z" /><glyph glyph-name="cid7" unicode="&amp;" d="M615 54 q11 -13 9.5 -25.5 q-1.5 -12.5 -12.5 -20.5 q-11 -9 -24 -8.5 q-13 0.5 -22 11.5 l-66 75 q-42 -42 -98.5 -67.5 q-56.5 -25.5 -129.5 -25.5 q-47 0 -89.5 12 q-42.5 12 -74.5 35 q-32 23 -51 56 q-19 33 -19 75 l0 14 q0 35 9.5 62.5 q9.5 27.5 31 52.5 q21.5 25 57 49 q35.5 24 87.5 51 l-22 25 q-29 33 -52 69.5 q-23 36.5 -23 79.5 l0 11 q0 30 12.5 56 q12.5 26 35 45 q22.5 19 55 29.5 q32.5 10.5 72.5 10.5 q42 0 74 -12 q32 -12 54 -32 q22 -20 33.5 -45.5 q11.5 -25.5 11.5 -52.5 l0 -12 q0 -24 -7.5 -47 q-7.5 -23 -25 -46.5 q-17.5 -23.5 -46 -47 q-28.5 -23.5 -71.5 -47.5 l173 -196 q20 36 30 77.5 q10 41.5 12 85.5 q0 14 10 21.5 q10 7.5 23 6.5 q15 -1 24 -8.5 q9 -7.5 9 -21.5 q-2 -56 -18 -110 q-16 -54 -46 -101 l74 -84 ZM194 576 q0 -32 21 -62 q21 -30 54 -68 l14 -16 q67 37 95.5 71.5 q28.5 34.5 28.5 73.5 l0 5 q0 35 -27.5 60 q-27.5 25 -78.5 25 q-51 0 -79 -24 q-28 -24 -28 -60 l0 -5 ZM276 57 q59 0 104.5 20.5 q45.5 20.5 77.5 55.5 l-193 220 q-48 -26 -78.5 -47.5 q-30.5 -21.5 -47.5 -41 q-17 -19.5 -23 -39.5 q-6 -20 -6 -42 l0 -9 q0 -26 13 -47.5 q13 -21.5 35.5 -37 q22.5 -15.5 52.5 -24 q30 -8.5 65 -8.5 Z" /><glyph glyph-name="cid8" unicode="&#39;" d="M116 735 q16 0 28 -8 q12 -8 11 -25 l-8 -184 q-1 -29 -31 -29 q-29 0 -30 29 l-8 184 q-1 17 10.5 25 q11.5 8 27.5 8 Z" /><glyph glyph-name="cid9" unicode="(" d="M246 796 q11 -6 13.5 -16.5 q2.5 -10.5 -4.5 -21.5 q-57 -89 -85 -190 q-28 -101 -28 -216 l0 -31 q0 -115 28 -216.5 q28 -101.5 85 -190.5 q7 -11 4.5 -21 q-2.5 -10 -13.5 -16 q-22 -13 -41 9 q-69 86 -103.5 199 q-34.5 113 -34.5 241 l0 21 q0 128 34.5 241 q34.5 113 103.5 199 q18 21 41 9 Z" /><glyph glyph-name="cid10" unicode=")" d="M72 796 q23 12 41 -9 q69 -86 104 -199 q35 -113 35 -241 l0 -21 q0 -128 -35 -241 q-35 -113 -104 -199 q-19 -22 -41 -9 q-10 6 -12.5 16 q-2.5 10 3.5 21 q58 89 85.5 190.5 q27.5 101.5 27.5 216.5 l0 31 q0 115 -27.5 216 q-27.5 101 -85.5 190 q-6 11 -3.5 21.5 q2.5 10.5 12.5 16.5 Z" /><glyph glyph-name="cid11" unicode="*" d="M230 745 q14 0 24 -7.5 q10 -7.5 8 -20.5 l-10 -134 l114 75 q10 7 21.5 3 q11.5 -4 17.5 -17 q7 -12 4.5 -23.5 q-2.5 -11.5 -15.5 -16.5 l-125 -60 l125 -58 q13 -5 15.5 -17 q2.5 -12 -4.5 -24 q-6 -12 -17.5 -16 q-11.5 -4 -21.5 3 l-113 74 l9 -132 q2 -14 -8 -21 q-10 -7 -24 -7 q-14 0 -23.5 7 q-9.5 7 -7.5 21 l9 132 l-112 -74 q-11 -7 -22 -3 q-11 4 -18 16 q-6 12 -3.5 24 q2.5 12 15.5 17 l124 58 l-124 60 q-13 5 -15.5 16.5 q-2.5 11.5 3.5 23.5 q7 13 18 17 q11 4 22 -3 l112 -75 l-9 134 q-2 13 7.5 20.5 q9.5 7.5 23.5 7.5 Z" /><glyph glyph-name="cid12" unicode="+" d="M298 611 q13 0 23 -6.5 q10 -6.5 10 -20.5 l0 -194 l191 0 q13 0 19 -8.5 q6 -8.5 6 -22.5 q0 -12 -6 -21 q-6 -9 -19 -9 l-191 0 l0 -209 q0 -14 -10 -20.5 q-10 -6.5 -23 -6.5 q-13 0 -23.5 6.5 q-10.5 6.5 -10.5 20.5 l0 209 l-190 0 q-13 0 -19 9 q-6 9 -6 21 q0 14 6 22.5 q6 8.5 19 8.5 l190 0 l0 194 q0 14 10.5 20.5 q10.5 6.5 23.5 6.5 Z" /><glyph glyph-name="cid13" unicode="," d="M129 86 q20 -3 29 -16.5 q9 -13.5 2 -33.5 l-49 -163 q-5 -15 -15 -20.5 q-10 -5.5 -23 -3.5 q-28 4 -23 34 l27 169 q3 21 18 29 q15 8 34 5 Z" /><glyph glyph-name="cid14" unicode="-" d="M343 391 q14 0 20 -9 q6 -9 6 -23 q0 -14 -6 -23 q-6 -9 -20 -9 l-269 0 q-13 0 -19 9 q-6 9 -6 23 q0 14 6 23 q6 9 19 9 l269 0 l0 0 Z" /><glyph glyph-name="cid15" unicode="." d="M115 87 q25 0 41 -16.5 q16 -16.5 16 -40.5 q0 -23 -16 -39.5 q-16 -16.5 -41 -16.5 q-24 0 -40.5 16.5 q-16.5 16.5 -16.5 39.5 q0 24 16.5 40.5 q16.5 16.5 40.5 16.5 Z" /><glyph glyph-name="cid16" unicode="/" d="M356 798 q13 -4 20 -14 q7 -10 2 -24 l-288 -867 q-5 -15 -17.5 -19 q-12.5 -4 -25.5 1 q-13 4 -19.5 13.5 q-6.5 9.5 -1.5 23.5 l287 868 q5 15 17.5 19 q12.5 4 25.5 -1 Z" /><glyph glyph-name="cid17" unicode="0" d="M300 726 q132 0 189 -86.5 q57 -86.5 57 -252.5 l0 -55 q0 -167 -57 -253 q-57 -86 -189 -86 q-132 0 -189 86 q-57 86 -57 253 l0 55 q0 166 57 252.5 q57 86.5 189 86.5 ZM300 658 q-49 0 -82 -16.5 q-33 -16.5 -53.5 -51 q-20.5 -34.5 -29 -87 q-8.5 -52.5 -8.5 -123.5 l0 -41 q0 -71 8.5 -123.5 q8.5 -52.5 29 -87 q20.5 -34.5 53.5 -51 q33 -16.5 82 -16.5 q49 0 82 16.5 q33 16.5 53.5 51 q20.5 34.5 29 87 q8.5 52.5 8.5 123.5 l0 41 q0 71 -8.5 123.5 q-8.5 52.5 -29 87 q-20.5 34.5 -53.5 51 q-33 16.5 -82 16.5 Z" /><glyph glyph-name="cid18" unicode="1" d="M363 719 q17 0 28 -7.5 q11 -7.5 11 -24.5 l0 -657 q0 -16 -11 -23 q-11 -7 -26 -7 q-14 0 -25 7 q-11 7 -11 23 l0 601 l-170 -108 q-14 -8 -25.5 -3 q-11.5 5 -19.5 17 q-7 11 -5.5 24 q1.5 13 14.5 21 l189 118 q32 19 51 19 Z" /><glyph glyph-name="cid19" unicode="2" d="M300 726 q52 0 92 -13.5 q40 -13.5 67 -37.5 q27 -24 40.5 -56 q13.5 -32 13.5 -69 l0 -9 q0 -28 -5.5 -52.5 q-5.5 -24.5 -17 -48.5 q-11.5 -24 -29.5 -48 q-18 -24 -43 -51 l-249 -274 l348 0 q14 0 20.5 -9 q6.5 -9 6.5 -22 q0 -14 -6.5 -23 q-6.5 -9 -20.5 -9 l-389 0 q-30 0 -42.5 9.5 q-12.5 9.5 -12.5 29.5 q0 10 5.5 20 q5.5 10 21.5 28 l255 280 q25 28 41.5 50 q16.5 22 26.5 41.5 q10 19.5 13.5 37.5 q3.5 18 3.5 39 l0 6 q0 53 -35 84 q-35 31 -103 31 q-56 0 -93 -24 q-37 -24 -66 -68 q-8 -11 -20.5 -13.5 q-12.5 -2.5 -24.5 5.5 q-12 8 -15.5 20.5 q-3.5 12.5 4.5 25.5 q32 51 84 85.5 q52 34.5 129 34.5 Z" /><glyph glyph-name="cid20" unicode="3" d="M289 726 q52 0 92.5 -13.5 q40.5 -13.5 68.5 -38 q28 -24.5 42.5 -57.5 q14.5 -33 14.5 -72 l0 -5 q0 -23 -6.5 -47.5 q-6.5 -24.5 -21.5 -46.5 q-15 -22 -39.5 -40.5 q-24.5 -18.5 -59.5 -30.5 q70 -11 113 -53.5 q43 -42.5 43 -111.5 l0 -10 q0 -40 -14.5 -77.5 q-14.5 -37.5 -44 -66 q-29.5 -28.5 -75 -46 q-45.5 -17.5 -107.5 -17.5 q-60 0 -114.5 17.5 q-54.5 17.5 -96.5 46.5 q-13 9 -15 22 q-2 13 6 27 q18 29 46 10 q38 -27 80.5 -42 q42.5 -15 90.5 -15 q45 0 77.5 12 q32.5 12 53 32.5 q20.5 20.5 30.5 46 q10 25.5 10 52.5 l0 8 q0 40 -16 65.5 q-16 25.5 -40.5 40 q-24.5 14.5 -55 20 q-30.5 5.5 -59.5 5.5 l-62 0 q-14 0 -20 9 q-6 9 -6 23 q0 14 6 23.5 q6 9.5 20 9.5 l57 0 q27 0 53.5 7.5 q26.5 7.5 48 23.5 q21.5 16 34.5 41 q13 25 13 61 l0 3 q0 53 -37.5 86 q-37.5 33 -109.5 33 q-48 0 -82.5 -18.5 q-34.5 -18.5 -61.5 -52.5 q-10 -11 -22.5 -11 q-12.5 0 -22.5 11 q-11 10 -11.5 22 q-0.5 12 7.5 23 q29 38 77.5 64.5 q48.5 26.5 115.5 26.5 Z" /><glyph glyph-name="cid21" unicode="4" d="M422 712 q13 -8 16.5 -20 q3.5 -12 -6.5 -27 l-306 -440 l277 0 l0 202 q0 16 11 23 q11 7 25 7 q14 0 25.5 -7 q11.5 -7 11.5 -23 l0 -202 l85 0 q14 0 19.5 -9 q5.5 -9 5.5 -22 q0 -13 -5.5 -22 q-5.5 -9 -19.5 -9 l-85 0 l0 -133 q0 -16 -11.5 -23 q-11.5 -7 -25.5 -7 q-14 0 -25 7 q-11 7 -11 23 l0 133 l-314 0 q-29 0 -40.5 9 q-11.5 9 -11.5 28 q0 8 4 17 q4 9 21 33 l315 455 q9 13 21.5 14 q12.5 1 23.5 -7 Z" /><glyph glyph-name="cid22" unicode="5" d="M479 715 q14 0 20 -9 q6 -9 6 -23 q0 -14 -6 -23 q-6 -9 -20 -9 l-287 0 l-16 -260 q26 23 65 39 q39 16 89 16 q51 0 91.5 -16 q40.5 -16 68.5 -45 q28 -29 42.5 -69 q14.5 -40 14.5 -88 l0 -11 q0 -40 -13 -80 q-13 -40 -42 -72 q-29 -32 -76 -52 q-47 -20 -114 -20 q-64 0 -119 17 q-55 17 -96 45 q-14 9 -16 22.5 q-2 13.5 6 26.5 q17 28 46 11 q38 -25 82 -40 q44 -15 97 -15 q46 0 79 13.5 q33 13.5 53.5 36 q20.5 22.5 30 50.5 q9.5 28 9.5 58 l0 7 q0 81 -42 119.5 q-42 38.5 -119 38.5 q-44 0 -77 -14 q-33 -14 -59 -37 q-11 -10 -19 -14 q-8 -4 -21 -4 q-14 0 -24 7.5 q-10 7.5 -9 21.5 l18 305 q2 39 15.5 53 q13.5 14 51.5 14 l290 0 l0 0 Z" /><glyph glyph-name="cid23" unicode="6" d="M337 726 q49 0 91 -11 q42 -11 70 -27 q13 -8 16 -19.5 q3 -11.5 -3 -25.5 q-6 -13 -17.5 -17 q-11.5 -4 -25.5 3 q-29 14 -60.5 22 q-31.5 8 -71.5 8 q-50 0 -85 -20.5 q-35 -20.5 -59 -58.5 q-24 -38 -37 -93.5 q-13 -55.5 -17 -124.5 q12 24 31.5 42 q19.5 18 44.5 31 q25 13 53 19.5 q28 6.5 58 6.5 q51 0 92 -15.5 q41 -15.5 70.5 -44.5 q29.5 -29 45 -70.5 q15.5 -41.5 15.5 -92.5 l0 -16 q0 -53 -18 -95.5 q-18 -42.5 -49.5 -72 q-31.5 -29.5 -75 -45.5 q-43.5 -16 -94.5 -16 q-54 0 -98.5 18.5 q-44.5 18.5 -77 55.5 q-32.5 37 -50.5 93.5 q-18 56.5 -18 132.5 l0 21 q0 114 19.5 193 q19.5 79 54.5 127.5 q35 48.5 85 70 q50 21.5 111 21.5 ZM313 397 q-39 0 -70.5 -12.5 q-31.5 -12.5 -53 -33.5 q-21.5 -21 -33 -49.5 q-11.5 -28.5 -11.5 -60.5 l0 -5 q0 -40 12 -72.5 q12 -32.5 34 -55.5 q22 -23 52.5 -35.5 q30.5 -12.5 66.5 -12.5 q73 0 119.5 41.5 q46.5 41.5 46.5 122.5 l0 7 q0 81 -41 123.5 q-41 42.5 -122 42.5 Z" /><glyph glyph-name="cid24" unicode="7" d="M495 715 q29 0 41 -9.5 q12 -9.5 12 -29.5 q0 -11 -4 -24 q-4 -13 -17 -41 l-269 -592 q-7 -15 -20.5 -17.5 q-13.5 -2.5 -26.5 2.5 q-12 5 -18.5 16.5 q-6.5 11.5 1.5 27.5 l276 603 l-386 0 q-14 0 -20.5 9 q-6.5 9 -6.5 23 q0 14 6.5 23 q6.5 9 20.5 9 l411 0 l0 0 Z" /><glyph glyph-name="cid25" unicode="8" d="M300 726 q49 0 88.5 -14 q39.5 -14 67.5 -39 q28 -25 43 -58 q15 -33 15 -72 l0 -11 q0 -55 -30.5 -97.5 q-30.5 -42.5 -83.5 -66.5 q63 -17 99.5 -63.5 q36.5 -46.5 36.5 -105.5 l0 -12 q0 -43 -17 -79 q-17 -36 -47.5 -61.5 q-30.5 -25.5 -74 -39.5 q-43.5 -14 -96.5 -14 q-54 0 -98 14 q-44 14 -74.5 39.5 q-30.5 25.5 -47.5 61.5 q-17 36 -17 79 l0 12 q0 60 36.5 106 q36.5 46 98.5 63 q-52 23 -82.5 66 q-30.5 43 -30.5 98 l0 11 q0 39 15 72 q15 33 42.5 58 q27.5 25 67 39 q39.5 14 89.5 14 ZM300 661 q-68 0 -105.5 -35 q-37.5 -35 -37.5 -90 l0 -7 q0 -29 10.5 -52.5 q10.5 -23.5 29.5 -40.5 q19 -17 45.5 -26.5 q26.5 -9.5 58.5 -9.5 q64 0 103 36 q39 36 39 93 l0 7 q0 55 -38.5 90 q-38.5 35 -104.5 35 ZM301 335 q-35 0 -64.5 -9 q-29.5 -9 -52 -27 q-22.5 -18 -35 -44 q-12.5 -26 -12.5 -59 l0 -7 q0 -55 43 -93 q43 -38 121 -38 q78 0 120 38 q42 38 42 93 l0 7 q0 32 -12 58 q-12 26 -34 44 q-22 18 -51.5 27.5 q-29.5 9.5 -64.5 9.5 Z" /><glyph glyph-name="cid26" unicode="9" d="M294 726 q55 0 100 -18 q45 -18 77 -55 q32 -37 49.5 -93.5 q17.5 -56.5 17.5 -132.5 l0 -22 q0 -120 -18.5 -199 q-18.5 -79 -53.5 -126.5 q-35 -47.5 -85 -67 q-50 -19.5 -113 -19.5 q-49 0 -90.5 11 q-41.5 11 -70.5 28 q-26 17 -12 46 q6 14 18 18 q12 4 26 -3 q28 -16 60.5 -24.5 q32.5 -8.5 71.5 -8.5 q48 0 83.5 16.5 q35.5 16.5 59.5 51.5 q24 35 37 91 q13 56 16 136 q-12 -24 -31.5 -42 q-19.5 -18 -44.5 -31 q-25 -13 -53 -19.5 q-28 -6.5 -58 -6.5 q-51 0 -92 15.5 q-41 15.5 -70.5 44.5 q-29.5 29 -45 70 q-15.5 41 -15.5 93 l0 18 q0 53 18 95.5 q18 42.5 49.5 72 q31.5 29.5 75 45.5 q43.5 16 94.5 16 ZM295 659 q-73 0 -119.5 -41.5 q-46.5 -41.5 -46.5 -122.5 l0 -9 q0 -81 41 -123.5 q41 -42.5 122 -42.5 q39 0 70.5 12.5 q31.5 12.5 53 34 q21.5 21.5 33 50 q11.5 28.5 11.5 60.5 l0 6 q0 40 -12 73 q-12 33 -33.5 55.5 q-21.5 22.5 -52 35 q-30.5 12.5 -67.5 12.5 Z" /><glyph glyph-name="cid27" unicode=":" d="M146 582 q25 0 41 -16.5 q16 -16.5 16 -40.5 q0 -23 -16 -39.5 q-16 -16.5 -41 -16.5 q-24 0 -40.5 16.5 q-16.5 16.5 -16.5 39.5 q0 24 16.5 40.5 q16.5 16.5 40.5 16.5 ZM146 200 q25 0 41 -16.5 q16 -16.5 16 -40.5 q0 -23 -16 -39.5 q-16 -16.5 -41 -16.5 q-24 0 -40.5 16.5 q-16.5 16.5 -16.5 39.5 q0 24 16.5 40.5 q16.5 16.5 40.5 16.5 Z" /><glyph glyph-name="cid28" unicode=";" d="M146 582 q25 0 41 -16.5 q16 -16.5 16 -40.5 q0 -23 -16 -39.5 q-16 -16.5 -41 -16.5 q-24 0 -40.5 16.5 q-16.5 16.5 -16.5 39.5 q0 24 16.5 40.5 q16.5 16.5 40.5 16.5 ZM161 199 q20 -3 29 -16.5 q9 -13.5 2 -33.5 l-49 -163 q-10 -29 -39 -24 q-28 5 -23 34 l27 169 q4 21 19 29 q15 8 34 5 Z" /><glyph glyph-name="cid29" unicode="&lt;" d="M500 619 q14 8 25.5 4 q11.5 -4 17.5 -17 q6 -13 4.5 -25 q-1.5 -12 -15.5 -19 l-386 -201 l0 -2 l386 -202 q14 -7 15.5 -19 q1.5 -12 -4.5 -25 q-6 -13 -17.5 -17 q-11.5 -4 -25.5 4 l-399 213 q-23 12 -29 22 q-6 10 -6 25 q0 14 6 24 q6 10 29 22 l399 213 l0 0 Z" /><glyph glyph-name="cid30" unicode="=" d="M507 496 q14 0 20 -9 q6 -9 6 -23 q0 -13 -6 -22 q-6 -9 -20 -9 l-409 0 q-13 0 -19 9 q-6 9 -6 22 q0 14 6 23 q6 9 19 9 l409 0 ZM507 285 q14 0 20 -9 q6 -9 6 -22 q0 -14 -6 -23 q-6 -9 -20 -9 l-409 0 q-13 0 -19 9 q-6 9 -6 23 q0 13 6 22 q6 9 19 9 l409 0 Z" /><glyph glyph-name="cid31" unicode="&gt;" d="M523 406 q23 -12 29 -22 q6 -10 6 -24 q0 -15 -6 -25 q-6 -10 -29 -22 l-399 -213 q-14 -8 -25.5 -4 q-11.5 4 -17.5 17 q-6 13 -4.5 25 q1.5 12 15.5 19 l386 202 l0 2 l-386 201 q-14 7 -15.5 19 q-1.5 12 4.5 25 q6 13 17.5 17 q11.5 4 25.5 -4 l399 -213 l0 0 Z" /><glyph glyph-name="cid32" unicode="?" d="M255 726 q49 0 88.5 -13 q39.5 -13 67.5 -36.5 q28 -23.5 42.5 -56.5 q14.5 -33 14.5 -74 l0 -11 q0 -50 -26 -89.5 q-26 -39.5 -78 -85.5 q-31 -28 -49 -48 q-18 -20 -27.5 -36.5 q-9.5 -16.5 -12 -32 q-2.5 -15.5 -2.5 -34.5 q0 -14 -10.5 -21 q-10.5 -7 -23.5 -7 q-14 0 -25 7 q-11 7 -11 22 q0 25 3 46 q3 21 13.5 41 q10.5 20 29 42 q18.5 22 50.5 50 q27 24 45.5 43.5 q18.5 19.5 30 36 q11.5 16.5 16 32.5 q4.5 16 4.5 34 l0 8 q0 53 -36.5 85 q-36.5 32 -102.5 32 q-51 0 -86 -17 q-35 -17 -64 -43 q-11 -9 -23.5 -7.5 q-12.5 1.5 -21.5 12.5 q-10 11 -9.5 23.5 q0.5 12.5 11.5 22.5 q32 30 81.5 52.5 q49.5 22.5 110.5 22.5 ZM238 85 q24 0 40 -16.5 q16 -16.5 16 -39.5 q0 -23 -16 -39 q-16 -16 -40 -16 q-23 0 -39.5 16 q-16.5 16 -16.5 39 q0 23 16.5 39.5 q16.5 16.5 39.5 16.5 Z" /><glyph glyph-name="cid33" unicode="@" d="M485 756 q110 0 194 -31 q84 -31 140.5 -87.5 q56.5 -56.5 85.5 -134.5 q29 -78 29 -172 l0 -4 q0 -42 -8 -86.5 q-8 -44.5 -28 -81.5 q-20 -37 -54.5 -61 q-34.5 -24 -87.5 -24 q-40 0 -74.5 20 q-34.5 20 -48.5 66 l-1 0 q-10 -24 -29 -40 q-19 -16 -41 -26 q-22 -10 -44.5 -14 q-22.5 -4 -40.5 -4 q-48 0 -83.5 15 q-35.5 15 -59 42.5 q-23.5 27.5 -34.5 66 q-11 38.5 -11 84.5 l0 43 q0 100 50 153.5 q50 53.5 135 53.5 q51 0 87 -19 q36 -19 52 -48 l0 35 q0 15 10 21.5 q10 6.5 24 6.5 q13 0 23.5 -6.5 q10.5 -6.5 10.5 -21.5 l0 -288 q0 -42 22.5 -62.5 q22.5 -20.5 54.5 -20.5 q55 0 85 47.5 q30 47.5 30 146.5 l0 3 q0 85 -24.5 153.5 q-24.5 68.5 -73 117 q-48.5 48.5 -121 74.5 q-72.5 26 -169.5 26 q-82 0 -150 -26.5 q-68 -26.5 -117 -76.5 q-49 -50 -76 -121 q-27 -71 -27 -160 l0 -6 q0 -93 26 -166.5 q26 -73.5 75.5 -125 q49.5 -51.5 122 -79 q72.5 -27.5 165.5 -27.5 q78 0 145 15 q67 15 121 40 q12 5 22.5 2.5 q10.5 -2.5 15.5 -13.5 q6 -12 3.5 -23.5 q-2.5 -11.5 -14.5 -16.5 q-56 -27 -129 -44 q-73 -17 -161 -17 q-105 0 -189 31.5 q-84 31.5 -142.5 90 q-58.5 58.5 -90 143 q-31.5 84.5 -31.5 189.5 l0 8 q0 95 30 176 q30 81 85.5 139.5 q55.5 58.5 135.5 91.5 q80 33 180 33 ZM484 471 q-60 0 -92.5 -37 q-32.5 -37 -32.5 -112 l0 -33 q0 -72 28 -110.5 q28 -38.5 97 -38.5 q59 0 93 35 q34 35 34 92 l0 98 q0 21 -9 40.5 q-9 19.5 -25.5 34 q-16.5 14.5 -40 23 q-23.5 8.5 -52.5 8.5 Z" /><glyph glyph-name="cid34" unicode="a" d="M331 719 q15 0 26 -7 q11 -7 18 -25 l248 -640 q6 -16 -0.5 -27.5 q-6.5 -11.5 -20.5 -16.5 q-15 -5 -28.5 -1.5 q-13.5 3.5 -19.5 20.5 l-75 199 l-300 0 l-76 -200 q-6 -16 -19 -19.5 q-13 -3.5 -28 1.5 q-14 5 -19.5 16 q-5.5 11 0.5 27 l249 641 q7 18 18.5 25 q11.5 7 26.5 7 ZM330 632 q-11 -36 -23 -71.5 q-12 -35.5 -29 -77.5 l-76 -200 l255 0 l-74 200 q-16 41 -29 78 q-13 37 -24 71 Z" /><glyph glyph-name="cid35" unicode="b" d="M336 715 q115 0 169 -43 q54 -43 54 -133 l0 -16 q0 -24 -6 -46.5 q-6 -22.5 -20 -42 q-14 -19.5 -36.5 -34 q-22.5 -14.5 -54.5 -22.5 q70 -10 110 -49 q40 -39 40 -115 l0 -20 q0 -89 -53.5 -139.5 q-53.5 -50.5 -169.5 -50.5 l-210 0 q-38 0 -52.5 14 q-14.5 14 -14.5 52 l0 579 q0 38 14.5 52 q14.5 14 52.5 14 l177 0 ZM326 407 q79 0 119 27 q40 27 40 90 l0 13 q0 58 -37.5 86.5 q-37.5 28.5 -126.5 28.5 l-157 0 l0 -245 l162 0 ZM349 67 q85 0 126.5 30 q41.5 30 41.5 102 l0 17 q0 31 -9.5 55.5 q-9.5 24.5 -32 40.5 q-22.5 16 -58.5 24.5 q-36 8.5 -89 8.5 l-164 0 l0 -278 l185 0 Z" /><glyph glyph-name="cid36" unicode="c" d="M351 726 q67 0 117 -14.5 q50 -14.5 88 -38.5 q13 -9 14.5 -22 q1.5 -13 -6.5 -26 q-8 -11 -19.5 -14.5 q-11.5 -3.5 -24.5 4.5 q-35 22 -74 32.5 q-39 10.5 -97 10.5 q-211 0 -211 -279 l0 -39 q0 -138 51.5 -208 q51.5 -70 161.5 -70 q60 0 105.5 14.5 q45.5 14.5 82.5 43.5 q11 8 24 6 q13 -2 22 -14 q10 -13 8.5 -27 q-1.5 -14 -15.5 -24 q-41 -32 -97 -50 q-56 -18 -131 -18 q-143 0 -214.5 85.5 q-71.5 85.5 -71.5 253.5 l0 55 q0 168 72 253.5 q72 85.5 215 85.5 Z" /><glyph glyph-name="cid37" unicode="d" d="M320 715 q151 0 225.5 -80 q74.5 -80 74.5 -238 l0 -75 q0 -158 -78 -238 q-78 -80 -222 -80 l-161 0 q-38 0 -52.5 14 q-14.5 14 -14.5 52 l0 579 q0 38 14.5 52 q14.5 14 52.5 14 l161 0 ZM313 68 q115 0 174 64 q59 64 59 194 l0 64 q0 131 -54.5 196 q-54.5 65 -179.5 65 l-147 0 l0 -583 l148 0 Z" /><glyph glyph-name="cid38" unicode="e" d="M506 715 q14 0 20 -9 q6 -9 6 -23 q0 -13 -6 -22 q-6 -9 -20 -9 l-341 0 l0 -252 l321 0 q13 0 19 -9 q6 -9 6 -22 q0 -13 -6 -22 q-6 -9 -19 -9 l-321 0 l0 -271 l348 0 q14 0 20 -9 q6 -9 6 -22 q0 -14 -6 -23 q-6 -9 -20 -9 l-354 0 q-38 0 -52.5 14 q-14.5 14 -14.5 52 l0 579 q0 38 14.5 52 q14.5 14 52.5 14 l347 0 l0 0 Z" /><glyph glyph-name="cid39" unicode="f" d="M499 715 q14 0 20 -9 q6 -9 6 -23 q0 -14 -6 -23 q-6 -9 -20 -9 l-334 0 l0 -263 l313 0 q14 0 20 -9 q6 -9 6 -22 q0 -14 -6 -23 q-6 -9 -20 -9 l-313 0 l0 -295 q0 -16 -11 -23 q-11 -7 -26 -7 q-14 0 -25 7 q-11 7 -11 23 l0 619 q0 38 14.5 52 q14.5 14 52.5 14 l340 0 l0 0 Z" /><glyph glyph-name="cid40" unicode="g" d="M362 726 q69 0 119.5 -14.5 q50.5 -14.5 87.5 -38.5 q14 -9 15.5 -22 q1.5 -13 -6.5 -26 q-18 -26 -44 -10 q-35 21 -74.5 32.5 q-39.5 11.5 -97.5 11.5 q-118 0 -171 -68.5 q-53 -68.5 -53 -211.5 l0 -39 q0 -143 53 -211.5 q53 -68.5 173 -68.5 q105 0 169 37 l0 224 l-158 0 q-14 0 -20 9 q-6 9 -6 23 q0 13 6 22.5 q6 9.5 20 9.5 l161 0 q39 0 54 -14.5 q15 -14.5 15 -52.5 l0 -212 q0 -29 -9.5 -45.5 q-9.5 -16.5 -33.5 -27.5 q-34 -17 -84 -28.5 q-50 -11.5 -116 -11.5 q-298 0 -298 339 l0 55 q0 171 73 255 q73 84 225 84 Z" /><glyph glyph-name="cid41" unicode="h" d="M128 719 q15 0 26 -7 q11 -7 11 -23 l0 -281 l370 0 l0 281 q0 16 11 23 q11 7 25 7 q15 0 26 -7 q11 -7 11 -23 l0 -659 q0 -16 -11 -23 q-11 -7 -26 -7 q-14 0 -25 7 q-11 7 -11 23 l0 315 l-370 0 l0 -315 q0 -16 -11 -23 q-11 -7 -26 -7 q-14 0 -25 7 q-11 7 -11 23 l0 659 q0 16 11 23 q11 7 25 7 Z" /><glyph glyph-name="cid42" unicode="i" d="M128 719 q15 0 26 -7 q11 -7 11 -23 l0 -659 q0 -16 -11 -23 q-11 -7 -26 -7 q-14 0 -25 7 q-11 7 -11 23 l0 659 q0 16 11 23 q11 7 25 7 Z" /><glyph glyph-name="cid43" unicode="j" d="M341 719 q15 0 26 -7 q11 -7 11 -23 l0 -497 q0 -102 -49.5 -150.5 q-49.5 -48.5 -143.5 -48.5 q-42 0 -80 11 q-38 11 -66 30 q-12 8 -14 21 q-2 13 6 26 q8 12 19 16 q11 4 25 -4 q24 -15 50.5 -23.5 q26.5 -8.5 58.5 -8.5 q62 0 91.5 34 q29.5 34 29.5 110 l0 484 q0 16 11 23 q11 7 25 7 Z" /><glyph glyph-name="cid44" unicode="k" d="M128 719 q15 0 26 -7 q11 -7 11 -23 l0 -342 l350 362 q11 11 25 10 q14 -1 23 -10 q10 -10 12 -23 q2 -13 -9 -24 l-252 -256 l276 -349 q11 -14 8.5 -26.5 q-2.5 -12.5 -14.5 -22.5 q-12 -9 -25.5 -8 q-13.5 1 -24.5 15 l-270 343 l-99 -100 l0 -228 q0 -16 -11 -23 q-11 -7 -26 -7 q-14 0 -25 7 q-11 7 -11 23 l0 659 q0 16 11 23 q11 7 25 7 Z" /><glyph glyph-name="cid45" unicode="l" d="M128 719 q15 0 26 -7 q11 -7 11 -23 l0 -621 l335 0 q14 0 20.5 -9 q6.5 -9 6.5 -23 q0 -14 -6.5 -23 q-6.5 -9 -20.5 -9 l-341 0 q-38 0 -52.5 14 q-14.5 14 -14.5 52 l0 619 q0 16 11 23 q11 7 25 7 Z" /><glyph glyph-name="cid46" unicode="m" d="M149 716 q22 0 34 -9 q12 -9 26 -41 l218 -460 l213 459 q13 32 25.5 41.5 q12.5 9.5 34.5 9.5 l8 0 q27 0 38 -13.5 q11 -13.5 11 -45.5 l0 -628 q0 -15 -10.5 -22 q-10.5 -7 -24.5 -7 q-14 0 -24 7 q-10 7 -10 22 l0 603 q-12 -34 -23 -59.5 q-11 -25.5 -24 -53.5 l-174 -371 q-8 -17 -17.5 -23 q-9.5 -6 -23.5 -6 q-17 0 -26 6.5 q-9 6.5 -17 23.5 l-174 370 q-13 27 -24 53 q-11 26 -24 60 l0 -603 q0 -15 -10.5 -22 q-10.5 -7 -24.5 -7 q-13 0 -23.5 7 q-10.5 7 -10.5 22 l0 628 q0 32 11 45.5 q11 13.5 38 13.5 l8 0 l0 0 Z" /><glyph glyph-name="cid47" unicode="n" d="M573 719 q14 0 24.5 -7 q10.5 -7 10.5 -22 l0 -624 q0 -35 -13 -49 q-13 -14 -41 -14 q-10 0 -18 2 q-8 2 -15.5 7 q-7.5 5 -15 15 q-7.5 10 -16.5 27 l-293 498 q-10 17 -19 36 q-9 19 -16 40 l0 -599 q0 -15 -10.5 -22 q-10.5 -7 -24.5 -7 q-13 0 -23.5 7 q-10.5 7 -10.5 22 l0 624 q0 35 13 49 q13 14 41 14 q10 0 18 -2 q8 -2 15 -7 q7 -5 14.5 -15.5 q7.5 -10.5 17.5 -26.5 l293 -498 q20 -34 35 -76 l0 599 q0 15 10.5 22 q10.5 7 23.5 7 Z" /><glyph glyph-name="cid48" unicode="o" d="M352 726 q144 0 216 -85.5 q72 -85.5 72 -253.5 l0 -55 q0 -168 -72 -253.5 q-72 -85.5 -216 -85.5 q-144 0 -216 85.5 q-72 85.5 -72 253.5 l0 55 q0 168 72 253.5 q72 85.5 216 85.5 ZM352 659 q-111 0 -162.5 -68.5 q-51.5 -68.5 -51.5 -211.5 l0 -39 q0 -143 51.5 -211.5 q51.5 -68.5 162.5 -68.5 q111 0 162.5 68.5 q51.5 68.5 51.5 211.5 l0 39 q0 143 -51.5 211.5 q-51.5 68.5 -162.5 68.5 Z" /><glyph glyph-name="cid49" unicode="p" d="M332 715 q120 0 178.5 -54 q58.5 -54 58.5 -151 l0 -16 q0 -97 -60.5 -153 q-60.5 -56 -178.5 -56 l-165 0 l0 -255 q0 -16 -11 -23 q-11 -7 -26 -7 q-14 0 -25 7 q-11 7 -11 23 l0 619 q0 38 14.5 52 q14.5 14 52.5 14 l173 0 ZM321 349 q93 0 134 38 q41 38 41 109 l0 13 q0 69 -39.5 105.5 q-39.5 36.5 -126.5 36.5 l-165 0 l0 -302 l156 0 Z" /><glyph glyph-name="cid50" unicode="q" d="M352 726 q144 0 216 -85.5 q72 -85.5 72 -253.5 l0 -55 q0 -163 -69 -249 l68 -69 q10 -10 8.5 -21.5 q-1.5 -11.5 -10.5 -21.5 q-9 -9 -20.5 -10.5 q-11.5 -1.5 -21.5 8.5 l-71 71 q-32 -22 -74.5 -34.5 q-42.5 -12.5 -97.5 -12.5 q-144 0 -216 85.5 q-72 85.5 -72 253.5 l0 55 q0 168 72 253.5 q72 85.5 216 85.5 ZM352 659 q-111 0 -162.5 -68.5 q-51.5 -68.5 -51.5 -211.5 l0 -39 q0 -143 51.5 -211.5 q51.5 -68.5 162.5 -68.5 q38 0 67.5 8.5 q29.5 8.5 51.5 24.5 l-86 85 q-10 10 -8 22 q2 12 11 21 q9 9 20.5 11 q11.5 2 21.5 -8 l88 -89 q25 35 36.5 86 q11.5 51 11.5 119 l0 39 q0 143 -51.5 211.5 q-51.5 68.5 -162.5 68.5 Z" /><glyph glyph-name="cid51" unicode="r" d="M329 715 q110 0 173 -47 q63 -47 63 -145 l0 -18 q0 -72 -35 -117.5 q-35 -45.5 -99 -65.5 l139 -272 q8 -15 3 -26.5 q-5 -11.5 -19 -18.5 q-14 -8 -27 -4.5 q-13 3.5 -21 17.5 l-146 292 q-21 -3 -43 -3 l-152 0 l0 -277 q0 -16 -11 -23 q-11 -7 -26 -7 q-14 0 -25 7 q-11 7 -11 23 l0 619 q0 38 14.5 52 q14.5 14 52.5 14 l170 0 ZM315 371 q93 0 135 34.5 q42 34.5 42 101.5 l0 13 q0 66 -41 98.5 q-41 32.5 -127 32.5 l-159 0 l0 -280 l150 0 Z" /><glyph glyph-name="cid52" unicode="s" d="M310 726 q59 0 108 -12 q49 -12 84 -33 q13 -8 16.5 -20.5 q3.5 -12.5 -4.5 -25.5 q-15 -26 -43 -13 q-32 18 -72.5 28 q-40.5 10 -87.5 10 q-36 0 -66.5 -9 q-30.5 -9 -52 -24.5 q-21.5 -15.5 -33.5 -37.5 q-12 -22 -12 -47 l0 -13 q0 -26 8 -45 q8 -19 27.5 -34 q19.5 -15 51.5 -26.5 q32 -11.5 79 -21.5 q69 -15 115 -32.5 q46 -17.5 73.5 -41 q27.5 -23.5 39 -54 q11.5 -30.5 11.5 -71.5 l0 -18 q0 -43 -17 -78.5 q-17 -35.5 -49 -60.5 q-32 -25 -78 -39 q-46 -14 -103 -14 q-66 0 -124 17.5 q-58 17.5 -101 45.5 q-14 9 -16 22 q-2 13 6 27 q8 13 20 16 q12 3 25 -5 q42 -26 89 -41.5 q47 -15.5 104 -15.5 q79 0 125 35 q46 35 46 87 l0 15 q0 29 -8.5 50 q-8.5 21 -29.5 36.5 q-21 15.5 -57 28 q-36 12.5 -92 24.5 q-55 12 -96 27 q-41 15 -68 36.5 q-27 21.5 -40.5 52.5 q-13.5 31 -13.5 74 l0 17 q0 41 17 75 q17 34 48 58 q31 24 74.5 37.5 q43.5 13.5 96.5 13.5 Z" /><glyph glyph-name="cid53" unicode="t" d="M539 715 q14 0 20 -9 q6 -9 6 -23 q0 -14 -6 -23 q-6 -9 -20 -9 l-210 0 l0 -621 q0 -16 -11 -23 q-11 -7 -26 -7 q-14 0 -25 7 q-11 7 -11 23 l0 621 l-210 0 q-14 0 -20 9 q-6 9 -6 23 q0 14 6 23 q6 9 20 9 l493 0 l0 0 Z" /><glyph glyph-name="cid54" unicode="u" d="M119 719 q15 0 26.5 -7 q11.5 -7 11.5 -23 l0 -399 q0 -119 44 -174 q44 -55 143 -55 q99 0 143 55 q44 55 44 174 l0 399 q0 16 11.5 23 q11.5 7 26.5 7 q14 0 25 -7 q11 -7 11 -23 l0 -398 q0 -80 -16 -136.5 q-16 -56.5 -48.5 -92.5 q-32.5 -36 -81.5 -52.5 q-49 -16.5 -115 -16.5 q-66 0 -115 16.5 q-49 16.5 -81.5 52.5 q-32.5 36 -48.5 92.5 q-16 56.5 -16 136.5 l0 398 q0 16 11 23 q11 7 25 7 Z" /><glyph glyph-name="cid55" unicode="v" d="M596 716 q14 -5 20.5 -15.5 q6.5 -10.5 0.5 -27.5 l-243 -641 q-8 -18 -19.5 -25 q-11.5 -7 -26.5 -7 q-15 0 -27 7 q-12 7 -19 25 l-242 640 q-6 17 1 28 q7 11 21 16 q15 5 28.5 1.5 q13.5 -3.5 19.5 -19.5 l219 -603 l220 602 q6 16 18.5 20 q12.5 4 28.5 -1 Z" /><glyph glyph-name="cid56" unicode="w" d="M489 719 q16 0 29 -8.5 q13 -8.5 18 -28.5 l163 -575 l161 586 q4 16 16 22 q12 6 27 3 q15 -4 22 -14 q7 -10 2 -27 l-181 -640 q-5 -20 -18.5 -28.5 q-13.5 -8.5 -28.5 -8.5 q-16 0 -29 8.5 q-13 8.5 -19 28.5 l-162 584 l-164 -584 q-6 -20 -19.5 -28.5 q-13.5 -8.5 -28.5 -8.5 q-16 0 -29 8.5 q-13 8.5 -19 28.5 l-179 637 q-5 18 2 28.5 q7 10.5 24 14.5 q15 4 27 -0.5 q12 -4.5 17 -22.5 l159 -588 l163 576 q6 20 18 28.5 q12 8.5 29 8.5 Z" /><glyph glyph-name="cid57" unicode="x" d="M558 713 q13 -8 17 -20.5 q4 -12.5 -6 -26.5 l-201 -296 l212 -315 q10 -15 7 -28 q-3 -13 -16 -21 q-14 -8 -28 -5.5 q-14 2.5 -24 16.5 l-199 304 l-205 -303 q-9 -14 -22.5 -17 q-13.5 -3 -26.5 5 q-12 8 -16 20.5 q-4 12.5 6 26.5 l220 318 l-206 293 q-10 15 -6 28 q4 13 18 21 q14 8 28.5 5 q14.5 -3 24.5 -17 l190 -281 l185 281 q9 14 22 17 q13 3 26 -5 Z" /><glyph glyph-name="cid58" unicode="y" d="M553 715 q14 -7 19 -18.5 q5 -11.5 -4 -26.5 l-221 -376 l0 -264 q0 -16 -11 -23 q-11 -7 -26 -7 q-14 0 -25 7 q-11 7 -11 23 l0 264 l-223 374 q-9 14 -5.5 26 q3.5 12 17.5 20 q13 7 27 4.5 q14 -2.5 22 -17.5 l200 -340 l194 340 q8 14 20.5 17 q12.5 3 26.5 -3 Z" /><glyph glyph-name="cid59" unicode="z" d="M503 715 q30 0 42 -9.5 q12 -9.5 12 -29.5 q0 -10 -4.5 -19.5 q-4.5 -9.5 -23.5 -34.5 l-404 -554 l427 0 q14 0 20 -9 q6 -9 6 -23 q0 -14 -6 -23 q-6 -9 -20 -9 l-462 0 q-31 0 -43.5 9.5 q-12.5 9.5 -12.5 30.5 q0 5 1 10 q1 5 4.5 11.5 q3.5 6.5 10 16 q6.5 9.5 17.5 24.5 l397 545 l-381 0 q-14 0 -20.5 9 q-6.5 9 -6.5 23 q0 14 6.5 23 q6.5 9 20.5 9 l420 0 l0 0 Z" /><glyph glyph-name="cid60" unicode="[" d="M298 796 q14 0 20 -9 q6 -9 6 -23 q0 -13 -6 -22 q-6 -9 -20 -9 l-141 0 l0 -793 l141 0 q14 0 20 -9 q6 -9 6 -23 q0 -13 -6 -22 q-6 -9 -20 -9 l-145 0 q-38 0 -53 14 q-15 14 -15 51 l0 788 q0 38 15 52 q15 14 53 14 l145 0 l0 0 Z" /><glyph glyph-name="cid61" unicode="\" d="M481 719 q15 0 26 -8.5 q11 -8.5 16 -28.5 l67 -267 l151 0 l68 278 q4 17 15 22.5 q11 5.5 25 2.5 q14 -4 21.5 -14 q7.5 -10 2.5 -27 l-67 -262 l95 0 q11 0 15.5 -7 q4.5 -7 4.5 -18 q0 -10 -4.5 -17 q-4.5 -7 -15.5 -7 l-106 0 l-84 -329 q-5 -20 -17 -28.5 q-12 -8.5 -26 -8.5 q-14 0 -25.5 8.5 q-11.5 8.5 -16.5 28.5 l-82 329 l-128 0 l-83 -329 q-5 -20 -17 -28.5 q-12 -8.5 -26 -8.5 q-14 0 -26 8.5 q-12 8.5 -17 28.5 l-83 329 l-105 0 q-11 0 -15.5 7 q-4.5 7 -4.5 17 q0 11 4.5 18 q4.5 7 15.5 7 l92 0 l-66 262 q-4 17 3.5 27 q7.5 10 21.5 14 q14 3 25 -2.5 q11 -5.5 15 -22.5 l67 -278 l153 0 l69 267 q5 20 16 28.5 q11 8.5 26 8.5 ZM532 415 l-51 206 l-53 -206 l104 0 ZM358 366 l-129 0 l63 -259 l66 259 ZM730 366 l-128 0 l65 -258 l63 258 Z" /><glyph glyph-name="cid62" unicode="]" d="M209 796 q38 0 52.5 -14 q14.5 -14 14.5 -52 l0 -788 q0 -37 -14.5 -51 q-14.5 -14 -52.5 -14 l-146 0 q-14 0 -20 9 q-6 9 -6 23 q0 13 6 22 q6 9 20 9 l142 0 l0 793 l-142 0 q-14 0 -20 9 q-6 9 -6 23 q0 13 6 22 q6 9 20 9 l146 0 l0 0 Z" /><glyph glyph-name="cid63" unicode="^" d="M265 738 q17 0 28 -8 q11 -8 22 -28 l142 -251 q8 -14 3 -24.5 q-5 -10.5 -16 -15.5 q-13 -5 -24 -3.5 q-11 1.5 -18 14.5 l-137 250 l-138 -250 q-6 -13 -17.5 -14.5 q-11.5 -1.5 -24.5 3.5 q-11 5 -15.5 15.5 q-4.5 10.5 3.5 24.5 l142 251 q11 20 22 28 q11 8 28 8 Z" /><glyph glyph-name="cid64" unicode="_" d="M459 -41 q12 0 18 -8 q6 -8 6 -21 q0 -12 -6 -19.5 q-6 -7.5 -18 -7.5 l-434 0 q-11 0 -16.5 7.5 q-5.5 7.5 -5.5 19.5 q0 13 5.5 21 q5.5 8 16.5 8 l434 0 l0 0 Z" /><glyph glyph-name="cid65" unicode="`" d="M112 760 q12 10 26.5 9.5 q14.5 -0.5 24.5 -14.5 l77 -108 q13 -19 -5 -36 q-21 -15 -39 3 l-90 98 q-11 11 -8.5 24.5 q2.5 13.5 14.5 23.5 Z" /><glyph glyph-name="cid66" unicode="a" d="M275 534 q92 0 144.5 -46 q52.5 -46 52.5 -126 l0 -334 q0 -15 -10.5 -21.5 q-10.5 -6.5 -23.5 -6.5 q-13 0 -23.5 6.5 q-10.5 6.5 -10.5 21.5 l0 49 l-1 0 q-16 -34 -57 -56 q-21 -11 -48 -18 q-27 -7 -61 -7 q-83 0 -131 40.5 q-48 40.5 -48 113.5 l0 10 q0 32 10.5 59.5 q10.5 27.5 34 47.5 q23.5 20 59.5 31.5 q36 11.5 87 11.5 l151 0 l0 37 q0 63 -30.5 93.5 q-30.5 30.5 -96.5 30.5 q-38 0 -73 -11.5 q-35 -11.5 -67 -31.5 q-12 -8 -23.5 -4 q-11.5 4 -18.5 15 q-7 11 -5.5 23 q1.5 12 13.5 20 q32 22 78 37 q46 15 98 15 ZM251 252 q-67 0 -94.5 -26.5 q-27.5 -26.5 -27.5 -67.5 l0 -6 q0 -44 29 -69 q29 -25 84 -25 q58 0 97 20 q28 15 45 39.5 q17 24.5 17 59.5 l0 75 l-150 0 Z" /><glyph glyph-name="cid67" unicode="b" d="M123 744 q14 0 25 -7 q11 -7 11 -23 l0 -266 q22 40 67 63 q45 23 97 23 q104 0 156.5 -62.5 q52.5 -62.5 52.5 -185.5 l0 -42 q0 -125 -58 -186.5 q-58 -61.5 -157 -61.5 q-52 0 -95 20.5 q-43 20.5 -64 55.5 l-2 0 l0 -43 q0 -15 -10.5 -22 q-10.5 -7 -23.5 -7 q-14 0 -24.5 7 q-10.5 7 -10.5 22 l0 685 q0 16 11 23 q11 7 25 7 ZM312 471 q-30 0 -57.5 -10.5 q-27.5 -10.5 -49 -30 q-21.5 -19.5 -34.5 -47.5 q-13 -28 -13 -63 l0 -138 q0 -24 11.5 -46 q11.5 -22 31.5 -39.5 q20 -17.5 48.5 -27.5 q28.5 -10 63.5 -10 q68 0 108 45.5 q40 45.5 40 144.5 l0 33 q0 97 -36 143 q-36 46 -113 46 Z" /><glyph glyph-name="cid68" unicode="c" d="M287 534 q53 0 93 -12 q40 -12 69 -30 q12 -8 14 -21 q2 -13 -6 -24 q-7 -11 -18 -14.5 q-11 -3.5 -24 4.5 q-53 33 -128 33 q-72 0 -113.5 -44.5 q-41.5 -44.5 -41.5 -142.5 l0 -35 q0 -97 42.5 -142.5 q42.5 -45.5 114.5 -45.5 q44 0 78 10 q34 10 63 29 q13 8 24 4.5 q11 -3.5 18 -14.5 q8 -12 6.5 -24.5 q-1.5 -12.5 -14.5 -21.5 q-32 -21 -75.5 -34 q-43.5 -13 -100.5 -13 q-105 0 -166.5 61.5 q-61.5 61.5 -61.5 186.5 l0 42 q0 125 61 186.5 q61 61.5 166 61.5 Z" /><glyph glyph-name="cid69" unicode="d" d="M469 744 q14 0 25 -7 q11 -7 11 -23 l0 -685 q0 -15 -10.5 -22 q-10.5 -7 -24.5 -7 q-13 0 -23.5 7 q-10.5 7 -10.5 22 l0 56 l-2 0 q-20 -41 -64.5 -65 q-44.5 -24 -101.5 -24 q-103 0 -155.5 62.5 q-52.5 62.5 -52.5 185.5 l0 42 q0 125 58.5 186.5 q58.5 61.5 156.5 61.5 q56 0 97.5 -20 q41.5 -20 60.5 -51 l0 251 q0 16 11 23 q11 7 25 7 ZM281 471 q-70 0 -110 -45 q-40 -45 -40 -144 l0 -34 q0 -97 36.5 -143 q36.5 -46 111.5 -46 q30 0 57.5 10.5 q27.5 10.5 49.5 30.5 q22 20 35 48.5 q13 28.5 13 63.5 l0 138 q0 23 -10.5 45 q-10.5 22 -30.5 39 q-20 17 -48.5 27 q-28.5 10 -63.5 10 Z" /><glyph glyph-name="cid70" unicode="e" d="M286 534 q103 0 162.5 -61.5 q59.5 -61.5 59.5 -174.5 l0 -2 q0 -29 -13 -42 q-13 -13 -45 -13 l-319 0 l0 -5 q0 -90 42.5 -134 q42.5 -44 120.5 -44 q47 0 82.5 9.5 q35.5 9.5 67.5 28.5 q13 7 24 3.5 q11 -3.5 17 -15.5 q6 -12 3.5 -23.5 q-2.5 -11.5 -14.5 -19.5 q-34 -20 -79.5 -32.5 q-45.5 -12.5 -104.5 -12.5 q-107 0 -168.5 62 q-61.5 62 -61.5 186 l0 42 q0 123 61.5 185.5 q61.5 62.5 164.5 62.5 ZM286 473 q-72 0 -113.5 -44.5 q-41.5 -44.5 -41.5 -125.5 l0 -5 l307 0 l0 8 q0 80 -39.5 123.5 q-39.5 43.5 -112.5 43.5 Z" /><glyph glyph-name="cid71" unicode="f" d="M270 746 q37 0 64 -10 q26 -9 20 -35 q-6 -28 -32 -23 q-13 4 -23 5 q-10 1 -24 1 q-45 0 -64.5 -24 q-19.5 -24 -19.5 -73 l0 -64 l126 0 q13 0 19 -8.5 q6 -8.5 6 -20.5 q0 -13 -6 -21.5 q-6 -8.5 -19 -8.5 l-126 0 l0 -434 q0 -16 -11 -23 q-11 -7 -25 -7 q-14 0 -25 7 q-11 7 -11 23 l0 434 l-70 0 q-13 0 -19 8.5 q-6 8.5 -6 21.5 q0 12 6 20.5 q6 8.5 19 8.5 l70 0 l0 66 q0 157 151 157 Z" /><glyph glyph-name="cid72" unicode="g" d="M275 534 q56 0 98 -20 q42 -20 61 -52 l1 0 l0 36 q0 15 10.5 22 q10.5 7 24.5 7 q14 0 24.5 -7 q10.5 -7 10.5 -22 l0 -478 q0 -116 -59 -168.5 q-59 -52.5 -161 -52.5 q-51 0 -90.5 11.5 q-39.5 11.5 -70.5 31.5 q-13 8 -15 21.5 q-2 13.5 6 24.5 q16 26 42 12 q26 -17 58 -27.5 q32 -10.5 69 -10.5 q71 0 110.5 37 q39.5 37 39.5 121 l0 79 l-2 0 q-20 -42 -63.5 -65.5 q-43.5 -23.5 -100.5 -23.5 q-103 0 -155.5 62 q-52.5 62 -52.5 182 l0 36 q0 122 58.5 183 q58.5 61 156.5 61 ZM281 471 q-70 0 -110 -44.5 q-40 -44.5 -40 -140.5 l0 -28 q0 -185 148 -185 q30 0 57.5 10.5 q27.5 10.5 49.5 30.5 q22 20 35 48.5 q13 28.5 13 63.5 l0 123 q0 24 -10.5 46 q-10.5 22 -30.5 39 q-20 17 -48 27 q-28 10 -64 10 Z" /><glyph glyph-name="cid73" unicode="h" d="M122 744 q14 0 24.5 -7 q10.5 -7 10.5 -22 l0 -268 l1 0 q7 15 22 30.5 q15 15.5 37 28 q22 12.5 50 20.5 q28 8 61 8 q91 0 139.5 -50 q48.5 -50 48.5 -136 l0 -318 q0 -16 -11.5 -23 q-11.5 -7 -25.5 -7 q-14 0 -24.5 7 q-10.5 7 -10.5 23 l0 301 q0 72 -32.5 105.5 q-32.5 33.5 -101.5 33.5 q-35 0 -63 -12 q-28 -12 -47.5 -31.5 q-19.5 -19.5 -30 -44 q-10.5 -24.5 -10.5 -49.5 l0 -303 q0 -16 -11 -23 q-11 -7 -25 -7 q-14 0 -25 7 q-11 7 -11 23 l0 685 q0 15 10.5 22 q10.5 7 24.5 7 Z" /><glyph glyph-name="cid74" unicode="i" d="M125 717 q23 0 38 -15 q15 -15 15 -37 q0 -21 -15 -36 q-15 -15 -38 -15 q-23 0 -38 15 q-15 15 -15 36 q0 22 15 37 q15 15 38 15 ZM125 527 q14 0 25 -7 q11 -7 11 -23 l0 -467 q0 -16 -11 -23 q-11 -7 -25 -7 q-14 0 -25 7 q-11 7 -11 23 l0 467 q0 16 11 23 q11 7 25 7 Z" /><glyph glyph-name="cid75" unicode="j" d="M131 717 q23 0 38 -15 q15 -15 15 -37 q0 -21 -15 -36 q-15 -15 -38 -15 q-23 0 -38 15 q-15 15 -15 36 q0 22 15 37 q15 15 38 15 ZM131 527 q14 0 25 -7 q11 -7 11 -23 l0 -531 q0 -47 -9.5 -77.5 q-9.5 -30.5 -28 -49.5 q-18.5 -19 -45 -26.5 q-26.5 -7.5 -60.5 -7.5 q-46 0 -76 14 q-26 13 -16 40 q5 14 15 18 q10 4 21 0 q23 -10 52 -10 q41 0 58 21 q17 21 17 77 l0 532 q0 16 11 23 q11 7 25 7 Z" /><glyph glyph-name="cid76" unicode="k" d="M123 744 q14 0 25 -7 q11 -7 11 -23 l0 -442 l260 245 q11 11 25.5 10.5 q14.5 -0.5 23.5 -11.5 q9 -10 10 -23 q1 -13 -12 -24 l-169 -154 l201 -259 q11 -12 8 -25 q-3 -13 -14 -22 q-11 -9 -24.5 -9 q-13.5 0 -24.5 13 l-197 256 l-87 -79 l0 -160 q0 -16 -11 -23 q-11 -7 -25 -7 q-14 0 -25 7 q-11 7 -11 23 l0 684 q0 16 11 23 q11 7 25 7 Z" /><glyph glyph-name="cid77" unicode="l" d="M123 744 q14 0 25 -7 q11 -7 11 -23 l0 -684 q0 -16 -11 -23 q-11 -7 -25 -7 q-14 0 -25 7 q-11 7 -11 23 l0 684 q0 16 11 23 q11 7 25 7 Z" /><glyph glyph-name="cid78" unicode="m" d="M314 534 q64 0 102.5 -27 q38.5 -27 52.5 -69 q23 42 65 69 q42 27 108 27 q45 0 78.5 -14 q33.5 -14 55.5 -39 q22 -25 33 -59.5 q11 -34.5 11 -74.5 l0 -317 q0 -16 -11.5 -23 q-11.5 -7 -25.5 -7 q-14 0 -24.5 7 q-10.5 7 -10.5 23 l0 300 q0 71 -29 105.5 q-29 34.5 -93 34.5 q-34 0 -59.5 -12 q-25.5 -12 -43 -31 q-17.5 -19 -26 -42.5 q-8.5 -23.5 -8.5 -47.5 l0 -307 q0 -16 -11 -23 q-11 -7 -25 -7 q-14 0 -25 7 q-11 7 -11 23 l0 300 q0 70 -28.5 105 q-28.5 35 -94.5 35 q-35 0 -60 -12.5 q-25 -12.5 -42 -31.5 q-17 -19 -25 -42.5 q-8 -23.5 -8 -45.5 l0 -308 q0 -16 -11 -23 q-11 -7 -25 -7 q-14 0 -25 7 q-11 7 -11 23 l0 468 q0 15 10.5 22 q10.5 7 23.5 7 q14 0 24.5 -7 q10.5 -7 10.5 -22 l0 -54 q9 17 23 33.5 q14 16.5 33.5 29 q19.5 12.5 44.5 20 q25 7.5 57 7.5 Z" /><glyph glyph-name="cid79" unicode="n" d="M328 534 q91 0 139.5 -50 q48.5 -50 48.5 -136 l0 -318 q0 -16 -11.5 -23 q-11.5 -7 -25.5 -7 q-14 0 -24.5 7 q-10.5 7 -10.5 23 l0 301 q0 72 -32.5 105.5 q-32.5 33.5 -101.5 33.5 q-35 0 -63 -12 q-28 -12 -47.5 -31.5 q-19.5 -19.5 -30 -44 q-10.5 -24.5 -10.5 -49.5 l0 -303 q0 -16 -11 -23 q-11 -7 -25 -7 q-14 0 -25 7 q-11 7 -11 23 l0 468 q0 15 10.5 22 q10.5 7 24.5 7 q13 0 23.5 -7 q10.5 -7 10.5 -22 l0 -51 l2 0 q7 15 22 30.5 q15 15.5 36.5 28 q21.5 12.5 50 20.5 q28.5 8 61.5 8 Z" /><glyph glyph-name="cid80" unicode="o" d="M295 534 q108 0 171 -63 q63 -63 63 -185 l0 -42 q0 -122 -63 -185 q-63 -63 -171 -63 q-109 0 -172 62.5 q-63 62.5 -63 185.5 l0 42 q0 123 63 185.5 q63 62.5 172 62.5 ZM295 470 q-78 0 -120.5 -45 q-42.5 -45 -42.5 -143 l0 -34 q0 -98 42.5 -143 q42.5 -45 120.5 -45 q77 0 119.5 45 q42.5 45 42.5 143 l0 34 q0 98 -42.5 143 q-42.5 45 -119.5 45 Z" /><glyph glyph-name="cid81" unicode="p" d="M323 534 q104 0 156.5 -62.5 q52.5 -62.5 52.5 -185.5 l0 -42 q0 -125 -58 -186.5 q-58 -61.5 -157 -61.5 q-51 0 -93.5 19 q-42.5 19 -64.5 54 l0 -233 q0 -16 -11 -23 q-11 -7 -25 -7 q-14 0 -25 7 q-11 7 -11 23 l0 662 q0 15 10.5 22 q10.5 7 24.5 7 q14 0 24.5 -7 q10.5 -7 10.5 -22 l0 -54 q23 42 67.5 66 q44.5 24 98.5 24 ZM312 471 q-30 0 -57.5 -10.5 q-27.5 -10.5 -49 -30 q-21.5 -19.5 -34.5 -47.5 q-13 -28 -13 -63 l0 -138 q0 -24 11.5 -46 q11.5 -22 31.5 -39.5 q20 -17.5 48.5 -27.5 q28.5 -10 63.5 -10 q68 0 108 45.5 q40 45.5 40 144.5 l0 33 q0 97 -36 143 q-36 46 -113 46 Z" /><glyph glyph-name="cid82" unicode="q" d="M275 534 q55 0 97 -20 q42 -20 62 -51 l1 0 l0 35 q0 15 10.5 22 q10.5 7 24.5 7 q14 0 24.5 -7 q10.5 -7 10.5 -22 l0 -663 q0 -15 -11 -22 q-11 -7 -24 -7 q-14 0 -25 7 q-11 7 -11 22 l0 250 l-2 0 q-20 -42 -63.5 -65.5 q-43.5 -23.5 -100.5 -23.5 q-103 0 -155.5 62.5 q-52.5 62.5 -52.5 185.5 l0 42 q0 125 58.5 186.5 q58.5 61.5 156.5 61.5 ZM281 471 q-70 0 -110 -45 q-40 -45 -40 -144 l0 -34 q0 -97 36.5 -143 q36.5 -46 111.5 -46 q30 0 57.5 10.5 q27.5 10.5 49.5 30.5 q22 20 35 48.5 q13 28.5 13 63.5 l0 138 q0 23 -10.5 45 q-10.5 22 -30.5 39 q-20 17 -48.5 27 q-28.5 10 -63.5 10 Z" /><glyph glyph-name="cid83" unicode="r" d="M309 534 q34 0 58 -9 q24 -10 16 -39 q-8 -34 -37 -28 q-11 2 -24 4.5 q-13 2.5 -27 2.5 q-32 0 -57.5 -13 q-25.5 -13 -43 -36 q-17.5 -23 -26.5 -54.5 q-9 -31.5 -9 -68.5 l0 -263 q0 -16 -11 -23 q-11 -7 -25 -7 q-14 0 -25 7 q-11 7 -11 23 l0 468 q0 15 10.5 22 q10.5 7 24.5 7 q14 0 24.5 -7 q10.5 -7 10.5 -22 l0 -70 l1 0 q7 19 20.5 38 q13.5 19 32.5 34 q19 15 43.5 24.5 q24.5 9.5 54.5 9.5 Z" /><glyph glyph-name="cid84" unicode="s" d="M260 534 q51 0 91.5 -10.5 q40.5 -10.5 69.5 -27.5 q13 -8 16 -19.5 q3 -11.5 -4 -24.5 q-6 -11 -16 -15 q-10 -4 -23 3 q-27 15 -60 24 q-33 9 -72 9 q-66 0 -96 -22.5 q-30 -22.5 -30 -55.5 l0 -3 q0 -17 6 -30 q6 -13 21 -23 q15 -10 40.5 -18.5 q25.5 -8.5 65.5 -15.5 q55 -11 92 -23.5 q37 -12.5 59 -30.5 q22 -18 31 -43 q9 -25 9 -60 l0 -6 q0 -31 -14 -58 q-14 -27 -40 -46.5 q-26 -19.5 -63.5 -30.5 q-37.5 -11 -84.5 -11 q-58 0 -107 15 q-49 15 -81 35 q-13 8 -15 20.5 q-2 12.5 4 23.5 q8 13 19 16.5 q11 3.5 25 -4.5 q29 -18 69.5 -31 q40.5 -13 85.5 -13 q66 0 98.5 24 q32.5 24 32.5 61 l0 3 q0 20 -5 34.5 q-5 14.5 -20.5 25 q-15.5 10.5 -44.5 19 q-29 8.5 -77 17.5 q-92 17 -134.5 50.5 q-42.5 33.5 -42.5 96.5 l0 7 q0 28 12 53 q12 25 36 44 q24 19 60.5 30 q36.5 11 86.5 11 Z" /><glyph glyph-name="cid85" unicode="t" d="M154 666 q14 0 25.5 -7 q11.5 -7 11.5 -23 l0 -113 l127 0 q12 0 18 -8.5 q6 -8.5 6 -20.5 q0 -13 -6 -21.5 q-6 -8.5 -18 -8.5 l-127 0 l0 -306 q0 -58 16 -79 q16 -21 57 -21 q29 0 52 10 q11 4 21 0 q10 -4 15 -18 q10 -27 -16 -40 q-30 -14 -76 -14 q-72 0 -106.5 35 q-34.5 35 -34.5 121 l0 312 l-70 0 q-13 0 -19 8.5 q-6 8.5 -6 21.5 q0 12 6 20.5 q6 8.5 19 8.5 l70 0 l0 113 q0 16 10.5 23 q10.5 7 24.5 7 Z" /><glyph glyph-name="cid86" unicode="u" d="M118 527 q14 0 24.5 -7 q10.5 -7 10.5 -23 l0 -298 q0 -72 32 -105.5 q32 -33.5 96 -33.5 q36 0 65 12.5 q29 12.5 49 31.5 q20 19 30.5 42.5 q10.5 23.5 10.5 46.5 l0 304 q0 16 11 23 q11 7 25 7 q14 0 25 -7 q11 -7 11 -23 l0 -468 q0 -15 -10.5 -22 q-10.5 -7 -24.5 -7 q-14 0 -24.5 7 q-10.5 7 -10.5 22 l0 53 l-1 0 q-8 -15 -23.5 -30.5 q-15.5 -15.5 -37.5 -28 q-22 -12.5 -49 -20 q-27 -7.5 -57 -7.5 q-94 0 -141.5 49 q-47.5 49 -47.5 137 l0 315 q0 16 11.5 23 q11.5 7 25.5 7 Z" /><glyph glyph-name="cid87" unicode="v" d="M51 524 q14 5 27.5 2 q13.5 -3 18.5 -19 l161 -423 l1 0 l158 423 q6 16 19 19 q13 3 26 -2 q12 -5 19.5 -15.5 q7.5 -10.5 0.5 -27.5 l-176 -446 q-8 -19 -20.5 -27 q-12.5 -8 -28.5 -8 q-16 0 -28.5 7.5 q-12.5 7.5 -20.5 26.5 l-178 447 q-7 17 1 27.5 q8 10.5 20 15.5 Z" /><glyph glyph-name="cid88" unicode="w" d="M386 527 q34 0 43 -34 l126 -412 l2 0 l109 420 q5 18 16.5 23 q11.5 5 26.5 2 q15 -4 22 -14.5 q7 -10.5 2 -27.5 l-126 -446 q-10 -38 -49 -38 q-39 0 -49 38 l-122 395 l-3 0 l-121 -396 q-10 -37 -49 -37 q-40 0 -50 37 l-128 446 q-9 35 25 43 q16 3 28.5 -2 q12.5 -5 16.5 -24 l110 -419 l2 0 l124 411 q5 18 16.5 26.5 q11.5 8.5 27.5 8.5 Z" /><glyph glyph-name="cid89" unicode="x" d="M67 520 q11 8 25.5 6.5 q14.5 -1.5 25.5 -15.5 l140 -194 l138 194 q11 14 24.5 15.5 q13.5 1.5 25.5 -7.5 q11 -8 14 -20 q3 -12 -7 -26 l-151 -203 l162 -214 q11 -14 8.5 -26.5 q-2.5 -12.5 -15.5 -22.5 q-11 -8 -25.5 -6.5 q-14.5 1.5 -25.5 15.5 l-151 206 l-153 -206 q-11 -14 -24 -15.5 q-13 -1.5 -25 7.5 q-11 8 -14.5 20 q-3.5 12 7.5 26 l165 214 l-151 203 q-11 14 -8 26.5 q3 12.5 15 22.5 Z" /><glyph glyph-name="cid90" unicode="y" d="M461 524 q14 -4 20.5 -15 q6.5 -11 1.5 -26 l-260 -662 q-5 -14 -18 -17 q-13 -3 -27 2 q-13 5 -19 15.5 q-6 10.5 -1 24.5 l66 161 l-190 474 q-6 16 1.5 27 q7.5 11 20.5 16 q14 5 27.5 2 q13.5 -3 18.5 -19 l158 -417 l1 0 l156 416 q5 16 18 19.5 q13 3.5 26 -1.5 Z" /><glyph glyph-name="cid91" unicode="z" d="M398 523 q28 0 39 -8.5 q11 -8.5 11 -27.5 q0 -11 -4.5 -20 q-4.5 -9 -22.5 -31 l-293 -371 l312 0 q13 0 19 -9 q6 -9 6 -21 q0 -14 -6 -22.5 q-6 -8.5 -19 -8.5 l-354 0 q-27 0 -38 8 q-11 8 -11 24 q0 10 4.5 19.5 q4.5 9.5 23.5 32.5 l295 374 l-281 0 q-13 0 -19 8.5 q-6 8.5 -6 22.5 q0 12 6 21 q6 9 19 9 l319 0 l0 0 Z" /><glyph glyph-name="cid92" unicode="{" d="M362 796 q13 0 19 -9 q6 -9 6 -23 q0 -13 -6 -22 q-6 -9 -19 -9 l-64 0 q-47 0 -63.5 -19.5 q-16.5 -19.5 -16.5 -64.5 l0 -183 q0 -19 -4 -38 q-4 -19 -14.5 -35 q-10.5 -16 -28 -28 q-17.5 -12 -43.5 -18 q26 -6 43.5 -18 q17.5 -12 28 -28 q10.5 -16 14.5 -35 q4 -19 4 -38 l0 -207 q0 -45 17 -63 q17 -18 63 -18 l64 0 q13 0 19 -9 q6 -9 6 -22 q0 -14 -6 -23 q-6 -9 -19 -9 l-71 0 q-71 0 -107.5 31 q-36.5 31 -36.5 100 l0 224 q0 40 -23 58.5 q-23 18.5 -64 22.5 q-29 3 -29 34 q0 32 29 35 q41 3 64 22 q23 19 23 59 l0 199 q0 69 36.5 101.5 q36.5 32.5 107.5 32.5 l71 0 l0 0 Z" /><glyph glyph-name="cid93" unicode="|" d="M143 800 q14 0 24.5 -7 q10.5 -7 10.5 -23 l0 -867 q0 -16 -10.5 -23 q-10.5 -7 -24.5 -7 q-14 0 -24.5 7 q-10.5 7 -10.5 23 l0 867 q0 16 10.5 23 q10.5 7 24.5 7 Z" /><glyph glyph-name="cid94" unicode="}" d="M134 796 q70 0 107 -32.5 q37 -32.5 37 -101.5 l0 -199 q0 -40 23 -59 q23 -19 64 -22 q16 -2 22 -11 q6 -9 6 -24 q0 -14 -6 -23 q-6 -9 -22 -11 q-41 -4 -64 -22.5 q-23 -18.5 -23 -58.5 l0 -224 q0 -69 -37 -100 q-37 -31 -107 -31 l-71 0 q-14 0 -20 9 q-6 9 -6 23 q0 13 6 22 q6 9 20 9 l64 0 q46 0 62.5 18 q16.5 18 16.5 63 l0 207 q0 19 4 38 q4 19 14.5 35 q10.5 16 28 28 q17.5 12 43.5 18 q-26 6 -43.5 18 q-17.5 12 -28 28 q-10.5 16 -14.5 35 q-4 19 -4 38 l0 183 q0 45 -16 64.5 q-16 19.5 -63 19.5 l-64 0 q-14 0 -20 9 q-6 9 -6 22 q0 14 6 23 q6 9 20 9 l71 0 l0 0 Z" /><glyph glyph-name="cid95" unicode="~" d="M514 447 q14 -2 20.5 -11 q6.5 -9 4.5 -24 q-5 -28 -16 -53 q-11 -25 -29 -43.5 q-18 -18.5 -42 -29.5 q-24 -11 -54 -11 q-35 0 -59.5 16 q-24.5 16 -45 35.5 q-20.5 19.5 -40.5 36 q-20 16.5 -46 16.5 q-32 0 -50.5 -25 q-18.5 -25 -26.5 -62 q-3 -14 -13.5 -19 q-10.5 -5 -24.5 -2 q-12 2 -19.5 11 q-7.5 9 -4.5 24 q5 28 16.5 52.5 q11.5 24.5 29 43.5 q17.5 19 40.5 30 q23 11 52 11 q37 0 62 -16.5 q25 -16.5 46 -36 q21 -19.5 40 -35.5 q19 -16 44 -16 q35 0 53.5 25 q18.5 25 24.5 61 q3 14 13.5 19.5 q10.5 5.5 24.5 2.5 Z" /><glyph glyph-name="cid208" unicode="¡" d="M143 582 q23 0 39.5 -16.5 q16.5 -16.5 16.5 -39.5 q0 -23 -16.5 -39 q-16.5 -16 -39.5 -16 q-24 0 -40 16 q-16 16 -16 39 q0 23 16 39.5 q16 16.5 40 16.5 ZM143 372 q13 0 22 -7 q9 -7 9 -24 l8 -476 q1 -18 -10.5 -26.5 q-11.5 -8.5 -28.5 -8.5 q-18 0 -29 8.5 q-11 8.5 -11 26.5 l8 476 q1 17 9.5 24 q8.5 7 22.5 7 Z" /><glyph glyph-name="cid143" unicode="¢&#xffe0;" d="M293 633 q11 0 18.5 -5.5 q7.5 -5.5 7.5 -16.5 l0 -78 q41 -3 73 -14.5 q32 -11.5 57 -26.5 q12 -8 14 -21 q2 -13 -6 -24 q-7 -11 -18 -14.5 q-11 -3.5 -24 4.5 q-20 12 -44 20.5 q-24 8.5 -52 10.5 l0 -406 q35 3 61.5 12 q26.5 9 49.5 25 q13 8 24 4.5 q11 -3.5 18 -14.5 q8 -12 6.5 -24.5 q-1.5 -12.5 -14.5 -21.5 q-27 -18 -63 -30.5 q-36 -12.5 -82 -15.5 l0 -78 q0 -11 -7.5 -16.5 q-7.5 -5.5 -18.5 -5.5 q-10 0 -18 5.5 q-8 5.5 -8 16.5 l0 77 q-97 6 -152 67.5 q-55 61.5 -55 180.5 l0 42 q0 119 55.5 180.5 q55.5 61.5 151.5 66.5 l0 78 q0 11 8 16.5 q8 5.5 18 5.5 ZM267 469 q-63 -5 -99 -50 q-36 -45 -36 -136 l0 -35 q0 -90 36 -135.5 q36 -45.5 99 -51.5 l0 408 Z" /><glyph glyph-name="cid144" unicode="£&#xffe1;" d="M355 726 q38 0 70 -7 q32 -7 55 -18 q13 -6 16 -17 q3 -11 -3 -25 q-12 -27 -40 -16 q-20 8 -43 12 q-23 4 -49 4 q-65 0 -100 -35.5 q-35 -35.5 -35 -113.5 l0 -107 l177 0 q14 0 20 -9 q6 -9 6 -22 q0 -14 -6 -23 q-6 -9 -20 -9 l-177 0 l0 -107 q0 -71 -13.5 -107.5 q-13.5 -36.5 -40.5 -56.5 l0 -1 l334 0 q14 0 20.5 -9 q6.5 -9 6.5 -23 q0 -14 -6.5 -23 q-6.5 -9 -20.5 -9 l-407 0 q-14 0 -20.5 9 q-6.5 9 -6.5 22 q0 19 25 40 q32 25 44 61 q12 36 12 99 l0 105 l-72 0 q-14 0 -20 9 q-6 9 -6 23 q0 13 6 22 q6 9 20 9 l72 0 l0 110 q0 108 53 160.5 q53 52.5 149 52.5 Z" /><glyph glyph-name="cid214" unicode="¤" d="M484 584 q9 10 20.5 8.5 q11.5 -1.5 21.5 -11.5 q10 -10 11.5 -21.5 q1.5 -11.5 -8.5 -20.5 l-73 -71 q17 -23 26.5 -51.5 q9.5 -28.5 9.5 -59.5 q0 -32 -9.5 -60 q-9.5 -28 -26.5 -51 l73 -71 q10 -9 8.5 -20.5 q-1.5 -11.5 -11.5 -21.5 q-10 -10 -21.5 -11.5 q-11.5 -1.5 -20.5 8.5 l-71 72 q-23 -17 -52 -26.5 q-29 -9.5 -61 -9.5 q-63 0 -113 36 l-71 -72 q-9 -10 -20.5 -8.5 q-11.5 1.5 -21.5 11.5 q-10 10 -11.5 21.5 q-1.5 11.5 8.5 20.5 l72 71 q-17 23 -26 51 q-9 28 -9 60 q0 31 9 59 q9 28 26 52 l-72 71 q-10 9 -8.5 20.5 q1.5 11.5 11.5 21.5 q10 10 21.5 11.5 q11.5 1.5 20.5 -8.5 l71 -72 q23 17 52 26.5 q29 9.5 61 9.5 q32 0 61 -10 q29 -10 52 -27 l71 73 ZM300 490 q-27 0 -51 -10.5 q-24 -10.5 -41.5 -28.5 q-17.5 -18 -27.5 -42 q-10 -24 -10 -52 q0 -28 10 -52 q10 -24 27.5 -42 q17.5 -18 41.5 -28.5 q24 -10.5 51 -10.5 q27 0 51 10.5 q24 10.5 41.5 28.5 q17.5 18 27.5 42 q10 24 10 52 q0 28 -10 52 q-10 24 -27.5 42 q-17.5 18 -41.5 28.5 q-24 10.5 -51 10.5 Z" /><glyph glyph-name="cid145" unicode="¥&#xffe5;" d="M528 715 q14 -7 19 -18.5 q5 -11.5 -4 -26.5 l-184 -324 l128 0 q21 0 21 -26 q0 -11 -5 -17.5 q-5 -6.5 -16 -6.5 l-155 0 l0 -86 l155 0 q21 0 21 -25 q0 -11 -5 -17.5 q-5 -6.5 -16 -6.5 l-155 0 l0 -131 q0 -16 -11 -23 q-11 -7 -26 -7 q-14 0 -25 7 q-11 7 -11 23 l0 131 l-151 0 q-11 0 -15.5 6.5 q-4.5 6.5 -4.5 17.5 q0 25 20 25 l151 0 l0 86 l-151 0 q-11 0 -15.5 6.5 q-4.5 6.5 -4.5 17.5 q0 26 20 26 l123 0 l-185 322 q-16 28 13 46 q13 7 26.5 4.5 q13.5 -2.5 21.5 -17.5 l190 -341 l184 341 q8 14 20.5 17 q12.5 3 26.5 -3 Z" /><glyph glyph-name="cid155" unicode="§" d="M282 726 q48 0 87.5 -10.5 q39.5 -10.5 67.5 -27.5 q14 -8 17 -20 q3 -12 -4 -25 q-6 -11 -16.5 -15 q-10.5 -4 -23.5 2 q-25 14 -57.5 23.5 q-32.5 9.5 -70.5 9.5 q-61 0 -92 -27.5 q-31 -27.5 -31 -72.5 l0 -7 q0 -22 6.5 -39.5 q6.5 -17.5 24.5 -32.5 q18 -15 50.5 -28 q32.5 -13 84.5 -26 q95 -24 136 -65 q41 -41 41 -103 l0 -13 q0 -50 -30.5 -87 q-30.5 -37 -78.5 -54 q36 -23 51 -54 q15 -31 15 -73 l0 -14 q0 -34 -12.5 -63.5 q-12.5 -29.5 -37 -51.5 q-24.5 -22 -61.5 -34.5 q-37 -12.5 -85 -12.5 q-50 0 -93.5 12.5 q-43.5 12.5 -71.5 31.5 q-27 18 -13 45 q7 11 18 15.5 q11 4.5 24 -2.5 q26 -16 60 -27 q34 -11 77 -11 q60 0 91.5 27 q31.5 27 31.5 72 l0 7 q0 22 -6.5 39.5 q-6.5 17.5 -25 32.5 q-18.5 15 -51 28 q-32.5 13 -84.5 26 q-95 24 -136 65 q-41 41 -41 103 l0 13 q0 49 30.5 86.5 q30.5 37.5 78.5 54.5 q-35 23 -50.5 54 q-15.5 31 -15.5 73 l0 14 q0 34 12.5 63.5 q12.5 29.5 37 51.5 q24.5 22 61.5 34.5 q37 12.5 85 12.5 ZM216 392 q-43 -11 -71.5 -39.5 q-28.5 -28.5 -28.5 -66.5 l0 -7 q0 -39 28.5 -67.5 q28.5 -28.5 106.5 -48.5 q23 -6 41.5 -11.5 q18.5 -5.5 35.5 -12.5 q44 12 72.5 39.5 q28.5 27.5 28.5 66.5 l0 7 q0 39 -28.5 67.5 q-28.5 28.5 -106.5 48.5 q-22 5 -41.5 11.5 q-19.5 6.5 -36.5 12.5 Z" /><glyph glyph-name="cid107" unicode="¨" d="M104 711 q21 0 34.5 -14 q13.5 -14 13.5 -34 q0 -20 -13.5 -34 q-13.5 -14 -34.5 -14 q-21 0 -34.5 14 q-13.5 14 -13.5 34 q0 20 13.5 34 q13.5 14 34.5 14 ZM271 711 q21 0 34.5 -14 q13.5 -14 13.5 -34 q0 -20 -13.5 -34 q-13.5 -14 -34.5 -14 q-21 0 -35 14 q-14 14 -14 34 q0 20 14 34 q14 14 35 14 Z" /><glyph glyph-name="cid98" unicode="©" d="M424 722 q83 0 150.5 -28 q67.5 -28 115 -77 q47.5 -49 73 -115.5 q25.5 -66.5 25.5 -142.5 q0 -76 -25.5 -142 q-25.5 -66 -73 -115 q-47.5 -49 -115 -77.5 q-67.5 -28.5 -150.5 -28.5 q-82 0 -149 28.5 q-67 28.5 -114 77.5 q-47 49 -73 115 q-26 66 -26 142 q0 76 26 142.5 q26 66.5 73 115.5 q47 49 114 77 q67 28 149 28 ZM424 666 q-67 0 -123 -23 q-56 -23 -96 -64.5 q-40 -41.5 -62 -97.5 q-22 -56 -22 -122 q0 -66 22 -122 q22 -56 62 -97 q40 -41 96 -64.5 q56 -23.5 123 -23.5 q68 0 124.5 23.5 q56.5 23.5 96.5 64.5 q40 41 62 97 q22 56 22 122 q0 66 -22 122 q-22 56 -62.5 97.5 q-40.5 41.5 -96.5 64.5 q-56 23 -124 23 ZM431 549 q36 0 65 -8.5 q29 -8.5 49 -21.5 q9 -6 11 -16 q2 -10 -5 -20 q-5 -9 -14.5 -12 q-9.5 -3 -19.5 3 q-35 23 -86 23 q-48 0 -75.5 -29.5 q-27.5 -29.5 -27.5 -95.5 l0 -24 q0 -65 27.5 -95.5 q27.5 -30.5 76.5 -30.5 q57 0 95 26 q10 7 19 4.5 q9 -2.5 15 -12.5 q15 -21 -6 -37 q-23 -16 -54 -24.5 q-31 -8.5 -69 -8.5 q-75 0 -117.5 44 q-42.5 44 -42.5 132 l0 28 q0 88 43 131.5 q43 43.5 116 43.5 Z" /><glyph glyph-name="cid668" unicode="ª" d="M228 748 q75 0 119 -36.5 q44 -36.5 44 -104.5 l0 -281 q0 -13 -10 -18.5 q-10 -5.5 -21 -5.5 q-12 0 -21.5 5.5 q-9.5 5.5 -10.5 18.5 l0 35 l-1 0 q-12 -28 -49 -46 q-17 -8 -40 -12.5 q-23 -4.5 -46 -4.5 q-63 0 -101.5 33.5 q-38.5 33.5 -38.5 94.5 l0 14 q0 56 38 89.5 q38 33.5 118 33.5 l117 0 l0 31 q0 94 -99 94 q-31 0 -58 -9 q-27 -9 -54 -26 q-11 -7 -20.5 -3.5 q-9.5 3.5 -16.5 14.5 q-6 10 -5 21 q1 11 12 19 q29 20 65.5 32 q36.5 12 78.5 12 ZM211 509 q-52 0 -72.5 -20 q-20.5 -20 -20.5 -54 l0 -7 q0 -19 7 -33 q7 -14 19 -23 q12 -9 27.5 -13 q15.5 -4 31.5 -4 q23 0 43 6 q20 6 35 14 q44 25 44 69 l0 65 l-114 0 Z" /><glyph glyph-name="cid176" unicode="«&#x226a;" d="M165 354 l441 -290 l-32 -50 l-480 318 l0 45 l473 328 l35 -49 l-437 -302 ZM375 355 l441 -288 l-30 -49 l-482 314 l0 45 l474 323 l35 -47 l-438 -298 Z" /><glyph glyph-name="cid194" unicode="¬&#xffe2;" d="M883 76 l-52 0 l0 260 l-804 0 l0 49 l856 0 l0 -309 Z" /><glyph glyph-name="cid109" unicode="­&#x2013;" d="M387 389 q25 0 25 -31 q0 -12 -6 -20.5 q-6 -8.5 -19 -8.5 l-362 0 q-13 0 -19 8.5 q-6 8.5 -6 20.5 q0 31 25 31 l362 0 l0 0 Z" /><glyph glyph-name="cid138" unicode="°" d="M151 732 q26 0 47.5 -9 q21.5 -9 36.5 -25 q15 -16 23.5 -37 q8.5 -21 8.5 -45 q0 -24 -8.5 -45 q-8.5 -21 -23.5 -37 q-15 -16 -36.5 -25 q-21.5 -9 -47.5 -9 q-26 0 -47.5 9 q-21.5 9 -36.5 25 q-15 16 -23.5 37 q-8.5 21 -8.5 45 q0 24 8.5 45 q8.5 21 23.5 37 q15 16 36.5 25 q21.5 9 47.5 9 ZM151 684 q-31 0 -48.5 -19.5 q-17.5 -19.5 -17.5 -48.5 q0 -29 17.5 -49 q17.5 -20 48.5 -20 q31 0 48.5 20 q17.5 20 17.5 49 q0 29 -17.5 48.5 q-17.5 19.5 -48.5 19.5 Z" /><glyph glyph-name="cid130" unicode="±" d="M314 694 q13 0 23 -6.5 q10 -6.5 10 -21.5 l0 -174 l190 0 q13 0 19 -9 q6 -9 6 -22 q0 -13 -6 -22 q-6 -9 -19 -9 l-190 0 l0 -186 q0 -14 -10 -20.5 q-10 -6.5 -23 -6.5 q-14 0 -24 6.5 q-10 6.5 -10 20.5 l0 186 l-191 0 q-13 0 -19 9 q-6 9 -6 22 q0 13 6 22 q6 9 19 9 l191 0 l0 174 q0 15 10 21.5 q10 6.5 24 6.5 ZM534 150 q14 0 20 -9 q6 -9 6 -23 q0 -13 -6 -22 q-6 -9 -20 -9 l-440 0 q-14 0 -20 9 q-6 9 -6 22 q0 14 6 23 q6 9 20 9 l440 0 Z" /><glyph glyph-name="cid843" unicode="²" d="M201 826 q66 0 99 -32 q33 -32 33 -80 l0 -6 q0 -34 -14 -61.5 q-14 -27.5 -47 -62.5 l-133 -146 l190 0 q11 0 16.5 -7.5 q5.5 -7.5 5.5 -18.5 q0 -10 -5.5 -18 q-5.5 -8 -16.5 -8 l-229 0 q-22 0 -30.5 8 q-8.5 8 -8.5 23 q0 13 18 32 l149 166 q28 31 38 50.5 q10 19.5 10 43.5 l0 2 q0 29 -18.5 45.5 q-18.5 16.5 -55.5 16.5 q-30 0 -50.5 -13.5 q-20.5 -13.5 -37.5 -37.5 q-6 -9 -16 -10.5 q-10 -1.5 -20 4.5 q-9 6 -11.5 15.5 q-2.5 9.5 3.5 20.5 q20 32 53 53 q33 21 78 21 Z" /><glyph glyph-name="cid844" unicode="³" d="M196 826 q63 0 99.5 -30.5 q36.5 -30.5 36.5 -82.5 l0 -3 q0 -34 -20.5 -60 q-20.5 -26 -52.5 -36 q17 -2 33 -9.5 q16 -7.5 29 -19.5 q13 -12 20.5 -29.5 q7.5 -17.5 7.5 -39.5 l0 -6 q0 -57 -39.5 -92 q-39.5 -35 -110.5 -35 q-36 0 -69 10 q-33 10 -58 28 q-11 7 -12 17 q-1 10 6 20 q15 21 36 8 q20 -14 44 -23 q24 -9 53 -9 q43 0 68 21 q25 21 25 56 l0 4 q0 38 -26.5 55 q-26.5 17 -67.5 17 l-36 0 q-12 0 -17.5 7.5 q-5.5 7.5 -5.5 18.5 q0 10 5.5 17 q5.5 7 17.5 7 l33 0 q30 0 55.5 17 q25.5 17 25.5 56 l0 2 q-1 28 -21 45.5 q-20 17.5 -59 17.5 q-27 0 -46 -11 q-19 -11 -33 -28 q-8 -9 -18 -8.5 q-10 0.5 -18 7.5 q-8 8 -8.5 17.5 q-0.5 9.5 5.5 17.5 q17 25 47 40.5 q30 15.5 71 15.5 Z" /><glyph glyph-name="cid199" unicode="´" d="M228 760 q12 -10 14.5 -23.5 q2.5 -13.5 -8.5 -24.5 l-90 -98 q-19 -19 -39 -3 q-20 15 -5 36 l77 108 q10 14 24.5 14.5 q14.5 0.5 26.5 -9.5 Z" /><glyph glyph-name="cid244" unicode="¶" d="M443 715 q38 0 53 -14 q15 -14 15 -52 l0 -757 q0 -13 -9 -19 q-9 -6 -23 -6 q-11 0 -20 6 q-9 6 -9 19 l0 760 l-85 0 l0 -760 q0 -13 -9.5 -19 q-9.5 -6 -22.5 -6 q-11 0 -20.5 6 q-9.5 6 -9.5 19 l0 455 l-53 0 q-39 0 -75.5 11.5 q-36.5 11.5 -64 34 q-27.5 22.5 -44 57 q-16.5 34.5 -16.5 80.5 q0 38 11 72 q11 34 37 59 q26 25 67.5 39.5 q41.5 14.5 103.5 14.5 l174 0 l0 0 Z" /><glyph glyph-name="cid104" unicode="&#x30fb;·" d="M227 415 q25 0 41 -16 q16 -16 16 -40 q0 -24 -16 -40 q-16 -16 -41 -16 q-24 0 -40.5 16 q-16.5 16 -16.5 40 q0 24 16.5 40 q16.5 16 40.5 16 Z" /><glyph glyph-name="cid206" unicode="¸" d="M159 -25 q43 -2 70 -17 q27 -15 27 -50 q0 -88 -151 -97 q-11 -1 -16.5 5.5 q-5.5 6.5 -6.5 16.5 q0 22 19 23 q46 4 71 15 q25 11 25 31 q0 21 -21.5 27 q-21.5 6 -66.5 6 l0 89 l50 0 l0 -49 Z" /><glyph glyph-name="cid842" unicode="¹" d="M227 822 q13 0 21.5 -6 q8.5 -6 8.5 -20 l0 -386 q0 -14 -8.5 -19.5 q-8.5 -5.5 -19.5 -5.5 q-11 0 -20 5.5 q-9 5.5 -9 19.5 l0 341 l-89 -57 q-11 -7 -21 -3 q-10 4 -15 13 q-6 9 -4 20 q2 11 12 17 l111 70 q19 11 33 11 Z" /><glyph glyph-name="cid675" unicode="º" d="M233 747 q91 0 141 -52.5 q50 -52.5 50 -152.5 l0 -39 q0 -98 -50 -151 q-50 -53 -141 -53 q-91 0 -140.5 53 q-49.5 53 -49.5 151 l0 39 q0 100 49.5 152.5 q49.5 52.5 140.5 52.5 ZM233 687 q-123 0 -123 -147 l0 -34 q0 -75 33.5 -111.5 q33.5 -36.5 89.5 -36.5 q56 0 89.5 36.5 q33.5 36.5 33.5 111.5 l0 34 q0 147 -123 147 Z" /><glyph glyph-name="cid177" unicode="»&#x226b;" d="M816 332 l-480 -318 l-33 50 l442 290 l-437 302 l34 49 l474 -328 l0 -45 ZM606 332 l-482 -314 l-29 49 l441 289 l-439 297 l35 47 l474 -323 l0 -45 Z" /><glyph glyph-name="cid751" unicode="¼" d="M642 722 q11 -5 15 -14.5 q4 -9.5 -2 -21.5 l-343 -677 q-6 -13 -17.5 -15.5 q-11.5 -2.5 -22.5 3.5 q-11 5 -15 14.5 q-4 9.5 2 21.5 l343 677 q6 13 17.5 15.5 q11.5 2.5 22.5 -3.5 ZM217 722 q13 0 21.5 -6 q8.5 -6 8.5 -20 l0 -386 q0 -14 -8.5 -19.5 q-8.5 -5.5 -19.5 -5.5 q-11 0 -20 5.5 q-9 5.5 -9 19.5 l0 341 l-89 -57 q-11 -7 -21 -3 q-10 4 -15 13 q-6 9 -4 20 q2 11 12 17 l111 70 q19 11 33 11 ZM773 427 q10 -7 13 -16.5 q3 -9.5 -5 -20.5 l-174 -249 l145 0 l0 113 q0 13 8 18.5 q8 5.5 19 5.5 q11 0 20 -5.5 q9 -5.5 9 -18.5 l0 -113 l43 0 q12 0 17 -7 q5 -7 5 -17 q0 -11 -5 -18 q-5 -7 -17 -7 l-43 0 l0 -72 q0 -13 -9 -18.5 q-9 -5.5 -20 -5.5 q-11 0 -19 5.5 q-8 5.5 -8 18.5 l0 72 l-179 0 q-21 0 -29 7 q-8 7 -8 21 q0 6 2.5 13 q2.5 7 12.5 20 l185 268 q14 21 37 6 Z" /><glyph glyph-name="cid748" unicode="½" d="M610 722 q11 -5 15 -14.5 q4 -9.5 -2 -21.5 l-343 -677 q-6 -13 -17.5 -15.5 q-11.5 -2.5 -22.5 3.5 q-11 5 -14.5 14.5 q-3.5 9.5 2.5 21.5 l343 677 q6 13 17 15.5 q11 2.5 22 -3.5 ZM217 722 q13 0 21.5 -6 q8.5 -6 8.5 -20 l0 -386 q0 -14 -8.5 -19.5 q-8.5 -5.5 -19.5 -5.5 q-11 0 -20 5.5 q-9 5.5 -9 19.5 l0 341 l-89 -57 q-11 -7 -21 -3 q-10 4 -15 13 q-6 9 -4 20 q2 11 12 17 l111 70 q19 11 33 11 ZM706 436 q66 0 98.5 -32 q32.5 -32 32.5 -80 l0 -5 q0 -34 -14 -61.5 q-14 -27.5 -46 -62.5 l-133 -146 l189 0 q11 0 16.5 -7.5 q5.5 -7.5 5.5 -18.5 q0 -11 -5.5 -18.5 q-5.5 -7.5 -16.5 -7.5 l-229 0 q-21 0 -30 7.5 q-9 7.5 -9 22.5 q0 12 18 33 l150 165 q28 31 38 51 q10 20 10 43 l0 2 q-1 29 -19.5 45.5 q-18.5 16.5 -54.5 16.5 q-31 0 -51 -13.5 q-20 -13.5 -37 -37.5 q-7 -9 -17 -10.5 q-10 -1.5 -20 5.5 q-9 6 -11.5 15 q-2.5 9 4.5 20 q19 32 52.5 53 q33.5 21 78.5 21 Z" /><glyph glyph-name="cid752" unicode="¾" d="M667 722 q11 -5 15 -14.5 q4 -9.5 -2 -21.5 l-343 -677 q-6 -13 -17.5 -15.5 q-11.5 -2.5 -22.5 3.5 q-11 5 -15 14.5 q-4 9.5 2 21.5 l343 677 q6 13 17.5 15.5 q11.5 2.5 22.5 -3.5 ZM191 726 q63 0 99 -30.5 q36 -30.5 36 -82.5 l0 -3 q0 -34 -20 -60 q-20 -26 -53 -36 q17 -2 33.5 -9.5 q16.5 -7.5 29 -19.5 q12.5 -12 20.5 -29.5 q8 -17.5 8 -39.5 l0 -6 q0 -57 -40 -92 q-40 -35 -110 -35 q-37 0 -69.5 10 q-32.5 10 -57.5 28 q-11 7 -12 17 q-1 10 5 20 q16 22 36 8 q20 -14 44 -23 q24 -9 53 -9 q44 0 68.5 21 q24.5 21 24.5 56 l0 4 q0 38 -26 55 q-26 17 -67 17 l-37 0 q-11 0 -16.5 7.5 q-5.5 7.5 -5.5 18.5 q0 10 5.5 17 q5.5 7 16.5 7 l33 0 q31 0 56.5 17 q25.5 17 25.5 56 l0 2 q-1 28 -21 45.5 q-20 17.5 -59 17.5 q-28 0 -46.5 -11 q-18.5 -11 -32.5 -28 q-8 -9 -18 -8.5 q-10 0.5 -18 7.5 q-8 8 -8.5 17.5 q-0.5 9.5 5.5 17.5 q17 25 47 40.5 q30 15.5 71 15.5 ZM773 427 q10 -7 13 -16.5 q3 -9.5 -5 -20.5 l-174 -249 l145 0 l0 113 q0 13 8 18.5 q8 5.5 19 5.5 q11 0 20 -5.5 q9 -5.5 9 -18.5 l0 -113 l43 0 q12 0 17 -7 q5 -7 5 -17 q0 -11 -5 -18 q-5 -7 -17 -7 l-43 0 l0 -72 q0 -13 -9 -18.5 q-9 -5.5 -20 -5.5 q-11 0 -19 5.5 q-8 5.5 -8 18.5 l0 72 l-179 0 q-21 0 -29 7 q-8 7 -8 21 q0 6 2.5 13 q2.5 7 12.5 20 l185 268 q14 21 37 6 Z" /><glyph glyph-name="cid209" unicode="¿" d="M285 582 q23 0 39.5 -16.5 q16.5 -16.5 16.5 -39.5 q0 -23 -16.5 -39 q-16.5 -16 -39.5 -16 q-24 0 -40 16 q-16 16 -16 39 q0 23 16 39.5 q16 16.5 40 16.5 ZM284 378 q14 0 25 -7 q11 -7 11 -22 q0 -26 -3 -47 q-3 -21 -13.5 -41.5 q-10.5 -20.5 -29.5 -43 q-19 -22.5 -50 -50.5 q-27 -24 -45 -42.5 q-18 -18.5 -29.5 -35 q-11.5 -16.5 -16.5 -32 q-5 -15.5 -5 -33.5 l0 -12 q0 -52 36.5 -84.5 q36.5 -32.5 102.5 -32.5 q51 0 86 17.5 q35 17.5 64 43.5 q11 9 23.5 7.5 q12.5 -1.5 21.5 -12.5 q10 -11 9.5 -23.5 q-0.5 -12.5 -11.5 -22.5 q-32 -30 -81.5 -52.5 q-49.5 -22.5 -110.5 -22.5 q-50 0 -89 13 q-39 13 -67 36.5 q-28 23.5 -42.5 56.5 q-14.5 33 -14.5 74 l0 13 q0 25 6.5 47 q6.5 22 20 42 q13.5 20 32.5 40.5 q19 20.5 45 43.5 q31 28 49 48.5 q18 20.5 27.5 37.5 q9.5 17 12 33 q2.5 16 2.5 35 q0 14 10.5 21 q10.5 7 23.5 7 Z" /><glyph glyph-name="cid666" unicode="æ" d="M880 715 q14 0 20 -9 q6 -9 6 -23 q0 -13 -6 -22 q-6 -9 -20 -9 l-335 0 l0 -252 l315 0 q13 0 19 -9 q6 -9 6 -22 q0 -13 -6 -22 q-6 -9 -19 -9 l-315 0 l0 -271 l342 0 q14 0 20 -9 q6 -9 6 -22 q0 -14 -6 -23 q-6 -9 -20 -9 l-347 0 q-38 0 -53 14 q-15 14 -15 52 l0 151 l-259 0 l-132 -206 q-8 -14 -22 -15.5 q-14 -1.5 -27 6.5 q-12 8 -15.5 20.5 q-3.5 12.5 5.5 26.5 l403 618 q8 13 15.5 21.5 q7.5 8.5 17 13.5 q9.5 5 22 7 q12.5 2 30.5 2 l370 0 ZM472 642 q-19 -39 -39.5 -75.5 q-20.5 -36.5 -49.5 -80.5 l-130 -203 l219 0 l0 359 Z" /><glyph glyph-name="cid667" unicode="ð" d="M335 715 q151 0 225.5 -80 q74.5 -80 74.5 -238 l0 -75 q0 -158 -78 -238 q-78 -80 -222 -80 l-161 0 q-38 0 -53 14 q-15 14 -15 52 l0 276 l-68 0 q-11 0 -16.5 8 q-5.5 8 -5.5 19 q0 12 5.5 20 q5.5 8 16.5 8 l68 0 l0 248 q0 38 15 52 q15 14 53 14 l161 0 ZM368 401 q11 0 16.5 -8 q5.5 -8 5.5 -20 q0 -11 -5.5 -19 q-5.5 -8 -16.5 -8 l-189 0 l0 -278 l148 0 q115 0 174.5 64 q59.5 64 59.5 194 l0 64 q0 131 -54.5 196 q-54.5 65 -179.5 65 l-148 0 l0 -250 l189 0 Z" /><glyph glyph-name="cid131" unicode="×" d="M467 578 q9 9 20 8 q11 -1 20 -10 q9 -10 11 -20.5 q2 -10.5 -7 -20.5 l-168 -177 l167 -175 q9 -9 7 -20 q-2 -11 -12 -20 q-9 -9 -19.5 -10.5 q-10.5 -1.5 -19.5 8.5 l-165 173 l-164 -173 q-9 -10 -20 -8.5 q-11 1.5 -20 10.5 q-9 9 -11 20 q-2 11 7 20 l166 175 l-168 177 q-8 10 -6.5 20.5 q1.5 10.5 11.5 20.5 q9 9 20 10 q11 1 20 -8 l165 -175 l166 175 l0 0 Z" /><glyph glyph-name="cid673" unicode="ø" d="M355 726 q132 0 204 -74 l48 60 q8 10 18.5 10.5 q10.5 0.5 19.5 -7.5 q10 -8 11.5 -17.5 q1.5 -9.5 -6.5 -19.5 l-57 -70 q50 -83 50 -221 l0 -55 q0 -168 -72 -253.5 q-72 -85.5 -216 -85.5 q-133 0 -203 72 l-48 -59 q-9 -10 -19 -10 q-10 0 -19 7 q-10 8 -11.5 17.5 q-1.5 9.5 6.5 20.5 l56 69 q-50 83 -50 222 l0 55 q0 168 72.5 253.5 q72.5 85.5 215.5 85.5 ZM355 659 q-111 0 -162.5 -68.5 q-51.5 -68.5 -51.5 -211.5 l0 -39 q0 -104 28 -167 l343 423 q-53 63 -157 63 ZM198 122 q52 -62 157 -62 q111 0 163 68.5 q52 68.5 52 211.5 l0 39 q0 100 -29 166 l-343 -423 Z" /><glyph glyph-name="cid676" unicode="þ" d="M128 719 q15 0 26 -7 q11 -7 11 -23 l0 -105 l171 0 q59 0 102.5 -15 q43.5 -15 72 -42.5 q28.5 -27.5 42.5 -65.5 q14 -38 14 -83 l0 -21 q0 -46 -15.5 -84.5 q-15.5 -38.5 -45.5 -66 q-30 -27.5 -73 -43 q-43 -15.5 -97 -15.5 l-171 0 l0 -118 q0 -16 -11 -23 q-11 -7 -26 -7 q-14 0 -25 7 q-11 7 -11 23 l0 659 q0 16 11 23 q11 7 25 7 ZM319 211 q48 0 81.5 11 q33.5 11 54 30.5 q20.5 19.5 30 47 q9.5 27.5 9.5 59.5 l0 18 q0 30 -8 56 q-8 26 -27 45.5 q-19 19.5 -50.5 31 q-31.5 11.5 -78.5 11.5 l-165 0 l0 -310 l154 0 Z" /><glyph glyph-name="cid768" unicode="ß" d="M298 756 q51 0 86.5 -10.5 q35.5 -10.5 58 -28.5 q22.5 -18 32.5 -41.5 q10 -23.5 10 -48.5 l0 -12 q0 -46 -23 -75.5 q-23 -29.5 -51 -52.5 q-28 -23 -51 -44 q-23 -21 -23 -49 l0 -6 q0 -13 3.5 -23.5 q3.5 -10.5 13 -21 q9.5 -10.5 26.5 -21 q17 -10.5 43 -23.5 q25 -12 47.5 -24.5 q22.5 -12.5 38.5 -29 q16 -16.5 25.5 -37.5 q9.5 -21 9.5 -50 l0 -14 q0 -65 -42.5 -106.5 q-42.5 -41.5 -122.5 -41.5 q-42 0 -78 11.5 q-36 11.5 -63 30.5 q-12 8 -13 20.5 q-1 12.5 6 23.5 q17 26 42 11 q23 -16 50 -26 q27 -10 55 -10 q51 0 73 23 q22 23 22 65 l0 10 q0 32 -19 51 q-19 19 -61 39 q-63 29 -95 59.5 q-32 30.5 -32 81.5 l0 9 q0 26 11 46 q11 20 27 36.5 q16 16.5 35 31 q19 14.5 35 30 q16 15.5 27 33 q11 17.5 11 39.5 l0 11 q0 32 -24.5 52 q-24.5 20 -89.5 20 q-62 0 -100.5 -34.5 q-38.5 -34.5 -38.5 -112.5 l0 -517 q0 -16 -11 -23 q-11 -7 -25 -7 q-14 0 -25 7 q-11 7 -11 23 l0 523 q0 54 16.5 92.5 q16.5 38.5 45.5 63 q29 24.5 67 36 q38 11.5 82 11.5 Z" /><glyph glyph-name="cid757" unicode="æ" d="M272 534 q61 0 105 -22.5 q44 -22.5 65 -66.5 q28 43 72.5 66 q44.5 23 105.5 23 q52 0 93 -16.5 q41 -16.5 69 -47 q28 -30.5 43 -74 q15 -43.5 15 -97.5 l0 -3 q0 -29 -13 -42 q-13 -13 -45 -13 l-316 0 l0 -17 q0 -85 44 -125.5 q44 -40.5 116 -40.5 q47 0 83 9.5 q36 9.5 67 28.5 q13 7 24.5 3.5 q11.5 -3.5 17.5 -15.5 q6 -12 3.5 -23.5 q-2.5 -11.5 -14.5 -19.5 q-34 -20 -79.5 -32.5 q-45.5 -12.5 -102.5 -12.5 q-72 0 -122 27.5 q-50 27.5 -75 78.5 q-9 -24 -32.5 -46.5 q-23.5 -22.5 -52.5 -36.5 q-21 -10 -48.5 -16.5 q-27.5 -6.5 -58.5 -6.5 q-84 0 -131 40.5 q-47 40.5 -47 113.5 l0 10 q0 32 10.5 59.5 q10.5 27.5 33 47.5 q22.5 20 58.5 31.5 q36 11.5 87 11.5 l147 0 l0 41 q0 60 -30 90 q-30 30 -94 30 q-38 0 -71.5 -12 q-33.5 -12 -65.5 -31 q-12 -8 -23.5 -4 q-11.5 4 -18.5 15 q-7 11 -5.5 23 q1.5 12 13.5 20 q32 22 77 37 q45 15 96 15 ZM619 473 q-68 0 -110.5 -41 q-42.5 -41 -42.5 -117 l0 -17 l304 0 l0 8 q0 82 -39 124.5 q-39 42.5 -112 42.5 ZM249 252 q-68 0 -93.5 -27 q-25.5 -27 -25.5 -67 l0 -6 q0 -44 27.5 -69 q27.5 -25 83.5 -25 q30 0 51.5 5 q21.5 5 40.5 15 q29 15 45 40 q16 25 16 55 l0 79 l-145 0 Z" /><glyph glyph-name="cid759" unicode="ð" d="M216 750 q32 -17 62 -34 q30 -17 56 -37 l99 42 q20 8 30 -14 q5 -11 2.5 -20 q-2.5 -9 -12.5 -13 l-72 -31 q34 -31 61.5 -65 q27.5 -34 46.5 -77 q19 -43 29.5 -98.5 q10.5 -55.5 10.5 -128.5 l0 -38 q0 -119 -62.5 -179.5 q-62.5 -60.5 -171.5 -60.5 q-109 0 -172 60.5 q-63 60.5 -63 179.5 l0 38 q0 120 63 180 q63 60 172 60 q43 0 78 -12.5 q35 -12.5 55 -37.5 q-12 48 -40 86.5 q-28 38.5 -65 68.5 l-124 -52 q-10 -4 -18 0 q-8 4 -12 14 q-5 10 -2.5 19 q2.5 9 12.5 13 l96 40 q-20 14 -41.5 26 q-21.5 12 -44.5 23 q-10 5 -12.5 15 q-2.5 10 3.5 21 q5 11 15 14.5 q10 3.5 21 -2.5 ZM295 451 q-78 0 -120.5 -43.5 q-42.5 -43.5 -42.5 -137.5 l0 -30 q0 -94 42.5 -137 q42.5 -43 120.5 -43 q77 0 119.5 43 q42.5 43 42.5 137 l0 30 q0 94 -42.5 137.5 q-42.5 43.5 -119.5 43.5 Z" /><glyph glyph-name="cid132" unicode="÷" d="M300 602 q23 0 39 -16 q16 -16 16 -39 q0 -23 -16 -38.5 q-16 -15.5 -39 -15.5 q-23 0 -39 15.5 q-16 15.5 -16 38.5 q0 23 16 39 q16 16 39 16 ZM525 391 q14 0 20 -9 q6 -9 6 -22 q0 -14 -6 -23.5 q-6 -9.5 -20 -9.5 l-449 0 q-13 0 -19 9.5 q-6 9.5 -6 23.5 q0 13 6 22 q6 9 19 9 l449 0 ZM300 226 q23 0 39 -16 q16 -16 16 -39 q0 -23 -16 -38.5 q-16 -15.5 -39 -15.5 q-23 0 -39 15.5 q-16 15.5 -16 38.5 q0 23 16 39 q16 16 39 16 Z" /><glyph glyph-name="cid766" unicode="ø" d="M298 534 q97 0 158 -50 l41 46 q7 8 15.5 7 q8.5 -1 16.5 -8 q7 -6 9.5 -14.5 q2.5 -8.5 -4.5 -16.5 l-45 -51 q21 -30 32.5 -70 q11.5 -40 11.5 -91 l0 -42 q0 -123 -63 -185.5 q-63 -62.5 -172 -62.5 q-50 0 -90.5 13 q-40.5 13 -70.5 40 l-38 -43 q-7 -8 -16 -7 q-9 1 -17 8 q-7 6 -9 15 q-2 9 5 17 l42 47 q-20 29 -30.5 69 q-10.5 40 -10.5 89 l0 42 q0 123 63 185.5 q63 62.5 172 62.5 ZM298 470 q-78 0 -120 -45 q-42 -45 -42 -143 l0 -34 q0 -63 20 -106 l254 290 q-41 38 -112 38 ZM183 100 q41 -40 115 -40 q78 0 120 45 q42 45 42 143 l0 34 q0 66 -22 110 l-255 -292 Z" /><glyph glyph-name="cid769" unicode="þ" d="M123 744 q14 0 25 -7 q11 -7 11 -23 l0 -266 q22 40 67 63 q45 23 97 23 q104 0 156.5 -62.5 q52.5 -62.5 52.5 -185.5 l0 -42 q0 -125 -58 -186.5 q-58 -61.5 -157 -61.5 q-51 0 -93.5 19 q-42.5 19 -64.5 54 l0 -233 q0 -16 -11 -23 q-11 -7 -25 -7 q-14 0 -25 7 q-11 7 -11 23 l0 878 q0 16 11 23 q11 7 25 7 ZM312 471 q-30 0 -57.5 -10.5 q-27.5 -10.5 -49 -30 q-21.5 -19.5 -34.5 -47.5 q-13 -28 -13 -63 l0 -138 q0 -24 11.5 -46 q11.5 -22 31.5 -39.5 q20 -17.5 48.5 -27.5 q28.5 -10 63.5 -10 q68 0 108 45.5 q40 45.5 40 144.5 l0 33 q0 97 -36 143 q-36 46 -113 46 Z" /><glyph glyph-name="cid758" unicode="&#x111;" d="M469 744 q14 0 25 -7 q11 -7 11 -23 l0 -52 l53 0 q11 0 15.5 -7 q4.5 -7 4.5 -18 q0 -11 -4.5 -18 q-4.5 -7 -15.5 -7 l-53 0 l0 -583 q0 -15 -10.5 -22 q-10.5 -7 -24.5 -7 q-13 0 -23.5 7 q-10.5 7 -10.5 22 l0 56 l-2 0 q-20 -41 -64.5 -65 q-44.5 -24 -101.5 -24 q-103 0 -155.5 62.5 q-52.5 62.5 -52.5 185.5 l0 42 q0 125 58.5 186.5 q58.5 61.5 156.5 61.5 q56 0 97.5 -20 q41.5 -20 60.5 -51 l0 149 l-140 0 q-10 0 -15 7 q-5 7 -5 18 q0 11 5 18 q5 7 15 7 l140 0 l0 52 q0 16 11 23 q11 7 25 7 ZM281 471 q-70 0 -110 -45 q-40 -45 -40 -144 l0 -34 q0 -97 36.5 -143 q36.5 -46 111.5 -46 q30 0 57.5 10.5 q27.5 10.5 49.5 30.5 q22 20 35 48.5 q13 28.5 13 63.5 l0 138 q0 23 -10.5 45 q-10.5 22 -30.5 39 q-20 17 -48.5 27 q-28.5 10 -63.5 10 Z" /><glyph glyph-name="cid669" unicode="&#x126;" d="M129 719 q15 0 26.5 -7 q11.5 -7 11.5 -23 l0 -120 l369 0 l0 120 q0 16 11 23 q11 7 25 7 q15 0 26.5 -7 q11.5 -7 11.5 -23 l0 -120 l53 0 q11 0 16 -8 q5 -8 5 -19 q0 -11 -5 -19 q-5 -8 -16 -8 l-53 0 l0 -485 q0 -16 -11.5 -23 q-11.5 -7 -26.5 -7 q-14 0 -25 7 q-11 7 -11 23 l0 293 l-369 0 l0 -293 q0 -16 -11.5 -23 q-11.5 -7 -26.5 -7 q-14 0 -25 7 q-11 7 -11 23 l0 485 l-55 0 q-11 0 -16.5 8 q-5.5 8 -5.5 19 q0 11 5.5 19 q5.5 8 16.5 8 l55 0 l0 120 q0 16 11 23 q11 7 25 7 ZM536 385 l0 130 l-369 0 l0 -130 l369 0 Z" /><glyph glyph-name="cid760" unicode="&#x127;" d="M132 744 q14 0 24.5 -7 q10.5 -7 10.5 -22 l0 -53 l137 0 q11 0 15.5 -7 q4.5 -7 4.5 -18 q0 -11 -4.5 -18 q-4.5 -7 -15.5 -7 l-137 0 l0 -165 l1 0 q7 15 22 30.5 q15 15.5 37 28 q22 12.5 50 20.5 q28 8 61 8 q91 0 139.5 -50 q48.5 -50 48.5 -136 l0 -318 q0 -16 -11.5 -23 q-11.5 -7 -25.5 -7 q-14 0 -24.5 7 q-10.5 7 -10.5 23 l0 301 q0 72 -32.5 105.5 q-32.5 33.5 -101.5 33.5 q-35 0 -63 -12 q-28 -12 -47.5 -31.5 q-19.5 -19.5 -30 -44 q-10.5 -24.5 -10.5 -49.5 l0 -303 q0 -16 -11 -23 q-11 -7 -25 -7 q-14 0 -25 7 q-11 7 -11 23 l0 582 l-58 0 q-11 0 -15.5 7 q-4.5 7 -4.5 18 q0 11 4.5 18 q4.5 7 15.5 7 l58 0 l0 53 q0 15 10.5 22 q10.5 7 24.5 7 Z" /><glyph glyph-name="cid761" unicode="&#x131;" d="M123 527 q14 0 25 -7 q11 -7 11 -23 l0 -467 q0 -16 -11 -23 q-11 -7 -25 -7 q-14 0 -25 7 q-11 7 -11 23 l0 467 q0 16 11 23 q11 7 25 7 Z" /><glyph glyph-name="cid670" unicode="&#x132;" d="M128 719 q15 0 26 -7 q11 -7 11 -23 l0 -659 q0 -16 -11 -23 q-11 -7 -26 -7 q-14 0 -25 7 q-11 7 -11 23 l0 659 q0 16 11 23 q11 7 25 7 ZM582 719 q15 0 26 -7 q11 -7 11 -23 l0 -497 q0 -101 -49.5 -150 q-49.5 -49 -143.5 -49 q-43 0 -80.5 11.5 q-37.5 11.5 -65.5 29.5 q-12 8 -14 21 q-2 13 6 26 q16 27 44 12 q23 -15 49.5 -23.5 q26.5 -8.5 59.5 -8.5 q61 0 91 34.5 q30 34.5 30 110.5 l0 483 q0 16 11 23 q11 7 25 7 Z" /><glyph glyph-name="cid762" unicode="&#x133;" d="M125 717 q23 0 38 -15 q15 -15 15 -37 q0 -21 -15 -36 q-15 -15 -38 -15 q-23 0 -38 15 q-15 15 -15 36 q0 22 15 37 q15 15 38 15 ZM350 717 q23 0 38 -15 q15 -15 15 -37 q0 -21 -15 -36 q-15 -15 -38 -15 q-23 0 -38 15 q-15 15 -15 36 q0 22 15 37 q15 15 38 15 ZM125 527 q14 0 25 -7 q11 -7 11 -23 l0 -467 q0 -16 -11 -23 q-11 -7 -25 -7 q-14 0 -25 7 q-11 7 -11 23 l0 467 q0 16 11 23 q11 7 25 7 ZM350 527 q14 0 25 -7 q11 -7 11 -23 l0 -531 q0 -47 -9.5 -77.5 q-9.5 -30.5 -28 -49.5 q-18.5 -19 -45 -26.5 q-26.5 -7.5 -60.5 -7.5 q-46 0 -76 14 q-26 12 -16 40 q5 14 15 18 q10 4 21 0 q23 -10 51 -10 q41 0 58.5 21 q17.5 21 17.5 77 l0 532 q0 16 11 23 q11 7 25 7 Z" /><glyph glyph-name="cid763" unicode="&#x138;" d="M123 527 q14 0 25 -7 q11 -7 11 -23 l0 -226 l260 246 q11 11 25.5 10.5 q14.5 -0.5 23.5 -11.5 q9 -10 10 -23 q1 -13 -12 -24 l-169 -154 l201 -259 q11 -12 8 -25 q-3 -13 -14 -22 q-11 -9 -24.5 -9 q-13.5 0 -24.5 13 l-197 256 l-87 -80 l0 -159 q0 -16 -11 -23 q-11 -7 -25 -7 q-14 0 -25 7 q-11 7 -11 23 l0 467 q0 16 11 23 q11 7 25 7 Z" /><glyph glyph-name="cid671" unicode="&#x13f;" d="M128 719 q15 0 26 -7 q11 -7 11 -23 l0 -621 l335 0 q14 0 20.5 -9 q6.5 -9 6.5 -23 q0 -14 -6.5 -23 q-6.5 -9 -20.5 -9 l-341 0 q-38 0 -52.5 14 q-14.5 14 -14.5 52 l0 619 q0 16 11 23 q11 7 25 7 ZM417 446 q25 0 41 -16.5 q16 -16.5 16 -39.5 q0 -24 -16 -40.5 q-16 -16.5 -41 -16.5 q-24 0 -40.5 16.5 q-16.5 16.5 -16.5 40.5 q0 23 16.5 39.5 q16.5 16.5 40.5 16.5 Z" /><glyph glyph-name="cid764" unicode="&#x140;" d="M123 744 q14 0 25 -7 q11 -7 11 -23 l0 -684 q0 -16 -11 -23 q-11 -7 -25 -7 q-14 0 -25 7 q-11 7 -11 23 l0 684 q0 16 11 23 q11 7 25 7 ZM313 435 q24 0 40.5 -16.5 q16.5 -16.5 16.5 -39.5 q0 -24 -16.5 -40.5 q-16.5 -16.5 -40.5 -16.5 q-25 0 -41 16.5 q-16 16.5 -16 40.5 q0 23 16 39.5 q16 16.5 41 16.5 Z" /><glyph glyph-name="cid672" unicode="&#x141;" d="M165 719 q15 0 26 -7 q11 -7 11 -23 l0 -309 l176 102 q10 5 19 1.5 q9 -3.5 14 -14.5 q5 -8 4 -19 q-1 -11 -10 -16 l-203 -115 l0 -251 l335 0 q14 0 20.5 -9 q6.5 -9 6.5 -23 q0 -14 -6.5 -23 q-6.5 -9 -20.5 -9 l-341 0 q-38 0 -52.5 14 q-14.5 14 -14.5 52 l0 207 l-76 -44 q-20 -11 -33 12 q-6 9 -4.5 19.5 q1.5 10.5 10.5 15.5 l103 58 l0 351 q0 16 11 23 q11 7 25 7 Z" /><glyph glyph-name="cid765" unicode="&#x142;" d="M169 744 q14 0 25 -7 q11 -7 11 -23 l0 -279 l70 39 q10 5 18 1.5 q8 -3.5 14 -12.5 q5 -10 3.5 -19 q-1.5 -9 -10.5 -14 l-95 -54 l0 -346 q0 -16 -11 -23 q-11 -7 -25 -7 q-14 0 -25 7 q-11 7 -11 23 l0 305 l-73 -41 q-18 -10 -31 11 q-5 8 -4 18 q1 10 11 15 l97 55 l0 321 q0 16 11 23 q11 7 25 7 Z" /><glyph glyph-name="cid772" unicode="&#x149;" d="M114 731 q17 -3 25 -14.5 q8 -11.5 3 -28.5 l-53 -168 q-4 -13 -13 -17 q-9 -4 -21 -2 q-26 3 -21 28 l33 175 q3 17 17 23 q14 6 30 4 ZM409 534 q91 0 139.5 -50 q48.5 -50 48.5 -136 l0 -318 q0 -16 -11 -23 q-11 -7 -25 -7 q-14 0 -25 7 q-11 7 -11 23 l0 301 q0 72 -32.5 105.5 q-32.5 33.5 -101.5 33.5 q-35 0 -63 -12 q-28 -12 -47.5 -31.5 q-19.5 -19.5 -30 -44 q-10.5 -24.5 -10.5 -49.5 l0 -303 q0 -16 -11 -23 q-11 -7 -25 -7 q-14 0 -25 7 q-11 7 -11 23 l0 468 q0 15 10.5 22 q10.5 7 24.5 7 q14 0 24.5 -7 q10.5 -7 10.5 -22 l0 -51 l1 0 q7 15 22 30.5 q15 15.5 37 28 q22 12.5 50 20.5 q28 8 61 8 Z" /><glyph glyph-name="cid678" unicode="&#x14a;" d="M573 719 q14 0 24.5 -7 q10.5 -7 10.5 -22 l0 -724 q0 -47 -9.5 -77.5 q-9.5 -30.5 -28 -49.5 q-18.5 -19 -45 -26.5 q-26.5 -7.5 -60.5 -7.5 q-46 0 -76 14 q-26 12 -16 40 q5 14 15 18 q10 4 21 0 q23 -10 51 -10 q42 0 60.5 19.5 q18.5 19.5 18.5 73.5 l0 20 l-343 572 q-10 16 -19 35.5 q-9 19.5 -16 40.5 l0 -599 q0 -15 -10.5 -22 q-10.5 -7 -24.5 -7 q-13 0 -23.5 7 q-10.5 7 -10.5 22 l0 624 q0 35 13 49 q13 14 41 14 q10 0 18 -2 q8 -2 15 -7 q7 -5 14.5 -15.5 q7.5 -10.5 17.5 -26.5 l293 -492 q20 -34 35 -76 l0 593 q0 15 10.5 22 q10.5 7 23.5 7 Z" /><glyph glyph-name="cid771" unicode="&#x14b;" d="M328 534 q91 0 139.5 -50 q48.5 -50 48.5 -136 l0 -382 q0 -47 -9.5 -77.5 q-9.5 -30.5 -28 -49.5 q-18.5 -19 -45.5 -26.5 q-27 -7.5 -61 -7.5 q-45 0 -76 14 q-26 13 -15 40 q5 14 15 18 q10 4 21 0 q21 -10 51 -10 q41 0 58.5 21 q17.5 21 17.5 77 l0 366 q0 72 -32.5 105.5 q-32.5 33.5 -101.5 33.5 q-35 0 -63 -12 q-28 -12 -47.5 -31.5 q-19.5 -19.5 -30 -44 q-10.5 -24.5 -10.5 -49.5 l0 -303 q0 -16 -11 -23 q-11 -7 -25 -7 q-14 0 -25 7 q-11 7 -11 23 l0 468 q0 15 10.5 22 q10.5 7 24.5 7 q13 0 23.5 -7 q10.5 -7 10.5 -22 l0 -51 l2 0 q7 15 22 30.5 q15 15.5 36.5 28 q21.5 12.5 50 20.5 q28.5 8 61.5 8 Z" /><glyph glyph-name="cid674" unicode="&#x152;" d="M889 715 q14 0 20 -9 q6 -9 6 -23 q0 -13 -6 -22 q-6 -9 -20 -9 l-336 0 l0 -252 l316 0 q13 0 19 -9 q6 -9 6 -22 q0 -13 -6 -22 q-6 -9 -19 -9 l-316 0 l0 -271 l343 0 q14 0 20 -9 q6 -9 6 -22 q0 -14 -6 -23 q-6 -9 -20 -9 l-544 0 q-288 0 -288 328 l0 55 q0 328 288 328 l537 0 ZM352 648 q-111 0 -162.5 -65 q-51.5 -65 -51.5 -204 l0 -39 q0 -139 51.5 -204 q51.5 -65 162.5 -65 l128 0 l0 577 l-128 0 Z" /><glyph glyph-name="cid767" unicode="&#x153;" d="M286 534 q70 0 118.5 -28 q48.5 -28 73.5 -79 q24 51 72 79 q48 28 115 28 q101 0 159 -60.5 q58 -60.5 59 -175.5 l0 -2 q0 -29 -13 -42 q-13 -13 -45 -13 l-311 0 l0 -6 q0 -89 41 -133 q41 -44 117 -44 q46 0 80.5 9.5 q34.5 9.5 65.5 28.5 q13 7 24.5 3.5 q11.5 -3.5 17.5 -15.5 q6 -12 3.5 -23.5 q-2.5 -11.5 -14.5 -19.5 q-34 -20 -78.5 -32.5 q-44.5 -12.5 -102.5 -12.5 q-72 0 -120.5 29.5 q-48.5 29.5 -69.5 78.5 q-23 -49 -71.5 -78.5 q-48.5 -29.5 -120.5 -29.5 q-106 0 -166 62.5 q-60 62.5 -60 185.5 l0 42 q0 123 60 185.5 q60 62.5 166 62.5 ZM664 473 q-71 0 -110.5 -44.5 q-39.5 -44.5 -39.5 -125.5 l0 -5 l298 0 l0 8 q0 80 -38 123.5 q-38 43.5 -110 43.5 ZM286 470 q-74 0 -114 -45 q-40 -45 -40 -143 l0 -34 q0 -98 40 -143 q40 -45 114 -45 q74 0 114 45 q40 45 40 143 l0 34 q0 98 -40 143 q-40 45 -114 45 Z" /><glyph glyph-name="cid677" unicode="&#x166;" d="M539 715 q14 0 20 -9 q6 -9 6 -23 q0 -14 -6 -23 q-6 -9 -20 -9 l-210 0 l0 -258 l133 0 q11 0 16.5 -8 q5.5 -8 5.5 -19 q0 -11 -5.5 -19 q-5.5 -8 -16.5 -8 l-133 0 l0 -309 q0 -16 -11 -23 q-11 -7 -26 -7 q-14 0 -25 7 q-11 7 -11 23 l0 309 l-130 0 q-12 0 -17.5 8 q-5.5 8 -5.5 19 q0 11 5.5 19 q5.5 8 17.5 8 l130 0 l0 258 l-210 0 q-14 0 -20 9 q-6 9 -6 23 q0 14 6 23 q6 9 20 9 l493 0 l0 0 Z" /><glyph glyph-name="cid770" unicode="&#x167;" d="M154 666 q14 0 25.5 -7 q11.5 -7 11.5 -23 l0 -113 l127 0 q12 0 18 -8.5 q6 -8.5 6 -20.5 q0 -13 -6 -21.5 q-6 -8.5 -18 -8.5 l-127 0 l0 -116 l121 0 q10 0 15 -6.5 q5 -6.5 5 -17.5 q0 -10 -5 -16.5 q-5 -6.5 -15 -6.5 l-121 0 l0 -143 q0 -58 16 -79 q16 -21 57 -21 q29 0 52 10 q11 4 21 0 q10 -4 15 -18 q10 -27 -16 -40 q-30 -14 -76 -14 q-72 0 -106.5 35 q-34.5 35 -34.5 121 l0 149 l-70 0 q-10 0 -15 6.5 q-5 6.5 -5 16.5 q0 11 5 17.5 q5 6.5 15 6.5 l70 0 l0 116 l-70 0 q-13 0 -19 8.5 q-6 8.5 -6 21.5 q0 12 6 20.5 q6 8.5 19 8.5 l70 0 l0 113 q0 16 10.5 23 q10.5 7 24.5 7 Z" /><glyph glyph-name="cid201" unicode="&#x2c7;" d="M195 749 q18 13 32 -3 l74 -83 l71 83 q6 7 15.5 8 q9.5 1 17.5 -5 q8 -6 10 -14.5 q2 -8.5 -4 -16.5 l-64 -85 q-11 -13 -21.5 -19.5 q-10.5 -6.5 -25.5 -6.5 q-15 0 -25.5 6.5 q-10.5 6.5 -21.5 19.5 l-64 85 q-6 8 -4 16.5 q2 8.5 10 14.5 Z" /><glyph glyph-name="cid210" unicode="&#x2d0;&#x2236;" d="M455 505 l-97 95 l194 0 l-97 -95 ZM358 119 l97 95 l97 -95 l-194 0 Z" /><glyph glyph-name="cid202" unicode="&#x2d8;" d="M407 745 q24 -6 19 -29 q-3 -19 -13 -37 q-10 -18 -26 -31.5 q-16 -13.5 -38 -22 q-22 -8.5 -49 -8.5 q-27 0 -49 8.5 q-22 8.5 -38 22 q-16 13.5 -26 31.5 q-10 18 -13 37 q-5 23 19 29 q24 5 30 -16 q6 -26 26 -42.5 q20 -16.5 51 -16.5 q31 0 51 16.5 q20 16.5 26 42.5 q6 21 30 16 Z" /><glyph glyph-name="cid205" unicode="&#x2d9;" d="M166 744 q24 0 40.5 -16.5 q16.5 -16.5 16.5 -40.5 q0 -23 -16.5 -39.5 q-16.5 -16.5 -40.5 -16.5 q-25 0 -41 16.5 q-16 16.5 -16 39.5 q0 24 16 40.5 q16 16.5 41 16.5 Z" /><glyph glyph-name="cid204" unicode="&#x2da;" d="M165 776 q42 0 67.5 -26 q25.5 -26 25.5 -64 q0 -38 -25.5 -64 q-25.5 -26 -67.5 -26 q-42 0 -67.5 26 q-25.5 26 -25.5 64 q0 38 25.5 64 q25.5 26 67.5 26 ZM165 736 q-21 0 -34.5 -15 q-13.5 -15 -13.5 -35 q0 -20 13.5 -34 q13.5 -14 34.5 -14 q22 0 35.5 14 q13.5 14 13.5 34 q0 20 -13.5 35 q-13.5 15 -35.5 15 Z" /><glyph glyph-name="cid207" unicode="&#x2db;" d="M230 5 q-36 -26 -59 -51 q-23 -25 -23 -55 q0 -21 14.5 -31.5 q14.5 -10.5 37.5 -10.5 q7 0 14.5 1 q7.5 1 15.5 3 q16 3 21 -16 q2 -9 -1 -16.5 q-3 -7.5 -12 -10.5 q-9 -4 -22 -5.5 q-13 -1.5 -25 -1.5 q-48 1 -76 22 q-28 21 -28 59 q0 20 8 37 q8 17 21 31.5 q13 14.5 28 25.5 q15 11 30 19 l56 0 l0 0 Z" /><glyph glyph-name="cid200" unicode="&#x2dc;" d="M424 734 q11 -2 14.5 -10.5 q3.5 -8.5 0.5 -19.5 q-8 -29 -29.5 -49.5 q-21.5 -20.5 -52.5 -20.5 q-18 0 -33 6 q-15 6 -29 13.5 q-14 7.5 -27 13.5 q-13 6 -25 6 q-26 0 -36 -28 q-8 -19 -30 -13 q-22 4 -16 30 q8 28 29.5 48.5 q21.5 20.5 52.5 20.5 q18 0 33 -6 q15 -6 29 -13.5 q14 -7.5 27 -13.5 q13 -6 25 -6 q14 0 23 8 q9 8 14 20 q6 19 30 14 Z" /><glyph glyph-name="cid203" unicode="&#x2dd;" d="M260 759 q16 -5 23 -15.5 q7 -10.5 -1 -24.5 l-46 -88 q-6 -12 -17 -15.5 q-11 -3.5 -22 0.5 q-24 8 -16 32 l36 94 q5 13 17 17.5 q12 4.5 26 -0.5 ZM396 759 q15 -5 21.5 -15.5 q6.5 -10.5 -0.5 -24.5 l-45 -88 q-6 -12 -17 -15.5 q-11 -3.5 -22 0.5 q-26 8 -17 32 l37 94 q5 13 17 17.5 q12 4.5 26 -0.5 Z" /><glyph glyph-name="cid471" unicode="&#x391;" d="M331 719 q15 0 26 -7 q11 -7 18 -25 l248 -640 q6 -16 -0.5 -27.5 q-6.5 -11.5 -20.5 -16.5 q-15 -5 -28.5 -1.5 q-13.5 3.5 -19.5 20.5 l-75 199 l-300 0 l-76 -200 q-6 -16 -19 -19.5 q-13 -3.5 -28 1.5 q-14 5 -19.5 16 q-5.5 11 0.5 27 l249 641 q7 18 18.5 25 q11.5 7 26.5 7 ZM330 632 q-11 -36 -23 -71.5 q-12 -35.5 -29 -77.5 l-76 -200 l255 0 l-74 200 q-16 41 -29 78 q-13 37 -24 71 Z" /><glyph glyph-name="cid472" unicode="&#x392;" d="M336 715 q115 0 169 -43 q54 -43 54 -133 l0 -16 q0 -24 -6 -46.5 q-6 -22.5 -20 -42 q-14 -19.5 -36.5 -34 q-22.5 -14.5 -54.5 -22.5 q70 -10 110 -49 q40 -39 40 -115 l0 -20 q0 -89 -53.5 -139.5 q-53.5 -50.5 -169.5 -50.5 l-210 0 q-38 0 -52.5 14 q-14.5 14 -14.5 52 l0 579 q0 38 14.5 52 q14.5 14 52.5 14 l177 0 ZM326 407 q79 0 119 27 q40 27 40 90 l0 13 q0 58 -37.5 86.5 q-37.5 28.5 -126.5 28.5 l-157 0 l0 -245 l162 0 ZM349 67 q85 0 126.5 30 q41.5 30 41.5 102 l0 17 q0 31 -9.5 55.5 q-9.5 24.5 -32 40.5 q-22.5 16 -58.5 24.5 q-36 8.5 -89 8.5 l-164 0 l0 -278 l185 0 Z" /><glyph glyph-name="cid473" unicode="&#x393;" d="M501 715 q14 0 20 -9 q6 -9 6 -23 q0 -14 -6 -23 q-6 -9 -20 -9 l-336 0 l0 -621 q0 -16 -11 -23 q-11 -7 -26 -7 q-14 0 -25 7 q-11 7 -11 23 l0 619 q0 38 14.5 52 q14.5 14 52.5 14 l342 0 l0 0 Z" /><glyph glyph-name="cid474" unicode="&#x394;" d="M327 721 q15 0 26.5 -7 q11.5 -7 18.5 -25 l235 -625 q13 -35 -8 -51 q-11 -8 -31 -8.5 q-20 -0.5 -37 -0.5 l-411 0 q-17 0 -37 0.5 q-20 0.5 -31 8.5 q-12 9 -13 21.5 q-1 12.5 5 29.5 l237 625 q8 18 19.5 25 q11.5 7 26.5 7 ZM528 68 l-202 565 l-204 -565 l406 0 Z" /><glyph glyph-name="cid475" unicode="&#x395;" d="M506 715 q14 0 20 -9 q6 -9 6 -23 q0 -13 -6 -22 q-6 -9 -20 -9 l-341 0 l0 -252 l321 0 q13 0 19 -9 q6 -9 6 -22 q0 -13 -6 -22 q-6 -9 -19 -9 l-321 0 l0 -271 l348 0 q14 0 20 -9 q6 -9 6 -22 q0 -14 -6 -23 q-6 -9 -20 -9 l-354 0 q-38 0 -52.5 14 q-14.5 14 -14.5 52 l0 579 q0 38 14.5 52 q14.5 14 52.5 14 l347 0 l0 0 Z" /><glyph glyph-name="cid476" unicode="&#x396;" d="M503 715 q30 0 42 -9.5 q12 -9.5 12 -29.5 q0 -10 -4.5 -19.5 q-4.5 -9.5 -23.5 -34.5 l-404 -554 l427 0 q14 0 20 -9 q6 -9 6 -23 q0 -14 -6 -23 q-6 -9 -20 -9 l-462 0 q-31 0 -43.5 9.5 q-12.5 9.5 -12.5 30.5 q0 5 1 10 q1 5 4.5 11.5 q3.5 6.5 10 16 q6.5 9.5 17.5 24.5 l397 545 l-381 0 q-14 0 -20.5 9 q-6.5 9 -6.5 23 q0 14 6.5 23 q6.5 9 20.5 9 l420 0 l0 0 Z" /><glyph glyph-name="cid477" unicode="&#x397;" d="M128 719 q15 0 26 -7 q11 -7 11 -23 l0 -281 l370 0 l0 281 q0 16 11 23 q11 7 25 7 q15 0 26 -7 q11 -7 11 -23 l0 -659 q0 -16 -11 -23 q-11 -7 -26 -7 q-14 0 -25 7 q-11 7 -11 23 l0 315 l-370 0 l0 -315 q0 -16 -11 -23 q-11 -7 -26 -7 q-14 0 -25 7 q-11 7 -11 23 l0 659 q0 16 11 23 q11 7 25 7 Z" /><glyph glyph-name="cid478" unicode="&#x398;" d="M352 726 q144 0 216 -85.5 q72 -85.5 72 -253.5 l0 -55 q0 -168 -72 -253.5 q-72 -85.5 -216 -85.5 q-144 0 -216 85.5 q-72 85.5 -72 253.5 l0 55 q0 168 72 253.5 q72 85.5 216 85.5 ZM352 659 q-111 0 -162.5 -68.5 q-51.5 -68.5 -51.5 -211.5 l0 -39 q0 -143 51.5 -211.5 q51.5 -68.5 162.5 -68.5 q111 0 162.5 68.5 q51.5 68.5 51.5 211.5 l0 39 q0 143 -51.5 211.5 q-51.5 68.5 -162.5 68.5 ZM502 393 q13 0 18.5 -9 q5.5 -9 5.5 -22 q0 -11 -5.5 -20 q-5.5 -9 -18.5 -9 l-294 0 q-12 0 -18 9 q-6 9 -6 20 q0 13 6 22 q6 9 18 9 l294 0 Z" /><glyph glyph-name="cid479" unicode="&#x399;" d="M128 719 q15 0 26 -7 q11 -7 11 -23 l0 -659 q0 -16 -11 -23 q-11 -7 -26 -7 q-14 0 -25 7 q-11 7 -11 23 l0 659 q0 16 11 23 q11 7 25 7 Z" /><glyph glyph-name="cid480" unicode="&#x39a;" d="M128 719 q15 0 26 -7 q11 -7 11 -23 l0 -342 l350 362 q11 11 25 10 q14 -1 23 -10 q10 -10 12 -23 q2 -13 -9 -24 l-252 -256 l276 -349 q11 -14 8.5 -26.5 q-2.5 -12.5 -14.5 -22.5 q-12 -9 -25.5 -8 q-13.5 1 -24.5 15 l-270 343 l-99 -100 l0 -228 q0 -16 -11 -23 q-11 -7 -26 -7 q-14 0 -25 7 q-11 7 -11 23 l0 659 q0 16 11 23 q11 7 25 7 Z" /><glyph glyph-name="cid481" unicode="&#x39b;" d="M324 719 q15 0 26.5 -7 q11.5 -7 19.5 -25 l239 -640 q7 -17 0 -28 q-7 -11 -21 -16 q-15 -5 -28.5 -1.5 q-13.5 3.5 -19.5 20.5 l-166 461 q-16 43 -27.5 78.5 q-11.5 35.5 -22.5 70.5 q-11 -36 -23 -71.5 q-12 -35.5 -28 -77.5 l-169 -462 q-6 -17 -18.5 -20 q-12.5 -3 -27.5 2 q-14 5 -20.5 15.5 q-6.5 10.5 -0.5 27.5 l242 641 q7 18 18.5 25 q11.5 7 26.5 7 Z" /><glyph glyph-name="cid482" unicode="&#x39c;" d="M149 716 q22 0 34 -9 q12 -9 26 -41 l218 -460 l213 459 q13 32 25.5 41.5 q12.5 9.5 34.5 9.5 l8 0 q27 0 38 -13.5 q11 -13.5 11 -45.5 l0 -628 q0 -15 -10.5 -22 q-10.5 -7 -24.5 -7 q-14 0 -24 7 q-10 7 -10 22 l0 603 q-12 -34 -23 -59.5 q-11 -25.5 -24 -53.5 l-174 -371 q-8 -17 -17.5 -23 q-9.5 -6 -23.5 -6 q-17 0 -26 6.5 q-9 6.5 -17 23.5 l-174 370 q-13 27 -24 53 q-11 26 -24 60 l0 -603 q0 -15 -10.5 -22 q-10.5 -7 -24.5 -7 q-13 0 -23.5 7 q-10.5 7 -10.5 22 l0 628 q0 32 11 45.5 q11 13.5 38 13.5 l8 0 l0 0 Z" /><glyph glyph-name="cid483" unicode="&#x39d;" d="M573 719 q14 0 24.5 -7 q10.5 -7 10.5 -22 l0 -624 q0 -35 -13 -49 q-13 -14 -41 -14 q-10 0 -18 2 q-8 2 -15.5 7 q-7.5 5 -15 15 q-7.5 10 -16.5 27 l-294 497 q-9 16 -18 35 q-9 19 -15 39 l0 -596 q0 -15 -11 -22 q-11 -7 -25 -7 q-13 0 -23.5 7 q-10.5 7 -10.5 22 l0 624 q0 35 13 49 q13 14 41 14 q10 0 18 -2 q8 -2 15 -7 q7 -5 14.5 -15.5 q7.5 -10.5 17.5 -26.5 l293 -497 q8 -14 17.5 -33.5 q9.5 -19.5 16.5 -41.5 l0 597 q0 15 10.5 22 q10.5 7 24.5 7 Z" /><glyph glyph-name="cid484" unicode="&#x39e;" d="M499 715 q14 0 20 -9 q6 -9 6 -23 q0 -13 -6 -22.5 q-6 -9.5 -20 -9.5 l-404 0 q-14 0 -20 9.5 q-6 9.5 -6 22.5 q0 14 6 23 q6 9 20 9 l404 0 ZM472 401 q14 0 20 -9 q6 -9 6 -23 q0 -13 -6 -22.5 q-6 -9.5 -20 -9.5 l-349 0 q-14 0 -20 9.5 q-6 9.5 -6 22.5 q0 14 6 23 q6 9 20 9 l349 0 ZM504 68 q14 0 20 -9 q6 -9 6 -23 q0 -13 -6 -22.5 q-6 -9.5 -20 -9.5 l-411 0 q-14 0 -20 9.5 q-6 9.5 -6 22.5 q0 14 6 23 q6 9 20 9 l411 0 Z" /><glyph glyph-name="cid485" unicode="&#x39f;" d="M352 726 q144 0 216 -85.5 q72 -85.5 72 -253.5 l0 -55 q0 -168 -72 -253.5 q-72 -85.5 -216 -85.5 q-144 0 -216 85.5 q-72 85.5 -72 253.5 l0 55 q0 168 72 253.5 q72 85.5 216 85.5 ZM352 659 q-111 0 -162.5 -68.5 q-51.5 -68.5 -51.5 -211.5 l0 -39 q0 -143 51.5 -211.5 q51.5 -68.5 162.5 -68.5 q111 0 162.5 68.5 q51.5 68.5 51.5 211.5 l0 39 q0 143 -51.5 211.5 q-51.5 68.5 -162.5 68.5 Z" /><glyph glyph-name="cid486" unicode="&#x3a0;" d="M520 715 q38 0 53 -14 q15 -14 15 -52 l0 -619 q0 -16 -11 -23 q-11 -7 -25 -7 q-15 0 -26 7 q-11 7 -11 23 l0 622 l-350 0 l0 -622 q0 -16 -11 -23 q-11 -7 -26 -7 q-14 0 -25 7 q-11 7 -11 23 l0 619 q0 38 14.5 52 q14.5 14 52.5 14 l361 0 l0 0 Z" /><glyph glyph-name="cid487" unicode="&#x3a1;" d="M332 715 q120 0 178.5 -54 q58.5 -54 58.5 -151 l0 -16 q0 -97 -60.5 -153 q-60.5 -56 -178.5 -56 l-165 0 l0 -255 q0 -16 -11 -23 q-11 -7 -26 -7 q-14 0 -25 7 q-11 7 -11 23 l0 619 q0 38 14.5 52 q14.5 14 52.5 14 l173 0 ZM321 349 q93 0 134 38 q41 38 41 109 l0 13 q0 69 -39.5 105.5 q-39.5 36.5 -126.5 36.5 l-165 0 l0 -302 l156 0 Z" /><glyph glyph-name="cid488" unicode="&#x3a3;" d="M504 715 q14 0 20 -9 q6 -9 6 -23 q0 -14 -6 -23 q-6 -9 -20 -9 l-347 0 l184 -221 q25 -30 34.5 -44.5 q9.5 -14.5 9.5 -25.5 q0 -12 -9.5 -26.5 q-9.5 -14.5 -34.5 -44.5 l-184 -221 l349 0 q14 0 20.5 -9.5 q6.5 -9.5 6.5 -22.5 q0 -14 -6.5 -23 q-6.5 -9 -20.5 -9 l-386 0 q-29 0 -41 9.5 q-12 9.5 -12 29.5 q0 11 4.5 21.5 q4.5 10.5 22.5 32.5 l216 263 l-216 262 q-18 22 -22.5 32.5 q-4.5 10.5 -4.5 21.5 q0 20 12 29.5 q12 9.5 41 9.5 l384 0 l0 0 Z" /><glyph glyph-name="cid489" unicode="&#x3a4;" d="M539 715 q14 0 20 -9 q6 -9 6 -23 q0 -14 -6 -23 q-6 -9 -20 -9 l-210 0 l0 -621 q0 -16 -11 -23 q-11 -7 -26 -7 q-14 0 -25 7 q-11 7 -11 23 l0 621 l-210 0 q-14 0 -20 9 q-6 9 -6 23 q0 14 6 23 q6 9 20 9 l493 0 l0 0 Z" /><glyph glyph-name="cid490" unicode="&#x3a5;" d="M553 715 q14 -7 19 -18.5 q5 -11.5 -4 -26.5 l-221 -376 l0 -264 q0 -16 -11 -23 q-11 -7 -26 -7 q-14 0 -25 7 q-11 7 -11 23 l0 264 l-223 374 q-9 14 -5.5 26 q3.5 12 17.5 20 q13 7 27 4.5 q14 -2.5 22 -17.5 l200 -340 l194 340 q8 14 20.5 17 q12.5 3 26.5 -3 Z" /><glyph glyph-name="cid491" unicode="&#x3a6;" d="M375 742 q14 0 24 -7 q10 -7 10 -23 l0 -64 q131 -7 205 -71 q74 -64 74 -185 l0 -45 q0 -119 -74.5 -184 q-74.5 -65 -204.5 -72 l0 -61 q0 -17 -10 -23.5 q-10 -6.5 -24 -6.5 q-14 0 -24 6.5 q-10 6.5 -10 23.5 l0 61 q-131 8 -204.5 72 q-73.5 64 -73.5 184 l0 45 q0 120 73.5 184.5 q73.5 64.5 204.5 71.5 l0 64 q0 16 10 23 q10 7 24 7 ZM341 583 q-99 -6 -152 -54 q-53 -48 -53 -141 l0 -36 q0 -94 53 -141.5 q53 -47.5 152 -54.5 l0 427 ZM409 156 q99 7 152.5 54.5 q53.5 47.5 53.5 141.5 l0 36 q0 94 -53.5 141.5 q-53.5 47.5 -152.5 53.5 l0 -427 Z" /><glyph glyph-name="cid492" unicode="&#x3a7;" d="M558 713 q13 -8 17 -20.5 q4 -12.5 -6 -26.5 l-201 -296 l212 -315 q10 -15 7 -28 q-3 -13 -16 -21 q-14 -8 -28 -5.5 q-14 2.5 -24 16.5 l-199 304 l-205 -303 q-9 -14 -22.5 -17 q-13.5 -3 -26.5 5 q-12 8 -16 20.5 q-4 12.5 6 26.5 l220 318 l-206 293 q-10 15 -6 28 q4 13 18 21 q14 8 28.5 5 q14.5 -3 24.5 -17 l190 -282 l185 282 q9 14 22 17 q13 3 26 -5 Z" /><glyph glyph-name="cid493" unicode="&#x3a8;" d="M100 699 q16 0 26 -7 q10 -7 10 -23 l0 -165 q0 -123 44 -182.5 q44 -59.5 138 -68.5 l0 416 q0 16 10.5 23 q10.5 7 24.5 7 q15 0 25.5 -7 q10.5 -7 10.5 -23 l0 -416 q94 9 138.5 68.5 q44.5 59.5 44.5 182.5 l0 165 q0 16 10 23 q10 7 26 7 q14 0 25 -7 q11 -7 11 -23 l0 -163 q0 -156 -64 -233.5 q-64 -77.5 -191 -86.5 l0 -156 q0 -16 -10.5 -23 q-10.5 -7 -25.5 -7 q-14 0 -24.5 7 q-10.5 7 -10.5 23 l0 156 q-126 9 -190 86.5 q-64 77.5 -64 233.5 l0 163 q0 16 11 23 q11 7 25 7 Z" /><glyph glyph-name="cid494" unicode="&#x3a9;" d="M368 726 q140 0 208.5 -86 q68.5 -86 68.5 -253 l0 -47 q0 -111 -31 -177.5 q-31 -66.5 -87 -96.5 l160 0 q13 0 19.5 -9 q6.5 -9 6.5 -21 q0 -14 -6.5 -23 q-6.5 -9 -19.5 -9 l-215 0 q-20 0 -28.5 10 q-8.5 10 -8.5 24 q0 15 6 24.5 q6 9.5 18 17.5 q61 35 86.5 101 q25.5 66 25.5 165 l0 33 q0 141 -48.5 210.5 q-48.5 69.5 -154.5 69.5 q-107 0 -155.5 -69.5 q-48.5 -69.5 -48.5 -210.5 l0 -33 q0 -99 25.5 -165 q25.5 -66 86.5 -101 q24 -14 24 -42 q0 -14 -8.5 -24 q-8.5 -10 -28.5 -10 l-215 0 q-13 0 -19 9 q-6 9 -6 23 q0 12 6 21 q6 9 19 9 l160 0 q-56 30 -87 96.5 q-31 66.5 -31 177.5 l0 47 q0 167 69 253 q69 86 209 86 Z" /><glyph glyph-name="cid495" unicode="&#x3b1;" d="M275 534 q56 0 97.5 -21 q41.5 -21 59.5 -52 l2 0 l0 36 q0 16 10.5 23 q10.5 7 24.5 7 q14 0 25 -7 q11 -7 11 -23 l0 -468 q0 -15 -10.5 -22 q-10.5 -7 -24.5 -7 q-14 0 -24.5 7 q-10.5 7 -10.5 22 l0 56 l-1 0 q-20 -41 -64.5 -65 q-44.5 -24 -101.5 -24 q-103 0 -155.5 62.5 q-52.5 62.5 -52.5 185.5 l0 42 q0 125 58.5 186.5 q58.5 61.5 156.5 61.5 ZM281 471 q-70 0 -110 -45 q-40 -45 -40 -144 l0 -34 q0 -97 36.5 -143 q36.5 -46 111.5 -46 q30 0 57.5 10.5 q27.5 10.5 49.5 30.5 q22 20 35 48.5 q13 28.5 13 63.5 l0 138 q0 23 -10.5 45 q-10.5 22 -30.5 39 q-20 17 -48.5 27 q-28.5 10 -63.5 10 Z" /><glyph glyph-name="cid496" unicode="&#x3b2;" d="M287 756 q50 0 86.5 -14 q36.5 -14 60.5 -38 q24 -24 35.5 -55.5 q11.5 -31.5 11.5 -65.5 l0 -21 q0 -74 -29.5 -114 q-29.5 -40 -83.5 -57 q36 -3 66.5 -15 q30.5 -12 52 -33 q21.5 -21 34 -52 q12.5 -31 12.5 -73 l0 -35 q0 -46 -15.5 -82.5 q-15.5 -36.5 -42.5 -62 q-27 -25.5 -63.5 -39 q-36.5 -13.5 -79.5 -13.5 q-66 0 -110 23.5 q-44 23.5 -64 54.5 l0 -228 q0 -16 -11 -23 q-11 -7 -25 -7 q-14 0 -24.5 7 q-10.5 7 -10.5 23 l0 720 q0 53 16 91 q16 38 43.5 62 q27.5 24 64 35.5 q36.5 11.5 76.5 11.5 ZM288 694 q-60 0 -95 -37.5 q-35 -37.5 -35 -112.5 l0 -370 q0 -22 10 -44 q10 -22 30.5 -40 q20.5 -18 52 -29 q31.5 -11 73.5 -11 q39 0 65 13 q26 13 42 33 q16 20 23 43.5 q7 23.5 7 45.5 l0 30 q0 41 -12 68 q-12 27 -34.5 43.5 q-22.5 16.5 -55 23 q-32.5 6.5 -73.5 6.5 q-14 0 -19.5 9 q-5.5 9 -5.5 22 q0 13 5.5 22 q5.5 9 19.5 9 q37 0 60.5 11 q23.5 11 37.5 30.5 q14 19.5 19.5 44.5 q5.5 25 5.5 54 l0 17 q0 52 -31 85.5 q-31 33.5 -90 33.5 Z" /><glyph glyph-name="cid497" unicode="&#x3b3;" d="M52 528 q15 5 26.5 0.5 q11.5 -4.5 16.5 -19.5 l160 -425 l157 425 q5 14 17 19 q12 5 26 0 q14 -4 21 -14.5 q7 -10.5 0 -26.5 l-186 -476 l0 -175 q0 -16 -11 -23 q-11 -7 -26 -7 q-14 0 -25 7 q-11 7 -11 23 l0 173 l-187 478 q-6 17 1 27 q7 10 21 14 Z" /><glyph glyph-name="cid498" unicode="&#x3b4;" d="M305 756 q38 0 71.5 -6.5 q33.5 -6.5 63.5 -20.5 q12 -5 16.5 -15.5 q4.5 -10.5 -0.5 -23.5 q-13 -28 -38 -16 q-24 11 -51 16.5 q-27 5.5 -54 5.5 q-54 0 -75.5 -15.5 q-21.5 -15.5 -21.5 -40.5 q0 -17 11.5 -32.5 q11.5 -15.5 34 -32.5 q22.5 -17 55.5 -37 q33 -20 75 -45 q69 -43 98 -96.5 q29 -53.5 29 -128.5 l0 -29 q0 -121 -61.5 -182 q-61.5 -61 -167.5 -61 q-107 0 -168.5 61 q-61.5 61 -61.5 182 l0 29 q0 112 56 175 q56 63 153 63 q-62 33 -92.5 65.5 q-30.5 32.5 -30.5 68.5 l0 11 q0 21 9.5 40 q9.5 19 29 33.5 q19.5 14.5 49.5 23 q30 8.5 71 8.5 ZM290 448 q-75 0 -116.5 -44 q-41.5 -44 -41.5 -140 l0 -21 q0 -95 41.5 -139 q41.5 -44 116.5 -44 q75 0 116.5 44 q41.5 44 41.5 139 l0 21 q0 96 -41.5 140 q-41.5 44 -116.5 44 Z" /><glyph glyph-name="cid499" unicode="&#x3b5;" d="M267 542 q42 0 77 -5.5 q35 -5.5 68 -18.5 q11 -5 14.5 -15 q3.5 -10 -1.5 -23 q-11 -24 -37 -16 q-28 11 -59 15 q-31 4 -60 4 q-60 0 -92 -19 q-32 -19 -32 -52 l0 -9 q0 -50 35.5 -69.5 q35.5 -19.5 91.5 -19.5 l45 0 q14 0 19.5 -8.5 q5.5 -8.5 5.5 -21.5 q0 -13 -5.5 -21.5 q-5.5 -8.5 -19.5 -8.5 l-52 0 q-59 0 -95.5 -20.5 q-36.5 -20.5 -36.5 -73.5 l0 -10 q0 -43 34 -68 q34 -25 95 -25 q42 0 78.5 9 q36.5 9 74.5 29 q26 13 40 -12 q7 -11 4 -23 q-3 -12 -14 -18 q-41 -22 -87.5 -34 q-46.5 -12 -95.5 -12 q-96 0 -150 38.5 q-54 38.5 -54 113.5 l0 12 q0 57 34 87 q34 30 94 38 q-58 13 -86.5 43.5 q-28.5 30.5 -28.5 75.5 l0 10 q0 65 53.5 96.5 q53.5 31.5 142.5 31.5 Z" /><glyph glyph-name="cid500" unicode="&#x3b6;" d="M375 750 q20 0 28.5 -6.5 q8.5 -6.5 10.5 -19.5 q1 -10 -3 -21 q-4 -11 -21 -22 q-54 -41 -102 -86 q-48 -45 -84.5 -96 q-36.5 -51 -57.5 -108.5 q-21 -57.5 -21 -121.5 l0 -5 q0 -43 14 -72 q14 -29 39 -49 q25 -20 59 -34 q34 -14 75 -27 q40 -13 66 -24 q26 -11 40.5 -23 q14.5 -12 20 -27 q5.5 -15 5.5 -34 q0 -36 -21 -61 q-21 -25 -50 -45 q-13 -9 -25 -6.5 q-12 2.5 -20 13.5 q-8 10 -7.5 22 q0.5 12 13.5 20 q23 15 31.5 27.5 q8.5 12.5 8.5 25.5 q0 11 -8.5 18.5 q-8.5 7.5 -22 13.5 q-13.5 6 -31 11 q-17.5 5 -34.5 10 q-49 13 -90 31.5 q-41 18.5 -71 45.5 q-30 27 -47 65 q-17 38 -17 90 l0 8 q0 61 18.5 119.5 q18.5 58.5 52 112.5 q33.5 54 80 102.5 q46.5 48.5 101.5 89.5 l-172 0 q-14 0 -20 9.5 q-6 9.5 -6 22.5 q0 13 6 22 q6 9 20 9 l242 0 l0 0 Z" /><glyph glyph-name="cid501" unicode="&#x3b7;" d="M328 534 q91 0 139.5 -50 q48.5 -50 48.5 -136 l0 -512 q0 -16 -11.5 -23 q-11.5 -7 -25.5 -7 q-14 0 -24.5 7 q-10.5 7 -10.5 23 l0 495 q0 72 -32.5 105.5 q-32.5 33.5 -101.5 33.5 q-35 0 -63 -12 q-28 -12 -47.5 -31.5 q-19.5 -19.5 -30 -44 q-10.5 -24.5 -10.5 -49.5 l0 -303 q0 -16 -11 -23 q-11 -7 -25 -7 q-14 0 -25 7 q-11 7 -11 23 l0 468 q0 15 10.5 22 q10.5 7 24.5 7 q13 0 23.5 -7 q10.5 -7 10.5 -22 l0 -51 l2 0 q7 15 22 30.5 q15 15.5 36.5 28 q21.5 12.5 50 20.5 q28.5 8 61.5 8 Z" /><glyph glyph-name="cid502" unicode="&#x3b8;" d="M280 756 q115 0 167.5 -83.5 q52.5 -83.5 52.5 -257.5 l0 -81 q0 -173 -52.5 -257 q-52.5 -84 -167.5 -84 q-115 0 -167.5 84 q-52.5 84 -52.5 257 l0 81 q0 174 52.5 257.5 q52.5 83.5 167.5 83.5 ZM280 690 q-40 0 -67.5 -16 q-27.5 -16 -45.5 -48.5 q-18 -32.5 -26 -83 q-8 -50.5 -9 -119.5 l0 -11 l296 0 l0 11 q-1 69 -9 119.5 q-8 50.5 -26 83 q-18 32.5 -45.5 48.5 q-27.5 16 -67.5 16 ZM132 331 q0 -67 7.5 -117.5 q7.5 -50.5 25 -85 q17.5 -34.5 46 -52 q28.5 -17.5 69.5 -17.5 q82 0 115 69 q33 69 33 203 l0 20 l-296 0 l0 -20 Z" /><glyph glyph-name="cid503" unicode="&#x3b9;" d="M117 527 q14 0 25 -7 q11 -7 11 -23 l0 -386 q0 -29 8.5 -41.5 q8.5 -12.5 33.5 -12.5 q7 0 14.5 1 q7.5 1 13.5 3 q11 2 19 -4.5 q8 -6.5 11 -19.5 q2 -12 -1.5 -21.5 q-3.5 -9.5 -14.5 -14.5 q-8 -4 -23.5 -6.5 q-15.5 -2.5 -31.5 -1.5 q-48 1 -74.5 25 q-26.5 24 -26.5 79 l0 400 q0 16 11 23 q11 7 25 7 Z" /><glyph glyph-name="cid504" unicode="&#x3ba;" d="M123 527 q14 0 25.5 -7 q11.5 -7 11.5 -23 l0 -231 l243 251 q10 11 24 10 q14 -1 23 -10 q10 -10 11.5 -22.5 q1.5 -12.5 -9.5 -23.5 l-170 -171 l191 -242 q11 -14 9 -27 q-2 -13 -14 -22 q-12 -10 -25.5 -9 q-13.5 1 -22.5 13 l-187 239 l-73 -73 l0 -149 q0 -16 -11.5 -23 q-11.5 -7 -25.5 -7 q-14 0 -25 7 q-11 7 -11 23 l0 467 q0 16 11 23 q11 7 25 7 Z" /><glyph glyph-name="cid505" unicode="&#x3bb;" d="M138 756 q36 0 55 -14.5 q19 -14.5 32 -48.5 l248 -650 q5 -15 -2 -25.5 q-7 -10.5 -21 -15.5 q-14 -4 -25.5 1 q-11.5 5 -16.5 19 l-155 414 l-1 0 l-157 -415 q-5 -14 -17 -18.5 q-12 -4.5 -26 -0.5 q-14 5 -21 15.5 q-7 10.5 -1 25.5 l188 481 l-49 137 q-7 19 -14.5 27 q-7.5 8 -20.5 8 q-9 0 -18 -3 q-12 -5 -21.5 0 q-9.5 5 -14.5 16 q-5 11 -2.5 21.5 q2.5 10.5 14.5 15.5 q10 4 22 7 q12 3 24 3 Z" /><glyph glyph-name="cid506" unicode="&#x3bc;" d="M123 527 q14 0 25 -7 q11 -7 11 -23 l0 -298 q0 -72 31.5 -105.5 q31.5 -33.5 96.5 -33.5 q36 0 65 12.5 q29 12.5 48.5 31.5 q19.5 19 30 42.5 q10.5 23.5 10.5 46.5 l0 304 q0 16 11.5 23 q11.5 7 25.5 7 q14 0 24.5 -7 q10.5 -7 10.5 -23 l0 -468 q0 -15 -10.5 -22 q-10.5 -7 -23.5 -7 q-14 0 -24.5 7 q-10.5 7 -10.5 22 l0 53 l-1 0 q-8 -15 -22.5 -30.5 q-14.5 -15.5 -35 -28 q-20.5 -12.5 -47 -20 q-26.5 -7.5 -57.5 -7.5 q-42 0 -74 13.5 q-32 13.5 -48 39.5 l0 -213 q0 -16 -10.5 -23 q-10.5 -7 -25.5 -7 q-14 0 -25 7 q-11 7 -11 23 l0 661 q0 16 11 23 q11 7 25 7 Z" /><glyph glyph-name="cid507" unicode="&#x3bd;" d="M51 524 q14 5 27.5 2 q13.5 -3 18.5 -19 l161 -423 l1 0 l158 423 q6 16 19 19 q13 3 26 -2 q12 -5 19.5 -15.5 q7.5 -10.5 0.5 -27.5 l-176 -446 q-8 -19 -20.5 -27 q-12.5 -8 -28.5 -8 q-16 0 -28.5 7.5 q-12.5 7.5 -20.5 26.5 l-178 447 q-7 17 1 27.5 q8 10.5 20 15.5 Z" /><glyph glyph-name="cid508" unicode="&#x3be;" d="M278 756 q38 0 75 -5 q37 -5 75 -25 q11 -5 14 -16.5 q3 -11.5 -3 -24.5 q-7 -13 -17.5 -15.5 q-10.5 -2.5 -21.5 2.5 q-26 15 -58.5 19.5 q-32.5 4.5 -61.5 4.5 q-26 0 -49.5 -6 q-23.5 -6 -41 -19 q-17.5 -13 -28 -33 q-10.5 -20 -10.5 -48 l0 -10 q0 -59 41.5 -94 q41.5 -35 116.5 -35 l43 0 q14 0 19.5 -9 q5.5 -9 5.5 -22 q0 -13 -5.5 -22 q-5.5 -9 -19.5 -9 l-46 0 q-86 0 -132.5 -34 q-46.5 -34 -46.5 -102 l0 -11 q0 -37 14 -61.5 q14 -24.5 39.5 -42 q25.5 -17.5 60.5 -30.5 q35 -13 76 -26 q39 -12 64 -22 q25 -10 39.5 -22 q14.5 -12 20 -27 q5.5 -15 5.5 -36 q0 -36 -20 -61 q-20 -25 -49 -45 q-27 -17 -46 7 q-8 10 -7 22 q1 12 14 20 q23 15 32 27 q9 12 9 25 q0 20 -26.5 31.5 q-26.5 11.5 -62.5 21.5 q-49 13 -92 29 q-43 16 -74.5 40.5 q-31.5 24.5 -50 60 q-18.5 35.5 -18.5 87.5 l0 16 q0 41 13 70.5 q13 29.5 35.5 49 q22.5 19.5 51.5 30.5 q29 11 62 16 q-26 5 -50.5 16 q-24.5 11 -43.5 30 q-19 19 -30.5 46 q-11.5 27 -11.5 64 l0 12 q0 36 12.5 66 q12.5 30 37 52.5 q24.5 22.5 61.5 35 q37 12.5 86 12.5 Z" /><glyph glyph-name="cid509" unicode="&#x3bf;" d="M295 534 q108 0 171 -63 q63 -63 63 -185 l0 -42 q0 -122 -63 -185 q-63 -63 -171 -63 q-109 0 -172 62.5 q-63 62.5 -63 185.5 l0 42 q0 123 63 185.5 q63 62.5 172 62.5 ZM295 470 q-78 0 -120.5 -45 q-42.5 -45 -42.5 -143 l0 -34 q0 -98 42.5 -143 q42.5 -45 120.5 -45 q77 0 119.5 45 q42.5 45 42.5 143 l0 34 q0 98 -42.5 143 q-42.5 45 -119.5 45 Z" /><glyph glyph-name="cid510" unicode="&#x3c0;" d="M534 535 q14 0 20 -9 q6 -9 6 -23 q0 -14 -6 -23 q-6 -9 -20 -9 l-97 0 l0 -358 q0 -29 9 -42 q9 -13 34 -13 q7 0 14 1 q7 1 14 3 q11 3 19 -3.5 q8 -6.5 10 -19.5 q5 -28 -15 -37 q-9 -3 -24.5 -5.5 q-15.5 -2.5 -30.5 -2.5 q-48 1 -74.5 25 q-26.5 24 -26.5 79 l0 373 l-154 0 l0 -441 q0 -16 -10.5 -23 q-10.5 -7 -25.5 -7 q-14 0 -24.5 7 q-10.5 7 -10.5 23 l0 441 l-96 0 q-14 0 -20.5 9 q-6.5 9 -6.5 23 q0 14 6.5 23 q6.5 9 20.5 9 l489 0 l0 0 Z" /><glyph glyph-name="cid511" unicode="&#x3c1;" d="M312 534 q108 0 169.5 -62.5 q61.5 -62.5 61.5 -185.5 l0 -42 q0 -123 -61.5 -185.5 q-61.5 -62.5 -169.5 -62.5 q-50 0 -93.5 20 q-43.5 20 -63.5 55 l-2 0 l0 -235 q0 -16 -10.5 -23 q-10.5 -7 -25.5 -7 q-14 0 -25 7 q-11 7 -11 23 l0 450 q0 123 61.5 185.5 q61.5 62.5 169.5 62.5 ZM312 470 q-76 0 -117 -45 q-41 -45 -41 -143 l0 -34 q0 -98 41 -143 q41 -45 117 -45 q76 0 117 45 q41 45 41 143 l0 34 q0 98 -41 143 q-41 45 -117 45 Z" /><glyph glyph-name="cid512" unicode="&#x3c3;" d="M541 534 q13 0 19 -8.5 q6 -8.5 6 -22.5 q0 -12 -6 -21 q-6 -9 -19 -9 l-92 0 q39 -26 59.5 -75 q20.5 -49 20.5 -112 l0 -42 q0 -122 -63 -185 q-63 -63 -171 -63 q-109 0 -172 62.5 q-63 62.5 -63 185.5 l0 42 q0 123 63 185.5 q63 62.5 172 62.5 l246 0 ZM295 470 q-78 0 -120.5 -45 q-42.5 -45 -42.5 -143 l0 -34 q0 -98 42.5 -143 q42.5 -45 120.5 -45 q77 0 119.5 45 q42.5 45 42.5 143 l0 34 q0 98 -42.5 143 q-42.5 45 -119.5 45 Z" /><glyph glyph-name="cid513" unicode="&#x3c4;" d="M519 535 q14 0 20.5 -9 q6.5 -9 6.5 -23 q0 -14 -6.5 -23 q-6.5 -9 -20.5 -9 l-214 0 l0 -358 q0 -29 9.5 -42 q9.5 -13 34.5 -13 q8 0 15.5 1 q7.5 1 13.5 3 q11 3 19 -3.5 q8 -6.5 11 -19.5 q5 -28 -16 -37 q-8 -3 -25 -5.5 q-17 -2.5 -33 -2.5 q-48 1 -74.5 25 q-26.5 24 -26.5 79 l0 373 l-187 0 q-14 0 -20 9 q-6 9 -6 23 q0 14 6 23 q6 9 20 9 l473 0 l0 0 Z" /><glyph glyph-name="cid514" unicode="&#x3c5;" d="M118 527 q14 0 24.5 -7 q10.5 -7 10.5 -23 l0 -297 q0 -36 11 -62.5 q11 -26.5 30.5 -43.5 q19.5 -17 45.5 -25.5 q26 -8.5 57 -8.5 q30 0 56 8.5 q26 8.5 45.5 25.5 q19.5 17 30.5 43.5 q11 26.5 11 62.5 l0 297 q0 16 10.5 23 q10.5 7 24.5 7 q14 0 25.5 -7 q11.5 -7 11.5 -23 l0 -314 q0 -44 -16.5 -78.5 q-16.5 -34.5 -45 -58.5 q-28.5 -24 -68 -37 q-39.5 -13 -85.5 -13 q-47 0 -86.5 13 q-39.5 13 -68 37 q-28.5 24 -45 58.5 q-16.5 34.5 -16.5 78.5 l0 314 q0 16 11.5 23 q11.5 7 25.5 7 Z" /><glyph glyph-name="cid515" unicode="&#x3c6;" d="M343 534 q63 0 115 -16 q52 -16 89.5 -47 q37.5 -31 58 -77.5 q20.5 -46.5 20.5 -107.5 l0 -42 q0 -57 -18 -101.5 q-18 -44.5 -51 -75.5 q-33 -31 -79 -48.5 q-46 -17.5 -102 -21.5 l0 -162 q0 -16 -10 -22.5 q-10 -6.5 -24 -6.5 q-14 0 -24 6.5 q-10 6.5 -10 22.5 l0 162 q-56 4 -101.5 21.5 q-45.5 17.5 -78 48.5 q-32.5 31 -50.5 75.5 q-18 44.5 -18 101.5 l0 42 q0 61 20.5 107.5 q20.5 46.5 58 77.5 q37.5 31 89.5 47 q52 16 115 16 ZM308 468 q-80 -7 -128 -52 q-48 -45 -48 -134 l0 -34 q0 -89 48 -134.5 q48 -45.5 128 -52.5 l0 407 ZM376 60 q80 7 129 53 q49 46 49 135 l0 34 q0 45 -13 78 q-13 33 -36 56 q-23 23 -56 36 q-33 13 -73 16 l0 -408 Z" /><glyph glyph-name="cid516" unicode="&#x3c7;" d="M109 534 q26 0 44 -12.5 q18 -12.5 32 -47.5 l102 -246 l124 278 q7 15 18 19 q11 4 25 -1 q14 -5 21 -15.5 q7 -10.5 -1 -27.5 l-145 -301 l120 -277 q10 -23 16 -29.5 q6 -6.5 14 -6.5 q10 0 21 3 q11 4 19 -1 q8 -5 12 -16 q3 -11 1 -20.5 q-2 -9.5 -13 -15.5 q-11 -5 -24.5 -8.5 q-13.5 -3.5 -28.5 -3.5 q-29 0 -47.5 12.5 q-18.5 12.5 -32.5 47.5 l-110 265 l-137 -298 q-7 -15 -18 -19.5 q-11 -4.5 -25 0.5 q-14 4 -20.5 15 q-6.5 11 1.5 28 l157 322 l-112 258 q-11 23 -16.5 30 q-5.5 7 -13.5 7 q-5 0 -10.5 -1 q-5.5 -1 -10.5 -3 q-11 -4 -19 1.5 q-8 5.5 -12 16.5 q-3 10 -1 19.5 q2 9.5 13 15.5 q22 12 57 12 Z" /><glyph glyph-name="cid517" unicode="&#x3c8;" d="M98 527 q15 0 25 -7 q10 -7 10 -23 l0 -179 q0 -129 42.5 -188 q42.5 -59 135.5 -66 l0 433 q0 16 10.5 23 q10.5 7 24.5 7 q15 0 25.5 -7 q10.5 -7 10.5 -23 l0 -433 q93 7 135.5 66 q42.5 59 42.5 188 l0 179 q0 16 10 23 q10 7 25 7 q15 0 25.5 -7 q10.5 -7 10.5 -23 l0 -186 q0 -157 -61.5 -231.5 q-61.5 -74.5 -187.5 -81.5 l0 -162 q0 -16 -10.5 -23 q-10.5 -7 -25.5 -7 q-14 0 -24.5 7 q-10.5 7 -10.5 23 l0 162 q-127 7 -188 81.5 q-61 74.5 -61 231.5 l0 186 q0 16 10.5 23 q10.5 7 25.5 7 Z" /><glyph glyph-name="cid518" unicode="&#x3c9;" d="M181 536 q11 -6 17 -17 q6 -11 -1 -24 q-13 -24 -24.5 -48.5 q-11.5 -24.5 -20.5 -52 q-9 -27.5 -14 -59 q-5 -31.5 -5 -69.5 l0 -14 q0 -55 10 -92 q10 -37 26 -59 q16 -22 36.5 -31 q20.5 -9 41.5 -9 q42 0 66.5 32.5 q24.5 32.5 24.5 82.5 l0 198 q0 15 10.5 21.5 q10.5 6.5 24.5 6.5 q14 0 24.5 -6.5 q10.5 -6.5 10.5 -21.5 l0 -199 q0 -50 24.5 -82 q24.5 -32 66.5 -32 q21 0 41.5 9 q20.5 9 37 31 q16.5 22 26.5 59 q10 37 10 92 l0 14 q0 38 -5 68 q-5 30 -13.5 56.5 q-8.5 26.5 -20 51.5 q-11.5 25 -25.5 53 q-7 13 -1.5 24 q5.5 11 16.5 17 q11 6 23.5 5 q12.5 -1 19.5 -13 q34 -57 55 -122.5 q21 -65.5 21 -135.5 l0 -22 q0 -72 -15 -120.5 q-15 -48.5 -39.5 -77.5 q-24.5 -29 -56.5 -41.5 q-32 -12.5 -66 -12.5 q-45 0 -80.5 23 q-35.5 23 -52.5 64 l-1 0 q-17 -41 -53 -64 q-36 -23 -81 -23 q-34 0 -66 12.5 q-32 12.5 -56.5 41.5 q-24.5 29 -39.5 77.5 q-15 48.5 -15 120.5 l0 22 q0 70 21 135.5 q21 65.5 55 122.5 q7 12 19.5 13 q12.5 1 23.5 -5 Z" /><glyph glyph-name="cid1026" unicode="&#x401;" d="M239 877 q20 0 33 -13 q13 -13 13 -31 q0 -19 -13 -32 q-13 -13 -33 -13 q-20 0 -33 13 q-13 13 -13 32 q0 18 13 31 q13 13 33 13 ZM395 877 q20 0 33 -13 q13 -13 13 -31 q0 -19 -13 -32 q-13 -13 -33 -13 q-20 0 -33 13 q-13 13 -13 32 q0 18 13 31 q13 13 33 13 ZM506 715 q14 0 20 -9 q6 -9 6 -23 q0 -13 -6 -22 q-6 -9 -20 -9 l-341 0 l0 -252 l321 0 q13 0 19 -9 q6 -9 6 -22 q0 -13 -6 -22 q-6 -9 -19 -9 l-321 0 l0 -271 l348 0 q14 0 20 -9 q6 -9 6 -22 q0 -14 -6 -23 q-6 -9 -20 -9 l-354 0 q-38 0 -52.5 14 q-14.5 14 -14.5 52 l0 579 q0 38 14.5 52 q14.5 14 52.5 14 l347 0 Z" /><glyph glyph-name="cid1020" unicode="&#x410;" d="M331 719 q15 0 26 -7 q11 -7 18 -25 l248 -640 q6 -16 -0.5 -27.5 q-6.5 -11.5 -20.5 -16.5 q-15 -5 -28.5 -1.5 q-13.5 3.5 -19.5 20.5 l-75 199 l-300 0 l-76 -200 q-6 -16 -19 -19.5 q-13 -3.5 -28 1.5 q-14 5 -19.5 16 q-5.5 11 0.5 27 l249 641 q7 18 18.5 25 q11.5 7 26.5 7 ZM330 632 q-11 -36 -23 -71.5 q-12 -35.5 -29 -77.5 l-76 -200 l255 0 l-74 200 q-16 41 -29 78 q-13 37 -24 71 Z" /><glyph glyph-name="cid1021" unicode="&#x411;" d="M498 715 q14 0 20 -9 q6 -9 6 -23 q0 -14 -6 -23 q-6 -9 -20 -9 l-334 0 l0 -228 l166 0 q118 0 178.5 -54 q60.5 -54 60.5 -151 l0 -11 q0 -97 -58.5 -151 q-58.5 -54 -178.5 -54 l-173 0 q-38 0 -52.5 14 q-14.5 14 -14.5 52 l0 581 q0 38 14.5 52 q14.5 14 52.5 14 l339 0 ZM330 66 q87 0 126.5 36.5 q39.5 36.5 39.5 105.5 l0 10 q0 70 -41 105.5 q-41 35.5 -134 35.5 l-157 0 l0 -293 l166 0 Z" /><glyph glyph-name="cid1022" unicode="&#x412;" d="M336 715 q115 0 169 -43 q54 -43 54 -133 l0 -16 q0 -24 -6 -46.5 q-6 -22.5 -20 -42 q-14 -19.5 -36.5 -34 q-22.5 -14.5 -54.5 -22.5 q70 -10 110 -49 q40 -39 40 -115 l0 -20 q0 -89 -53.5 -139.5 q-53.5 -50.5 -169.5 -50.5 l-210 0 q-38 0 -52.5 14 q-14.5 14 -14.5 52 l0 579 q0 38 14.5 52 q14.5 14 52.5 14 l177 0 ZM326 407 q79 0 119 27 q40 27 40 90 l0 13 q0 58 -37.5 86.5 q-37.5 28.5 -126.5 28.5 l-157 0 l0 -245 l162 0 ZM349 67 q85 0 126.5 30 q41.5 30 41.5 102 l0 17 q0 31 -9.5 55.5 q-9.5 24.5 -32 40.5 q-22.5 16 -58.5 24.5 q-36 8.5 -89 8.5 l-164 0 l0 -278 l185 0 Z" /><glyph glyph-name="cid1023" unicode="&#x413;" d="M502 715 q14 0 20.5 -9 q6.5 -9 6.5 -23 q0 -14 -6.5 -23 q-6.5 -9 -20.5 -9 l-337 0 l0 -621 q0 -16 -11 -23 q-11 -7 -26 -7 q-14 0 -25 7 q-11 7 -11 23 l0 619 q0 38 14.5 52 q14.5 14 52.5 14 l343 0 l0 0 Z" /><glyph glyph-name="cid1024" unicode="&#x414;" d="M492 715 q38 0 53 -14 q15 -14 15 -52 l0 -591 q31 0 45.5 -12 q14.5 -12 14.5 -43 l0 -142 q0 -15 -9.5 -21.5 q-9.5 -6.5 -22.5 -6.5 q-14 0 -24 6.5 q-10 6.5 -10 21.5 l0 136 l-469 0 l0 -136 q0 -15 -9.5 -21.5 q-9.5 -6.5 -23.5 -6.5 q-13 0 -22.5 6.5 q-9.5 6.5 -9.5 21.5 l0 142 q0 31 14.5 43 q14.5 12 40.5 12 q39 67 60.5 135 q21.5 68 31 135 q9.5 67 11 132.5 q1.5 65.5 1.5 127.5 l0 61 q0 38 15 52 q15 14 53 14 l245 0 ZM247 576 q0 -71 -2.5 -136 q-2.5 -65 -12 -128 q-9.5 -63 -28.5 -126 q-19 -63 -52 -128 l343 0 l0 595 l-248 0 l0 -77 Z" /><glyph glyph-name="cid1025" unicode="&#x415;" d="M506 715 q14 0 20 -9 q6 -9 6 -23 q0 -13 -6 -22 q-6 -9 -20 -9 l-341 0 l0 -252 l321 0 q13 0 19 -9 q6 -9 6 -22 q0 -13 -6 -22 q-6 -9 -19 -9 l-321 0 l0 -271 l348 0 q14 0 20 -9 q6 -9 6 -22 q0 -14 -6 -23 q-6 -9 -20 -9 l-354 0 q-38 0 -52.5 14 q-14.5 14 -14.5 52 l0 579 q0 38 14.5 52 q14.5 14 52.5 14 l347 0 l0 0 Z" /><glyph glyph-name="cid1027" unicode="&#x416;" d="M89 721 q26 0 46 -5 q20 -5 36.5 -17 q16.5 -12 30.5 -32.5 q14 -20.5 28 -51.5 l42 -89 q13 -29 24 -50.5 q11 -21.5 24 -36.5 q13 -15 29 -22.5 q16 -7.5 40 -7.5 l26 0 l0 281 q0 15 10.5 22 q10.5 7 24.5 7 q14 0 25 -7 q11 -7 11 -22 l0 -281 l26 0 q24 0 40 7.5 q16 7.5 29 22.5 q13 15 24 36.5 q11 21.5 24 50.5 l42 89 q14 31 28 51.5 q14 20.5 30.5 32.5 q16.5 12 36.5 17 q20 5 46 5 q22 0 34 -4 q14 -4 19.5 -15 q5.5 -11 0.5 -25 q-8 -27 -36 -22 q-5 1 -9.5 1.5 q-4.5 0.5 -11.5 0.5 q-17 0 -28 -5 q-11 -5 -20.5 -15.5 q-9.5 -10.5 -18 -27.5 q-8.5 -17 -18.5 -41 l-34 -75 q-18 -42 -41.5 -72 q-23.5 -30 -52.5 -44 q24 -9 44.5 -28.5 q20.5 -19.5 45.5 -57.5 l159 -238 q9 -14 6.5 -26.5 q-2.5 -12.5 -14.5 -20.5 q-14 -9 -27 -5.5 q-13 3.5 -21 15.5 l-157 238 q-16 24 -29.5 41.5 q-13.5 17.5 -27 28.5 q-13.5 11 -29 16 q-15.5 5 -34.5 5 l-26 0 l0 -316 q0 -16 -11 -23 q-11 -7 -25 -7 q-14 0 -24.5 7 q-10.5 7 -10.5 23 l0 316 l-26 0 q-20 0 -35 -5 q-15 -5 -28.5 -16 q-13.5 -11 -27 -28.5 q-13.5 -17.5 -29.5 -41.5 l-157 -238 q-8 -12 -21 -15.5 q-13 -3.5 -27 5.5 q-12 8 -14.5 20.5 q-2.5 12.5 6.5 26.5 l159 238 q25 38 45.5 57.5 q20.5 19.5 44.5 28.5 q-29 14 -52.5 44 q-23.5 30 -41.5 72 l-34 75 q-11 24 -19 41 q-8 17 -17.5 27.5 q-9.5 10.5 -21 15.5 q-11.5 5 -27.5 5 q-7 0 -11.5 -0.5 q-4.5 -0.5 -9.5 -1.5 q-28 -5 -36 22 q-5 14 0.5 25 q5.5 11 19.5 15 q12 4 34 4 Z" /><glyph glyph-name="cid1028" unicode="&#x417;" d="M274 726 q53 0 94 -13.5 q41 -13.5 69.5 -38 q28.5 -24.5 43.5 -57.5 q15 -33 15 -72 l0 -5 q0 -23 -7 -47.5 q-7 -24.5 -22.5 -46.5 q-15.5 -22 -40.5 -40.5 q-25 -18.5 -61 -30.5 q72 -11 115.5 -53.5 q43.5 -42.5 43.5 -111.5 l0 -10 q0 -40 -14.5 -77.5 q-14.5 -37.5 -44.5 -66 q-30 -28.5 -76 -46 q-46 -17.5 -109 -17.5 q-62 0 -117 17.5 q-55 17.5 -97 46.5 q-14 9 -16 22 q-2 13 6 27 q19 29 47 10 q38 -27 81.5 -42 q43.5 -15 92.5 -15 q45 0 78 12 q33 12 54.5 32.5 q21.5 20.5 31.5 46 q10 25.5 10 52.5 l0 8 q0 40 -16 65.5 q-16 25.5 -41.5 40 q-25.5 14.5 -56.5 20 q-31 5.5 -60 5.5 l-65 0 q-14 0 -20.5 9 q-6.5 9 -6.5 23 q0 14 6.5 23.5 q6.5 9.5 20.5 9.5 l60 0 q27 0 54 7.5 q27 7.5 49 23.5 q22 16 35.5 41 q13.5 25 13.5 61 l0 3 q0 53 -38.5 86 q-38.5 33 -111.5 33 q-49 0 -85 -18.5 q-36 -18.5 -63 -52.5 q-10 -11 -22.5 -11 q-12.5 0 -22.5 11 q-11 10 -11 22 q0 12 8 23 q28 38 78 64.5 q50 26.5 118 26.5 Z" /><glyph glyph-name="cid1029" unicode="&#x418;" d="M126 719 q14 0 25 -7 q11 -7 11 -22 l0 -596 q6 20 15 39 q9 19 18 35 l294 497 q9 16 16.5 26.5 q7.5 10.5 15 15.5 q7.5 5 15.5 7 q8 2 18 2 q28 0 41 -14 q13 -14 13 -49 l0 -624 q0 -15 -10.5 -22 q-10.5 -7 -24.5 -7 q-14 0 -24.5 7 q-10.5 7 -10.5 22 l0 597 q-7 -22 -16.5 -41.5 q-9.5 -19.5 -17.5 -33.5 l-293 -497 q-10 -17 -17.5 -27 q-7.5 -10 -14.5 -15 q-7 -5 -15 -7 q-8 -2 -18 -2 q-28 0 -41 14 q-13 14 -13 49 l0 624 q0 15 10.5 22 q10.5 7 23.5 7 Z" /><glyph glyph-name="cid1030" unicode="&#x419;" d="M126 719 q14 0 25 -7 q11 -7 11 -22 l0 -596 q6 20 15 39 q9 19 18 35 l294 497 q9 16 16.5 26.5 q7.5 10.5 15 15.5 q7.5 5 15.5 7 q8 2 18 2 q28 0 41 -14 q13 -14 13 -49 l0 -624 q0 -15 -10.5 -22 q-10.5 -7 -24.5 -7 q-14 0 -24.5 7 q-10.5 7 -10.5 22 l0 597 q-7 -22 -16.5 -41.5 q-9.5 -19.5 -17.5 -33.5 l-293 -497 q-10 -17 -17.5 -27 q-7.5 -10 -14.5 -15 q-7 -5 -15 -7 q-8 -2 -18 -2 q-28 0 -41 14 q-13 14 -13 49 l0 624 q0 15 10.5 22 q10.5 7 23.5 7 ZM458 874 q24 -6 19 -29 q-3 -19 -13 -37 q-10 -18 -26 -31.5 q-16 -13.5 -38 -22 q-22 -8.5 -49 -8.5 q-27 0 -49 8.5 q-22 8.5 -38 22 q-16 13.5 -26 31.5 q-10 18 -13 37 q-5 23 19 29 q24 5 30 -16 q6 -26 26 -42.5 q20 -16.5 51 -16.5 q31 0 51 16.5 q20 16.5 26 42.5 q6 21 30 16 Z" /><glyph glyph-name="cid1031" unicode="&#x41a;" d="M514 721 q22 0 34 -4 q14 -4 19.5 -15 q5.5 -11 0.5 -25 q-9 -27 -37 -22 q-10 2 -21 2 q-17 0 -28.5 -5 q-11.5 -5 -21 -15.5 q-9.5 -10.5 -18 -28 q-8.5 -17.5 -19.5 -41.5 l-30 -71 q-20 -45 -43.5 -75 q-23.5 -30 -52.5 -44 q24 -9 44.5 -28.5 q20.5 -19.5 46.5 -57.5 l162 -238 q9 -14 6.5 -26.5 q-2.5 -12.5 -14.5 -20.5 q-14 -9 -27 -5.5 q-13 3.5 -21 15.5 l-157 233 q-17 25 -32 43.5 q-15 18.5 -30 30 q-15 11.5 -31.5 17 q-16.5 5.5 -37.5 5.5 l-43 0 l0 -316 q0 -16 -11 -23 q-11 -7 -25 -7 q-14 0 -24.5 7 q-10.5 7 -10.5 23 l0 661 q0 15 10.5 22 q10.5 7 24.5 7 q14 0 25 -7 q11 -7 11 -22 l0 -281 l44 0 q25 0 43 8 q18 8 31.5 23 q13.5 15 25.5 38 q12 23 26 53 l37 79 q15 33 29.5 54 q14.5 21 31 34 q16.5 13 36.5 18 q20 5 47 5 Z" /><glyph glyph-name="cid1032" unicode="&#x41b;" d="M531 715 q38 0 52.5 -14 q14.5 -14 14.5 -52 l0 -619 q0 -16 -11 -23 q-11 -7 -25 -7 q-15 0 -26 7 q-11 7 -11 23 l0 621 l-255 0 l0 -240 q0 -93 -7.5 -158.5 q-7.5 -65.5 -29.5 -112.5 q-22 -47 -62 -79 q-40 -32 -105 -57 q-16 -6 -27 1.5 q-11 7.5 -16 21.5 q-4 12 -1 24 q3 12 19 18 q52 20 83 44.5 q31 24.5 47.5 63.5 q16.5 39 21 97.5 q4.5 58.5 4.5 146.5 l0 228 q0 38 14.5 52 q14.5 14 52.5 14 l267 0 l0 0 Z" /><glyph glyph-name="cid1033" unicode="&#x41c;" d="M149 716 q22 0 34 -9 q12 -9 26 -41 l218 -460 l213 459 q13 32 25.5 41.5 q12.5 9.5 34.5 9.5 l8 0 q27 0 38 -13.5 q11 -13.5 11 -45.5 l0 -628 q0 -15 -10.5 -22 q-10.5 -7 -24.5 -7 q-14 0 -24 7 q-10 7 -10 22 l0 603 q-12 -34 -23 -59.5 q-11 -25.5 -24 -53.5 l-174 -371 q-8 -17 -17.5 -23 q-9.5 -6 -23.5 -6 q-17 0 -26 6.5 q-9 6.5 -17 23.5 l-174 370 q-13 27 -24 53 q-11 26 -24 60 l0 -603 q0 -15 -10.5 -22 q-10.5 -7 -24.5 -7 q-13 0 -23.5 7 q-10.5 7 -10.5 22 l0 628 q0 32 11 45.5 q11 13.5 38 13.5 l8 0 l0 0 Z" /><glyph glyph-name="cid1034" unicode="&#x41d;" d="M128 719 q15 0 26 -7 q11 -7 11 -23 l0 -281 l370 0 l0 281 q0 16 11 23 q11 7 25 7 q15 0 26 -7 q11 -7 11 -23 l0 -659 q0 -16 -11 -23 q-11 -7 -26 -7 q-14 0 -25 7 q-11 7 -11 23 l0 315 l-370 0 l0 -315 q0 -16 -11 -23 q-11 -7 -26 -7 q-14 0 -25 7 q-11 7 -11 23 l0 659 q0 16 11 23 q11 7 25 7 Z" /><glyph glyph-name="cid1035" unicode="&#x41e;" d="M352 726 q144 0 216 -85.5 q72 -85.5 72 -253.5 l0 -55 q0 -168 -72 -253.5 q-72 -85.5 -216 -85.5 q-144 0 -216 85.5 q-72 85.5 -72 253.5 l0 55 q0 168 72 253.5 q72 85.5 216 85.5 ZM352 659 q-111 0 -162.5 -68.5 q-51.5 -68.5 -51.5 -211.5 l0 -39 q0 -143 51.5 -211.5 q51.5 -68.5 162.5 -68.5 q111 0 162.5 68.5 q51.5 68.5 51.5 211.5 l0 39 q0 143 -51.5 211.5 q-51.5 68.5 -162.5 68.5 Z" /><glyph glyph-name="cid1036" unicode="&#x41f;" d="M520 715 q38 0 53 -14 q15 -14 15 -52 l0 -619 q0 -16 -11 -23 q-11 -7 -25 -7 q-15 0 -26 7 q-11 7 -11 23 l0 621 l-350 0 l0 -621 q0 -16 -11 -23 q-11 -7 -26 -7 q-14 0 -25 7 q-11 7 -11 23 l0 619 q0 38 14.5 52 q14.5 14 52.5 14 l361 0 l0 0 Z" /><glyph glyph-name="cid1037" unicode="&#x420;" d="M332 715 q120 0 178.5 -54 q58.5 -54 58.5 -151 l0 -16 q0 -97 -60.5 -153 q-60.5 -56 -178.5 -56 l-165 0 l0 -255 q0 -16 -11 -23 q-11 -7 -26 -7 q-14 0 -25 7 q-11 7 -11 23 l0 619 q0 38 14.5 52 q14.5 14 52.5 14 l173 0 ZM321 349 q93 0 134 38 q41 38 41 109 l0 13 q0 69 -39.5 105.5 q-39.5 36.5 -126.5 36.5 l-165 0 l0 -302 l156 0 Z" /><glyph glyph-name="cid1038" unicode="&#x421;" d="M351 726 q67 0 117 -14.5 q50 -14.5 88 -38.5 q13 -9 14.5 -22 q1.5 -13 -6.5 -26 q-8 -11 -19.5 -14.5 q-11.5 -3.5 -24.5 4.5 q-35 22 -74 32.5 q-39 10.5 -97 10.5 q-211 0 -211 -279 l0 -39 q0 -138 51.5 -208 q51.5 -70 161.5 -70 q60 0 105.5 15 q45.5 15 82.5 43 q11 8 24 6 q13 -2 22 -14 q10 -13 8.5 -27 q-1.5 -14 -15.5 -24 q-41 -32 -97 -50 q-56 -18 -131 -18 q-143 0 -214.5 85.5 q-71.5 85.5 -71.5 253.5 l0 55 q0 168 72 253.5 q72 85.5 215 85.5 Z" /><glyph glyph-name="cid1039" unicode="&#x422;" d="M539 715 q14 0 20 -9 q6 -9 6 -23 q0 -14 -6 -23 q-6 -9 -20 -9 l-210 0 l0 -621 q0 -16 -11 -23 q-11 -7 -26 -7 q-14 0 -25 7 q-11 7 -11 23 l0 621 l-210 0 q-14 0 -20 9 q-6 9 -6 23 q0 14 6 23 q6 9 20 9 l493 0 l0 0 Z" /><glyph glyph-name="cid1040" unicode="&#x423;" d="M508 716 q14 -4 20.5 -15 q6.5 -11 1.5 -26 l-266 -666 q-5 -14 -18 -17 q-13 -3 -27 2 q-13 5 -19 15.5 q-6 10.5 -1 24.5 l63 159 l-220 480 q-6 16 1.5 27 q7.5 11 20.5 16 q13 5 26.5 2 q13.5 -3 19.5 -19 l188 -423 l1 0 l165 422 q5 16 18 19.5 q13 3.5 26 -1.5 Z" /><glyph glyph-name="cid1041" unicode="&#x424;" d="M373 733 q15 0 25.5 -6.5 q10.5 -6.5 10.5 -23.5 l0 -59 q129 -7 202.5 -71 q73.5 -64 73.5 -183 l0 -45 q0 -119 -73.5 -182.5 q-73.5 -63.5 -202.5 -71.5 l0 -61 q0 -16 -10.5 -23 q-10.5 -7 -25.5 -7 q-14 0 -24 7 q-10 7 -10 23 l0 61 q-130 8 -203 71.5 q-73 63.5 -73 182.5 l0 45 q0 120 72.5 183.5 q72.5 63.5 203.5 70.5 l0 59 q0 17 10 23.5 q10 6.5 24 6.5 ZM339 579 q-98 -6 -150.5 -52.5 q-52.5 -46.5 -52.5 -140.5 l0 -36 q0 -94 52.5 -140.5 q52.5 -46.5 150.5 -53.5 l0 423 ZM409 156 q97 7 150 53.5 q53 46.5 53 140.5 l0 36 q0 94 -53 140.5 q-53 46.5 -150 52.5 l0 -423 Z" /><glyph glyph-name="cid1042" unicode="&#x425;" d="M558 713 q13 -8 17 -20.5 q4 -12.5 -6 -26.5 l-201 -296 l212 -315 q10 -15 7 -28 q-3 -13 -16 -21 q-14 -8 -28 -5.5 q-14 2.5 -24 16.5 l-199 304 l-205 -303 q-9 -14 -22.5 -17 q-13.5 -3 -26.5 5 q-12 8 -16 20.5 q-4 12.5 6 26.5 l220 318 l-206 293 q-10 15 -6 28 q4 13 18 21 q14 8 28.5 5 q14.5 -3 24.5 -17 l190 -282 l185 282 q9 14 22 17 q13 3 26 -5 Z" /><glyph glyph-name="cid1043" unicode="&#x426;" d="M128 719 q15 0 26 -7 q11 -7 11 -23 l0 -621 l338 0 l0 621 q0 16 11.5 23 q11.5 7 26.5 7 q14 0 25 -7 q11 -7 11 -23 l0 -621 q33 0 47.5 -12.5 q14.5 -12.5 14.5 -43.5 l0 -151 q0 -16 -10.5 -23 q-10.5 -7 -24.5 -7 q-15 0 -26 7 q-11 7 -11 23 l0 143 l-408 0 q-38 0 -52.5 14 q-14.5 14 -14.5 52 l0 619 q0 16 11 23 q11 7 25 7 Z" /><glyph glyph-name="cid1044" unicode="&#x427;" d="M106 719 q14 0 25 -7 q11 -7 11 -23 l0 -229 q0 -72 38.5 -106.5 q38.5 -34.5 110.5 -34.5 q35 0 65.5 11 q30.5 11 53 29 q22.5 18 35.5 39.5 q13 21.5 13 42.5 l0 247 q0 17 11 24 q11 7 26 7 q14 0 25 -7 q11 -7 11 -24 l0 -658 q0 -16 -11 -23 q-11 -7 -25 -7 q-15 0 -26 7 q-11 7 -11 23 l0 304 l-1 0 q-8 -14 -25 -28 q-17 -14 -41 -25 q-24 -11 -54.5 -18 q-30.5 -7 -63.5 -7 q-95 0 -149.5 50.5 q-54.5 50.5 -54.5 136.5 l0 246 q0 16 11.5 23 q11.5 7 25.5 7 Z" /><glyph glyph-name="cid1045" unicode="&#x428;" d="M128 719 q15 0 26 -7 q11 -7 11 -23 l0 -621 l278 0 l0 621 q0 16 11 23 q11 7 25 7 q15 0 26 -7 q11 -7 11 -23 l0 -621 l278 0 l0 621 q0 16 11.5 23 q11.5 7 26.5 7 q14 0 25 -7 q11 -7 11 -23 l0 -619 q0 -38 -15 -52 q-15 -14 -53 -14 l-641 0 q-38 0 -52.5 14 q-14.5 14 -14.5 52 l0 619 q0 16 11 23 q11 7 25 7 Z" /><glyph glyph-name="cid1046" unicode="&#x429;" d="M128 719 q15 0 26 -7 q11 -7 11 -23 l0 -621 l278 0 l0 621 q0 16 11 23 q11 7 25 7 q15 0 26 -7 q11 -7 11 -23 l0 -621 l278 0 l0 621 q0 16 11.5 23 q11.5 7 26.5 7 q14 0 25 -7 q11 -7 11 -23 l0 -621 q33 0 47.5 -12.5 q14.5 -12.5 14.5 -43.5 l0 -151 q0 -16 -10.5 -23 q-10.5 -7 -24.5 -7 q-15 0 -26 7 q-11 7 -11 23 l0 143 l-699 0 q-38 0 -52.5 14 q-14.5 14 -14.5 52 l0 619 q0 16 11 23 q11 7 25 7 Z" /><glyph glyph-name="cid1047" unicode="&#x42a;" d="M147 715 q38 0 53 -14 q15 -14 15 -52 l0 -219 l184 0 q118 0 178.5 -54.5 q60.5 -54.5 60.5 -151.5 l0 -17 q0 -97 -59 -151 q-59 -54 -178 -54 l-190 0 q-38 0 -53 14 q-15 14 -15 52 l0 584 l-109 0 q-14 0 -20 9 q-6 9 -6 22 q0 14 6 23 q6 9 20 9 l113 0 ZM399 66 q86 0 125.5 36.5 q39.5 36.5 39.5 105.5 l0 15 q0 71 -40.5 107 q-40.5 36 -133.5 36 l-175 0 l0 -300 l184 0 Z" /><glyph glyph-name="cid1048" unicode="&#x42b;" d="M127 719 q15 0 26 -7 q11 -7 11 -23 l0 -259 l183 0 q118 0 178.5 -54.5 q60.5 -54.5 60.5 -151.5 l0 -17 q0 -97 -58.5 -151 q-58.5 -54 -178.5 -54 l-190 0 q-38 0 -52.5 14 q-14.5 14 -14.5 52 l0 621 q0 16 10.5 23 q10.5 7 24.5 7 ZM708 719 q15 0 26 -7 q11 -7 11 -23 l0 -659 q0 -16 -11 -23 q-11 -7 -26 -7 q-14 0 -24.5 7 q-10.5 7 -10.5 23 l0 659 q0 16 10.5 23 q10.5 7 24.5 7 ZM347 66 q87 0 126.5 36.5 q39.5 36.5 39.5 105.5 l0 15 q0 70 -41 106.5 q-41 36.5 -134 36.5 l-174 0 l0 -300 l183 0 Z" /><glyph glyph-name="cid1049" unicode="&#x42c;" d="M127 719 q15 0 26 -7 q11 -7 11 -23 l0 -259 l183 0 q118 0 178.5 -54.5 q60.5 -54.5 60.5 -151.5 l0 -17 q0 -97 -58.5 -151 q-58.5 -54 -178.5 -54 l-190 0 q-38 0 -52.5 14 q-14.5 14 -14.5 52 l0 621 q0 16 10.5 23 q10.5 7 24.5 7 ZM347 66 q87 0 126.5 36.5 q39.5 36.5 39.5 105.5 l0 15 q0 70 -41 106.5 q-41 36.5 -134 36.5 l-174 0 l0 -300 l183 0 Z" /><glyph glyph-name="cid1050" unicode="&#x42d;" d="M294 726 q143 0 215 -85.5 q72 -85.5 72 -253.5 l0 -55 q0 -168 -71.5 -253.5 q-71.5 -85.5 -214.5 -85.5 q-75 0 -131 18 q-56 18 -97 50 q-14 10 -15.5 24 q-1.5 14 8.5 27 q9 12 22 14 q13 2 24 -6 q37 -28 82.5 -43 q45.5 -15 105.5 -15 q107 0 159 66.5 q52 66.5 54 199.5 l-316 0 q-14 0 -20 8.5 q-6 8.5 -6 22.5 q0 14 6 22.5 q6 8.5 20 8.5 l316 0 q-6 268 -211 268 q-58 0 -97 -10.5 q-39 -10.5 -74 -32.5 q-13 -8 -24.5 -4.5 q-11.5 3.5 -19.5 14.5 q-8 13 -6.5 26 q1.5 13 14.5 22 q38 24 88 38.5 q50 14.5 117 14.5 Z" /><glyph glyph-name="cid1051" unicode="&#x42e;" d="M574 726 q140 0 208 -85.5 q68 -85.5 68 -253.5 l0 -55 q0 -168 -68 -253.5 q-68 -85.5 -208 -85.5 q-137 0 -205 83.5 q-68 83.5 -71 248.5 l-135 0 l0 -295 q0 -16 -10.5 -23 q-10.5 -7 -25.5 -7 q-14 0 -24.5 7 q-10.5 7 -10.5 23 l0 659 q0 16 10.5 23 q10.5 7 24.5 7 q15 0 25.5 -7 q10.5 -7 10.5 -23 l0 -302 l135 0 q3 339 276 339 ZM574 659 q-106 0 -154 -68.5 q-48 -68.5 -48 -211.5 l0 -39 q0 -143 48 -211.5 q48 -68.5 154 -68.5 q106 0 154 68.5 q48 68.5 48 211.5 l0 39 q0 143 -48 211.5 q-48 68.5 -154 68.5 Z" /><glyph glyph-name="cid1052" unicode="&#x42f;" d="M479 715 q38 0 52.5 -14 q14.5 -14 14.5 -52 l0 -619 q0 -16 -11 -23 q-11 -7 -25 -7 q-15 0 -26 7 q-11 7 -11 23 l0 277 l-152 0 q-22 0 -43 3 l-146 -292 q-8 -14 -21 -17.5 q-13 -3.5 -27 4.5 q-14 7 -19 18.5 q-5 11.5 3 26.5 l139 272 q-64 20 -99 65.5 q-35 45.5 -35 117.5 l0 18 q0 98 63 145 q63 47 173 47 l170 0 ZM314 651 q-86 0 -127 -32.5 q-41 -32.5 -41 -98.5 l0 -13 q0 -67 42 -101.5 q42 -34.5 135 -34.5 l150 0 l0 280 l-159 0 Z" /><glyph glyph-name="cid1053" unicode="&#x430;" d="M275 534 q92 0 144.5 -46 q52.5 -46 52.5 -126 l0 -334 q0 -15 -10.5 -21.5 q-10.5 -6.5 -23.5 -6.5 q-13 0 -23.5 6.5 q-10.5 6.5 -10.5 21.5 l0 49 l-1 0 q-16 -34 -57 -56 q-21 -11 -48 -18 q-27 -7 -61 -7 q-83 0 -131 40.5 q-48 40.5 -48 113.5 l0 10 q0 32 10.5 59.5 q10.5 27.5 34 47.5 q23.5 20 59.5 31.5 q36 11.5 87 11.5 l151 0 l0 37 q0 63 -30.5 93.5 q-30.5 30.5 -96.5 30.5 q-38 0 -73 -11.5 q-35 -11.5 -67 -31.5 q-12 -8 -23.5 -4 q-11.5 4 -18.5 15 q-7 11 -5.5 23 q1.5 12 13.5 20 q32 22 78 37 q46 15 98 15 ZM251 252 q-67 0 -94.5 -26.5 q-27.5 -26.5 -27.5 -67.5 l0 -6 q0 -44 29 -69 q29 -25 84 -25 q58 0 97 20 q28 15 45 39.5 q17 24.5 17 59.5 l0 75 l-150 0 Z" /><glyph glyph-name="cid1054" unicode="&#x431;" d="M443 755 q14 2 22.5 -6 q8.5 -8 10.5 -22 q2 -13 -3 -23 q-5 -10 -19 -12 q-65 -11 -116.5 -26 q-51.5 -15 -90.5 -41.5 q-39 -26.5 -65 -70 q-26 -43.5 -40 -111.5 q25 30 64 47.5 q39 17.5 84 17.5 q108 0 168.5 -61.5 q60.5 -61.5 60.5 -182.5 l0 -24 q0 -121 -60.5 -182.5 q-60.5 -61.5 -168.5 -61.5 q-109 0 -169.5 61.5 q-60.5 61.5 -60.5 182.5 l0 37 q0 126 20.5 210 q20.5 84 66 138 q45.5 54 118.5 83.5 q73 29.5 178 46.5 ZM290 444 q-77 0 -117.5 -44 q-40.5 -44 -40.5 -140 l0 -16 q0 -98 40.5 -141 q40.5 -43 117.5 -43 q76 0 116.5 43 q40.5 43 40.5 141 l0 16 q0 96 -40.5 140 q-40.5 44 -116.5 44 Z" /><glyph glyph-name="cid1055" unicode="&#x432;" d="M312 523 q85 0 125 -32.5 q40 -32.5 40 -99.5 l0 -12 q0 -31 -15.5 -58 q-15.5 -27 -47.5 -43 q41 -11 64 -39 q23 -28 23 -79 l0 -14 q0 -67 -39 -104.5 q-39 -37.5 -126 -37.5 l-194 0 q-30 0 -42.5 11.5 q-12.5 11.5 -12.5 42.5 l0 411 q0 31 12.5 42.5 q12.5 11.5 42.5 11.5 l170 0 ZM300 303 q53 0 79 17 q26 17 26 57 l0 11 q0 36 -24.5 54.5 q-24.5 18.5 -84.5 18.5 l-138 0 l0 -158 l142 0 ZM316 62 q57 0 84.5 19.5 q27.5 19.5 27.5 65.5 l0 12 q0 41 -28 62 q-28 21 -100 21 l-142 0 l0 -180 l158 0 Z" /><glyph glyph-name="cid1056" unicode="&#x433;" d="M384 523 q14 0 20.5 -9 q6.5 -9 6.5 -23 q0 -14 -6.5 -23 q-6.5 -9 -20.5 -9 l-226 0 l0 -429 q0 -16 -10.5 -23 q-10.5 -7 -25.5 -7 q-14 0 -24.5 7 q-10.5 7 -10.5 23 l0 427 q0 38 15 52 q15 14 53 14 l229 0 l0 0 Z" /><glyph glyph-name="cid1057" unicode="&#x434;" d="M416 523 q38 0 53 -14 q15 -14 15 -52 l0 -400 q23 -1 35.5 -12 q12.5 -11 12.5 -40 l0 -108 q0 -17 -10.5 -24 q-10.5 -7 -24.5 -7 q-15 0 -25 7 q-10 7 -10 24 l0 100 l-377 0 l0 -100 q0 -17 -10 -24 q-10 -7 -25 -7 q-14 0 -24.5 7 q-10.5 7 -10.5 24 l0 108 q0 29 11.5 39.5 q11.5 10.5 31.5 12.5 q30 47 47.5 88.5 q17.5 41.5 25.5 82.5 q8 41 10 83.5 q2 42.5 2 91.5 l0 54 q0 38 14.5 52 q14.5 14 52.5 14 l206 0 ZM213 389 q0 -50 -2.5 -91 q-2.5 -41 -10 -79 q-7.5 -38 -23 -77 q-15.5 -39 -40.5 -85 l277 0 l0 402 l-201 0 l0 -70 Z" /><glyph glyph-name="cid1058" unicode="&#x435;" d="M286 534 q103 0 162.5 -61.5 q59.5 -61.5 59.5 -174.5 l0 -2 q0 -29 -13 -42 q-13 -13 -45 -13 l-319 0 l0 -5 q0 -90 42.5 -134 q42.5 -44 120.5 -44 q47 0 82.5 9.5 q35.5 9.5 67.5 28.5 q13 7 24 3.5 q11 -3.5 17 -15.5 q6 -12 3.5 -23.5 q-2.5 -11.5 -14.5 -19.5 q-34 -20 -79.5 -32.5 q-45.5 -12.5 -104.5 -12.5 q-107 0 -168.5 62 q-61.5 62 -61.5 186 l0 42 q0 123 61.5 185.5 q61.5 62.5 164.5 62.5 ZM286 473 q-72 0 -113.5 -44.5 q-41.5 -44.5 -41.5 -125.5 l0 -5 l307 0 l0 8 q0 80 -39.5 123.5 q-39.5 43.5 -112.5 43.5 Z" /><glyph glyph-name="cid1060" unicode="&#x436;" d="M374 527 q14 0 24 -6.5 q10 -6.5 10 -22.5 l0 -188 l26 0 q32 0 50.5 20 q18.5 20 36.5 60 l28 63 q12 26 23.5 41.5 q11.5 15.5 25 24 q13.5 8.5 29 11 q15.5 2.5 35.5 2.5 q20 0 32 -3 q14 -3 18 -13.5 q4 -10.5 2 -22.5 q-3 -14 -11.5 -20.5 q-8.5 -6.5 -19.5 -4.5 q-10 2 -18 2 q-20 0 -34 -10.5 q-14 -10.5 -30 -47.5 l-26 -59 q-14 -30 -32 -46.5 q-18 -16.5 -40 -24.5 q25 -8 42 -22 q17 -14 37 -43 l111 -164 q9 -14 6 -25.5 q-3 -11.5 -14 -19.5 q-14 -10 -26.5 -7.5 q-12.5 2.5 -20.5 14.5 l-116 175 q-23 36 -43 48.5 q-20 12.5 -47 12.5 l-24 0 l0 -222 q0 -16 -10 -22.5 q-10 -6.5 -24 -6.5 q-14 0 -24 6.5 q-10 6.5 -10 22.5 l0 222 l-23 0 q-27 0 -47.5 -12.5 q-20.5 -12.5 -43.5 -48.5 l-115 -175 q-8 -12 -20.5 -14.5 q-12.5 -2.5 -26.5 7.5 q-11 8 -14 19.5 q-3 11.5 6 25.5 l110 164 q20 29 37.5 43 q17.5 14 42.5 22 q-22 8 -40.5 24.5 q-18.5 16.5 -31.5 46.5 l-26 59 q-16 37 -30 47.5 q-14 10.5 -34 10.5 q-8 0 -18 -2 q-11 -2 -19.5 4.5 q-8.5 6.5 -11.5 20.5 q-2 12 2 22.5 q4 10.5 18 13.5 q12 3 32 3 q20 0 35.5 -2.5 q15.5 -2.5 29 -11 q13.5 -8.5 25 -24 q11.5 -15.5 23.5 -41.5 l28 -63 q18 -40 36.5 -60 q18.5 -20 50.5 -20 l25 0 l0 188 q0 16 10 22.5 q10 6.5 24 6.5 Z" /><glyph glyph-name="cid1061" unicode="&#x437;" d="M240 543 q40 0 73.5 -11 q33.5 -11 57.5 -30 q24 -19 37 -45 q13 -26 13 -57 l0 -3 q0 -17 -6.5 -34.5 q-6.5 -17.5 -17.5 -33.5 q-11 -16 -27 -29 q-16 -13 -35 -22 q47 -11 77 -42 q30 -31 30 -80 l0 -6 q0 -31 -13 -60 q-13 -29 -38 -51 q-25 -22 -62 -35.5 q-37 -13.5 -85 -13.5 q-47 0 -94 13 q-47 13 -78 35 q-11 8 -13.5 19.5 q-2.5 11.5 4.5 23.5 q8 14 20 17 q12 3 26 -6 q27 -18 62.5 -28.5 q35.5 -10.5 71.5 -10.5 q32 0 57 8.5 q25 8.5 42 22 q17 13.5 26 31 q9 17.5 9 36.5 l0 5 q0 27 -13 44.5 q-13 17.5 -32.5 27.5 q-19.5 10 -43.5 13.5 q-24 3.5 -45 3.5 l-59 0 q-14 0 -21 9.5 q-7 9.5 -7 22.5 q0 14 7 23 q7 9 21 9 l54 0 q20 0 41 5 q21 5 38.5 16 q17.5 11 28.5 28 q11 17 11 41 q0 35 -33 58.5 q-33 23.5 -84 23.5 q-35 0 -66 -12.5 q-31 -12.5 -49 -35.5 q-9 -11 -20.5 -10.5 q-11.5 0.5 -22.5 10.5 q-9 8 -10 19.5 q-1 11.5 7 20.5 q22 29 65.5 49.5 q43.5 20.5 95.5 20.5 Z" /><glyph glyph-name="cid1062" unicode="&#x438;" d="M122 527 q14 0 24.5 -7 q10.5 -7 10.5 -23 l0 -402 q6 18 13.5 32 q7.5 14 16.5 26 l227 330 q18 26 28 34.5 q10 8.5 27 8.5 q24 0 35.5 -12 q11.5 -12 11.5 -44 l0 -440 q0 -16 -10.5 -23 q-10.5 -7 -24.5 -7 q-14 0 -24.5 7 q-10.5 7 -10.5 23 l0 400 q-5 -18 -13 -31.5 q-8 -13.5 -17 -27.5 l-227 -332 q-18 -26 -28 -32 q-10 -6 -27 -6 q-24 0 -35.5 12 q-11.5 12 -11.5 44 l0 440 q0 16 10.5 23 q10.5 7 24.5 7 Z" /><glyph glyph-name="cid1063" unicode="&#x439;" d="M203 719 q24 2 28 -19 q5 -25 24.5 -41.5 q19.5 -16.5 52.5 -16.5 q33 0 52 16.5 q19 16.5 24 41.5 q4 21 28 19 q11 -2 18 -8.5 q7 -6.5 5 -17.5 q-3 -21 -13 -39.5 q-10 -18.5 -26 -32.5 q-16 -14 -38.5 -22 q-22.5 -8 -49.5 -8 q-56 0 -88.5 30 q-32.5 30 -39.5 72 q-2 11 5 17.5 q7 6.5 18 8.5 ZM122 527 q14 0 24.5 -7 q10.5 -7 10.5 -23 l0 -402 q6 18 13.5 32 q7.5 14 16.5 26 l227 330 q18 26 28 34.5 q10 8.5 27 8.5 q24 0 35.5 -12 q11.5 -12 11.5 -44 l0 -440 q0 -16 -10.5 -23 q-10.5 -7 -24.5 -7 q-14 0 -24.5 7 q-10.5 7 -10.5 23 l0 400 q-5 -18 -13 -31.5 q-8 -13.5 -17 -27.5 l-227 -332 q-18 -26 -28 -32 q-10 -6 -27 -6 q-24 0 -35.5 12 q-11.5 12 -11.5 44 l0 440 q0 16 10.5 23 q10.5 7 24.5 7 Z" /><glyph glyph-name="cid1064" unicode="&#x43a;" d="M121 527 q14 0 24 -6.5 q10 -6.5 10 -22.5 l0 -187 l42 0 q34 0 53 20.5 q19 20.5 35 56.5 l29 68 q10 23 21 37.5 q11 14.5 24 23 q13 8.5 28.5 11.5 q15.5 3 33.5 3 q26 0 39 -4 q12 -3 16 -13 q4 -10 2 -23 q-3 -12 -11.5 -18.5 q-8.5 -6.5 -19.5 -4.5 q-10 2 -18 2 q-20 0 -33 -10 q-13 -10 -28 -45 l-27 -62 q-11 -28 -29 -45.5 q-18 -17.5 -40 -25.5 q25 -8 41.5 -22.5 q16.5 -14.5 35.5 -42.5 l111 -164 q9 -14 6 -25.5 q-3 -11.5 -14 -19.5 q-14 -10 -26.5 -7.5 q-12.5 2.5 -20.5 14.5 l-119 179 q-22 33 -41.5 45 q-19.5 12 -48.5 12 l-41 0 l0 -222 q0 -16 -10 -22.5 q-10 -6.5 -24 -6.5 q-14 0 -24 6.5 q-10 6.5 -10 22.5 l0 469 q0 16 10 22.5 q10 6.5 24 6.5 Z" /><glyph glyph-name="cid1065" unicode="&#x43b;" d="M447 523 q38 0 52.5 -14 q14.5 -14 14.5 -52 l0 -427 q0 -16 -10.5 -23 q-10.5 -7 -24.5 -7 q-15 0 -25.5 7 q-10.5 7 -10.5 23 l0 429 l-222 0 l0 -160 q0 -55 -4.5 -102.5 q-4.5 -47.5 -20 -85 q-15.5 -37.5 -46 -65.5 q-30.5 -28 -81.5 -44 q-32 -9 -42 22 q-5 13 -2 25 q3 12 18 18 q36 13 57 31 q21 18 32 46 q11 28 14.5 68 q3.5 40 3.5 97 l0 148 q0 38 15 52 q15 14 53 14 l229 0 l0 0 Z" /><glyph glyph-name="cid1066" unicode="&#x43c;" d="M138 528 q19 0 30 -7 q11 -7 23 -33 l159 -314 l156 314 q11 26 22.5 33 q11.5 7 30.5 7 l6 0 q24 0 34.5 -12.5 q10.5 -12.5 10.5 -42.5 l0 -444 q0 -15 -10.5 -22 q-10.5 -7 -24.5 -7 q-14 0 -24.5 7 q-10.5 7 -10.5 22 l0 397 q-9 -26 -18.5 -49.5 q-9.5 -23.5 -22.5 -46.5 l-111 -215 q-7 -14 -15.5 -20.5 q-8.5 -6.5 -23.5 -6.5 q-15 0 -23.5 6.5 q-8.5 6.5 -15.5 20.5 l-111 215 q-13 23 -23 46.5 q-10 23.5 -20 49.5 l0 -397 q0 -15 -10 -22 q-10 -7 -24 -7 q-14 0 -24.5 7 q-10.5 7 -10.5 22 l0 444 q0 30 10 42.5 q10 12.5 35 12.5 l6 0 l0 0 Z" /><glyph glyph-name="cid1067" unicode="&#x43d;" d="M122 527 q15 0 25.5 -7 q10.5 -7 10.5 -23 l0 -189 l291 0 l0 189 q0 16 10.5 23 q10.5 7 24.5 7 q15 0 25.5 -7 q10.5 -7 10.5 -23 l0 -467 q0 -16 -10.5 -23 q-10.5 -7 -25.5 -7 q-14 0 -24.5 7 q-10.5 7 -10.5 23 l0 217 l-291 0 l0 -217 q0 -16 -10.5 -23 q-10.5 -7 -25.5 -7 q-14 0 -24.5 7 q-10.5 7 -10.5 23 l0 467 q0 16 10.5 23 q10.5 7 24.5 7 Z" /><glyph glyph-name="cid1068" unicode="&#x43e;" d="M295 534 q108 0 171 -63 q63 -63 63 -185 l0 -42 q0 -122 -63 -185 q-63 -63 -171 -63 q-109 0 -172 62.5 q-63 62.5 -63 185.5 l0 42 q0 123 63 185.5 q63 62.5 172 62.5 ZM295 470 q-78 0 -120.5 -45 q-42.5 -45 -42.5 -143 l0 -34 q0 -98 42.5 -143 q42.5 -45 120.5 -45 q77 0 119.5 45 q42.5 45 42.5 143 l0 34 q0 98 -42.5 143 q-42.5 45 -119.5 45 Z" /><glyph glyph-name="cid1069" unicode="&#x43f;" d="M433 523 q38 0 53 -14 q15 -14 15 -52 l0 -427 q0 -16 -10.5 -23 q-10.5 -7 -24.5 -7 q-15 0 -26 7 q-11 7 -11 23 l0 429 l-271 0 l0 -429 q0 -16 -10.5 -23 q-10.5 -7 -25.5 -7 q-14 0 -24.5 7 q-10.5 7 -10.5 23 l0 427 q0 38 15 52 q15 14 53 14 l278 0 l0 0 Z" /><glyph glyph-name="cid1070" unicode="&#x440;" d="M323 534 q104 0 156.5 -62.5 q52.5 -62.5 52.5 -185.5 l0 -42 q0 -125 -58 -186.5 q-58 -61.5 -157 -61.5 q-51 0 -93.5 19 q-42.5 19 -64.5 54 l0 -233 q0 -16 -11 -23 q-11 -7 -25 -7 q-14 0 -25 7 q-11 7 -11 23 l0 662 q0 15 10.5 22 q10.5 7 24.5 7 q14 0 24.5 -7 q10.5 -7 10.5 -22 l0 -54 q23 42 67.5 66 q44.5 24 98.5 24 ZM312 471 q-30 0 -57.5 -10.5 q-27.5 -10.5 -49 -30 q-21.5 -19.5 -34.5 -47.5 q-13 -28 -13 -63 l0 -138 q0 -24 11.5 -46 q11.5 -22 31.5 -39.5 q20 -17.5 48.5 -27.5 q28.5 -10 63.5 -10 q68 0 108 45.5 q40 45.5 40 144.5 l0 33 q0 97 -36 143 q-36 46 -113 46 Z" /><glyph glyph-name="cid1071" unicode="&#x441;" d="M287 534 q53 0 93 -12 q40 -12 69 -30 q12 -8 14 -21 q2 -13 -6 -24 q-7 -11 -18 -14.5 q-11 -3.5 -24 4.5 q-53 33 -128 33 q-72 0 -113.5 -44.5 q-41.5 -44.5 -41.5 -142.5 l0 -35 q0 -97 42.5 -142.5 q42.5 -45.5 114.5 -45.5 q44 0 78 10 q34 10 63 29 q13 8 24 4.5 q11 -3.5 18 -14.5 q8 -12 6.5 -24.5 q-1.5 -12.5 -14.5 -21.5 q-32 -21 -75.5 -34 q-43.5 -13 -100.5 -13 q-105 0 -166.5 61.5 q-61.5 61.5 -61.5 186.5 l0 42 q0 125 61 186.5 q61 61.5 166 61.5 Z" /><glyph glyph-name="cid1072" unicode="&#x442;" d="M408 523 q14 0 20.5 -9 q6.5 -9 6.5 -23 q0 -14 -6.5 -23 q-6.5 -9 -20.5 -9 l-143 0 l0 -429 q0 -16 -11 -23 q-11 -7 -26 -7 q-14 0 -24.5 7 q-10.5 7 -10.5 23 l0 429 l-142 0 q-14 0 -20 9 q-6 9 -6 23 q0 14 6 23 q6 9 20 9 l357 0 l0 0 Z" /><glyph glyph-name="cid1073" unicode="&#x443;" d="M461 524 q14 -4 20.5 -15 q6.5 -11 1.5 -26 l-260 -662 q-5 -14 -18 -17 q-13 -3 -27 2 q-13 5 -19 15.5 q-6 10.5 -1 24.5 l66 161 l-190 474 q-6 16 1.5 27 q7.5 11 20.5 16 q14 5 27.5 2 q13.5 -3 18.5 -19 l158 -417 l1 0 l156 416 q5 16 18 19.5 q13 3.5 26 -1.5 Z" /><glyph glyph-name="cid1074" unicode="&#x444;" d="M338 719 q15 0 24.5 -7 q9.5 -7 9.5 -21 l0 -164 q55 -3 100.5 -20.5 q45.5 -17.5 77.5 -48.5 q32 -31 50 -74.5 q18 -43.5 18 -99.5 l0 -42 q0 -56 -18 -99.5 q-18 -43.5 -50 -74.5 q-32 -31 -77.5 -48.5 q-45.5 -17.5 -100.5 -21.5 l0 -166 q0 -14 -9.5 -21 q-9.5 -7 -24.5 -7 q-13 0 -22.5 7 q-9.5 7 -9.5 21 l0 166 q-56 4 -101 21.5 q-45 17.5 -77.5 48.5 q-32.5 31 -50 74.5 q-17.5 43.5 -17.5 99.5 l0 42 q0 56 18 99.5 q18 43.5 50 74.5 q32 31 77.5 48.5 q45.5 17.5 100.5 20.5 l0 164 q0 14 9.5 21 q9.5 7 22.5 7 ZM306 462 q-79 -6 -126.5 -50.5 q-47.5 -44.5 -47.5 -131.5 l0 -34 q0 -87 47.5 -132 q47.5 -45 126.5 -52 l0 400 ZM372 62 q78 7 126 52 q48 45 48 132 l0 34 q0 87 -48 131.5 q-48 44.5 -126 50.5 l0 -400 Z" /><glyph glyph-name="cid1075" unicode="&#x445;" d="M67 520 q11 8 25.5 6.5 q14.5 -1.5 25.5 -15.5 l140 -194 l138 194 q11 14 24.5 15.5 q13.5 1.5 25.5 -7.5 q11 -8 14 -20 q3 -12 -7 -26 l-151 -203 l162 -214 q11 -14 8.5 -26.5 q-2.5 -12.5 -15.5 -22.5 q-11 -8 -25.5 -6.5 q-14.5 1.5 -25.5 15.5 l-151 206 l-153 -206 q-11 -14 -24 -15.5 q-13 -1.5 -25 7.5 q-11 8 -14.5 20 q-3.5 12 7.5 26 l165 214 l-151 203 q-11 14 -8 26.5 q3 12.5 15 22.5 Z" /><glyph glyph-name="cid1076" unicode="&#x446;" d="M122 527 q15 0 25.5 -7 q10.5 -7 10.5 -23 l0 -429 l254 0 l0 429 q0 16 11 23 q11 7 26 7 q14 0 24.5 -7 q10.5 -7 10.5 -23 l0 -429 q26 -2 38 -14.5 q12 -12.5 12 -41.5 l0 -118 q0 -16 -10.5 -23 q-10.5 -7 -24.5 -7 q-15 0 -26 7 q-11 7 -11 23 l0 110 l-307 0 q-38 0 -53 14 q-15 14 -15 52 l0 427 q0 16 10.5 23 q10.5 7 24.5 7 Z" /><glyph glyph-name="cid1077" unicode="&#x447;" d="M90 527 q13 0 23.5 -6.5 q10.5 -6.5 10.5 -21.5 l0 -110 q0 -72 31 -106 q31 -34 91 -34 q31 0 57 11 q26 11 45 29 q19 18 29 39.5 q10 21.5 10 42.5 l0 127 q0 16 10 22.5 q10 6.5 24 6.5 q14 0 24 -6.5 q10 -6.5 10 -22.5 l0 -469 q0 -16 -10 -22.5 q-10 -6.5 -24 -6.5 q-14 0 -24 6.5 q-10 6.5 -10 22.5 l0 235 l-1 0 q-8 -14 -22 -28 q-14 -14 -34.5 -25 q-20.5 -11 -45.5 -18 q-25 -7 -55 -7 q-85 0 -129 50 q-44 50 -44 136 l0 127 q0 15 10.5 21.5 q10.5 6.5 23.5 6.5 Z" /><glyph glyph-name="cid1078" unicode="&#x448;" d="M122 527 q15 0 25.5 -7 q10.5 -7 10.5 -23 l0 -429 l208 0 l0 429 q0 16 10.5 23 q10.5 7 24.5 7 q15 0 25.5 -7 q10.5 -7 10.5 -23 l0 -429 l209 0 l0 429 q0 16 10.5 23 q10.5 7 25.5 7 q14 0 24.5 -7 q10.5 -7 10.5 -23 l0 -427 q0 -38 -15 -52 q-15 -14 -53 -14 l-494 0 q-38 0 -53 14 q-15 14 -15 52 l0 427 q0 16 10.5 23 q10.5 7 24.5 7 Z" /><glyph glyph-name="cid1079" unicode="&#x449;" d="M122 527 q15 0 25.5 -7 q10.5 -7 10.5 -23 l0 -429 l208 0 l0 429 q0 16 10.5 23 q10.5 7 24.5 7 q15 0 25.5 -7 q10.5 -7 10.5 -23 l0 -429 l209 0 l0 429 q0 16 10.5 23 q10.5 7 25.5 7 q14 0 24.5 -7 q10.5 -7 10.5 -23 l0 -429 q29 -1 42.5 -13.5 q13.5 -12.5 13.5 -42.5 l0 -118 q0 -16 -10.5 -23 q-10.5 -7 -24.5 -7 q-15 0 -25.5 7 q-10.5 7 -10.5 23 l0 110 l-547 0 q-38 0 -53 14 q-15 14 -15 52 l0 427 q0 16 10.5 23 q10.5 7 24.5 7 Z" /><glyph glyph-name="cid1080" unicode="&#x44a;" d="M127 533 q36 0 50.5 -13.5 q14.5 -13.5 14.5 -49.5 l0 -133 l109 0 q118 0 168.5 -39.5 q50.5 -39.5 50.5 -119.5 l0 -18 q0 -39 -11.5 -69 q-11.5 -30 -37.5 -49.5 q-26 -19.5 -67 -29.5 q-41 -10 -101 -10 l-116 0 q-38 0 -52.5 14 q-14.5 14 -14.5 52 l0 404 l-81 0 q-13 0 -19 8.5 q-6 8.5 -6 22.5 q0 13 6 21.5 q6 8.5 19 8.5 l88 0 ZM301 66 q43 0 71.5 6 q28.5 6 45 18 q16.5 12 23 30 q6.5 18 6.5 42 l0 15 q0 25 -7 43.5 q-7 18.5 -24 30 q-17 11.5 -47.5 17 q-30.5 5.5 -76.5 5.5 l-100 0 l0 -207 l109 0 Z" /><glyph glyph-name="cid1081" unicode="&#x44b;" d="M122 527 q15 0 26 -7 q11 -7 11 -23 l0 -160 l110 0 q117 0 168 -40 q51 -40 51 -119 l0 -18 q0 -79 -49.5 -118.5 q-49.5 -39.5 -167.5 -39.5 l-116 0 q-38 0 -53 14 q-15 14 -15 52 l0 429 q0 16 10.5 23 q10.5 7 24.5 7 ZM587 527 q15 0 25.5 -7 q10.5 -7 10.5 -24 l0 -466 q0 -16 -10.5 -23 q-10.5 -7 -25.5 -7 q-14 0 -24.5 7 q-10.5 7 -10.5 23 l0 467 q0 16 10.5 23 q10.5 7 24.5 7 ZM269 66 q43 0 71 6 q28 6 44.5 18 q16.5 12 23 30 q6.5 18 6.5 42 l0 15 q0 25 -7 43.5 q-7 18.5 -24 30 q-17 11.5 -47 17 q-30 5.5 -76 5.5 l-101 0 l0 -207 l110 0 Z" /><glyph glyph-name="cid1082" unicode="&#x44c;" d="M122 527 q15 0 26 -7 q11 -7 11 -23 l0 -160 l110 0 q117 0 168 -40 q51 -40 51 -119 l0 -18 q0 -79 -49.5 -118.5 q-49.5 -39.5 -167.5 -39.5 l-116 0 q-38 0 -53 14 q-15 14 -15 52 l0 429 q0 16 10.5 23 q10.5 7 24.5 7 ZM269 66 q43 0 71 6 q28 6 44.5 18 q16.5 12 23 30 q6.5 18 6.5 42 l0 15 q0 25 -7 43.5 q-7 18.5 -24 30 q-17 11.5 -47 17 q-30 5.5 -76 5.5 l-101 0 l0 -207 l110 0 Z" /><glyph glyph-name="cid1083" unicode="&#x44d;" d="M250 534 q104 0 165 -61.5 q61 -61.5 61 -186.5 l0 -42 q0 -125 -61 -186.5 q-61 -61.5 -167 -61.5 q-57 0 -100.5 13 q-43.5 13 -75.5 34 q-12 9 -14 21.5 q-2 12.5 6 24.5 q7 11 18.5 14.5 q11.5 3.5 24.5 -4.5 q28 -19 62 -29 q34 -10 78 -10 q69 0 111 41.5 q42 41.5 45 135.5 l-215 0 q-13 0 -19 8.5 q-6 8.5 -6 21.5 q0 13 6 21.5 q6 8.5 19 8.5 l215 0 q-3 90 -44.5 131.5 q-41.5 41.5 -108.5 41.5 q-38 0 -70.5 -8.5 q-32.5 -8.5 -58.5 -24.5 q-12 -8 -23 -4.5 q-11 3.5 -19 14.5 q-8 11 -6 24 q2 13 14 21 q29 18 69 30 q40 12 94 12 Z" /><glyph glyph-name="cid1084" unicode="&#x44e;" d="M475 534 q103 0 161.5 -62.5 q58.5 -62.5 58.5 -185.5 l0 -42 q0 -123 -58.5 -185.5 q-58.5 -62.5 -161.5 -62.5 q-100 0 -158 59.5 q-58 59.5 -62 183.5 l-97 0 l0 -209 q0 -16 -10.5 -23 q-10.5 -7 -25.5 -7 q-14 0 -24.5 7 q-10.5 7 -10.5 23 l0 467 q0 16 10.5 23 q10.5 7 24.5 7 q15 0 25.5 -7 q10.5 -7 10.5 -23 l0 -196 l97 0 q4 115 61.5 174 q57.5 59 158.5 59 ZM475 470 q-72 0 -110 -45 q-38 -45 -38 -143 l0 -34 q0 -98 38 -143 q38 -45 110 -45 q72 0 109.5 45 q37.5 45 37.5 143 l0 34 q0 98 -37.5 143 q-37.5 45 -109.5 45 Z" /><glyph glyph-name="cid1085" unicode="&#x44f;" d="M401 523 q34 0 47 -13 q13 -13 13 -45 l0 -434 q0 -16 -10.5 -23.5 q-10.5 -7.5 -24.5 -7.5 q-16 0 -26.5 7.5 q-10.5 7.5 -10.5 23.5 l0 183 l-133 0 q-8 0 -14.5 0 q-6.5 0 -14.5 2 l-101 -197 q-7 -14 -19.5 -18 q-12.5 -4 -26.5 4 q-14 7 -19 18.5 q-5 11.5 3 25.5 l93 180 q-47 15 -71.5 49 q-24.5 34 -24.5 86 l0 13 q0 79 49.5 112.5 q49.5 33.5 140.5 33.5 l150 0 ZM256 461 q-65 0 -94 -19.5 q-29 -19.5 -29 -66.5 l0 -11 q0 -47 30 -66 q30 -19 101 -19 l125 0 l0 182 l-133 0 Z" /><glyph glyph-name="cid1059" unicode="&#x451;" d="M199 702 q20 0 33 -13 q13 -13 13 -31 q0 -19 -13 -32 q-13 -13 -33 -13 q-20 0 -33 13 q-13 13 -13 32 q0 18 13 31 q13 13 33 13 ZM355 702 q20 0 33 -13 q13 -13 13 -31 q0 -19 -13 -32 q-13 -13 -33 -13 q-20 0 -33 13 q-13 13 -13 32 q0 18 13 31 q13 13 33 13 ZM286 534 q103 0 162.5 -61.5 q59.5 -61.5 59.5 -174.5 l0 -2 q0 -29 -13 -42 q-13 -13 -45 -13 l-319 0 l0 -5 q0 -90 42.5 -134 q42.5 -44 120.5 -44 q47 0 82.5 9.5 q35.5 9.5 67.5 28.5 q13 7 24 3.5 q11 -3.5 17 -15.5 q6 -12 3.5 -23.5 q-2.5 -11.5 -14.5 -19.5 q-34 -20 -79.5 -32.5 q-45.5 -12.5 -104.5 -12.5 q-107 0 -168.5 62 q-61.5 62 -61.5 186 l0 42 q0 123 61.5 185.5 q61.5 62.5 164.5 62.5 ZM286 473 q-72 0 -113.5 -44.5 q-41.5 -44.5 -41.5 -125.5 l0 -5 l307 0 l0 8 q0 80 -39.5 123.5 q-39.5 43.5 -112.5 43.5 Z" /><glyph glyph-name="cid97" unicode="&#x2010;" d="M359 395 q15 0 22 -10.5 q7 -10.5 7 -25.5 q0 -14 -7 -24.5 q-7 -10.5 -22 -10.5 l-300 0 q-15 0 -22 10.5 q-7 10.5 -7 24.5 q0 15 7 25.5 q7 10.5 22 10.5 l300 0 l0 0 Z" /><glyph glyph-name="cid110" unicode="&#x2014;&#x2015;" d="M799 389 q25 0 25 -31 q0 -12 -6 -20.5 q-6 -8.5 -19 -8.5 l-774 0 q-13 0 -19 8.5 q-6 8.5 -6 20.5 q0 31 25 31 l774 0 l0 0 Z" /><glyph glyph-name="cid111" unicode="&#x2016;" d="M395 -144 l-56 0 l0 960 l56 0 l0 -960 ZM571 -144 l-57 0 l0 960 l57 0 l0 -960 Z" /><glyph glyph-name="cid114" unicode="&#x2018;" d="M145 774 q26 -5 21 -29 l-33 -175 q-3 -17 -17 -22.5 q-14 -5.5 -30 -3.5 q-17 3 -25 14 q-8 11 -3 28 l53 169 q4 13 13 17 q9 4 21 2 Z" /><glyph glyph-name="cid115" unicode="&#x2019;" d="M114 761 q17 -3 25 -14.5 q8 -11.5 3 -28.5 l-53 -168 q-4 -13 -13 -17 q-9 -4 -21 -2 q-26 3 -21 28 l33 175 q3 17 17 23 q14 6 30 4 Z" /><glyph glyph-name="cid116" unicode="&#x201c;" d="M150 775 q11 -2 16.5 -10 q5.5 -8 3.5 -19 l-33 -177 q-3 -17 -16 -22 q-13 -5 -30 -3 q-15 2 -23.5 11.5 q-8.5 9.5 -3.5 25.5 l54 175 q7 22 32 19 ZM291 775 q11 -2 16.5 -10 q5.5 -8 3.5 -19 l-33 -177 q-3 -17 -16 -22 q-13 -5 -30 -3 q-15 2 -23.5 11.5 q-8.5 9.5 -3.5 25.5 l54 175 q7 22 32 19 Z" /><glyph glyph-name="cid117" unicode="&#x201d;" d="M259 761 q15 -2 23.5 -12 q8.5 -10 3.5 -26 l-54 -174 q-7 -22 -32 -19 q-25 3 -20 28 l33 177 q3 17 16 23 q13 6 30 3 ZM118 761 q15 -2 23.5 -12 q8.5 -10 3.5 -26 l-54 -174 q-7 -22 -32 -19 q-25 3 -20 28 l33 177 q3 17 16 23 q13 6 30 3 Z" /><glyph glyph-name="cid245" unicode="&#x2020;" d="M226 716 q14 0 25.5 -7 q11.5 -7 11.5 -23 l0 -176 l138 0 q12 0 18 -9 q6 -9 6 -21 q0 -12 -6 -21 q-6 -9 -18 -9 l-138 0 l0 -492 q0 -16 -11.5 -23 q-11.5 -7 -25.5 -7 q-14 0 -24.5 7 q-10.5 7 -10.5 23 l0 492 l-137 0 q-13 0 -19 9 q-6 9 -6 21 q0 12 6 21 q6 9 19 9 l137 0 l0 176 q0 16 10.5 23 q10.5 7 24.5 7 Z" /><glyph glyph-name="cid246" unicode="&#x2021;" d="M226 716 q14 0 25.5 -7 q11.5 -7 11.5 -23 l0 -176 l138 0 q12 0 18 -9 q6 -9 6 -21 q0 -12 -6 -21 q-6 -9 -18 -9 l-138 0 l0 -259 l138 0 q12 0 18 -8.5 q6 -8.5 6 -20.5 q0 -13 -6 -21.5 q-6 -8.5 -18 -8.5 l-138 0 l0 -174 q0 -16 -11.5 -23 q-11.5 -7 -25.5 -7 q-14 0 -24.5 7 q-10.5 7 -10.5 23 l0 174 l-137 0 q-13 0 -19 8.5 q-6 8.5 -6 21.5 q0 12 6 20.5 q6 8.5 19 8.5 l137 0 l0 259 l-137 0 q-13 0 -19 9 q-6 9 -6 21 q0 12 6 21 q6 9 19 9 l137 0 l0 176 q0 16 10.5 23 q10.5 7 24.5 7 Z" /><glyph glyph-name="cid105" unicode="&#x2025;" d="M310 415 q25 0 41 -16 q16 -16 16 -40 q0 -24 -16 -40 q-16 -16 -41 -16 q-24 0 -40.5 16 q-16.5 16 -16.5 40 q0 24 16.5 40 q16.5 16 40.5 16 ZM599 415 q24 0 40.5 -16 q16.5 -16 16.5 -40 q0 -24 -16.5 -40 q-16.5 -16 -40.5 -16 q-24 0 -40.5 16 q-16.5 16 -16.5 40 q0 24 16.5 40 q16.5 16 40.5 16 Z" /><glyph glyph-name="cid106" unicode="&#x2026;&#x22ef;" d="M173 415 q24 0 40.5 -16 q16.5 -16 16.5 -40 q0 -24 -16.5 -40 q-16.5 -16 -40.5 -16 q-24 0 -40.5 16 q-16.5 16 -16.5 40 q0 24 16.5 40 q16.5 16 40.5 16 ZM455 415 q24 0 40.5 -16 q16.5 -16 16.5 -40 q0 -24 -16.5 -40 q-16.5 -16 -40.5 -16 q-24 0 -40.5 16 q-16.5 16 -16.5 40 q0 24 16.5 40 q16.5 16 40.5 16 ZM737 415 q24 0 40.5 -16 q16.5 -16 16.5 -40 q0 -24 -16.5 -40 q-16.5 -16 -40.5 -16 q-24 0 -40.5 16 q-16.5 16 -16.5 40 q0 24 16.5 40 q16.5 16 40.5 16 Z" /><glyph glyph-name="cid216" unicode="&#x2030;" d="M226 726 q79 0 118 -46.5 q39 -46.5 39 -127.5 l0 -23 q0 -81 -39 -127.5 q-39 -46.5 -118 -46.5 q-79 0 -118 46.5 q-39 46.5 -39 127.5 l0 23 q0 81 39 127.5 q39 46.5 118 46.5 ZM660 715 q11 -6 14.5 -16 q3.5 -10 -3.5 -22 l-407 -663 q-7 -11 -17.5 -12.5 q-10.5 -1.5 -21.5 3.5 q-11 5 -15 15.5 q-4 10.5 4 22.5 l406 663 q7 11 18 12.5 q11 1.5 22 -3.5 ZM226 671 q-49 0 -73 -29.5 q-24 -29.5 -24 -93.5 l0 -16 q0 -64 24 -93 q24 -29 73 -29 q48 0 72 29 q24 29 24 93 l0 16 q0 64 -24 93.5 q-24 29.5 -72 29.5 ZM657 365 q79 0 118 -46.5 q39 -46.5 39 -128.5 l0 -22 q0 -81 -39 -127.5 q-39 -46.5 -118 -46.5 q-79 0 -118 46.5 q-39 46.5 -39 127.5 l0 22 q0 82 39 128.5 q39 46.5 118 46.5 ZM1025 365 q79 0 118 -46.5 q39 -46.5 39 -128.5 l0 -22 q0 -81 -39 -127.5 q-39 -46.5 -118 -46.5 q-79 0 -118 46.5 q-39 46.5 -39 127.5 l0 22 q0 82 39 128.5 q39 46.5 118 46.5 ZM657 310 q-48 0 -72 -29.5 q-24 -29.5 -24 -93.5 l0 -16 q0 -64 24 -93.5 q24 -29.5 72 -29.5 q49 0 73 29.5 q24 29.5 24 93.5 l0 16 q0 64 -24 93.5 q-24 29.5 -73 29.5 ZM1025 310 q-49 0 -73 -29.5 q-24 -29.5 -24 -93.5 l0 -16 q0 -64 24 -93.5 q24 -29.5 73 -29.5 q48 0 72 29.5 q24 29.5 24 93.5 l0 16 q0 64 -24 93.5 q-24 29.5 -72 29.5 Z" /><glyph glyph-name="cid139" unicode="&#x2032;" d="M273 740 q15 -5 22.5 -17 q7.5 -12 -0.5 -28 l-107 -197 q-4 -8 -11.5 -10.5 q-7.5 -2.5 -15.5 -0.5 q-9 3 -13 9.5 q-4 6.5 0 15.5 l78 209 q5 17 18.5 20.5 q13.5 3.5 28.5 -1.5 Z" /><glyph glyph-name="cid140" unicode="&#x2033;" d="M273 740 q15 -5 22.5 -17 q7.5 -12 -0.5 -28 l-107 -197 q-4 -8 -11.5 -10.5 q-7.5 -2.5 -15.5 -0.5 q-9 3 -13 9.5 q-4 6.5 0 15.5 l78 209 q5 17 18.5 20.5 q13.5 3.5 28.5 -1.5 ZM435 740 q15 -5 22.5 -17 q7.5 -12 -0.5 -28 l-106 -197 q-4 -8 -11.5 -10.5 q-7.5 -2.5 -16.5 -0.5 q-19 7 -13 25 l78 209 q6 17 19.5 20.5 q13.5 3.5 27.5 -1.5 Z" /><glyph glyph-name="cid156" unicode="&#x203b;" d="M705 651 q8 9 19 7.5 q11 -1.5 19 -9.5 q10 -9 11 -19.5 q1 -10.5 -7 -18.5 l-251 -253 l251 -252 q17 -18 -3 -38 q-9 -8 -20 -9.5 q-11 -1.5 -20 7.5 l-247 252 l-247 -252 q-8 -9 -19.5 -7.5 q-11.5 1.5 -19.5 9.5 q-9 9 -10 19.5 q-1 10.5 7 18.5 l250 252 l-250 253 q-8 8 -7 18.5 q1 10.5 10 19.5 q8 8 19 9.5 q11 1.5 20 -7.5 l247 -253 l248 253 ZM455 712 q24 0 40.5 -16.5 q16.5 -16.5 16.5 -39.5 q0 -24 -16.5 -40.5 q-16.5 -16.5 -40.5 -16.5 q-24 0 -40.5 16.5 q-16.5 16.5 -16.5 40.5 q0 23 16.5 39.5 q16.5 16.5 40.5 16.5 ZM455 117 q24 0 40.5 -16 q16.5 -16 16.5 -40 q0 -24 -16.5 -40 q-16.5 -16 -40.5 -16 q-24 0 -40.5 16 q-16.5 16 -16.5 40 q0 24 16.5 40 q16.5 16 40.5 16 ZM809 358 q0 -24 -16.5 -40.5 q-16.5 -16.5 -40.5 -16.5 q-23 0 -39.5 16.5 q-16.5 16.5 -16.5 40.5 q0 25 16.5 41 q16.5 16 39.5 16 q24 0 40.5 -16 q16.5 -16 16.5 -41 ZM214 358 q0 -24 -16.5 -40.5 q-16.5 -16.5 -39.5 -16.5 q-24 0 -40.5 16.5 q-16.5 16.5 -16.5 40.5 q0 25 16.5 41 q16.5 16 40.5 16 q23 0 39.5 -16 q16.5 -16 16.5 -41 Z" /><glyph glyph-name="cid357" unicode="&#xffe3;&#x203e;" d="M894 782 q8 0 12 -5.5 q4 -5.5 4 -13.5 q0 -8 -4 -14 q-4 -6 -12 -6 l-878 0 q-8 0 -12 6 q-4 6 -4 14 q0 8 4 13.5 q4 5.5 12 5.5 l878 0 l0 0 Z" /><glyph glyph-name="cid845" unicode="&#x2074;" d="M279 817 q10 -7 13 -16.5 q3 -9.5 -5 -20.5 l-174 -249 l145 0 l0 112 q0 13 8 19 q8 6 19 6 q12 0 21 -6 q9 -6 9 -19 l0 -112 l42 0 q12 0 17 -7.5 q5 -7.5 5 -17.5 q0 -11 -5 -17.5 q-5 -6.5 -17 -6.5 l-42 0 l0 -72 q0 -13 -9 -18.5 q-9 -5.5 -21 -5.5 q-11 0 -19 5.5 q-8 5.5 -8 18.5 l0 72 l-178 0 q-21 0 -29.5 6.5 q-8.5 6.5 -8.5 20.5 q0 7 3 13.5 q3 6.5 12 20.5 l185 268 q14 21 37 6 Z" /><glyph glyph-name="cid846" unicode="&#x207f;" d="M249 737 q60 0 92.5 -33.5 q32.5 -33.5 32.5 -90.5 l0 -203 q0 -13 -8.5 -18.5 q-8.5 -5.5 -19.5 -5.5 q-11 0 -19.5 5.5 q-8.5 5.5 -8.5 18.5 l0 192 q0 42 -19 62 q-19 20 -61 20 q-23 0 -40 -7.5 q-17 -7.5 -28.5 -19.5 q-11.5 -12 -17 -26.5 q-5.5 -14.5 -5.5 -27.5 l0 -193 q0 -13 -9 -18.5 q-9 -5.5 -20 -5.5 q-11 0 -19.5 5.5 q-8.5 5.5 -8.5 18.5 l0 298 q0 13 8 18.5 q8 5.5 19 5.5 q11 0 19 -5.5 q8 -5.5 8 -18.5 l0 -30 q12 25 40 42 q28 17 65 17 Z" /><glyph glyph-name="cid847" unicode="&#x2081;" d="M227 332 q13 0 21.5 -5.5 q8.5 -5.5 8.5 -19.5 l0 -387 q0 -13 -8.5 -18.5 q-8.5 -5.5 -19.5 -5.5 q-11 0 -20 5.5 q-9 5.5 -9 18.5 l0 341 l-89 -57 q-11 -6 -21 -2.5 q-10 3.5 -15 12.5 q-6 9 -4 20.5 q2 11.5 12 16.5 l111 70 q19 11 33 11 Z" /><glyph glyph-name="cid848" unicode="&#x2082;" d="M201 336 q66 0 99 -32 q33 -32 33 -80 l0 -5 q0 -34 -14 -61.5 q-14 -27.5 -47 -62.5 l-133 -146 l190 0 q11 0 16.5 -7.5 q5.5 -7.5 5.5 -18.5 q0 -11 -5.5 -18.5 q-5.5 -7.5 -16.5 -7.5 l-229 0 q-22 0 -30.5 7.5 q-8.5 7.5 -8.5 22.5 q0 12 18 33 l149 165 q28 31 38 51 q10 20 10 43 l0 2 q0 29 -18.5 45.5 q-18.5 16.5 -55.5 16.5 q-30 0 -50.5 -13.5 q-20.5 -13.5 -37.5 -37.5 q-6 -9 -16 -10.5 q-10 -1.5 -20 5.5 q-20 14 -8 35 q20 32 53 53 q33 21 78 21 Z" /><glyph glyph-name="cid849" unicode="&#x2083;" d="M196 336 q63 0 99.5 -30.5 q36.5 -30.5 36.5 -81.5 l0 -4 q0 -33 -20.5 -59.5 q-20.5 -26.5 -52.5 -35.5 q17 -3 33 -10.5 q16 -7.5 29 -19.5 q13 -12 20.5 -29.5 q7.5 -17.5 7.5 -39.5 l0 -5 q0 -57 -39.5 -92.5 q-39.5 -35.5 -110.5 -35.5 q-36 0 -69 10 q-33 10 -58 28 q-11 8 -12 17.5 q-1 9.5 6 19.5 q15 23 36 8 q20 -14 44 -23 q24 -9 53 -9 q43 0 68 21 q25 21 25 56 l0 5 q0 38 -26.5 54.5 q-26.5 16.5 -67.5 16.5 l-36 0 q-12 0 -17.5 7.5 q-5.5 7.5 -5.5 18.5 q0 10 5.5 17.5 q5.5 7.5 17.5 7.5 l33 0 q15 0 29.5 4 q14.5 4 26 12.5 q11.5 8.5 18.5 22.5 q7 14 7 34 l0 2 q-1 28 -21 45 q-20 17 -59 17 q-27 0 -46 -11 q-19 -11 -33 -27 q-8 -9 -18 -9 q-10 0 -18 8 q-8 7 -8.5 16.5 q-0.5 9.5 5.5 17.5 q17 25 47 40.5 q30 15.5 71 15.5 Z" /><glyph glyph-name="cid850" unicode="&#x2084;" d="M279 327 q10 -7 13 -16.5 q3 -9.5 -5 -20.5 l-174 -249 l145 0 l0 113 q0 13 8 18.5 q8 5.5 19 5.5 q12 0 21 -5.5 q9 -5.5 9 -18.5 l0 -113 l42 0 q12 0 17 -7 q5 -7 5 -17 q0 -11 -5 -18 q-5 -7 -17 -7 l-42 0 l0 -72 q0 -13 -9 -18.5 q-9 -5.5 -21 -5.5 q-11 0 -19 5.5 q-8 5.5 -8 18.5 l0 72 l-178 0 q-21 0 -29.5 7 q-8.5 7 -8.5 21 q0 6 3 13 q3 7 12 20 l185 268 q14 21 37 6 Z" /><glyph glyph-name="cid96" unicode="&#x20a9;" d="M481 719 q15 0 26 -8.5 q11 -8.5 16 -28.5 l67 -267 l151 0 l68 278 q4 17 15 22.5 q11 5.5 25 2.5 q14 -4 21.5 -14 q7.5 -10 2.5 -27 l-67 -262 l95 0 q11 0 15.5 -7 q4.5 -7 4.5 -18 q0 -10 -4.5 -17 q-4.5 -7 -15.5 -7 l-106 0 l-84 -329 q-5 -20 -17 -28.5 q-12 -8.5 -26 -8.5 q-14 0 -25.5 8.5 q-11.5 8.5 -16.5 28.5 l-82 329 l-128 0 l-83 -329 q-5 -20 -17 -28.5 q-12 -8.5 -26 -8.5 q-14 0 -26 8.5 q-12 8.5 -17 28.5 l-83 329 l-105 0 q-11 0 -15.5 7 q-4.5 7 -4.5 17 q0 11 4.5 18 q4.5 7 15.5 7 l92 0 l-66 262 q-4 17 3.5 27 q7.5 10 21.5 14 q14 3 25 -2.5 q11 -5.5 15 -22.5 l67 -278 l153 0 l69 267 q5 20 16 28.5 q11 8.5 26 8.5 ZM532 415 l-51 206 l-53 -206 l104 0 ZM358 366 l-129 0 l63 -259 l66 259 ZM730 366 l-128 0 l65 -258 l63 258 Z" /><glyph glyph-name="cid141" unicode="&#x2103;" d="M146 734 q43 0 68 -26 q25 -26 25 -64 q0 -38 -25 -64 q-25 -26 -68 -26 q-43 0 -68 26 q-25 26 -25 64 q0 38 25 64 q25 26 68 26 ZM534 726 q68 0 118 -14.5 q50 -14.5 87 -38.5 q13 -9 14.5 -22 q1.5 -13 -6.5 -26 q-8 -11 -19.5 -14.5 q-11.5 -3.5 -24.5 4.5 q-35 22 -74 32.5 q-39 10.5 -96 10.5 q-212 0 -212 -279 l0 -39 q0 -138 52 -208 q52 -70 161 -70 q60 0 106 14.5 q46 14.5 82 43.5 q11 8 24.5 6 q13.5 -2 22.5 -14 q9 -13 8 -27 q-1 -14 -15 -24 q-42 -32 -98 -50 q-56 -18 -131 -18 q-143 0 -214.5 85.5 q-71.5 85.5 -71.5 253.5 l0 55 q0 168 72 253.5 q72 85.5 215 85.5 ZM146 692 q-22 0 -35 -14 q-13 -14 -13 -34 q0 -20 13 -34 q13 -14 35 -14 q22 0 35 14 q13 14 13 34 q0 20 -13 34 q-13 14 -35 14 Z" /><glyph glyph-name="cid215" unicode="&#x2109;" d="M146 734 q43 0 68 -26 q25 -26 25 -64 q0 -38 -25 -64 q-25 -26 -68 -26 q-43 0 -68 26 q-25 26 -25 64 q0 38 25 64 q25 26 68 26 ZM717 715 q14 0 20 -9 q6 -9 6 -23 q0 -14 -6 -23 q-6 -9 -20 -9 l-334 0 l0 -263 l313 0 q14 0 20 -9 q6 -9 6 -22 q0 -14 -6 -23 q-6 -9 -20 -9 l-313 0 l0 -295 q0 -16 -11 -23 q-11 -7 -26 -7 q-14 0 -25 7 q-11 7 -11 23 l0 619 q0 38 14.5 52 q14.5 14 52.5 14 l340 0 ZM146 692 q-22 0 -35 -14 q-13 -14 -13 -34 q0 -20 13 -34 q13 -14 35 -14 q22 0 35 14 q13 14 13 34 q0 20 -13 34 q-13 14 -35 14 Z" /><glyph glyph-name="cid590" unicode="&#x2113;" d="M479 726 q37 0 61 -15.5 q24 -15.5 38 -41.5 q14 -26 19 -60.5 q5 -34.5 5 -72.5 l0 -80 q0 -127 -47 -201 q-47 -74 -129 -110 l0 -19 q0 -35 16 -51 q16 -16 45 -16 q16 0 31.5 5.5 q15.5 5.5 29.5 14.5 q11 7 21.5 4.5 q10.5 -2.5 18.5 -13.5 q7 -11 5 -23 q-2 -12 -13 -20 q-17 -14 -43.5 -22.5 q-26.5 -8.5 -53.5 -8.5 q-24 0 -46.5 6 q-22.5 6 -40 20 q-17.5 14 -28 36 q-10.5 22 -10.5 55 l0 423 q0 38 5.5 72.5 q5.5 34.5 19.5 60.5 q14 26 37 41.5 q23 15.5 59 15.5 ZM479 660 q-17 0 -27.5 -11 q-10.5 -11 -16 -29.5 q-5.5 -18.5 -7.5 -43.5 q-2 -25 -2 -53 l0 -307 q22 9 41.5 29 q19.5 20 34 50 q14.5 30 23 70 q8.5 40 8.5 91 l0 67 q0 28 -2 53 q-2 25 -8 43.5 q-6 18.5 -16.5 29.5 q-10.5 11 -27.5 11 Z" /><glyph glyph-name="cid258" unicode="&#x2116;" d="M867 726 q79 0 118 -46.5 q39 -46.5 39 -127.5 l0 -23 q0 -81 -39 -127.5 q-39 -46.5 -118 -46.5 q-79 0 -118 46.5 q-39 46.5 -39 127.5 l0 23 q0 81 39 127.5 q39 46.5 118 46.5 ZM573 719 q14 0 24.5 -7 q10.5 -7 10.5 -22 l0 -624 q0 -35 -13 -49 q-13 -14 -41 -14 q-10 0 -18 2 q-8 2 -15.5 7 q-7.5 5 -15 15 q-7.5 10 -16.5 27 l-293 498 q-10 17 -19 36 q-9 19 -16 40 l0 -599 q0 -15 -10.5 -22 q-10.5 -7 -24.5 -7 q-13 0 -23.5 7 q-10.5 7 -10.5 22 l0 624 q0 35 13 49 q13 14 41 14 q10 0 18 -2 q8 -2 15 -7 q7 -5 14.5 -15.5 q7.5 -10.5 17.5 -26.5 l293 -498 q20 -34 35 -76 l0 599 q0 15 10.5 22 q10.5 7 23.5 7 ZM867 671 q-49 0 -73 -29 q-24 -29 -24 -94 l0 -16 q0 -64 24 -93 q24 -29 73 -29 q49 0 73 29 q24 29 24 93 l0 16 q0 65 -24 94 q-24 29 -73 29 ZM1000 276 q12 0 18 -8.5 q6 -8.5 6 -20.5 q0 -12 -6 -20.5 q-6 -8.5 -18 -8.5 l-266 0 q-13 0 -18.5 8.5 q-5.5 8.5 -5.5 20.5 q0 12 5.5 20.5 q5.5 8.5 18.5 8.5 l266 0 Z" /><glyph glyph-name="cid263" unicode="&#x2121;" d="M437 715 q14 0 20.5 -9 q6.5 -9 6.5 -23 q0 -14 -6.5 -22.5 q-6.5 -8.5 -20.5 -8.5 l-166 0 l0 -622 q0 -16 -11.5 -23 q-11.5 -7 -26.5 -7 q-14 0 -24.5 7 q-10.5 7 -10.5 23 l0 622 l-163 0 q-14 0 -20.5 8.5 q-6.5 8.5 -6.5 22.5 q0 14 6.5 23 q6.5 9 20.5 9 l402 0 ZM800 523 q15 0 26 -6.5 q11 -6.5 11 -22.5 l0 -428 l186 0 q12 0 17.5 -10 q5.5 -10 5.5 -21 q0 -11 -5.5 -21 q-5.5 -10 -17.5 -10 l-197 0 q-35 0 -48 12.5 q-13 12.5 -13 46.5 l0 431 q0 16 10.5 22.5 q10.5 6.5 24.5 6.5 ZM666 521 q14 0 20 -9 q6 -9 6 -22 q0 -14 -6 -22.5 q-6 -8.5 -20 -8.5 l-193 0 l0 -160 l174 0 q13 0 19 -9 q6 -9 6 -21 q0 -13 -6 -22 q-6 -9 -19 -9 l-174 0 l0 -172 l201 0 q14 0 20 -9 q6 -9 6 -22 q0 -13 -6 -22 q-6 -9 -20 -9 l-213 0 q-34 0 -47 12.5 q-13 12.5 -13 46.5 l0 399 q0 33 13 46 q13 13 47 13 l205 0 Z" /><glyph glyph-name="cid260" unicode="&#x2122;" d="M371 716 q19 0 29 -8 q10 -8 21 -33 l79 -168 l79 168 q11 24 20.5 32.5 q9.5 8.5 28.5 8.5 l3 0 q21 -1 30 -11.5 q9 -10.5 9 -35.5 l0 -263 q0 -11 -8 -16 q-8 -5 -19 -5 q-10 0 -17.5 5 q-7.5 5 -7.5 16 l0 246 q-8 -19 -17 -37.5 q-9 -18.5 -17 -35.5 l-46 -96 q-9 -18 -16.5 -26 q-7.5 -8 -21.5 -8 q-14 0 -22 8 q-8 8 -17 26 l-46 96 q-8 17 -16.5 35.5 q-8.5 18.5 -16.5 37.5 l0 -246 q0 -11 -8 -16 q-8 -5 -18 -5 q-11 0 -18.5 5 q-7.5 5 -7.5 16 l0 263 q0 25 8.5 35.5 q8.5 10.5 28.5 11.5 l4 0 ZM273 715 q11 0 15.5 -7.5 q4.5 -7.5 4.5 -17.5 q0 -8 -4.5 -16 q-4.5 -8 -15.5 -8 l-88 0 l0 -258 q0 -12 -8 -17.5 q-8 -5.5 -19 -5.5 q-11 0 -19.5 5.5 q-8.5 5.5 -8.5 17.5 l0 258 l-87 0 q-11 0 -16 8 q-5 8 -5 16 q0 10 5 17.5 q5 7.5 16 7.5 l230 0 Z" /><glyph glyph-name="cid643" unicode="&#x2126;" d="M454 726 q148 0 223 -85.5 q75 -85.5 75 -253.5 l0 -47 q0 -55 -9.5 -98 q-9.5 -43 -26.5 -76 q-17 -33 -40 -57.5 q-23 -24.5 -50 -40.5 l171 0 q13 0 19.5 -9.5 q6.5 -9.5 6.5 -21.5 q0 -14 -6.5 -23.5 q-6.5 -9.5 -19.5 -9.5 l-227 0 q-21 0 -29.5 10.5 q-8.5 10.5 -8.5 24.5 q0 19 7 27.5 q7 8.5 19 16.5 q31 20 53.5 43 q22.5 23 37.5 54.5 q15 31.5 22 72.5 q7 41 7 97 l0 29 q0 143 -54.5 211.5 q-54.5 68.5 -169.5 68.5 q-114 0 -168.5 -68.5 q-54.5 -68.5 -54.5 -211.5 l0 -29 q0 -56 7 -97 q7 -41 21.5 -72.5 q14.5 -31.5 37 -54.5 q22.5 -23 54.5 -43 q12 -8 18.5 -16.5 q6.5 -8.5 6.5 -27.5 q0 -14 -8.5 -24.5 q-8.5 -10.5 -28.5 -10.5 l-226 0 q-13 0 -19.5 9.5 q-6.5 9.5 -6.5 23.5 q0 12 6.5 21.5 q6.5 9.5 19.5 9.5 l172 0 q-28 16 -51.5 40 q-23.5 24 -40.5 57.5 q-17 33.5 -26.5 76.5 q-9.5 43 -9.5 98 l0 47 q0 166 73 252.5 q73 86.5 224 86.5 Z" /><glyph glyph-name="cid142" unicode="&#x212b;" d="M330 834 q44 0 69.5 -26.5 q25.5 -26.5 25.5 -64.5 q0 -25 -11 -44 q-11 -19 -31 -30 l240 -622 q6 -16 -0.5 -27.5 q-6.5 -11.5 -20.5 -16.5 q-15 -5 -28.5 -1.5 q-13.5 3.5 -19.5 20.5 l-75 199 l-300 0 l-76 -200 q-6 -16 -19 -19.5 q-13 -3.5 -28 1.5 q-14 5 -19.5 16 q-5.5 11 0.5 27 l242 621 q-21 11 -32.5 30.5 q-11.5 19.5 -11.5 45.5 q0 38 25.5 64.5 q25.5 26.5 69.5 26.5 ZM330 792 q-22 0 -35.5 -14.5 q-13.5 -14.5 -13.5 -34.5 q0 -20 13.5 -34.5 q13.5 -14.5 35.5 -14.5 q22 0 35.5 14.5 q13.5 14.5 13.5 34.5 q0 20 -13.5 34.5 q-13.5 14.5 -35.5 14.5 ZM330 632 q-11 -36 -23 -71.5 q-12 -35.5 -29 -77.5 l-76 -200 l255 0 l-74 200 q-16 41 -29 78 q-13 37 -24 71 Z" /><glyph glyph-name="cid749" unicode="&#x2153;" d="M611 722 q11 -5 15.5 -14.5 q4.5 -9.5 -1.5 -21.5 l-343 -677 q-6 -13 -17.5 -15.5 q-11.5 -2.5 -22.5 3.5 q-11 5 -15 14.5 q-4 9.5 2 21.5 l343 677 q6 13 17 15.5 q11 2.5 22 -3.5 ZM217 722 q13 0 21.5 -6 q8.5 -6 8.5 -20 l0 -386 q0 -14 -8.5 -19.5 q-8.5 -5.5 -19.5 -5.5 q-11 0 -20 5.5 q-9 5.5 -9 19.5 l0 341 l-89 -57 q-11 -7 -21 -3 q-10 4 -15 13 q-6 9 -4 20 q2 11 12 17 l111 70 q19 11 33 11 ZM702 436 q63 0 99.5 -30.5 q36.5 -30.5 36.5 -81.5 l0 -4 q0 -33 -20.5 -59.5 q-20.5 -26.5 -52.5 -35.5 q17 -3 33 -10.5 q16 -7.5 29 -19.5 q13 -12 20.5 -29.5 q7.5 -17.5 7.5 -39.5 l0 -5 q0 -57 -39.5 -92.5 q-39.5 -35.5 -110.5 -35.5 q-36 0 -69 10 q-33 10 -58 28 q-11 8 -12 17.5 q-1 9.5 6 19.5 q15 23 36 8 q20 -14 44 -23 q24 -9 53 -9 q43 0 68 21 q25 21 25 56 l0 5 q0 38 -26.5 54.5 q-26.5 16.5 -67.5 16.5 l-36 0 q-12 0 -17.5 7.5 q-5.5 7.5 -5.5 18.5 q0 10 5.5 17.5 q5.5 7.5 17.5 7.5 l33 0 q15 0 29.5 4 q14.5 4 26 12.5 q11.5 8.5 18.5 22.5 q7 14 7 34 l0 2 q-1 28 -21 45 q-20 17 -59 17 q-27 0 -46 -11 q-19 -11 -33 -27 q-8 -9 -18 -9 q-10 0 -18 8 q-8 7 -8.5 16.5 q-0.5 9.5 5.5 17.5 q17 25 47 40.5 q30 15.5 71 15.5 Z" /><glyph glyph-name="cid750" unicode="&#x2154;" d="M650 722 q11 -5 15.5 -14.5 q4.5 -9.5 -1.5 -21.5 l-343 -677 q-6 -13 -17.5 -15.5 q-11.5 -2.5 -22.5 3.5 q-11 5 -15 14.5 q-4 9.5 2 21.5 l343 677 q6 13 17 15.5 q11 2.5 22 -3.5 ZM200 726 q66 0 98.5 -32 q32.5 -32 32.5 -80 l0 -6 q0 -34 -14 -61.5 q-14 -27.5 -46 -62.5 l-133 -146 l179 0 q11 0 16.5 -7.5 q5.5 -7.5 5.5 -18.5 q0 -10 -5.5 -18 q-5.5 -8 -16.5 -8 l-219 0 q-21 0 -30 8 q-9 8 -9 23 q0 13 18 32 l150 166 q28 31 38 50.5 q10 19.5 10 43.5 l0 2 q-1 29 -19.5 45.5 q-18.5 16.5 -54.5 16.5 q-31 0 -51 -13.5 q-20 -13.5 -37 -37.5 q-7 -9 -17 -10.5 q-10 -1.5 -20 4.5 q-9 6 -11.5 15.5 q-2.5 9.5 4.5 20.5 q19 32 52.5 53 q33.5 21 78.5 21 ZM702 436 q63 0 99.5 -30.5 q36.5 -30.5 36.5 -81.5 l0 -4 q0 -33 -20.5 -59.5 q-20.5 -26.5 -52.5 -35.5 q17 -3 33 -10.5 q16 -7.5 29 -19.5 q13 -12 20.5 -29.5 q7.5 -17.5 7.5 -39.5 l0 -5 q0 -57 -39.5 -92.5 q-39.5 -35.5 -110.5 -35.5 q-36 0 -69 10 q-33 10 -58 28 q-11 8 -12 17.5 q-1 9.5 6 19.5 q15 23 36 8 q20 -14 44 -23 q24 -9 53 -9 q43 0 68 21 q25 21 25 56 l0 5 q0 38 -26.5 54.5 q-26.5 16.5 -67.5 16.5 l-36 0 q-12 0 -17.5 7.5 q-5.5 7.5 -5.5 18.5 q0 10 5.5 17.5 q5.5 7.5 17.5 7.5 l33 0 q15 0 29.5 4 q14.5 4 26 12.5 q11.5 8.5 18.5 22.5 q7 14 7 34 l0 2 q-1 28 -21 45 q-20 17 -59 17 q-27 0 -46 -11 q-19 -11 -33 -27 q-8 -9 -18 -9 q-10 0 -18 8 q-8 7 -8.5 16.5 q-0.5 9.5 5.5 17.5 q17 25 47 40.5 q30 15.5 71 15.5 Z" /><glyph glyph-name="cid753" unicode="&#x215b;" d="M610 722 q11 -5 15 -14.5 q4 -9.5 -2 -21.5 l-343 -677 q-6 -13 -17.5 -15.5 q-11.5 -2.5 -22.5 3.5 q-11 5 -14.5 14.5 q-3.5 9.5 2.5 21.5 l343 677 q6 13 17 15.5 q11 2.5 22 -3.5 ZM217 722 q13 0 21.5 -6 q8.5 -6 8.5 -20 l0 -386 q0 -14 -8.5 -19.5 q-8.5 -5.5 -19.5 -5.5 q-11 0 -20 5.5 q-9 5.5 -9 19.5 l0 341 l-89 -57 q-11 -7 -21 -3 q-10 4 -15 13 q-6 9 -4 20 q2 11 12 17 l111 70 q19 11 33 11 ZM708 436 q61 0 97.5 -32 q36.5 -32 36.5 -80 l0 -7 q0 -34 -19 -59 q-19 -25 -49 -37 q37 -11 58.5 -38 q21.5 -27 21.5 -64 l0 -6 q0 -54 -39.5 -87 q-39.5 -33 -105.5 -33 q-68 0 -107 33 q-39 33 -39 87 l0 6 q0 37 21.5 65 q21.5 28 57.5 38 q-29 12 -48.5 37 q-19.5 25 -19.5 58 l0 7 q0 48 36 80 q36 32 98 32 ZM708 386 q-37 0 -57 -18.5 q-20 -18.5 -20 -48.5 l0 -4 q0 -31 21.5 -50.5 q21.5 -19.5 56.5 -19.5 q34 0 55.5 19.5 q21.5 19.5 21.5 51.5 l0 4 q0 29 -21.5 47.5 q-21.5 18.5 -56.5 18.5 ZM708 194 q-38 0 -63.5 -20 q-25.5 -20 -25.5 -55 l0 -5 q0 -30 23.5 -50 q23.5 -20 65.5 -20 q43 0 66 20 q23 20 23 50 l0 5 q0 35 -25.5 55 q-25.5 20 -63.5 20 Z" /><glyph glyph-name="cid754" unicode="&#x215c;" d="M644 722 q11 -5 15.5 -14.5 q4.5 -9.5 -1.5 -21.5 l-343 -677 q-6 -13 -17.5 -15.5 q-11.5 -2.5 -22.5 3.5 q-11 5 -15 14.5 q-4 9.5 2 21.5 l343 677 q6 13 17 15.5 q11 2.5 22 -3.5 ZM191 726 q63 0 99 -30.5 q36 -30.5 36 -82.5 l0 -3 q0 -34 -20 -60 q-20 -26 -53 -36 q17 -2 33.5 -9.5 q16.5 -7.5 29 -19.5 q12.5 -12 20.5 -29.5 q8 -17.5 8 -39.5 l0 -6 q0 -57 -40 -92 q-40 -35 -110 -35 q-37 0 -69.5 10 q-32.5 10 -57.5 28 q-11 7 -12 17 q-1 10 5 20 q16 22 36 8 q20 -14 44 -23 q24 -9 53 -9 q44 0 68.5 21 q24.5 21 24.5 56 l0 4 q0 38 -26 55 q-26 17 -67 17 l-37 0 q-11 0 -16.5 7.5 q-5.5 7.5 -5.5 18.5 q0 10 5.5 17 q5.5 7 16.5 7 l33 0 q31 0 56.5 17 q25.5 17 25.5 56 l0 2 q-1 28 -21 45.5 q-20 17.5 -59 17.5 q-28 0 -46.5 -11 q-18.5 -11 -32.5 -28 q-8 -9 -18 -8.5 q-10 0.5 -18 7.5 q-8 8 -8.5 17.5 q-0.5 9.5 5.5 17.5 q17 25 47 40.5 q30 15.5 71 15.5 ZM708 436 q61 0 97.5 -32 q36.5 -32 36.5 -80 l0 -7 q0 -34 -19 -59 q-19 -25 -49 -37 q37 -11 58.5 -38 q21.5 -27 21.5 -64 l0 -6 q0 -54 -39.5 -87 q-39.5 -33 -105.5 -33 q-68 0 -107 33 q-39 33 -39 87 l0 6 q0 37 21.5 65 q21.5 28 57.5 38 q-29 12 -48.5 37 q-19.5 25 -19.5 58 l0 7 q0 48 36 80 q36 32 98 32 ZM708 386 q-37 0 -57 -18.5 q-20 -18.5 -20 -48.5 l0 -4 q0 -31 21.5 -50.5 q21.5 -19.5 56.5 -19.5 q34 0 55.5 19.5 q21.5 19.5 21.5 51.5 l0 4 q0 29 -21.5 47.5 q-21.5 18.5 -56.5 18.5 ZM708 194 q-38 0 -63.5 -20 q-25.5 -20 -25.5 -55 l0 -5 q0 -30 23.5 -50 q23.5 -20 65.5 -20 q43 0 66 20 q23 20 23 50 l0 5 q0 35 -25.5 55 q-25.5 20 -63.5 20 Z" /><glyph glyph-name="cid755" unicode="&#x215d;" d="M644 722 q11 -5 15.5 -14.5 q4.5 -9.5 -1.5 -21.5 l-343 -677 q-6 -13 -17.5 -15.5 q-11.5 -2.5 -22.5 3.5 q-11 5 -15 14.5 q-4 9.5 2 21.5 l343 677 q6 13 17 15.5 q11 2.5 22 -3.5 ZM299 721 q12 0 17.5 -7.5 q5.5 -7.5 5.5 -18.5 q0 -11 -5.5 -18.5 q-5.5 -7.5 -17.5 -7.5 l-162 0 l-9 -140 q15 14 37.5 23 q22.5 9 47.5 9 q63 0 98.5 -35.5 q35.5 -35.5 35.5 -98.5 l0 -6 q0 -61 -40 -99.5 q-40 -38.5 -111 -38.5 q-40 0 -73.5 11 q-33.5 11 -57.5 28 q-22 14 -7 37 q15 21 36 8 q22 -14 47.5 -23 q25.5 -9 54.5 -9 q45 0 70 23.5 q25 23.5 25 63.5 l0 3 q0 45 -23.5 66.5 q-23.5 21.5 -65.5 21.5 q-23 0 -41.5 -8 q-18.5 -8 -33.5 -22 q-7 -6 -13.5 -9 q-6.5 -3 -16.5 -3 q-11 0 -18.5 6.5 q-7.5 6.5 -6.5 17.5 l11 180 q2 26 11.5 36 q9.5 10 34.5 10 l170 0 ZM708 436 q61 0 97.5 -32 q36.5 -32 36.5 -80 l0 -7 q0 -34 -19 -59 q-19 -25 -49 -37 q37 -11 58.5 -38 q21.5 -27 21.5 -64 l0 -6 q0 -54 -39.5 -87 q-39.5 -33 -105.5 -33 q-68 0 -107 33 q-39 33 -39 87 l0 6 q0 37 21.5 65 q21.5 28 57.5 38 q-29 12 -48.5 37 q-19.5 25 -19.5 58 l0 7 q0 48 36 80 q36 32 98 32 ZM708 386 q-37 0 -57 -18.5 q-20 -18.5 -20 -48.5 l0 -4 q0 -31 21.5 -50.5 q21.5 -19.5 56.5 -19.5 q34 0 55.5 19.5 q21.5 19.5 21.5 51.5 l0 4 q0 29 -21.5 47.5 q-21.5 18.5 -56.5 18.5 ZM708 194 q-38 0 -63.5 -20 q-25.5 -20 -25.5 -55 l0 -5 q0 -30 23.5 -50 q23.5 -20 65.5 -20 q43 0 66 20 q23 20 23 50 l0 5 q0 35 -25.5 55 q-25.5 20 -63.5 20 Z" /><glyph glyph-name="cid756" unicode="&#x215e;" d="M610 722 q11 -5 15 -14.5 q4 -9.5 -2 -21.5 l-343 -677 q-6 -13 -17.5 -15.5 q-11.5 -2.5 -22.5 3.5 q-11 5 -14.5 14.5 q-3.5 9.5 2.5 21.5 l343 677 q6 13 17 15.5 q11 2.5 22 -3.5 ZM322 721 q21 0 29.5 -7.5 q8.5 -7.5 8.5 -23.5 q0 -8 -2.5 -15.5 q-2.5 -7.5 -10.5 -25.5 l-158 -348 q-6 -12 -16.5 -14.5 q-10.5 -2.5 -21.5 2.5 q-23 10 -13 35 l159 345 l-217 0 q-11 0 -16.5 7.5 q-5.5 7.5 -5.5 18.5 q0 10 5.5 18 q5.5 8 16.5 8 l242 0 ZM708 436 q61 0 97.5 -32 q36.5 -32 36.5 -80 l0 -7 q0 -34 -19 -59 q-19 -25 -49 -37 q37 -11 58.5 -38 q21.5 -27 21.5 -64 l0 -6 q0 -54 -39.5 -87 q-39.5 -33 -105.5 -33 q-68 0 -107 33 q-39 33 -39 87 l0 6 q0 37 21.5 65 q21.5 28 57.5 38 q-29 12 -48.5 37 q-19.5 25 -19.5 58 l0 7 q0 48 36 80 q36 32 98 32 ZM708 386 q-37 0 -57 -18.5 q-20 -18.5 -20 -48.5 l0 -4 q0 -31 21.5 -50.5 q21.5 -19.5 56.5 -19.5 q34 0 55.5 19.5 q21.5 19.5 21.5 51.5 l0 4 q0 29 -21.5 47.5 q-21.5 18.5 -56.5 18.5 ZM708 194 q-38 0 -63.5 -20 q-25.5 -20 -25.5 -55 l0 -5 q0 -30 23.5 -50 q23.5 -20 65.5 -20 q43 0 66 20 q23 20 23 50 l0 5 q0 35 -25.5 55 q-25.5 20 -63.5 20 Z" /><glyph glyph-name="cid461" unicode="&#x2160;" d="M454 719 q15 0 26.5 -7 q11.5 -7 11.5 -23 l0 -659 q0 -16 -11.5 -23 q-11.5 -7 -26.5 -7 q-14 0 -25 7 q-11 7 -11 23 l0 659 q0 16 11 23 q11 7 25 7 Z" /><glyph glyph-name="cid462" unicode="&#x2161;" d="M334 719 q15 0 26 -7 q11 -7 11 -23 l0 -659 q0 -16 -11 -23 q-11 -7 -26 -7 q-14 0 -25 7 q-11 7 -11 23 l0 659 q0 16 11 23 q11 7 25 7 ZM575 719 q15 0 26 -7 q11 -7 11 -23 l0 -659 q0 -16 -11 -23 q-11 -7 -26 -7 q-14 0 -25 7 q-11 7 -11 23 l0 659 q0 16 11 23 q11 7 25 7 Z" /><glyph glyph-name="cid463" unicode="&#x2162;" d="M220 719 q15 0 26 -7 q11 -7 11 -23 l0 -659 q0 -16 -11 -23 q-11 -7 -26 -7 q-14 0 -25 7 q-11 7 -11 23 l0 659 q0 16 11 23 q11 7 25 7 ZM455 719 q15 0 26 -7 q11 -7 11 -23 l0 -659 q0 -16 -11 -23 q-11 -7 -26 -7 q-14 0 -25 7 q-11 7 -11 23 l0 659 q0 16 11 23 q11 7 25 7 ZM688 719 q15 0 26.5 -7 q11.5 -7 11.5 -23 l0 -659 q0 -16 -11.5 -23 q-11.5 -7 -26.5 -7 q-14 0 -25 7 q-11 7 -11 23 l0 659 q0 16 11 23 q11 7 25 7 Z" /><glyph glyph-name="cid464" unicode="&#x2163;" d="M369 717 q17 4 28.5 -0.5 q11.5 -4.5 16.5 -21.5 l166 -594 l163 594 q5 17 15.5 21.5 q10.5 4.5 27.5 0.5 q14 -3 21.5 -13.5 q7.5 -10.5 2.5 -27.5 l-186 -644 q-5 -18 -17.5 -25 q-12.5 -7 -27.5 -7 q-15 0 -28 7 q-13 7 -18 25 l-189 643 q-5 17 3 28 q8 11 22 14 ZM222 719 q15 0 26.5 -7 q11.5 -7 11.5 -23 l0 -659 q0 -16 -11.5 -23 q-11.5 -7 -26.5 -7 q-14 0 -25 7 q-11 7 -11 23 l0 659 q0 16 11 23 q11 7 25 7 Z" /><glyph glyph-name="cid465" unicode="&#x2164;" d="M723 716 q14 -5 20.5 -15.5 q6.5 -10.5 -0.5 -27.5 l-243 -641 q-8 -18 -19.5 -25 q-11.5 -7 -25.5 -7 q-16 0 -27.5 7 q-11.5 7 -18.5 25 l-242 640 q-7 17 0 28 q7 11 21 16 q15 5 28.5 1.5 q13.5 -3.5 19.5 -19.5 l220 -604 l221 603 q12 30 46 19 Z" /><glyph glyph-name="cid466" unicode="&#x2165;" d="M126 717 q16 4 27.5 -0.5 q11.5 -4.5 16.5 -21.5 l167 -594 l163 594 q5 17 15.5 21.5 q10.5 4.5 26.5 0.5 q15 -3 22 -13.5 q7 -10.5 2 -27.5 l-185 -644 q-6 -18 -18.5 -25 q-12.5 -7 -26.5 -7 q-16 0 -28.5 7 q-12.5 7 -17.5 25 l-190 643 q-5 17 3 28 q8 11 23 14 ZM686 719 q15 0 26 -7 q11 -7 11 -23 l0 -659 q0 -16 -11 -23 q-11 -7 -26 -7 q-14 0 -25 7 q-11 7 -11 23 l0 659 q0 16 11 23 q11 7 25 7 Z" /><glyph glyph-name="cid467" unicode="&#x2166;" d="M75 717 q17 4 28.5 -0.5 q11.5 -4.5 15.5 -21.5 l151 -591 l147 591 q7 30 41 22 q15 -3 22 -13.5 q7 -10.5 2 -27.5 l-168 -644 q-6 -18 -18.5 -25 q-12.5 -7 -26.5 -7 q-16 0 -28.5 7 q-12.5 7 -17.5 25 l-172 644 q-5 17 2.5 27.5 q7.5 10.5 21.5 13.5 ZM588 719 q16 0 25.5 -7 q9.5 -7 9.5 -23 l0 -659 q0 -16 -9.5 -23 q-9.5 -7 -25.5 -7 q-15 0 -24.5 7 q-9.5 7 -9.5 23 l0 659 q0 16 9.5 23 q9.5 7 24.5 7 ZM765 719 q16 0 25.5 -7 q9.5 -7 9.5 -23 l0 -659 q0 -16 -9.5 -23 q-9.5 -7 -25.5 -7 q-15 0 -24.5 7 q-9.5 7 -9.5 23 l0 659 q0 16 9.5 23 q9.5 7 24.5 7 Z" /><glyph glyph-name="cid468" unicode="&#x2167;" d="M82 718 q15 2 25.5 -3 q10.5 -5 13.5 -22 l108 -589 l104 589 q3 17 13 22 q10 5 25 3 q14 -2 22 -10.5 q8 -8.5 4 -25.5 l-124 -650 q-4 -18 -17.5 -25 q-13.5 -7 -27.5 -7 q-16 0 -29.5 6.5 q-13.5 6.5 -16.5 25.5 l-128 650 q-3 17 5.5 25.5 q8.5 8.5 22.5 10.5 ZM484 719 q15 0 24 -7 q9 -7 9 -23 l0 -659 q0 -16 -9 -23 q-9 -7 -24 -7 q-14 0 -23.5 7 q-9.5 7 -9.5 23 l0 659 q0 16 9.5 23 q9.5 7 23.5 7 ZM639 719 q34 0 34 -30 l0 -659 q0 -30 -34 -30 q-14 0 -23 7 q-9 7 -9 23 l0 659 q0 16 9 23 q9 7 23 7 ZM797 719 q15 0 24 -7 q9 -7 9 -23 l0 -659 q0 -16 -9 -23 q-9 -7 -24 -7 q-14 0 -23.5 7 q-9.5 7 -9.5 23 l0 659 q0 16 9.5 23 q9.5 7 23.5 7 Z" /><glyph glyph-name="cid469" unicode="&#x2168;" d="M785 714 q28 -16 11 -46 l-165 -297 l179 -322 q8 -13 4.5 -24.5 q-3.5 -11.5 -16.5 -19.5 q-14 -8 -27 -4.5 q-13 3.5 -21 16.5 l-166 304 l-169 -304 q-8 -13 -20.5 -16.5 q-12.5 -3.5 -26.5 4.5 q-27 16 -11 44 l183 322 l-169 297 q-15 29 14 46 q14 8 27.5 4.5 q13.5 -3.5 21.5 -17.5 l155 -282 l148 282 q8 14 21 17.5 q13 3.5 27 -4.5 ZM236 719 q15 0 26 -7 q11 -7 11 -23 l0 -659 q0 -16 -11 -23 q-11 -7 -26 -7 q-14 0 -24.5 7 q-10.5 7 -10.5 23 l0 659 q0 16 10.5 23 q10.5 7 24.5 7 Z" /><glyph glyph-name="cid470" unicode="&#x2169;" d="M694 713 q13 -8 17 -20.5 q4 -12.5 -6 -26.5 l-201 -296 l212 -315 q10 -15 7 -28 q-3 -13 -16 -21 q-14 -8 -28 -5.5 q-14 2.5 -24 16.5 l-199 304 l-205 -303 q-9 -14 -22.5 -17 q-13.5 -3 -26.5 5 q-12 8 -16 20.5 q-4 12.5 6 26.5 l220 318 l-206 293 q-10 15 -6 28 q4 13 18 21 q14 8 28.5 5 q14.5 -3 24.5 -17 l190 -282 l185 282 q9 14 22 17 q13 3 26 -5 Z" /><glyph glyph-name="cid451" unicode="&#x2170;" d="M455 717 q23 0 38 -15 q15 -15 15 -37 q0 -21 -15 -36 q-15 -15 -38 -15 q-23 0 -38 15 q-15 15 -15 36 q0 22 15 37 q15 15 38 15 ZM455 527 q14 0 25 -7 q11 -7 11 -23 l0 -467 q0 -16 -11 -23 q-11 -7 -25 -7 q-14 0 -25 7 q-11 7 -11 23 l0 467 q0 16 11 23 q11 7 25 7 Z" /><glyph glyph-name="cid452" unicode="&#x2171;" d="M328 717 q23 0 38 -15 q15 -15 15 -37 q0 -21 -15 -36 q-15 -15 -38 -15 q-23 0 -38 15 q-15 15 -15 36 q0 22 15 37 q15 15 38 15 ZM582 717 q23 0 38 -15 q15 -15 15 -37 q0 -21 -15 -36 q-15 -15 -38 -15 q-23 0 -38 15 q-15 15 -15 36 q0 22 15 37 q15 15 38 15 ZM328 527 q14 0 25 -7 q11 -7 11 -23 l0 -467 q0 -16 -11 -23 q-11 -7 -25 -7 q-14 0 -25 7 q-11 7 -11 23 l0 467 q0 16 11 23 q11 7 25 7 ZM582 527 q14 0 25 -7 q11 -7 11 -23 l0 -467 q0 -16 -11 -23 q-11 -7 -25 -7 q-14 0 -25 7 q-11 7 -11 23 l0 467 q0 16 11 23 q11 7 25 7 Z" /><glyph glyph-name="cid453" unicode="&#x2172;" d="M227 717 q23 0 38 -15 q15 -15 15 -37 q0 -21 -15 -36 q-15 -15 -38 -15 q-23 0 -38 15 q-15 15 -15 36 q0 22 15 37 q15 15 38 15 ZM455 717 q23 0 38 -15 q15 -15 15 -37 q0 -21 -15 -36 q-15 -15 -38 -15 q-23 0 -38 15 q-15 15 -15 36 q0 22 15 37 q15 15 38 15 ZM683 717 q23 0 38 -15 q15 -15 15 -37 q0 -21 -15 -36 q-15 -15 -38 -15 q-23 0 -38 15 q-15 15 -15 36 q0 22 15 37 q15 15 38 15 ZM227 527 q14 0 25 -7 q11 -7 11 -23 l0 -467 q0 -16 -11 -23 q-11 -7 -25 -7 q-14 0 -25 7 q-11 7 -11 23 l0 467 q0 16 11 23 q11 7 25 7 ZM455 527 q14 0 25.5 -7 q11.5 -7 11.5 -23 l0 -467 q0 -16 -11.5 -23 q-11.5 -7 -25.5 -7 q-14 0 -24.5 7 q-10.5 7 -10.5 23 l0 467 q0 16 10.5 23 q10.5 7 24.5 7 ZM683 527 q14 0 25 -7 q11 -7 11 -23 l0 -467 q0 -16 -11 -23 q-11 -7 -25 -7 q-14 0 -25 7 q-11 7 -11 23 l0 467 q0 16 11 23 q11 7 25 7 Z" /><glyph glyph-name="cid454" unicode="&#x2173;" d="M260 717 q23 0 38 -15 q15 -15 15 -37 q0 -21 -15 -36 q-15 -15 -38 -15 q-23 0 -38 15 q-15 15 -15 36 q0 22 15 37 q15 15 38 15 ZM391 525 q14 5 26.5 0.5 q12.5 -4.5 17.5 -21.5 l125 -418 l121 418 q5 17 17.5 21.5 q12.5 4.5 26.5 -0.5 q14 -4 20.5 -14.5 q6.5 -10.5 1.5 -26.5 l-140 -449 q-6 -20 -19 -27.5 q-13 -7.5 -29 -7.5 q-16 0 -29 7.5 q-13 7.5 -19 26.5 l-142 450 q-5 16 1.5 26.5 q6.5 10.5 20.5 14.5 ZM260 527 q14 0 25 -7 q11 -7 11 -23 l0 -467 q0 -16 -11 -23 q-11 -7 -25 -7 q-14 0 -25 7 q-11 7 -11 23 l0 467 q0 16 11 23 q11 7 25 7 Z" /><glyph glyph-name="cid455" unicode="&#x2174;" d="M250 524 q14 5 27.5 2 q13.5 -3 18.5 -19 l161 -424 l158 424 q6 16 19 19 q13 3 26 -2 q13 -5 20 -15.5 q7 -10.5 0 -27.5 l-175 -446 q-8 -19 -20.5 -27 q-12.5 -8 -28.5 -8 q-16 0 -28.5 7.5 q-12.5 7.5 -20.5 26.5 l-178 447 q-7 17 1 27.5 q8 10.5 20 15.5 Z" /><glyph glyph-name="cid456" unicode="&#x2175;" d="M651 717 q23 0 38 -15 q15 -15 15 -37 q0 -21 -15 -36 q-15 -15 -38 -15 q-23 0 -38 15 q-15 15 -15 36 q0 22 15 37 q15 15 38 15 ZM186 525 q14 5 26.5 0.5 q12.5 -4.5 17.5 -21.5 l125 -418 l121 418 q5 17 17.5 21.5 q12.5 4.5 26.5 -0.5 q14 -4 20.5 -14.5 q6.5 -10.5 1.5 -26.5 l-140 -449 q-6 -20 -19 -27.5 q-13 -7.5 -29 -7.5 q-16 0 -29 7.5 q-13 7.5 -19 26.5 l-142 450 q-5 16 1.5 26.5 q6.5 10.5 20.5 14.5 ZM651 527 q14 0 25.5 -7 q11.5 -7 11.5 -23 l0 -467 q0 -16 -11.5 -23 q-11.5 -7 -25.5 -7 q-14 0 -24.5 7 q-10.5 7 -10.5 23 l0 467 q0 16 10.5 23 q10.5 7 24.5 7 Z" /><glyph glyph-name="cid457" unicode="&#x2176;" d="M574 717 q23 0 37.5 -15 q14.5 -15 14.5 -37 q0 -21 -14.5 -36 q-14.5 -15 -37.5 -15 q-23 0 -38 15 q-15 15 -15 36 q0 22 15 37 q15 15 38 15 ZM756 717 q23 0 38 -15 q15 -15 15 -37 q0 -21 -15 -36 q-15 -15 -38 -15 q-23 0 -37.5 15 q-14.5 15 -14.5 36 q0 22 14.5 37 q14.5 15 37.5 15 ZM116 525 q14 4 25.5 0 q11.5 -4 16.5 -21 l123 -418 l119 418 q5 17 16.5 21 q11.5 4 25.5 0 q14 -3 20.5 -13.5 q6.5 -10.5 1.5 -26.5 l-135 -450 q-6 -20 -19.5 -27.5 q-13.5 -7.5 -29.5 -7.5 q-16 0 -29 7.5 q-13 7.5 -19 26.5 l-139 451 q-5 16 2 26.5 q7 10.5 21 13.5 ZM574 527 q14 0 24.5 -7 q10.5 -7 10.5 -23 l0 -467 q0 -16 -10.5 -23 q-10.5 -7 -24.5 -7 q-14 0 -24.5 7 q-10.5 7 -10.5 23 l0 467 q0 16 10.5 23 q10.5 7 24.5 7 ZM756 527 q15 0 25.5 -7 q10.5 -7 10.5 -23 l0 -467 q0 -16 -10.5 -23 q-10.5 -7 -25.5 -7 q-14 0 -24.5 7 q-10.5 7 -10.5 23 l0 467 q0 16 10.5 23 q10.5 7 24.5 7 Z" /><glyph glyph-name="cid458" unicode="&#x2177;" d="M503 717 q23 0 36.5 -15 q13.5 -15 13.5 -37 q0 -21 -13.5 -36 q-13.5 -15 -36.5 -15 q-23 0 -36.5 15 q-13.5 15 -13.5 36 q0 22 13.5 37 q13.5 15 36.5 15 ZM653 717 q23 0 36.5 -15 q13.5 -15 13.5 -37 q0 -21 -13.5 -36 q-13.5 -15 -36.5 -15 q-23 0 -36.5 15 q-13.5 15 -13.5 36 q0 22 13.5 37 q13.5 15 36.5 15 ZM803 717 q23 0 36.5 -15 q13.5 -15 13.5 -37 q0 -21 -13.5 -36 q-13.5 -15 -36.5 -15 q-23 0 -36.5 15 q-13.5 15 -13.5 36 q0 22 13.5 37 q13.5 15 36.5 15 ZM89 526 q14 3 25.5 -1.5 q11.5 -4.5 16.5 -20.5 l108 -411 l103 411 q4 16 16 20.5 q12 4.5 26 1.5 q14 -4 21 -14.5 q7 -10.5 2 -26.5 l-122 -450 q-5 -20 -18.5 -27.5 q-13.5 -7.5 -29.5 -7.5 q-16 0 -28.5 7.5 q-12.5 7.5 -17.5 26.5 l-126 451 q-5 16 2.5 26.5 q7.5 10.5 21.5 14.5 ZM503 527 q15 0 24.5 -7 q9.5 -7 9.5 -23 l0 -467 q0 -16 -9.5 -23 q-9.5 -7 -24.5 -7 q-14 0 -23.5 7 q-9.5 7 -9.5 23 l0 467 q0 16 9.5 23 q9.5 7 23.5 7 ZM653 527 q15 0 24.5 -7 q9.5 -7 9.5 -23 l0 -467 q0 -16 -9.5 -23 q-9.5 -7 -24.5 -7 q-14 0 -23.5 7 q-9.5 7 -9.5 23 l0 467 q0 16 9.5 23 q9.5 7 23.5 7 ZM803 527 q15 0 24.5 -7 q9.5 -7 9.5 -23 l0 -467 q0 -16 -9.5 -23 q-9.5 -7 -24.5 -7 q-14 0 -23.5 7 q-9.5 7 -9.5 23 l0 467 q0 16 9.5 23 q9.5 7 23.5 7 Z" /><glyph glyph-name="cid459" unicode="&#x2178;" d="M263 717 q23 0 38 -15 q15 -15 15 -37 q0 -21 -15 -36 q-15 -15 -38 -15 q-23 0 -38 15 q-15 15 -15 36 q0 22 15 37 q15 15 38 15 ZM736 521 q12 -8 15 -20 q3 -12 -5 -25 l-127 -206 l137 -219 q8 -13 4.5 -25 q-3.5 -12 -14.5 -20 q-11 -7 -24.5 -5.5 q-13.5 1.5 -22.5 15.5 l-127 207 l-127 -207 q-9 -14 -22 -15.5 q-13 -1.5 -24 5.5 q-12 8 -15 20 q-3 12 6 25 l138 217 l-126 208 q-8 13 -4.5 25 q3.5 12 15.5 20 q12 8 26 6 q14 -2 22 -16 l114 -194 l113 194 q8 14 21.5 16 q13.5 2 26.5 -6 ZM263 527 q14 0 25 -7 q11 -7 11 -23 l0 -467 q0 -16 -11 -23 q-11 -7 -25 -7 q-14 0 -25 7 q-11 7 -11 23 l0 467 q0 16 11 23 q11 7 25 7 Z" /><glyph glyph-name="cid460" unicode="&#x2179;" d="M267 520 q11 8 25.5 6.5 q14.5 -1.5 24.5 -15.5 l140 -194 l139 194 q11 14 24.5 15.5 q13.5 1.5 24.5 -7.5 q11 -8 14.5 -20 q3.5 -12 -7.5 -26 l-151 -203 l163 -214 q20 -28 -7 -49 q-11 -8 -26 -6.5 q-15 1.5 -25 15.5 l-151 206 l-153 -206 q-11 -14 -24.5 -15.5 q-13.5 -1.5 -24.5 7.5 q-11 8 -14.5 20 q-3.5 12 7.5 26 l165 214 l-152 203 q-10 14 -7.5 26.5 q2.5 12.5 15.5 22.5 Z" /><glyph glyph-name="cid171" unicode="&#x2190;" d="M765 357 q0 -16 -8 -27.5 q-8 -11.5 -25 -11.5 l-530 0 q19 -13 36 -28 l106 -102 q11 -11 9 -24 q-2 -13 -13 -24 q-10 -11 -24 -13.5 q-14 -2.5 -25 8.5 l-188 188 q-13 13 -17 20 q-4 7 -4 14 q0 7 4 14 q4 7 17 20 l188 188 q11 11 25 8.5 q14 -2.5 24 -13.5 q11 -11 13 -24 q2 -13 -9 -24 l-106 -102 q-17 -15 -36 -28 l530 0 q17 0 25 -11.5 q8 -11.5 8 -27.5 Z" /><glyph glyph-name="cid172" unicode="&#x2191;" d="M335 11 q-16 0 -27.5 8 q-11.5 8 -11.5 25 l0 530 q-13 -20 -28 -36 l-102 -106 q-11 -11 -24 -9 q-13 2 -24 13 q-11 10 -13.5 24 q-2.5 14 8.5 25 l188 188 q13 13 20 17 q7 4 14 4 q7 0 14 -4 q7 -4 20 -17 l188 -188 q11 -11 8.5 -25 q-2.5 -14 -13.5 -24 q-11 -11 -24 -13 q-13 -2 -24 9 l-102 106 q-15 16 -28 36 l0 -530 q0 -17 -11.5 -25 q-11.5 -8 -27.5 -8 Z" /><glyph glyph-name="cid170" unicode="&#x2192;" d="M85 357 q0 16 8 27.5 q8 11.5 25 11.5 l530 0 q-20 13 -36 28 l-106 102 q-11 11 -9 24 q2 13 13 24 q10 11 24 13.5 q14 2.5 25 -8.5 l188 -188 q13 -13 17 -20 q4 -7 4 -14 q0 -7 -4 -14 q-4 -7 -17 -20 l-188 -188 q-11 -11 -25 -8.5 q-14 2.5 -24 13.5 q-11 11 -13 24 q-2 13 9 24 l106 102 q16 15 36 28 l-530 0 q-17 0 -25 11.5 q-8 11.5 -8 27.5 Z" /><glyph glyph-name="cid173" unicode="&#x2193;" d="M335 713 q16 0 27.5 -8 q11.5 -8 11.5 -25 l0 -530 q13 19 28 36 l102 106 q11 11 24 9 q13 -2 24 -13 q11 -10 13.5 -24 q2.5 -14 -8.5 -25 l-188 -188 q-13 -13 -20 -17 q-7 -4 -14 -4 q-7 0 -14 4 q-7 4 -20 17 l-188 188 q-11 11 -8.5 25 q2.5 14 13.5 24 q11 11 24 13 q13 2 24 -9 l102 -106 q15 -17 28 -36 l0 530 q0 17 11.5 25 q11.5 8 27.5 8 Z" /><glyph glyph-name="cid174" unicode="&#x2194;" d="M702 396 q-20 13 -36 28 l-106 102 q-11 11 -9 24 q2 13 13 24 q10 11 24 13.5 q14 2.5 25 -8.5 l188 -188 q13 -13 17 -20 q4 -7 4 -14 q0 -7 -4 -14 q-4 -7 -17 -20 l-188 -188 q-11 -11 -25 -8.5 q-14 2.5 -24 13.5 q-11 11 -13 24 q-2 13 9 24 l106 102 q16 15 36 28 l-494 0 q19 -13 36 -28 l106 -102 q11 -11 9 -24 q-2 -13 -13 -24 q-10 -11 -24 -13.5 q-14 -2.5 -25 8.5 l-188 188 q-13 13 -17 20 q-4 7 -4 14 q0 7 4 14 q4 7 17 20 l188 188 q11 11 25 8.5 q14 -2.5 24 -13.5 q11 -11 13 -24 q2 -13 -9 -24 l-106 -102 q-17 -15 -36 -28 l494 0 l0 0 Z" /><glyph glyph-name="cid247" unicode="&#x2195;" d="M296 574 q-13 -20 -28 -36 l-102 -106 q-11 -11 -24 -9 q-13 2 -24 13 q-11 10 -13.5 24 q-2.5 14 8.5 25 l188 188 q13 13 20 17 q7 4 14 4 q7 0 14 -4 q7 -4 20 -17 l188 -188 q11 -11 8.5 -25 q-2.5 -14 -13.5 -24 q-11 -11 -24 -13 q-13 -2 -24 9 l-102 106 q-15 16 -28 36 l0 -424 q13 19 28 36 l102 106 q11 11 24 9 q13 -2 24 -13 q11 -10 13.5 -24 q2.5 -14 -8.5 -25 l-188 -188 q-13 -13 -20 -17 q-7 -4 -14 -4 q-7 0 -14 4 q-7 4 -20 17 l-188 188 q-11 11 -8.5 25 q2.5 14 13.5 24 q11 11 24 13 q13 2 24 -9 l102 -106 q15 -17 28 -36 l0 424 l0 0 Z" /><glyph glyph-name="cid250" unicode="&#x2196;" d="M174 287 q0 -16 -11 -23.5 q-11 -7.5 -26 -7.5 q-15 0 -26 7.5 q-11 7.5 -11 23.5 l0 266 q0 18 2 26 q2 8 7 13 q5 5 13 7 q8 2 26 2 l266 0 q16 0 23.5 -11 q7.5 -11 7.5 -26 q0 -15 -7.5 -26 q-7.5 -11 -23.5 -11 l-117 0 q-20 0 -40.5 1.5 q-20.5 1.5 -34.5 5.5 l374 -374 q12 -12 9.5 -26 q-2.5 -14 -13.5 -25 q-11 -11 -25 -13.5 q-14 -2.5 -26 9.5 l-374 374 q4 -14 5.5 -34.5 q1.5 -20.5 1.5 -40.5 l0 -117 Z" /><glyph glyph-name="cid248" unicode="&#x2197;" d="M517 404 q0 20 1.5 40.5 q1.5 20.5 5.5 34.5 l-374 -374 q-12 -12 -26 -9.5 q-14 2.5 -25 13.5 q-11 11 -13.5 25 q-2.5 14 9.5 26 l374 374 q-14 -4 -34.5 -5.5 q-20.5 -1.5 -40.5 -1.5 l-117 0 q-16 0 -23.5 11 q-7.5 11 -7.5 26 q0 15 7.5 26 q7.5 11 23.5 11 l266 0 q18 0 26 -2 q8 -2 13 -7 q5 -5 7 -13 q2 -8 2 -26 l0 -266 q0 -16 -11 -23.5 q-11 -7.5 -26 -7.5 q-15 0 -26 7.5 q-11 7.5 -11 23.5 l0 117 Z" /><glyph glyph-name="cid251" unicode="&#x2198;" d="M517 427 q0 16 11 23.5 q11 7.5 26 7.5 q15 0 26 -7.5 q11 -7.5 11 -23.5 l0 -266 q0 -18 -2 -26 q-2 -8 -7 -13 q-5 -5 -13 -7 q-8 -2 -26 -2 l-266 0 q-16 0 -23.5 11 q-7.5 11 -7.5 26 q0 15 7.5 26 q7.5 11 23.5 11 l117 0 q20 0 40.5 -1.5 q20.5 -1.5 34.5 -5.5 l-374 374 q-12 12 -9.5 26 q2.5 14 13.5 25 q11 11 25 13.5 q14 2.5 26 -9.5 l374 -374 q-4 14 -5.5 34.5 q-1.5 20.5 -1.5 40.5 l0 117 Z" /><glyph glyph-name="cid249" unicode="&#x2199;" d="M174 310 q0 -20 -1.5 -40.5 q-1.5 -20.5 -5.5 -34.5 l374 374 q12 12 26 9.5 q14 -2.5 25 -13.5 q11 -11 13.5 -25 q2.5 -14 -9.5 -26 l-374 -374 q14 4 34.5 5.5 q20.5 1.5 40.5 1.5 l117 0 q16 0 23.5 -11 q7.5 -11 7.5 -26 q0 -15 -7.5 -26 q-7.5 -11 -23.5 -11 l-266 0 q-18 0 -26 2 q-8 2 -13 7 q-5 5 -7 13 q-2 8 -2 26 l0 266 q0 16 11 23.5 q11 7.5 26 7.5 q15 0 26 -7.5 q11 -7.5 11 -23.5 l0 -117 Z" /><glyph glyph-name="cid195" unicode="&#x21d2;" d="M628 101 l-32 32 l115 114 l-643 0 l0 44 l686 0 l69 68 l-69 69 l-686 0 l0 44 l642 0 l-114 112 l32 32 l257 -257 l-257 -258 Z" /><glyph glyph-name="cid196" unicode="&#x21d4;" d="M200 472 l510 0 l-114 112 l33 32 l256 -257 l-256 -258 l-33 32 l115 114 l-512 0 l115 -114 l-33 -32 l-256 258 l256 257 l33 -32 l-114 -112 ZM156 291 l598 0 l69 68 l-69 69 l-598 0 l-69 -69 l69 -68 Z" /><glyph glyph-name="cid197" unicode="&#x2200;" d="M57 716 q15 5 28.5 1.5 q13.5 -3.5 19.5 -20.5 l75 -199 l301 0 l75 200 q6 16 19 19.5 q13 3.5 28 -1.5 q14 -5 20 -16 q6 -11 0 -27 l-247 -641 q-7 -18 -18.5 -25 q-11.5 -7 -26.5 -7 q-15 0 -26 7 q-11 7 -18 25 l-250 640 q-6 16 0 27.5 q6 11.5 20 16.5 ZM280 236 q17 -43 29 -78.5 q12 -35.5 23 -70.5 q11 35 24 71.5 q13 36.5 28 77.5 l74 200 l-254 0 l76 -200 Z" /><glyph glyph-name="cid151" unicode="&#x2202;" d="M227 726 q51 0 97.5 -21 q46.5 -21 82 -64 q35.5 -43 56 -109 q20.5 -66 20.5 -156 q0 -96 -21.5 -168 q-21.5 -72 -58 -120 q-36.5 -48 -84.5 -72 q-48 -24 -101 -24 q-49 0 -85 17 q-36 17 -59.5 46 q-23.5 29 -35 66 q-11.5 37 -11.5 78 q0 53 17 98 q17 45 46.5 77.5 q29.5 32.5 69 50.5 q39.5 18 84.5 18 q32 0 59 -8.5 q27 -8.5 48.5 -22 q21.5 -13.5 37.5 -30 q16 -16.5 25 -32.5 l1 0 q1 10 1 21 q0 11 0 21 q0 67 -15 118.5 q-15 51.5 -41 86.5 q-26 35 -61.5 52.5 q-35.5 17.5 -75.5 17.5 q-45 0 -79.5 -12.5 q-34.5 -12.5 -60.5 -28.5 l-23 48 q29 19 71 35.5 q42 16.5 96 16.5 ZM252 385 q-32 0 -60 -13 q-28 -13 -49 -37 q-21 -24 -33.5 -58 q-12.5 -34 -12.5 -76 q0 -72 35 -111 q35 -39 93 -39 q36 0 67 18.5 q31 18.5 54.5 50.5 q23.5 32 38.5 73.5 q15 41.5 21 88.5 q-8 21 -22.5 39.5 q-14.5 18.5 -34.5 32.5 q-20 14 -44.5 22.5 q-24.5 8.5 -52.5 8.5 Z" /><glyph glyph-name="cid198" unicode="&#x2203;" d="M446 715 q38 0 53 -14 q15 -14 15 -52 l0 -579 q0 -38 -15 -52 q-15 -14 -53 -14 l-349 0 q-14 0 -20 9 q-6 9 -6 23 q0 13 6 22 q6 9 20 9 l344 0 l0 258 l-321 0 q-13 0 -19 9 q-6 9 -6 21 q0 14 6 23 q6 9 19 9 l321 0 l0 265 l-346 0 q-14 0 -20 9 q-6 9 -6 22 q0 14 6 23 q6 9 20 9 l351 0 l0 0 Z" /><glyph glyph-name="cid152" unicode="&#x2207;" d="M455 -2 l-390 618 l780 0 l-390 -618 ZM746 565 l-582 0 l291 -467 l291 467 Z" /><glyph glyph-name="cid184" unicode="&#x2208;" d="M797 539 l-404 0 q-53 0 -91.5 -11.5 q-38.5 -11.5 -64 -31 q-25.5 -19.5 -39.5 -45.5 q-14 -26 -18 -56 l615 0 l0 -60 l-616 0 q4 -34 18 -62.5 q14 -28.5 40 -49.5 q26 -21 64.5 -32.5 q38.5 -11.5 91.5 -11.5 l404 0 l0 -60 l-399 0 q-74 0 -128 19.5 q-54 19.5 -89 53 q-35 33.5 -52 78.5 q-17 45 -17 96 q0 48 16 90.5 q16 42.5 50 74 q34 31.5 87.5 50 q53.5 18.5 127.5 18.5 l404 0 l0 -60 Z" /><glyph glyph-name="cid185" unicode="&#x220b;" d="M515 599 q74 0 127.5 -18.5 q53.5 -18.5 88 -50 q34.5 -31.5 50.5 -74 q16 -42.5 16 -90.5 q0 -51 -17 -96 q-17 -45 -52 -78.5 q-35 -33.5 -89 -53 q-54 -19.5 -128 -19.5 l-399 0 l0 60 l403 0 q54 0 92.5 11.5 q38.5 11.5 64.5 32.5 q26 21 39.5 49.5 q13.5 28.5 17.5 62.5 l-615 0 l0 60 l614 0 q-4 30 -17.5 56 q-13.5 26 -39 46 q-25.5 20 -64 31.5 q-38.5 11.5 -92.5 11.5 l-403 0 l0 59 l403 0 l0 0 Z" /><glyph glyph-name="cid213" unicode="&#x220f;" d="M585 715 q14 0 20 -9 q6 -9 6 -23 q0 -14 -6 -23 q-6 -9 -20 -9 l-93 0 l0 -655 q0 -16 -11.5 -23 q-11.5 -7 -25.5 -7 q-14 0 -25 7 q-11 7 -11 23 l0 655 l-201 0 l0 -655 q0 -16 -11 -23 q-11 -7 -26 -7 q-14 0 -25 7 q-11 7 -11 23 l0 655 l-93 0 q-14 0 -20 9 q-6 9 -6 23 q0 14 6 23 q6 9 20 9 l533 0 l0 0 Z" /><glyph glyph-name="cid212" unicode="&#x2211;" d="M477 715 q14 0 20.5 -9 q6.5 -9 6.5 -23 q0 -14 -6.5 -23 q-6.5 -9 -20.5 -9 l-346 0 l183 -221 q25 -30 34.5 -44.5 q9.5 -14.5 9.5 -25.5 q0 -12 -9.5 -26.5 q-9.5 -14.5 -34.5 -44.5 l-183 -221 l349 0 q14 0 20 -9.5 q6 -9.5 6 -22.5 q0 -14 -6 -23 q-6 -9 -20 -9 l-386 0 q-30 0 -42 9.5 q-12 9.5 -12 29.5 q0 11 5 21.5 q5 10.5 23 32.5 l215 263 l-215 262 q-18 22 -23 32.5 q-5 10.5 -5 21.5 q0 20 12 29.5 q12 9.5 42 9.5 l383 0 l0 0 Z" /><glyph glyph-name="cid178" unicode="&#x221a;" d="M337 -101 l-51 0 l-161 433 l-72 -32 l-18 41 l126 52 l147 -409 l1 0 l204 836 l55 0 l-231 -921 Z" /><glyph glyph-name="cid180" unicode="&#x221d;" d="M300 547 q38 0 67.5 -11.5 q29.5 -11.5 52 -30.5 q22.5 -19 39.5 -42 q17 -23 31 -46 q15 27 34 50.5 q19 23.5 42.5 41 q23.5 17.5 52 28 q28.5 10.5 62.5 10.5 q29 0 57.5 -11.5 q28.5 -11.5 56.5 -31.5 l-34 -50 q-20 14 -40 23 q-20 9 -40 9 q-28 0 -50 -8.5 q-22 -8.5 -41 -24.5 q-19 -16 -35.5 -39.5 q-16.5 -23.5 -32.5 -54.5 q16 -31 32.5 -55 q16.5 -24 35.5 -40 q19 -16 41 -24 q22 -8 50 -8 q17 0 40 6 q23 6 41 16 l17 -56 q-26 -14 -50.5 -20 q-24.5 -6 -47.5 -6 q-32 0 -60.5 11 q-28.5 11 -52.5 29 q-24 18 -43.5 41 q-19.5 23 -34.5 47 q-13 -23 -29 -45.5 q-16 -22.5 -38.5 -40.5 q-22.5 -18 -52 -29.5 q-29.5 -11.5 -69.5 -11.5 q-34 0 -67.5 12 q-33.5 12 -60 35 q-26.5 23 -43 58 q-16.5 35 -16.5 82 q0 45 16 80 q16 35 42.5 58.5 q26.5 23.5 59.5 36 q33 12.5 68 12.5 ZM301 484 q-56 0 -88.5 -35 q-32.5 -35 -32.5 -89 q0 -57 31 -91 q31 -34 90 -34 q31 0 56 11 q25 11 44.5 29 q19.5 18 33.5 40 q14 22 25 44 q-11 21 -26 43 q-15 22 -34.5 40.5 q-19.5 18.5 -44 30 q-24.5 11.5 -54.5 11.5 Z" /><glyph glyph-name="cid136" unicode="&#x221e;" d="M143 500 q28 0 51.5 -11 q23.5 -11 42.5 -27 q19 -16 34.5 -35 q15.5 -19 27.5 -34 q18 22 35 41.5 q17 19.5 35.5 34 q18.5 14.5 41 23 q22.5 8.5 52.5 8.5 q60 0 95 -37.5 q35 -37.5 35 -103.5 q0 -32 -10 -58 q-10 -26 -28.5 -44.5 q-18.5 -18.5 -44 -29 q-25.5 -10.5 -55.5 -10.5 q-31 0 -54 10 q-23 10 -41 26 q-18 16 -32 34.5 q-14 18.5 -28 36.5 q-18 -23 -35 -42.5 q-17 -19.5 -36.5 -33.5 q-19.5 -14 -42.5 -22.5 q-23 -8.5 -51 -8.5 q-59 0 -93 37.5 q-34 37.5 -34 104.5 q0 62 37 101.5 q37 39.5 98 39.5 ZM142 451 q-38 0 -59.5 -25 q-21.5 -25 -21.5 -67 q0 -92 78 -92 q39 0 68.5 25.5 q29.5 25.5 59.5 65.5 q-11 15 -24.5 31.5 q-13.5 16.5 -29.5 30 q-16 13.5 -33.5 22.5 q-17.5 9 -37.5 9 ZM459 451 q-21 0 -38.5 -8.5 q-17.5 -8.5 -32.5 -21.5 q-15 -13 -29 -30 q-14 -17 -27 -33 q10 -14 22.5 -30 q12.5 -16 27 -29.5 q14.5 -13.5 32.5 -22.5 q18 -9 41 -9 q39 0 62.5 25 q23.5 25 23.5 67 q0 44 -22 68 q-22 24 -60 24 Z" /><glyph glyph-name="cid148" unicode="&#x2220;" d="M249 67 l511 0 l0 -63 l-610 0 l0 45 l472 550 l51 -42 l-424 -490 Z" /><glyph glyph-name="cid192" unicode="&#x2227;" d="M776 62 l-54 -26 l-267 519 l-267 -519 l-54 26 l294 569 l54 0 l294 -569 Z" /><glyph glyph-name="cid193" unicode="&#x2228;" d="M722 638 l54 -26 l-294 -569 l-54 0 l-294 569 l54 26 l267 -520 l267 520 Z" /><glyph glyph-name="cid191" unicode="&#x2229;" d="M455 675 q52 0 96.5 -17 q44.5 -17 77 -52 q32.5 -35 51 -89 q18.5 -54 18.5 -128 l0 -399 l-64 0 l0 404 q0 58 -13 100 q-13 42 -37 69.5 q-24 27.5 -57 40.5 q-33 13 -72 13 q-39 0 -72 -13 q-33 -13 -57 -40.5 q-24 -27.5 -37 -69.5 q-13 -42 -13 -100 l0 -404 l-64 0 l0 399 q0 74 18.5 128 q18.5 54 51 89 q32.5 35 77 52 q44.5 17 96.5 17 Z" /><glyph glyph-name="cid190" unicode="&#x222a;" d="M275 271 q0 -60 14 -101.5 q14 -41.5 38 -68 q24 -26.5 56 -38.5 q32 -12 68 -12 q39 0 73 12.5 q34 12.5 58.5 39.5 q24.5 27 38.5 68.5 q14 41.5 14 99.5 l0 404 l64 0 l0 -399 q0 -74 -20 -128 q-20 -54 -54 -89 q-34 -35 -80 -52 q-46 -17 -97 -17 q-48 0 -91 16 q-43 16 -75.5 50 q-32.5 34 -51.5 87.5 q-19 53.5 -19 127.5 l0 404 l64 0 l0 -404 Z" /><glyph glyph-name="cid182" unicode="&#x222b;" d="M262 807 q26 0 42 -7 l-10 -50 q-6 2 -13 3 q-7 1 -15 1 q-42 0 -60.5 -42 q-18.5 -42 -18.5 -136 q0 -54 1.5 -115.5 q1.5 -61.5 4 -124.5 q2.5 -63 4 -124.5 q1.5 -61.5 1.5 -116.5 q0 -110 -31 -169.5 q-31 -59.5 -104 -59.5 q-14 0 -27 2.5 q-13 2.5 -20 6.5 l10 51 q6 -2 14.5 -3 q8.5 -1 16.5 -1 q42 0 60 41 q18 41 18 132 q0 55 -1.5 117.5 q-1.5 62.5 -4 126.5 q-2.5 64 -4 126 q-1.5 62 -1.5 116 q0 108 32 167 q32 59 106 59 Z" /><glyph glyph-name="cid183" unicode="&#x222c;" d="M262 807 q26 0 42 -7 l-10 -50 q-6 2 -13 3 q-7 1 -15 1 q-42 0 -60.5 -42 q-18.5 -42 -18.5 -136 q0 -54 1.5 -115.5 q1.5 -61.5 4 -124.5 q2.5 -63 4 -124.5 q1.5 -61.5 1.5 -116.5 q0 -110 -31 -169.5 q-31 -59.5 -104 -59.5 q-14 0 -27 2.5 q-13 2.5 -20 6.5 l10 51 q6 -2 14.5 -3 q8.5 -1 16.5 -1 q42 0 60 41 q18 41 18 132 q0 55 -1.5 117.5 q-1.5 62.5 -4 126.5 q-2.5 64 -4 126 q-1.5 62 -1.5 116 q0 108 32 167 q32 59 106 59 ZM490 807 q26 0 42 -7 l-10 -50 q-6 2 -13 3 q-7 1 -15 1 q-42 0 -60.5 -42 q-18.5 -42 -18.5 -136 q0 -54 1.5 -115.5 q1.5 -61.5 4 -124.5 q2.5 -63 4 -124.5 q1.5 -61.5 1.5 -116.5 q0 -110 -31 -169.5 q-31 -59.5 -104 -59.5 q-14 0 -27 2.5 q-13 2.5 -20 6.5 l10 51 q6 -2 14.5 -3 q8.5 -1 16.5 -1 q42 0 60 41 q18 41 18 132 q0 55 -1.5 117.5 q-1.5 62.5 -4 126.5 q-2.5 64 -4 126 q-1.5 62 -1.5 116 q0 108 32 167 q32 59 106 59 Z" /><glyph glyph-name="cid211" unicode="&#x222e;" d="M570 771 q62 0 94 -63 l-47 -21 q-8 19 -20.5 29.5 q-12.5 10.5 -29.5 10.5 q-22 0 -42 -58.5 q-20 -58.5 -32 -165.5 q25 -3 47.5 -13 q22.5 -10 39 -26.5 q16.5 -16.5 26 -39.5 q9.5 -23 9.5 -52 q0 -35 -12 -62.5 q-12 -27.5 -31.5 -47.5 q-19.5 -20 -45 -32 q-25.5 -12 -52.5 -16 q-7 -56 -18 -104.5 q-11 -48.5 -27.5 -84.5 q-16.5 -36 -39 -57 q-22.5 -21 -51.5 -21 q-61 0 -92 59 l44 26 q9 -19 21.5 -30 q12.5 -11 29.5 -11 q22 0 42.5 58 q20.5 58 31.5 166 q-47 8 -80 40 q-33 32 -33 88 q0 33 11 60 q11 27 29 46.5 q18 19.5 41.5 32 q23.5 12.5 49.5 18.5 q7 56 18.5 105.5 q11.5 49.5 28 86 q16.5 36.5 39 58 q22.5 21.5 51.5 21.5 ZM490 473 q-2 -26 -3.5 -55 q-1.5 -29 -2.5 -59 q-1 -30 -2.5 -59.5 q-1.5 -29.5 -4.5 -55.5 q37 9 61 39 q24 30 28 75 l0 12 q0 38 -20 66.5 q-20 28.5 -56 36.5 ZM430 469 q-35 -13 -57 -45.5 q-22 -32.5 -22 -79.5 q0 -38 18 -64 q18 -26 49 -35 q5 50 6 110.5 q1 60.5 6 113.5 Z" /><glyph glyph-name="cid137" unicode="&#x2234;" d="M300 610 q24 0 40 -16.5 q16 -16.5 16 -39.5 q0 -24 -16 -41 q-16 -17 -40 -17 q-24 0 -41 17 q-17 17 -17 41 q0 23 17 39.5 q17 16.5 41 16.5 ZM110 221 q23 0 40 -16.5 q17 -16.5 17 -39.5 q0 -24 -17 -40.5 q-17 -16.5 -40 -16.5 q-24 0 -40.5 16.5 q-16.5 16.5 -16.5 40.5 q0 23 16.5 39.5 q16.5 16.5 40.5 16.5 ZM490 221 q23 0 40 -16.5 q17 -16.5 17 -39.5 q0 -24 -17 -40.5 q-17 -16.5 -40 -16.5 q-24 0 -40.5 16.5 q-16.5 16.5 -16.5 40.5 q0 23 16.5 39.5 q16.5 16.5 40.5 16.5 Z" /><glyph glyph-name="cid181" unicode="&#x2235;" d="M106 590 q23 0 40 -16.5 q17 -16.5 17 -40.5 q0 -24 -17 -40 q-17 -16 -40 -16 q-24 0 -40.5 16 q-16.5 16 -16.5 40 q0 24 16.5 40.5 q16.5 16.5 40.5 16.5 ZM486 590 q23 0 40 -16.5 q17 -16.5 17 -40.5 q0 -24 -17 -40 q-17 -16 -40 -16 q-24 0 -40.5 16 q-16.5 16 -16.5 40 q0 24 16.5 40.5 q16.5 16.5 40.5 16.5 ZM296 196 q23 0 40 -17.5 q17 -17.5 17 -40.5 q0 -23 -17 -39.5 q-17 -16.5 -40 -16.5 q-24 0 -40.5 16.5 q-16.5 16.5 -16.5 39.5 q0 23 16.5 40.5 q16.5 17.5 40.5 17.5 Z" /><glyph glyph-name="cid113" unicode="&#x301c;&#xff5e;&#x223c;" d="M319 426 q43 0 73.5 -9 q30.5 -9 62.5 -26 q32 -17 64 -29 q32 -12 72 -12 q37 0 64 17.5 q27 17.5 46 45.5 l41 -27 q-11 -18 -28 -35 q-17 -17 -37 -30 q-20 -13 -42 -21 q-22 -8 -44 -8 q-43 0 -73.5 9 q-30.5 9 -62.5 26 q-26 14 -61 27.5 q-35 13.5 -75 13.5 q-37 0 -64 -17.5 q-27 -17.5 -46 -45.5 l-41 27 q11 18 28 35 q17 17 37 30 q20 13 42 21 q22 8 44 8 Z" /><glyph glyph-name="cid179" unicode="&#x223d;" d="M260 547 q33 0 64 -12 q31 -12 59 -30 l-31 -49 q-21 12 -42.5 20 q-21.5 8 -42.5 8 q-56 0 -89 -34.5 q-33 -34.5 -33 -89.5 q0 -56 31.5 -90 q31.5 -34 89.5 -34 q37 0 65.5 16.5 q28.5 16.5 49.5 40.5 q21 24 35.5 51.5 q14.5 27.5 25.5 48.5 q15 30 34.5 58 q19.5 28 44.5 49 q25 21 56 34 q31 13 69 13 q40 0 73.5 -15.5 q33.5 -15.5 58 -41.5 q24.5 -26 38 -59.5 q13.5 -33.5 13.5 -70.5 q0 -38 -13.5 -72 q-13.5 -34 -37.5 -59.5 q-24 -25.5 -57.5 -41 q-33.5 -15.5 -73.5 -15.5 q-32 0 -62.5 11.5 q-30.5 11.5 -59.5 31.5 l34 48 q21 -17 42 -23.5 q21 -6.5 46 -6.5 q26 0 48 9.5 q22 9.5 37.5 27 q15.5 17.5 24.5 40.5 q9 23 9 50 q0 24 -8.5 46.5 q-8.5 22.5 -24 40.5 q-15.5 18 -37 28.5 q-21.5 10.5 -48.5 10.5 q-55 0 -92 -35 q-37 -35 -70 -99 q-12 -24 -30 -54.5 q-18 -30.5 -45 -58.5 q-27 -28 -63.5 -47 q-36.5 -19 -86.5 -19 q-33 0 -65.5 12 q-32.5 12 -58 35.5 q-25.5 23.5 -41 58.5 q-15.5 35 -15.5 81 q0 45 15 80 q15 35 40 58.5 q25 23.5 57.5 36 q32.5 12.5 66.5 12.5 Z" /><glyph glyph-name="cid154" unicode="&#x2252;" d="M197 654 q23 0 38.5 -15 q15.5 -15 15.5 -38 q0 -22 -15.5 -37.5 q-15.5 -15.5 -38.5 -15.5 q-23 0 -38.5 15.5 q-15.5 15.5 -15.5 37.5 q0 23 15.5 38 q15.5 15 38.5 15 ZM508 469 q13 0 19 -8.5 q6 -8.5 6 -21.5 q0 -13 -6 -22 q-6 -9 -19 -9 l-411 0 q-13 0 -18.5 9 q-5.5 9 -5.5 22 q0 13 5.5 21.5 q5.5 8.5 18.5 8.5 l411 0 ZM508 310 q13 0 19 -9 q6 -9 6 -22 q0 -13 -6 -21.5 q-6 -8.5 -19 -8.5 l-411 0 q-13 0 -18.5 8.5 q-5.5 8.5 -5.5 21.5 q0 13 5.5 22 q5.5 9 18.5 9 l411 0 ZM408 170 q23 0 38.5 -15.5 q15.5 -15.5 15.5 -37.5 q0 -23 -15.5 -38 q-15.5 -15 -38.5 -15 q-23 0 -38 15 q-15 15 -15 38 q0 22 15 37.5 q15 15.5 38 15.5 Z" /><glyph glyph-name="cid133" unicode="&#x2260;" d="M477 632 q8 -5 11 -14 q3 -9 -3 -19 l-67 -103 l89 0 q14 0 20 -9 q6 -9 6 -23 q0 -13 -6 -22 q-6 -9 -20 -9 l-131 0 l-96 -148 l227 0 q14 0 20 -9 q6 -9 6 -22 q0 -14 -6 -23 q-6 -9 -20 -9 l-268 0 l-81 -125 q-8 -11 -18 -11.5 q-10 -0.5 -20 5.5 q-8 5 -11 14 q-3 9 4 19 l63 98 l-78 0 q-13 0 -19 9 q-6 9 -6 23 q0 13 6 22 q6 9 19 9 l120 0 l96 148 l-216 0 q-13 0 -19 9 q-6 9 -6 22 q0 14 6 23 q6 9 19 9 l258 0 l84 130 q8 11 17.5 11.5 q9.5 0.5 19.5 -5.5 Z" /><glyph glyph-name="cid153" unicode="&#x2261;" d="M531 531 q11 0 15.5 -7.5 q4.5 -7.5 4.5 -18.5 q0 -11 -4.5 -18 q-4.5 -7 -15.5 -7 l-462 0 q-11 0 -16 7 q-5 7 -5 18 q0 11 5 18.5 q5 7.5 16 7.5 l462 0 ZM531 385 q11 0 15.5 -7.5 q4.5 -7.5 4.5 -18.5 q0 -10 -4.5 -17.5 q-4.5 -7.5 -15.5 -7.5 l-462 0 q-11 0 -16 7.5 q-5 7.5 -5 17.5 q0 11 5 18.5 q5 7.5 16 7.5 l462 0 ZM531 239 q11 0 15.5 -7.5 q4.5 -7.5 4.5 -18.5 q0 -11 -4.5 -18 q-4.5 -7 -15.5 -7 l-462 0 q-11 0 -16 7 q-5 7 -5 18 q0 11 5 18.5 q5 7.5 16 7.5 l462 0 Z" /><glyph glyph-name="cid134" unicode="&#x2264;" d="M499 671 q31 14 42 -14 q5 -13 1.5 -25.5 q-3.5 -12.5 -17.5 -18.5 l-378 -157 l0 -2 l378 -157 q14 -6 17.5 -18.5 q3.5 -12.5 -1.5 -25.5 q-11 -27 -42 -15 l-397 168 q-21 9 -28.5 21.5 q-7.5 12.5 -7.5 27.5 q0 15 7.5 27 q7.5 12 28.5 21 l397 168 ZM519 150 q14 0 20 -9 q6 -9 6 -23 q0 -13 -6 -22 q-6 -9 -20 -9 l-427 0 q-13 0 -19 9 q-6 9 -6 22 q0 14 6 23 q6 9 19 9 l427 0 Z" /><glyph glyph-name="cid135" unicode="&#x2265;" d="M513 503 q21 -9 28.5 -21 q7.5 -12 7.5 -27 q0 -15 -7.5 -27.5 q-7.5 -12.5 -28.5 -21.5 l-396 -168 q-30 -12 -43 15 q-5 13 -1.5 25.5 q3.5 12.5 17.5 18.5 l378 157 l0 2 l-378 157 q-14 6 -17.5 18.5 q-3.5 12.5 1.5 25.5 q13 27 43 14 l396 -168 ZM523 150 q14 0 20 -9 q6 -9 6 -23 q0 -13 -6 -22 q-6 -9 -20 -9 l-427 0 q-14 0 -20 9 q-6 9 -6 22 q0 14 6 23 q6 9 20 9 l427 0 Z" /><glyph glyph-name="cid188" unicode="&#x2282;" d="M797 539 l-404 0 q-60 0 -101 -14 q-41 -14 -66.5 -38 q-25.5 -24 -37 -56 q-11.5 -32 -11.5 -68 q0 -39 12 -73 q12 -34 38 -58.5 q26 -24.5 67 -38.5 q41 -14 99 -14 l404 0 l0 -60 l-399 0 q-74 0 -128 19.5 q-54 19.5 -89 53 q-35 33.5 -52 78.5 q-17 45 -17 96 q0 48 16 90.5 q16 42.5 50 74 q34 31.5 87.5 50 q53.5 18.5 127.5 18.5 l404 0 l0 -60 Z" /><glyph glyph-name="cid189" unicode="&#x2283;" d="M516 599 q74 0 127.5 -18.5 q53.5 -18.5 87.5 -50 q34 -31.5 50 -74 q16 -42.5 16 -90.5 q0 -51 -17 -96 q-17 -45 -52 -78.5 q-35 -33.5 -89 -53 q-54 -19.5 -128 -19.5 l-399 0 l0 60 l404 0 q58 0 99 14 q41 14 67 38.5 q26 24.5 38 58.5 q12 34 12 73 q0 36 -11.5 68 q-11.5 32 -37 56 q-25.5 24 -66.5 38 q-41 14 -101 14 l-404 0 l0 60 l404 0 l0 0 Z" /><glyph glyph-name="cid186" unicode="&#x2286;" d="M797 586 l-404 0 q-60 0 -101 -13 q-41 -13 -67 -35 q-26 -22 -37.5 -52.5 q-11.5 -30.5 -11.5 -64.5 q0 -38 12 -70.5 q12 -32.5 38.5 -55.5 q26.5 -23 67.5 -36 q41 -13 99 -13 l404 0 l0 -60 l-399 0 q-74 0 -128 18 q-54 18 -89 49.5 q-35 31.5 -52 75 q-17 43.5 -17 93.5 q0 47 16 88 q16 41 50 71 q34 30 87.5 47.5 q53.5 17.5 127.5 17.5 l404 0 l0 -60 ZM795 26 l-646 0 l0 60 l646 0 l0 -60 Z" /><glyph glyph-name="cid187" unicode="&#x2287;" d="M517 646 q74 0 127 -17.5 q53 -17.5 87 -47.5 q34 -30 50 -71 q16 -41 16 -88 q0 -50 -17 -93.5 q-17 -43.5 -52 -75 q-35 -31.5 -89 -49.5 q-54 -18 -128 -18 l-399 0 l0 60 l405 0 q58 0 99 13 q41 13 67 36 q26 23 38 55.5 q12 32.5 12 70.5 q0 34 -11.5 64.5 q-11.5 30.5 -37 52.5 q-25.5 22 -66.5 35 q-41 13 -101 13 l-405 0 l0 60 l405 0 ZM760 26 l-646 0 l0 60 l646 0 l0 -60 Z" /><glyph glyph-name="cid227" unicode="&#x2299;&#x25c9;" d="M455 749 q81 0 152 -30.5 q71 -30.5 124 -83.5 q53 -53 83.5 -124 q30.5 -71 30.5 -152 q0 -81 -30.5 -152 q-30.5 -71 -83.5 -124 q-53 -53 -124 -83.5 q-71 -30.5 -152 -30.5 q-80 0 -151 30.5 q-71 30.5 -124 83.5 q-53 53 -84 124 q-31 71 -31 152 q0 81 31 152 q31 71 84 124 q53 53 124 83.5 q71 30.5 151 30.5 ZM455 710 q-72 0 -135.5 -28 q-63.5 -28 -111.5 -75.5 q-48 -47.5 -75.5 -111.5 q-27.5 -64 -27.5 -136 q0 -72 27.5 -135.5 q27.5 -63.5 75.5 -111.5 q48 -48 111.5 -75.5 q63.5 -27.5 135.5 -27.5 q72 0 136 27.5 q64 27.5 111.5 75.5 q47.5 48 75.5 111.5 q28 63.5 28 135.5 q0 72 -28 136 q-28 64 -75.5 111.5 q-47.5 47.5 -111.5 75.5 q-64 28 -136 28 ZM455 514 q32 0 60.5 -12 q28.5 -12 49.5 -33 q21 -21 33 -49.5 q12 -28.5 12 -60.5 q0 -32 -12 -60.5 q-12 -28.5 -33 -49.5 q-21 -21 -49.5 -33 q-28.5 -12 -60.5 -12 q-32 0 -60 12 q-28 12 -49 33 q-21 21 -33.5 49.5 q-12.5 28.5 -12.5 60.5 q0 32 12.5 60.5 q12.5 28.5 33.5 49.5 q21 21 49 33 q28 12 60 12 Z" /><glyph glyph-name="cid149" unicode="&#x22a5;" d="M488 69 l286 0 l0 -65 l-638 0 l0 65 l286 0 l0 509 l66 0 l0 -509 Z" /><glyph glyph-name="cid150" unicode="&#x2312;" d="M454 756 q97 0 159.5 -44.5 q62.5 -44.5 101.5 -116.5 l-66 0 q-13 23 -31.5 43.5 q-18.5 20.5 -42.5 36 q-24 15.5 -53.5 24.5 q-29.5 9 -65.5 9 q-72 0 -120.5 -33.5 q-48.5 -33.5 -74.5 -79.5 l-67 0 q39 72 102 116.5 q63 44.5 158 44.5 Z" /><glyph glyph-name="cid733" unicode="&#x2460;" d="M455 772 q89 0 164.5 -31 q75.5 -31 130.5 -86 q55 -55 86 -131 q31 -76 31 -165 q0 -89 -31 -165 q-31 -76 -86 -131 q-55 -55 -130.5 -86 q-75.5 -31 -164.5 -31 q-89 0 -164.5 31 q-75.5 31 -130.5 86 q-55 55 -86 131 q-31 76 -31 165 q0 89 31 165 q31 76 86 131 q55 55 130.5 86 q75.5 31 164.5 31 ZM455 721 q-78 0 -144 -27 q-66 -27 -114 -75.5 q-48 -48.5 -75 -115 q-27 -66.5 -27 -144.5 q0 -78 27 -144.5 q27 -66.5 75 -115 q48 -48.5 114 -75.5 q66 -27 144 -27 q78 0 144 27 q66 27 114 75.5 q48 48.5 75 115 q27 66.5 27 144.5 q0 78 -27 144.5 q-27 66.5 -75 115 q-48 48.5 -114 75.5 q-66 27 -144 27 ZM487 573 q28 0 28 -24 l0 -388 q0 -13 -8 -18 q-8 -5 -18 -5 q-11 0 -19.5 5 q-8.5 5 -8.5 18 l0 345 l-91 -58 q-11 -7 -20 -3.5 q-9 3.5 -15 12.5 q-5 9 -3.5 19 q1.5 10 11.5 16 l111 70 q20 11 33 11 Z" /><glyph glyph-name="cid734" unicode="&#x2461;" d="M455 772 q89 0 164.5 -31 q75.5 -31 130.5 -86 q55 -55 86 -131 q31 -76 31 -165 q0 -89 -31 -165 q-31 -76 -86 -131 q-55 -55 -130.5 -86 q-75.5 -31 -164.5 -31 q-89 0 -164.5 31 q-75.5 31 -130.5 86 q-55 55 -86 131 q-31 76 -31 165 q0 89 31 165 q31 76 86 131 q55 55 130.5 86 q75.5 31 164.5 31 ZM455 721 q-78 0 -144 -27 q-66 -27 -114 -75.5 q-48 -48.5 -75 -115 q-27 -66.5 -27 -144.5 q0 -78 27 -144.5 q27 -66.5 75 -115 q48 -48.5 114 -75.5 q66 -27 144 -27 q78 0 144 27 q66 27 114 75.5 q48 48.5 75 115 q27 66.5 27 144.5 q0 78 -27 144.5 q-27 66.5 -75 115 q-48 48.5 -114 75.5 q-66 27 -144 27 ZM458 588 q66 0 98.5 -32 q32.5 -32 32.5 -78 l0 -6 q0 -34 -13.5 -61 q-13.5 -27 -43.5 -60 l-139 -153 l194 0 q11 0 16 -7 q5 -7 5 -17 q0 -10 -5 -17.5 q-5 -7.5 -16 -7.5 l-231 0 q-20 0 -28.5 7.5 q-8.5 7.5 -8.5 21.5 q0 12 17 32 l150 166 q29 32 39.5 53 q10.5 21 10.5 44 l0 2 q-1 29 -19.5 46 q-18.5 17 -56.5 17 q-32 0 -52.5 -14 q-20.5 -14 -37.5 -38 q-7 -9 -16 -10 q-9 -1 -18 4 q-19 13 -8 34 q19 33 52.5 53.5 q33.5 20.5 77.5 20.5 Z" /><glyph glyph-name="cid735" unicode="&#x2462;" d="M455 772 q89 0 164.5 -31 q75.5 -31 130.5 -86 q55 -55 86 -131 q31 -76 31 -165 q0 -89 -31 -165 q-31 -76 -86 -131 q-55 -55 -130.5 -86 q-75.5 -31 -164.5 -31 q-89 0 -164.5 31 q-75.5 31 -130.5 86 q-55 55 -86 131 q-31 76 -31 165 q0 89 31 165 q31 76 86 131 q55 55 130.5 86 q75.5 31 164.5 31 ZM455 721 q-78 0 -144 -27 q-66 -27 -114 -75.5 q-48 -48.5 -75 -115 q-27 -66.5 -27 -144.5 q0 -78 27 -144.5 q27 -66.5 75 -115 q48 -48.5 114 -75.5 q66 -27 144 -27 q78 0 144 27 q66 27 114 75.5 q48 48.5 75 115 q27 66.5 27 144.5 q0 78 -27 144.5 q-27 66.5 -75 115 q-48 48.5 -114 75.5 q-66 27 -144 27 ZM453 588 q63 0 98.5 -30.5 q35.5 -30.5 35.5 -80.5 l0 -4 q0 -30 -18.5 -57.5 q-18.5 -27.5 -55.5 -39.5 q38 -5 65 -30.5 q27 -25.5 27 -67.5 l0 -6 q0 -27 -9.5 -50 q-9.5 -23 -28.5 -40 q-19 -17 -47 -27 q-28 -10 -65 -10 q-35 0 -68 10 q-33 10 -58 28 q-10 7 -11.5 16.5 q-1.5 9.5 5.5 19.5 q14 21 33 8 q21 -15 45.5 -24 q24.5 -9 53.5 -9 q46 0 70.5 22 q24.5 22 24.5 57 l0 5 q0 38 -26.5 55 q-26.5 17 -68.5 17 l-37 0 q-11 0 -16 7.5 q-5 7.5 -5 17.5 q0 10 5 16.5 q5 6.5 16 6.5 l33 0 q15 0 30 4 q15 4 27 13 q12 9 19 23.5 q7 14.5 7 35.5 l0 2 q0 27 -21 45 q-21 18 -61 18 q-28 0 -46.5 -11 q-18.5 -11 -32.5 -28 q-8 -8 -17.5 -8 q-9.5 0 -17.5 7 q-18 15 -3 33 q17 25 47 40.5 q30 15.5 71 15.5 Z" /><glyph glyph-name="cid736" unicode="&#x2463;" d="M455 772 q89 0 164.5 -31 q75.5 -31 130.5 -86 q55 -55 86 -131 q31 -76 31 -165 q0 -89 -31 -165 q-31 -76 -86 -131 q-55 -55 -130.5 -86 q-75.5 -31 -164.5 -31 q-89 0 -164.5 31 q-75.5 31 -130.5 86 q-55 55 -86 131 q-31 76 -31 165 q0 89 31 165 q31 76 86 131 q55 55 130.5 86 q75.5 31 164.5 31 ZM455 721 q-78 0 -144 -27 q-66 -27 -114 -75.5 q-48 -48.5 -75 -115 q-27 -66.5 -27 -144.5 q0 -78 27 -144.5 q27 -66.5 75 -115 q48 -48.5 114 -75.5 q66 -27 144 -27 q78 0 144 27 q66 27 114 75.5 q48 48.5 75 115 q27 66.5 27 144.5 q0 78 -27 144.5 q-27 66.5 -75 115 q-48 48.5 -114 75.5 q-66 27 -144 27 ZM518 582 q9 -6 12 -15 q3 -9 -4 -20 l-177 -252 l150 0 l0 114 q0 12 8 17.5 q8 5.5 18 5.5 q11 0 19.5 -5.5 q8.5 -5.5 8.5 -17.5 l0 -114 l44 0 q11 0 16 -7 q5 -7 5 -17 q0 -10 -5 -16.5 q-5 -6.5 -16 -6.5 l-44 0 l0 -74 q0 -12 -8.5 -17 q-8.5 -5 -19.5 -5 q-10 0 -18 5 q-8 5 -8 17 l0 74 l-181 0 q-20 0 -28 6 q-8 6 -8 20 q0 6 2.5 12.5 q2.5 6.5 12.5 20.5 l186 269 q6 9 15.5 10.5 q9.5 1.5 19.5 -4.5 Z" /><glyph glyph-name="cid737" unicode="&#x2464;" d="M455 772 q89 0 164.5 -31 q75.5 -31 130.5 -86 q55 -55 86 -131 q31 -76 31 -165 q0 -89 -31 -165 q-31 -76 -86 -131 q-55 -55 -130.5 -86 q-75.5 -31 -164.5 -31 q-89 0 -164.5 31 q-75.5 31 -130.5 86 q-55 55 -86 131 q-31 76 -31 165 q0 89 31 165 q31 76 86 131 q55 55 130.5 86 q75.5 31 164.5 31 ZM455 721 q-78 0 -144 -27 q-66 -27 -114 -75.5 q-48 -48.5 -75 -115 q-27 -66.5 -27 -144.5 q0 -78 27 -144.5 q27 -66.5 75 -115 q48 -48.5 114 -75.5 q66 -27 144 -27 q78 0 144 27 q66 27 114 75.5 q48 48.5 75 115 q27 66.5 27 144.5 q0 78 -27 144.5 q-27 66.5 -75 115 q-48 48.5 -114 75.5 q-66 27 -144 27 ZM561 583 q11 0 16 -7.5 q5 -7.5 5 -17.5 q0 -10 -5 -17.5 q-5 -7.5 -16 -7.5 l-165 0 l-9 -143 q16 14 38.5 23.5 q22.5 9.5 47.5 9.5 q64 0 99 -37 q35 -37 35 -97 l0 -6 q0 -29 -10 -54.5 q-10 -25.5 -29 -44 q-19 -18.5 -47 -29 q-28 -10.5 -64 -10.5 q-39 0 -72.5 10.5 q-33.5 10.5 -57.5 27.5 q-11 7 -12.5 16.5 q-1.5 9.5 5.5 19.5 q13 19 34 8 q23 -15 48 -24 q25 -9 54 -9 q47 0 72 24.5 q25 24.5 25 65.5 l0 4 q0 45 -23.5 67 q-23.5 22 -66.5 22 q-24 0 -42.5 -8.5 q-18.5 -8.5 -33.5 -22.5 q-12 -11 -28 -11 q-11 0 -18.5 5.5 q-7.5 5.5 -6.5 16.5 l11 180 q2 25 11.5 35.5 q9.5 10.5 33.5 10.5 l171 0 Z" /><glyph glyph-name="cid738" unicode="&#x2465;" d="M455 772 q89 0 164.5 -31 q75.5 -31 130.5 -86 q55 -55 86 -131 q31 -76 31 -165 q0 -89 -31 -165 q-31 -76 -86 -131 q-55 -55 -130.5 -86 q-75.5 -31 -164.5 -31 q-89 0 -164.5 31 q-75.5 31 -130.5 86 q-55 55 -86 131 q-31 76 -31 165 q0 89 31 165 q31 76 86 131 q55 55 130.5 86 q75.5 31 164.5 31 ZM455 721 q-78 0 -144 -27 q-66 -27 -114 -75.5 q-48 -48.5 -75 -115 q-27 -66.5 -27 -144.5 q0 -78 27 -144.5 q27 -66.5 75 -115 q48 -48.5 114 -75.5 q66 -27 144 -27 q78 0 144 27 q66 27 114 75.5 q48 48.5 75 115 q27 66.5 27 144.5 q0 78 -27 144.5 q-27 66.5 -75 115 q-48 48.5 -114 75.5 q-66 27 -144 27 ZM475 588 q29 0 54.5 -6.5 q25.5 -6.5 43.5 -17.5 q11 -6 13 -15.5 q2 -9.5 -3 -18.5 q-13 -21 -33 -11 q-33 19 -75 19 q-55 0 -80 -41 q-25 -41 -32 -120 q15 25 43.5 40 q28.5 15 60.5 15 q64 0 101 -37 q37 -37 37 -100 l0 -10 q0 -33 -11 -59 q-11 -26 -30.5 -44 q-19.5 -18 -46.5 -27.5 q-27 -9.5 -58 -9.5 q-65 0 -107 45 q-42 45 -42 137 l0 12 q0 69 12 116.5 q12 47.5 33.5 77 q21.5 29.5 52 42.5 q30.5 13 67.5 13 ZM460 383 q-44 0 -69 -25.5 q-25 -25.5 -25 -61.5 l0 -2 q0 -45 26 -72.5 q26 -27.5 67 -27.5 q41 0 66.5 23.5 q25.5 23.5 25.5 68.5 l0 4 q0 45 -22.5 69 q-22.5 24 -68.5 24 Z" /><glyph glyph-name="cid739" unicode="&#x2466;" d="M455 772 q89 0 164.5 -31 q75.5 -31 130.5 -86 q55 -55 86 -131 q31 -76 31 -165 q0 -89 -31 -165 q-31 -76 -86 -131 q-55 -55 -130.5 -86 q-75.5 -31 -164.5 -31 q-89 0 -164.5 31 q-75.5 31 -130.5 86 q-55 55 -86 131 q-31 76 -31 165 q0 89 31 165 q31 76 86 131 q55 55 130.5 86 q75.5 31 164.5 31 ZM455 721 q-78 0 -144 -27 q-66 -27 -114 -75.5 q-48 -48.5 -75 -115 q-27 -66.5 -27 -144.5 q0 -78 27 -144.5 q27 -66.5 75 -115 q48 -48.5 114 -75.5 q66 -27 144 -27 q78 0 144 27 q66 27 114 75.5 q48 48.5 75 115 q27 66.5 27 144.5 q0 78 -27 144.5 q-27 66.5 -75 115 q-48 48.5 -114 75.5 q-66 27 -144 27 ZM576 559 q20 0 28.5 -7 q8.5 -7 8.5 -22 q0 -7 -2.5 -15.5 q-2.5 -8.5 -10.5 -25.5 l-159 -349 q-6 -12 -15.5 -14.5 q-9.5 -2.5 -20.5 2.5 q-10 5 -14 13.5 q-4 8.5 2 20.5 l160 348 l-220 0 q-11 0 -16 7.5 q-5 7.5 -5 17.5 q0 10 5 17 q5 7 16 7 l243 0 Z" /><glyph glyph-name="cid740" unicode="&#x2467;" d="M455 772 q89 0 164.5 -31 q75.5 -31 130.5 -86 q55 -55 86 -131 q31 -76 31 -165 q0 -89 -31 -165 q-31 -76 -86 -131 q-55 -55 -130.5 -86 q-75.5 -31 -164.5 -31 q-89 0 -164.5 31 q-75.5 31 -130.5 86 q-55 55 -86 131 q-31 76 -31 165 q0 89 31 165 q31 76 86 131 q55 55 130.5 86 q75.5 31 164.5 31 ZM455 721 q-78 0 -144 -27 q-66 -27 -114 -75.5 q-48 -48.5 -75 -115 q-27 -66.5 -27 -144.5 q0 -78 27 -144.5 q27 -66.5 75 -115 q48 -48.5 114 -75.5 q66 -27 144 -27 q78 0 144 27 q66 27 114 75.5 q48 48.5 75 115 q27 66.5 27 144.5 q0 78 -27 144.5 q-27 66.5 -75 115 q-48 48.5 -114 75.5 q-66 27 -144 27 ZM456 588 q60 0 96.5 -32.5 q36.5 -32.5 36.5 -80.5 l0 -7 q0 -31 -17 -56 q-17 -25 -49 -39 q38 -12 58 -39.5 q20 -27.5 20 -62.5 l0 -6 q0 -54 -39 -87 q-39 -33 -105 -33 q-67 0 -106 33 q-39 33 -39 87 l0 6 q0 35 20 63 q20 28 58 39 q-32 14 -49 39.5 q-17 25.5 -17 55.5 l0 7 q0 48 35.5 80.5 q35.5 32.5 96.5 32.5 ZM456 539 q-38 0 -58 -19.5 q-20 -19.5 -20 -48.5 l0 -4 q0 -32 22 -52 q22 -20 57 -20 q35 0 56.5 20 q21.5 20 21.5 52 l0 4 q0 30 -21 49 q-21 19 -58 19 ZM456 346 q-38 0 -64.5 -19.5 q-26.5 -19.5 -26.5 -56.5 l0 -4 q0 -31 24 -51.5 q24 -20.5 67 -20.5 q45 0 68 20.5 q23 20.5 23 51.5 l0 4 q0 35 -26 55.5 q-26 20.5 -65 20.5 Z" /></font>
</defs>
</svg>
